  0
SECTION
  2
HEADER
  9
$ACADVER
  1
AC1009
  9
$INSBASE
 10
0.0
 20
0.0
 30
0.0
  9
$EXTMIN
 10
0.0
 20
0.0
 30
0.0
  9
$EXTMAX
 10
0.0
 20
0.0
 30
0.0
  0
ENDSEC
  0
SECTION
  2
TABLES
  0
TABLE
  2
VPORT
 70
0
  0
ENDTAB
  0
TABLE
  2
LTYPE
 70
1
  0
LTYPE
  2
CONTINUOUS
 70
0
  3
Solid line
 72
65
 73
0
 40
0.0
  0
ENDTAB
  0
TABLE
  2
LAYER
 70
1
  0
LAYER
  2
0
 70
64
 62
7
  6
continuous
  0
ENDTAB
  0
TABLE
  2
STYLE
 70
1
  0
STYLE
  2
STANDARD
 70
0
 40
0
 41
1.0
 50
0.0
 71
0
 42
1
 3
ARIAL.TTF
 4

  0
ENDTAB
  0
TABLE
  2
VIEW
 70
0
  0
ENDTAB
  0
ENDSEC
  0
SECTION
  2
BLOCKS
  0
ENDSEC
  0
SECTION
  2
ENTITIES
  0
POLYLINE
  8
0
 62
175
 70
1
 66
1
 10
0.0
 20
0.0
 30
0.0
  0
VERTEX
  8
0
 10
-20.3
 20
-3.51141407372
 30
0.1
  0
VERTEX
  8
0
 10
-20.3
 20
-3.51141407372
 30
0.0
  0
VERTEX
  8
0
 10
-16.24
 20
-2.80913125898
 30
0.0
  0
VERTEX
  8
0
 10
-12.18
 20
-2.10684844423
 30
0.0
  0
VERTEX
  8
0
 10
-8.12
 20
-1.40456562949
 30
0.0
  0
VERTEX
  8
0
 10
-4.06
 20
-0.702282814744
 30
0.0
  0
VERTEX
  8
0
 10
-2.48689957516e-16
 20
0.0
 30
0.0
  0
VERTEX
  8
0
 10
0.0
 20
0.0
 30
0.1
  0
VERTEX
  8
0
 10
-4.06
 20
-0.702282814744
 30
0.1
  0
VERTEX
  8
0
 10
-8.12
 20
-1.40456562949
 30
0.1
  0
VERTEX
  8
0
 10
-12.18
 20
-2.10684844423
 30
0.1
  0
VERTEX
  8
0
 10
-16.24
 20
-2.80913125898
 30
0.1
  0
SEQEND
  8
0
  0
POLYLINE
  8
0
 62
175
 70
1
 66
1
 10
0.0
 20
0.0
 30
0.0
  0
VERTEX
  8
0
 10
7.10984535671
 20
19.3357215485
 30
0.1
  0
VERTEX
  8
0
 10
7.10984535671
 20
19.3357215485
 30
0.0
  0
VERTEX
  8
0
 10
5.68787628537
 20
15.4685772388
 30
0.0
  0
VERTEX
  8
0
 10
4.26590721403
 20
11.6014329291
 30
0.0
  0
VERTEX
  8
0
 10
2.84393814268
 20
7.7342886194
 30
0.0
  0
VERTEX
  8
0
 10
1.42196907134
 20
3.8671443097
 30
0.0
  0
VERTEX
  8
0
 10
-2.48689957516e-16
 20
0.0
 30
0.0
  0
VERTEX
  8
0
 10
0.0
 20
0.0
 30
0.1
  0
VERTEX
  8
0
 10
1.42196907134
 20
3.8671443097
 30
0.1
  0
VERTEX
  8
0
 10
2.84393814268
 20
7.7342886194
 30
0.1
  0
VERTEX
  8
0
 10
4.26590721403
 20
11.6014329291
 30
0.1
  0
VERTEX
  8
0
 10
5.68787628537
 20
15.4685772388
 30
0.1
  0
SEQEND
  8
0
  0
POLYLINE
  8
0
 62
175
 70
1
 66
1
 10
0.0
 20
0.0
 30
0.0
  0
VERTEX
  8
0
 10
-2.48689957516e-16
 20
0.0
 30
0.1
  0
VERTEX
  8
0
 10
0.0
 20
0.0
 30
0.0
  0
VERTEX
  8
0
 10
0.484974226119
 20
4.43505582338
 30
0.0
  0
VERTEX
  8
0
 10
0.969948452239
 20
8.87011164676
 30
0.0
  0
VERTEX
  8
0
 10
1.45492267836
 20
13.3051674701
 30
0.0
  0
VERTEX
  8
0
 10
1.93989690448
 20
17.7402232935
 30
0.0
  0
VERTEX
  8
0
 10
2.4248711306
 20
22.1752791169
 30
0.0
  0
VERTEX
  8
0
 10
2.90984535672
 20
26.6103349403
 30
0.0
  0
VERTEX
  8
0
 10
2.90984535672
 20
26.6103349403
 30
0.1
  0
VERTEX
  8
0
 10
2.4248711306
 20
22.1752791169
 30
0.1
  0
VERTEX
  8
0
 10
1.93989690448
 20
17.7402232935
 30
0.1
  0
VERTEX
  8
0
 10
1.45492267836
 20
13.3051674701
 30
0.1
  0
VERTEX
  8
0
 10
0.969948452239
 20
8.87011164676
 30
0.1
  0
VERTEX
  8
0
 10
0.484974226119
 20
4.43505582338
 30
0.1
  0
SEQEND
  8
0
  0
POLYLINE
  8
0
 62
175
 70
1
 66
1
 10
0.0
 20
0.0
 30
0.0
  0
VERTEX
  8
0
 10
0.0
 20
24.9303349403
 30
0.1
  0
VERTEX
  8
0
 10
0.0
 20
24.9303349403
 30
0.0
  0
VERTEX
  8
0
 10
0.0
 20
19.9442679522
 30
0.0
  0
VERTEX
  8
0
 10
0.0
 20
14.9582009642
 30
0.0
  0
VERTEX
  8
0
 10
0.0
 20
9.97213397611
 30
0.0
  0
VERTEX
  8
0
 10
0.0
 20
4.98606698806
 30
0.0
  0
VERTEX
  8
0
 10
-2.48689957516e-16
 20
0.0
 30
0.0
  0
VERTEX
  8
0
 10
0.0
 20
0.0
 30
0.1
  0
VERTEX
  8
0
 10
0.0
 20
4.98606698806
 30
0.1
  0
VERTEX
  8
0
 10
0.0
 20
9.97213397611
 30
0.1
  0
VERTEX
  8
0
 10
0.0
 20
14.9582009642
 30
0.1
  0
VERTEX
  8
0
 10
0.0
 20
19.9442679522
 30
0.1
  0
SEQEND
  8
0
  0
POLYLINE
  8
0
 62
175
 70
1
 66
1
 10
0.0
 20
0.0
 30
0.0
  0
VERTEX
  8
0
 10
-2.48689957516e-16
 20
0.0
 30
0.1
  0
VERTEX
  8
0
 10
-4.97379915032e-16
 20
0.0
 30
0.0
  0
VERTEX
  8
0
 10
-0.484974226119
 20
4.43505582338
 30
0.0
  0
VERTEX
  8
0
 10
-0.969948452238
 20
8.87011164676
 30
0.0
  0
VERTEX
  8
0
 10
-1.45492267836
 20
13.3051674701
 30
0.0
  0
VERTEX
  8
0
 10
-1.93989690448
 20
17.7402232935
 30
0.0
  0
VERTEX
  8
0
 10
-2.4248711306
 20
22.1752791169
 30
0.0
  0
VERTEX
  8
0
 10
-2.90984535671
 20
26.6103349403
 30
0.0
  0
VERTEX
  8
0
 10
-2.90984535671
 20
26.6103349403
 30
0.1
  0
VERTEX
  8
0
 10
-2.4248711306
 20
22.1752791169
 30
0.1
  0
VERTEX
  8
0
 10
-1.93989690448
 20
17.7402232935
 30
0.1
  0
VERTEX
  8
0
 10
-1.45492267836
 20
13.3051674701
 30
0.1
  0
VERTEX
  8
0
 10
-0.969948452238
 20
8.87011164676
 30
0.1
  0
VERTEX
  8
0
 10
-0.484974226119
 20
4.43505582338
 30
0.1
  0
SEQEND
  8
0
  0
POLYLINE
  8
0
 62
175
 70
1
 66
1
 10
0.0
 20
0.0
 30
0.0
  0
VERTEX
  8
0
 10
21.56
 20
-12.4126804709
 30
0.1
  0
VERTEX
  8
0
 10
21.56
 20
-12.4126804709
 30
0.0
  0
VERTEX
  8
0
 10
17.248
 20
-9.93014437673
 30
0.0
  0
VERTEX
  8
0
 10
12.936
 20
-7.44760828254
 30
0.0
  0
VERTEX
  8
0
 10
8.624
 20
-4.96507218836
 30
0.0
  0
VERTEX
  8
0
 10
4.312
 20
-2.48253609418
 30
0.0
  0
VERTEX
  8
0
 10
-2.48689957516e-16
 20
0.0
 30
0.0
  0
VERTEX
  8
0
 10
0.0
 20
0.0
 30
0.1
  0
VERTEX
  8
0
 10
4.312
 20
-2.48253609418
 30
0.1
  0
VERTEX
  8
0
 10
8.624
 20
-4.96507218836
 30
0.1
  0
VERTEX
  8
0
 10
12.936
 20
-7.44760828254
 30
0.1
  0
VERTEX
  8
0
 10
17.248
 20
-9.93014437673
 30
0.1
  0
SEQEND
  8
0
  0
POLYLINE
  8
0
 62
175
 70
1
 66
1
 10
0.0
 20
0.0
 30
0.0
  0
VERTEX
  8
0
 10
-2.48689957516e-16
 20
0.0
 30
0.1
  0
VERTEX
  8
0
 10
0.0
 20
0.0
 30
0.0
  0
VERTEX
  8
0
 10
3.58312047097
 20
-2.62868694346
 30
0.0
  0
VERTEX
  8
0
 10
7.16624094194
 20
-5.25737388691
 30
0.0
  0
VERTEX
  8
0
 10
10.7493614129
 20
-7.88606083037
 30
0.0
  0
VERTEX
  8
0
 10
14.3324818839
 20
-10.5147477738
 30
0.0
  0
VERTEX
  8
0
 10
17.9156023549
 20
-13.1434347173
 30
0.0
  0
VERTEX
  8
0
 10
21.4987228258
 20
-15.7721216607
 30
0.0
  0
VERTEX
  8
0
 10
21.4987228258
 20
-15.7721216607
 30
0.1
  0
VERTEX
  8
0
 10
17.9156023549
 20
-13.1434347173
 30
0.1
  0
VERTEX
  8
0
 10
14.3324818839
 20
-10.5147477738
 30
0.1
  0
VERTEX
  8
0
 10
10.7493614129
 20
-7.88606083037
 30
0.1
  0
VERTEX
  8
0
 10
7.16624094194
 20
-5.25737388691
 30
0.1
  0
VERTEX
  8
0
 10
3.58312047097
 20
-2.62868694346
 30
0.1
  0
SEQEND
  8
0
  0
POLYLINE
  8
0
 62
175
 70
1
 66
1
 10
0.0
 20
0.0
 30
0.0
  0
VERTEX
  8
0
 10
-13.0987228258
 20
-15.7721216607
 30
0.1
  0
VERTEX
  8
0
 10
-13.0987228258
 20
-15.7721216607
 30
0.0
  0
VERTEX
  8
0
 10
-10.4789782607
 20
-12.6176973286
 30
0.0
  0
VERTEX
  8
0
 10
-7.85923369549
 20
-9.46327299644
 30
0.0
  0
VERTEX
  8
0
 10
-5.23948913033
 20
-6.3088486643
 30
0.0
  0
VERTEX
  8
0
 10
-2.61974456516
 20
-3.15442433215
 30
0.0
  0
VERTEX
  8
0
 10
-2.48689957516e-16
 20
0.0
 30
0.0
  0
VERTEX
  8
0
 10
0.0
 20
0.0
 30
0.1
  0
VERTEX
  8
0
 10
-2.61974456516
 20
-3.15442433215
 30
0.1
  0
VERTEX
  8
0
 10
-5.23948913033
 20
-6.3088486643
 30
0.1
  0
VERTEX
  8
0
 10
-7.85923369549
 20
-9.46327299644
 30
0.1
  0
VERTEX
  8
0
 10
-10.4789782607
 20
-12.6176973286
 30
0.1
  0
SEQEND
  8
0
  0
POLYLINE
  8
0
 62
175
 70
1
 66
1
 10
0.0
 20
0.0
 30
0.0
  0
VERTEX
  8
0
 10
-2.48689957516e-16
 20
0.0
 30
0.1
  0
VERTEX
  8
0
 10
0.0
 20
0.0
 30
0.0
  0
VERTEX
  8
0
 10
-3.58312047097
 20
-2.62868694346
 30
0.0
  0
VERTEX
  8
0
 10
-7.16624094194
 20
-5.25737388691
 30
0.0
  0
VERTEX
  8
0
 10
-10.7493614129
 20
-7.88606083037
 30
0.0
  0
VERTEX
  8
0
 10
-14.3324818839
 20
-10.5147477738
 30
0.0
  0
VERTEX
  8
0
 10
-17.9156023549
 20
-13.1434347173
 30
0.0
  0
VERTEX
  8
0
 10
-21.4987228258
 20
-15.7721216607
 30
0.0
  0
VERTEX
  8
0
 10
-21.4987228258
 20
-15.7721216607
 30
0.1
  0
VERTEX
  8
0
 10
-17.9156023549
 20
-13.1434347173
 30
0.1
  0
VERTEX
  8
0
 10
-14.3324818839
 20
-10.5147477738
 30
0.1
  0
VERTEX
  8
0
 10
-10.7493614129
 20
-7.88606083037
 30
0.1
  0
VERTEX
  8
0
 10
-7.16624094194
 20
-5.25737388691
 30
0.1
  0
VERTEX
  8
0
 10
-3.58312047097
 20
-2.62868694346
 30
0.1
  0
SEQEND
  8
0
  0
POLYLINE
  8
0
 62
175
 70
1
 66
1
 10
0.0
 20
0.0
 30
0.0
  0
VERTEX
  8
0
 10
-21.56
 20
-12.4126804709
 30
0.1
  0
VERTEX
  8
0
 10
-21.56
 20
-12.4126804709
 30
0.0
  0
VERTEX
  8
0
 10
-17.248
 20
-9.93014437673
 30
0.0
  0
VERTEX
  8
0
 10
-12.936
 20
-7.44760828254
 30
0.0
  0
VERTEX
  8
0
 10
-8.624
 20
-4.96507218836
 30
0.0
  0
VERTEX
  8
0
 10
-4.312
 20
-2.48253609418
 30
0.0
  0
VERTEX
  8
0
 10
-2.48689957516e-16
 20
0.0
 30
0.0
  0
VERTEX
  8
0
 10
0.0
 20
0.0
 30
0.1
  0
VERTEX
  8
0
 10
-4.312
 20
-2.48253609418
 30
0.1
  0
VERTEX
  8
0
 10
-8.624
 20
-4.96507218836
 30
0.1
  0
VERTEX
  8
0
 10
-12.936
 20
-7.44760828254
 30
0.1
  0
VERTEX
  8
0
 10
-17.248
 20
-9.93014437673
 30
0.1
  0
SEQEND
  8
0
  0
POLYLINE
  8
0
 62
175
 70
1
 66
1
 10
0.0
 20
0.0
 30
0.0
  0
VERTEX
  8
0
 10
-2.48689957516e-16
 20
0.0
 30
0.1
  0
VERTEX
  8
0
 10
0.0
 20
0.0
 30
0.0
  0
VERTEX
  8
0
 10
-4.08333333333
 20
-1.79767124425
 30
0.0
  0
VERTEX
  8
0
 10
-8.16666666667
 20
-3.5953424885
 30
0.0
  0
VERTEX
  8
0
 10
-12.25
 20
-5.39301373275
 30
0.0
  0
VERTEX
  8
0
 10
-16.3333333333
 20
-7.190684977
 30
0.0
  0
VERTEX
  8
0
 10
-20.4166666667
 20
-8.98835622125
 30
0.0
  0
VERTEX
  8
0
 10
-24.5
 20
-10.7860274655
 30
0.0
  0
VERTEX
  8
0
 10
-24.5
 20
-10.7860274655
 30
0.1
  0
VERTEX
  8
0
 10
-20.4166666667
 20
-8.98835622125
 30
0.1
  0
VERTEX
  8
0
 10
-16.3333333333
 20
-7.190684977
 30
0.1
  0
VERTEX
  8
0
 10
-12.25
 20
-5.39301373275
 30
0.1
  0
VERTEX
  8
0
 10
-8.16666666667
 20
-3.5953424885
 30
0.1
  0
VERTEX
  8
0
 10
-4.08333333333
 20
-1.79767124425
 30
0.1
  0
SEQEND
  8
0
  0
POLYLINE
  8
0
 62
175
 70
1
 66
1
 10
0.0
 20
0.0
 30
0.0
  0
VERTEX
  8
0
 10
-7.10984535672
 20
19.3357215485
 30
0.1
  0
VERTEX
  8
0
 10
-7.10984535672
 20
19.3357215485
 30
0.0
  0
VERTEX
  8
0
 10
-5.68787628538
 20
15.4685772388
 30
0.0
  0
VERTEX
  8
0
 10
-4.26590721403
 20
11.6014329291
 30
0.0
  0
VERTEX
  8
0
 10
-2.84393814269
 20
7.73428861939
 30
0.0
  0
VERTEX
  8
0
 10
-1.42196907134
 20
3.8671443097
 30
0.0
  0
VERTEX
  8
0
 10
-2.48689957516e-16
 20
0.0
 30
0.0
  0
VERTEX
  8
0
 10
0.0
 20
0.0
 30
0.1
  0
VERTEX
  8
0
 10
-1.42196907134
 20
3.8671443097
 30
0.1
  0
VERTEX
  8
0
 10
-2.84393814269
 20
7.73428861939
 30
0.1
  0
VERTEX
  8
0
 10
-4.26590721403
 20
11.6014329291
 30
0.1
  0
VERTEX
  8
0
 10
-5.68787628538
 20
15.4685772388
 30
0.1
  0
SEQEND
  8
0
  0
POLYLINE
  8
0
 62
175
 70
1
 66
1
 10
0.0
 20
0.0
 30
0.0
  0
VERTEX
  8
0
 10
-20.3
 20
-3.51141407372
 30
0.1
  0
VERTEX
  8
0
 10
-20.3
 20
-3.51141407372
 30
0.0
  0
VERTEX
  8
0
 10
-20.5758973759
 20
1.0259025162
 30
0.0
  0
VERTEX
  8
0
 10
-19.7800861544
 20
5.75918575163
 30
0.0
  0
VERTEX
  8
0
 10
-17.8416032675
 20
10.3003505592
 30
0.0
  0
VERTEX
  8
0
 10
-14.8782479387
 20
14.2498339314
 30
0.0
  0
VERTEX
  8
0
 10
-11.1771394854
 20
17.3058250806
 30
0.0
  0
VERTEX
  8
0
 10
-7.10984535672
 20
19.3357215485
 30
0.0
  0
VERTEX
  8
0
 10
-7.10984535672
 20
19.3357215485
 30
0.1
  0
VERTEX
  8
0
 10
-11.1771394854
 20
17.3058250806
 30
0.1
  0
VERTEX
  8
0
 10
-14.8782479387
 20
14.2498339314
 30
0.1
  0
VERTEX
  8
0
 10
-17.8416032675
 20
10.3003505592
 30
0.1
  0
VERTEX
  8
0
 10
-19.7800861544
 20
5.75918575163
 30
0.1
  0
VERTEX
  8
0
 10
-20.5758973759
 20
1.0259025162
 30
0.1
  0
SEQEND
  8
0
  0
POLYLINE
  8
0
 62
175
 70
1
 66
1
 10
0.0
 20
0.0
 30
0.0
  0
VERTEX
  8
0
 10
-24.5
 20
-10.7860274655
 30
0.1
  0
VERTEX
  8
0
 10
-24.5
 20
-10.7860274655
 30
0.0
  0
VERTEX
  8
0
 10
-22.4
 20
-7.14872076961
 30
0.0
  0
VERTEX
  8
0
 10
-20.3
 20
-3.51141407372
 30
0.0
  0
VERTEX
  8
0
 10
-20.3
 20
-3.51141407372
 30
0.1
  0
VERTEX
  8
0
 10
-22.4
 20
-7.14872076961
 30
0.1
  0
SEQEND
  8
0
  0
POLYLINE
  8
0
 62
175
 70
1
 66
1
 10
0.0
 20
0.0
 30
0.0
  0
VERTEX
  8
0
 10
-21.4987228258
 20
-15.7721216607
 30
0.1
  0
VERTEX
  8
0
 10
-21.4987228258
 20
-15.7721216607
 30
0.0
  0
VERTEX
  8
0
 10
-24.4387228258
 20
-14.1454686553
 30
0.0
  0
VERTEX
  8
0
 10
-24.5
 20
-10.7860274655
 30
0.0
  0
VERTEX
  8
0
 10
-24.5
 20
-10.7860274655
 30
0.1
  0
VERTEX
  8
0
 10
-24.4387228258
 20
-14.1454686553
 30
0.1
  0
SEQEND
  8
0
  0
POLYLINE
  8
0
 62
175
 70
1
 66
1
 10
0.0
 20
0.0
 30
0.0
  0
VERTEX
  8
0
 10
-13.0987228258
 20
-15.7721216607
 30
0.1
  0
VERTEX
  8
0
 10
-13.0987228258
 20
-15.7721216607
 30
0.0
  0
VERTEX
  8
0
 10
-17.2987228258
 20
-15.7721216607
 30
0.0
  0
VERTEX
  8
0
 10
-21.4987228258
 20
-15.7721216607
 30
0.0
  0
VERTEX
  8
0
 10
-21.4987228258
 20
-15.7721216607
 30
0.1
  0
VERTEX
  8
0
 10
-17.2987228258
 20
-15.7721216607
 30
0.1
  0
SEQEND
  8
0
  0
POLYLINE
  8
0
 62
175
 70
1
 66
1
 10
0.0
 20
0.0
 30
0.0
  0
VERTEX
  8
0
 10
13.0987228258
 20
-15.7721216607
 30
0.1
  0
VERTEX
  8
0
 10
13.0987228258
 20
-15.7721216607
 30
0.0
  0
VERTEX
  8
0
 10
9.3304254445
 20
-18.2559448502
 30
0.0
  0
VERTEX
  8
0
 10
4.86509057745
 20
-19.9165070989
 30
0.0
  0
VERTEX
  8
0
 10
6.3512572362e-12
 20
-20.5021062662
 30
0.0
  0
VERTEX
  8
0
 10
-4.86509057744
 20
-19.9165070989
 30
0.0
  0
VERTEX
  8
0
 10
-9.33042544448
 20
-18.2559448502
 30
0.0
  0
VERTEX
  8
0
 10
-13.0987228258
 20
-15.7721216607
 30
0.0
  0
VERTEX
  8
0
 10
-13.0987228258
 20
-15.7721216607
 30
0.1
  0
VERTEX
  8
0
 10
-9.33042544448
 20
-18.2559448502
 30
0.1
  0
VERTEX
  8
0
 10
-4.86509057744
 20
-19.9165070989
 30
0.1
  0
VERTEX
  8
0
 10
6.3512572362e-12
 20
-20.5021062662
 30
0.1
  0
VERTEX
  8
0
 10
4.86509057745
 20
-19.9165070989
 30
0.1
  0
VERTEX
  8
0
 10
9.3304254445
 20
-18.2559448502
 30
0.1
  0
SEQEND
  8
0
  0
POLYLINE
  8
0
 62
175
 70
1
 66
1
 10
0.0
 20
0.0
 30
0.0
  0
VERTEX
  8
0
 10
21.4987228258
 20
-15.7721216607
 30
0.1
  0
VERTEX
  8
0
 10
21.4987228258
 20
-15.7721216607
 30
0.0
  0
VERTEX
  8
0
 10
17.2987228258
 20
-15.7721216607
 30
0.0
  0
VERTEX
  8
0
 10
13.0987228258
 20
-15.7721216607
 30
0.0
  0
VERTEX
  8
0
 10
13.0987228258
 20
-15.7721216607
 30
0.1
  0
VERTEX
  8
0
 10
17.2987228258
 20
-15.7721216607
 30
0.1
  0
SEQEND
  8
0
  0
POLYLINE
  8
0
 62
175
 70
1
 66
1
 10
0.0
 20
0.0
 30
0.0
  0
VERTEX
  8
0
 10
24.5
 20
-10.7860274655
 30
0.1
  0
VERTEX
  8
0
 10
24.5
 20
-10.7860274655
 30
0.0
  0
VERTEX
  8
0
 10
24.4387228258
 20
-14.1454686553
 30
0.0
  0
VERTEX
  8
0
 10
21.4987228258
 20
-15.7721216607
 30
0.0
  0
VERTEX
  8
0
 10
21.4987228258
 20
-15.7721216607
 30
0.1
  0
VERTEX
  8
0
 10
24.4387228258
 20
-14.1454686553
 30
0.1
  0
SEQEND
  8
0
  0
POLYLINE
  8
0
 62
175
 70
1
 66
1
 10
0.0
 20
0.0
 30
0.0
  0
VERTEX
  8
0
 10
-2.48689957516e-16
 20
0.0
 30
0.1
  0
VERTEX
  8
0
 10
0.0
 20
0.0
 30
0.0
  0
VERTEX
  8
0
 10
4.08333333333
 20
-1.79767124425
 30
0.0
  0
VERTEX
  8
0
 10
8.16666666667
 20
-3.5953424885
 30
0.0
  0
VERTEX
  8
0
 10
12.25
 20
-5.39301373275
 30
0.0
  0
VERTEX
  8
0
 10
16.3333333333
 20
-7.190684977
 30
0.0
  0
VERTEX
  8
0
 10
20.4166666667
 20
-8.98835622125
 30
0.0
  0
VERTEX
  8
0
 10
24.5
 20
-10.7860274655
 30
0.0
  0
VERTEX
  8
0
 10
24.5
 20
-10.7860274655
 30
0.1
  0
VERTEX
  8
0
 10
20.4166666667
 20
-8.98835622125
 30
0.1
  0
VERTEX
  8
0
 10
16.3333333333
 20
-7.190684977
 30
0.1
  0
VERTEX
  8
0
 10
12.25
 20
-5.39301373275
 30
0.1
  0
VERTEX
  8
0
 10
8.16666666667
 20
-3.5953424885
 30
0.1
  0
VERTEX
  8
0
 10
4.08333333333
 20
-1.79767124425
 30
0.1
  0
SEQEND
  8
0
  0
POLYLINE
  8
0
 62
175
 70
1
 66
1
 10
0.0
 20
0.0
 30
0.0
  0
VERTEX
  8
0
 10
20.3
 20
-3.51141407371
 30
0.1
  0
VERTEX
  8
0
 10
20.3
 20
-3.51141407371
 30
0.0
  0
VERTEX
  8
0
 10
16.24
 20
-2.80913125897
 30
0.0
  0
VERTEX
  8
0
 10
12.18
 20
-2.10684844422
 30
0.0
  0
VERTEX
  8
0
 10
8.12
 20
-1.40456562948
 30
0.0
  0
VERTEX
  8
0
 10
4.06
 20
-0.702282814741
 30
0.0
  0
VERTEX
  8
0
 10
-2.48689957516e-16
 20
0.0
 30
0.0
  0
VERTEX
  8
0
 10
0.0
 20
0.0
 30
0.1
  0
VERTEX
  8
0
 10
4.06
 20
-0.702282814741
 30
0.1
  0
VERTEX
  8
0
 10
8.12
 20
-1.40456562948
 30
0.1
  0
VERTEX
  8
0
 10
12.18
 20
-2.10684844422
 30
0.1
  0
VERTEX
  8
0
 10
16.24
 20
-2.80913125897
 30
0.1
  0
SEQEND
  8
0
  0
POLYLINE
  8
0
 62
175
 70
1
 66
1
 10
0.0
 20
0.0
 30
0.0
  0
VERTEX
  8
0
 10
7.10984535671
 20
19.3357215485
 30
0.1
  0
VERTEX
  8
0
 10
7.10984535671
 20
19.3357215485
 30
0.0
  0
VERTEX
  8
0
 10
11.1771394854
 20
17.3058250806
 30
0.0
  0
VERTEX
  8
0
 10
14.8782479387
 20
14.2498339314
 30
0.0
  0
VERTEX
  8
0
 10
17.8416032675
 20
10.3003505592
 30
0.0
  0
VERTEX
  8
0
 10
19.7800861544
 20
5.75918575164
 30
0.0
  0
VERTEX
  8
0
 10
20.5758973759
 20
1.02590251621
 30
0.0
  0
VERTEX
  8
0
 10
20.3
 20
-3.51141407371
 30
0.0
  0
VERTEX
  8
0
 10
20.3
 20
-3.51141407371
 30
0.1
  0
VERTEX
  8
0
 10
20.5758973759
 20
1.02590251621
 30
0.1
  0
VERTEX
  8
0
 10
19.7800861544
 20
5.75918575164
 30
0.1
  0
VERTEX
  8
0
 10
17.8416032675
 20
10.3003505592
 30
0.1
  0
VERTEX
  8
0
 10
14.8782479387
 20
14.2498339314
 30
0.1
  0
VERTEX
  8
0
 10
11.1771394854
 20
17.3058250806
 30
0.1
  0
SEQEND
  8
0
  0
POLYLINE
  8
0
 62
175
 70
1
 66
1
 10
0.0
 20
0.0
 30
0.0
  0
VERTEX
  8
0
 10
2.90984535672
 20
26.6103349403
 30
0.1
  0
VERTEX
  8
0
 10
2.90984535672
 20
26.6103349403
 30
0.0
  0
VERTEX
  8
0
 10
5.00984535671
 20
22.9730282444
 30
0.0
  0
VERTEX
  8
0
 10
7.10984535671
 20
19.3357215485
 30
0.0
  0
VERTEX
  8
0
 10
7.10984535671
 20
19.3357215485
 30
0.1
  0
VERTEX
  8
0
 10
5.00984535671
 20
22.9730282444
 30
0.1
  0
SEQEND
  8
0
  0
POLYLINE
  8
0
 62
175
 70
1
 66
1
 10
0.0
 20
0.0
 30
0.0
  0
VERTEX
  8
0
 10
-2.90984535671
 20
26.6103349403
 30
0.1
  0
VERTEX
  8
0
 10
-2.90984535671
 20
26.6103349403
 30
0.0
  0
VERTEX
  8
0
 10
1.33108339166e-12
 20
28.2903349403
 30
0.0
  0
VERTEX
  8
0
 10
2.90984535672
 20
26.6103349403
 30
0.0
  0
VERTEX
  8
0
 10
2.90984535672
 20
26.6103349403
 30
0.1
  0
VERTEX
  8
0
 10
1.3316755106e-12
 20
28.2903349403
 30
0.1
  0
SEQEND
  8
0
  0
POLYLINE
  8
0
 62
175
 70
1
 66
1
 10
0.0
 20
0.0
 30
0.0
  0
VERTEX
  8
0
 10
-7.10984535672
 20
19.3357215485
 30
0.1
  0
VERTEX
  8
0
 10
-7.10984535672
 20
19.3357215485
 30
0.0
  0
VERTEX
  8
0
 10
-5.00984535672
 20
22.9730282444
 30
0.0
  0
VERTEX
  8
0
 10
-2.90984535671
 20
26.6103349403
 30
0.0
  0
VERTEX
  8
0
 10
-2.90984535671
 20
26.6103349403
 30
0.1
  0
VERTEX
  8
0
 10
-5.00984535672
 20
22.9730282444
 30
0.1
  0
SEQEND
  8
0
  0
POLYLINE
  8
0
 62
175
 70
1
 66
1
 10
0.0
 20
0.0
 30
0.0
  0
VERTEX
  8
0
 10
13.0987228258
 20
-15.7721216607
 30
0.1
  0
VERTEX
  8
0
 10
13.0987228258
 20
-15.7721216607
 30
0.0
  0
VERTEX
  8
0
 10
10.4789782607
 20
-12.6176973286
 30
0.0
  0
VERTEX
  8
0
 10
7.8592336955
 20
-9.46327299644
 30
0.0
  0
VERTEX
  8
0
 10
5.23948913033
 20
-6.30884866429
 30
0.0
  0
VERTEX
  8
0
 10
2.61974456517
 20
-3.15442433215
 30
0.0
  0
VERTEX
  8
0
 10
-2.48689957516e-16
 20
0.0
 30
0.0
  0
VERTEX
  8
0
 10
0.0
 20
0.0
 30
0.1
  0
VERTEX
  8
0
 10
2.61974456517
 20
-3.15442433215
 30
0.1
  0
VERTEX
  8
0
 10
5.23948913033
 20
-6.30884866429
 30
0.1
  0
VERTEX
  8
0
 10
7.8592336955
 20
-9.46327299644
 30
0.1
  0
VERTEX
  8
0
 10
10.4789782607
 20
-12.6176973286
 30
0.1
  0
SEQEND
  8
0
  0
POLYLINE
  8
0
 62
175
 70
1
 66
1
 10
0.0
 20
0.0
 30
0.0
  0
VERTEX
  8
0
 10
24.5
 20
-10.7860274655
 30
0.1
  0
VERTEX
  8
0
 10
24.5
 20
-10.7860274655
 30
0.0
  0
VERTEX
  8
0
 10
22.4
 20
-7.1487207696
 30
0.0
  0
VERTEX
  8
0
 10
20.3
 20
-3.51141407371
 30
0.0
  0
VERTEX
  8
0
 10
20.3
 20
-3.51141407371
 30
0.1
  0
VERTEX
  8
0
 10
22.4
 20
-7.1487207696
 30
0.1
  0
SEQEND
  8
0
  0
ENDSEC
  0
EOF
