<?xml version="1.0" encoding="UTF-8" standalone="no"?>
<svg
   xmlns:dc="http://purl.org/dc/elements/1.1/"
   xmlns:cc="http://creativecommons.org/ns#"
   xmlns:rdf="http://www.w3.org/1999/02/22-rdf-syntax-ns#"
   xmlns:svg="http://www.w3.org/2000/svg"
   xmlns="http://www.w3.org/2000/svg"
   xmlns:xlink="http://www.w3.org/1999/xlink"
   version="1.1"
   id="svg2"
   height="173.41115"
   width="177.16536">
  <metadata
     id="metadata49">
    <rdf:RDF>
      <cc:Work
         rdf:about="">
        <dc:format>image/svg+xml</dc:format>
        <dc:type
           rdf:resource="http://purl.org/dc/dcmitype/StillImage" />
        <dc:title></dc:title>
      </cc:Work>
    </rdf:RDF>
  </metadata>
  <desc
     id="desc4">/home/samata/projects-git/MAP4/fabricate/MA_logo_outline.dxf - scale = 1.000000, origin = (0.000000, 0.000000), auto = False</desc>
  <defs
     id="defs6">
    <marker
       style="overflow:visible"
       refY="0"
       refX="0"
       orient="auto"
       id="DistanceX">
      <path
         id="path9"
         style="stroke:#000000;stroke-width:0.5"
         d="M 3,-3 -3,3 M 0,-5 0,5" />
    </marker>
    <pattern
       y="0"
       x="0"
       width="8"
       patternUnits="userSpaceOnUse"
       id="Hatch"
       height="8">
      <path
         id="path12"
         stroke-width="0.25"
         stroke="#000000"
         linecap="square"
         d="M8 4 l-4,4" />
      <path
         id="path14"
         stroke-width="0.25"
         stroke="#000000"
         linecap="square"
         d="M6 2 l-4,4" />
      <path
         id="path16"
         stroke-width="0.25"
         stroke="#000000"
         linecap="square"
         d="M4 0 l-4,4" />
    </pattern>
    <symbol
       id="PAD">
      <path
         id="path19"
         style="fill:none;stroke:#000000"
         d="M 256.88976,1096.798 A 260.7046,260.7046 0 0 0 89.972734,807.67507" />
      <path
         id="path21"
         style="fill:none;stroke:#000000"
         d="M 89.972734,807.67507 36.823127,715.61725" />
      <path
         id="path23"
         style="fill:none;stroke:#000000"
         d="m 36.823127,715.61725 a 42.519685,42.519685 0 0 0 -73.646254,0" />
      <path
         id="path25"
         style="fill:none;stroke:#000000"
         d="m -36.823127,715.61725 -53.149607,92.05782" />
      <path
         id="path27"
         style="fill:none;stroke:#000000"
         d="M -89.972734,807.67507 A 260.7046,260.7046 0 0 0 -256.88976,1096.798" />
      <path
         id="path29"
         style="fill:none;stroke:#000000"
         d="m -256.88976,1096.798 -53.14961,92.0578" />
      <path
         id="path31"
         style="fill:none;stroke:#000000"
         d="m -310.03937,1188.8558 a 42.519685,42.519685 0 0 0 37.98017,63.0974" />
      <path
         id="path33"
         style="fill:none;stroke:#000000"
         d="m -272.0592,1251.9532 106.29921,0" />
      <path
         id="path35"
         style="fill:none;stroke:#000000"
         d="m -165.75999,1251.9532 a 259.44735,259.44735 0 0 0 331.51998,0" />
      <path
         id="path37"
         style="fill:none;stroke:#000000"
         d="m 165.75999,1251.9532 106.29921,0" />
      <path
         id="path39"
         style="fill:none;stroke:#000000"
         d="m 272.0592,1251.9532 a 42.519685,42.519685 0 0 0 37.98017,-63.0974" />
      <path
         id="path41"
         style="fill:none;stroke:#000000"
         d="m 256.88976,1096.798 53.14961,92.0578" />
    </symbol>
  </defs>
  <g
     transform="translate(315.91176,-1138.8968)"
     id="g43">
    <use
       transform="matrix(0.28040323,0,0,0.28040323,-227.32908,944.3326)"
       height="100%"
       width="100%"
       id="use45"
       xlink:href="#PAD"
       y="0"
       x="0" />
  </g>
</svg>
