%TF.GenerationSoftware,KiCad,Pcbnew,9.0.5*%
%TF.CreationDate,2025-10-29T17:57:02+05:30*%
%TF.ProjectId,MAP4,4d415034-2e6b-4696-9361-645f70636258,9*%
%TF.SameCoordinates,PX7735940PY72eaf20*%
%TF.FileFunction,Copper,L2,Bot*%
%TF.FilePolarity,Positive*%
%FSLAX46Y46*%
G04 Gerber Fmt 4.6, Leading zero omitted, Abs format (unit mm)*
G04 Created by KiCad (PCBNEW 9.0.5) date 2025-10-29 17:57:02*
%MOMM*%
%LPD*%
G01*
G04 APERTURE LIST*
G04 Aperture macros list*
%AMRoundRect*
0 Rectangle with rounded corners*
0 $1 Rounding radius*
0 $2 $3 $4 $5 $6 $7 $8 $9 X,Y pos of 4 corners*
0 Add a 4 corners polygon primitive as box body*
4,1,4,$2,$3,$4,$5,$6,$7,$8,$9,$2,$3,0*
0 Add four circle primitives for the rounded corners*
1,1,$1+$1,$2,$3*
1,1,$1+$1,$4,$5*
1,1,$1+$1,$6,$7*
1,1,$1+$1,$8,$9*
0 Add four rect primitives between the rounded corners*
20,1,$1+$1,$2,$3,$4,$5,0*
20,1,$1+$1,$4,$5,$6,$7,0*
20,1,$1+$1,$6,$7,$8,$9,0*
20,1,$1+$1,$8,$9,$2,$3,0*%
G04 Aperture macros list end*
%TA.AperFunction,ComponentPad*%
%ADD10C,1.800000*%
%TD*%
%TA.AperFunction,ComponentPad*%
%ADD11C,6.000000*%
%TD*%
%TA.AperFunction,ComponentPad*%
%ADD12C,1.600000*%
%TD*%
%TA.AperFunction,SMDPad,CuDef*%
%ADD13RoundRect,0.100000X0.400000X0.625000X-0.400000X0.625000X-0.400000X-0.625000X0.400000X-0.625000X0*%
%TD*%
%TA.AperFunction,SMDPad,CuDef*%
%ADD14RoundRect,0.100000X0.341266X-0.658910X0.741266X0.033910X-0.341266X0.658910X-0.741266X-0.033910X0*%
%TD*%
%TA.AperFunction,SMDPad,CuDef*%
%ADD15RoundRect,0.100000X0.741266X-0.033910X0.341266X0.658910X-0.741266X0.033910X-0.341266X-0.658910X0*%
%TD*%
%TA.AperFunction,ComponentPad*%
%ADD16C,2.800000*%
%TD*%
%TA.AperFunction,ComponentPad*%
%ADD17RoundRect,0.294118X0.705882X-0.705882X0.705882X0.705882X-0.705882X0.705882X-0.705882X-0.705882X0*%
%TD*%
%TA.AperFunction,ComponentPad*%
%ADD18C,2.000000*%
%TD*%
%TA.AperFunction,Conductor*%
%ADD19C,1.000000*%
%TD*%
%TA.AperFunction,Profile*%
%ADD20C,0.150000*%
%TD*%
G04 APERTURE END LIST*
D10*
%TO.P,D1,1,A*%
%TO.N,/3V*%
X25000000Y38770000D03*
%TO.P,D1,2,K*%
%TO.N,/LED_red*%
X25000000Y36230000D03*
%TD*%
%TO.P,D2,1,A*%
%TO.N,/3V*%
X43349852Y9865000D03*
%TO.P,D2,2,K*%
%TO.N,/LED_grn*%
X41150148Y11135000D03*
%TD*%
%TO.P,D3,1,A*%
%TO.N,/3V*%
X6650148Y9865000D03*
%TO.P,D3,2,K*%
%TO.N,/LED_blu*%
X8849852Y11135000D03*
%TD*%
D11*
%TO.P,P2,1,P1*%
%TO.N,unconnected-(P2-P1-Pad1)*%
X25000000Y44650000D03*
%TD*%
D12*
%TO.P,P3,1,P1*%
%TO.N,unconnected-(P3-P1-Pad1)*%
X20750000Y40500000D03*
%TD*%
%TO.P,P4,1,P1*%
%TO.N,unconnected-(P4-P1-Pad1)*%
X20750000Y42500000D03*
%TD*%
%TO.P,P5,1,P1*%
%TO.N,unconnected-(P5-P1-Pad1)*%
X29250000Y40500000D03*
%TD*%
%TO.P,P6,1,P1*%
%TO.N,unconnected-(P6-P1-Pad1)*%
X29250000Y42500000D03*
%TD*%
D10*
%TO.P,R1,1*%
%TO.N,/GND*%
X20936000Y32750000D03*
D13*
X24050000Y32750000D03*
%TO.P,R1,2*%
%TO.N,/LED_red*%
X25950000Y32750000D03*
D10*
X29064000Y32750000D03*
%TD*%
%TO.P,R2,1*%
%TO.N,/GND*%
X40532000Y16519527D03*
D14*
X38975000Y13822724D03*
%TO.P,R2,2*%
%TO.N,/LED_grn*%
X38025000Y12177276D03*
D10*
X36468000Y9480473D03*
%TD*%
%TO.P,R3,1*%
%TO.N,/GND*%
X9468000Y16519527D03*
D15*
X11025000Y13822724D03*
%TO.P,R3,2*%
%TO.N,/LED_blu*%
X11975000Y12177276D03*
D10*
X13532000Y9480473D03*
%TD*%
D16*
%TO.P,BT1,1,+*%
%TO.N,/[+]*%
X11000000Y20200000D03*
X13200000Y20200000D03*
%TO.P,BT1,2,-*%
%TO.N,/GND*%
X33100000Y20200000D03*
X38000000Y20200000D03*
%TD*%
D17*
%TO.P,J1,1,Pin_1*%
%TO.N,/[+]*%
X22460000Y1800000D03*
D18*
%TO.P,J1,2,Pin_2*%
X25000000Y1800000D03*
%TO.P,J1,3,Pin_3*%
%TO.N,/3V*%
X27540000Y1800000D03*
%TD*%
D19*
%TO.N,/3V*%
X27540000Y1800000D02*
X31940000Y6200000D01*
X28130000Y38770000D02*
X43349852Y23550148D01*
X25000000Y38770000D02*
X21870000Y38770000D01*
X43349852Y23550148D02*
X43349852Y9865000D01*
X31940000Y6200000D02*
X39684852Y6200000D01*
X39684852Y6200000D02*
X43349852Y9865000D01*
X21870000Y38770000D02*
X6650148Y23550148D01*
X6650148Y23550148D02*
X6650148Y9865000D01*
X25000000Y38770000D02*
X28130000Y38770000D01*
%TO.N,/GND*%
X18300000Y23700000D02*
X18300000Y30114000D01*
X9468000Y15379724D02*
X11025000Y13822724D01*
X40532000Y16519527D02*
X40532000Y15379724D01*
X8500000Y18700000D02*
X8500000Y22300000D01*
X40532000Y15379724D02*
X38975000Y13822724D01*
X40532000Y17668000D02*
X38000000Y20200000D01*
X8500000Y22300000D02*
X9900000Y23700000D01*
X24050000Y32750000D02*
X20936000Y32750000D01*
X9468000Y16519527D02*
X9468000Y15379724D01*
X18300000Y30114000D02*
X20936000Y32750000D01*
X40532000Y16519527D02*
X40532000Y17668000D01*
X9468000Y16519527D02*
X9468000Y17732000D01*
X9468000Y17732000D02*
X8500000Y18700000D01*
X38000000Y20200000D02*
X33100000Y20200000D01*
X9900000Y23700000D02*
X18300000Y23700000D01*
X33100000Y20200000D02*
X21800000Y20200000D01*
X21800000Y20200000D02*
X18300000Y23700000D01*
%TO.N,/LED_red*%
X26770000Y36230000D02*
X29064000Y33936000D01*
X29064000Y33936000D02*
X29064000Y32750000D01*
X25950000Y32750000D02*
X29064000Y32750000D01*
X25000000Y36230000D02*
X26770000Y36230000D01*
%TO.N,/LED_grn*%
X39495621Y9480473D02*
X41150148Y11135000D01*
X36468000Y10620276D02*
X38025000Y12177276D01*
X36468000Y9480473D02*
X39495621Y9480473D01*
X36468000Y9480473D02*
X36468000Y10620276D01*
%TO.N,/LED_blu*%
X13532000Y9480473D02*
X10504379Y9480473D01*
X13532000Y9480473D02*
X13532000Y10620276D01*
X13532000Y10620276D02*
X11975000Y12177276D01*
X10504379Y9480473D02*
X8849852Y11135000D01*
%TO.N,/[+]*%
X22460000Y13540000D02*
X15800000Y20200000D01*
X15800000Y20200000D02*
X13200000Y20200000D01*
X25000000Y1800000D02*
X22460000Y1800000D01*
X11000000Y20200000D02*
X13200000Y20200000D01*
X22460000Y1800000D02*
X22460000Y13540000D01*
%TD*%
D20*
X27900000Y47150000D02*
X32200000Y39850000D01*
X45350000Y17000000D02*
X49450000Y9900000D01*
X46500000Y4750000D02*
X38200000Y4750000D01*
X22100000Y47150000D02*
G75*
G02*
X27900000Y47150000I2900000J-1650000D01*
G01*
X500000Y9900000D02*
X4650000Y17000000D01*
X4650000Y17000000D02*
G75*
G02*
X17799072Y39852497I20350000J3500000D01*
G01*
X11800000Y4750000D02*
X3550000Y4750000D01*
X17800000Y39850000D02*
X22100000Y47150000D01*
X49450000Y9900000D02*
G75*
G02*
X46499968Y4752174I-3000000J-1700000D01*
G01*
X32200000Y39850000D02*
G75*
G02*
X45347375Y17000452I-7200000J-19350000D01*
G01*
X3550000Y4750000D02*
G75*
G02*
X498108Y9901072I-50000J3450000D01*
G01*
X38200000Y4750000D02*
G75*
G02*
X11800000Y4750000I-13200000J15750000D01*
G01*
M02*
