M48
; DRILL file {KiCad 9.0.5} date 2025-10-29T17:55:58+0530
; FORMAT={-:-/ absolute / metric / decimal}
; #@! TF.CreationDate,2025-10-29T17:55:58+05:30
; #@! TF.GenerationSoftware,Kicad,Pcbnew,9.0.5
; #@! TF.FileFunction,MixedPlating,1,2
FMAT,2
METRIC
; #@! TA.AperFunction,Plated,PTH,ComponentDrill
T1C0.800
; #@! TA.AperFunction,Plated,PTH,ComponentDrill
T2C1.000
; #@! TA.AperFunction,Plated,PTH,ComponentDrill
T3C1.200
%
G90
G05
T1
X6.65Y9.865
X8.85Y11.135
X9.468Y16.52
X13.532Y9.48
X20.75Y42.5
X20.75Y40.5
X20.936Y32.75
X25.0Y38.77
X25.0Y36.23
X29.064Y32.75
X29.25Y42.5
X29.25Y40.5
X36.468Y9.48
X40.532Y16.52
X41.15Y11.135
X43.35Y9.865
T2
X22.46Y1.8
X25.0Y1.8
X27.54Y1.8
T3
X11.0Y20.2
X13.2Y20.2
X25.0Y44.65
X33.1Y20.2
X38.0Y20.2
M30
