%TF.GenerationSoftware,KiCad,Pcbnew,9.0.5*%
%TF.CreationDate,2025-10-29T17:57:02+05:30*%
%TF.ProjectId,MAP4,4d415034-2e6b-4696-9361-645f70636258,9*%
%TF.SameCoordinates,PX7735940PY72eaf20*%
%TF.FileFunction,Legend,Bot*%
%TF.FilePolarity,Positive*%
%FSLAX46Y46*%
G04 Gerber Fmt 4.6, Leading zero omitted, Abs format (unit mm)*
G04 Created by KiCad (PCBNEW 9.0.5) date 2025-10-29 17:57:02*
%MOMM*%
%LPD*%
G01*
G04 APERTURE LIST*
G04 Aperture macros list*
%AMRoundRect*
0 Rectangle with rounded corners*
0 $1 Rounding radius*
0 $2 $3 $4 $5 $6 $7 $8 $9 X,Y pos of 4 corners*
0 Add a 4 corners polygon primitive as box body*
4,1,4,$2,$3,$4,$5,$6,$7,$8,$9,$2,$3,0*
0 Add four circle primitives for the rounded corners*
1,1,$1+$1,$2,$3*
1,1,$1+$1,$4,$5*
1,1,$1+$1,$6,$7*
1,1,$1+$1,$8,$9*
0 Add four rect primitives between the rounded corners*
20,1,$1+$1,$2,$3,$4,$5,0*
20,1,$1+$1,$4,$5,$6,$7,0*
20,1,$1+$1,$6,$7,$8,$9,0*
20,1,$1+$1,$8,$9,$2,$3,0*%
G04 Aperture macros list end*
%ADD10C,0.150000*%
%ADD11C,0.300000*%
%ADD12C,0.200000*%
%ADD13C,0.250000*%
%ADD14C,0.101600*%
%ADD15C,0.127000*%
%ADD16C,0.075000*%
%ADD17C,0.002540*%
%ADD18C,0.203200*%
%ADD19C,0.120000*%
%ADD20C,2.000000*%
%ADD21C,6.000000*%
%ADD22C,1.600000*%
%ADD23RoundRect,0.110000X0.440000X0.665000X-0.440000X0.665000X-0.440000X-0.665000X0.440000X-0.665000X0*%
%ADD24RoundRect,0.110000X0.355907X-0.713551X0.795907X0.048551X-0.355907X0.713551X-0.795907X-0.048551X0*%
%ADD25RoundRect,0.110000X0.795907X-0.048551X0.355907X0.713551X-0.795907X0.048551X-0.355907X-0.713551X0*%
%ADD26C,3.000000*%
%ADD27RoundRect,0.294118X0.705882X-0.705882X0.705882X0.705882X-0.705882X0.705882X-0.705882X-0.705882X0*%
%TA.AperFunction,Profile*%
%ADD28C,0.150000*%
%TD*%
G04 APERTURE END LIST*
D10*
X21545139Y36477305D02*
X21430853Y36439210D01*
X21430853Y36439210D02*
X21240377Y36439210D01*
X21240377Y36439210D02*
X21164186Y36477305D01*
X21164186Y36477305D02*
X21126091Y36515401D01*
X21126091Y36515401D02*
X21087996Y36591591D01*
X21087996Y36591591D02*
X21087996Y36667782D01*
X21087996Y36667782D02*
X21126091Y36743972D01*
X21126091Y36743972D02*
X21164186Y36782067D01*
X21164186Y36782067D02*
X21240377Y36820163D01*
X21240377Y36820163D02*
X21392758Y36858258D01*
X21392758Y36858258D02*
X21468948Y36896353D01*
X21468948Y36896353D02*
X21507043Y36934448D01*
X21507043Y36934448D02*
X21545139Y37010639D01*
X21545139Y37010639D02*
X21545139Y37086829D01*
X21545139Y37086829D02*
X21507043Y37163020D01*
X21507043Y37163020D02*
X21468948Y37201115D01*
X21468948Y37201115D02*
X21392758Y37239210D01*
X21392758Y37239210D02*
X21202281Y37239210D01*
X21202281Y37239210D02*
X21087996Y37201115D01*
X20745138Y36439210D02*
X20745138Y37239210D01*
X20745138Y36858258D02*
X20287995Y36858258D01*
X20287995Y36439210D02*
X20287995Y37239210D01*
X19449900Y36439210D02*
X19716567Y36820163D01*
X19907043Y36439210D02*
X19907043Y37239210D01*
X19907043Y37239210D02*
X19602281Y37239210D01*
X19602281Y37239210D02*
X19526091Y37201115D01*
X19526091Y37201115D02*
X19487996Y37163020D01*
X19487996Y37163020D02*
X19449900Y37086829D01*
X19449900Y37086829D02*
X19449900Y36972544D01*
X19449900Y36972544D02*
X19487996Y36896353D01*
X19487996Y36896353D02*
X19526091Y36858258D01*
X19526091Y36858258D02*
X19602281Y36820163D01*
X19602281Y36820163D02*
X19907043Y36820163D01*
X19221329Y37239210D02*
X18764186Y37239210D01*
X18992758Y36439210D02*
X18992758Y37239210D01*
D11*
X18935714Y5721672D02*
X18935714Y7221672D01*
X16221428Y5864529D02*
X16292856Y5793100D01*
X16292856Y5793100D02*
X16507142Y5721672D01*
X16507142Y5721672D02*
X16649999Y5721672D01*
X16649999Y5721672D02*
X16864285Y5793100D01*
X16864285Y5793100D02*
X17007142Y5935958D01*
X17007142Y5935958D02*
X17078571Y6078815D01*
X17078571Y6078815D02*
X17149999Y6364529D01*
X17149999Y6364529D02*
X17149999Y6578815D01*
X17149999Y6578815D02*
X17078571Y6864529D01*
X17078571Y6864529D02*
X17007142Y7007386D01*
X17007142Y7007386D02*
X16864285Y7150243D01*
X16864285Y7150243D02*
X16649999Y7221672D01*
X16649999Y7221672D02*
X16507142Y7221672D01*
X16507142Y7221672D02*
X16292856Y7150243D01*
X16292856Y7150243D02*
X16221428Y7078815D01*
X15649999Y6150243D02*
X14935714Y6150243D01*
X15792856Y5721672D02*
X15292856Y7221672D01*
X15292856Y7221672D02*
X14792856Y5721672D01*
X14292857Y5721672D02*
X14292857Y7221672D01*
X14292857Y7221672D02*
X13435714Y5721672D01*
X13435714Y5721672D02*
X13435714Y7221672D01*
X11649999Y5793100D02*
X11435714Y5721672D01*
X11435714Y5721672D02*
X11078571Y5721672D01*
X11078571Y5721672D02*
X10935714Y5793100D01*
X10935714Y5793100D02*
X10864285Y5864529D01*
X10864285Y5864529D02*
X10792856Y6007386D01*
X10792856Y6007386D02*
X10792856Y6150243D01*
X10792856Y6150243D02*
X10864285Y6293100D01*
X10864285Y6293100D02*
X10935714Y6364529D01*
X10935714Y6364529D02*
X11078571Y6435958D01*
X11078571Y6435958D02*
X11364285Y6507386D01*
X11364285Y6507386D02*
X11507142Y6578815D01*
X11507142Y6578815D02*
X11578571Y6650243D01*
X11578571Y6650243D02*
X11649999Y6793100D01*
X11649999Y6793100D02*
X11649999Y6935958D01*
X11649999Y6935958D02*
X11578571Y7078815D01*
X11578571Y7078815D02*
X11507142Y7150243D01*
X11507142Y7150243D02*
X11364285Y7221672D01*
X11364285Y7221672D02*
X11007142Y7221672D01*
X11007142Y7221672D02*
X10792856Y7150243D01*
X9864285Y7221672D02*
X9578571Y7221672D01*
X9578571Y7221672D02*
X9435714Y7150243D01*
X9435714Y7150243D02*
X9292857Y7007386D01*
X9292857Y7007386D02*
X9221428Y6721672D01*
X9221428Y6721672D02*
X9221428Y6221672D01*
X9221428Y6221672D02*
X9292857Y5935958D01*
X9292857Y5935958D02*
X9435714Y5793100D01*
X9435714Y5793100D02*
X9578571Y5721672D01*
X9578571Y5721672D02*
X9864285Y5721672D01*
X9864285Y5721672D02*
X10007143Y5793100D01*
X10007143Y5793100D02*
X10150000Y5935958D01*
X10150000Y5935958D02*
X10221428Y6221672D01*
X10221428Y6221672D02*
X10221428Y6721672D01*
X10221428Y6721672D02*
X10150000Y7007386D01*
X10150000Y7007386D02*
X10007143Y7150243D01*
X10007143Y7150243D02*
X9864285Y7221672D01*
X7864285Y5721672D02*
X8578571Y5721672D01*
X8578571Y5721672D02*
X8578571Y7221672D01*
X7364285Y5721672D02*
X7364285Y7221672D01*
X7364285Y7221672D02*
X7007142Y7221672D01*
X7007142Y7221672D02*
X6792856Y7150243D01*
X6792856Y7150243D02*
X6649999Y7007386D01*
X6649999Y7007386D02*
X6578570Y6864529D01*
X6578570Y6864529D02*
X6507142Y6578815D01*
X6507142Y6578815D02*
X6507142Y6364529D01*
X6507142Y6364529D02*
X6578570Y6078815D01*
X6578570Y6078815D02*
X6649999Y5935958D01*
X6649999Y5935958D02*
X6792856Y5793100D01*
X6792856Y5793100D02*
X7007142Y5721672D01*
X7007142Y5721672D02*
X7364285Y5721672D01*
X5864285Y6507386D02*
X5364285Y6507386D01*
X5149999Y5721672D02*
X5864285Y5721672D01*
X5864285Y5721672D02*
X5864285Y7221672D01*
X5864285Y7221672D02*
X5149999Y7221672D01*
X3649999Y5721672D02*
X4149999Y6435958D01*
X4507142Y5721672D02*
X4507142Y7221672D01*
X4507142Y7221672D02*
X3935713Y7221672D01*
X3935713Y7221672D02*
X3792856Y7150243D01*
X3792856Y7150243D02*
X3721427Y7078815D01*
X3721427Y7078815D02*
X3649999Y6935958D01*
X3649999Y6935958D02*
X3649999Y6721672D01*
X3649999Y6721672D02*
X3721427Y6578815D01*
X3721427Y6578815D02*
X3792856Y6507386D01*
X3792856Y6507386D02*
X3935713Y6435958D01*
X3935713Y6435958D02*
X4507142Y6435958D01*
X1864285Y5864529D02*
X1792856Y5793100D01*
X1792856Y5793100D02*
X1864285Y5721672D01*
X1864285Y5721672D02*
X1935713Y5793100D01*
X1935713Y5793100D02*
X1864285Y5864529D01*
X1864285Y5864529D02*
X1864285Y5721672D01*
X1864285Y6293100D02*
X1935713Y7150243D01*
X1935713Y7150243D02*
X1864285Y7221672D01*
X1864285Y7221672D02*
X1792856Y7150243D01*
X1792856Y7150243D02*
X1864285Y6293100D01*
X1864285Y6293100D02*
X1864285Y7221672D01*
D12*
X46682145Y6835635D02*
X46682145Y7468969D01*
X46682145Y7785635D02*
X46727383Y7740397D01*
X46727383Y7740397D02*
X46682145Y7695159D01*
X46682145Y7695159D02*
X46636907Y7740397D01*
X46636907Y7740397D02*
X46682145Y7785635D01*
X46682145Y7785635D02*
X46682145Y7695159D01*
X46365478Y7468969D02*
X46003574Y7468969D01*
X46229764Y6835635D02*
X46229764Y7649921D01*
X46229764Y7649921D02*
X46184526Y7740397D01*
X46184526Y7740397D02*
X46094050Y7785635D01*
X46094050Y7785635D02*
X46003574Y7785635D01*
X44963097Y6835635D02*
X44963097Y7468969D01*
X44963097Y7785635D02*
X45008335Y7740397D01*
X45008335Y7740397D02*
X44963097Y7695159D01*
X44963097Y7695159D02*
X44917859Y7740397D01*
X44917859Y7740397D02*
X44963097Y7785635D01*
X44963097Y7785635D02*
X44963097Y7695159D01*
X44646430Y7468969D02*
X44284526Y7468969D01*
X44510716Y7785635D02*
X44510716Y6971350D01*
X44510716Y6971350D02*
X44465478Y6880873D01*
X44465478Y6880873D02*
X44375002Y6835635D01*
X44375002Y6835635D02*
X44284526Y6835635D01*
X43289287Y6880873D02*
X43198811Y6835635D01*
X43198811Y6835635D02*
X43017859Y6835635D01*
X43017859Y6835635D02*
X42927382Y6880873D01*
X42927382Y6880873D02*
X42882144Y6971350D01*
X42882144Y6971350D02*
X42882144Y7016588D01*
X42882144Y7016588D02*
X42927382Y7107064D01*
X42927382Y7107064D02*
X43017859Y7152302D01*
X43017859Y7152302D02*
X43153573Y7152302D01*
X43153573Y7152302D02*
X43244049Y7197540D01*
X43244049Y7197540D02*
X43289287Y7288016D01*
X43289287Y7288016D02*
X43289287Y7333254D01*
X43289287Y7333254D02*
X43244049Y7423731D01*
X43244049Y7423731D02*
X43153573Y7468969D01*
X43153573Y7468969D02*
X43017859Y7468969D01*
X43017859Y7468969D02*
X42927382Y7423731D01*
X42475001Y6835635D02*
X42475001Y7468969D01*
X42475001Y7378493D02*
X42429763Y7423731D01*
X42429763Y7423731D02*
X42339287Y7468969D01*
X42339287Y7468969D02*
X42203572Y7468969D01*
X42203572Y7468969D02*
X42113096Y7423731D01*
X42113096Y7423731D02*
X42067858Y7333254D01*
X42067858Y7333254D02*
X42067858Y6835635D01*
X42067858Y7333254D02*
X42022620Y7423731D01*
X42022620Y7423731D02*
X41932144Y7468969D01*
X41932144Y7468969D02*
X41796430Y7468969D01*
X41796430Y7468969D02*
X41705953Y7423731D01*
X41705953Y7423731D02*
X41660715Y7333254D01*
X41660715Y7333254D02*
X41660715Y6835635D01*
X40846429Y6880873D02*
X40936905Y6835635D01*
X40936905Y6835635D02*
X41117858Y6835635D01*
X41117858Y6835635D02*
X41208334Y6880873D01*
X41208334Y6880873D02*
X41253572Y6971350D01*
X41253572Y6971350D02*
X41253572Y7333254D01*
X41253572Y7333254D02*
X41208334Y7423731D01*
X41208334Y7423731D02*
X41117858Y7468969D01*
X41117858Y7468969D02*
X40936905Y7468969D01*
X40936905Y7468969D02*
X40846429Y7423731D01*
X40846429Y7423731D02*
X40801191Y7333254D01*
X40801191Y7333254D02*
X40801191Y7242778D01*
X40801191Y7242778D02*
X41253572Y7152302D01*
X40258334Y6835635D02*
X40348810Y6880873D01*
X40348810Y6880873D02*
X40394048Y6971350D01*
X40394048Y6971350D02*
X40394048Y7785635D01*
X39760715Y6835635D02*
X39851191Y6880873D01*
X39851191Y6880873D02*
X39896429Y6971350D01*
X39896429Y6971350D02*
X39896429Y7785635D01*
X39444048Y6880873D02*
X39353572Y6835635D01*
X39353572Y6835635D02*
X39172620Y6835635D01*
X39172620Y6835635D02*
X39082143Y6880873D01*
X39082143Y6880873D02*
X39036905Y6971350D01*
X39036905Y6971350D02*
X39036905Y7016588D01*
X39036905Y7016588D02*
X39082143Y7107064D01*
X39082143Y7107064D02*
X39172620Y7152302D01*
X39172620Y7152302D02*
X39308334Y7152302D01*
X39308334Y7152302D02*
X39398810Y7197540D01*
X39398810Y7197540D02*
X39444048Y7288016D01*
X39444048Y7288016D02*
X39444048Y7333254D01*
X39444048Y7333254D02*
X39398810Y7423731D01*
X39398810Y7423731D02*
X39308334Y7468969D01*
X39308334Y7468969D02*
X39172620Y7468969D01*
X39172620Y7468969D02*
X39082143Y7423731D01*
X37770238Y6835635D02*
X37860714Y6880873D01*
X37860714Y6880873D02*
X37905952Y6971350D01*
X37905952Y6971350D02*
X37905952Y7785635D01*
X37408333Y6835635D02*
X37408333Y7468969D01*
X37408333Y7785635D02*
X37453571Y7740397D01*
X37453571Y7740397D02*
X37408333Y7695159D01*
X37408333Y7695159D02*
X37363095Y7740397D01*
X37363095Y7740397D02*
X37408333Y7785635D01*
X37408333Y7785635D02*
X37408333Y7695159D01*
X36955952Y6835635D02*
X36955952Y7785635D01*
X36865476Y7197540D02*
X36594047Y6835635D01*
X36594047Y7468969D02*
X36955952Y7107064D01*
X35824999Y6880873D02*
X35915475Y6835635D01*
X35915475Y6835635D02*
X36096428Y6835635D01*
X36096428Y6835635D02*
X36186904Y6880873D01*
X36186904Y6880873D02*
X36232142Y6971350D01*
X36232142Y6971350D02*
X36232142Y7333254D01*
X36232142Y7333254D02*
X36186904Y7423731D01*
X36186904Y7423731D02*
X36096428Y7468969D01*
X36096428Y7468969D02*
X35915475Y7468969D01*
X35915475Y7468969D02*
X35824999Y7423731D01*
X35824999Y7423731D02*
X35779761Y7333254D01*
X35779761Y7333254D02*
X35779761Y7242778D01*
X35779761Y7242778D02*
X36232142Y7152302D01*
X34241665Y6880873D02*
X34332141Y6835635D01*
X34332141Y6835635D02*
X34513094Y6835635D01*
X34513094Y6835635D02*
X34603570Y6880873D01*
X34603570Y6880873D02*
X34648808Y6926112D01*
X34648808Y6926112D02*
X34694046Y7016588D01*
X34694046Y7016588D02*
X34694046Y7288016D01*
X34694046Y7288016D02*
X34648808Y7378493D01*
X34648808Y7378493D02*
X34603570Y7423731D01*
X34603570Y7423731D02*
X34513094Y7468969D01*
X34513094Y7468969D02*
X34332141Y7468969D01*
X34332141Y7468969D02*
X34241665Y7423731D01*
X33834522Y6835635D02*
X33834522Y7785635D01*
X33427379Y6835635D02*
X33427379Y7333254D01*
X33427379Y7333254D02*
X33472617Y7423731D01*
X33472617Y7423731D02*
X33563093Y7468969D01*
X33563093Y7468969D02*
X33698808Y7468969D01*
X33698808Y7468969D02*
X33789284Y7423731D01*
X33789284Y7423731D02*
X33834522Y7378493D01*
X32974998Y6835635D02*
X32974998Y7468969D01*
X32974998Y7785635D02*
X33020236Y7740397D01*
X33020236Y7740397D02*
X32974998Y7695159D01*
X32974998Y7695159D02*
X32929760Y7740397D01*
X32929760Y7740397D02*
X32974998Y7785635D01*
X32974998Y7785635D02*
X32974998Y7695159D01*
X32115474Y6880873D02*
X32205950Y6835635D01*
X32205950Y6835635D02*
X32386903Y6835635D01*
X32386903Y6835635D02*
X32477379Y6880873D01*
X32477379Y6880873D02*
X32522617Y6926112D01*
X32522617Y6926112D02*
X32567855Y7016588D01*
X32567855Y7016588D02*
X32567855Y7288016D01*
X32567855Y7288016D02*
X32522617Y7378493D01*
X32522617Y7378493D02*
X32477379Y7423731D01*
X32477379Y7423731D02*
X32386903Y7468969D01*
X32386903Y7468969D02*
X32205950Y7468969D01*
X32205950Y7468969D02*
X32115474Y7423731D01*
X31708331Y6835635D02*
X31708331Y7785635D01*
X31617855Y7197540D02*
X31346426Y6835635D01*
X31346426Y7468969D02*
X31708331Y7107064D01*
X30577378Y6880873D02*
X30667854Y6835635D01*
X30667854Y6835635D02*
X30848807Y6835635D01*
X30848807Y6835635D02*
X30939283Y6880873D01*
X30939283Y6880873D02*
X30984521Y6971350D01*
X30984521Y6971350D02*
X30984521Y7333254D01*
X30984521Y7333254D02*
X30939283Y7423731D01*
X30939283Y7423731D02*
X30848807Y7468969D01*
X30848807Y7468969D02*
X30667854Y7468969D01*
X30667854Y7468969D02*
X30577378Y7423731D01*
X30577378Y7423731D02*
X30532140Y7333254D01*
X30532140Y7333254D02*
X30532140Y7242778D01*
X30532140Y7242778D02*
X30984521Y7152302D01*
X30124997Y7468969D02*
X30124997Y6835635D01*
X30124997Y7378493D02*
X30079759Y7423731D01*
X30079759Y7423731D02*
X29989283Y7468969D01*
X29989283Y7468969D02*
X29853568Y7468969D01*
X29853568Y7468969D02*
X29763092Y7423731D01*
X29763092Y7423731D02*
X29717854Y7333254D01*
X29717854Y7333254D02*
X29717854Y6835635D01*
X47089287Y5939522D02*
X46863097Y5306188D01*
X46636906Y5939522D02*
X46863097Y5306188D01*
X46863097Y5306188D02*
X46953573Y5079998D01*
X46953573Y5079998D02*
X46998811Y5034760D01*
X46998811Y5034760D02*
X47089287Y4989522D01*
X46139287Y5306188D02*
X46229763Y5351426D01*
X46229763Y5351426D02*
X46275001Y5396665D01*
X46275001Y5396665D02*
X46320239Y5487141D01*
X46320239Y5487141D02*
X46320239Y5758569D01*
X46320239Y5758569D02*
X46275001Y5849046D01*
X46275001Y5849046D02*
X46229763Y5894284D01*
X46229763Y5894284D02*
X46139287Y5939522D01*
X46139287Y5939522D02*
X46003572Y5939522D01*
X46003572Y5939522D02*
X45913096Y5894284D01*
X45913096Y5894284D02*
X45867858Y5849046D01*
X45867858Y5849046D02*
X45822620Y5758569D01*
X45822620Y5758569D02*
X45822620Y5487141D01*
X45822620Y5487141D02*
X45867858Y5396665D01*
X45867858Y5396665D02*
X45913096Y5351426D01*
X45913096Y5351426D02*
X46003572Y5306188D01*
X46003572Y5306188D02*
X46139287Y5306188D01*
X45008334Y5939522D02*
X45008334Y5306188D01*
X45415477Y5939522D02*
X45415477Y5441903D01*
X45415477Y5441903D02*
X45370239Y5351426D01*
X45370239Y5351426D02*
X45279763Y5306188D01*
X45279763Y5306188D02*
X45144048Y5306188D01*
X45144048Y5306188D02*
X45053572Y5351426D01*
X45053572Y5351426D02*
X45008334Y5396665D01*
X44510715Y6256188D02*
X44601191Y6075236D01*
X44103572Y5306188D02*
X44103572Y5939522D01*
X44103572Y5758569D02*
X44058334Y5849046D01*
X44058334Y5849046D02*
X44013096Y5894284D01*
X44013096Y5894284D02*
X43922620Y5939522D01*
X43922620Y5939522D02*
X43832143Y5939522D01*
X43153572Y5351426D02*
X43244048Y5306188D01*
X43244048Y5306188D02*
X43425001Y5306188D01*
X43425001Y5306188D02*
X43515477Y5351426D01*
X43515477Y5351426D02*
X43560715Y5441903D01*
X43560715Y5441903D02*
X43560715Y5803807D01*
X43560715Y5803807D02*
X43515477Y5894284D01*
X43515477Y5894284D02*
X43425001Y5939522D01*
X43425001Y5939522D02*
X43244048Y5939522D01*
X43244048Y5939522D02*
X43153572Y5894284D01*
X43153572Y5894284D02*
X43108334Y5803807D01*
X43108334Y5803807D02*
X43108334Y5713331D01*
X43108334Y5713331D02*
X43560715Y5622855D01*
X41977381Y5306188D02*
X41977381Y6256188D01*
X41570238Y5306188D02*
X41570238Y5803807D01*
X41570238Y5803807D02*
X41615476Y5894284D01*
X41615476Y5894284D02*
X41705952Y5939522D01*
X41705952Y5939522D02*
X41841667Y5939522D01*
X41841667Y5939522D02*
X41932143Y5894284D01*
X41932143Y5894284D02*
X41977381Y5849046D01*
X40982143Y5306188D02*
X41072619Y5351426D01*
X41072619Y5351426D02*
X41117857Y5396665D01*
X41117857Y5396665D02*
X41163095Y5487141D01*
X41163095Y5487141D02*
X41163095Y5758569D01*
X41163095Y5758569D02*
X41117857Y5849046D01*
X41117857Y5849046D02*
X41072619Y5894284D01*
X41072619Y5894284D02*
X40982143Y5939522D01*
X40982143Y5939522D02*
X40846428Y5939522D01*
X40846428Y5939522D02*
X40755952Y5894284D01*
X40755952Y5894284D02*
X40710714Y5849046D01*
X40710714Y5849046D02*
X40665476Y5758569D01*
X40665476Y5758569D02*
X40665476Y5487141D01*
X40665476Y5487141D02*
X40710714Y5396665D01*
X40710714Y5396665D02*
X40755952Y5351426D01*
X40755952Y5351426D02*
X40846428Y5306188D01*
X40846428Y5306188D02*
X40982143Y5306188D01*
X40122619Y5306188D02*
X40213095Y5351426D01*
X40213095Y5351426D02*
X40258333Y5441903D01*
X40258333Y5441903D02*
X40258333Y6256188D01*
X39353571Y5306188D02*
X39353571Y6256188D01*
X39353571Y5351426D02*
X39444047Y5306188D01*
X39444047Y5306188D02*
X39625000Y5306188D01*
X39625000Y5306188D02*
X39715476Y5351426D01*
X39715476Y5351426D02*
X39760714Y5396665D01*
X39760714Y5396665D02*
X39805952Y5487141D01*
X39805952Y5487141D02*
X39805952Y5758569D01*
X39805952Y5758569D02*
X39760714Y5849046D01*
X39760714Y5849046D02*
X39715476Y5894284D01*
X39715476Y5894284D02*
X39625000Y5939522D01*
X39625000Y5939522D02*
X39444047Y5939522D01*
X39444047Y5939522D02*
X39353571Y5894284D01*
X38901190Y5306188D02*
X38901190Y5939522D01*
X38901190Y6256188D02*
X38946428Y6210950D01*
X38946428Y6210950D02*
X38901190Y6165712D01*
X38901190Y6165712D02*
X38855952Y6210950D01*
X38855952Y6210950D02*
X38901190Y6256188D01*
X38901190Y6256188D02*
X38901190Y6165712D01*
X38448809Y5939522D02*
X38448809Y5306188D01*
X38448809Y5849046D02*
X38403571Y5894284D01*
X38403571Y5894284D02*
X38313095Y5939522D01*
X38313095Y5939522D02*
X38177380Y5939522D01*
X38177380Y5939522D02*
X38086904Y5894284D01*
X38086904Y5894284D02*
X38041666Y5803807D01*
X38041666Y5803807D02*
X38041666Y5306188D01*
X37182142Y5939522D02*
X37182142Y5170474D01*
X37182142Y5170474D02*
X37227380Y5079998D01*
X37227380Y5079998D02*
X37272618Y5034760D01*
X37272618Y5034760D02*
X37363095Y4989522D01*
X37363095Y4989522D02*
X37498809Y4989522D01*
X37498809Y4989522D02*
X37589285Y5034760D01*
X37182142Y5351426D02*
X37272618Y5306188D01*
X37272618Y5306188D02*
X37453571Y5306188D01*
X37453571Y5306188D02*
X37544047Y5351426D01*
X37544047Y5351426D02*
X37589285Y5396665D01*
X37589285Y5396665D02*
X37634523Y5487141D01*
X37634523Y5487141D02*
X37634523Y5758569D01*
X37634523Y5758569D02*
X37589285Y5849046D01*
X37589285Y5849046D02*
X37544047Y5894284D01*
X37544047Y5894284D02*
X37453571Y5939522D01*
X37453571Y5939522D02*
X37272618Y5939522D01*
X37272618Y5939522D02*
X37182142Y5894284D01*
X36005951Y5306188D02*
X36005951Y5939522D01*
X36005951Y6256188D02*
X36051189Y6210950D01*
X36051189Y6210950D02*
X36005951Y6165712D01*
X36005951Y6165712D02*
X35960713Y6210950D01*
X35960713Y6210950D02*
X36005951Y6256188D01*
X36005951Y6256188D02*
X36005951Y6165712D01*
X35689284Y5939522D02*
X35327380Y5939522D01*
X35553570Y6256188D02*
X35553570Y5441903D01*
X35553570Y5441903D02*
X35508332Y5351426D01*
X35508332Y5351426D02*
X35417856Y5306188D01*
X35417856Y5306188D02*
X35327380Y5306188D01*
X34377379Y5939522D02*
X34196427Y5306188D01*
X34196427Y5306188D02*
X34015474Y5758569D01*
X34015474Y5758569D02*
X33834522Y5306188D01*
X33834522Y5306188D02*
X33653570Y5939522D01*
X33291665Y5306188D02*
X33291665Y5939522D01*
X33291665Y5758569D02*
X33246427Y5849046D01*
X33246427Y5849046D02*
X33201189Y5894284D01*
X33201189Y5894284D02*
X33110713Y5939522D01*
X33110713Y5939522D02*
X33020236Y5939522D01*
X32567856Y5306188D02*
X32658332Y5351426D01*
X32658332Y5351426D02*
X32703570Y5396665D01*
X32703570Y5396665D02*
X32748808Y5487141D01*
X32748808Y5487141D02*
X32748808Y5758569D01*
X32748808Y5758569D02*
X32703570Y5849046D01*
X32703570Y5849046D02*
X32658332Y5894284D01*
X32658332Y5894284D02*
X32567856Y5939522D01*
X32567856Y5939522D02*
X32432141Y5939522D01*
X32432141Y5939522D02*
X32341665Y5894284D01*
X32341665Y5894284D02*
X32296427Y5849046D01*
X32296427Y5849046D02*
X32251189Y5758569D01*
X32251189Y5758569D02*
X32251189Y5487141D01*
X32251189Y5487141D02*
X32296427Y5396665D01*
X32296427Y5396665D02*
X32341665Y5351426D01*
X32341665Y5351426D02*
X32432141Y5306188D01*
X32432141Y5306188D02*
X32567856Y5306188D01*
X31844046Y5939522D02*
X31844046Y5306188D01*
X31844046Y5849046D02*
X31798808Y5894284D01*
X31798808Y5894284D02*
X31708332Y5939522D01*
X31708332Y5939522D02*
X31572617Y5939522D01*
X31572617Y5939522D02*
X31482141Y5894284D01*
X31482141Y5894284D02*
X31436903Y5803807D01*
X31436903Y5803807D02*
X31436903Y5306188D01*
X30577379Y5939522D02*
X30577379Y5170474D01*
X30577379Y5170474D02*
X30622617Y5079998D01*
X30622617Y5079998D02*
X30667855Y5034760D01*
X30667855Y5034760D02*
X30758332Y4989522D01*
X30758332Y4989522D02*
X30894046Y4989522D01*
X30894046Y4989522D02*
X30984522Y5034760D01*
X30577379Y5351426D02*
X30667855Y5306188D01*
X30667855Y5306188D02*
X30848808Y5306188D01*
X30848808Y5306188D02*
X30939284Y5351426D01*
X30939284Y5351426D02*
X30984522Y5396665D01*
X30984522Y5396665D02*
X31029760Y5487141D01*
X31029760Y5487141D02*
X31029760Y5758569D01*
X31029760Y5758569D02*
X30984522Y5849046D01*
X30984522Y5849046D02*
X30939284Y5894284D01*
X30939284Y5894284D02*
X30848808Y5939522D01*
X30848808Y5939522D02*
X30667855Y5939522D01*
X30667855Y5939522D02*
X30577379Y5894284D01*
X29401188Y5396665D02*
X29355950Y5351426D01*
X29355950Y5351426D02*
X29401188Y5306188D01*
X29401188Y5306188D02*
X29446426Y5351426D01*
X29446426Y5351426D02*
X29401188Y5396665D01*
X29401188Y5396665D02*
X29401188Y5306188D01*
X29401188Y5668093D02*
X29446426Y6210950D01*
X29446426Y6210950D02*
X29401188Y6256188D01*
X29401188Y6256188D02*
X29355950Y6210950D01*
X29355950Y6210950D02*
X29401188Y5668093D01*
X29401188Y5668093D02*
X29401188Y6256188D01*
D13*
X13952380Y24518060D02*
X14249999Y24518060D01*
X14249999Y24518060D02*
X14249999Y26303774D01*
X14249999Y26303774D02*
X13952380Y26303774D01*
X13476189Y25410917D02*
X12523809Y25410917D01*
X12999999Y24934727D02*
X12999999Y25887108D01*
X12047618Y24518060D02*
X11749999Y24518060D01*
X11749999Y24518060D02*
X11749999Y26303774D01*
X11749999Y26303774D02*
X12047618Y26303774D01*
D11*
X43437550Y19184076D02*
X44303575Y19684076D01*
X44179857Y19612647D02*
X44206002Y19710220D01*
X44206002Y19710220D02*
X44196432Y19869653D01*
X44196432Y19869653D02*
X44089289Y20055229D01*
X44089289Y20055229D02*
X43956002Y20143233D01*
X43956002Y20143233D02*
X43796570Y20133663D01*
X43796570Y20133663D02*
X43116121Y19740806D01*
X43796570Y20133663D02*
X43884573Y20266951D01*
X43884573Y20266951D02*
X43875004Y20426383D01*
X43875004Y20426383D02*
X43767861Y20611960D01*
X43767861Y20611960D02*
X43634573Y20699964D01*
X43634573Y20699964D02*
X43475141Y20690394D01*
X43475141Y20690394D02*
X42794693Y20297537D01*
X42116121Y21472857D02*
X42796570Y21865714D01*
X42796570Y21865714D02*
X42956002Y21875284D01*
X42956002Y21875284D02*
X43089289Y21787280D01*
X43089289Y21787280D02*
X43232147Y21539844D01*
X43232147Y21539844D02*
X43241716Y21380412D01*
X42177980Y21508571D02*
X42187550Y21349139D01*
X42187550Y21349139D02*
X42366121Y21039844D01*
X42366121Y21039844D02*
X42499409Y20951841D01*
X42499409Y20951841D02*
X42658841Y20961410D01*
X42658841Y20961410D02*
X42782559Y21032839D01*
X42782559Y21032839D02*
X42870562Y21166127D01*
X42870562Y21166127D02*
X42860993Y21325559D01*
X42860993Y21325559D02*
X42682421Y21634853D01*
X42682421Y21634853D02*
X42672852Y21794286D01*
X41758978Y22091447D02*
X43058016Y22841447D01*
X42182421Y22500879D02*
X41473264Y22586318D01*
X42339289Y23086318D02*
X42130132Y22305733D01*
X40927980Y23673635D02*
X40937550Y23514203D01*
X40937550Y23514203D02*
X41080407Y23266767D01*
X41080407Y23266767D02*
X41213694Y23178764D01*
X41213694Y23178764D02*
X41373126Y23188333D01*
X41373126Y23188333D02*
X41867998Y23474048D01*
X41867998Y23474048D02*
X41956002Y23607335D01*
X41956002Y23607335D02*
X41946432Y23766767D01*
X41946432Y23766767D02*
X41803575Y24014203D01*
X41803575Y24014203D02*
X41670287Y24102207D01*
X41670287Y24102207D02*
X41510855Y24092637D01*
X41510855Y24092637D02*
X41387137Y24021209D01*
X41387137Y24021209D02*
X41620562Y23331190D01*
X40508978Y24256510D02*
X41375004Y24756510D01*
X41127568Y24613653D02*
X41215571Y24746941D01*
X41215571Y24746941D02*
X41241716Y24844514D01*
X41241716Y24844514D02*
X41232147Y25003946D01*
X41232147Y25003946D02*
X41160718Y25127664D01*
X40142266Y25034532D02*
X40008979Y25122535D01*
X40008979Y25122535D02*
X39866121Y25369971D01*
X39866121Y25369971D02*
X39856552Y25529403D01*
X39856552Y25529403D02*
X39944555Y25662691D01*
X39944555Y25662691D02*
X40006414Y25698405D01*
X40006414Y25698405D02*
X40165847Y25707975D01*
X40165847Y25707975D02*
X40299134Y25619971D01*
X40299134Y25619971D02*
X40406277Y25434394D01*
X40406277Y25434394D02*
X40539564Y25346391D01*
X40539564Y25346391D02*
X40698997Y25355960D01*
X40698997Y25355960D02*
X40760856Y25391675D01*
X40760856Y25391675D02*
X40848859Y25524962D01*
X40848859Y25524962D02*
X40839290Y25684394D01*
X40839290Y25684394D02*
X40732147Y25869971D01*
X40732147Y25869971D02*
X40598859Y25957975D01*
X39116121Y26669010D02*
X39796570Y27061867D01*
X39796570Y27061867D02*
X39956002Y27071436D01*
X39956002Y27071436D02*
X40089289Y26983433D01*
X40089289Y26983433D02*
X40232147Y26735997D01*
X40232147Y26735997D02*
X40241716Y26576565D01*
X39177980Y26704724D02*
X39187550Y26545292D01*
X39187550Y26545292D02*
X39366121Y26235997D01*
X39366121Y26235997D02*
X39499409Y26147993D01*
X39499409Y26147993D02*
X39658841Y26157563D01*
X39658841Y26157563D02*
X39782559Y26228991D01*
X39782559Y26228991D02*
X39870562Y26362279D01*
X39870562Y26362279D02*
X39860993Y26521711D01*
X39860993Y26521711D02*
X39682421Y26831006D01*
X39682421Y26831006D02*
X39672852Y26990438D01*
X38856552Y27261455D02*
X38723264Y27349458D01*
X38723264Y27349458D02*
X38580407Y27596894D01*
X38580407Y27596894D02*
X38570837Y27756326D01*
X38570837Y27756326D02*
X38658841Y27889614D01*
X38658841Y27889614D02*
X38720700Y27925328D01*
X38720700Y27925328D02*
X38880132Y27934898D01*
X38880132Y27934898D02*
X39013420Y27846894D01*
X39013420Y27846894D02*
X39120562Y27661317D01*
X39120562Y27661317D02*
X39253850Y27573314D01*
X39253850Y27573314D02*
X39413282Y27582883D01*
X39413282Y27582883D02*
X39475141Y27618597D01*
X39475141Y27618597D02*
X39563145Y27751885D01*
X39563145Y27751885D02*
X39553575Y27911317D01*
X39553575Y27911317D02*
X39446432Y28096894D01*
X39446432Y28096894D02*
X39313145Y28184898D01*
X39089289Y28715484D02*
X38044692Y28524779D01*
X38732146Y29334073D02*
X38044692Y28524779D01*
X38044692Y28524779D02*
X37806826Y28222489D01*
X37806826Y28222489D02*
X37780682Y28124916D01*
X37780682Y28124916D02*
X37790251Y27965484D01*
X37473264Y29514522D02*
X37606551Y29426518D01*
X37606551Y29426518D02*
X37765984Y29436088D01*
X37765984Y29436088D02*
X38879445Y30078945D01*
X37732147Y31066124D02*
X36866121Y30566124D01*
X38053575Y30509393D02*
X37373127Y30116536D01*
X37373127Y30116536D02*
X37213694Y30106966D01*
X37213694Y30106966D02*
X37080407Y30194970D01*
X37080407Y30194970D02*
X36973264Y30380547D01*
X36973264Y30380547D02*
X36963694Y30539979D01*
X36963694Y30539979D02*
X36989839Y30637552D01*
X36508978Y31184714D02*
X37375004Y31684714D01*
X37251286Y31613285D02*
X37277430Y31710858D01*
X37277430Y31710858D02*
X37267861Y31870290D01*
X37267861Y31870290D02*
X37160718Y32055867D01*
X37160718Y32055867D02*
X37027430Y32143871D01*
X37027430Y32143871D02*
X36867998Y32134301D01*
X36867998Y32134301D02*
X36187550Y31741444D01*
X36867998Y32134301D02*
X36956002Y32267589D01*
X36956002Y32267589D02*
X36946432Y32427021D01*
X36946432Y32427021D02*
X36839289Y32612598D01*
X36839289Y32612598D02*
X36706002Y32700602D01*
X36706002Y32700602D02*
X36546570Y32691032D01*
X36546570Y32691032D02*
X35866121Y32298175D01*
X35632696Y32988193D02*
X35535123Y33014338D01*
X35535123Y33014338D02*
X35508978Y32916764D01*
X35508978Y32916764D02*
X35606552Y32890620D01*
X35606552Y32890620D02*
X35632696Y32988193D01*
X35632696Y32988193D02*
X35508978Y32916764D01*
X34892266Y34127799D02*
X34901835Y33968367D01*
X34901835Y33968367D02*
X35044692Y33720931D01*
X35044692Y33720931D02*
X35177980Y33632927D01*
X35177980Y33632927D02*
X35275553Y33606783D01*
X35275553Y33606783D02*
X35434985Y33616352D01*
X35434985Y33616352D02*
X35806139Y33830638D01*
X35806139Y33830638D02*
X35894143Y33963926D01*
X35894143Y33963926D02*
X35920287Y34061499D01*
X35920287Y34061499D02*
X35910718Y34220931D01*
X35910718Y34220931D02*
X35767861Y34468367D01*
X35767861Y34468367D02*
X35634573Y34556371D01*
X34401835Y34834392D02*
X34535123Y34746388D01*
X34535123Y34746388D02*
X34632696Y34720244D01*
X34632696Y34720244D02*
X34792128Y34729813D01*
X34792128Y34729813D02*
X35163282Y34944099D01*
X35163282Y34944099D02*
X35251286Y35077387D01*
X35251286Y35077387D02*
X35277430Y35174960D01*
X35277430Y35174960D02*
X35267861Y35334392D01*
X35267861Y35334392D02*
X35160718Y35519969D01*
X35160718Y35519969D02*
X35027430Y35607973D01*
X35027430Y35607973D02*
X34929857Y35634117D01*
X34929857Y35634117D02*
X34770425Y35624548D01*
X34770425Y35624548D02*
X34399271Y35410262D01*
X34399271Y35410262D02*
X34311268Y35276974D01*
X34311268Y35276974D02*
X34285123Y35179401D01*
X34285123Y35179401D02*
X34294693Y35019969D01*
X34294693Y35019969D02*
X34401835Y34834392D01*
X33830407Y35824135D02*
X34696432Y36324135D01*
X34572714Y36252707D02*
X34598859Y36350280D01*
X34598859Y36350280D02*
X34589289Y36509712D01*
X34589289Y36509712D02*
X34482146Y36695289D01*
X34482146Y36695289D02*
X34348859Y36783293D01*
X34348859Y36783293D02*
X34189427Y36773723D01*
X34189427Y36773723D02*
X33508978Y36380866D01*
X34189427Y36773723D02*
X34277430Y36907011D01*
X34277430Y36907011D02*
X34267861Y37066443D01*
X34267861Y37066443D02*
X34160718Y37252020D01*
X34160718Y37252020D02*
X34027430Y37340023D01*
X34027430Y37340023D02*
X33867998Y37330454D01*
X33867998Y37330454D02*
X33187550Y36937597D01*
D10*
X21183233Y37644492D02*
X21564185Y37644492D01*
X21564185Y37644492D02*
X21564185Y38444492D01*
X20764185Y38444492D02*
X20611804Y38444492D01*
X20611804Y38444492D02*
X20535614Y38406397D01*
X20535614Y38406397D02*
X20459423Y38330207D01*
X20459423Y38330207D02*
X20421328Y38177826D01*
X20421328Y38177826D02*
X20421328Y37911159D01*
X20421328Y37911159D02*
X20459423Y37758778D01*
X20459423Y37758778D02*
X20535614Y37682587D01*
X20535614Y37682587D02*
X20611804Y37644492D01*
X20611804Y37644492D02*
X20764185Y37644492D01*
X20764185Y37644492D02*
X20840376Y37682587D01*
X20840376Y37682587D02*
X20916566Y37758778D01*
X20916566Y37758778D02*
X20954662Y37911159D01*
X20954662Y37911159D02*
X20954662Y38177826D01*
X20954662Y38177826D02*
X20916566Y38330207D01*
X20916566Y38330207D02*
X20840376Y38406397D01*
X20840376Y38406397D02*
X20764185Y38444492D01*
X20078471Y37644492D02*
X20078471Y38444492D01*
X20078471Y38444492D02*
X19621328Y37644492D01*
X19621328Y37644492D02*
X19621328Y38444492D01*
X18821329Y38406397D02*
X18897519Y38444492D01*
X18897519Y38444492D02*
X19011805Y38444492D01*
X19011805Y38444492D02*
X19126091Y38406397D01*
X19126091Y38406397D02*
X19202281Y38330207D01*
X19202281Y38330207D02*
X19240376Y38254016D01*
X19240376Y38254016D02*
X19278472Y38101635D01*
X19278472Y38101635D02*
X19278472Y37987349D01*
X19278472Y37987349D02*
X19240376Y37834968D01*
X19240376Y37834968D02*
X19202281Y37758778D01*
X19202281Y37758778D02*
X19126091Y37682587D01*
X19126091Y37682587D02*
X19011805Y37644492D01*
X19011805Y37644492D02*
X18935614Y37644492D01*
X18935614Y37644492D02*
X18821329Y37682587D01*
X18821329Y37682587D02*
X18783233Y37720683D01*
X18783233Y37720683D02*
X18783233Y37987349D01*
X18783233Y37987349D02*
X18935614Y37987349D01*
D13*
X37952380Y24518060D02*
X38249999Y24518060D01*
X38249999Y24518060D02*
X38249999Y26303774D01*
X38249999Y26303774D02*
X37952380Y26303774D01*
X37476189Y25410917D02*
X36523809Y25410917D01*
X36047618Y24518060D02*
X35749999Y24518060D01*
X35749999Y24518060D02*
X35749999Y26303774D01*
X35749999Y26303774D02*
X36047618Y26303774D01*
D11*
X10845331Y31522417D02*
X9546293Y32272417D01*
X9546293Y32272417D02*
X10224178Y31303690D01*
X10224178Y31303690D02*
X9046293Y31406391D01*
X9046293Y31406391D02*
X10345331Y30656391D01*
X9652749Y30313946D02*
X9295606Y29695356D01*
X10095331Y30223378D02*
X8546293Y30540365D01*
X8546293Y30540365D02*
X9595331Y29357353D01*
X9345331Y28924340D02*
X8046293Y29674340D01*
X8046293Y29674340D02*
X7760579Y29179469D01*
X7760579Y29179469D02*
X7751009Y29020036D01*
X7751009Y29020036D02*
X7777154Y28922463D01*
X7777154Y28922463D02*
X7865158Y28789176D01*
X7865158Y28789176D02*
X8050735Y28682033D01*
X8050735Y28682033D02*
X8210167Y28672463D01*
X8210167Y28672463D02*
X8307740Y28698608D01*
X8307740Y28698608D02*
X8441027Y28786612D01*
X8441027Y28786612D02*
X8726742Y29281483D01*
X7407877Y27568572D02*
X8273903Y27068572D01*
X7091577Y28163581D02*
X8198033Y27937161D01*
X8198033Y27937161D02*
X7733747Y27132995D01*
X17365283Y37985471D02*
X16066245Y38735471D01*
X17043854Y37428740D02*
X16363406Y37821598D01*
X16363406Y37821598D02*
X16275402Y37954885D01*
X16275402Y37954885D02*
X16284972Y38114317D01*
X16284972Y38114317D02*
X16392115Y38299894D01*
X16392115Y38299894D02*
X16525402Y38387898D01*
X16525402Y38387898D02*
X16622975Y38414043D01*
X15927829Y37495728D02*
X15642115Y37000856D01*
X15387673Y37560151D02*
X16501134Y36917294D01*
X16501134Y36917294D02*
X16589138Y36784006D01*
X16589138Y36784006D02*
X16579568Y36624574D01*
X16579568Y36624574D02*
X16508140Y36500856D01*
X15499257Y36753420D02*
X15213543Y36258548D01*
X14959102Y36817843D02*
X16072563Y36174986D01*
X16072563Y36174986D02*
X16160567Y36041699D01*
X16160567Y36041699D02*
X16150997Y35882266D01*
X16150997Y35882266D02*
X16079568Y35758548D01*
X14963543Y35825536D02*
X16262581Y35075536D01*
X15025402Y35789821D02*
X14892114Y35701818D01*
X14892114Y35701818D02*
X14749257Y35454382D01*
X14749257Y35454382D02*
X14739688Y35294950D01*
X14739688Y35294950D02*
X14765832Y35197376D01*
X14765832Y35197376D02*
X14853836Y35064089D01*
X14853836Y35064089D02*
X15224990Y34849803D01*
X15224990Y34849803D02*
X15384422Y34840234D01*
X15384422Y34840234D02*
X15481995Y34866378D01*
X15481995Y34866378D02*
X15615283Y34954382D01*
X15615283Y34954382D02*
X15758140Y35201818D01*
X15758140Y35201818D02*
X15767709Y35361250D01*
X15124852Y34247789D02*
X15115283Y34088356D01*
X15115283Y34088356D02*
X14972425Y33840920D01*
X14972425Y33840920D02*
X14839138Y33752917D01*
X14839138Y33752917D02*
X14679706Y33762486D01*
X14679706Y33762486D02*
X14617847Y33798201D01*
X14617847Y33798201D02*
X14529843Y33931488D01*
X14529843Y33931488D02*
X14539413Y34090920D01*
X14539413Y34090920D02*
X14646556Y34276497D01*
X14646556Y34276497D02*
X14656125Y34435930D01*
X14656125Y34435930D02*
X14568122Y34569217D01*
X14568122Y34569217D02*
X14506263Y34604931D01*
X14506263Y34604931D02*
X14346830Y34614501D01*
X14346830Y34614501D02*
X14213543Y34526497D01*
X14213543Y34526497D02*
X14106400Y34340920D01*
X14106400Y34340920D02*
X14096830Y34181488D01*
X14420136Y33170041D02*
X14446281Y33072468D01*
X14446281Y33072468D02*
X14543854Y33098613D01*
X14543854Y33098613D02*
X14517709Y33196186D01*
X14517709Y33196186D02*
X14420136Y33170041D01*
X14420136Y33170041D02*
X14543854Y33098613D01*
X13739687Y33562898D02*
X13765832Y33465325D01*
X13765832Y33465325D02*
X13863405Y33491470D01*
X13863405Y33491470D02*
X13837261Y33589043D01*
X13837261Y33589043D02*
X13739687Y33562898D01*
X13739687Y33562898D02*
X13863405Y33491470D01*
X12290099Y32337853D02*
X14603148Y32487028D01*
X11504385Y30976955D02*
X13817434Y31126131D01*
X11427828Y29701497D02*
X12479430Y29094355D01*
X12479430Y29094355D02*
X12638862Y29084785D01*
X12638862Y29084785D02*
X12736436Y29110930D01*
X12736436Y29110930D02*
X12869723Y29198933D01*
X12869723Y29198933D02*
X12976866Y29384510D01*
X12976866Y29384510D02*
X12986436Y29543942D01*
X12231994Y29237212D02*
X12365282Y29325215D01*
X12365282Y29325215D02*
X12508139Y29572651D01*
X12508139Y29572651D02*
X12517709Y29732083D01*
X12517709Y29732083D02*
X12491564Y29829657D01*
X12491564Y29829657D02*
X12403560Y29962944D01*
X12403560Y29962944D02*
X12032407Y30177230D01*
X12032407Y30177230D02*
X11872974Y30186799D01*
X11872974Y30186799D02*
X11775401Y30160655D01*
X11775401Y30160655D02*
X11642114Y30072651D01*
X11642114Y30072651D02*
X11499256Y29825215D01*
X11499256Y29825215D02*
X11489687Y29665783D01*
X11936710Y28582908D02*
X11070685Y29082908D01*
X10637672Y29332908D02*
X10735245Y29359052D01*
X10735245Y29359052D02*
X10761390Y29261479D01*
X10761390Y29261479D02*
X10663817Y29235334D01*
X10663817Y29235334D02*
X10637672Y29332908D01*
X10637672Y29332908D02*
X10761390Y29261479D01*
X10820685Y28649895D02*
X10534971Y28155023D01*
X10280529Y28714318D02*
X11393990Y28071461D01*
X11393990Y28071461D02*
X11481994Y27938173D01*
X11481994Y27938173D02*
X11472424Y27778741D01*
X11472424Y27778741D02*
X11400996Y27655023D01*
X11027278Y27293439D02*
X11053423Y27195866D01*
X11053423Y27195866D02*
X11150996Y27222010D01*
X11150996Y27222010D02*
X11124851Y27319584D01*
X11124851Y27319584D02*
X11027278Y27293439D01*
X11027278Y27293439D02*
X11150996Y27222010D01*
X10793853Y26603420D02*
X9927827Y27103420D01*
X9494815Y27353420D02*
X9592388Y27379565D01*
X9592388Y27379565D02*
X9618533Y27281992D01*
X9618533Y27281992D02*
X9520959Y27255847D01*
X9520959Y27255847D02*
X9494815Y27353420D01*
X9494815Y27353420D02*
X9618533Y27281992D01*
X10329567Y25799254D02*
X10339137Y25958686D01*
X10339137Y25958686D02*
X10312992Y26056259D01*
X10312992Y26056259D02*
X10224988Y26189547D01*
X10224988Y26189547D02*
X9853835Y26403832D01*
X9853835Y26403832D02*
X9694402Y26413402D01*
X9694402Y26413402D02*
X9596829Y26387257D01*
X9596829Y26387257D02*
X9463542Y26299254D01*
X9463542Y26299254D02*
X9356399Y26113677D01*
X9356399Y26113677D02*
X9346829Y25954245D01*
X9346829Y25954245D02*
X9372974Y25856671D01*
X9372974Y25856671D02*
X9460977Y25723384D01*
X9460977Y25723384D02*
X9832131Y25509098D01*
X9832131Y25509098D02*
X9991563Y25499529D01*
X9991563Y25499529D02*
X10089137Y25525673D01*
X10089137Y25525673D02*
X10222424Y25613677D01*
X10222424Y25613677D02*
X10329567Y25799254D01*
X7861527Y24667340D02*
X10174576Y24816516D01*
X8177827Y24072331D02*
X8865281Y23263036D01*
X8865281Y23263036D02*
X7820684Y23453741D01*
X8293852Y22273293D02*
X8303422Y22432725D01*
X8303422Y22432725D02*
X8277277Y22530298D01*
X8277277Y22530298D02*
X8189274Y22663586D01*
X8189274Y22663586D02*
X7818120Y22877872D01*
X7818120Y22877872D02*
X7658688Y22887441D01*
X7658688Y22887441D02*
X7561115Y22861296D01*
X7561115Y22861296D02*
X7427827Y22773293D01*
X7427827Y22773293D02*
X7320684Y22587716D01*
X7320684Y22587716D02*
X7311115Y22428284D01*
X7311115Y22428284D02*
X7337259Y22330711D01*
X7337259Y22330711D02*
X7425263Y22197423D01*
X7425263Y22197423D02*
X7796417Y21983137D01*
X7796417Y21983137D02*
X7955849Y21973568D01*
X7955849Y21973568D02*
X8053422Y21999712D01*
X8053422Y21999712D02*
X8186710Y22087716D01*
X8186710Y22087716D02*
X8293852Y22273293D01*
X6856398Y21783549D02*
X7722424Y21283549D01*
X6980116Y21712121D02*
X6882543Y21685976D01*
X6882543Y21685976D02*
X6749256Y21597973D01*
X6749256Y21597973D02*
X6642113Y21412396D01*
X6642113Y21412396D02*
X6632543Y21252963D01*
X6632543Y21252963D02*
X6720547Y21119676D01*
X6720547Y21119676D02*
X7400995Y20726819D01*
X5387671Y20239640D02*
X5744814Y20858229D01*
X5744814Y20858229D02*
X6399118Y20562945D01*
X6399118Y20562945D02*
X6301545Y20536801D01*
X6301545Y20536801D02*
X6168257Y20448797D01*
X6168257Y20448797D02*
X5989686Y20139502D01*
X5989686Y20139502D02*
X5980116Y19980070D01*
X5980116Y19980070D02*
X6006261Y19882497D01*
X6006261Y19882497D02*
X6094265Y19749209D01*
X6094265Y19749209D02*
X6403559Y19570638D01*
X6403559Y19570638D02*
X6562992Y19561068D01*
X6562992Y19561068D02*
X6660565Y19587213D01*
X6660565Y19587213D02*
X6793852Y19675216D01*
X6793852Y19675216D02*
X6972424Y19984511D01*
X6972424Y19984511D02*
X6981993Y20143943D01*
X6981993Y20143943D02*
X6955849Y20241517D01*
X5534970Y19494768D02*
X6258138Y18747332D01*
X6258138Y18747332D02*
X5496692Y18857039D01*
X5496692Y18857039D02*
X5972424Y18252461D01*
X5972424Y18252461D02*
X4963541Y18505025D01*
D10*
X23411479Y32885283D02*
X23030526Y33151950D01*
X23411479Y33342426D02*
X22611479Y33342426D01*
X22611479Y33342426D02*
X22611479Y33037664D01*
X22611479Y33037664D02*
X22649574Y32961474D01*
X22649574Y32961474D02*
X22687669Y32923379D01*
X22687669Y32923379D02*
X22763860Y32885283D01*
X22763860Y32885283D02*
X22878145Y32885283D01*
X22878145Y32885283D02*
X22954336Y32923379D01*
X22954336Y32923379D02*
X22992431Y32961474D01*
X22992431Y32961474D02*
X23030526Y33037664D01*
X23030526Y33037664D02*
X23030526Y33342426D01*
X23411479Y32123379D02*
X23411479Y32580522D01*
X23411479Y32351950D02*
X22611479Y32351950D01*
X22611479Y32351950D02*
X22725764Y32428141D01*
X22725764Y32428141D02*
X22801955Y32504331D01*
X22801955Y32504331D02*
X22840050Y32580522D01*
X39423502Y14303912D02*
X39844918Y14500493D01*
X39819399Y14075341D02*
X40219399Y14768161D01*
X40219399Y14768161D02*
X39955467Y14920542D01*
X39955467Y14920542D02*
X39870437Y14925646D01*
X39870437Y14925646D02*
X39818398Y14911702D01*
X39818398Y14911702D02*
X39747311Y14864767D01*
X39747311Y14864767D02*
X39690168Y14765792D01*
X39690168Y14765792D02*
X39685064Y14680762D01*
X39685064Y14680762D02*
X39699008Y14628723D01*
X39699008Y14628723D02*
X39745944Y14557636D01*
X39745944Y14557636D02*
X40009875Y14405255D01*
X39521475Y15083131D02*
X39507531Y15135170D01*
X39507531Y15135170D02*
X39460596Y15206256D01*
X39460596Y15206256D02*
X39295639Y15301494D01*
X39295639Y15301494D02*
X39210608Y15306598D01*
X39210608Y15306598D02*
X39158569Y15292654D01*
X39158569Y15292654D02*
X39087482Y15245719D01*
X39087482Y15245719D02*
X39049387Y15179736D01*
X39049387Y15179736D02*
X39025236Y15061714D01*
X39025236Y15061714D02*
X39192561Y14437245D01*
X39192561Y14437245D02*
X38763673Y14684865D01*
X10805624Y14433764D02*
X10846088Y14897012D01*
X11201521Y14662336D02*
X10801521Y15355156D01*
X10801521Y15355156D02*
X10537590Y15202775D01*
X10537590Y15202775D02*
X10490654Y15131688D01*
X10490654Y15131688D02*
X10476711Y15079649D01*
X10476711Y15079649D02*
X10481814Y14994619D01*
X10481814Y14994619D02*
X10538957Y14895644D01*
X10538957Y14895644D02*
X10610044Y14848709D01*
X10610044Y14848709D02*
X10662083Y14834765D01*
X10662083Y14834765D02*
X10747113Y14839869D01*
X10747113Y14839869D02*
X11011045Y14992250D01*
X10174684Y14993251D02*
X9745795Y14745632D01*
X9745795Y14745632D02*
X10129116Y14615034D01*
X10129116Y14615034D02*
X10030142Y14557891D01*
X10030142Y14557891D02*
X9983206Y14486804D01*
X9983206Y14486804D02*
X9969263Y14434765D01*
X9969263Y14434765D02*
X9974366Y14349735D01*
X9974366Y14349735D02*
X10069604Y14184777D01*
X10069604Y14184777D02*
X10140691Y14137842D01*
X10140691Y14137842D02*
X10192730Y14123898D01*
X10192730Y14123898D02*
X10277761Y14129002D01*
X10277761Y14129002D02*
X10475709Y14243288D01*
X10475709Y14243288D02*
X10522645Y14314375D01*
X10522645Y14314375D02*
X10536588Y14366414D01*
X15931009Y20985715D02*
X15978628Y20842858D01*
X15978628Y20842858D02*
X16026247Y20795239D01*
X16026247Y20795239D02*
X16121485Y20747620D01*
X16121485Y20747620D02*
X16264342Y20747620D01*
X16264342Y20747620D02*
X16359580Y20795239D01*
X16359580Y20795239D02*
X16407200Y20842858D01*
X16407200Y20842858D02*
X16454819Y20938096D01*
X16454819Y20938096D02*
X16454819Y21319048D01*
X16454819Y21319048D02*
X15454819Y21319048D01*
X15454819Y21319048D02*
X15454819Y20985715D01*
X15454819Y20985715D02*
X15502438Y20890477D01*
X15502438Y20890477D02*
X15550057Y20842858D01*
X15550057Y20842858D02*
X15645295Y20795239D01*
X15645295Y20795239D02*
X15740533Y20795239D01*
X15740533Y20795239D02*
X15835771Y20842858D01*
X15835771Y20842858D02*
X15883390Y20890477D01*
X15883390Y20890477D02*
X15931009Y20985715D01*
X15931009Y20985715D02*
X15931009Y21319048D01*
X15454819Y20461905D02*
X15454819Y19890477D01*
X16454819Y20176191D02*
X15454819Y20176191D01*
X16454819Y19033334D02*
X16454819Y19604762D01*
X16454819Y19319048D02*
X15454819Y19319048D01*
X15454819Y19319048D02*
X15597676Y19414286D01*
X15597676Y19414286D02*
X15692914Y19509524D01*
X15692914Y19509524D02*
X15740533Y19604762D01*
X20957142Y1392800D02*
X20814285Y1345181D01*
X20814285Y1345181D02*
X20576190Y1345181D01*
X20576190Y1345181D02*
X20480952Y1392800D01*
X20480952Y1392800D02*
X20433333Y1440420D01*
X20433333Y1440420D02*
X20385714Y1535658D01*
X20385714Y1535658D02*
X20385714Y1630896D01*
X20385714Y1630896D02*
X20433333Y1726134D01*
X20433333Y1726134D02*
X20480952Y1773753D01*
X20480952Y1773753D02*
X20576190Y1821372D01*
X20576190Y1821372D02*
X20766666Y1868991D01*
X20766666Y1868991D02*
X20861904Y1916610D01*
X20861904Y1916610D02*
X20909523Y1964229D01*
X20909523Y1964229D02*
X20957142Y2059467D01*
X20957142Y2059467D02*
X20957142Y2154705D01*
X20957142Y2154705D02*
X20909523Y2249943D01*
X20909523Y2249943D02*
X20861904Y2297562D01*
X20861904Y2297562D02*
X20766666Y2345181D01*
X20766666Y2345181D02*
X20528571Y2345181D01*
X20528571Y2345181D02*
X20385714Y2297562D01*
X20052380Y2345181D02*
X19814285Y1345181D01*
X19814285Y1345181D02*
X19623809Y2059467D01*
X19623809Y2059467D02*
X19433333Y1345181D01*
X19433333Y1345181D02*
X19195238Y2345181D01*
X31166666Y2011848D02*
X31928570Y1726134D01*
X31928570Y1726134D02*
X31166666Y1440420D01*
X30499999Y2345181D02*
X30309523Y2345181D01*
X30309523Y2345181D02*
X30214285Y2297562D01*
X30214285Y2297562D02*
X30119047Y2202324D01*
X30119047Y2202324D02*
X30071428Y2011848D01*
X30071428Y2011848D02*
X30071428Y1678515D01*
X30071428Y1678515D02*
X30119047Y1488039D01*
X30119047Y1488039D02*
X30214285Y1392800D01*
X30214285Y1392800D02*
X30309523Y1345181D01*
X30309523Y1345181D02*
X30499999Y1345181D01*
X30499999Y1345181D02*
X30595237Y1392800D01*
X30595237Y1392800D02*
X30690475Y1488039D01*
X30690475Y1488039D02*
X30738094Y1678515D01*
X30738094Y1678515D02*
X30738094Y2011848D01*
X30738094Y2011848D02*
X30690475Y2202324D01*
X30690475Y2202324D02*
X30595237Y2297562D01*
X30595237Y2297562D02*
X30499999Y2345181D01*
X29642856Y1345181D02*
X29642856Y2345181D01*
X29642856Y2345181D02*
X29071428Y1345181D01*
X29071428Y1345181D02*
X29071428Y2345181D01*
D11*
%TO.C,D1*%
X23730000Y38770000D02*
X19666000Y38770000D01*
X23730000Y36230000D02*
X22206000Y36230000D01*
D14*
X24610000Y35250000D02*
X23500000Y35250000D01*
X26500000Y35250000D02*
X25390000Y35250000D01*
X23500000Y35250000D02*
G75*
G02*
X26500780Y35250520I1500000J2250000D01*
G01*
%TO.C,D2*%
X39551443Y10325962D02*
X40106443Y11287250D01*
X40496443Y11962750D02*
X41051443Y12924038D01*
D11*
X41785148Y12234852D02*
X42547148Y13554675D01*
X43984852Y10964852D02*
X46016852Y14484380D01*
D14*
X41051443Y12924038D02*
G75*
G02*
X39551504Y10325026I1198557J-2424038D01*
G01*
D11*
%TO.C,D3*%
X6015148Y10964852D02*
X3983148Y14484380D01*
X8214852Y12234852D02*
X7452852Y13554675D01*
D14*
X8948557Y12924038D02*
X9503557Y11962750D01*
X9893557Y11287250D02*
X10448557Y10325962D01*
X10448557Y10325962D02*
G75*
G02*
X8947717Y12924453I-2698557J174038D01*
G01*
D15*
%TO.C,R1*%
X22459999Y34020000D02*
X27540000Y34020000D01*
X22460000Y31480000D02*
X22459999Y34020000D01*
X24593600Y31962600D02*
X25406400Y31962600D01*
X25406400Y33537400D02*
X24593600Y33537400D01*
X27540000Y34020000D02*
X27540001Y31480000D01*
X27540001Y31480000D02*
X22460000Y31480000D01*
%TO.C,R2*%
X36130147Y11435295D02*
X38670148Y15834705D01*
X38021292Y13745653D02*
X37614892Y13041747D01*
X38329852Y10165295D02*
X36130147Y11435295D01*
X38670148Y15834705D02*
X40869853Y14564705D01*
X38978708Y12254347D02*
X39385108Y12958253D01*
X40869853Y14564705D02*
X38329852Y10165295D01*
%TO.C,R3*%
X9130148Y14564705D02*
X11329852Y15834705D01*
X10614892Y12958253D02*
X11021292Y12254347D01*
X11329852Y15834705D02*
X13869852Y11435295D01*
X11670148Y10165295D02*
X9130148Y14564705D01*
X12385108Y13041747D02*
X11978708Y13745653D01*
X13869852Y11435295D02*
X11670148Y10165295D01*
D16*
%TO.C,LOGO1*%
X22330000Y3770000D02*
X22350000Y3840000D01*
X22330000Y3650000D02*
X22330000Y3770000D01*
X22330000Y3650000D02*
X22560000Y3650000D01*
X22350000Y3840000D02*
X22390000Y3880000D01*
X22390000Y3880000D02*
X22490000Y3880000D01*
X22400000Y3420000D02*
X22350000Y3450000D01*
X22490000Y3880000D02*
X22530000Y3850000D01*
X22500000Y3420000D02*
X22400000Y3420000D01*
X22530000Y3850000D02*
X22560000Y3790000D01*
X22540000Y3450000D02*
X22500000Y3420000D01*
X22560000Y3790000D02*
X22560000Y3520000D01*
X22560000Y3520000D02*
X22540000Y3450000D01*
X22750000Y3880000D02*
X22700000Y3880000D01*
X22800000Y3850000D02*
X22750000Y3880000D01*
X22820000Y3830000D02*
X22800000Y3850000D01*
X22840000Y3880000D02*
X22840000Y3420000D01*
X22840000Y3760000D02*
X22820000Y3830000D01*
X23080000Y3790000D02*
X23080000Y3420000D01*
X23080000Y3720000D02*
X23120000Y3690000D01*
X23110000Y3850000D02*
X23080000Y3790000D01*
X23120000Y3690000D02*
X23240000Y3690000D01*
X23130000Y3420000D02*
X23080000Y3460000D01*
X23150000Y3880000D02*
X23110000Y3850000D01*
X23240000Y3690000D02*
X23290000Y3660000D01*
X23250000Y3880000D02*
X23150000Y3880000D01*
X23250000Y3420000D02*
X23130000Y3420000D01*
X23290000Y3660000D02*
X23320000Y3590000D01*
X23300000Y3850000D02*
X23250000Y3880000D01*
X23300000Y3460000D02*
X23250000Y3420000D01*
X23320000Y3590000D02*
X23320000Y3520000D01*
X23320000Y3520000D02*
X23300000Y3460000D01*
X23580000Y3420000D02*
X23480000Y3880000D01*
X23680000Y3760000D02*
X23580000Y3420000D01*
X23770000Y3420000D02*
X23680000Y3760000D01*
X23870000Y3880000D02*
X23770000Y3420000D01*
X24060000Y4120000D02*
X24060000Y3420000D01*
X24060000Y3450000D02*
X24100000Y3420000D01*
X24100000Y3420000D02*
X24210000Y3420000D01*
X24120000Y3890000D02*
X24060000Y3850000D01*
X24190000Y3890000D02*
X24120000Y3890000D01*
X24210000Y3420000D02*
X24250000Y3450000D01*
X24250000Y3850000D02*
X24190000Y3890000D01*
X24250000Y3450000D02*
X24270000Y3480000D01*
X24270000Y3820000D02*
X24250000Y3850000D01*
X24270000Y3480000D02*
X24300000Y3550000D01*
X24300000Y3750000D02*
X24270000Y3820000D01*
X24300000Y3550000D02*
X24300000Y3750000D01*
X24490000Y3880000D02*
X24440000Y3880000D01*
X24540000Y3850000D02*
X24490000Y3880000D01*
X24560000Y3830000D02*
X24540000Y3850000D01*
X24580000Y3880000D02*
X24580000Y3420000D01*
X24580000Y3760000D02*
X24560000Y3830000D01*
X24820000Y3790000D02*
X24820000Y3420000D01*
X24820000Y3720000D02*
X24860000Y3690000D01*
X24850000Y3850000D02*
X24820000Y3790000D01*
X24860000Y3690000D02*
X24980000Y3690000D01*
X24870000Y3420000D02*
X24820000Y3460000D01*
X24890000Y3880000D02*
X24850000Y3850000D01*
X24980000Y3690000D02*
X25030000Y3660000D01*
X24990000Y3880000D02*
X24890000Y3880000D01*
X24990000Y3420000D02*
X24870000Y3420000D01*
X25030000Y3660000D02*
X25060000Y3590000D01*
X25040000Y3850000D02*
X24990000Y3880000D01*
X25040000Y3460000D02*
X24990000Y3420000D01*
X25060000Y3590000D02*
X25060000Y3520000D01*
X25060000Y3520000D02*
X25040000Y3460000D01*
X25280000Y3790000D02*
X25280000Y3420000D01*
X25300000Y3850000D02*
X25280000Y3790000D01*
X25340000Y3880000D02*
X25300000Y3850000D01*
X25420000Y3880000D02*
X25340000Y3880000D01*
X25470000Y3850000D02*
X25420000Y3880000D01*
X25490000Y4120000D02*
X25490000Y3420000D01*
X25490000Y3810000D02*
X25470000Y3850000D01*
X26110000Y3790000D02*
X26110000Y3420000D01*
X26130000Y3850000D02*
X26110000Y3790000D01*
X26170000Y3880000D02*
X26130000Y3850000D01*
X26260000Y3880000D02*
X26170000Y3880000D01*
X26300000Y3850000D02*
X26260000Y3880000D01*
X26320000Y3880000D02*
X26320000Y3420000D01*
X26320000Y3820000D02*
X26300000Y3850000D01*
X26540000Y3770000D02*
X26560000Y3840000D01*
X26540000Y3650000D02*
X26540000Y3770000D01*
X26540000Y3650000D02*
X26770000Y3650000D01*
X26560000Y3840000D02*
X26600000Y3880000D01*
X26600000Y3880000D02*
X26700000Y3880000D01*
X26610000Y3420000D02*
X26560000Y3450000D01*
X26700000Y3880000D02*
X26740000Y3850000D01*
X26710000Y3420000D02*
X26610000Y3420000D01*
X26740000Y3850000D02*
X26770000Y3790000D01*
X26750000Y3450000D02*
X26710000Y3420000D01*
X26770000Y3790000D02*
X26770000Y3520000D01*
X26770000Y3520000D02*
X26750000Y3450000D01*
X26970000Y3760000D02*
X26970000Y3540000D01*
X26970000Y3540000D02*
X26990000Y3480000D01*
X26990000Y3820000D02*
X26970000Y3760000D01*
X26990000Y3480000D02*
X27010000Y3450000D01*
X27010000Y3450000D02*
X27050000Y3420000D01*
X27020000Y3850000D02*
X26990000Y3820000D01*
X27050000Y3420000D02*
X27150000Y3420000D01*
X27060000Y3880000D02*
X27020000Y3850000D01*
X27150000Y3420000D02*
X27200000Y3450000D01*
X27160000Y3880000D02*
X27060000Y3880000D01*
X27200000Y3850000D02*
X27160000Y3880000D01*
X27200000Y3180000D02*
X27200000Y3880000D01*
X27420000Y3750000D02*
X27440000Y3810000D01*
X27420000Y3550000D02*
X27420000Y3750000D01*
X27440000Y3810000D02*
X27460000Y3840000D01*
X27440000Y3480000D02*
X27420000Y3550000D01*
X27460000Y3840000D02*
X27510000Y3880000D01*
X27460000Y3450000D02*
X27440000Y3480000D01*
X27510000Y3880000D02*
X27590000Y3880000D01*
X27510000Y3420000D02*
X27460000Y3450000D01*
X27590000Y3880000D02*
X27630000Y3850000D01*
X27590000Y3420000D02*
X27510000Y3420000D01*
X27630000Y3850000D02*
X27650000Y3820000D01*
X27640000Y3460000D02*
X27590000Y3420000D01*
X27650000Y3820000D02*
X27680000Y3750000D01*
X27660000Y3490000D02*
X27640000Y3460000D01*
X27680000Y3750000D02*
X27680000Y3550000D01*
X27680000Y3550000D02*
X27660000Y3490000D01*
D17*
X25147320Y8742820D02*
X25241300Y8740280D01*
X25309880Y8735200D01*
X25337820Y8730120D01*
X25337820Y8727580D01*
X25347980Y8689480D01*
X25365760Y8615820D01*
X25386080Y8511680D01*
X25408940Y8389760D01*
X25414020Y8366900D01*
X25436880Y8250060D01*
X25457200Y8151000D01*
X25469900Y8084960D01*
X25477520Y8057020D01*
X25490220Y8051940D01*
X25538480Y8031620D01*
X25617220Y7998600D01*
X25716280Y7957960D01*
X25944880Y7866520D01*
X26226820Y8057020D01*
X26252220Y8074800D01*
X26353820Y8143380D01*
X26435100Y8199260D01*
X26493520Y8237360D01*
X26516380Y8250060D01*
X26518920Y8250060D01*
X26546860Y8224660D01*
X26602740Y8171320D01*
X26678940Y8097660D01*
X26767840Y8011300D01*
X26831340Y7945260D01*
X26910080Y7866520D01*
X26958340Y7813180D01*
X26986280Y7780160D01*
X26993900Y7759840D01*
X26991360Y7744600D01*
X26973580Y7716660D01*
X26932940Y7655700D01*
X26874520Y7569340D01*
X26805940Y7470280D01*
X26750060Y7386460D01*
X26689100Y7292480D01*
X26651000Y7226440D01*
X26635760Y7193420D01*
X26640840Y7180720D01*
X26658620Y7124840D01*
X26694180Y7041020D01*
X26734820Y6941960D01*
X26833880Y6720980D01*
X26978660Y6693040D01*
X27067560Y6675260D01*
X27189480Y6652400D01*
X27308860Y6629540D01*
X27491740Y6593980D01*
X27499360Y5918340D01*
X27471420Y5905640D01*
X27443480Y5898020D01*
X27374900Y5882780D01*
X27278380Y5862460D01*
X27161540Y5842140D01*
X27065020Y5824360D01*
X26965960Y5804040D01*
X26894840Y5791340D01*
X26864360Y5783720D01*
X26854200Y5773560D01*
X26831340Y5725300D01*
X26795780Y5649100D01*
X26755140Y5557660D01*
X26717040Y5463680D01*
X26681480Y5374780D01*
X26658620Y5308740D01*
X26648460Y5275720D01*
X26661160Y5247780D01*
X26699260Y5189360D01*
X26752600Y5108080D01*
X26821180Y5009020D01*
X26887220Y4912500D01*
X26945640Y4828680D01*
X26983740Y4767720D01*
X27001520Y4739780D01*
X26991360Y4722000D01*
X26953260Y4673740D01*
X26879600Y4597540D01*
X26767840Y4488320D01*
X26750060Y4470540D01*
X26663700Y4386720D01*
X26590040Y4318140D01*
X26536700Y4272420D01*
X26513840Y4254640D01*
X26488440Y4269880D01*
X26430020Y4305440D01*
X26346200Y4361320D01*
X26247140Y4427360D01*
X26148080Y4493400D01*
X26066800Y4546740D01*
X26010920Y4584840D01*
X25985520Y4597540D01*
X25972820Y4592460D01*
X25927100Y4569600D01*
X25858520Y4534040D01*
X25817880Y4513720D01*
X25756920Y4488320D01*
X25723900Y4480700D01*
X25718820Y4490860D01*
X25695960Y4539120D01*
X25660400Y4620400D01*
X25614680Y4729620D01*
X25558800Y4856620D01*
X25502920Y4991240D01*
X25444500Y5130940D01*
X25388620Y5265560D01*
X25340360Y5384940D01*
X25299720Y5481460D01*
X25274320Y5550040D01*
X25264160Y5577980D01*
X25266700Y5585600D01*
X25299720Y5616080D01*
X25353060Y5656720D01*
X25472440Y5753240D01*
X25589280Y5898020D01*
X25660400Y6063120D01*
X25683260Y6248540D01*
X25662940Y6418720D01*
X25596900Y6581280D01*
X25482600Y6728600D01*
X25342900Y6837820D01*
X25180340Y6906400D01*
X25000000Y6929260D01*
X24827280Y6908940D01*
X24659640Y6842900D01*
X24512320Y6731140D01*
X24448820Y6660020D01*
X24362460Y6510160D01*
X24314200Y6352680D01*
X24309120Y6312040D01*
X24316740Y6136780D01*
X24367540Y5966600D01*
X24461520Y5816740D01*
X24591060Y5692280D01*
X24606300Y5682120D01*
X24664720Y5636400D01*
X24705360Y5605920D01*
X24735840Y5580520D01*
X24512320Y5042040D01*
X24476760Y4958220D01*
X24415800Y4810900D01*
X24362460Y4683900D01*
X24319280Y4582300D01*
X24288800Y4516260D01*
X24276100Y4488320D01*
X24276100Y4485780D01*
X24255780Y4483240D01*
X24215140Y4498480D01*
X24138940Y4534040D01*
X24090680Y4559440D01*
X24032260Y4587380D01*
X24006860Y4597540D01*
X23984000Y4584840D01*
X23930660Y4549280D01*
X23849380Y4495940D01*
X23752860Y4432440D01*
X23661420Y4368940D01*
X23577600Y4313060D01*
X23516640Y4274960D01*
X23486160Y4257180D01*
X23481080Y4257180D01*
X23455680Y4272420D01*
X23407420Y4313060D01*
X23333760Y4381640D01*
X23229620Y4485780D01*
X23214380Y4501020D01*
X23128020Y4587380D01*
X23059440Y4661040D01*
X23013720Y4711840D01*
X22995940Y4734700D01*
X23011180Y4765180D01*
X23049280Y4826140D01*
X23105160Y4912500D01*
X23173740Y5011560D01*
X23351540Y5270640D01*
X23255020Y5514480D01*
X23224540Y5590680D01*
X23186440Y5679580D01*
X23158500Y5745620D01*
X23143260Y5773560D01*
X23117860Y5783720D01*
X23049280Y5798960D01*
X22952760Y5819280D01*
X22838460Y5839600D01*
X22726700Y5859920D01*
X22627640Y5880240D01*
X22556520Y5892940D01*
X22523500Y5900560D01*
X22515880Y5905640D01*
X22508260Y5920880D01*
X22505720Y5953900D01*
X22503180Y6014860D01*
X22500640Y6108840D01*
X22500640Y6248540D01*
X22500640Y6263780D01*
X22503180Y6393320D01*
X22505720Y6500000D01*
X22508260Y6566040D01*
X22513340Y6593980D01*
X22543820Y6601600D01*
X22614940Y6616840D01*
X22714000Y6634620D01*
X22833380Y6657480D01*
X22841000Y6660020D01*
X22957840Y6682880D01*
X23056900Y6703200D01*
X23128020Y6718440D01*
X23155960Y6728600D01*
X23163580Y6736220D01*
X23186440Y6781940D01*
X23219460Y6855600D01*
X23260100Y6944500D01*
X23298200Y7038480D01*
X23331220Y7122300D01*
X23354080Y7183260D01*
X23361700Y7211200D01*
X23359160Y7213740D01*
X23341380Y7241680D01*
X23300740Y7302640D01*
X23244860Y7386460D01*
X23176280Y7488060D01*
X23171200Y7495680D01*
X23102620Y7594740D01*
X23046740Y7681100D01*
X23011180Y7739520D01*
X22995940Y7767460D01*
X22995940Y7770000D01*
X23018800Y7800480D01*
X23069600Y7856360D01*
X23143260Y7932560D01*
X23229620Y8021460D01*
X23257560Y8046860D01*
X23356620Y8143380D01*
X23422660Y8204340D01*
X23465840Y8237360D01*
X23486160Y8244980D01*
X23516640Y8227200D01*
X23580140Y8186560D01*
X23663960Y8128140D01*
X23765560Y8059560D01*
X23773180Y8054480D01*
X23872240Y7985900D01*
X23956060Y7930020D01*
X24014480Y7889380D01*
X24042420Y7874140D01*
X24044960Y7874140D01*
X24085600Y7886840D01*
X24156720Y7912240D01*
X24245620Y7945260D01*
X24337060Y7983360D01*
X24420880Y8018920D01*
X24484380Y8046860D01*
X24514860Y8064640D01*
X24525020Y8100200D01*
X24542800Y8176400D01*
X24563120Y8278000D01*
X24588520Y8399920D01*
X24591060Y8420240D01*
X24613920Y8539620D01*
X24631700Y8638680D01*
X24646940Y8707260D01*
X24654560Y8735200D01*
X24669800Y8737740D01*
X24728220Y8742820D01*
X24817120Y8745360D01*
X24926340Y8745360D01*
X25038100Y8745360D01*
X25147320Y8742820D01*
G36*
X25147320Y8742820D02*
G01*
X25241300Y8740280D01*
X25309880Y8735200D01*
X25337820Y8730120D01*
X25337820Y8727580D01*
X25347980Y8689480D01*
X25365760Y8615820D01*
X25386080Y8511680D01*
X25408940Y8389760D01*
X25414020Y8366900D01*
X25436880Y8250060D01*
X25457200Y8151000D01*
X25469900Y8084960D01*
X25477520Y8057020D01*
X25490220Y8051940D01*
X25538480Y8031620D01*
X25617220Y7998600D01*
X25716280Y7957960D01*
X25944880Y7866520D01*
X26226820Y8057020D01*
X26252220Y8074800D01*
X26353820Y8143380D01*
X26435100Y8199260D01*
X26493520Y8237360D01*
X26516380Y8250060D01*
X26518920Y8250060D01*
X26546860Y8224660D01*
X26602740Y8171320D01*
X26678940Y8097660D01*
X26767840Y8011300D01*
X26831340Y7945260D01*
X26910080Y7866520D01*
X26958340Y7813180D01*
X26986280Y7780160D01*
X26993900Y7759840D01*
X26991360Y7744600D01*
X26973580Y7716660D01*
X26932940Y7655700D01*
X26874520Y7569340D01*
X26805940Y7470280D01*
X26750060Y7386460D01*
X26689100Y7292480D01*
X26651000Y7226440D01*
X26635760Y7193420D01*
X26640840Y7180720D01*
X26658620Y7124840D01*
X26694180Y7041020D01*
X26734820Y6941960D01*
X26833880Y6720980D01*
X26978660Y6693040D01*
X27067560Y6675260D01*
X27189480Y6652400D01*
X27308860Y6629540D01*
X27491740Y6593980D01*
X27499360Y5918340D01*
X27471420Y5905640D01*
X27443480Y5898020D01*
X27374900Y5882780D01*
X27278380Y5862460D01*
X27161540Y5842140D01*
X27065020Y5824360D01*
X26965960Y5804040D01*
X26894840Y5791340D01*
X26864360Y5783720D01*
X26854200Y5773560D01*
X26831340Y5725300D01*
X26795780Y5649100D01*
X26755140Y5557660D01*
X26717040Y5463680D01*
X26681480Y5374780D01*
X26658620Y5308740D01*
X26648460Y5275720D01*
X26661160Y5247780D01*
X26699260Y5189360D01*
X26752600Y5108080D01*
X26821180Y5009020D01*
X26887220Y4912500D01*
X26945640Y4828680D01*
X26983740Y4767720D01*
X27001520Y4739780D01*
X26991360Y4722000D01*
X26953260Y4673740D01*
X26879600Y4597540D01*
X26767840Y4488320D01*
X26750060Y4470540D01*
X26663700Y4386720D01*
X26590040Y4318140D01*
X26536700Y4272420D01*
X26513840Y4254640D01*
X26488440Y4269880D01*
X26430020Y4305440D01*
X26346200Y4361320D01*
X26247140Y4427360D01*
X26148080Y4493400D01*
X26066800Y4546740D01*
X26010920Y4584840D01*
X25985520Y4597540D01*
X25972820Y4592460D01*
X25927100Y4569600D01*
X25858520Y4534040D01*
X25817880Y4513720D01*
X25756920Y4488320D01*
X25723900Y4480700D01*
X25718820Y4490860D01*
X25695960Y4539120D01*
X25660400Y4620400D01*
X25614680Y4729620D01*
X25558800Y4856620D01*
X25502920Y4991240D01*
X25444500Y5130940D01*
X25388620Y5265560D01*
X25340360Y5384940D01*
X25299720Y5481460D01*
X25274320Y5550040D01*
X25264160Y5577980D01*
X25266700Y5585600D01*
X25299720Y5616080D01*
X25353060Y5656720D01*
X25472440Y5753240D01*
X25589280Y5898020D01*
X25660400Y6063120D01*
X25683260Y6248540D01*
X25662940Y6418720D01*
X25596900Y6581280D01*
X25482600Y6728600D01*
X25342900Y6837820D01*
X25180340Y6906400D01*
X25000000Y6929260D01*
X24827280Y6908940D01*
X24659640Y6842900D01*
X24512320Y6731140D01*
X24448820Y6660020D01*
X24362460Y6510160D01*
X24314200Y6352680D01*
X24309120Y6312040D01*
X24316740Y6136780D01*
X24367540Y5966600D01*
X24461520Y5816740D01*
X24591060Y5692280D01*
X24606300Y5682120D01*
X24664720Y5636400D01*
X24705360Y5605920D01*
X24735840Y5580520D01*
X24512320Y5042040D01*
X24476760Y4958220D01*
X24415800Y4810900D01*
X24362460Y4683900D01*
X24319280Y4582300D01*
X24288800Y4516260D01*
X24276100Y4488320D01*
X24276100Y4485780D01*
X24255780Y4483240D01*
X24215140Y4498480D01*
X24138940Y4534040D01*
X24090680Y4559440D01*
X24032260Y4587380D01*
X24006860Y4597540D01*
X23984000Y4584840D01*
X23930660Y4549280D01*
X23849380Y4495940D01*
X23752860Y4432440D01*
X23661420Y4368940D01*
X23577600Y4313060D01*
X23516640Y4274960D01*
X23486160Y4257180D01*
X23481080Y4257180D01*
X23455680Y4272420D01*
X23407420Y4313060D01*
X23333760Y4381640D01*
X23229620Y4485780D01*
X23214380Y4501020D01*
X23128020Y4587380D01*
X23059440Y4661040D01*
X23013720Y4711840D01*
X22995940Y4734700D01*
X23011180Y4765180D01*
X23049280Y4826140D01*
X23105160Y4912500D01*
X23173740Y5011560D01*
X23351540Y5270640D01*
X23255020Y5514480D01*
X23224540Y5590680D01*
X23186440Y5679580D01*
X23158500Y5745620D01*
X23143260Y5773560D01*
X23117860Y5783720D01*
X23049280Y5798960D01*
X22952760Y5819280D01*
X22838460Y5839600D01*
X22726700Y5859920D01*
X22627640Y5880240D01*
X22556520Y5892940D01*
X22523500Y5900560D01*
X22515880Y5905640D01*
X22508260Y5920880D01*
X22505720Y5953900D01*
X22503180Y6014860D01*
X22500640Y6108840D01*
X22500640Y6248540D01*
X22500640Y6263780D01*
X22503180Y6393320D01*
X22505720Y6500000D01*
X22508260Y6566040D01*
X22513340Y6593980D01*
X22543820Y6601600D01*
X22614940Y6616840D01*
X22714000Y6634620D01*
X22833380Y6657480D01*
X22841000Y6660020D01*
X22957840Y6682880D01*
X23056900Y6703200D01*
X23128020Y6718440D01*
X23155960Y6728600D01*
X23163580Y6736220D01*
X23186440Y6781940D01*
X23219460Y6855600D01*
X23260100Y6944500D01*
X23298200Y7038480D01*
X23331220Y7122300D01*
X23354080Y7183260D01*
X23361700Y7211200D01*
X23359160Y7213740D01*
X23341380Y7241680D01*
X23300740Y7302640D01*
X23244860Y7386460D01*
X23176280Y7488060D01*
X23171200Y7495680D01*
X23102620Y7594740D01*
X23046740Y7681100D01*
X23011180Y7739520D01*
X22995940Y7767460D01*
X22995940Y7770000D01*
X23018800Y7800480D01*
X23069600Y7856360D01*
X23143260Y7932560D01*
X23229620Y8021460D01*
X23257560Y8046860D01*
X23356620Y8143380D01*
X23422660Y8204340D01*
X23465840Y8237360D01*
X23486160Y8244980D01*
X23516640Y8227200D01*
X23580140Y8186560D01*
X23663960Y8128140D01*
X23765560Y8059560D01*
X23773180Y8054480D01*
X23872240Y7985900D01*
X23956060Y7930020D01*
X24014480Y7889380D01*
X24042420Y7874140D01*
X24044960Y7874140D01*
X24085600Y7886840D01*
X24156720Y7912240D01*
X24245620Y7945260D01*
X24337060Y7983360D01*
X24420880Y8018920D01*
X24484380Y8046860D01*
X24514860Y8064640D01*
X24525020Y8100200D01*
X24542800Y8176400D01*
X24563120Y8278000D01*
X24588520Y8399920D01*
X24591060Y8420240D01*
X24613920Y8539620D01*
X24631700Y8638680D01*
X24646940Y8707260D01*
X24654560Y8735200D01*
X24669800Y8737740D01*
X24728220Y8742820D01*
X24817120Y8745360D01*
X24926340Y8745360D01*
X25038100Y8745360D01*
X25147320Y8742820D01*
G37*
D18*
%TO.C,BT1*%
X11600000Y24000000D02*
X14600000Y24000000D01*
X11600000Y21698600D02*
X11600000Y24000000D01*
X11600000Y16400000D02*
X11600000Y18701400D01*
X14600000Y16400000D02*
X11600000Y16400000D01*
X35500000Y16700000D02*
X35500000Y23700000D01*
X14604242Y23998450D02*
G75*
G02*
X35500000Y23700000I10395758J-3798450D01*
G01*
X35504284Y16698570D02*
G75*
G02*
X14600000Y16400000I-10504284J3501430D01*
G01*
D19*
%TO.C,J1*%
X21190000Y3070000D02*
X21190000Y1800000D01*
X22570000Y3070000D02*
X21190000Y3070000D01*
X23730000Y3070000D02*
X28810000Y3070000D01*
X23730000Y530000D02*
X28810000Y530000D01*
X28810000Y3070000D02*
X28810000Y530000D01*
%TD*%
%LPC*%
D20*
%TO.C,D1*%
X25000000Y38770000D03*
X25000000Y36230000D03*
%TD*%
%TO.C,D2*%
X43349852Y9865000D03*
X41150148Y11135000D03*
%TD*%
%TO.C,D3*%
X6650148Y9865000D03*
X8849852Y11135000D03*
%TD*%
D21*
%TO.C,P2*%
X25000000Y44650000D03*
%TD*%
D22*
%TO.C,P3*%
X20750000Y40500000D03*
%TD*%
%TO.C,P4*%
X20750000Y42500000D03*
%TD*%
%TO.C,P5*%
X29250000Y40500000D03*
%TD*%
%TO.C,P6*%
X29250000Y42500000D03*
%TD*%
D20*
%TO.C,R1*%
X20936000Y32750000D03*
D23*
X24050000Y32750000D03*
X25950000Y32750000D03*
D20*
X29064000Y32750000D03*
%TD*%
%TO.C,R2*%
X40532000Y16519527D03*
D24*
X38975000Y13822724D03*
X38025000Y12177276D03*
D20*
X36468000Y9480473D03*
%TD*%
%TO.C,R3*%
X9468000Y16519527D03*
D25*
X11025000Y13822724D03*
X11975000Y12177276D03*
D20*
X13532000Y9480473D03*
%TD*%
D26*
%TO.C,BT1*%
X11000000Y20200000D03*
X13200000Y20200000D03*
X33100000Y20200000D03*
X38000000Y20200000D03*
%TD*%
D27*
%TO.C,J1*%
X22460000Y1800000D03*
D20*
X25000000Y1800000D03*
X27540000Y1800000D03*
%TD*%
%LPD*%
D28*
X27900000Y47150000D02*
X32200000Y39850000D01*
X45350000Y17000000D02*
X49450000Y9900000D01*
X46500000Y4750000D02*
X38200000Y4750000D01*
X22100000Y47150000D02*
G75*
G02*
X27900000Y47150000I2900000J-1650000D01*
G01*
X500000Y9900000D02*
X4650000Y17000000D01*
X4650000Y17000000D02*
G75*
G02*
X17799072Y39852497I20350000J3500000D01*
G01*
X11800000Y4750000D02*
X3550000Y4750000D01*
X17800000Y39850000D02*
X22100000Y47150000D01*
X49450000Y9900000D02*
G75*
G02*
X46499968Y4752174I-3000000J-1700000D01*
G01*
X32200000Y39850000D02*
G75*
G02*
X45347375Y17000452I-7200000J-19350000D01*
G01*
X3550000Y4750000D02*
G75*
G02*
X498108Y9901072I-50000J3450000D01*
G01*
X38200000Y4750000D02*
G75*
G02*
X11800000Y4750000I-13200000J15750000D01*
G01*
M02*
