%TF.GenerationSoftware,KiCad,Pcbnew,9.0.5*%
%TF.CreationDate,2025-10-29T17:57:02+05:30*%
%TF.ProjectId,MAP4,4d415034-2e6b-4696-9361-645f70636258,9*%
%TF.SameCoordinates,PX7735940PY72eaf20*%
%TF.FileFunction,Soldermask,Bot*%
%TF.FilePolarity,Negative*%
%FSLAX46Y46*%
G04 Gerber Fmt 4.6, Leading zero omitted, Abs format (unit mm)*
G04 Created by KiCad (PCBNEW 9.0.5) date 2025-10-29 17:57:02*
%MOMM*%
%LPD*%
G01*
G04 APERTURE LIST*
G04 Aperture macros list*
%AMRoundRect*
0 Rectangle with rounded corners*
0 $1 Rounding radius*
0 $2 $3 $4 $5 $6 $7 $8 $9 X,Y pos of 4 corners*
0 Add a 4 corners polygon primitive as box body*
4,1,4,$2,$3,$4,$5,$6,$7,$8,$9,$2,$3,0*
0 Add four circle primitives for the rounded corners*
1,1,$1+$1,$2,$3*
1,1,$1+$1,$4,$5*
1,1,$1+$1,$6,$7*
1,1,$1+$1,$8,$9*
0 Add four rect primitives between the rounded corners*
20,1,$1+$1,$2,$3,$4,$5,0*
20,1,$1+$1,$4,$5,$6,$7,0*
20,1,$1+$1,$6,$7,$8,$9,0*
20,1,$1+$1,$8,$9,$2,$3,0*%
G04 Aperture macros list end*
%ADD10C,2.000000*%
%ADD11C,6.000000*%
%ADD12C,1.600000*%
%ADD13RoundRect,0.110000X0.440000X0.665000X-0.440000X0.665000X-0.440000X-0.665000X0.440000X-0.665000X0*%
%ADD14RoundRect,0.110000X0.355907X-0.713551X0.795907X0.048551X-0.355907X0.713551X-0.795907X-0.048551X0*%
%ADD15RoundRect,0.110000X0.795907X-0.048551X0.355907X0.713551X-0.795907X0.048551X-0.355907X-0.713551X0*%
%ADD16C,3.000000*%
%ADD17RoundRect,0.294118X0.705882X-0.705882X0.705882X0.705882X-0.705882X0.705882X-0.705882X-0.705882X0*%
%TA.AperFunction,Profile*%
%ADD18C,0.150000*%
%TD*%
G04 APERTURE END LIST*
D10*
%TO.C,D1*%
X25000000Y38770000D03*
X25000000Y36230000D03*
%TD*%
%TO.C,D2*%
X43349852Y9865000D03*
X41150148Y11135000D03*
%TD*%
%TO.C,D3*%
X6650148Y9865000D03*
X8849852Y11135000D03*
%TD*%
D11*
%TO.C,P2*%
X25000000Y44650000D03*
%TD*%
D12*
%TO.C,P3*%
X20750000Y40500000D03*
%TD*%
%TO.C,P4*%
X20750000Y42500000D03*
%TD*%
%TO.C,P5*%
X29250000Y40500000D03*
%TD*%
%TO.C,P6*%
X29250000Y42500000D03*
%TD*%
D10*
%TO.C,R1*%
X20936000Y32750000D03*
D13*
X24050000Y32750000D03*
X25950000Y32750000D03*
D10*
X29064000Y32750000D03*
%TD*%
%TO.C,R2*%
X40532000Y16519527D03*
D14*
X38975000Y13822724D03*
X38025000Y12177276D03*
D10*
X36468000Y9480473D03*
%TD*%
%TO.C,R3*%
X9468000Y16519527D03*
D15*
X11025000Y13822724D03*
X11975000Y12177276D03*
D10*
X13532000Y9480473D03*
%TD*%
D16*
%TO.C,BT1*%
X11000000Y20200000D03*
X13200000Y20200000D03*
X33100000Y20200000D03*
X38000000Y20200000D03*
%TD*%
D17*
%TO.C,J1*%
X22460000Y1800000D03*
D10*
X25000000Y1800000D03*
X27540000Y1800000D03*
%TD*%
D18*
X27900000Y47150000D02*
X32200000Y39850000D01*
X45350000Y17000000D02*
X49450000Y9900000D01*
X46500000Y4750000D02*
X38200000Y4750000D01*
X22100000Y47150000D02*
G75*
G02*
X27900000Y47150000I2900000J-1650000D01*
G01*
X500000Y9900000D02*
X4650000Y17000000D01*
X4650000Y17000000D02*
G75*
G02*
X17799072Y39852497I20350000J3500000D01*
G01*
X11800000Y4750000D02*
X3550000Y4750000D01*
X17800000Y39850000D02*
X22100000Y47150000D01*
X49450000Y9900000D02*
G75*
G02*
X46499968Y4752174I-3000000J-1700000D01*
G01*
X32200000Y39850000D02*
G75*
G02*
X45347375Y17000452I-7200000J-19350000D01*
G01*
X3550000Y4750000D02*
G75*
G02*
X498108Y9901072I-50000J3450000D01*
G01*
X38200000Y4750000D02*
G75*
G02*
X11800000Y4750000I-13200000J15750000D01*
G01*
M02*
