<?xml version="1.0" standalone="no"?>
 <!DOCTYPE svg PUBLIC "-//W3C//DTD SVG 1.1//EN" 
 "http://www.w3.org/Graphics/SVG/1.1/DTD/svg11.dtd"> 
<svg xmlns="http://www.w3.org/2000/svg" version="1.1" 
    width="6.35cm" height="5.5245cm" viewBox="0 0 25000 21750 ">
<title>SVG Picture created as MAP4-brd.svg date 2016/06/12 21:38:15 </title>
  <desc>Picture generated by PCBNEW </desc>
<g style="fill:#000000; fill-opacity:1;stroke:#000000; stroke-opacity:1;
stroke-linecap:round; stroke-linejoin:round; "
 transform="translate(0 0) scale(1 1)">
</g>
<g style="fill:#000000; fill-opacity:0.0; 
stroke:#000000; stroke-width:-0.000393701; stroke-opacity:1; 
stroke-linecap:round; stroke-linejoin:round;">
</g>
<g style="fill:#000000; fill-opacity:1.0; 
stroke:#000000; stroke-width:0; stroke-opacity:1; 
stroke-linecap:round; stroke-linejoin:round;">
<circle cx="15157.5" cy="1712.6" r="1278.74" /> 
</g>
<g style="fill:#000000; fill-opacity:1.0; 
stroke:#000000; stroke-width:40; stroke-opacity:1; 
stroke-linecap:round; stroke-linejoin:round;">
</g>
<g style="fill:#000000; fill-opacity:1.0; 
stroke:#000000; stroke-width:0; stroke-opacity:1; 
stroke-linecap:round; stroke-linejoin:round;">
<circle cx="7933.13" cy="15407.5" r="433.071" /> 
</g>
<g style="fill:#000000; fill-opacity:1.0; 
stroke:#000000; stroke-width:40; stroke-opacity:1; 
stroke-linecap:round; stroke-linejoin:round;">
</g>
<g style="fill:#000000; fill-opacity:1.0; 
stroke:#000000; stroke-width:0; stroke-opacity:1; 
stroke-linecap:round; stroke-linejoin:round;">
<circle cx="8799.15" cy="14907.5" r="433.071" /> 
</g>
<g style="fill:#000000; fill-opacity:1.0; 
stroke:#000000; stroke-width:40; stroke-opacity:1; 
stroke-linecap:round; stroke-linejoin:round;">
</g>
<g style="fill:#000000; fill-opacity:1.0; 
stroke:#000000; stroke-width:0; stroke-opacity:1; 
stroke-linecap:round; stroke-linejoin:round;">
<circle cx="22381.8" cy="15407.5" r="433.071" /> 
</g>
<g style="fill:#000000; fill-opacity:1.0; 
stroke:#000000; stroke-width:40; stroke-opacity:1; 
stroke-linecap:round; stroke-linejoin:round;">
</g>
<g style="fill:#000000; fill-opacity:1.0; 
stroke:#000000; stroke-width:0; stroke-opacity:1; 
stroke-linecap:round; stroke-linejoin:round;">
<circle cx="21515.8" cy="14907.5" r="433.071" /> 
</g>
<g style="fill:#000000; fill-opacity:1.0; 
stroke:#000000; stroke-width:40; stroke-opacity:1; 
stroke-linecap:round; stroke-linejoin:round;">
</g>
<g style="fill:#000000; fill-opacity:1.0; 
stroke:#000000; stroke-width:0; stroke-opacity:1; 
stroke-linecap:round; stroke-linejoin:round;">
<circle cx="15157.5" cy="4027.56" r="433.071" /> 
</g>
<g style="fill:#000000; fill-opacity:1.0; 
stroke:#000000; stroke-width:40; stroke-opacity:1; 
stroke-linecap:round; stroke-linejoin:round;">
</g>
<g style="fill:#000000; fill-opacity:1.0; 
stroke:#000000; stroke-width:0; stroke-opacity:1; 
stroke-linecap:round; stroke-linejoin:round;">
<circle cx="15157.5" cy="5027.56" r="433.071" /> 
</g>
<g style="fill:#000000; fill-opacity:1.0; 
stroke:#000000; stroke-width:40; stroke-opacity:1; 
stroke-linecap:round; stroke-linejoin:round;">
</g>
<g style="fill:#000000; fill-opacity:1.0; 
stroke:#000000; stroke-width:0; stroke-opacity:1; 
stroke-linecap:round; stroke-linejoin:round;">
<polyline style="fill-rule:evenodd;"
points="15255,6761
15255,6033
15807,6033
15807,6761
15255,6761
" /> 
<polyline style="fill-rule:evenodd;"
points="14507,6761
14507,6033
15059,6033
15059,6761
14507,6761
" /> 
<circle cx="16757.5" cy="6397.64" r="393.701" /> 
</g>
<g style="fill:#000000; fill-opacity:1.0; 
stroke:#000000; stroke-width:40; stroke-opacity:1; 
stroke-linecap:round; stroke-linejoin:round;">
</g>
<g style="fill:#000000; fill-opacity:1.0; 
stroke:#000000; stroke-width:0; stroke-opacity:1; 
stroke-linecap:round; stroke-linejoin:round;">
<circle cx="13557.5" cy="6397.64" r="393.701" /> 
</g>
<g style="fill:#000000; fill-opacity:1.0; 
stroke:#000000; stroke-width:40; stroke-opacity:1; 
stroke-linecap:round; stroke-linejoin:round;">
</g>
<g style="fill:#000000; fill-opacity:1.0; 
stroke:#000000; stroke-width:0; stroke-opacity:1; 
stroke-linecap:round; stroke-linejoin:round;">
<polyline style="fill-rule:evenodd;"
points="10108,13905
9477,14270
9202,13792
9833,13428
10108,13905
" /> 
<polyline style="fill-rule:evenodd;"
points="10482,14553
9851,14917
9576,14440
10207,14076
10482,14553
" /> 
<circle cx="9042.52" cy="12787.6" r="393.701" /> 
</g>
<g style="fill:#000000; fill-opacity:1.0; 
stroke:#000000; stroke-width:40; stroke-opacity:1; 
stroke-linecap:round; stroke-linejoin:round;">
</g>
<g style="fill:#000000; fill-opacity:1.0; 
stroke:#000000; stroke-width:0; stroke-opacity:1; 
stroke-linecap:round; stroke-linejoin:round;">
<circle cx="10642.5" cy="15558.9" r="393.701" /> 
</g>
<g style="fill:#000000; fill-opacity:1.0; 
stroke:#000000; stroke-width:40; stroke-opacity:1; 
stroke-linecap:round; stroke-linejoin:round;">
</g>
<g style="fill:#000000; fill-opacity:1.0; 
stroke:#000000; stroke-width:0; stroke-opacity:1; 
stroke-linecap:round; stroke-linejoin:round;">
<polyline style="fill-rule:evenodd;"
points="20837,14270
20206,13905
20481,13428
21112,13792
20837,14270
" /> 
<polyline style="fill-rule:evenodd;"
points="20463,14917
19832,14553
20107,14076
20738,14440
20463,14917
" /> 
<circle cx="21272.4" cy="12787.6" r="393.701" /> 
</g>
<g style="fill:#000000; fill-opacity:1.0; 
stroke:#000000; stroke-width:40; stroke-opacity:1; 
stroke-linecap:round; stroke-linejoin:round;">
</g>
<g style="fill:#000000; fill-opacity:1.0; 
stroke:#000000; stroke-width:0; stroke-opacity:1; 
stroke-linecap:round; stroke-linejoin:round;">
<circle cx="19672.4" cy="15558.9" r="393.701" /> 
</g>
<g style="fill:#000000; fill-opacity:1.0; 
stroke:#000000; stroke-width:40; stroke-opacity:1; 
stroke-linecap:round; stroke-linejoin:round;">
</g>
<g style="fill:#000000; fill-opacity:1.0; 
stroke:#000000; stroke-width:0; stroke-opacity:1; 
stroke-linecap:round; stroke-linejoin:round;">
<circle cx="13484.3" cy="3346.46" r="354.331" /> 
</g>
<g style="fill:#000000; fill-opacity:1.0; 
stroke:#000000; stroke-width:40; stroke-opacity:1; 
stroke-linecap:round; stroke-linejoin:round;">
</g>
<g style="fill:#000000; fill-opacity:1.0; 
stroke:#000000; stroke-width:0; stroke-opacity:1; 
stroke-linecap:round; stroke-linejoin:round;">
<circle cx="13484.3" cy="2559.06" r="354.331" /> 
</g>
<g style="fill:#000000; fill-opacity:1.0; 
stroke:#000000; stroke-width:40; stroke-opacity:1; 
stroke-linecap:round; stroke-linejoin:round;">
</g>
<g style="fill:#000000; fill-opacity:1.0; 
stroke:#000000; stroke-width:0; stroke-opacity:1; 
stroke-linecap:round; stroke-linejoin:round;">
<circle cx="16830.7" cy="3346.46" r="354.331" /> 
</g>
<g style="fill:#000000; fill-opacity:1.0; 
stroke:#000000; stroke-width:40; stroke-opacity:1; 
stroke-linecap:round; stroke-linejoin:round;">
</g>
<g style="fill:#000000; fill-opacity:1.0; 
stroke:#000000; stroke-width:0; stroke-opacity:1; 
stroke-linecap:round; stroke-linejoin:round;">
<circle cx="16830.7" cy="2559.06" r="354.331" /> 
</g>
<g style="fill:#000000; fill-opacity:1.0; 
stroke:#000000; stroke-width:40; stroke-opacity:1; 
stroke-linecap:round; stroke-linejoin:round;">
</g>
<g style="fill:#000000; fill-opacity:1.0; 
stroke:#000000; stroke-width:0; stroke-opacity:1; 
stroke-linecap:round; stroke-linejoin:round;">
<circle cx="18346.5" cy="11220.5" r="570.866" /> 
</g>
<g style="fill:#000000; fill-opacity:1.0; 
stroke:#000000; stroke-width:40; stroke-opacity:1; 
stroke-linecap:round; stroke-linejoin:round;">
</g>
<g style="fill:#000000; fill-opacity:1.0; 
stroke:#000000; stroke-width:0; stroke-opacity:1; 
stroke-linecap:round; stroke-linejoin:round;">
<circle cx="10511.8" cy="11220.5" r="570.866" /> 
</g>
<g style="fill:#000000; fill-opacity:1.0; 
stroke:#000000; stroke-width:40; stroke-opacity:1; 
stroke-linecap:round; stroke-linejoin:round;">
</g>
<g style="fill:#000000; fill-opacity:1.0; 
stroke:#000000; stroke-width:0; stroke-opacity:1; 
stroke-linecap:round; stroke-linejoin:round;">
<circle cx="9645.67" cy="11220.5" r="570.866" /> 
</g>
<g style="fill:#000000; fill-opacity:1.0; 
stroke:#000000; stroke-width:40; stroke-opacity:1; 
stroke-linecap:round; stroke-linejoin:round;">
</g>
<g style="fill:#000000; fill-opacity:1.0; 
stroke:#000000; stroke-width:0; stroke-opacity:1; 
stroke-linecap:round; stroke-linejoin:round;">
<circle cx="20275.6" cy="11220.5" r="570.866" /> 
</g>
<g style="fill:#000000; fill-opacity:1.0; 
stroke:#000000; stroke-width:40; stroke-opacity:1; 
stroke-linecap:round; stroke-linejoin:round;">
</g>
<g style="fill:#000000; fill-opacity:1.0; 
stroke:#000000; stroke-width:3.93701; stroke-opacity:1; 
stroke-linecap:round; stroke-linejoin:round;">
<polyline style="fill-rule:evenodd;"
points="15310,1666
15420,1688
15531,1725
15620,1763
15789,1855
15960,1977
16127,2125
16285,2294
16334,2354
16364,2394
16411,2462
16472,2553
16547,2664
16632,2793
16724,2935
16823,3086
16925,3244
16954,3290
17472,4098
17477,3821
17482,3544
17532,3556
17582,3571
17659,3596
17755,3629
17862,3667
17973,3707
18080,3748
18176,3785
18190,3791
18381,3868
18380,4002
18379,4081
18377,4180
18374,4283
18372,4327
18370,4430
18375,4503
18389,4554
18414,4588
18451,4613
18458,4616
18508,4630
18562,4636
18611,4629
18649,4606
18681,4563
18708,4496
18733,4399
18752,4302
18768,4216
18783,4145
18796,4095
18803,4073
18804,4072
18826,4081
18873,4105
18941,4142
19022,4188
19113,4240
19207,4295
19299,4350
19383,4401
19387,4404
19462,4453
19524,4496
19566,4529
19585,4550
19585,4552
19578,4576
19565,4628
19546,4703
19523,4794
19508,4856
19482,4964
19464,5043
19454,5099
19451,5139
19453,5169
19461,5194
19462,5198
19503,5255
19562,5293
19629,5308
19695,5298
19742,5268
19763,5235
19793,5176
19827,5100
19861,5014
19861,5013
19892,4932
19919,4865
19940,4819
19952,4800
19952,4799
19973,4811
20016,4842
20076,4889
20148,4947
20227,5012
20308,5080
20385,5147
20454,5209
20495,5247
20645,5390
20527,5654
20474,5778
20437,5874
20416,5948
20410,6005
20418,6049
20439,6085
20452,6099
20508,6136
20575,6156
20638,6155
20661,6146
20684,6123
20720,6075
20765,6009
20813,5931
20822,5917
20868,5840
20909,5777
20941,5734
20960,5715
20963,5714
20982,5730
21020,5770
21072,5828
21135,5899
21203,5978
21273,6061
21340,6142
21400,6217
21434,6260
21540,6400
21375,6650
21302,6762
21250,6849
21216,6917
21198,6970
21196,7011
21207,7047
21216,7063
21263,7112
21326,7146
21389,7159
21415,7156
21448,7137
21498,7092
21562,7025
21618,6963
21677,6895
21729,6839
21767,6800
21789,6782
21791,6781
21806,6796
21835,6838
21875,6900
21924,6978
21977,7067
22032,7161
22084,7254
22132,7341
22172,7417
22247,7566
22044,7775
21953,7871
21886,7948
21840,8008
21814,8057
21804,8098
21808,8135
21812,8146
21850,8213
21908,8260
21974,8279
21979,8279
22010,8275
22045,8260
22091,8231
22153,8184
22228,8123
22298,8066
22358,8019
22403,7987
22427,7974
22429,7974
22442,7994
22464,8044
22493,8116
22528,8204
22565,8304
22604,8409
22641,8513
22675,8611
22703,8696
22724,8762
22735,8805
22736,8814
22722,8829
22684,8862
22626,8907
22554,8963
22508,8997
22427,9059
22353,9118
22294,9167
22254,9202
22245,9213
22212,9278
22217,9346
22257,9417
22265,9426
22302,9462
22338,9483
22381,9487
22435,9474
22506,9442
22600,9391
22637,9370
22715,9326
22780,9290
22828,9266
22851,9256
22853,9256
22860,9278
22871,9330
22886,9405
22903,9497
22922,9601
22940,9710
22959,9820
22975,9923
22989,10014
22999,10087
23004,10136
23004,10155
22987,10164
22943,10186
22877,10220
22796,10261
22727,10296
22617,10352
22536,10397
22480,10433
22443,10463
22421,10489
22421,10490
22398,10561
22410,10632
22454,10698
22485,10727
22517,10744
22557,10748
22611,10740
22684,10719
22783,10685
22821,10671
22899,10642
22965,10619
23012,10604
23030,10599
23034,10617
23037,10666
23040,10742
23041,10839
23041,10955
23041,11056
23036,11512
22748,11598
22650,11629
22563,11658
22493,11683
22448,11703
22435,11711
22425,11727
22427,11750
22444,11787
22478,11843
22499,11877
22540,11939
22575,11986
22598,12014
22603,12017
22626,12014
22677,12006
22746,11993
22804,11983
22990,11949
22990,12004
22987,12043
22979,12109
22967,12192
22953,12283
22953,12285
22939,12373
22929,12450
22924,12507
22924,12536
22925,12537
22936,12556
22965,12604
23011,12677
23072,12774
23146,12892
23233,13030
23330,13184
23436,13352
23551,13532
23671,13722
23729,13813
23889,14066
24031,14290
24155,14488
24264,14663
24358,14816
24438,14950
24507,15067
24564,15169
24613,15259
24653,15339
24686,15411
24713,15478
24737,15540
24757,15602
24764,15627
24797,15767
24817,15922
24825,16078
24820,16226
24801,16351
24801,16352
24738,16545
24644,16718
24521,16872
24367,17005
24183,17118
23971,17210
23787,17267
23599,17317
19222,17336
19503,17571
19460,17605
19418,17635
19352,17678
19267,17729
19171,17785
19071,17842
18975,17895
18888,17941
18867,17952
18707,18032
18487,17825
18410,17754
18339,17692
18278,17642
18235,17609
18219,17600
18158,17594
18092,17614
18036,17655
18020,17674
17996,17717
17989,17759
17999,17807
18030,17865
18083,17939
18145,18016
18202,18086
18249,18146
18283,18191
18299,18214
18299,18216
18283,18228
18238,18249
18170,18277
18084,18310
17986,18347
17882,18385
17777,18422
17677,18456
17588,18485
17514,18508
17463,18521
17439,18524
17438,18524
17407,18478
17362,18416
17308,18344
17249,18267
17190,18191
17135,18123
17089,18067
17057,18029
17044,18017
17002,18004
16953,17999
16901,18013
16847,18049
16801,18096
16775,18146
16772,18164
16781,18195
16805,18250
16841,18321
16885,18400
16890,18409
16935,18487
16971,18554
16997,18603
17008,18629
17009,18630
16991,18641
16941,18656
16863,18674
16760,18695
16637,18718
16496,18741
16342,18765
16178,18789
16176,18789
16117,18797
15982,18528
15918,18405
15865,18312
15819,18247
15779,18206
15742,18185
15714,18181
15654,18194
15595,18228
15547,18275
15520,18325
15518,18343
15524,18379
15541,18439
15565,18516
15591,18587
15619,18667
15643,18737
15658,18787
15663,18810
15658,18818
15641,18824
15607,18829
15554,18832
15476,18834
15370,18835
15232,18836
15212,18836
14760,18836
14682,18568
14652,18470
14624,18380
14599,18307
14580,18258
14574,18246
14565,18227
14559,18205
14556,18175
14556,18132
14560,18071
14567,17988
14579,17877
14591,17764
14637,17336
14557,17330
14508,17328
14476,17329
14472,17330
14468,17349
14461,17399
14452,17474
14441,17571
14428,17682
14422,17742
14377,18148
14311,18202
14281,18229
14261,18255
14250,18287
14247,18331
14254,18393
14267,18480
14282,18562
14296,18644
14306,18712
14310,18759
14310,18777
14287,18779
14235,18775
14160,18766
14068,18754
13964,18738
13856,18720
13748,18701
13648,18682
13562,18664
13495,18648
13457,18637
13441,18629
13429,18613
13419,18586
13410,18540
13400,18471
13389,18374
13384,18335
13368,18203
13352,18103
13334,18030
13314,17979
13289,17946
13264,17927
13195,17909
13119,17917
13053,17950
13050,17952
13030,17971
13016,17989
13007,18015
13001,18055
12997,18114
12995,18201
12994,18252
12991,18344
12986,18421
12981,18477
12976,18506
12975,18508
12945,18502
12887,18485
12808,18458
12713,18425
12608,18387
12499,18347
12392,18307
12293,18269
12208,18235
12142,18207
12103,18188
12096,18183
12093,18162
12092,18111
12094,18037
12099,17945
12103,17878
12111,17748
12113,17649
12109,17576
12098,17523
12080,17486
12052,17460
12025,17444
11953,17420
11883,17428
11845,17444
11818,17463
11796,17488
11778,17528
11761,17587
11744,17671
11726,17772
11711,17850
11697,17915
11686,17958
11680,17970
11659,17968
11610,17948
11537,17912
11444,17863
11334,17800
11210,17727
11094,17657
11013,17607
10958,17572
10926,17543
10910,17515
10909,17480
10918,17433
10929,17381
10940,17327
8859,17327
8529,17327
8233,17327
7969,17326
7735,17326
7529,17325
7349,17324
7191,17322
7055,17320
6938,17317
6838,17314
6753,17310
6680,17304
6617,17298
6563,17291
6515,17283
6471,17274
6428,17263
6385,17251
6339,17238
6327,17234
6123,17157
5938,17055
5777,16930
5640,16786
5532,16624
5455,16448
5436,16381
5422,16318
5414,16249
5411,16167
5412,16060
5413,16018
5424,15857
5426,15842
6348,15842
6349,15961
6354,15993
6400,16121
6475,16228
6578,16313
6708,16374
6866,16413
6890,16416
6918,16418
6981,16419
7078,16420
7207,16421
7366,16423
7555,16424
7771,16425
8014,16426
8282,16427
8573,16427
8887,16428
9221,16429
9575,16430
9947,16430
10335,16431
10738,16431
11155,16432
11584,16432
12024,16433
12473,16433
12931,16433
13395,16434
13864,16434
14336,16434
14811,16434
15287,16434
15763,16434
16236,16434
16706,16434
17172,16433
17631,16433
18082,16433
18525,16432
18957,16432
19377,16431
19784,16431
20176,16430
20552,16430
20910,16429
21250,16428
21569,16427
21866,16427
22140,16426
22389,16425
22613,16424
22809,16423
22976,16422
23112,16420
23217,16419
23289,16418
23326,16417
23330,16416
23417,16400
23506,16376
23578,16350
23670,16296
23754,16223
23820,16140
23860,16058
23879,15933
23870,15795
23832,15653
23768,15511
23750,15481
23736,15460
23704,15409
23653,15329
23584,15222
23499,15088
23397,14929
23279,14746
23147,14539
23000,14310
22839,14059
22666,13789
22480,13499
22282,13191
22074,12866
21855,12524
21626,12168
21389,11797
21142,11414
20889,11019
20628,10612
20361,10196
20088,9771
19810,9338
19693,9154
19340,8606
19007,8087
18693,7598
18397,7137
18119,6704
17858,6298
17614,5919
17386,5565
17175,5237
16979,4933
16798,4652
16631,4395
16479,4160
16341,3947
16216,3754
16104,3582
16004,3429
15916,3295
15840,3180
15774,3081
15720,3000
15675,2935
15640,2885
15615,2849
15598,2828
15593,2823
15524,2763
15441,2705
15376,2668
15239,2620
15099,2606
14960,2628
14823,2683
14694,2772
14630,2831
14617,2846
14596,2875
14566,2917
14527,2974
14478,3045
14420,3132
14351,3236
14271,3357
14180,3496
14077,3654
13962,3831
13834,4027
13693,4245
13539,4484
13370,4746
13186,5030
12988,5338
12774,5670
12544,6027
12298,6410
12034,6820
11754,7256
11455,7721
11138,8214
10803,8737
10517,9181
10237,9618
9962,10047
9691,10469
9427,10881
9170,11282
8920,11673
8678,12051
8444,12415
8221,12765
8007,13099
7804,13417
7612,13717
7432,13999
7265,14260
7111,14501
6972,14720
6847,14917
6737,15089
6644,15237
6567,15358
6508,15453
6467,15519
6444,15556
6440,15563
6378,15710
6348,15842
5426,15842
5445,15714
5480,15577
5531,15435
5602,15279
5623,15236
5648,15189
5692,15115
5752,15015
5826,14892
5914,14749
6013,14589
6123,14413
6241,14224
6365,14026
6495,13820
6622,13621
7516,12216
7495,12059
7486,11976
7484,11920
7490,11896
7491,11895
7514,11885
7561,11861
7624,11828
7671,11803
7742,11765
7793,11733
7832,11701
7867,11660
7907,11601
7942,11546
8050,11375
8009,11342
7978,11321
7942,11312
7896,11314
7833,11329
7747,11356
7669,11384
7588,11412
7520,11433
7471,11445
7449,11446
7449,11446
7445,11424
7442,11373
7439,11297
7438,11204
7436,11099
7436,10988
7436,10878
7437,10775
7439,10685
7442,10614
7445,10568
7448,10554
7469,10545
7518,10527
7590,10504
7678,10477
7726,10463
7822,10434
7908,10406
7977,10382
8022,10364
8032,10358
8051,10349
8078,10344
8118,10343
8176,10346
8259,10353
8371,10365
8471,10376
8557,10385
8623,10391
8664,10394
8673,10394
8698,10357
8725,10313
8747,10271
8759,10242
8759,10236
8737,10234
8685,10228
8609,10220
8516,10210
8427,10200
8293,10184
8194,10169
8131,10156
8103,10144
8102,10142
8071,10096
8022,10057
7969,10037
7958,10036
7919,10039
7854,10048
7773,10060
7700,10073
7618,10087
7551,10097
7505,10103
7487,10102
7486,10081
7491,10031
7501,9956
7514,9863
7531,9759
7550,9649
7570,9539
7588,9445
7636,9208
7927,9175
8058,9159
8157,9143
8231,9125
8283,9103
8319,9076
8344,9043
8350,9031
8364,8984
8359,8928
8354,8909
8337,8863
8313,8829
8274,8806
8217,8791
8135,8784
8024,8781
7991,8781
7903,8781
7830,8780
7778,8778
7755,8776
7754,8776
7760,8752
7776,8701
7801,8628
7832,8540
7866,8443
7902,8344
7937,8248
7969,8162
7996,8093
7999,8085
8085,7871
8252,7884
8353,7890
8468,7895
8574,7898
8587,7898
8667,7898
8720,7895
8753,7888
8777,7874
8799,7851
8801,7848
8837,7781
8845,7707
8823,7636
8804,7609
8780,7587
8746,7569
8696,7554
8622,7538
8563,7527
8454,7508
8377,7494
8328,7480
8304,7462
8301,7437
8316,7399
8346,7344
8374,7294
8423,7205
8478,7109
8536,7012
8592,6920
8645,6836
8689,6768
8724,6720
8743,6698
8745,6697
8769,6698
8821,6707
8895,6722
8985,6742
9033,6753
9131,6776
9221,6795
9294,6809
9344,6817
9356,6818
9418,6801
9472,6758
9508,6699
9518,6648
9516,6601
9509,6565
9491,6535
9458,6508
9405,6481
9327,6449
9220,6409
9215,6407
9139,6378
9076,6352
9033,6334
9020,6326
9025,6307
9051,6266
9093,6208
9149,6136
9213,6055
9283,5971
9354,5887
9423,5808
9486,5739
9538,5684
9576,5648
9597,5636
9620,5643
9671,5662
9742,5691
9828,5727
9891,5754
9985,5794
10070,5828
10139,5854
10185,5869
10200,5872
10256,5856
10309,5813
10350,5753
10371,5687
10372,5667
10367,5635
10348,5603
10312,5568
10255,5526
10171,5474
10109,5437
10036,5393
9976,5354
9936,5325
9921,5310
9921,5309
9938,5290
9977,5253
10035,5201
10106,5138
10185,5071
10267,5001
10347,4935
10421,4876
10451,4852
10611,4728
10859,4894
10973,4968
11063,5022
11134,5056
11189,5071
11234,5068
11272,5049
11309,5015
11314,5010
11360,4938
11371,4869
11355,4820
11336,4797
11293,4757
11235,4704
11167,4646
11165,4644
11098,4588
11044,4538
11006,4501
10991,4482
10991,4481
11006,4465
11048,4435
11111,4394
11191,4345
11281,4291
11377,4236
11473,4181
11564,4132
11644,4089
11708,4057
11751,4039
11764,4036
11783,4048
11824,4081
11881,4130
11950,4193
12006,4245
12083,4315
12154,4377
12215,4426
12258,4457
12275,4465
12337,4465
12398,4437
12450,4392
12485,4335
12494,4275
12492,4262
12477,4233
12442,4182
12394,4118
12337,4045
12326,4032
12171,3845
12277,3797
12333,3773
12410,3743
12502,3709
12603,3673
12707,3638
12807,3604
12897,3575
12973,3552
13027,3537
13053,3533
13054,3533
13068,3520
13099,3480
13145,3416
13203,3332
13270,3231
13345,3117
13400,3030
13485,2899
13568,2771
13649,2650
13721,2542
13783,2452
13831,2385
13847,2364
14016,2167
14199,1998
14392,1859
14592,1754
14653,1729
14728,1701
14790,1683
14852,1671
14924,1664
15018,1659
15045,1658
15189,1657
15310,1666
" /> 
<polyline style="fill-rule:evenodd;"
points="13111,8583
13127,8594
13138,8618
13148,8663
13159,8732
13173,8822
13181,8897
13181,8950
13169,8996
13163,9010
13159,9025
13155,9047
13151,9078
13148,9121
13145,9177
13143,9249
13141,9338
13140,9448
13138,9580
13137,9736
13137,9919
13136,10131
13136,10373
13136,10648
13136,10835
13136,12594
13235,12606
13333,12623
13396,12649
13425,12681
13427,12693
13419,12721
13410,12727
13393,12741
13369,12779
13357,12801
13333,12863
13333,12908
13336,12918
13341,12946
13346,13006
13352,13092
13358,13201
13364,13327
13369,13466
13372,13539
13378,13708
13384,13891
13391,14078
13397,14257
13403,14421
13408,14555
13413,14718
13416,14849
13414,14954
13408,15038
13397,15104
13380,15158
13356,15204
13325,15249
13307,15271
13259,15316
13207,15351
13196,15356
13122,15375
13035,15379
12956,15367
12936,15361
12858,15311
12790,15231
12766,15190
12749,15154
12737,15115
12731,15066
12728,14997
12728,14900
12728,14899
12729,14806
12733,14687
12739,14547
12746,14390
12755,14221
12765,14045
12776,13865
12787,13688
12799,13516
12810,13355
12822,13210
12832,13084
12842,12983
12850,12910
12855,12881
12855,12832
12833,12780
12818,12756
12791,12709
12779,12672
12779,12662
12802,12643
12847,12623
12902,12607
12954,12600
12959,12599
12964,12598
12968,12592
12973,12580
12976,12559
12979,12527
12982,12483
12984,12424
12986,12347
12987,12252
12988,12135
12989,11995
12990,11829
12990,11635
12990,11412
12990,11157
12990,10868
12990,10835
12990,10542
12990,10283
12990,10056
12990,9859
12989,9689
12988,9545
12987,9423
12986,9323
12984,9241
12982,9176
12979,9125
12976,9086
12972,9057
12968,9035
12963,9019
12958,9006
12956,9003
12936,8957
12928,8923
12928,8918
12933,8892
12941,8840
12950,8771
12955,8740
12976,8581
13055,8581
13088,8581
13111,8583
" /> 
<polyline style="fill-rule:evenodd;"
points="17362,9500
17426,9506
17457,9519
17457,9544
17428,9585
17371,9646
17344,9673
17284,9731
17232,9778
17193,9808
17176,9818
17152,9830
17113,9863
17066,9909
17063,9913
17016,9964
16990,10002
16977,10040
16973,10090
16973,10128
16972,10248
17062,10324
17113,10365
17152,10387
17196,10397
17258,10399
17273,10399
17340,10398
17385,10390
17423,10371
17467,10335
17478,10325
17525,10279
17560,10237
17573,10212
17589,10186
17626,10147
17675,10100
17731,10051
17786,10007
17833,9973
17866,9954
17877,9953
17883,9976
17888,10026
17890,10093
17890,10115
17888,10197
17880,10258
17863,10314
17833,10381
17830,10386
17775,10479
17710,10558
17690,10578
17609,10649
17609,13925
17710,13992
17831,14093
17924,14213
17991,14349
18029,14494
18039,14644
18019,14794
17970,14938
17890,15072
17839,15133
17784,15186
17739,15212
17709,15218
17658,15218
17667,14980
17675,14743
17477,14588
17404,14533
17341,14487
17294,14454
17268,14440
17265,14439
17247,14452
17206,14483
17148,14527
17078,14581
17067,14590
16881,14736
16881,14977
16881,15074
16880,15141
16877,15183
16870,15206
16860,15215
16844,15218
16840,15218
16800,15203
16749,15164
16724,15140
16626,15016
16560,14883
16526,14737
16521,14573
16530,14477
16548,14399
16579,14319
16585,14304
16657,14180
16748,14071
16849,13986
16876,13969
16954,13923
16954,12694
17209,12694
17209,12929
17209,13133
17210,13307
17211,13454
17213,13575
17215,13674
17219,13751
17223,13810
17229,13853
17236,13882
17245,13899
17255,13906
17267,13905
17281,13900
17297,13891
17301,13890
17307,13885
17313,13878
17317,13866
17322,13846
17325,13816
17328,13773
17330,13716
17332,13642
17333,13547
17334,13431
17335,13291
17335,13124
17336,12927
17336,12699
17336,12437
17336,12436
17336,12172
17336,11942
17335,11743
17334,11573
17334,11431
17332,11313
17331,11217
17329,11141
17326,11083
17323,11040
17320,11009
17315,10989
17310,10978
17307,10973
17274,10955
17244,10964
17237,10968
17232,10975
17227,10988
17223,11008
17219,11038
17217,11080
17214,11137
17212,11212
17211,11306
17210,11422
17209,11563
17209,11730
17209,11926
17209,12154
17209,12415
17209,12424
17209,12694
16954,12694
16954,12293
16954,10663
16864,10586
16771,10482
16715,10387
16682,10314
16664,10254
16656,10188
16655,10128
16662,10010
16683,9908
16688,9895
16736,9797
16811,9701
16903,9616
17002,9552
17005,9550
17065,9524
17118,9508
17181,9501
17263,9499
17362,9500
" /> 
<polyline style="fill-rule:evenodd;"
points="13316,10052
13357,10087
13417,10139
13492,10205
13578,10282
13639,10337
13868,10543
14089,10739
14301,10925
14501,11100
14688,11261
14861,11408
15018,11539
15157,11652
15277,11748
15376,11823
15452,11877
15505,11909
15525,11917
15563,11922
15623,11929
15678,11934
15812,11959
15924,12009
16025,12089
16034,12098
16111,12195
16155,12297
16169,12412
16169,12446
16164,12506
16157,12539
16141,12554
16114,12560
16113,12560
16078,12556
16038,12536
15984,12492
15968,12478
15898,12413
15849,12370
15816,12346
15792,12338
15772,12345
15750,12363
15730,12381
15682,12435
15642,12501
15634,12520
15603,12602
15736,12736
15870,12871
15808,12896
15717,12923
15623,12934
15545,12928
15430,12883
15335,12808
15260,12703
15204,12568
15172,12425
15161,12365
15143,12321
15113,12281
15062,12230
15059,12227
14997,12169
14910,12090
14802,11993
14675,11879
14531,11752
14375,11613
14209,11466
14035,11313
13857,11156
13795,11102
13281,10652
13281,10342
13282,10230
13285,10140
13289,10076
13295,10043
13298,10039
13316,10052
" /> 
<polyline style="fill-rule:evenodd;"
points="14864,12219
14927,12280
14979,12334
15014,12376
15027,12400
15027,12400
15013,12428
14979,12467
14945,12499
14890,12551
14831,12618
14789,12674
14750,12728
14717,12763
14683,12778
14645,12771
14597,12742
14535,12689
14453,12611
14436,12595
14355,12515
14299,12454
14264,12410
14247,12378
14245,12362
14257,12310
14288,12278
14311,12272
14357,12263
14422,12240
14495,12207
14565,12169
14619,12134
14701,12071
14864,12219
" /> 
<polyline style="fill-rule:evenodd;"
points="16661,10421
16680,10459
16682,10463
16710,10506
16753,10560
16787,10596
16827,10640
16853,10674
16860,10689
16845,10706
16808,10742
16754,10794
16688,10856
16654,10888
16573,10965
16491,11045
16418,11120
16362,11182
16354,11192
16308,11243
16241,11312
16161,11393
16072,11478
15990,11555
15900,11638
15832,11700
15781,11744
15743,11772
15713,11789
15687,11797
15660,11799
15642,11799
15599,11797
15560,11787
15517,11765
15461,11728
15412,11692
15349,11644
15298,11604
15264,11575
15256,11566
15263,11545
15297,11504
15356,11446
15435,11373
15534,11287
15650,11190
15779,11085
15920,10974
16069,10859
16099,10837
16199,10760
16299,10683
16390,10611
16467,10549
16522,10503
16522,10503
16578,10457
16621,10422
16647,10403
16651,10402
16661,10421
" /> 
<polyline style="fill-rule:evenodd;"
points="17686,8466
17714,8482
17752,8516
17783,8547
17850,8623
17892,8695
17899,8713
17936,8795
17989,8853
18053,8884
18086,8887
18158,8900
18234,8946
18315,9025
18400,9139
18490,9286
18559,9415
18650,9600
18723,9770
18784,9937
18837,10115
18855,10186
18877,10275
18887,10335
18884,10372
18867,10391
18835,10398
18806,10399
18777,10395
18755,10376
18733,10336
18716,10295
18633,10116
18533,9964
18473,9893
18424,9835
18383,9781
18359,9742
18358,9740
18330,9695
18293,9678
18240,9687
18194,9707
18122,9736
18042,9763
18014,9771
17978,9783
17938,9802
17891,9831
17833,9872
17761,9927
17672,9999
17562,10091
17429,10205
17427,10207
17370,10253
17322,10288
17290,10307
17285,10308
17259,10297
17217,10268
17171,10231
17122,10186
17095,10152
17084,10118
17082,10081
17085,10042
17098,10010
17125,9977
17173,9934
17192,9918
17240,9875
17306,9811
17386,9733
17472,9646
17560,9556
17644,9469
17716,9392
17764,9339
17793,9296
17806,9245
17808,9194
17794,9092
17752,9012
17680,8954
17590,8920
17552,8897
17505,8848
17475,8808
17437,8748
17418,8705
17415,8669
17418,8654
17445,8599
17498,8545
17566,8499
17623,8475
17659,8466
17686,8466
" /> 
<polyline style="fill-rule:evenodd;"
points="12198,8877
12284,8890
12311,8898
12409,8942
12499,9003
12572,9074
12609,9128
12633,9186
12656,9262
12672,9330
12689,9405
12709,9457
12741,9503
12771,9534
12846,9611
12836,10267
12568,10042
12299,9818
12144,9818
12030,9812
11942,9795
11868,9761
11798,9707
11784,9694
11704,9599
11656,9499
11638,9386
11637,9372
11636,9263
11704,9257
11746,9258
11783,9271
11826,9302
11858,9330
11926,9392
11973,9433
12005,9456
12027,9464
12047,9462
12069,9451
12079,9446
12140,9395
12179,9322
12190,9250
12187,9219
12173,9189
12145,9153
12096,9104
12050,9061
11988,9004
11949,8966
11931,8942
11929,8927
11941,8916
11953,8909
12019,8887
12105,8877
12198,8877
" /> 
</g>
<g style="fill:#000000; fill-opacity:1.0; 
stroke:#000000; stroke-width:40; stroke-opacity:1; 
stroke-linecap:round; stroke-linejoin:round;">
</g>
<g style="fill:#000000; fill-opacity:0.0; 
stroke:#000000; stroke-width:40; stroke-opacity:1; 
stroke-linecap:round; stroke-linejoin:round;">
<path d="M8838 14203
L9428 15225
" />
<path d="M8838.01 14203.1 A1064.63 1064.63 0.0 1 0 9428.57 15226 " />
<path d="M20886 15225
L21476 14203
" />
<path d="M20886.4 15226 A1064.63 1064.63 0.0 1 0 21476.9 14203.1 " />
<path d="M15748 5413
L14566 5413
" />
<path d="M15748 5413.39 A1064.63 1064.63 0.0 1 0 14566.9 5413.39 " />
</g>
<g style="fill:#000000; fill-opacity:0.0; 
stroke:#000000; stroke-width:80; stroke-opacity:1; 
stroke-linecap:round; stroke-linejoin:round;">
<path d="M14157 5897
L14157 6897
" />
<path d="M14157 6897
L16157 6897
" />
<path d="M16157 6897
L16157 5897
" />
<path d="M16157 5897
L14157 5897
" />
</g>
<g style="fill:#000000; fill-opacity:0.0; 
stroke:#000000; stroke-width:50; stroke-opacity:1; 
stroke-linecap:round; stroke-linejoin:round;">
<path d="M15314 6673
L15000 6673
" />
<path d="M15000 6122
L15314 6122
" />
</g>
<g style="fill:#000000; fill-opacity:0.0; 
stroke:#000000; stroke-width:80; stroke-opacity:1; 
stroke-linecap:round; stroke-linejoin:round;">
<path d="M9909 15289
L10775 14789
" />
<path d="M10775 14789
L9775 13057
" />
<path d="M9775 13057
L8909 13557
" />
<path d="M8909 13557
L9909 15289
" />
</g>
<g style="fill:#000000; fill-opacity:0.0; 
stroke:#000000; stroke-width:50; stroke-opacity:1; 
stroke-linecap:round; stroke-linejoin:round;">
<path d="M10002 13899
L10159 14171
" />
<path d="M9682 14447
L9525 14174
" />
</g>
<g style="fill:#000000; fill-opacity:0.0; 
stroke:#000000; stroke-width:80; stroke-opacity:1; 
stroke-linecap:round; stroke-linejoin:round;">
<path d="M19539 14789
L20405 15289
" />
<path d="M20405 15289
L21405 13557
" />
<path d="M21405 13557
L20539 13057
" />
<path d="M20539 13057
L19539 14789
" />
</g>
<g style="fill:#000000; fill-opacity:0.0; 
stroke:#000000; stroke-width:50; stroke-opacity:1; 
stroke-linecap:round; stroke-linejoin:round;">
<path d="M20789 14174
L20632 14447
" />
<path d="M20155 14171
L20312 13899
" />
</g>
<g style="fill:#000000; fill-opacity:0.0; 
stroke:#000000; stroke-width:59.0551; stroke-opacity:1; 
stroke-linecap:round; stroke-linejoin:round;">
<path d="M8577 15995
L8420 15722
L8484 15685
L8531 15675
L8572 15686
L8600 15705
L8643 15749
L8665 15788
L8682 15848
L8684 15881
L8673 15922
L8642 15958
L8577 15995
" />
<path d="M8666 15580
L8835 15482
L8804 15639
L8843 15616
L8877 15614
L8897 15620
L8925 15638
L8963 15703
L8965 15737
L8959 15757
L8941 15785
L8863 15830
L8829 15832
L8809 15827
" />
<path d="M7982 14648
L8029 14639
L8049 14644
L8077 14663
L8100 14702
L8102 14735
L8096 14756
L8078 14784
L7974 14844
L7816 14571
L7907 14518
L7941 14516
L7961 14522
L7989 14540
L8004 14566
L8006 14600
L8001 14620
L7982 14648
L7891 14701
" />
<path d="M8285 14664
L8252 14666
L8224 14647
L8089 14413
" />
<path d="M8401 14354
L8506 14536
" />
<path d="M8284 14422
L8367 14565
L8395 14583
L8428 14581
L8467 14559
L8486 14531
L8491 14510
" />
<path d="M22023 14569
L22181 14296
L22246 14334
L22277 14369
L22288 14410
L22286 14444
L22269 14503
L22247 14542
L22204 14587
L22176 14605
L22135 14616
L22088 14607
L22023 14569
" />
<path d="M22426 14472
L22446 14467
L22480 14469
L22544 14506
L22563 14534
L22568 14555
L22566 14588
L22551 14614
L22516 14646
L22270 14712
L22439 14809
" />
<path d="M21478 15408
L21459 15380
L21420 15357
L21374 15348
L21333 15359
L21305 15377
L21262 15422
L21239 15460
L21222 15520
L21220 15553
L21231 15594
L21263 15630
L21289 15645
L21335 15654
L21356 15649
L21408 15558
L21356 15528
" />
<path d="M21458 15742
L21563 15561
" />
<path d="M21533 15612
L21561 15594
L21581 15589
L21615 15591
L21640 15606
" />
<path d="M21731 15658
L21626 15840
" />
<path d="M21716 15684
L21737 15679
L21770 15681
L21809 15703
L21828 15731
L21826 15764
L21743 15907
" />
<path d="M14610 4756
L14296 4756
L14296 4681
L14311 4636
L14341 4606
L14371 4591
L14431 4576
L14476 4576
L14535 4591
L14565 4606
L14595 4636
L14610 4681
L14610 4756
" />
<path d="M14610 4276
L14610 4456
" />
<path d="M14610 4366
L14296 4366
L14341 4396
L14371 4426
L14386 4456
" />
<path d="M15909 4832
L15759 4937
" />
<path d="M15909 5012
L15594 5012
L15594 4892
L15609 4862
L15624 4847
L15654 4832
L15699 4832
L15729 4847
L15744 4862
L15759 4892
L15759 5012
" />
<path d="M15894 4577
L15909 4607
L15909 4667
L15894 4697
L15864 4712
L15744 4712
L15714 4697
L15699 4667
L15699 4607
L15714 4577
L15744 4562
L15774 4562
L15804 4712
" />
<path d="M15909 4292
L15594 4292
" />
<path d="M15894 4292
L15909 4322
L15909 4382
L15894 4412
L15879 4427
L15849 4442
L15759 4442
L15729 4427
L15714 4412
L15699 4382
L15699 4322
L15714 4292
" />
</g>
<g style="fill:#000000; fill-opacity:0.0; 
stroke:#000000; stroke-width:45; stroke-opacity:1; 
stroke-linecap:round; stroke-linejoin:round;">
<path d="M14470 6455
L14351 6572
" />
<path d="M14470 6655
L14220 6655
L14220 6522
L14232 6489
L14244 6472
L14268 6455
L14303 6455
L14327 6472
L14339 6489
L14351 6522
L14351 6655
" />
<path d="M14470 6122
L14470 6322
" />
<path d="M14470 6222
L14220 6222
L14256 6255
L14280 6289
L14292 6322
" />
<path d="M10248 14993
L10087 14948
" />
<path d="M10075 15093
L9950 14876
L10065 14809
L10100 14803
L10121 14805
L10147 14817
L10165 14848
L10162 14877
L10154 14896
L10131 14923
L10015 14990
" />
<path d="M10224 14718
L10412 14609
L10358 14750
L10402 14725
L10436 14719
L10457 14721
L10483 14733
L10513 14785
L10510 14814
L10502 14832
L10479 14859
L10392 14909
L10358 14916
L10337 14914
" />
<path d="M19965 14934
L19923 14773
" />
<path d="M19792 14834
L19917 14618
L20032 14684
L20055 14711
L20064 14730
L20066 14759
L20048 14790
L20022 14802
L20001 14804
L19967 14798
L19851 14731
" />
<path d="M20193 14805
L20214 14803
L20249 14809
L20321 14851
L20344 14878
L20352 14897
L20355 14926
L20343 14946
L20311 14969
L20066 14993
L20254 15101
" />
</g>
<g style="fill:#000000; fill-opacity:0.0; 
stroke:#000000; stroke-width:59.0551; stroke-opacity:1; 
stroke-linecap:round; stroke-linejoin:round;">
<path d="M23622 17420.4 A1357.55 1357.55 0.0 0 0 24783.5 15393.7 " />
<path d="M23169 12598
L24783 15393
" />
<path d="M23168.3 12598.2 A8128.4 8128.4 0.0 0 0 17992.1 3602.36 " />
<path d="M16299 728
L17992 3602
" />
<path d="M16299.2 728.347 A1313.6 1313.6 0.0 0 0 14015.7 728.346 " />
<path d="M12322 3602
L14015 728
" />
<path d="M12322.5 3601.38 A8129.44 8129.44 0.0 0 0 7145.67 12598.4 " />
<path d="M5511 15393
L7145 12598
" />
<path d="M5511.07 15393.3 A1358.41 1358.41 0.0 0 0 6712.6 17421.3 " />
<path d="M9960 17421
L6712 17421
" />
<path d="M9960.63 17421.3 A8090.55 8090.55 0.0 0 0 20354.3 17421.3 " />
<path d="M23622 17421
L20354 17421
" />
</g> 
</svg>
