%TF.GenerationSoftware,KiCad,Pcbnew,4.0.6-e0-6349~53~ubuntu16.04.1*%
%TF.CreationDate,2017-05-19T13:32:49+05:30*%
%TF.ProjectId,MAP4,4D4150342E6B696361645F7063620000,1*%
%TF.FileFunction,Legend,Top*%
%FSLAX46Y46*%
G04 Gerber Fmt 4.6, Leading zero omitted, Abs format (unit mm)*
G04 Created by KiCad (PCBNEW 4.0.6-e0-6349~53~ubuntu16.04.1) date Fri May 19 13:32:49 2017*
%MOMM*%
%LPD*%
G01*
G04 APERTURE LIST*
%ADD10C,0.050800*%
%ADD11C,0.010000*%
%ADD12C,0.150000*%
%ADD13C,6.496000*%
%ADD14C,2.000000*%
%ADD15C,1.800000*%
%ADD16C,2.900000*%
%ADD17C,2.200000*%
G04 APERTURE END LIST*
D10*
D11*
G36*
X150489936Y-75733756D02*
X150769047Y-75789509D01*
X151050280Y-75882870D01*
X151276841Y-75979018D01*
X151704972Y-76212464D01*
X152138934Y-76523444D01*
X152563704Y-76899514D01*
X152964258Y-77328230D01*
X153089965Y-77480891D01*
X153165215Y-77582948D01*
X153284197Y-77754166D01*
X153441090Y-77985763D01*
X153630073Y-78268955D01*
X153845328Y-78594957D01*
X154081033Y-78954986D01*
X154331368Y-79340257D01*
X154590513Y-79741987D01*
X154664364Y-79857010D01*
X155980546Y-81909145D01*
X155993297Y-81206541D01*
X156006049Y-80503936D01*
X156131843Y-80534154D01*
X156260308Y-80571091D01*
X156455710Y-80634777D01*
X156698938Y-80718399D01*
X156970879Y-80815138D01*
X157252424Y-80918181D01*
X157524459Y-81020711D01*
X157767873Y-81115913D01*
X157804728Y-81130754D01*
X158289637Y-81327020D01*
X158287590Y-81666510D01*
X158284714Y-81867514D01*
X158278743Y-82119047D01*
X158270738Y-82379366D01*
X158266651Y-82490909D01*
X158261827Y-82752630D01*
X158274401Y-82939480D01*
X158309329Y-83068108D01*
X158371566Y-83155164D01*
X158466068Y-83217297D01*
X158485593Y-83226531D01*
X158610688Y-83261985D01*
X158749523Y-83276000D01*
X158872330Y-83259131D01*
X158970962Y-83201355D01*
X159051538Y-83091917D01*
X159120177Y-82920061D01*
X159183000Y-82675032D01*
X159231363Y-82429164D01*
X159272933Y-82210417D01*
X159311090Y-82028903D01*
X159341986Y-81901625D01*
X159361773Y-81845584D01*
X159363699Y-81844363D01*
X159419003Y-81866839D01*
X159539285Y-81928890D01*
X159710392Y-82022454D01*
X159918171Y-82139469D01*
X160148469Y-82271873D01*
X160387135Y-82411604D01*
X160620014Y-82550598D01*
X160832954Y-82680794D01*
X160843585Y-82687402D01*
X161034658Y-82810720D01*
X161191466Y-82920441D01*
X161300055Y-83006144D01*
X161346468Y-83057408D01*
X161346875Y-83063250D01*
X161329978Y-83123637D01*
X161295396Y-83257326D01*
X161247292Y-83447876D01*
X161189831Y-83678846D01*
X161151362Y-83835017D01*
X161085024Y-84109638D01*
X161040037Y-84310653D01*
X161014301Y-84453797D01*
X161005718Y-84554802D01*
X161012190Y-84629400D01*
X161031619Y-84693325D01*
X161035578Y-84703104D01*
X161138137Y-84849371D01*
X161288082Y-84944875D01*
X161459412Y-84983101D01*
X161626125Y-84957534D01*
X161744739Y-84880818D01*
X161800332Y-84797842D01*
X161875899Y-84648583D01*
X161961541Y-84454155D01*
X162047356Y-84235674D01*
X162047874Y-84234272D01*
X162126251Y-84028502D01*
X162195514Y-83858556D01*
X162248609Y-83740925D01*
X162278483Y-83692100D01*
X162279968Y-83691636D01*
X162332725Y-83720384D01*
X162441820Y-83799493D01*
X162594294Y-83918262D01*
X162777185Y-84065989D01*
X162977533Y-84231972D01*
X163182379Y-84405509D01*
X163378760Y-84575900D01*
X163553718Y-84732441D01*
X163658244Y-84829709D01*
X164039215Y-85192545D01*
X163740549Y-85862182D01*
X163604976Y-86176364D01*
X163511503Y-86421634D01*
X163458065Y-86610196D01*
X163442594Y-86754258D01*
X163463027Y-86866024D01*
X163517295Y-86957701D01*
X163549204Y-86992675D01*
X163690787Y-87087790D01*
X163860530Y-87137650D01*
X164020681Y-87133777D01*
X164080189Y-87111909D01*
X164139067Y-87053878D01*
X164231123Y-86932091D01*
X164344516Y-86763441D01*
X164467409Y-86564822D01*
X164487968Y-86530017D01*
X164605943Y-86335740D01*
X164710702Y-86175867D01*
X164792310Y-86064661D01*
X164840830Y-86016382D01*
X164846281Y-86015684D01*
X164895183Y-86056602D01*
X164991490Y-86156624D01*
X165124357Y-86303172D01*
X165282940Y-86483671D01*
X165456393Y-86685545D01*
X165633872Y-86896215D01*
X165804533Y-87103107D01*
X165957529Y-87293643D01*
X166042442Y-87402859D01*
X166313792Y-87758021D01*
X165893466Y-88391828D01*
X165708821Y-88676311D01*
X165575501Y-88898780D01*
X165489054Y-89070844D01*
X165445030Y-89204110D01*
X165438977Y-89310188D01*
X165466446Y-89400686D01*
X165490596Y-89442558D01*
X165610139Y-89564941D01*
X165768215Y-89651426D01*
X165928824Y-89685198D01*
X165994865Y-89678099D01*
X166078007Y-89628361D01*
X166206159Y-89514381D01*
X166369068Y-89345929D01*
X166510269Y-89186960D01*
X166660802Y-89015618D01*
X166791768Y-88873084D01*
X166890700Y-88772454D01*
X166945130Y-88726827D01*
X166949551Y-88725454D01*
X166987521Y-88763597D01*
X167062000Y-88868931D01*
X167164808Y-89027814D01*
X167287764Y-89226605D01*
X167422690Y-89451661D01*
X167561405Y-89689340D01*
X167695729Y-89926001D01*
X167817483Y-90148002D01*
X167917511Y-90339761D01*
X168108195Y-90719011D01*
X167594009Y-91249789D01*
X167361542Y-91494878D01*
X167191007Y-91688779D01*
X167075721Y-91842134D01*
X167009004Y-91965588D01*
X166984175Y-92069785D01*
X166994553Y-92165369D01*
X167002752Y-92191736D01*
X167100826Y-92361891D01*
X167246668Y-92481532D01*
X167415063Y-92530565D01*
X167428214Y-92530836D01*
X167506125Y-92520160D01*
X167596255Y-92482135D01*
X167712882Y-92407769D01*
X167870282Y-92288069D01*
X168060501Y-92132567D01*
X168238205Y-91988024D01*
X168391041Y-91869981D01*
X168505085Y-91788726D01*
X168566416Y-91754546D01*
X168571973Y-91754616D01*
X168603735Y-91806977D01*
X168659545Y-91931962D01*
X168733970Y-92114666D01*
X168821573Y-92340183D01*
X168916920Y-92593606D01*
X169014577Y-92860028D01*
X169109108Y-93124544D01*
X169195078Y-93372247D01*
X169267053Y-93588230D01*
X169319598Y-93757588D01*
X169347278Y-93865414D01*
X169350182Y-93889038D01*
X169315033Y-93927128D01*
X169218029Y-94009584D01*
X169071835Y-94126201D01*
X168889118Y-94266776D01*
X168772187Y-94354678D01*
X168564775Y-94512366D01*
X168377845Y-94660120D01*
X168226946Y-94785228D01*
X168127628Y-94874977D01*
X168102551Y-94902135D01*
X168020938Y-95067873D01*
X168031402Y-95240344D01*
X168133921Y-95419310D01*
X168154239Y-95443302D01*
X168247246Y-95535288D01*
X168340632Y-95587507D01*
X168448721Y-95597804D01*
X168585840Y-95564026D01*
X168766315Y-95484019D01*
X169004472Y-95355631D01*
X169100204Y-95301107D01*
X169297334Y-95189713D01*
X169463725Y-95099094D01*
X169584215Y-95037250D01*
X169643641Y-95012185D01*
X169647084Y-95012470D01*
X169665395Y-95068325D01*
X169694618Y-95198814D01*
X169732224Y-95388875D01*
X169775682Y-95623445D01*
X169822460Y-95887462D01*
X169870030Y-96165863D01*
X169915860Y-96443587D01*
X169957421Y-96705569D01*
X169992181Y-96936749D01*
X170017610Y-97122064D01*
X170031178Y-97246450D01*
X170030497Y-97294747D01*
X169987836Y-97317312D01*
X169876435Y-97374421D01*
X169710047Y-97459070D01*
X169502425Y-97564260D01*
X169327091Y-97652839D01*
X169048553Y-97796383D01*
X168843115Y-97909998D01*
X168699327Y-98000938D01*
X168605739Y-98076458D01*
X168550902Y-98143810D01*
X168550163Y-98145053D01*
X168491374Y-98325394D01*
X168523501Y-98507594D01*
X168635027Y-98673987D01*
X168713148Y-98746975D01*
X168795360Y-98790065D01*
X168896882Y-98802133D01*
X169032935Y-98782052D01*
X169218737Y-98728696D01*
X169469509Y-98640940D01*
X169566919Y-98605055D01*
X169765923Y-98532490D01*
X169933511Y-98473738D01*
X170050546Y-98435356D01*
X170096408Y-98423636D01*
X170107073Y-98467794D01*
X170115685Y-98592204D01*
X170121949Y-98784772D01*
X170125574Y-99033405D01*
X170126264Y-99326007D01*
X170124521Y-99582318D01*
X170112182Y-100741001D01*
X169381523Y-100961173D01*
X169131955Y-101039047D01*
X168910862Y-101113056D01*
X168734687Y-101177302D01*
X168619876Y-101225886D01*
X168585540Y-101246668D01*
X168560602Y-101287765D01*
X168566118Y-101346335D01*
X168608618Y-101439261D01*
X168694633Y-101583424D01*
X168748888Y-101668905D01*
X168852840Y-101825316D01*
X168940637Y-101946706D01*
X168999337Y-102015672D01*
X169013780Y-102025058D01*
X169071802Y-102016951D01*
X169199856Y-101995660D01*
X169377138Y-101964720D01*
X169523364Y-101938491D01*
X169996728Y-101852685D01*
X169996728Y-101991748D01*
X169989230Y-102090486D01*
X169968804Y-102257074D01*
X169938554Y-102468401D01*
X169901583Y-102701355D01*
X169900881Y-102705569D01*
X169866247Y-102929691D01*
X169841334Y-103123918D01*
X169828331Y-103268443D01*
X169829423Y-103343461D01*
X169830180Y-103345853D01*
X169858320Y-103394153D01*
X169932316Y-103514432D01*
X170048426Y-103700753D01*
X170202907Y-103947177D01*
X170392016Y-104247767D01*
X170612011Y-104596585D01*
X170859150Y-104987693D01*
X171129688Y-105415155D01*
X171419885Y-105873031D01*
X171725997Y-106355385D01*
X171872694Y-106586326D01*
X172279667Y-107227782D01*
X172639606Y-107797524D01*
X172955788Y-108301294D01*
X173231491Y-108744836D01*
X173469993Y-109133894D01*
X173674573Y-109474209D01*
X173848508Y-109771526D01*
X173995076Y-110031587D01*
X174117554Y-110260136D01*
X174219222Y-110462916D01*
X174303356Y-110645670D01*
X174373235Y-110814141D01*
X174432137Y-110974072D01*
X174483339Y-111131207D01*
X174501910Y-111192909D01*
X174584409Y-111549972D01*
X174636618Y-111942557D01*
X174657008Y-112340627D01*
X174644052Y-112714148D01*
X174596223Y-113033085D01*
X174595646Y-113035543D01*
X174435607Y-113525397D01*
X174198095Y-113965402D01*
X173883771Y-114354959D01*
X173493300Y-114693470D01*
X173027345Y-114980336D01*
X172486569Y-115214959D01*
X172020302Y-115359457D01*
X171543819Y-115485182D01*
X160424907Y-115534000D01*
X161138279Y-116131280D01*
X161030398Y-116218637D01*
X160924230Y-116293971D01*
X160754435Y-116402249D01*
X160538913Y-116533009D01*
X160295567Y-116675790D01*
X160042298Y-116820133D01*
X159797009Y-116955575D01*
X159577601Y-117071657D01*
X159524001Y-117098885D01*
X159116237Y-117303676D01*
X158557891Y-116777522D01*
X158362307Y-116597278D01*
X158181100Y-116437750D01*
X158028477Y-116310884D01*
X157918642Y-116228630D01*
X157876836Y-116204714D01*
X157722374Y-116190190D01*
X157555521Y-116241658D01*
X157411461Y-116345942D01*
X157372036Y-116393761D01*
X157311769Y-116501887D01*
X157292538Y-116609442D01*
X157319327Y-116730086D01*
X157397121Y-116877477D01*
X157530904Y-117065277D01*
X157689273Y-117263126D01*
X157833957Y-117440972D01*
X157954604Y-117593308D01*
X158040331Y-117706087D01*
X158080258Y-117765262D01*
X158081819Y-117769828D01*
X158040445Y-117799559D01*
X157925851Y-117852758D01*
X157752322Y-117924324D01*
X157534148Y-118009153D01*
X157285615Y-118102143D01*
X157021012Y-118198191D01*
X156754625Y-118292193D01*
X156500743Y-118379047D01*
X156273654Y-118453650D01*
X156087644Y-118510899D01*
X155957001Y-118545692D01*
X155896014Y-118552925D01*
X155893749Y-118551304D01*
X155814417Y-118435896D01*
X155700137Y-118279024D01*
X155562428Y-118095493D01*
X155412809Y-117900104D01*
X155262800Y-117707660D01*
X155123919Y-117532964D01*
X155007686Y-117390819D01*
X154925621Y-117296027D01*
X154892065Y-117264101D01*
X154786256Y-117231899D01*
X154662782Y-117219636D01*
X154530668Y-117255270D01*
X154392933Y-117345631D01*
X154276835Y-117465905D01*
X154209635Y-117591277D01*
X154202546Y-117638580D01*
X154225028Y-117717024D01*
X154286417Y-117855569D01*
X154377632Y-118035400D01*
X154489590Y-118237701D01*
X154502728Y-118260426D01*
X154615374Y-118457695D01*
X154708744Y-118627461D01*
X154774021Y-118753224D01*
X154802384Y-118818487D01*
X154802910Y-118822041D01*
X154758717Y-118850009D01*
X154632554Y-118888039D01*
X154434046Y-118934295D01*
X154172817Y-118986941D01*
X153858492Y-119044141D01*
X153500695Y-119104060D01*
X153109050Y-119164861D01*
X152693183Y-119224708D01*
X152689014Y-119225284D01*
X152537845Y-119246179D01*
X152194852Y-118561336D01*
X152033173Y-118249348D01*
X151897979Y-118015011D01*
X151782642Y-117849750D01*
X151680535Y-117744990D01*
X151585031Y-117692159D01*
X151514736Y-117681454D01*
X151363157Y-117715026D01*
X151213276Y-117801362D01*
X151091169Y-117918893D01*
X151022909Y-118046049D01*
X151016514Y-118093595D01*
X151032351Y-118183795D01*
X151074897Y-118337352D01*
X151137367Y-118531546D01*
X151201241Y-118712075D01*
X151274567Y-118916412D01*
X151334048Y-119092644D01*
X151373133Y-119220646D01*
X151385455Y-119277802D01*
X151373070Y-119298664D01*
X151329287Y-119314766D01*
X151244163Y-119326684D01*
X151107755Y-119334991D01*
X150910122Y-119340261D01*
X150641319Y-119343069D01*
X150291404Y-119343989D01*
X150239098Y-119344000D01*
X149092740Y-119344000D01*
X148893161Y-118662818D01*
X148818116Y-118414402D01*
X148745469Y-118187697D01*
X148681774Y-118002204D01*
X148633584Y-117877423D01*
X148618800Y-117846449D01*
X148595657Y-117798120D01*
X148580095Y-117741795D01*
X148572552Y-117665173D01*
X148573463Y-117555957D01*
X148583264Y-117401849D01*
X148602390Y-117190549D01*
X148631277Y-116909761D01*
X148662163Y-116622631D01*
X148780308Y-115534000D01*
X148577009Y-115519721D01*
X148451050Y-115514011D01*
X148371417Y-115516324D01*
X148359474Y-115519721D01*
X148350556Y-115567724D01*
X148333421Y-115694352D01*
X148309679Y-115886391D01*
X148280941Y-116130626D01*
X148248817Y-116413844D01*
X148232078Y-116565119D01*
X148118918Y-117596239D01*
X147951095Y-117734573D01*
X147874679Y-117802139D01*
X147823182Y-117868337D01*
X147795304Y-117949256D01*
X147789747Y-118060990D01*
X147805213Y-118219629D01*
X147840404Y-118441265D01*
X147877289Y-118649240D01*
X147912514Y-118857615D01*
X147937461Y-119030798D01*
X147949683Y-119149793D01*
X147947563Y-119195103D01*
X147890843Y-119200595D01*
X147759119Y-119190749D01*
X147567998Y-119168133D01*
X147333089Y-119135316D01*
X147069998Y-119094863D01*
X146794333Y-119049344D01*
X146521703Y-119001325D01*
X146267713Y-118953374D01*
X146047973Y-118908058D01*
X145878089Y-118867945D01*
X145781811Y-118838831D01*
X145742454Y-118817711D01*
X145711775Y-118779108D01*
X145686412Y-118709040D01*
X145663006Y-118593526D01*
X145638194Y-118418584D01*
X145608616Y-118170234D01*
X145597497Y-118072094D01*
X145556088Y-117737631D01*
X145514768Y-117483469D01*
X145469998Y-117297616D01*
X145418243Y-117168079D01*
X145355965Y-117082868D01*
X145292013Y-117036278D01*
X145115419Y-116988941D01*
X144923300Y-117009770D01*
X144756723Y-117093937D01*
X144749394Y-117100071D01*
X144698256Y-117146540D01*
X144662352Y-117194260D01*
X144638522Y-117259882D01*
X144623606Y-117360057D01*
X144614444Y-117511436D01*
X144607876Y-117730668D01*
X144604783Y-117862071D01*
X144597187Y-118095222D01*
X144586590Y-118291378D01*
X144574208Y-118434070D01*
X144561260Y-118506826D01*
X144556678Y-118512727D01*
X144480882Y-118496676D01*
X144334622Y-118452255D01*
X144133025Y-118385061D01*
X143891218Y-118300691D01*
X143624330Y-118204741D01*
X143347486Y-118102809D01*
X143075813Y-118000491D01*
X142824440Y-117903384D01*
X142608493Y-117817086D01*
X142443100Y-117747192D01*
X142343386Y-117699300D01*
X142324408Y-117686810D01*
X142316445Y-117633259D01*
X142315315Y-117503719D01*
X142320636Y-117314286D01*
X142332030Y-117081051D01*
X142342719Y-116910542D01*
X142362215Y-116580762D01*
X142368363Y-116329598D01*
X142358810Y-116143960D01*
X142331207Y-116010758D01*
X142283202Y-115916903D01*
X142212444Y-115849303D01*
X142144880Y-115808913D01*
X141960732Y-115747685D01*
X141783555Y-115769156D01*
X141688826Y-115810287D01*
X141619049Y-115856135D01*
X141563636Y-115921998D01*
X141517238Y-116022510D01*
X141474508Y-116172309D01*
X141430095Y-116386030D01*
X141384735Y-116642363D01*
X141348209Y-116840740D01*
X141312648Y-117005098D01*
X141283007Y-117113911D01*
X141269098Y-117144840D01*
X141214043Y-117139927D01*
X141089889Y-117089753D01*
X140905277Y-116998932D01*
X140668845Y-116872081D01*
X140389234Y-116713815D01*
X140075084Y-116528749D01*
X139780216Y-116349421D01*
X139575002Y-116223710D01*
X139435705Y-116133135D01*
X139352076Y-116060588D01*
X139313863Y-115988960D01*
X139310817Y-115901142D01*
X139332689Y-115780025D01*
X139360864Y-115649454D01*
X139389728Y-115510909D01*
X134102186Y-115510909D01*
X133264092Y-115510887D01*
X132512862Y-115510687D01*
X131842998Y-115510108D01*
X131248998Y-115508946D01*
X130725365Y-115507002D01*
X130266599Y-115504072D01*
X129867201Y-115499956D01*
X129521671Y-115494451D01*
X129224509Y-115487356D01*
X128970218Y-115478469D01*
X128753296Y-115467588D01*
X128568245Y-115454511D01*
X128409566Y-115439037D01*
X128271759Y-115420964D01*
X128149324Y-115400090D01*
X128036764Y-115376213D01*
X127928577Y-115349132D01*
X127819265Y-115318645D01*
X127703328Y-115284551D01*
X127671091Y-115274972D01*
X127152431Y-115079876D01*
X126684377Y-114820856D01*
X126273896Y-114504576D01*
X125927956Y-114137702D01*
X125653525Y-113726901D01*
X125457570Y-113278839D01*
X125407516Y-113109454D01*
X125372874Y-112948384D01*
X125352301Y-112774657D01*
X125344339Y-112564514D01*
X125347531Y-112294200D01*
X125350848Y-112185818D01*
X125377046Y-111778580D01*
X125382756Y-111739873D01*
X127724931Y-111739873D01*
X127727054Y-112043198D01*
X127741598Y-112122846D01*
X127857758Y-112449447D01*
X128047191Y-112720613D01*
X128308447Y-112935195D01*
X128640077Y-113092048D01*
X129040631Y-113190025D01*
X129102728Y-113199059D01*
X129174125Y-113202461D01*
X129334261Y-113205726D01*
X129579534Y-113208854D01*
X129906340Y-113211845D01*
X130311076Y-113214700D01*
X130790138Y-113217418D01*
X131339924Y-113220000D01*
X131956830Y-113222446D01*
X132637252Y-113224755D01*
X133377589Y-113226928D01*
X134174236Y-113228964D01*
X135023589Y-113230865D01*
X135922047Y-113232629D01*
X136866006Y-113234257D01*
X137851862Y-113235749D01*
X138876012Y-113237106D01*
X139934854Y-113238326D01*
X141024783Y-113239410D01*
X142142196Y-113240359D01*
X143283491Y-113241172D01*
X144445065Y-113241849D01*
X145623313Y-113242390D01*
X146814632Y-113242796D01*
X148015420Y-113243067D01*
X149222073Y-113243202D01*
X150430989Y-113243201D01*
X151638562Y-113243065D01*
X152841192Y-113242794D01*
X154035273Y-113242387D01*
X155217204Y-113241846D01*
X156383380Y-113241169D01*
X157530199Y-113240357D01*
X158654057Y-113239410D01*
X159751352Y-113238328D01*
X160818479Y-113237111D01*
X161851836Y-113235759D01*
X162847819Y-113234272D01*
X163802825Y-113232651D01*
X164713252Y-113230895D01*
X165575494Y-113229004D01*
X166385951Y-113226978D01*
X167141018Y-113224818D01*
X167837091Y-113222524D01*
X168470569Y-113220095D01*
X169037847Y-113217532D01*
X169535322Y-113214834D01*
X169959391Y-113212002D01*
X170306451Y-113209036D01*
X170572899Y-113205935D01*
X170755131Y-113202701D01*
X170849545Y-113199332D01*
X170859295Y-113198430D01*
X171079969Y-113156634D01*
X171307687Y-113095238D01*
X171488423Y-113029441D01*
X171722754Y-112891961D01*
X171935389Y-112706998D01*
X172103680Y-112497960D01*
X172204736Y-112289072D01*
X172255005Y-111971188D01*
X172230594Y-111621824D01*
X172134898Y-111258856D01*
X171971309Y-110900155D01*
X171926463Y-110823454D01*
X171891877Y-110768759D01*
X171809084Y-110638962D01*
X171679767Y-110436693D01*
X171505612Y-110164579D01*
X171288306Y-109825247D01*
X171029531Y-109421325D01*
X170730975Y-108955441D01*
X170394322Y-108430223D01*
X170021258Y-107848298D01*
X169613467Y-107212294D01*
X169172635Y-106524839D01*
X168700447Y-105788560D01*
X168198589Y-105006085D01*
X167668745Y-104180043D01*
X167112600Y-103313059D01*
X166531841Y-102407763D01*
X165928152Y-101466782D01*
X165303219Y-100492744D01*
X164658726Y-99488275D01*
X163996359Y-98456005D01*
X163317803Y-97398561D01*
X162624743Y-96318570D01*
X161918865Y-95218661D01*
X161620283Y-94753422D01*
X160725893Y-93359990D01*
X159880110Y-92042617D01*
X159081796Y-90799544D01*
X158329809Y-89629007D01*
X157623009Y-88529247D01*
X156960256Y-87498501D01*
X156340409Y-86535008D01*
X155762329Y-85637007D01*
X155224874Y-84802737D01*
X154726904Y-84030437D01*
X154267280Y-83318345D01*
X153844860Y-82664699D01*
X153458505Y-82067739D01*
X153107073Y-81525703D01*
X152789425Y-81036830D01*
X152504421Y-80599358D01*
X152250919Y-80211527D01*
X152027780Y-79871575D01*
X151833864Y-79577741D01*
X151668029Y-79328262D01*
X151529136Y-79121379D01*
X151416044Y-78955330D01*
X151327613Y-78828353D01*
X151262703Y-78738687D01*
X151220173Y-78684571D01*
X151208073Y-78671388D01*
X151031345Y-78520216D01*
X150821691Y-78373003D01*
X150657180Y-78278785D01*
X150307813Y-78154880D01*
X149952535Y-78120848D01*
X149598514Y-78175129D01*
X149252921Y-78316162D01*
X148922926Y-78542389D01*
X148761878Y-78691143D01*
X148728260Y-78730937D01*
X148674052Y-78803500D01*
X148598080Y-78910649D01*
X148499166Y-79054197D01*
X148376136Y-79235962D01*
X148227814Y-79457760D01*
X148053023Y-79721405D01*
X147850587Y-80028713D01*
X147619332Y-80381500D01*
X147358080Y-80781583D01*
X147065657Y-81230776D01*
X146740886Y-81730895D01*
X146382591Y-82283756D01*
X145989597Y-82891174D01*
X145560727Y-83554967D01*
X145094806Y-84276948D01*
X144590658Y-85058933D01*
X144047107Y-85902740D01*
X143462977Y-86810182D01*
X142837092Y-87783076D01*
X142168277Y-88823238D01*
X141455356Y-89932483D01*
X140697152Y-91112627D01*
X139892490Y-92365485D01*
X139040194Y-93692874D01*
X138315704Y-94821454D01*
X137603759Y-95930772D01*
X136903789Y-97021792D01*
X136217488Y-98091867D01*
X135546547Y-99138345D01*
X134892660Y-100158578D01*
X134257519Y-101149916D01*
X133642818Y-102109709D01*
X133050250Y-103035307D01*
X132481506Y-103924061D01*
X131938281Y-104773321D01*
X131422267Y-105580437D01*
X130935157Y-106342760D01*
X130478643Y-107057640D01*
X130054419Y-107722428D01*
X129664178Y-108334474D01*
X129309612Y-108891127D01*
X128992414Y-109389739D01*
X128714278Y-109827660D01*
X128476895Y-110202239D01*
X128281960Y-110510829D01*
X128131164Y-110750778D01*
X128026201Y-110919437D01*
X127968763Y-111014156D01*
X127959209Y-111031272D01*
X127801933Y-111404488D01*
X127724931Y-111739873D01*
X125382756Y-111739873D01*
X125430778Y-111414348D01*
X125519278Y-111066179D01*
X125649779Y-110707125D01*
X125829516Y-110310241D01*
X125883968Y-110200000D01*
X125948286Y-110082159D01*
X126058373Y-109893115D01*
X126210169Y-109639430D01*
X126399612Y-109327671D01*
X126622643Y-108964401D01*
X126875201Y-108556184D01*
X127153224Y-108109587D01*
X127452653Y-107631172D01*
X127769427Y-107127506D01*
X128099484Y-106605152D01*
X128420588Y-106099244D01*
X130691301Y-102529580D01*
X130637943Y-102130783D01*
X130614995Y-101920295D01*
X130610986Y-101779004D01*
X130626140Y-101716954D01*
X130628747Y-101715483D01*
X130686206Y-101688041D01*
X130805525Y-101627367D01*
X130966997Y-101543565D01*
X131085369Y-101481399D01*
X131266849Y-101383839D01*
X131395870Y-101304219D01*
X131494037Y-101222020D01*
X131582955Y-101116721D01*
X131684231Y-100967803D01*
X131772935Y-100828376D01*
X132048041Y-100392935D01*
X131944177Y-100308831D01*
X131864700Y-100257736D01*
X131774115Y-100233923D01*
X131656755Y-100239341D01*
X131496953Y-100275937D01*
X131279042Y-100345657D01*
X131081082Y-100416108D01*
X130875665Y-100487312D01*
X130702067Y-100540765D01*
X130578255Y-100571400D01*
X130522199Y-100574152D01*
X130521776Y-100573776D01*
X130511858Y-100519396D01*
X130503689Y-100388351D01*
X130497284Y-100196305D01*
X130492659Y-99958922D01*
X130489832Y-99691867D01*
X130488818Y-99410805D01*
X130489634Y-99131400D01*
X130492296Y-98869317D01*
X130496820Y-98640220D01*
X130503223Y-98459775D01*
X130511520Y-98343645D01*
X130519418Y-98307685D01*
X130572524Y-98284358D01*
X130698196Y-98240728D01*
X130880248Y-98182083D01*
X131102499Y-98113708D01*
X131225851Y-98076872D01*
X131469672Y-98002507D01*
X131688438Y-97931557D01*
X131863671Y-97870331D01*
X131976892Y-97825136D01*
X132002798Y-97811637D01*
X132051566Y-97788084D01*
X132119016Y-97774752D01*
X132219768Y-97771940D01*
X132368441Y-97779947D01*
X132579656Y-97799069D01*
X132864331Y-97829199D01*
X133117483Y-97856296D01*
X133335807Y-97878495D01*
X133504003Y-97894334D01*
X133606768Y-97902354D01*
X133631663Y-97902457D01*
X133695229Y-97808798D01*
X133762203Y-97695516D01*
X133818284Y-97589185D01*
X133849170Y-97516376D01*
X133848489Y-97499574D01*
X133793199Y-97494563D01*
X133661632Y-97480928D01*
X133469302Y-97460326D01*
X133231721Y-97434416D01*
X133005843Y-97409465D01*
X132665707Y-97368469D01*
X132414304Y-97330946D01*
X132252750Y-97297094D01*
X132182163Y-97267112D01*
X132179293Y-97262424D01*
X132102752Y-97145135D01*
X131977243Y-97045896D01*
X131842423Y-96994108D01*
X131814540Y-96992000D01*
X131716133Y-97000070D01*
X131551489Y-97021938D01*
X131345098Y-97054085D01*
X131159851Y-97086016D01*
X130952083Y-97121648D01*
X130780175Y-97147769D01*
X130662885Y-97161754D01*
X130619300Y-97161603D01*
X130616681Y-97107981D01*
X130628799Y-96978755D01*
X130653328Y-96789098D01*
X130687941Y-96554177D01*
X130730313Y-96289166D01*
X130778116Y-96009233D01*
X130829025Y-95729549D01*
X130875473Y-95491091D01*
X130996819Y-94890727D01*
X131735410Y-94806877D01*
X132067773Y-94765564D01*
X132320711Y-94724151D01*
X132507060Y-94678249D01*
X132639660Y-94623468D01*
X132731346Y-94555416D01*
X132794959Y-94469705D01*
X132810865Y-94439113D01*
X132846205Y-94319498D01*
X132832871Y-94178999D01*
X132820713Y-94130024D01*
X132778412Y-94012491D01*
X132715167Y-93926719D01*
X132617410Y-93867930D01*
X132471569Y-93831344D01*
X132264074Y-93812182D01*
X131981356Y-93805667D01*
X131899021Y-93805454D01*
X131675225Y-93804486D01*
X131489070Y-93801836D01*
X131357669Y-93797887D01*
X131298140Y-93793021D01*
X131296364Y-93791986D01*
X131311530Y-93732239D01*
X131353244Y-93601922D01*
X131415828Y-93417023D01*
X131493603Y-93193532D01*
X131580894Y-92947437D01*
X131672021Y-92694728D01*
X131761308Y-92451393D01*
X131843076Y-92233422D01*
X131911649Y-92056803D01*
X131919287Y-92037741D01*
X132138254Y-91493846D01*
X132560127Y-91526228D01*
X132818392Y-91542337D01*
X133111135Y-91555001D01*
X133380477Y-91561783D01*
X133412871Y-91562123D01*
X133615973Y-91562391D01*
X133748972Y-91555747D01*
X133834113Y-91537021D01*
X133893642Y-91501047D01*
X133949803Y-91442656D01*
X133955508Y-91436061D01*
X134047963Y-91266146D01*
X134066733Y-91076220D01*
X134011424Y-90896761D01*
X133963364Y-90828792D01*
X133901607Y-90772293D01*
X133816791Y-90727526D01*
X133689880Y-90687970D01*
X133501835Y-90647105D01*
X133351455Y-90619193D01*
X133074284Y-90571284D01*
X132877877Y-90535262D01*
X132753462Y-90500348D01*
X132692264Y-90455762D01*
X132685509Y-90390722D01*
X132724424Y-90294450D01*
X132800233Y-90156164D01*
X132870640Y-90028434D01*
X132995790Y-89801735D01*
X133135570Y-89558575D01*
X133281556Y-89312515D01*
X133425322Y-89077112D01*
X133558444Y-88865925D01*
X133672496Y-88692512D01*
X133759053Y-88570431D01*
X133809690Y-88513241D01*
X133813456Y-88511175D01*
X133873699Y-88514795D01*
X134006633Y-88537445D01*
X134195332Y-88575792D01*
X134422871Y-88626504D01*
X134543850Y-88654961D01*
X134793679Y-88712546D01*
X135022132Y-88761189D01*
X135209288Y-88796940D01*
X135335224Y-88815848D01*
X135365281Y-88817818D01*
X135523177Y-88775868D01*
X135659916Y-88666857D01*
X135751451Y-88516040D01*
X135776000Y-88386420D01*
X135772488Y-88267895D01*
X135753991Y-88175791D01*
X135708574Y-88100602D01*
X135624298Y-88032821D01*
X135489226Y-87962944D01*
X135291422Y-87881463D01*
X135018947Y-87778874D01*
X135007927Y-87774790D01*
X134815350Y-87701431D01*
X134654766Y-87636512D01*
X134546328Y-87588401D01*
X134511760Y-87568779D01*
X134524995Y-87521653D01*
X134590499Y-87417717D01*
X134698535Y-87268619D01*
X134839366Y-87086004D01*
X135003254Y-86881518D01*
X135180462Y-86666809D01*
X135361252Y-86453521D01*
X135535887Y-86253302D01*
X135694629Y-86077797D01*
X135827741Y-85938654D01*
X135925486Y-85847517D01*
X135977258Y-85816000D01*
X136036313Y-85833615D01*
X136164371Y-85882309D01*
X136345940Y-85955855D01*
X136565528Y-86048027D01*
X136723737Y-86116030D01*
X136963441Y-86217600D01*
X137179033Y-86304480D01*
X137353948Y-86370338D01*
X137471626Y-86408845D01*
X137509088Y-86416211D01*
X137652219Y-86374687D01*
X137786057Y-86265984D01*
X137889998Y-86114592D01*
X137943437Y-85944999D01*
X137946546Y-85896274D01*
X137933258Y-85814111D01*
X137886291Y-85733221D01*
X137794987Y-85644266D01*
X137648688Y-85537908D01*
X137436737Y-85404810D01*
X137279008Y-85311378D01*
X137092318Y-85198819D01*
X136940500Y-85100697D01*
X136838361Y-85027069D01*
X136800705Y-84987989D01*
X136800909Y-84986689D01*
X136842558Y-84938482D01*
X136943046Y-84842820D01*
X137089666Y-84710664D01*
X137269711Y-84552973D01*
X137470473Y-84380707D01*
X137679246Y-84204825D01*
X137883322Y-84036288D01*
X138069995Y-83886056D01*
X138146521Y-83826113D01*
X138554315Y-83510232D01*
X139182792Y-83930863D01*
X139473451Y-84120838D01*
X139702517Y-84257295D01*
X139881498Y-84343174D01*
X140021902Y-84381413D01*
X140135237Y-84374953D01*
X140233012Y-84326730D01*
X140326734Y-84239685D01*
X140338849Y-84226095D01*
X140456356Y-84043771D01*
X140483350Y-83868916D01*
X140444158Y-83744907D01*
X140393519Y-83685828D01*
X140286604Y-83582914D01*
X140138909Y-83450473D01*
X139965926Y-83302809D01*
X139959760Y-83297671D01*
X139791159Y-83153764D01*
X139652228Y-83028472D01*
X139556657Y-82934630D01*
X139518134Y-82885071D01*
X139517926Y-82883454D01*
X139556523Y-82842456D01*
X139663129Y-82765877D01*
X139824206Y-82661506D01*
X140026218Y-82537133D01*
X140255627Y-82400549D01*
X140498893Y-82259543D01*
X140742481Y-82121905D01*
X140972851Y-81995425D01*
X141176467Y-81887892D01*
X141339790Y-81807097D01*
X141449283Y-81760830D01*
X141482704Y-81752886D01*
X141531233Y-81782800D01*
X141634270Y-81866173D01*
X141779671Y-81992523D01*
X141955292Y-82151366D01*
X142096529Y-82282692D01*
X142292512Y-82462231D01*
X142473696Y-82619484D01*
X142626146Y-82743015D01*
X142735925Y-82821383D01*
X142779335Y-82843103D01*
X142937260Y-82841228D01*
X143092907Y-82772371D01*
X143225289Y-82656187D01*
X143313420Y-82512328D01*
X143336314Y-82360450D01*
X143330311Y-82327106D01*
X143291589Y-82252290D01*
X143204901Y-82124231D01*
X143082406Y-81959799D01*
X142936266Y-81775863D01*
X142909444Y-81743262D01*
X142515602Y-81267091D01*
X142783804Y-81144602D01*
X142927275Y-81084094D01*
X143123527Y-81008308D01*
X143357245Y-80922435D01*
X143613112Y-80831666D01*
X143875811Y-80741193D01*
X144130026Y-80656205D01*
X144360440Y-80581895D01*
X144551737Y-80523453D01*
X144688600Y-80486071D01*
X144755713Y-80474939D01*
X144758061Y-80475493D01*
X144794138Y-80442682D01*
X144873219Y-80340572D01*
X144989167Y-80178071D01*
X145135848Y-79964086D01*
X145307126Y-79707525D01*
X145496866Y-79417298D01*
X145638028Y-79197866D01*
X145852130Y-78865403D01*
X146065221Y-78539142D01*
X146268479Y-78232257D01*
X146453080Y-77957921D01*
X146610200Y-77729305D01*
X146731018Y-77559583D01*
X146772193Y-77504630D01*
X147202285Y-77005276D01*
X147666924Y-76576176D01*
X148157693Y-76223954D01*
X148666176Y-75955237D01*
X148820768Y-75891952D01*
X149010623Y-75822578D01*
X149168895Y-75775482D01*
X149324821Y-75745394D01*
X149507642Y-75727043D01*
X149746596Y-75715160D01*
X149815273Y-75712694D01*
X150182246Y-75710016D01*
X150489936Y-75733756D01*
X150489936Y-75733756D01*
G37*
X150489936Y-75733756D02*
X150769047Y-75789509D01*
X151050280Y-75882870D01*
X151276841Y-75979018D01*
X151704972Y-76212464D01*
X152138934Y-76523444D01*
X152563704Y-76899514D01*
X152964258Y-77328230D01*
X153089965Y-77480891D01*
X153165215Y-77582948D01*
X153284197Y-77754166D01*
X153441090Y-77985763D01*
X153630073Y-78268955D01*
X153845328Y-78594957D01*
X154081033Y-78954986D01*
X154331368Y-79340257D01*
X154590513Y-79741987D01*
X154664364Y-79857010D01*
X155980546Y-81909145D01*
X155993297Y-81206541D01*
X156006049Y-80503936D01*
X156131843Y-80534154D01*
X156260308Y-80571091D01*
X156455710Y-80634777D01*
X156698938Y-80718399D01*
X156970879Y-80815138D01*
X157252424Y-80918181D01*
X157524459Y-81020711D01*
X157767873Y-81115913D01*
X157804728Y-81130754D01*
X158289637Y-81327020D01*
X158287590Y-81666510D01*
X158284714Y-81867514D01*
X158278743Y-82119047D01*
X158270738Y-82379366D01*
X158266651Y-82490909D01*
X158261827Y-82752630D01*
X158274401Y-82939480D01*
X158309329Y-83068108D01*
X158371566Y-83155164D01*
X158466068Y-83217297D01*
X158485593Y-83226531D01*
X158610688Y-83261985D01*
X158749523Y-83276000D01*
X158872330Y-83259131D01*
X158970962Y-83201355D01*
X159051538Y-83091917D01*
X159120177Y-82920061D01*
X159183000Y-82675032D01*
X159231363Y-82429164D01*
X159272933Y-82210417D01*
X159311090Y-82028903D01*
X159341986Y-81901625D01*
X159361773Y-81845584D01*
X159363699Y-81844363D01*
X159419003Y-81866839D01*
X159539285Y-81928890D01*
X159710392Y-82022454D01*
X159918171Y-82139469D01*
X160148469Y-82271873D01*
X160387135Y-82411604D01*
X160620014Y-82550598D01*
X160832954Y-82680794D01*
X160843585Y-82687402D01*
X161034658Y-82810720D01*
X161191466Y-82920441D01*
X161300055Y-83006144D01*
X161346468Y-83057408D01*
X161346875Y-83063250D01*
X161329978Y-83123637D01*
X161295396Y-83257326D01*
X161247292Y-83447876D01*
X161189831Y-83678846D01*
X161151362Y-83835017D01*
X161085024Y-84109638D01*
X161040037Y-84310653D01*
X161014301Y-84453797D01*
X161005718Y-84554802D01*
X161012190Y-84629400D01*
X161031619Y-84693325D01*
X161035578Y-84703104D01*
X161138137Y-84849371D01*
X161288082Y-84944875D01*
X161459412Y-84983101D01*
X161626125Y-84957534D01*
X161744739Y-84880818D01*
X161800332Y-84797842D01*
X161875899Y-84648583D01*
X161961541Y-84454155D01*
X162047356Y-84235674D01*
X162047874Y-84234272D01*
X162126251Y-84028502D01*
X162195514Y-83858556D01*
X162248609Y-83740925D01*
X162278483Y-83692100D01*
X162279968Y-83691636D01*
X162332725Y-83720384D01*
X162441820Y-83799493D01*
X162594294Y-83918262D01*
X162777185Y-84065989D01*
X162977533Y-84231972D01*
X163182379Y-84405509D01*
X163378760Y-84575900D01*
X163553718Y-84732441D01*
X163658244Y-84829709D01*
X164039215Y-85192545D01*
X163740549Y-85862182D01*
X163604976Y-86176364D01*
X163511503Y-86421634D01*
X163458065Y-86610196D01*
X163442594Y-86754258D01*
X163463027Y-86866024D01*
X163517295Y-86957701D01*
X163549204Y-86992675D01*
X163690787Y-87087790D01*
X163860530Y-87137650D01*
X164020681Y-87133777D01*
X164080189Y-87111909D01*
X164139067Y-87053878D01*
X164231123Y-86932091D01*
X164344516Y-86763441D01*
X164467409Y-86564822D01*
X164487968Y-86530017D01*
X164605943Y-86335740D01*
X164710702Y-86175867D01*
X164792310Y-86064661D01*
X164840830Y-86016382D01*
X164846281Y-86015684D01*
X164895183Y-86056602D01*
X164991490Y-86156624D01*
X165124357Y-86303172D01*
X165282940Y-86483671D01*
X165456393Y-86685545D01*
X165633872Y-86896215D01*
X165804533Y-87103107D01*
X165957529Y-87293643D01*
X166042442Y-87402859D01*
X166313792Y-87758021D01*
X165893466Y-88391828D01*
X165708821Y-88676311D01*
X165575501Y-88898780D01*
X165489054Y-89070844D01*
X165445030Y-89204110D01*
X165438977Y-89310188D01*
X165466446Y-89400686D01*
X165490596Y-89442558D01*
X165610139Y-89564941D01*
X165768215Y-89651426D01*
X165928824Y-89685198D01*
X165994865Y-89678099D01*
X166078007Y-89628361D01*
X166206159Y-89514381D01*
X166369068Y-89345929D01*
X166510269Y-89186960D01*
X166660802Y-89015618D01*
X166791768Y-88873084D01*
X166890700Y-88772454D01*
X166945130Y-88726827D01*
X166949551Y-88725454D01*
X166987521Y-88763597D01*
X167062000Y-88868931D01*
X167164808Y-89027814D01*
X167287764Y-89226605D01*
X167422690Y-89451661D01*
X167561405Y-89689340D01*
X167695729Y-89926001D01*
X167817483Y-90148002D01*
X167917511Y-90339761D01*
X168108195Y-90719011D01*
X167594009Y-91249789D01*
X167361542Y-91494878D01*
X167191007Y-91688779D01*
X167075721Y-91842134D01*
X167009004Y-91965588D01*
X166984175Y-92069785D01*
X166994553Y-92165369D01*
X167002752Y-92191736D01*
X167100826Y-92361891D01*
X167246668Y-92481532D01*
X167415063Y-92530565D01*
X167428214Y-92530836D01*
X167506125Y-92520160D01*
X167596255Y-92482135D01*
X167712882Y-92407769D01*
X167870282Y-92288069D01*
X168060501Y-92132567D01*
X168238205Y-91988024D01*
X168391041Y-91869981D01*
X168505085Y-91788726D01*
X168566416Y-91754546D01*
X168571973Y-91754616D01*
X168603735Y-91806977D01*
X168659545Y-91931962D01*
X168733970Y-92114666D01*
X168821573Y-92340183D01*
X168916920Y-92593606D01*
X169014577Y-92860028D01*
X169109108Y-93124544D01*
X169195078Y-93372247D01*
X169267053Y-93588230D01*
X169319598Y-93757588D01*
X169347278Y-93865414D01*
X169350182Y-93889038D01*
X169315033Y-93927128D01*
X169218029Y-94009584D01*
X169071835Y-94126201D01*
X168889118Y-94266776D01*
X168772187Y-94354678D01*
X168564775Y-94512366D01*
X168377845Y-94660120D01*
X168226946Y-94785228D01*
X168127628Y-94874977D01*
X168102551Y-94902135D01*
X168020938Y-95067873D01*
X168031402Y-95240344D01*
X168133921Y-95419310D01*
X168154239Y-95443302D01*
X168247246Y-95535288D01*
X168340632Y-95587507D01*
X168448721Y-95597804D01*
X168585840Y-95564026D01*
X168766315Y-95484019D01*
X169004472Y-95355631D01*
X169100204Y-95301107D01*
X169297334Y-95189713D01*
X169463725Y-95099094D01*
X169584215Y-95037250D01*
X169643641Y-95012185D01*
X169647084Y-95012470D01*
X169665395Y-95068325D01*
X169694618Y-95198814D01*
X169732224Y-95388875D01*
X169775682Y-95623445D01*
X169822460Y-95887462D01*
X169870030Y-96165863D01*
X169915860Y-96443587D01*
X169957421Y-96705569D01*
X169992181Y-96936749D01*
X170017610Y-97122064D01*
X170031178Y-97246450D01*
X170030497Y-97294747D01*
X169987836Y-97317312D01*
X169876435Y-97374421D01*
X169710047Y-97459070D01*
X169502425Y-97564260D01*
X169327091Y-97652839D01*
X169048553Y-97796383D01*
X168843115Y-97909998D01*
X168699327Y-98000938D01*
X168605739Y-98076458D01*
X168550902Y-98143810D01*
X168550163Y-98145053D01*
X168491374Y-98325394D01*
X168523501Y-98507594D01*
X168635027Y-98673987D01*
X168713148Y-98746975D01*
X168795360Y-98790065D01*
X168896882Y-98802133D01*
X169032935Y-98782052D01*
X169218737Y-98728696D01*
X169469509Y-98640940D01*
X169566919Y-98605055D01*
X169765923Y-98532490D01*
X169933511Y-98473738D01*
X170050546Y-98435356D01*
X170096408Y-98423636D01*
X170107073Y-98467794D01*
X170115685Y-98592204D01*
X170121949Y-98784772D01*
X170125574Y-99033405D01*
X170126264Y-99326007D01*
X170124521Y-99582318D01*
X170112182Y-100741001D01*
X169381523Y-100961173D01*
X169131955Y-101039047D01*
X168910862Y-101113056D01*
X168734687Y-101177302D01*
X168619876Y-101225886D01*
X168585540Y-101246668D01*
X168560602Y-101287765D01*
X168566118Y-101346335D01*
X168608618Y-101439261D01*
X168694633Y-101583424D01*
X168748888Y-101668905D01*
X168852840Y-101825316D01*
X168940637Y-101946706D01*
X168999337Y-102015672D01*
X169013780Y-102025058D01*
X169071802Y-102016951D01*
X169199856Y-101995660D01*
X169377138Y-101964720D01*
X169523364Y-101938491D01*
X169996728Y-101852685D01*
X169996728Y-101991748D01*
X169989230Y-102090486D01*
X169968804Y-102257074D01*
X169938554Y-102468401D01*
X169901583Y-102701355D01*
X169900881Y-102705569D01*
X169866247Y-102929691D01*
X169841334Y-103123918D01*
X169828331Y-103268443D01*
X169829423Y-103343461D01*
X169830180Y-103345853D01*
X169858320Y-103394153D01*
X169932316Y-103514432D01*
X170048426Y-103700753D01*
X170202907Y-103947177D01*
X170392016Y-104247767D01*
X170612011Y-104596585D01*
X170859150Y-104987693D01*
X171129688Y-105415155D01*
X171419885Y-105873031D01*
X171725997Y-106355385D01*
X171872694Y-106586326D01*
X172279667Y-107227782D01*
X172639606Y-107797524D01*
X172955788Y-108301294D01*
X173231491Y-108744836D01*
X173469993Y-109133894D01*
X173674573Y-109474209D01*
X173848508Y-109771526D01*
X173995076Y-110031587D01*
X174117554Y-110260136D01*
X174219222Y-110462916D01*
X174303356Y-110645670D01*
X174373235Y-110814141D01*
X174432137Y-110974072D01*
X174483339Y-111131207D01*
X174501910Y-111192909D01*
X174584409Y-111549972D01*
X174636618Y-111942557D01*
X174657008Y-112340627D01*
X174644052Y-112714148D01*
X174596223Y-113033085D01*
X174595646Y-113035543D01*
X174435607Y-113525397D01*
X174198095Y-113965402D01*
X173883771Y-114354959D01*
X173493300Y-114693470D01*
X173027345Y-114980336D01*
X172486569Y-115214959D01*
X172020302Y-115359457D01*
X171543819Y-115485182D01*
X160424907Y-115534000D01*
X161138279Y-116131280D01*
X161030398Y-116218637D01*
X160924230Y-116293971D01*
X160754435Y-116402249D01*
X160538913Y-116533009D01*
X160295567Y-116675790D01*
X160042298Y-116820133D01*
X159797009Y-116955575D01*
X159577601Y-117071657D01*
X159524001Y-117098885D01*
X159116237Y-117303676D01*
X158557891Y-116777522D01*
X158362307Y-116597278D01*
X158181100Y-116437750D01*
X158028477Y-116310884D01*
X157918642Y-116228630D01*
X157876836Y-116204714D01*
X157722374Y-116190190D01*
X157555521Y-116241658D01*
X157411461Y-116345942D01*
X157372036Y-116393761D01*
X157311769Y-116501887D01*
X157292538Y-116609442D01*
X157319327Y-116730086D01*
X157397121Y-116877477D01*
X157530904Y-117065277D01*
X157689273Y-117263126D01*
X157833957Y-117440972D01*
X157954604Y-117593308D01*
X158040331Y-117706087D01*
X158080258Y-117765262D01*
X158081819Y-117769828D01*
X158040445Y-117799559D01*
X157925851Y-117852758D01*
X157752322Y-117924324D01*
X157534148Y-118009153D01*
X157285615Y-118102143D01*
X157021012Y-118198191D01*
X156754625Y-118292193D01*
X156500743Y-118379047D01*
X156273654Y-118453650D01*
X156087644Y-118510899D01*
X155957001Y-118545692D01*
X155896014Y-118552925D01*
X155893749Y-118551304D01*
X155814417Y-118435896D01*
X155700137Y-118279024D01*
X155562428Y-118095493D01*
X155412809Y-117900104D01*
X155262800Y-117707660D01*
X155123919Y-117532964D01*
X155007686Y-117390819D01*
X154925621Y-117296027D01*
X154892065Y-117264101D01*
X154786256Y-117231899D01*
X154662782Y-117219636D01*
X154530668Y-117255270D01*
X154392933Y-117345631D01*
X154276835Y-117465905D01*
X154209635Y-117591277D01*
X154202546Y-117638580D01*
X154225028Y-117717024D01*
X154286417Y-117855569D01*
X154377632Y-118035400D01*
X154489590Y-118237701D01*
X154502728Y-118260426D01*
X154615374Y-118457695D01*
X154708744Y-118627461D01*
X154774021Y-118753224D01*
X154802384Y-118818487D01*
X154802910Y-118822041D01*
X154758717Y-118850009D01*
X154632554Y-118888039D01*
X154434046Y-118934295D01*
X154172817Y-118986941D01*
X153858492Y-119044141D01*
X153500695Y-119104060D01*
X153109050Y-119164861D01*
X152693183Y-119224708D01*
X152689014Y-119225284D01*
X152537845Y-119246179D01*
X152194852Y-118561336D01*
X152033173Y-118249348D01*
X151897979Y-118015011D01*
X151782642Y-117849750D01*
X151680535Y-117744990D01*
X151585031Y-117692159D01*
X151514736Y-117681454D01*
X151363157Y-117715026D01*
X151213276Y-117801362D01*
X151091169Y-117918893D01*
X151022909Y-118046049D01*
X151016514Y-118093595D01*
X151032351Y-118183795D01*
X151074897Y-118337352D01*
X151137367Y-118531546D01*
X151201241Y-118712075D01*
X151274567Y-118916412D01*
X151334048Y-119092644D01*
X151373133Y-119220646D01*
X151385455Y-119277802D01*
X151373070Y-119298664D01*
X151329287Y-119314766D01*
X151244163Y-119326684D01*
X151107755Y-119334991D01*
X150910122Y-119340261D01*
X150641319Y-119343069D01*
X150291404Y-119343989D01*
X150239098Y-119344000D01*
X149092740Y-119344000D01*
X148893161Y-118662818D01*
X148818116Y-118414402D01*
X148745469Y-118187697D01*
X148681774Y-118002204D01*
X148633584Y-117877423D01*
X148618800Y-117846449D01*
X148595657Y-117798120D01*
X148580095Y-117741795D01*
X148572552Y-117665173D01*
X148573463Y-117555957D01*
X148583264Y-117401849D01*
X148602390Y-117190549D01*
X148631277Y-116909761D01*
X148662163Y-116622631D01*
X148780308Y-115534000D01*
X148577009Y-115519721D01*
X148451050Y-115514011D01*
X148371417Y-115516324D01*
X148359474Y-115519721D01*
X148350556Y-115567724D01*
X148333421Y-115694352D01*
X148309679Y-115886391D01*
X148280941Y-116130626D01*
X148248817Y-116413844D01*
X148232078Y-116565119D01*
X148118918Y-117596239D01*
X147951095Y-117734573D01*
X147874679Y-117802139D01*
X147823182Y-117868337D01*
X147795304Y-117949256D01*
X147789747Y-118060990D01*
X147805213Y-118219629D01*
X147840404Y-118441265D01*
X147877289Y-118649240D01*
X147912514Y-118857615D01*
X147937461Y-119030798D01*
X147949683Y-119149793D01*
X147947563Y-119195103D01*
X147890843Y-119200595D01*
X147759119Y-119190749D01*
X147567998Y-119168133D01*
X147333089Y-119135316D01*
X147069998Y-119094863D01*
X146794333Y-119049344D01*
X146521703Y-119001325D01*
X146267713Y-118953374D01*
X146047973Y-118908058D01*
X145878089Y-118867945D01*
X145781811Y-118838831D01*
X145742454Y-118817711D01*
X145711775Y-118779108D01*
X145686412Y-118709040D01*
X145663006Y-118593526D01*
X145638194Y-118418584D01*
X145608616Y-118170234D01*
X145597497Y-118072094D01*
X145556088Y-117737631D01*
X145514768Y-117483469D01*
X145469998Y-117297616D01*
X145418243Y-117168079D01*
X145355965Y-117082868D01*
X145292013Y-117036278D01*
X145115419Y-116988941D01*
X144923300Y-117009770D01*
X144756723Y-117093937D01*
X144749394Y-117100071D01*
X144698256Y-117146540D01*
X144662352Y-117194260D01*
X144638522Y-117259882D01*
X144623606Y-117360057D01*
X144614444Y-117511436D01*
X144607876Y-117730668D01*
X144604783Y-117862071D01*
X144597187Y-118095222D01*
X144586590Y-118291378D01*
X144574208Y-118434070D01*
X144561260Y-118506826D01*
X144556678Y-118512727D01*
X144480882Y-118496676D01*
X144334622Y-118452255D01*
X144133025Y-118385061D01*
X143891218Y-118300691D01*
X143624330Y-118204741D01*
X143347486Y-118102809D01*
X143075813Y-118000491D01*
X142824440Y-117903384D01*
X142608493Y-117817086D01*
X142443100Y-117747192D01*
X142343386Y-117699300D01*
X142324408Y-117686810D01*
X142316445Y-117633259D01*
X142315315Y-117503719D01*
X142320636Y-117314286D01*
X142332030Y-117081051D01*
X142342719Y-116910542D01*
X142362215Y-116580762D01*
X142368363Y-116329598D01*
X142358810Y-116143960D01*
X142331207Y-116010758D01*
X142283202Y-115916903D01*
X142212444Y-115849303D01*
X142144880Y-115808913D01*
X141960732Y-115747685D01*
X141783555Y-115769156D01*
X141688826Y-115810287D01*
X141619049Y-115856135D01*
X141563636Y-115921998D01*
X141517238Y-116022510D01*
X141474508Y-116172309D01*
X141430095Y-116386030D01*
X141384735Y-116642363D01*
X141348209Y-116840740D01*
X141312648Y-117005098D01*
X141283007Y-117113911D01*
X141269098Y-117144840D01*
X141214043Y-117139927D01*
X141089889Y-117089753D01*
X140905277Y-116998932D01*
X140668845Y-116872081D01*
X140389234Y-116713815D01*
X140075084Y-116528749D01*
X139780216Y-116349421D01*
X139575002Y-116223710D01*
X139435705Y-116133135D01*
X139352076Y-116060588D01*
X139313863Y-115988960D01*
X139310817Y-115901142D01*
X139332689Y-115780025D01*
X139360864Y-115649454D01*
X139389728Y-115510909D01*
X134102186Y-115510909D01*
X133264092Y-115510887D01*
X132512862Y-115510687D01*
X131842998Y-115510108D01*
X131248998Y-115508946D01*
X130725365Y-115507002D01*
X130266599Y-115504072D01*
X129867201Y-115499956D01*
X129521671Y-115494451D01*
X129224509Y-115487356D01*
X128970218Y-115478469D01*
X128753296Y-115467588D01*
X128568245Y-115454511D01*
X128409566Y-115439037D01*
X128271759Y-115420964D01*
X128149324Y-115400090D01*
X128036764Y-115376213D01*
X127928577Y-115349132D01*
X127819265Y-115318645D01*
X127703328Y-115284551D01*
X127671091Y-115274972D01*
X127152431Y-115079876D01*
X126684377Y-114820856D01*
X126273896Y-114504576D01*
X125927956Y-114137702D01*
X125653525Y-113726901D01*
X125457570Y-113278839D01*
X125407516Y-113109454D01*
X125372874Y-112948384D01*
X125352301Y-112774657D01*
X125344339Y-112564514D01*
X125347531Y-112294200D01*
X125350848Y-112185818D01*
X125377046Y-111778580D01*
X125382756Y-111739873D01*
X127724931Y-111739873D01*
X127727054Y-112043198D01*
X127741598Y-112122846D01*
X127857758Y-112449447D01*
X128047191Y-112720613D01*
X128308447Y-112935195D01*
X128640077Y-113092048D01*
X129040631Y-113190025D01*
X129102728Y-113199059D01*
X129174125Y-113202461D01*
X129334261Y-113205726D01*
X129579534Y-113208854D01*
X129906340Y-113211845D01*
X130311076Y-113214700D01*
X130790138Y-113217418D01*
X131339924Y-113220000D01*
X131956830Y-113222446D01*
X132637252Y-113224755D01*
X133377589Y-113226928D01*
X134174236Y-113228964D01*
X135023589Y-113230865D01*
X135922047Y-113232629D01*
X136866006Y-113234257D01*
X137851862Y-113235749D01*
X138876012Y-113237106D01*
X139934854Y-113238326D01*
X141024783Y-113239410D01*
X142142196Y-113240359D01*
X143283491Y-113241172D01*
X144445065Y-113241849D01*
X145623313Y-113242390D01*
X146814632Y-113242796D01*
X148015420Y-113243067D01*
X149222073Y-113243202D01*
X150430989Y-113243201D01*
X151638562Y-113243065D01*
X152841192Y-113242794D01*
X154035273Y-113242387D01*
X155217204Y-113241846D01*
X156383380Y-113241169D01*
X157530199Y-113240357D01*
X158654057Y-113239410D01*
X159751352Y-113238328D01*
X160818479Y-113237111D01*
X161851836Y-113235759D01*
X162847819Y-113234272D01*
X163802825Y-113232651D01*
X164713252Y-113230895D01*
X165575494Y-113229004D01*
X166385951Y-113226978D01*
X167141018Y-113224818D01*
X167837091Y-113222524D01*
X168470569Y-113220095D01*
X169037847Y-113217532D01*
X169535322Y-113214834D01*
X169959391Y-113212002D01*
X170306451Y-113209036D01*
X170572899Y-113205935D01*
X170755131Y-113202701D01*
X170849545Y-113199332D01*
X170859295Y-113198430D01*
X171079969Y-113156634D01*
X171307687Y-113095238D01*
X171488423Y-113029441D01*
X171722754Y-112891961D01*
X171935389Y-112706998D01*
X172103680Y-112497960D01*
X172204736Y-112289072D01*
X172255005Y-111971188D01*
X172230594Y-111621824D01*
X172134898Y-111258856D01*
X171971309Y-110900155D01*
X171926463Y-110823454D01*
X171891877Y-110768759D01*
X171809084Y-110638962D01*
X171679767Y-110436693D01*
X171505612Y-110164579D01*
X171288306Y-109825247D01*
X171029531Y-109421325D01*
X170730975Y-108955441D01*
X170394322Y-108430223D01*
X170021258Y-107848298D01*
X169613467Y-107212294D01*
X169172635Y-106524839D01*
X168700447Y-105788560D01*
X168198589Y-105006085D01*
X167668745Y-104180043D01*
X167112600Y-103313059D01*
X166531841Y-102407763D01*
X165928152Y-101466782D01*
X165303219Y-100492744D01*
X164658726Y-99488275D01*
X163996359Y-98456005D01*
X163317803Y-97398561D01*
X162624743Y-96318570D01*
X161918865Y-95218661D01*
X161620283Y-94753422D01*
X160725893Y-93359990D01*
X159880110Y-92042617D01*
X159081796Y-90799544D01*
X158329809Y-89629007D01*
X157623009Y-88529247D01*
X156960256Y-87498501D01*
X156340409Y-86535008D01*
X155762329Y-85637007D01*
X155224874Y-84802737D01*
X154726904Y-84030437D01*
X154267280Y-83318345D01*
X153844860Y-82664699D01*
X153458505Y-82067739D01*
X153107073Y-81525703D01*
X152789425Y-81036830D01*
X152504421Y-80599358D01*
X152250919Y-80211527D01*
X152027780Y-79871575D01*
X151833864Y-79577741D01*
X151668029Y-79328262D01*
X151529136Y-79121379D01*
X151416044Y-78955330D01*
X151327613Y-78828353D01*
X151262703Y-78738687D01*
X151220173Y-78684571D01*
X151208073Y-78671388D01*
X151031345Y-78520216D01*
X150821691Y-78373003D01*
X150657180Y-78278785D01*
X150307813Y-78154880D01*
X149952535Y-78120848D01*
X149598514Y-78175129D01*
X149252921Y-78316162D01*
X148922926Y-78542389D01*
X148761878Y-78691143D01*
X148728260Y-78730937D01*
X148674052Y-78803500D01*
X148598080Y-78910649D01*
X148499166Y-79054197D01*
X148376136Y-79235962D01*
X148227814Y-79457760D01*
X148053023Y-79721405D01*
X147850587Y-80028713D01*
X147619332Y-80381500D01*
X147358080Y-80781583D01*
X147065657Y-81230776D01*
X146740886Y-81730895D01*
X146382591Y-82283756D01*
X145989597Y-82891174D01*
X145560727Y-83554967D01*
X145094806Y-84276948D01*
X144590658Y-85058933D01*
X144047107Y-85902740D01*
X143462977Y-86810182D01*
X142837092Y-87783076D01*
X142168277Y-88823238D01*
X141455356Y-89932483D01*
X140697152Y-91112627D01*
X139892490Y-92365485D01*
X139040194Y-93692874D01*
X138315704Y-94821454D01*
X137603759Y-95930772D01*
X136903789Y-97021792D01*
X136217488Y-98091867D01*
X135546547Y-99138345D01*
X134892660Y-100158578D01*
X134257519Y-101149916D01*
X133642818Y-102109709D01*
X133050250Y-103035307D01*
X132481506Y-103924061D01*
X131938281Y-104773321D01*
X131422267Y-105580437D01*
X130935157Y-106342760D01*
X130478643Y-107057640D01*
X130054419Y-107722428D01*
X129664178Y-108334474D01*
X129309612Y-108891127D01*
X128992414Y-109389739D01*
X128714278Y-109827660D01*
X128476895Y-110202239D01*
X128281960Y-110510829D01*
X128131164Y-110750778D01*
X128026201Y-110919437D01*
X127968763Y-111014156D01*
X127959209Y-111031272D01*
X127801933Y-111404488D01*
X127724931Y-111739873D01*
X125382756Y-111739873D01*
X125430778Y-111414348D01*
X125519278Y-111066179D01*
X125649779Y-110707125D01*
X125829516Y-110310241D01*
X125883968Y-110200000D01*
X125948286Y-110082159D01*
X126058373Y-109893115D01*
X126210169Y-109639430D01*
X126399612Y-109327671D01*
X126622643Y-108964401D01*
X126875201Y-108556184D01*
X127153224Y-108109587D01*
X127452653Y-107631172D01*
X127769427Y-107127506D01*
X128099484Y-106605152D01*
X128420588Y-106099244D01*
X130691301Y-102529580D01*
X130637943Y-102130783D01*
X130614995Y-101920295D01*
X130610986Y-101779004D01*
X130626140Y-101716954D01*
X130628747Y-101715483D01*
X130686206Y-101688041D01*
X130805525Y-101627367D01*
X130966997Y-101543565D01*
X131085369Y-101481399D01*
X131266849Y-101383839D01*
X131395870Y-101304219D01*
X131494037Y-101222020D01*
X131582955Y-101116721D01*
X131684231Y-100967803D01*
X131772935Y-100828376D01*
X132048041Y-100392935D01*
X131944177Y-100308831D01*
X131864700Y-100257736D01*
X131774115Y-100233923D01*
X131656755Y-100239341D01*
X131496953Y-100275937D01*
X131279042Y-100345657D01*
X131081082Y-100416108D01*
X130875665Y-100487312D01*
X130702067Y-100540765D01*
X130578255Y-100571400D01*
X130522199Y-100574152D01*
X130521776Y-100573776D01*
X130511858Y-100519396D01*
X130503689Y-100388351D01*
X130497284Y-100196305D01*
X130492659Y-99958922D01*
X130489832Y-99691867D01*
X130488818Y-99410805D01*
X130489634Y-99131400D01*
X130492296Y-98869317D01*
X130496820Y-98640220D01*
X130503223Y-98459775D01*
X130511520Y-98343645D01*
X130519418Y-98307685D01*
X130572524Y-98284358D01*
X130698196Y-98240728D01*
X130880248Y-98182083D01*
X131102499Y-98113708D01*
X131225851Y-98076872D01*
X131469672Y-98002507D01*
X131688438Y-97931557D01*
X131863671Y-97870331D01*
X131976892Y-97825136D01*
X132002798Y-97811637D01*
X132051566Y-97788084D01*
X132119016Y-97774752D01*
X132219768Y-97771940D01*
X132368441Y-97779947D01*
X132579656Y-97799069D01*
X132864331Y-97829199D01*
X133117483Y-97856296D01*
X133335807Y-97878495D01*
X133504003Y-97894334D01*
X133606768Y-97902354D01*
X133631663Y-97902457D01*
X133695229Y-97808798D01*
X133762203Y-97695516D01*
X133818284Y-97589185D01*
X133849170Y-97516376D01*
X133848489Y-97499574D01*
X133793199Y-97494563D01*
X133661632Y-97480928D01*
X133469302Y-97460326D01*
X133231721Y-97434416D01*
X133005843Y-97409465D01*
X132665707Y-97368469D01*
X132414304Y-97330946D01*
X132252750Y-97297094D01*
X132182163Y-97267112D01*
X132179293Y-97262424D01*
X132102752Y-97145135D01*
X131977243Y-97045896D01*
X131842423Y-96994108D01*
X131814540Y-96992000D01*
X131716133Y-97000070D01*
X131551489Y-97021938D01*
X131345098Y-97054085D01*
X131159851Y-97086016D01*
X130952083Y-97121648D01*
X130780175Y-97147769D01*
X130662885Y-97161754D01*
X130619300Y-97161603D01*
X130616681Y-97107981D01*
X130628799Y-96978755D01*
X130653328Y-96789098D01*
X130687941Y-96554177D01*
X130730313Y-96289166D01*
X130778116Y-96009233D01*
X130829025Y-95729549D01*
X130875473Y-95491091D01*
X130996819Y-94890727D01*
X131735410Y-94806877D01*
X132067773Y-94765564D01*
X132320711Y-94724151D01*
X132507060Y-94678249D01*
X132639660Y-94623468D01*
X132731346Y-94555416D01*
X132794959Y-94469705D01*
X132810865Y-94439113D01*
X132846205Y-94319498D01*
X132832871Y-94178999D01*
X132820713Y-94130024D01*
X132778412Y-94012491D01*
X132715167Y-93926719D01*
X132617410Y-93867930D01*
X132471569Y-93831344D01*
X132264074Y-93812182D01*
X131981356Y-93805667D01*
X131899021Y-93805454D01*
X131675225Y-93804486D01*
X131489070Y-93801836D01*
X131357669Y-93797887D01*
X131298140Y-93793021D01*
X131296364Y-93791986D01*
X131311530Y-93732239D01*
X131353244Y-93601922D01*
X131415828Y-93417023D01*
X131493603Y-93193532D01*
X131580894Y-92947437D01*
X131672021Y-92694728D01*
X131761308Y-92451393D01*
X131843076Y-92233422D01*
X131911649Y-92056803D01*
X131919287Y-92037741D01*
X132138254Y-91493846D01*
X132560127Y-91526228D01*
X132818392Y-91542337D01*
X133111135Y-91555001D01*
X133380477Y-91561783D01*
X133412871Y-91562123D01*
X133615973Y-91562391D01*
X133748972Y-91555747D01*
X133834113Y-91537021D01*
X133893642Y-91501047D01*
X133949803Y-91442656D01*
X133955508Y-91436061D01*
X134047963Y-91266146D01*
X134066733Y-91076220D01*
X134011424Y-90896761D01*
X133963364Y-90828792D01*
X133901607Y-90772293D01*
X133816791Y-90727526D01*
X133689880Y-90687970D01*
X133501835Y-90647105D01*
X133351455Y-90619193D01*
X133074284Y-90571284D01*
X132877877Y-90535262D01*
X132753462Y-90500348D01*
X132692264Y-90455762D01*
X132685509Y-90390722D01*
X132724424Y-90294450D01*
X132800233Y-90156164D01*
X132870640Y-90028434D01*
X132995790Y-89801735D01*
X133135570Y-89558575D01*
X133281556Y-89312515D01*
X133425322Y-89077112D01*
X133558444Y-88865925D01*
X133672496Y-88692512D01*
X133759053Y-88570431D01*
X133809690Y-88513241D01*
X133813456Y-88511175D01*
X133873699Y-88514795D01*
X134006633Y-88537445D01*
X134195332Y-88575792D01*
X134422871Y-88626504D01*
X134543850Y-88654961D01*
X134793679Y-88712546D01*
X135022132Y-88761189D01*
X135209288Y-88796940D01*
X135335224Y-88815848D01*
X135365281Y-88817818D01*
X135523177Y-88775868D01*
X135659916Y-88666857D01*
X135751451Y-88516040D01*
X135776000Y-88386420D01*
X135772488Y-88267895D01*
X135753991Y-88175791D01*
X135708574Y-88100602D01*
X135624298Y-88032821D01*
X135489226Y-87962944D01*
X135291422Y-87881463D01*
X135018947Y-87778874D01*
X135007927Y-87774790D01*
X134815350Y-87701431D01*
X134654766Y-87636512D01*
X134546328Y-87588401D01*
X134511760Y-87568779D01*
X134524995Y-87521653D01*
X134590499Y-87417717D01*
X134698535Y-87268619D01*
X134839366Y-87086004D01*
X135003254Y-86881518D01*
X135180462Y-86666809D01*
X135361252Y-86453521D01*
X135535887Y-86253302D01*
X135694629Y-86077797D01*
X135827741Y-85938654D01*
X135925486Y-85847517D01*
X135977258Y-85816000D01*
X136036313Y-85833615D01*
X136164371Y-85882309D01*
X136345940Y-85955855D01*
X136565528Y-86048027D01*
X136723737Y-86116030D01*
X136963441Y-86217600D01*
X137179033Y-86304480D01*
X137353948Y-86370338D01*
X137471626Y-86408845D01*
X137509088Y-86416211D01*
X137652219Y-86374687D01*
X137786057Y-86265984D01*
X137889998Y-86114592D01*
X137943437Y-85944999D01*
X137946546Y-85896274D01*
X137933258Y-85814111D01*
X137886291Y-85733221D01*
X137794987Y-85644266D01*
X137648688Y-85537908D01*
X137436737Y-85404810D01*
X137279008Y-85311378D01*
X137092318Y-85198819D01*
X136940500Y-85100697D01*
X136838361Y-85027069D01*
X136800705Y-84987989D01*
X136800909Y-84986689D01*
X136842558Y-84938482D01*
X136943046Y-84842820D01*
X137089666Y-84710664D01*
X137269711Y-84552973D01*
X137470473Y-84380707D01*
X137679246Y-84204825D01*
X137883322Y-84036288D01*
X138069995Y-83886056D01*
X138146521Y-83826113D01*
X138554315Y-83510232D01*
X139182792Y-83930863D01*
X139473451Y-84120838D01*
X139702517Y-84257295D01*
X139881498Y-84343174D01*
X140021902Y-84381413D01*
X140135237Y-84374953D01*
X140233012Y-84326730D01*
X140326734Y-84239685D01*
X140338849Y-84226095D01*
X140456356Y-84043771D01*
X140483350Y-83868916D01*
X140444158Y-83744907D01*
X140393519Y-83685828D01*
X140286604Y-83582914D01*
X140138909Y-83450473D01*
X139965926Y-83302809D01*
X139959760Y-83297671D01*
X139791159Y-83153764D01*
X139652228Y-83028472D01*
X139556657Y-82934630D01*
X139518134Y-82885071D01*
X139517926Y-82883454D01*
X139556523Y-82842456D01*
X139663129Y-82765877D01*
X139824206Y-82661506D01*
X140026218Y-82537133D01*
X140255627Y-82400549D01*
X140498893Y-82259543D01*
X140742481Y-82121905D01*
X140972851Y-81995425D01*
X141176467Y-81887892D01*
X141339790Y-81807097D01*
X141449283Y-81760830D01*
X141482704Y-81752886D01*
X141531233Y-81782800D01*
X141634270Y-81866173D01*
X141779671Y-81992523D01*
X141955292Y-82151366D01*
X142096529Y-82282692D01*
X142292512Y-82462231D01*
X142473696Y-82619484D01*
X142626146Y-82743015D01*
X142735925Y-82821383D01*
X142779335Y-82843103D01*
X142937260Y-82841228D01*
X143092907Y-82772371D01*
X143225289Y-82656187D01*
X143313420Y-82512328D01*
X143336314Y-82360450D01*
X143330311Y-82327106D01*
X143291589Y-82252290D01*
X143204901Y-82124231D01*
X143082406Y-81959799D01*
X142936266Y-81775863D01*
X142909444Y-81743262D01*
X142515602Y-81267091D01*
X142783804Y-81144602D01*
X142927275Y-81084094D01*
X143123527Y-81008308D01*
X143357245Y-80922435D01*
X143613112Y-80831666D01*
X143875811Y-80741193D01*
X144130026Y-80656205D01*
X144360440Y-80581895D01*
X144551737Y-80523453D01*
X144688600Y-80486071D01*
X144755713Y-80474939D01*
X144758061Y-80475493D01*
X144794138Y-80442682D01*
X144873219Y-80340572D01*
X144989167Y-80178071D01*
X145135848Y-79964086D01*
X145307126Y-79707525D01*
X145496866Y-79417298D01*
X145638028Y-79197866D01*
X145852130Y-78865403D01*
X146065221Y-78539142D01*
X146268479Y-78232257D01*
X146453080Y-77957921D01*
X146610200Y-77729305D01*
X146731018Y-77559583D01*
X146772193Y-77504630D01*
X147202285Y-77005276D01*
X147666924Y-76576176D01*
X148157693Y-76223954D01*
X148666176Y-75955237D01*
X148820768Y-75891952D01*
X149010623Y-75822578D01*
X149168895Y-75775482D01*
X149324821Y-75745394D01*
X149507642Y-75727043D01*
X149746596Y-75715160D01*
X149815273Y-75712694D01*
X150182246Y-75710016D01*
X150489936Y-75733756D01*
G36*
X144902368Y-93302149D02*
X144942695Y-93329291D01*
X144972027Y-93391870D01*
X144997285Y-93504068D01*
X145025390Y-93680067D01*
X145059467Y-93908902D01*
X145082095Y-94099334D01*
X145079767Y-94235097D01*
X145050803Y-94350905D01*
X145036267Y-94387906D01*
X145024462Y-94425147D01*
X145014032Y-94480566D01*
X145004896Y-94559610D01*
X144996971Y-94667726D01*
X144990175Y-94810361D01*
X144984426Y-94992961D01*
X144979642Y-95220973D01*
X144975739Y-95499845D01*
X144972637Y-95835024D01*
X144970251Y-96231955D01*
X144968500Y-96696086D01*
X144967302Y-97232865D01*
X144966574Y-97847737D01*
X144966234Y-98546151D01*
X144966182Y-99023281D01*
X144966182Y-103490919D01*
X145218447Y-103520568D01*
X145465846Y-103564826D01*
X145627208Y-103628886D01*
X145700541Y-103711842D01*
X145705091Y-103741958D01*
X145686406Y-103812913D01*
X145663736Y-103826909D01*
X145620403Y-103864647D01*
X145558366Y-103960131D01*
X145528354Y-104016952D01*
X145468237Y-104172273D01*
X145466842Y-104288164D01*
X145474825Y-104313509D01*
X145486300Y-104384690D01*
X145499714Y-104536162D01*
X145514375Y-104755888D01*
X145529589Y-105031833D01*
X145544664Y-105351961D01*
X145558908Y-105704235D01*
X145565545Y-105889920D01*
X145580408Y-106320785D01*
X145596687Y-106785495D01*
X145613477Y-107258723D01*
X145629873Y-107715142D01*
X145644973Y-108129426D01*
X145657653Y-108470472D01*
X145671500Y-108884633D01*
X145677324Y-109218893D01*
X145673391Y-109485502D01*
X145657966Y-109696709D01*
X145629316Y-109864762D01*
X145585705Y-110001910D01*
X145525400Y-110120403D01*
X145446667Y-110232489D01*
X145400063Y-110289701D01*
X145279800Y-110404657D01*
X145146393Y-110494047D01*
X145119913Y-110506461D01*
X144930563Y-110553727D01*
X144710498Y-110563343D01*
X144509138Y-110534477D01*
X144458206Y-110517571D01*
X144261542Y-110392282D01*
X144087461Y-110186945D01*
X144026506Y-110084545D01*
X143983071Y-109992438D01*
X143954475Y-109894265D01*
X143937893Y-109768517D01*
X143930501Y-109593686D01*
X143929475Y-109348262D01*
X143929487Y-109345636D01*
X143933463Y-109108472D01*
X143943172Y-108806050D01*
X143957884Y-108449924D01*
X143976870Y-108051650D01*
X143999399Y-107622782D01*
X144024743Y-107174876D01*
X144052173Y-106719487D01*
X144080958Y-106268169D01*
X144110370Y-105832479D01*
X144139679Y-105423970D01*
X144168156Y-105054199D01*
X144195070Y-104734720D01*
X144219694Y-104477089D01*
X144241297Y-104292859D01*
X144253073Y-104219454D01*
X144253931Y-104095698D01*
X144197704Y-103962627D01*
X144158859Y-103901766D01*
X144091006Y-103783080D01*
X144059106Y-103688664D01*
X144060430Y-103662187D01*
X144117540Y-103613373D01*
X144232724Y-103563030D01*
X144372626Y-103522749D01*
X144503895Y-103504122D01*
X144515910Y-103503894D01*
X144529327Y-103500128D01*
X144541175Y-103485332D01*
X144551552Y-103454122D01*
X144560555Y-103401113D01*
X144568280Y-103320921D01*
X144574825Y-103208161D01*
X144580287Y-103057448D01*
X144584763Y-102863399D01*
X144588350Y-102620629D01*
X144591146Y-102323753D01*
X144593246Y-101967387D01*
X144594749Y-101546146D01*
X144595752Y-101054647D01*
X144596351Y-100487505D01*
X144596644Y-99839334D01*
X144596727Y-99104752D01*
X144596728Y-99022160D01*
X144596666Y-98277793D01*
X144596412Y-97620174D01*
X144595862Y-97043686D01*
X144594912Y-96542714D01*
X144593458Y-96111641D01*
X144591397Y-95744852D01*
X144588624Y-95436731D01*
X144585037Y-95181661D01*
X144580531Y-94974026D01*
X144575002Y-94808211D01*
X144568348Y-94678600D01*
X144560464Y-94579576D01*
X144551246Y-94505523D01*
X144540590Y-94450826D01*
X144528394Y-94409869D01*
X144514552Y-94377035D01*
X144510775Y-94369342D01*
X144459802Y-94251507D01*
X144437339Y-94166224D01*
X144438161Y-94151818D01*
X144449990Y-94087644D01*
X144470167Y-93955783D01*
X144495100Y-93780140D01*
X144505793Y-93701545D01*
X144560086Y-93297454D01*
X144761041Y-93297454D01*
X144844124Y-93296264D01*
X144902368Y-93302149D01*
X144902368Y-93302149D01*
G37*
X144902368Y-93302149D02*
X144942695Y-93329291D01*
X144972027Y-93391870D01*
X144997285Y-93504068D01*
X145025390Y-93680067D01*
X145059467Y-93908902D01*
X145082095Y-94099334D01*
X145079767Y-94235097D01*
X145050803Y-94350905D01*
X145036267Y-94387906D01*
X145024462Y-94425147D01*
X145014032Y-94480566D01*
X145004896Y-94559610D01*
X144996971Y-94667726D01*
X144990175Y-94810361D01*
X144984426Y-94992961D01*
X144979642Y-95220973D01*
X144975739Y-95499845D01*
X144972637Y-95835024D01*
X144970251Y-96231955D01*
X144968500Y-96696086D01*
X144967302Y-97232865D01*
X144966574Y-97847737D01*
X144966234Y-98546151D01*
X144966182Y-99023281D01*
X144966182Y-103490919D01*
X145218447Y-103520568D01*
X145465846Y-103564826D01*
X145627208Y-103628886D01*
X145700541Y-103711842D01*
X145705091Y-103741958D01*
X145686406Y-103812913D01*
X145663736Y-103826909D01*
X145620403Y-103864647D01*
X145558366Y-103960131D01*
X145528354Y-104016952D01*
X145468237Y-104172273D01*
X145466842Y-104288164D01*
X145474825Y-104313509D01*
X145486300Y-104384690D01*
X145499714Y-104536162D01*
X145514375Y-104755888D01*
X145529589Y-105031833D01*
X145544664Y-105351961D01*
X145558908Y-105704235D01*
X145565545Y-105889920D01*
X145580408Y-106320785D01*
X145596687Y-106785495D01*
X145613477Y-107258723D01*
X145629873Y-107715142D01*
X145644973Y-108129426D01*
X145657653Y-108470472D01*
X145671500Y-108884633D01*
X145677324Y-109218893D01*
X145673391Y-109485502D01*
X145657966Y-109696709D01*
X145629316Y-109864762D01*
X145585705Y-110001910D01*
X145525400Y-110120403D01*
X145446667Y-110232489D01*
X145400063Y-110289701D01*
X145279800Y-110404657D01*
X145146393Y-110494047D01*
X145119913Y-110506461D01*
X144930563Y-110553727D01*
X144710498Y-110563343D01*
X144509138Y-110534477D01*
X144458206Y-110517571D01*
X144261542Y-110392282D01*
X144087461Y-110186945D01*
X144026506Y-110084545D01*
X143983071Y-109992438D01*
X143954475Y-109894265D01*
X143937893Y-109768517D01*
X143930501Y-109593686D01*
X143929475Y-109348262D01*
X143929487Y-109345636D01*
X143933463Y-109108472D01*
X143943172Y-108806050D01*
X143957884Y-108449924D01*
X143976870Y-108051650D01*
X143999399Y-107622782D01*
X144024743Y-107174876D01*
X144052173Y-106719487D01*
X144080958Y-106268169D01*
X144110370Y-105832479D01*
X144139679Y-105423970D01*
X144168156Y-105054199D01*
X144195070Y-104734720D01*
X144219694Y-104477089D01*
X144241297Y-104292859D01*
X144253073Y-104219454D01*
X144253931Y-104095698D01*
X144197704Y-103962627D01*
X144158859Y-103901766D01*
X144091006Y-103783080D01*
X144059106Y-103688664D01*
X144060430Y-103662187D01*
X144117540Y-103613373D01*
X144232724Y-103563030D01*
X144372626Y-103522749D01*
X144503895Y-103504122D01*
X144515910Y-103503894D01*
X144529327Y-103500128D01*
X144541175Y-103485332D01*
X144551552Y-103454122D01*
X144560555Y-103401113D01*
X144568280Y-103320921D01*
X144574825Y-103208161D01*
X144580287Y-103057448D01*
X144584763Y-102863399D01*
X144588350Y-102620629D01*
X144591146Y-102323753D01*
X144593246Y-101967387D01*
X144594749Y-101546146D01*
X144595752Y-101054647D01*
X144596351Y-100487505D01*
X144596644Y-99839334D01*
X144596727Y-99104752D01*
X144596728Y-99022160D01*
X144596666Y-98277793D01*
X144596412Y-97620174D01*
X144595862Y-97043686D01*
X144594912Y-96542714D01*
X144593458Y-96111641D01*
X144591397Y-95744852D01*
X144588624Y-95436731D01*
X144585037Y-95181661D01*
X144580531Y-94974026D01*
X144575002Y-94808211D01*
X144568348Y-94678600D01*
X144560464Y-94579576D01*
X144551246Y-94505523D01*
X144540590Y-94450826D01*
X144528394Y-94409869D01*
X144514552Y-94377035D01*
X144510775Y-94369342D01*
X144459802Y-94251507D01*
X144437339Y-94166224D01*
X144438161Y-94151818D01*
X144449990Y-94087644D01*
X144470167Y-93955783D01*
X144495100Y-93780140D01*
X144505793Y-93701545D01*
X144560086Y-93297454D01*
X144761041Y-93297454D01*
X144844124Y-93296264D01*
X144902368Y-93302149D01*
G36*
X155700165Y-95632033D02*
X155862968Y-95645559D01*
X155942307Y-95679717D01*
X155942624Y-95744009D01*
X155868363Y-95847940D01*
X155723966Y-96001012D01*
X155655427Y-96070220D01*
X155503442Y-96217841D01*
X155370628Y-96337171D01*
X155272628Y-96414752D01*
X155228213Y-96437818D01*
X155168058Y-96469618D01*
X155067934Y-96553284D01*
X154948746Y-96671215D01*
X154940254Y-96680272D01*
X154822770Y-96809949D01*
X154755061Y-96906056D01*
X154723230Y-97001937D01*
X154713382Y-97130933D01*
X154712306Y-97227225D01*
X154710546Y-97531723D01*
X154938195Y-97723680D01*
X155067227Y-97827393D01*
X155168039Y-97884902D01*
X155278481Y-97909772D01*
X155436402Y-97915571D01*
X155473745Y-97915636D01*
X155643983Y-97912018D01*
X155758662Y-97892326D01*
X155854544Y-97843300D01*
X155968390Y-97751684D01*
X155996550Y-97727083D01*
X156115484Y-97610802D01*
X156203470Y-97502685D01*
X156236104Y-97440667D01*
X156278256Y-97374379D01*
X156370744Y-97274354D01*
X156496244Y-97155332D01*
X156637432Y-97032051D01*
X156776986Y-96919248D01*
X156897582Y-96831661D01*
X156981897Y-96784029D01*
X157009983Y-96782280D01*
X157025074Y-96840840D01*
X157036327Y-96967619D01*
X157041861Y-97138493D01*
X157042126Y-97194369D01*
X157037107Y-97401946D01*
X157016988Y-97557048D01*
X156972993Y-97699347D01*
X156896351Y-97868515D01*
X156890338Y-97880762D01*
X156749844Y-98117702D01*
X156585882Y-98318909D01*
X156533031Y-98369300D01*
X156326910Y-98550735D01*
X156326910Y-106869972D01*
X156584707Y-107041088D01*
X156891220Y-107296597D01*
X157129387Y-107602900D01*
X157297752Y-107947100D01*
X157394859Y-108316298D01*
X157419252Y-108697596D01*
X157369476Y-109078097D01*
X157244074Y-109444900D01*
X157041590Y-109785110D01*
X156911953Y-109940175D01*
X156771681Y-110074328D01*
X156658695Y-110140862D01*
X156583098Y-110153818D01*
X156453196Y-110153818D01*
X156474941Y-109551614D01*
X156496686Y-108949411D01*
X155992600Y-108556044D01*
X155807723Y-108414507D01*
X155648401Y-108297679D01*
X155528721Y-108215504D01*
X155462768Y-108177922D01*
X155455429Y-108176884D01*
X155408495Y-108209257D01*
X155303798Y-108287624D01*
X155156088Y-108400771D01*
X154980119Y-108537486D01*
X154950990Y-108560279D01*
X154479637Y-108929467D01*
X154479637Y-109541643D01*
X154479151Y-109789139D01*
X154476006Y-109958918D01*
X154467669Y-110065623D01*
X154451609Y-110123900D01*
X154425294Y-110148395D01*
X154386191Y-110153752D01*
X154373798Y-110153818D01*
X154273007Y-110117573D01*
X154142672Y-110018282D01*
X154080723Y-109957545D01*
X153830493Y-109642620D01*
X153664100Y-109305182D01*
X153577109Y-108932838D01*
X153564910Y-108516486D01*
X153587209Y-108273078D01*
X153632161Y-108073760D01*
X153711141Y-107870951D01*
X153728005Y-107834336D01*
X153910932Y-107519439D01*
X154141116Y-107241730D01*
X154397406Y-107025632D01*
X154465435Y-106982712D01*
X154664364Y-106866132D01*
X154664347Y-103742769D01*
X155310904Y-103742769D01*
X155311123Y-104341530D01*
X155311923Y-104859233D01*
X155313658Y-105301532D01*
X155316683Y-105674080D01*
X155321355Y-105982530D01*
X155328027Y-106232534D01*
X155337056Y-106429747D01*
X155348795Y-106579821D01*
X155363602Y-106688408D01*
X155381830Y-106761163D01*
X155403834Y-106803738D01*
X155429971Y-106821786D01*
X155460595Y-106820961D01*
X155496061Y-106806915D01*
X155536724Y-106785302D01*
X155544855Y-106780920D01*
X155561174Y-106770006D01*
X155575375Y-106751865D01*
X155587605Y-106720416D01*
X155598012Y-106669581D01*
X155606741Y-106593279D01*
X155613941Y-106485431D01*
X155619758Y-106339957D01*
X155624340Y-106150777D01*
X155627834Y-105911812D01*
X155630387Y-105616982D01*
X155632145Y-105260208D01*
X155633257Y-104835409D01*
X155633869Y-104336506D01*
X155634128Y-103757420D01*
X155634182Y-103092069D01*
X155634182Y-103089674D01*
X155634035Y-102418088D01*
X155633517Y-101832880D01*
X155632510Y-101328062D01*
X155630898Y-100897650D01*
X155628564Y-100535656D01*
X155625392Y-100236094D01*
X155621264Y-99992979D01*
X155616063Y-99800324D01*
X155609674Y-99652144D01*
X155601980Y-99542451D01*
X155592862Y-99465259D01*
X155582206Y-99414584D01*
X155569894Y-99384438D01*
X155561702Y-99373754D01*
X155478034Y-99326533D01*
X155400066Y-99348989D01*
X155383813Y-99359896D01*
X155369665Y-99378084D01*
X155357476Y-99409619D01*
X155347099Y-99460565D01*
X155338390Y-99536987D01*
X155331202Y-99644949D01*
X155325389Y-99790517D01*
X155320806Y-99979754D01*
X155317307Y-100218725D01*
X155314746Y-100513496D01*
X155312978Y-100870131D01*
X155311855Y-101294694D01*
X155311234Y-101793250D01*
X155310967Y-102371864D01*
X155310910Y-103036600D01*
X155310910Y-103057297D01*
X155310904Y-103742769D01*
X154664347Y-103742769D01*
X154664341Y-102725702D01*
X154664319Y-98585272D01*
X154436267Y-98388879D01*
X154199807Y-98126399D01*
X154056472Y-97884252D01*
X153972842Y-97699854D01*
X153926630Y-97546381D01*
X153907332Y-97378451D01*
X153904211Y-97226282D01*
X153923127Y-96926417D01*
X153976892Y-96666845D01*
X153987735Y-96633558D01*
X154111645Y-96386249D01*
X154301539Y-96141722D01*
X154533880Y-95925510D01*
X154785134Y-95763146D01*
X154794131Y-95758679D01*
X154945134Y-95691531D01*
X155082021Y-95652331D01*
X155240517Y-95634046D01*
X155449455Y-95629636D01*
X155700165Y-95632033D01*
X155700165Y-95632033D01*
G37*
X155700165Y-95632033D02*
X155862968Y-95645559D01*
X155942307Y-95679717D01*
X155942624Y-95744009D01*
X155868363Y-95847940D01*
X155723966Y-96001012D01*
X155655427Y-96070220D01*
X155503442Y-96217841D01*
X155370628Y-96337171D01*
X155272628Y-96414752D01*
X155228213Y-96437818D01*
X155168058Y-96469618D01*
X155067934Y-96553284D01*
X154948746Y-96671215D01*
X154940254Y-96680272D01*
X154822770Y-96809949D01*
X154755061Y-96906056D01*
X154723230Y-97001937D01*
X154713382Y-97130933D01*
X154712306Y-97227225D01*
X154710546Y-97531723D01*
X154938195Y-97723680D01*
X155067227Y-97827393D01*
X155168039Y-97884902D01*
X155278481Y-97909772D01*
X155436402Y-97915571D01*
X155473745Y-97915636D01*
X155643983Y-97912018D01*
X155758662Y-97892326D01*
X155854544Y-97843300D01*
X155968390Y-97751684D01*
X155996550Y-97727083D01*
X156115484Y-97610802D01*
X156203470Y-97502685D01*
X156236104Y-97440667D01*
X156278256Y-97374379D01*
X156370744Y-97274354D01*
X156496244Y-97155332D01*
X156637432Y-97032051D01*
X156776986Y-96919248D01*
X156897582Y-96831661D01*
X156981897Y-96784029D01*
X157009983Y-96782280D01*
X157025074Y-96840840D01*
X157036327Y-96967619D01*
X157041861Y-97138493D01*
X157042126Y-97194369D01*
X157037107Y-97401946D01*
X157016988Y-97557048D01*
X156972993Y-97699347D01*
X156896351Y-97868515D01*
X156890338Y-97880762D01*
X156749844Y-98117702D01*
X156585882Y-98318909D01*
X156533031Y-98369300D01*
X156326910Y-98550735D01*
X156326910Y-106869972D01*
X156584707Y-107041088D01*
X156891220Y-107296597D01*
X157129387Y-107602900D01*
X157297752Y-107947100D01*
X157394859Y-108316298D01*
X157419252Y-108697596D01*
X157369476Y-109078097D01*
X157244074Y-109444900D01*
X157041590Y-109785110D01*
X156911953Y-109940175D01*
X156771681Y-110074328D01*
X156658695Y-110140862D01*
X156583098Y-110153818D01*
X156453196Y-110153818D01*
X156474941Y-109551614D01*
X156496686Y-108949411D01*
X155992600Y-108556044D01*
X155807723Y-108414507D01*
X155648401Y-108297679D01*
X155528721Y-108215504D01*
X155462768Y-108177922D01*
X155455429Y-108176884D01*
X155408495Y-108209257D01*
X155303798Y-108287624D01*
X155156088Y-108400771D01*
X154980119Y-108537486D01*
X154950990Y-108560279D01*
X154479637Y-108929467D01*
X154479637Y-109541643D01*
X154479151Y-109789139D01*
X154476006Y-109958918D01*
X154467669Y-110065623D01*
X154451609Y-110123900D01*
X154425294Y-110148395D01*
X154386191Y-110153752D01*
X154373798Y-110153818D01*
X154273007Y-110117573D01*
X154142672Y-110018282D01*
X154080723Y-109957545D01*
X153830493Y-109642620D01*
X153664100Y-109305182D01*
X153577109Y-108932838D01*
X153564910Y-108516486D01*
X153587209Y-108273078D01*
X153632161Y-108073760D01*
X153711141Y-107870951D01*
X153728005Y-107834336D01*
X153910932Y-107519439D01*
X154141116Y-107241730D01*
X154397406Y-107025632D01*
X154465435Y-106982712D01*
X154664364Y-106866132D01*
X154664347Y-103742769D01*
X155310904Y-103742769D01*
X155311123Y-104341530D01*
X155311923Y-104859233D01*
X155313658Y-105301532D01*
X155316683Y-105674080D01*
X155321355Y-105982530D01*
X155328027Y-106232534D01*
X155337056Y-106429747D01*
X155348795Y-106579821D01*
X155363602Y-106688408D01*
X155381830Y-106761163D01*
X155403834Y-106803738D01*
X155429971Y-106821786D01*
X155460595Y-106820961D01*
X155496061Y-106806915D01*
X155536724Y-106785302D01*
X155544855Y-106780920D01*
X155561174Y-106770006D01*
X155575375Y-106751865D01*
X155587605Y-106720416D01*
X155598012Y-106669581D01*
X155606741Y-106593279D01*
X155613941Y-106485431D01*
X155619758Y-106339957D01*
X155624340Y-106150777D01*
X155627834Y-105911812D01*
X155630387Y-105616982D01*
X155632145Y-105260208D01*
X155633257Y-104835409D01*
X155633869Y-104336506D01*
X155634128Y-103757420D01*
X155634182Y-103092069D01*
X155634182Y-103089674D01*
X155634035Y-102418088D01*
X155633517Y-101832880D01*
X155632510Y-101328062D01*
X155630898Y-100897650D01*
X155628564Y-100535656D01*
X155625392Y-100236094D01*
X155621264Y-99992979D01*
X155616063Y-99800324D01*
X155609674Y-99652144D01*
X155601980Y-99542451D01*
X155592862Y-99465259D01*
X155582206Y-99414584D01*
X155569894Y-99384438D01*
X155561702Y-99373754D01*
X155478034Y-99326533D01*
X155400066Y-99348989D01*
X155383813Y-99359896D01*
X155369665Y-99378084D01*
X155357476Y-99409619D01*
X155347099Y-99460565D01*
X155338390Y-99536987D01*
X155331202Y-99644949D01*
X155325389Y-99790517D01*
X155320806Y-99979754D01*
X155317307Y-100218725D01*
X155314746Y-100513496D01*
X155312978Y-100870131D01*
X155311855Y-101294694D01*
X155311234Y-101793250D01*
X155310967Y-102371864D01*
X155310910Y-103036600D01*
X155310910Y-103057297D01*
X155310904Y-103742769D01*
X154664347Y-103742769D01*
X154664341Y-102725702D01*
X154664319Y-98585272D01*
X154436267Y-98388879D01*
X154199807Y-98126399D01*
X154056472Y-97884252D01*
X153972842Y-97699854D01*
X153926630Y-97546381D01*
X153907332Y-97378451D01*
X153904211Y-97226282D01*
X153923127Y-96926417D01*
X153976892Y-96666845D01*
X153987735Y-96633558D01*
X154111645Y-96386249D01*
X154301539Y-96141722D01*
X154533880Y-95925510D01*
X154785134Y-95763146D01*
X154794131Y-95758679D01*
X154945134Y-95691531D01*
X155082021Y-95652331D01*
X155240517Y-95634046D01*
X155449455Y-95629636D01*
X155700165Y-95632033D01*
G36*
X145424176Y-97033782D02*
X145527680Y-97121246D01*
X145679548Y-97253342D01*
X145869786Y-97421329D01*
X146088400Y-97616462D01*
X146244940Y-97757284D01*
X146826654Y-98279747D01*
X147387956Y-98779075D01*
X147924776Y-99251858D01*
X148433043Y-99694687D01*
X148908687Y-100104152D01*
X149347640Y-100476842D01*
X149745831Y-100809348D01*
X150099191Y-101098259D01*
X150403648Y-101340167D01*
X150655135Y-101531660D01*
X150849580Y-101669329D01*
X150982914Y-101749765D01*
X151033633Y-101769503D01*
X151130808Y-101783839D01*
X151283468Y-101801222D01*
X151424392Y-101814779D01*
X151763260Y-101877016D01*
X152049376Y-102004608D01*
X152303664Y-102207196D01*
X152327151Y-102230926D01*
X152523338Y-102477822D01*
X152635540Y-102736601D01*
X152671733Y-103027801D01*
X152669593Y-103112995D01*
X152658884Y-103266435D01*
X152639433Y-103350533D01*
X152600074Y-103388280D01*
X152529644Y-103402666D01*
X152528890Y-103402753D01*
X152439107Y-103394584D01*
X152336661Y-103341534D01*
X152200938Y-103231978D01*
X152159435Y-103194438D01*
X151981415Y-103030645D01*
X151857938Y-102921219D01*
X151773793Y-102859979D01*
X151713774Y-102840745D01*
X151662669Y-102857339D01*
X151605272Y-102903580D01*
X151554895Y-102948798D01*
X151433909Y-103086260D01*
X151332519Y-103253166D01*
X151311763Y-103300962D01*
X151232075Y-103509621D01*
X151571762Y-103851590D01*
X151911448Y-104193558D01*
X151752361Y-104258137D01*
X151521429Y-104326212D01*
X151283567Y-104353938D01*
X151085273Y-104337191D01*
X150792663Y-104223505D01*
X150551233Y-104033840D01*
X150360647Y-103767740D01*
X150220567Y-103424752D01*
X150139128Y-103060981D01*
X150109259Y-102909090D01*
X150065150Y-102797586D01*
X149988198Y-102694006D01*
X149859801Y-102565887D01*
X149850266Y-102556909D01*
X149692645Y-102411089D01*
X149472641Y-102211094D01*
X149197532Y-101963399D01*
X148874595Y-101674481D01*
X148511107Y-101350815D01*
X148114346Y-100998876D01*
X147691589Y-100625140D01*
X147250114Y-100236082D01*
X146797198Y-99838179D01*
X146640273Y-99700608D01*
X145335637Y-98557510D01*
X145335637Y-97770906D01*
X145338065Y-97485589D01*
X145344975Y-97257001D01*
X145355801Y-97095167D01*
X145369981Y-97010110D01*
X145379031Y-96999697D01*
X145424176Y-97033782D01*
X145424176Y-97033782D01*
G37*
X145424176Y-97033782D02*
X145527680Y-97121246D01*
X145679548Y-97253342D01*
X145869786Y-97421329D01*
X146088400Y-97616462D01*
X146244940Y-97757284D01*
X146826654Y-98279747D01*
X147387956Y-98779075D01*
X147924776Y-99251858D01*
X148433043Y-99694687D01*
X148908687Y-100104152D01*
X149347640Y-100476842D01*
X149745831Y-100809348D01*
X150099191Y-101098259D01*
X150403648Y-101340167D01*
X150655135Y-101531660D01*
X150849580Y-101669329D01*
X150982914Y-101749765D01*
X151033633Y-101769503D01*
X151130808Y-101783839D01*
X151283468Y-101801222D01*
X151424392Y-101814779D01*
X151763260Y-101877016D01*
X152049376Y-102004608D01*
X152303664Y-102207196D01*
X152327151Y-102230926D01*
X152523338Y-102477822D01*
X152635540Y-102736601D01*
X152671733Y-103027801D01*
X152669593Y-103112995D01*
X152658884Y-103266435D01*
X152639433Y-103350533D01*
X152600074Y-103388280D01*
X152529644Y-103402666D01*
X152528890Y-103402753D01*
X152439107Y-103394584D01*
X152336661Y-103341534D01*
X152200938Y-103231978D01*
X152159435Y-103194438D01*
X151981415Y-103030645D01*
X151857938Y-102921219D01*
X151773793Y-102859979D01*
X151713774Y-102840745D01*
X151662669Y-102857339D01*
X151605272Y-102903580D01*
X151554895Y-102948798D01*
X151433909Y-103086260D01*
X151332519Y-103253166D01*
X151311763Y-103300962D01*
X151232075Y-103509621D01*
X151571762Y-103851590D01*
X151911448Y-104193558D01*
X151752361Y-104258137D01*
X151521429Y-104326212D01*
X151283567Y-104353938D01*
X151085273Y-104337191D01*
X150792663Y-104223505D01*
X150551233Y-104033840D01*
X150360647Y-103767740D01*
X150220567Y-103424752D01*
X150139128Y-103060981D01*
X150109259Y-102909090D01*
X150065150Y-102797586D01*
X149988198Y-102694006D01*
X149859801Y-102565887D01*
X149850266Y-102556909D01*
X149692645Y-102411089D01*
X149472641Y-102211094D01*
X149197532Y-101963399D01*
X148874595Y-101674481D01*
X148511107Y-101350815D01*
X148114346Y-100998876D01*
X147691589Y-100625140D01*
X147250114Y-100236082D01*
X146797198Y-99838179D01*
X146640273Y-99700608D01*
X145335637Y-98557510D01*
X145335637Y-97770906D01*
X145338065Y-97485589D01*
X145344975Y-97257001D01*
X145355801Y-97095167D01*
X145369981Y-97010110D01*
X145379031Y-96999697D01*
X145424176Y-97033782D01*
G36*
X149355991Y-102538661D02*
X149516333Y-102691541D01*
X149647657Y-102828812D01*
X149736423Y-102935466D01*
X149769091Y-102996495D01*
X149769091Y-102996546D01*
X149735369Y-103067827D01*
X149648238Y-103168398D01*
X149560419Y-103247865D01*
X149421219Y-103380527D01*
X149271629Y-103551386D01*
X149166153Y-103692155D01*
X149067206Y-103830297D01*
X148981539Y-103919550D01*
X148896580Y-103957109D01*
X148799761Y-103940171D01*
X148678509Y-103865935D01*
X148520256Y-103731597D01*
X148312430Y-103534353D01*
X148268928Y-103492091D01*
X148063792Y-103288119D01*
X147920810Y-103134607D01*
X147832030Y-103021881D01*
X147789496Y-102940269D01*
X147782861Y-102900963D01*
X147813629Y-102769620D01*
X147891877Y-102687286D01*
X147952413Y-102672363D01*
X148068054Y-102649593D01*
X148233002Y-102589827D01*
X148418784Y-102505884D01*
X148596928Y-102410581D01*
X148734124Y-102320457D01*
X148942890Y-102161102D01*
X149355991Y-102538661D01*
X149355991Y-102538661D01*
G37*
X149355991Y-102538661D02*
X149516333Y-102691541D01*
X149647657Y-102828812D01*
X149736423Y-102935466D01*
X149769091Y-102996495D01*
X149769091Y-102996546D01*
X149735369Y-103067827D01*
X149648238Y-103168398D01*
X149560419Y-103247865D01*
X149421219Y-103380527D01*
X149271629Y-103551386D01*
X149166153Y-103692155D01*
X149067206Y-103830297D01*
X148981539Y-103919550D01*
X148896580Y-103957109D01*
X148799761Y-103940171D01*
X148678509Y-103865935D01*
X148520256Y-103731597D01*
X148312430Y-103534353D01*
X148268928Y-103492091D01*
X148063792Y-103288119D01*
X147920810Y-103134607D01*
X147832030Y-103021881D01*
X147789496Y-102940269D01*
X147782861Y-102900963D01*
X147813629Y-102769620D01*
X147891877Y-102687286D01*
X147952413Y-102672363D01*
X148068054Y-102649593D01*
X148233002Y-102589827D01*
X148418784Y-102505884D01*
X148596928Y-102410581D01*
X148734124Y-102320457D01*
X148942890Y-102161102D01*
X149355991Y-102538661D01*
G36*
X153920548Y-97970902D02*
X153968348Y-98066907D01*
X153973166Y-98076710D01*
X154043678Y-98186239D01*
X154153723Y-98322559D01*
X154239765Y-98415326D01*
X154342200Y-98526188D01*
X154408702Y-98612817D01*
X154424492Y-98651639D01*
X154387212Y-98693965D01*
X154293987Y-98786696D01*
X154157093Y-98917973D01*
X153988808Y-99075935D01*
X153902364Y-99156020D01*
X153695709Y-99351634D01*
X153489042Y-99555848D01*
X153303926Y-99746817D01*
X153161924Y-99902696D01*
X153140364Y-99928014D01*
X153023460Y-100058080D01*
X152854304Y-100233615D01*
X152649261Y-100438260D01*
X152424697Y-100655656D01*
X152216728Y-100851195D01*
X151987313Y-101062981D01*
X151813854Y-101220044D01*
X151684676Y-101330566D01*
X151588102Y-101402729D01*
X151512458Y-101444715D01*
X151446068Y-101464706D01*
X151377255Y-101470883D01*
X151331727Y-101471360D01*
X151222257Y-101465404D01*
X151124327Y-101440134D01*
X151015188Y-101384918D01*
X150872089Y-101289123D01*
X150748158Y-101198630D01*
X150588539Y-101077866D01*
X150457531Y-100974237D01*
X150372773Y-100901938D01*
X150351247Y-100879173D01*
X150370121Y-100824856D01*
X150456748Y-100721170D01*
X150604656Y-100573716D01*
X150807375Y-100388094D01*
X151058433Y-100169907D01*
X151351357Y-99924755D01*
X151679677Y-99658240D01*
X152036922Y-99375962D01*
X152416619Y-99083523D01*
X152491903Y-99026412D01*
X152746861Y-98831804D01*
X152999779Y-98635751D01*
X153232722Y-98452372D01*
X153427756Y-98295790D01*
X153566945Y-98180124D01*
X153568401Y-98178872D01*
X153708502Y-98060839D01*
X153819266Y-97972339D01*
X153884659Y-97925947D01*
X153895323Y-97922459D01*
X153920548Y-97970902D01*
X153920548Y-97970902D01*
G37*
X153920548Y-97970902D02*
X153968348Y-98066907D01*
X153973166Y-98076710D01*
X154043678Y-98186239D01*
X154153723Y-98322559D01*
X154239765Y-98415326D01*
X154342200Y-98526188D01*
X154408702Y-98612817D01*
X154424492Y-98651639D01*
X154387212Y-98693965D01*
X154293987Y-98786696D01*
X154157093Y-98917973D01*
X153988808Y-99075935D01*
X153902364Y-99156020D01*
X153695709Y-99351634D01*
X153489042Y-99555848D01*
X153303926Y-99746817D01*
X153161924Y-99902696D01*
X153140364Y-99928014D01*
X153023460Y-100058080D01*
X152854304Y-100233615D01*
X152649261Y-100438260D01*
X152424697Y-100655656D01*
X152216728Y-100851195D01*
X151987313Y-101062981D01*
X151813854Y-101220044D01*
X151684676Y-101330566D01*
X151588102Y-101402729D01*
X151512458Y-101444715D01*
X151446068Y-101464706D01*
X151377255Y-101470883D01*
X151331727Y-101471360D01*
X151222257Y-101465404D01*
X151124327Y-101440134D01*
X151015188Y-101384918D01*
X150872089Y-101289123D01*
X150748158Y-101198630D01*
X150588539Y-101077866D01*
X150457531Y-100974237D01*
X150372773Y-100901938D01*
X150351247Y-100879173D01*
X150370121Y-100824856D01*
X150456748Y-100721170D01*
X150604656Y-100573716D01*
X150807375Y-100388094D01*
X151058433Y-100169907D01*
X151351357Y-99924755D01*
X151679677Y-99658240D01*
X152036922Y-99375962D01*
X152416619Y-99083523D01*
X152491903Y-99026412D01*
X152746861Y-98831804D01*
X152999779Y-98635751D01*
X153232722Y-98452372D01*
X153427756Y-98295790D01*
X153566945Y-98180124D01*
X153568401Y-98178872D01*
X153708502Y-98060839D01*
X153819266Y-97972339D01*
X153884659Y-97925947D01*
X153895323Y-97922459D01*
X153920548Y-97970902D01*
G36*
X156522904Y-93006140D02*
X156594001Y-93045358D01*
X156691734Y-93132679D01*
X156770536Y-93209929D01*
X156940352Y-93404460D01*
X157046986Y-93585691D01*
X157063845Y-93632350D01*
X157158649Y-93839664D01*
X157294307Y-93988950D01*
X157455985Y-94066450D01*
X157540162Y-94074053D01*
X157723788Y-94108066D01*
X157916664Y-94224757D01*
X158120345Y-94425860D01*
X158336382Y-94713107D01*
X158566330Y-95088230D01*
X158742115Y-95415142D01*
X158972838Y-95885689D01*
X159158689Y-96316959D01*
X159312321Y-96741937D01*
X159446389Y-97193608D01*
X159493446Y-97373612D01*
X159548075Y-97600397D01*
X159573503Y-97753097D01*
X159566368Y-97846304D01*
X159523307Y-97894607D01*
X159440960Y-97912598D01*
X159368728Y-97914929D01*
X159295972Y-97903894D01*
X159240136Y-97856644D01*
X159184289Y-97753475D01*
X159141157Y-97650091D01*
X158927825Y-97195717D01*
X158674954Y-96809786D01*
X158522991Y-96628637D01*
X158398908Y-96483429D01*
X158295148Y-96346220D01*
X158232934Y-96245208D01*
X158230695Y-96240249D01*
X158160334Y-96127691D01*
X158066473Y-96084591D01*
X157931527Y-96107413D01*
X157812807Y-96156222D01*
X157630366Y-96230792D01*
X157427374Y-96299366D01*
X157357281Y-96319204D01*
X157265861Y-96349562D01*
X157164133Y-96398250D01*
X157043766Y-96471445D01*
X156896431Y-96575330D01*
X156713797Y-96716083D01*
X156487535Y-96899885D01*
X156209313Y-97132916D01*
X155870802Y-97421356D01*
X155865091Y-97426248D01*
X155721527Y-97543571D01*
X155599470Y-97633000D01*
X155518990Y-97680197D01*
X155504208Y-97684087D01*
X155439876Y-97656018D01*
X155331893Y-97582137D01*
X155215594Y-97488454D01*
X155089924Y-97373941D01*
X155021553Y-97287066D01*
X154993979Y-97199931D01*
X154990254Y-97107454D01*
X154998188Y-97007467D01*
X155028959Y-96926930D01*
X155097929Y-96842919D01*
X155220456Y-96732511D01*
X155268754Y-96691818D01*
X155389982Y-96583241D01*
X155559109Y-96422068D01*
X155761205Y-96223402D01*
X155981340Y-96002351D01*
X156204586Y-95774019D01*
X156416012Y-95553512D01*
X156600689Y-95355936D01*
X156720804Y-95222642D01*
X156795449Y-95112784D01*
X156829002Y-94982402D01*
X156834737Y-94853188D01*
X156798835Y-94593838D01*
X156690691Y-94391689D01*
X156509021Y-94245133D01*
X156280728Y-94159222D01*
X156182917Y-94100150D01*
X156063332Y-93974546D01*
X155988637Y-93874671D01*
X155890422Y-93721589D01*
X155842736Y-93612035D01*
X155835744Y-93519626D01*
X155842125Y-93481614D01*
X155911504Y-93343519D01*
X156045387Y-93205408D01*
X156218564Y-93089220D01*
X156362828Y-93028498D01*
X156453996Y-93004146D01*
X156522904Y-93006140D01*
X156522904Y-93006140D01*
G37*
X156522904Y-93006140D02*
X156594001Y-93045358D01*
X156691734Y-93132679D01*
X156770536Y-93209929D01*
X156940352Y-93404460D01*
X157046986Y-93585691D01*
X157063845Y-93632350D01*
X157158649Y-93839664D01*
X157294307Y-93988950D01*
X157455985Y-94066450D01*
X157540162Y-94074053D01*
X157723788Y-94108066D01*
X157916664Y-94224757D01*
X158120345Y-94425860D01*
X158336382Y-94713107D01*
X158566330Y-95088230D01*
X158742115Y-95415142D01*
X158972838Y-95885689D01*
X159158689Y-96316959D01*
X159312321Y-96741937D01*
X159446389Y-97193608D01*
X159493446Y-97373612D01*
X159548075Y-97600397D01*
X159573503Y-97753097D01*
X159566368Y-97846304D01*
X159523307Y-97894607D01*
X159440960Y-97912598D01*
X159368728Y-97914929D01*
X159295972Y-97903894D01*
X159240136Y-97856644D01*
X159184289Y-97753475D01*
X159141157Y-97650091D01*
X158927825Y-97195717D01*
X158674954Y-96809786D01*
X158522991Y-96628637D01*
X158398908Y-96483429D01*
X158295148Y-96346220D01*
X158232934Y-96245208D01*
X158230695Y-96240249D01*
X158160334Y-96127691D01*
X158066473Y-96084591D01*
X157931527Y-96107413D01*
X157812807Y-96156222D01*
X157630366Y-96230792D01*
X157427374Y-96299366D01*
X157357281Y-96319204D01*
X157265861Y-96349562D01*
X157164133Y-96398250D01*
X157043766Y-96471445D01*
X156896431Y-96575330D01*
X156713797Y-96716083D01*
X156487535Y-96899885D01*
X156209313Y-97132916D01*
X155870802Y-97421356D01*
X155865091Y-97426248D01*
X155721527Y-97543571D01*
X155599470Y-97633000D01*
X155518990Y-97680197D01*
X155504208Y-97684087D01*
X155439876Y-97656018D01*
X155331893Y-97582137D01*
X155215594Y-97488454D01*
X155089924Y-97373941D01*
X155021553Y-97287066D01*
X154993979Y-97199931D01*
X154990254Y-97107454D01*
X154998188Y-97007467D01*
X155028959Y-96926930D01*
X155097929Y-96842919D01*
X155220456Y-96732511D01*
X155268754Y-96691818D01*
X155389982Y-96583241D01*
X155559109Y-96422068D01*
X155761205Y-96223402D01*
X155981340Y-96002351D01*
X156204586Y-95774019D01*
X156416012Y-95553512D01*
X156600689Y-95355936D01*
X156720804Y-95222642D01*
X156795449Y-95112784D01*
X156829002Y-94982402D01*
X156834737Y-94853188D01*
X156798835Y-94593838D01*
X156690691Y-94391689D01*
X156509021Y-94245133D01*
X156280728Y-94159222D01*
X156182917Y-94100150D01*
X156063332Y-93974546D01*
X155988637Y-93874671D01*
X155890422Y-93721589D01*
X155842736Y-93612035D01*
X155835744Y-93519626D01*
X155842125Y-93481614D01*
X155911504Y-93343519D01*
X156045387Y-93205408D01*
X156218564Y-93089220D01*
X156362828Y-93028498D01*
X156453996Y-93004146D01*
X156522904Y-93006140D01*
G36*
X142583746Y-94049537D02*
X142801529Y-94081389D01*
X142870123Y-94100968D01*
X143119534Y-94213745D01*
X143349795Y-94369536D01*
X143534714Y-94548118D01*
X143628911Y-94686833D01*
X143688359Y-94833317D01*
X143747046Y-95026403D01*
X143787333Y-95200576D01*
X143830134Y-95389558D01*
X143883193Y-95523151D01*
X143964340Y-95638019D01*
X144039280Y-95718672D01*
X144229424Y-95912415D01*
X144204182Y-97579013D01*
X143522756Y-97008416D01*
X142841329Y-96437818D01*
X142447545Y-96437818D01*
X142158517Y-96424756D01*
X141933044Y-96379649D01*
X141745269Y-96293618D01*
X141569334Y-96157783D01*
X141533269Y-96123836D01*
X141328903Y-95883218D01*
X141207877Y-95629070D01*
X141161354Y-95342015D01*
X141160386Y-95306363D01*
X141156182Y-95029272D01*
X141328422Y-95014995D01*
X141435623Y-95016023D01*
X141529095Y-95048949D01*
X141638410Y-95127718D01*
X141720968Y-95200126D01*
X141893938Y-95356630D01*
X142012937Y-95460235D01*
X142093384Y-95518997D01*
X142150698Y-95540976D01*
X142200299Y-95534230D01*
X142257606Y-95506817D01*
X142282656Y-95493666D01*
X142437452Y-95364699D01*
X142536202Y-95179144D01*
X142565009Y-94996929D01*
X142556246Y-94918750D01*
X142521484Y-94841779D01*
X142448487Y-94749548D01*
X142325014Y-94625588D01*
X142208293Y-94516893D01*
X142050121Y-94370723D01*
X141951730Y-94273775D01*
X141904761Y-94212911D01*
X141900859Y-94174996D01*
X141931668Y-94146893D01*
X141962129Y-94129923D01*
X142128415Y-94074940D01*
X142347497Y-94047766D01*
X142583746Y-94049537D01*
X142583746Y-94049537D01*
G37*
X142583746Y-94049537D02*
X142801529Y-94081389D01*
X142870123Y-94100968D01*
X143119534Y-94213745D01*
X143349795Y-94369536D01*
X143534714Y-94548118D01*
X143628911Y-94686833D01*
X143688359Y-94833317D01*
X143747046Y-95026403D01*
X143787333Y-95200576D01*
X143830134Y-95389558D01*
X143883193Y-95523151D01*
X143964340Y-95638019D01*
X144039280Y-95718672D01*
X144229424Y-95912415D01*
X144204182Y-97579013D01*
X143522756Y-97008416D01*
X142841329Y-96437818D01*
X142447545Y-96437818D01*
X142158517Y-96424756D01*
X141933044Y-96379649D01*
X141745269Y-96293618D01*
X141569334Y-96157783D01*
X141533269Y-96123836D01*
X141328903Y-95883218D01*
X141207877Y-95629070D01*
X141161354Y-95342015D01*
X141160386Y-95306363D01*
X141156182Y-95029272D01*
X141328422Y-95014995D01*
X141435623Y-95016023D01*
X141529095Y-95048949D01*
X141638410Y-95127718D01*
X141720968Y-95200126D01*
X141893938Y-95356630D01*
X142012937Y-95460235D01*
X142093384Y-95518997D01*
X142150698Y-95540976D01*
X142200299Y-95534230D01*
X142257606Y-95506817D01*
X142282656Y-95493666D01*
X142437452Y-95364699D01*
X142536202Y-95179144D01*
X142565009Y-94996929D01*
X142556246Y-94918750D01*
X142521484Y-94841779D01*
X142448487Y-94749548D01*
X142325014Y-94625588D01*
X142208293Y-94516893D01*
X142050121Y-94370723D01*
X141951730Y-94273775D01*
X141904761Y-94212911D01*
X141900859Y-94174996D01*
X141931668Y-94146893D01*
X141962129Y-94129923D01*
X142128415Y-94074940D01*
X142347497Y-94047766D01*
X142583746Y-94049537D01*
D12*
X133286812Y-112128689D02*
X132886812Y-111435869D01*
X133051769Y-111340631D01*
X133169791Y-111316479D01*
X133273870Y-111344366D01*
X133344956Y-111391302D01*
X133454138Y-111504220D01*
X133511281Y-111603195D01*
X133554480Y-111754208D01*
X133559584Y-111839238D01*
X133531696Y-111943317D01*
X133451769Y-112033451D01*
X133286812Y-112128689D01*
X133513650Y-111073964D02*
X133942539Y-110826345D01*
X133863979Y-111223610D01*
X133962954Y-111166467D01*
X134047984Y-111161363D01*
X134100024Y-111175306D01*
X134171110Y-111222242D01*
X134266348Y-111387199D01*
X134271452Y-111472229D01*
X134257508Y-111524269D01*
X134210573Y-111595355D01*
X134012624Y-111709641D01*
X133927594Y-111714745D01*
X133875555Y-111700801D01*
X131776044Y-108707656D02*
X131894066Y-108683504D01*
X131946105Y-108697449D01*
X132017191Y-108744384D01*
X132074334Y-108843358D01*
X132079438Y-108928388D01*
X132065495Y-108980428D01*
X132018559Y-109051514D01*
X131754627Y-109203895D01*
X131354627Y-108511075D01*
X131585568Y-108377742D01*
X131670598Y-108372638D01*
X131722637Y-108386581D01*
X131793724Y-108433517D01*
X131831819Y-108499499D01*
X131836923Y-108584530D01*
X131822979Y-108636569D01*
X131776044Y-108707656D01*
X131545103Y-108840989D01*
X132546422Y-108746752D02*
X132461391Y-108751857D01*
X132390305Y-108704921D01*
X132047448Y-108111075D01*
X132840610Y-107961062D02*
X133107277Y-108422943D01*
X132543687Y-108132491D02*
X132753211Y-108495397D01*
X132824298Y-108542333D01*
X132909328Y-108537228D01*
X133008303Y-108480085D01*
X133055238Y-108408999D01*
X133069181Y-108356960D01*
X167440453Y-108507124D02*
X167840453Y-107814304D01*
X168005410Y-107909542D01*
X168085337Y-107999676D01*
X168113226Y-108103754D01*
X168108121Y-108188785D01*
X168064922Y-108339798D01*
X168007779Y-108438773D01*
X167898597Y-108551691D01*
X167827511Y-108598626D01*
X167723432Y-108626514D01*
X167605410Y-108602362D01*
X167440453Y-108507124D01*
X168462187Y-108261239D02*
X168514226Y-108247295D01*
X168599257Y-108252399D01*
X168764214Y-108347637D01*
X168811149Y-108418723D01*
X168825094Y-108470763D01*
X168819989Y-108555793D01*
X168781894Y-108621776D01*
X168691760Y-108701703D01*
X168067291Y-108869029D01*
X168496180Y-109116648D01*
X166054552Y-110636603D02*
X166007616Y-110565516D01*
X165908642Y-110508374D01*
X165790620Y-110484222D01*
X165686542Y-110512109D01*
X165615455Y-110559045D01*
X165506273Y-110671963D01*
X165449130Y-110770938D01*
X165405931Y-110921951D01*
X165400827Y-111006981D01*
X165428715Y-111111060D01*
X165508642Y-111201194D01*
X165574625Y-111239289D01*
X165692647Y-111263441D01*
X165744686Y-111249496D01*
X165878019Y-111018557D01*
X165746053Y-110942366D01*
X166003513Y-111486908D02*
X166270180Y-111025027D01*
X166193990Y-111156993D02*
X166265076Y-111110058D01*
X166317116Y-111096115D01*
X166402146Y-111101218D01*
X166468130Y-111139313D01*
X166699069Y-111272646D02*
X166432402Y-111734527D01*
X166660974Y-111338629D02*
X166713012Y-111324686D01*
X166798044Y-111329789D01*
X166897018Y-111386932D01*
X166943953Y-111458019D01*
X166938849Y-111543049D01*
X166729325Y-111905955D01*
X148611905Y-83581501D02*
X147811905Y-83581501D01*
X147811905Y-83391025D01*
X147850000Y-83276739D01*
X147926190Y-83200548D01*
X148002381Y-83162453D01*
X148154762Y-83124358D01*
X148269048Y-83124358D01*
X148421429Y-83162453D01*
X148497619Y-83200548D01*
X148573810Y-83276739D01*
X148611905Y-83391025D01*
X148611905Y-83581501D01*
X148611905Y-82362453D02*
X148611905Y-82819596D01*
X148611905Y-82591025D02*
X147811905Y-82591025D01*
X147926190Y-82667215D01*
X148002381Y-82743406D01*
X148040476Y-82819596D01*
X151910943Y-83774130D02*
X151529990Y-84040797D01*
X151910943Y-84231273D02*
X151110943Y-84231273D01*
X151110943Y-83926511D01*
X151149038Y-83850320D01*
X151187133Y-83812225D01*
X151263324Y-83774130D01*
X151377609Y-83774130D01*
X151453800Y-83812225D01*
X151491895Y-83850320D01*
X151529990Y-83926511D01*
X151529990Y-84231273D01*
X151872848Y-83126511D02*
X151910943Y-83202701D01*
X151910943Y-83355082D01*
X151872848Y-83431273D01*
X151796657Y-83469368D01*
X151491895Y-83469368D01*
X151415705Y-83431273D01*
X151377609Y-83355082D01*
X151377609Y-83202701D01*
X151415705Y-83126511D01*
X151491895Y-83088416D01*
X151568086Y-83088416D01*
X151644276Y-83469368D01*
X151910943Y-82402702D02*
X151110943Y-82402702D01*
X151872848Y-82402702D02*
X151910943Y-82478892D01*
X151910943Y-82631273D01*
X151872848Y-82707464D01*
X151834752Y-82745559D01*
X151758562Y-82783654D01*
X151529990Y-82783654D01*
X151453800Y-82745559D01*
X151415705Y-82707464D01*
X151377609Y-82631273D01*
X151377609Y-82478892D01*
X151415705Y-82402702D01*
%LPC*%
D13*
X150000000Y-75850000D03*
D14*
X154064000Y-87750000D03*
X145936000Y-87750000D03*
X134468000Y-103980473D03*
X138532000Y-111019527D03*
X165532000Y-103980473D03*
X161468000Y-111019527D03*
D15*
X145750000Y-80000000D03*
X145750000Y-78000000D03*
X154250000Y-80000000D03*
X154250000Y-78000000D03*
D16*
X158100000Y-100000000D03*
X138200000Y-100000000D03*
X136000000Y-100000000D03*
X163000000Y-100000000D03*
D17*
X131650148Y-110635000D03*
X133849852Y-109365000D03*
X168349852Y-110635000D03*
X166150148Y-109365000D03*
X150000000Y-81730000D03*
X150000000Y-84270000D03*
M02*
