M48
INCH,TZ
T1C0.031
T2C0.051
T3C0.120
%
G90
G05
T1
X051831Y-043557
X052697Y-043057
X052940Y-040937
X054540Y-043708
X057382Y-030709
X057382Y-031496
X057455Y-034547
X059055Y-032177
X059055Y-033177
X060655Y-034547
X060728Y-030709
X060728Y-031496
X063570Y-043708
X065170Y-040937
X065413Y-043057
X066279Y-043557
T2
X053543Y-039370
X054409Y-039370
X062244Y-039370
X064173Y-039370
T3
X059055Y-029862
T0
M30
