  0
SECTION
  2
HEADER
  9
$ACADVER
  1
AC1009
  9
$INSBASE
 10
0.0
 20
0.0
 30
0.0
  9
$EXTMIN
 10
0.0
 20
0.0
 30
0.0
  9
$EXTMAX
 10
0.0
 20
0.0
 30
0.0
  0
ENDSEC
  0
SECTION
  2
TABLES
  0
TABLE
  2
VPORT
 70
0
  0
ENDTAB
  0
TABLE
  2
LTYPE
 70
1
  0
LTYPE
  2
CONTINUOUS
 70
0
  3
Solid line
 72
65
 73
0
 40
0.0
  0
ENDTAB
  0
TABLE
  2
LAYER
 70
1
  0
LAYER
  2
0
 70
64
 62
7
  6
continuous
  0
ENDTAB
  0
TABLE
  2
STYLE
 70
1
  0
STYLE
  2
STANDARD
 70
0
 40
0
 41
1.0
 50
0.0
 71
0
 42
1
 3
ARIAL.TTF
 4

  0
ENDTAB
  0
TABLE
  2
VIEW
 70
0
  0
ENDTAB
  0
ENDSEC
  0
SECTION
  2
BLOCKS
  0
BLOCK
  8
0
  2
FUSION
 70
0
 10
0.0
 20
0.0
 30
0.0
  3
FUSION
  0
POLYLINE
  8
0
 62
0
 70
0
 66
1
 10
0.0
 20
0.0
 30
0.0
  0
VERTEX
  8
0
 10
1392.818598
 20
-1051.613149
 30
0.0
  0
VERTEX
  8
0
 10
1395.13107671
 20
-1056.01895513
 30
0.0
  0
VERTEX
  8
0
 10
1397.18199823
 20
-1060.41906495
 30
0.0
  0
VERTEX
  8
0
 10
1398.97563482
 20
-1064.83151688
 30
0.0
  0
VERTEX
  8
0
 10
1400.51625874
 20
-1069.27434934
 30
0.0
  0
VERTEX
  8
0
 10
1401.80814225
 20
-1073.76560075
 30
0.0
  0
VERTEX
  8
0
 10
1402.85555762
 20
-1078.32330954
 30
0.0
  0
VERTEX
  8
0
 10
1403.66277712
 20
-1082.96551414
 30
0.0
  0
VERTEX
  8
0
 10
1404.23407301
 20
-1087.71025297
 30
0.0
  0
VERTEX
  8
0
 10
1404.57371755
 20
-1092.57556445
 30
0.0
  0
VERTEX
  8
0
 10
1404.685983
 20
-1097.579487
 30
0.0
  0
VERTEX
  8
0
 10
1404.56643888
 20
-1102.74725849
 30
0.0
  0
VERTEX
  8
0
 10
1404.2043254
 20
-1107.77214665
 30
0.0
  0
VERTEX
  8
0
 10
1403.59442093
 20
-1112.6726646
 30
0.0
  0
VERTEX
  8
0
 10
1402.7315038
 20
-1117.46732546
 30
0.0
  0
VERTEX
  8
0
 10
1401.61035238
 20
-1122.17464238
 30
0.0
  0
VERTEX
  8
0
 10
1400.225745
 20
-1126.81312846
 30
0.0
  0
VERTEX
  8
0
 10
1398.57246003
 20
-1131.40129683
 30
0.0
  0
VERTEX
  8
0
 10
1396.6452758
 20
-1135.95766063
 30
0.0
  0
VERTEX
  8
0
 10
1394.43897068
 20
-1140.50073298
 30
0.0
  0
VERTEX
  8
0
 10
1391.948323
 20
-1145.049027
 30
0.0
  0
VERTEX
  8
0
 10
1389.26906305
 20
-1149.45641558
 30
0.0
  0
VERTEX
  8
0
 10
1386.44502102
 20
-1153.62076009
 30
0.0
  0
VERTEX
  8
0
 10
1383.4643295
 20
-1157.55535201
 30
0.0
  0
VERTEX
  8
0
 10
1380.31512113
 20
-1161.27348282
 30
0.0
  0
VERTEX
  8
0
 10
1376.9855285
 20
-1164.788444
 30
0.0
  0
VERTEX
  8
0
 10
1373.46368423
 20
-1168.11352702
 30
0.0
  0
VERTEX
  8
0
 10
1369.73772094
 20
-1171.26202335
 30
0.0
  0
VERTEX
  8
0
 10
1365.79577122
 20
-1174.24722447
 30
0.0
  0
VERTEX
  8
0
 10
1361.62596771
 20
-1177.08242186
 30
0.0
  0
VERTEX
  8
0
 10
1357.216443
 20
-1179.780907
 30
0.0
  0
VERTEX
  8
0
 10
1352.68737417
 20
-1182.25232949
 30
0.0
  0
VERTEX
  8
0
 10
1348.15545718
 20
-1184.44747926
 30
0.0
  0
VERTEX
  8
0
 10
1343.60360299
 20
-1186.37015387
 30
0.0
  0
VERTEX
  8
0
 10
1339.01472257
 20
-1188.02415089
 30
0.0
  0
VERTEX
  8
0
 10
1334.37172687
 20
-1189.41326788
 30
0.0
  0
VERTEX
  8
0
 10
1329.65752687
 20
-1190.54130239
 30
0.0
  0
VERTEX
  8
0
 10
1324.85503352
 20
-1191.412052
 30
0.0
  0
VERTEX
  8
0
 10
1319.94715778
 20
-1192.02931426
 30
0.0
  0
VERTEX
  8
0
 10
1314.91681062
 20
-1192.39688674
 30
0.0
  0
VERTEX
  8
0
 10
1309.746903
 20
-1192.518567
 30
0.0
  0
VERTEX
  8
0
 10
1308.006353
 20
-1192.439451
 30
0.0
  0
SEQEND
  8
0
  0
POLYLINE
  8
0
 62
0
 70
0
 66
1
 10
0.0
 20
0.0
 30
0.0
  0
VERTEX
  8
0
 10
1070.658652
 20
-1192.439451
 30
0.0
  0
VERTEX
  8
0
 10
1066.68972382
 20
-1195.71141773
 30
0.0
  0
VERTEX
  8
0
 10
1062.7535496
 20
-1198.90820455
 30
0.0
  0
VERTEX
  8
0
 10
1058.84372098
 20
-1202.03414307
 30
0.0
  0
VERTEX
  8
0
 10
1054.95382955
 20
-1205.09356487
 30
0.0
  0
VERTEX
  8
0
 10
1051.07746694
 20
-1208.09080156
 30
0.0
  0
VERTEX
  8
0
 10
1047.20822475
 20
-1211.03018474
 30
0.0
  0
VERTEX
  8
0
 10
1043.3396946
 20
-1213.916046
 30
0.0
  0
VERTEX
  8
0
 10
1039.4654681
 20
-1216.75271694
 30
0.0
  0
VERTEX
  8
0
 10
1035.57913686
 20
-1219.54452915
 30
0.0
  0
VERTEX
  8
0
 10
1031.6742925
 20
-1222.29581425
 30
0.0
  0
VERTEX
  8
0
 10
1027.74452663
 20
-1225.01090382
 30
0.0
  0
VERTEX
  8
0
 10
1023.78343086
 20
-1227.69412946
 30
0.0
  0
VERTEX
  8
0
 10
1019.78459681
 20
-1230.34982278
 30
0.0
  0
VERTEX
  8
0
 10
1015.74161609
 20
-1232.98231536
 30
0.0
  0
VERTEX
  8
0
 10
1011.64808031
 20
-1235.59593881
 30
0.0
  0
VERTEX
  8
0
 10
1007.49758109
 20
-1238.19502473
 30
0.0
  0
VERTEX
  8
0
 10
1003.28371003
 20
-1240.78390471
 30
0.0
  0
VERTEX
  8
0
 10
999.000058756
 20
-1243.36691035
 30
0.0
  0
VERTEX
  8
0
 10
994.640218874
 20
-1245.94837324
 30
0.0
  0
VERTEX
  8
0
 10
990.197782
 20
-1248.532625
 30
0.0
  0
VERTEX
  8
0
 10
985.654545104
 20
-1251.13173396
 30
0.0
  0
VERTEX
  8
0
 10
981.113767631
 20
-1253.68414948
 30
0.0
  0
VERTEX
  8
0
 10
976.574974845
 20
-1256.18999704
 30
0.0
  0
VERTEX
  8
0
 10
972.037692012
 20
-1258.64940213
 30
0.0
  0
VERTEX
  8
0
 10
967.501444396
 20
-1261.06249021
 30
0.0
  0
VERTEX
  8
0
 10
962.965757262
 20
-1263.42938678
 30
0.0
  0
VERTEX
  8
0
 10
958.430155875
 20
-1265.75021731
 30
0.0
  0
VERTEX
  8
0
 10
953.894165499
 20
-1268.02510728
 30
0.0
  0
VERTEX
  8
0
 10
949.3573114
 20
-1270.25418218
 30
0.0
  0
VERTEX
  8
0
 10
944.819118842
 20
-1272.43756748
 30
0.0
  0
VERTEX
  8
0
 10
940.27911309
 20
-1274.57538867
 30
0.0
  0
VERTEX
  8
0
 10
935.736819408
 20
-1276.66777122
 30
0.0
  0
VERTEX
  8
0
 10
931.191763063
 20
-1278.71484062
 30
0.0
  0
VERTEX
  8
0
 10
926.643469317
 20
-1280.71672235
 30
0.0
  0
VERTEX
  8
0
 10
922.091463437
 20
-1282.67354188
 30
0.0
  0
VERTEX
  8
0
 10
917.535270686
 20
-1284.5854247
 30
0.0
  0
VERTEX
  8
0
 10
912.97441633
 20
-1286.45249629
 30
0.0
  0
VERTEX
  8
0
 10
908.408425634
 20
-1288.27488213
 30
0.0
  0
VERTEX
  8
0
 10
903.836823862
 20
-1290.0527077
 30
0.0
  0
VERTEX
  8
0
 10
899.259136279
 20
-1291.78609849
 30
0.0
  0
VERTEX
  8
0
 10
894.67488815
 20
-1293.47517996
 30
0.0
  0
VERTEX
  8
0
 10
890.08360474
 20
-1295.1200776
 30
0.0
  0
VERTEX
  8
0
 10
885.484811313
 20
-1296.7209169
 30
0.0
  0
VERTEX
  8
0
 10
880.878033135
 20
-1298.27782333
 30
0.0
  0
VERTEX
  8
0
 10
876.262795469
 20
-1299.79092237
 30
0.0
  0
VERTEX
  8
0
 10
871.638623581
 20
-1301.26033951
 30
0.0
  0
VERTEX
  8
0
 10
867.005042736
 20
-1302.68620023
 30
0.0
  0
VERTEX
  8
0
 10
862.361578199
 20
-1304.06862999
 30
0.0
  0
VERTEX
  8
0
 10
857.707755233
 20
-1305.4077543
 30
0.0
  0
VERTEX
  8
0
 10
853.043099105
 20
-1306.70369862
 30
0.0
  0
VERTEX
  8
0
 10
848.367135079
 20
-1307.95658844
 30
0.0
  0
VERTEX
  8
0
 10
843.679388419
 20
-1309.16654924
 30
0.0
  0
VERTEX
  8
0
 10
838.97938439
 20
-1310.33370649
 30
0.0
  0
VERTEX
  8
0
 10
834.266648258
 20
-1311.45818568
 30
0.0
  0
VERTEX
  8
0
 10
829.540705286
 20
-1312.5401123
 30
0.0
  0
VERTEX
  8
0
 10
824.801080741
 20
-1313.57961181
 30
0.0
  0
VERTEX
  8
0
 10
820.047299886
 20
-1314.57680971
 30
0.0
  0
VERTEX
  8
0
 10
815.278887986
 20
-1315.53183146
 30
0.0
  0
VERTEX
  8
0
 10
810.495370307
 20
-1316.44480256
 30
0.0
  0
VERTEX
  8
0
 10
805.696272112
 20
-1317.31584848
 30
0.0
  0
VERTEX
  8
0
 10
800.881118667
 20
-1318.14509471
 30
0.0
  0
VERTEX
  8
0
 10
796.049435237
 20
-1318.93266671
 30
0.0
  0
VERTEX
  8
0
 10
791.200747086
 20
-1319.67868999
 30
0.0
  0
VERTEX
  8
0
 10
786.33457948
 20
-1320.38329
 30
0.0
  0
VERTEX
  8
0
 10
781.450457682
 20
-1321.04659225
 30
0.0
  0
VERTEX
  8
0
 10
776.547906958
 20
-1321.6687222
 30
0.0
  0
VERTEX
  8
0
 10
771.626452572
 20
-1322.24980533
 30
0.0
  0
VERTEX
  8
0
 10
766.68561979
 20
-1322.78996714
 30
0.0
  0
VERTEX
  8
0
 10
761.724933875
 20
-1323.28933309
 30
0.0
  0
VERTEX
  8
0
 10
756.743920094
 20
-1323.74802867
 30
0.0
  0
VERTEX
  8
0
 10
751.74210371
 20
-1324.16617936
 30
0.0
  0
VERTEX
  8
0
 10
746.719009989
 20
-1324.54391064
 30
0.0
  0
VERTEX
  8
0
 10
741.674164195
 20
-1324.88134799
 30
0.0
  0
VERTEX
  8
0
 10
736.607091593
 20
-1325.17861689
 30
0.0
  0
VERTEX
  8
0
 10
731.517317448
 20
-1325.43584282
 30
0.0
  0
VERTEX
  8
0
 10
726.404367025
 20
-1325.65315127
 30
0.0
  0
VERTEX
  8
0
 10
721.267765588
 20
-1325.83066771
 30
0.0
  0
VERTEX
  8
0
 10
716.107038402
 20
-1325.96851762
 30
0.0
  0
VERTEX
  8
0
 10
710.921710732
 20
-1326.06682648
 30
0.0
  0
VERTEX
  8
0
 10
705.711307843
 20
-1326.12571978
 30
0.0
  0
VERTEX
  8
0
 10
700.475355
 20
-1326.145323
 30
0.0
  0
VERTEX
  8
0
 10
695.243229718
 20
-1326.12571978
 30
0.0
  0
VERTEX
  8
0
 10
690.036528906
 20
-1326.06682648
 30
0.0
  0
VERTEX
  8
0
 10
684.85477992
 20
-1325.96851762
 30
0.0
  0
VERTEX
  8
0
 10
679.697510118
 20
-1325.83066771
 30
0.0
  0
VERTEX
  8
0
 10
674.564246854
 20
-1325.65315127
 30
0.0
  0
VERTEX
  8
0
 10
669.454517486
 20
-1325.43584282
 30
0.0
  0
VERTEX
  8
0
 10
664.36784937
 20
-1325.17861689
 30
0.0
  0
VERTEX
  8
0
 10
659.303769861
 20
-1324.88134799
 30
0.0
  0
VERTEX
  8
0
 10
654.261806316
 20
-1324.54391064
 30
0.0
  0
VERTEX
  8
0
 10
649.241486092
 20
-1324.16617936
 30
0.0
  0
VERTEX
  8
0
 10
644.242336543
 20
-1323.74802867
 30
0.0
  0
VERTEX
  8
0
 10
639.263885028
 20
-1323.28933309
 30
0.0
  0
VERTEX
  8
0
 10
634.305658901
 20
-1322.78996714
 30
0.0
  0
VERTEX
  8
0
 10
629.367185519
 20
-1322.24980533
 30
0.0
  0
VERTEX
  8
0
 10
624.447992239
 20
-1321.6687222
 30
0.0
  0
VERTEX
  8
0
 10
619.547606416
 20
-1321.04659225
 30
0.0
  0
VERTEX
  8
0
 10
614.665555407
 20
-1320.38329
 30
0.0
  0
VERTEX
  8
0
 10
609.801366568
 20
-1319.67868999
 30
0.0
  0
VERTEX
  8
0
 10
604.954567255
 20
-1318.93266671
 30
0.0
  0
VERTEX
  8
0
 10
600.124684824
 20
-1318.14509471
 30
0.0
  0
VERTEX
  8
0
 10
595.311246632
 20
-1317.31584848
 30
0.0
  0
VERTEX
  8
0
 10
590.513780035
 20
-1316.44480256
 30
0.0
  0
VERTEX
  8
0
 10
585.731812389
 20
-1315.53183146
 30
0.0
  0
VERTEX
  8
0
 10
580.96487105
 20
-1314.57680971
 30
0.0
  0
VERTEX
  8
0
 10
576.212483374
 20
-1313.57961181
 30
0.0
  0
VERTEX
  8
0
 10
571.474176719
 20
-1312.5401123
 30
0.0
  0
VERTEX
  8
0
 10
566.749478439
 20
-1311.45818568
 30
0.0
  0
VERTEX
  8
0
 10
562.037915891
 20
-1310.33370649
 30
0.0
  0
VERTEX
  8
0
 10
557.339016432
 20
-1309.16654924
 30
0.0
  0
VERTEX
  8
0
 10
552.652307417
 20
-1307.95658844
 30
0.0
  0
VERTEX
  8
0
 10
547.977316203
 20
-1306.70369862
 30
0.0
  0
VERTEX
  8
0
 10
543.313570146
 20
-1305.4077543
 30
0.0
  0
VERTEX
  8
0
 10
538.660596602
 20
-1304.06862999
 30
0.0
  0
VERTEX
  8
0
 10
534.017922928
 20
-1302.68620023
 30
0.0
  0
VERTEX
  8
0
 10
529.385076479
 20
-1301.26033951
 30
0.0
  0
VERTEX
  8
0
 10
524.761584613
 20
-1299.79092237
 30
0.0
  0
VERTEX
  8
0
 10
520.146974684
 20
-1298.27782333
 30
0.0
  0
VERTEX
  8
0
 10
515.54077405
 20
-1296.7209169
 30
0.0
  0
VERTEX
  8
0
 10
510.942510066
 20
-1295.1200776
 30
0.0
  0
VERTEX
  8
0
 10
506.351710089
 20
-1293.47517996
 30
0.0
  0
VERTEX
  8
0
 10
501.767901475
 20
-1291.78609849
 30
0.0
  0
VERTEX
  8
0
 10
497.19061158
 20
-1290.0527077
 30
0.0
  0
VERTEX
  8
0
 10
492.619367761
 20
-1288.27488213
 30
0.0
  0
VERTEX
  8
0
 10
488.053697373
 20
-1286.45249629
 30
0.0
  0
VERTEX
  8
0
 10
483.493127773
 20
-1284.5854247
 30
0.0
  0
VERTEX
  8
0
 10
478.937186317
 20
-1282.67354188
 30
0.0
  0
VERTEX
  8
0
 10
474.385400362
 20
-1280.71672235
 30
0.0
  0
VERTEX
  8
0
 10
469.837297263
 20
-1278.71484062
 30
0.0
  0
VERTEX
  8
0
 10
465.292404377
 20
-1276.66777122
 30
0.0
  0
VERTEX
  8
0
 10
460.75024906
 20
-1274.57538867
 30
0.0
  0
VERTEX
  8
0
 10
456.210358668
 20
-1272.43756748
 30
0.0
  0
VERTEX
  8
0
 10
451.672260557
 20
-1270.25418218
 30
0.0
  0
VERTEX
  8
0
 10
447.135482084
 20
-1268.02510728
 30
0.0
  0
VERTEX
  8
0
 10
442.599550605
 20
-1265.75021731
 30
0.0
  0
VERTEX
  8
0
 10
438.063993475
 20
-1263.42938678
 30
0.0
  0
VERTEX
  8
0
 10
433.528338053
 20
-1261.06249021
 30
0.0
  0
VERTEX
  8
0
 10
428.992111692
 20
-1258.64940213
 30
0.0
  0
VERTEX
  8
0
 10
424.454841751
 20
-1256.18999704
 30
0.0
  0
VERTEX
  8
0
 10
419.916055584
 20
-1253.68414948
 30
0.0
  0
VERTEX
  8
0
 10
415.375280548
 20
-1251.13173396
 30
0.0
  0
VERTEX
  8
0
 10
410.832044
 20
-1248.532625
 30
0.0
  0
VERTEX
  8
0
 10
406.389607125
 20
-1245.94837324
 30
0.0
  0
VERTEX
  8
0
 10
402.029767244
 20
-1243.36691035
 30
0.0
  0
VERTEX
  8
0
 10
397.746115969
 20
-1240.78390471
 30
0.0
  0
VERTEX
  8
0
 10
393.532244912
 20
-1238.19502473
 30
0.0
  0
VERTEX
  8
0
 10
389.381745688
 20
-1235.59593881
 30
0.0
  0
VERTEX
  8
0
 10
385.288209908
 20
-1232.98231536
 30
0.0
  0
VERTEX
  8
0
 10
381.245229187
 20
-1230.34982278
 30
0.0
  0
VERTEX
  8
0
 10
377.246395136
 20
-1227.69412946
 30
0.0
  0
VERTEX
  8
0
 10
373.28529937
 20
-1225.01090382
 30
0.0
  0
VERTEX
  8
0
 10
369.3555335
 20
-1222.29581425
 30
0.0
  0
VERTEX
  8
0
 10
365.450689141
 20
-1219.54452915
 30
0.0
  0
VERTEX
  8
0
 10
361.564357904
 20
-1216.75271694
 30
0.0
  0
VERTEX
  8
0
 10
357.690131404
 20
-1213.916046
 30
0.0
  0
VERTEX
  8
0
 10
353.821601252
 20
-1211.03018474
 30
0.0
  0
VERTEX
  8
0
 10
349.952359063
 20
-1208.09080156
 30
0.0
  0
VERTEX
  8
0
 10
346.075996448
 20
-1205.09356487
 30
0.0
  0
VERTEX
  8
0
 10
342.186105021
 20
-1202.03414307
 30
0.0
  0
VERTEX
  8
0
 10
338.276276396
 20
-1198.90820455
 30
0.0
  0
VERTEX
  8
0
 10
334.340102184
 20
-1195.71141773
 30
0.0
  0
VERTEX
  8
0
 10
330.371174
 20
-1192.439451
 30
0.0
  0
SEQEND
  8
0
  0
POLYLINE
  8
0
 62
0
 70
0
 66
1
 10
0.0
 20
0.0
 30
0.0
  0
VERTEX
  8
0
 10
93.023473
 20
-1192.439451
 30
0.0
  0
VERTEX
  8
0
 10
91.282923
 20
-1192.518567
 30
0.0
  0
VERTEX
  8
0
 10
86.113015377
 20
-1192.39688674
 30
0.0
  0
VERTEX
  8
0
 10
81.082668216
 20
-1192.02931426
 30
0.0
  0
VERTEX
  8
0
 10
76.174792479
 20
-1191.412052
 30
0.0
  0
VERTEX
  8
0
 10
71.372299128
 20
-1190.54130239
 30
0.0
  0
VERTEX
  8
0
 10
66.658099125
 20
-1189.41326788
 30
0.0
  0
VERTEX
  8
0
 10
62.015103432
 20
-1188.02415089
 30
0.0
  0
VERTEX
  8
0
 10
57.426223011
 20
-1186.37015387
 30
0.0
  0
VERTEX
  8
0
 10
52.874368824
 20
-1184.44747926
 30
0.0
  0
VERTEX
  8
0
 10
48.342451833
 20
-1182.25232949
 30
0.0
  0
VERTEX
  8
0
 10
43.813383
 20
-1179.780907
 30
0.0
  0
VERTEX
  8
0
 10
39.403858292
 20
-1177.08242186
 30
0.0
  0
VERTEX
  8
0
 10
35.234054776
 20
-1174.24722447
 30
0.0
  0
VERTEX
  8
0
 10
31.292105064
 20
-1171.26202335
 30
0.0
  0
VERTEX
  8
0
 10
27.566141768
 20
-1168.11352702
 30
0.0
  0
VERTEX
  8
0
 10
24.0442975
 20
-1164.788444
 30
0.0
  0
VERTEX
  8
0
 10
20.714704872
 20
-1161.27348282
 30
0.0
  0
VERTEX
  8
0
 10
17.565496496
 20
-1157.55535201
 30
0.0
  0
VERTEX
  8
0
 10
14.584804984
 20
-1153.62076009
 30
0.0
  0
VERTEX
  8
0
 10
11.760762948
 20
-1149.45641558
 30
0.0
  0
VERTEX
  8
0
 10
9.081503
 20
-1145.049027
 30
0.0
  0
VERTEX
  8
0
 10
6.590855325
 20
-1140.50073298
 30
0.0
  0
VERTEX
  8
0
 10
4.3845502
 20
-1135.95766063
 30
0.0
  0
VERTEX
  8
0
 10
2.457365975
 20
-1131.40129683
 30
0.0
  0
VERTEX
  8
0
 10
0.804081
 20
-1126.81312846
 30
0.0
  0
VERTEX
  8
0
 10
-0.580526375
 20
-1122.17464238
 30
0.0
  0
VERTEX
  8
0
 10
-1.7016778
 20
-1117.46732546
 30
0.0
  0
VERTEX
  8
0
 10
-2.564594925
 20
-1112.6726646
 30
0.0
  0
VERTEX
  8
0
 10
-3.1744994
 20
-1107.77214665
 30
0.0
  0
VERTEX
  8
0
 10
-3.536612875
 20
-1102.74725849
 30
0.0
  0
VERTEX
  8
0
 10
-3.656157
 20
-1097.579487
 30
0.0
  0
VERTEX
  8
0
 10
-3.543891546
 20
-1092.57556445
 30
0.0
  0
VERTEX
  8
0
 10
-3.204247008
 20
-1087.71025297
 30
0.0
  0
VERTEX
  8
0
 10
-2.632951122
 20
-1082.96551414
 30
0.0
  0
VERTEX
  8
0
 10
-1.825731624
 20
-1078.32330954
 30
0.0
  0
VERTEX
  8
0
 10
-0.77831625
 20
-1073.76560075
 30
0.0
  0
VERTEX
  8
0
 10
0.513567264
 20
-1069.27434934
 30
0.0
  0
VERTEX
  8
0
 10
2.054191182
 20
-1064.83151688
 30
0.0
  0
VERTEX
  8
0
 10
3.847827768
 20
-1060.41906495
 30
0.0
  0
VERTEX
  8
0
 10
5.898749286
 20
-1056.01895513
 30
0.0
  0
VERTEX
  8
0
 10
8.211228
 20
-1051.613149
 30
0.0
  0
SEQEND
  8
0
  0
POLYLINE
  8
0
 62
0
 70
0
 66
1
 10
0.0
 20
0.0
 30
0.0
  0
VERTEX
  8
0
 10
126.885078
 20
-845.990924
 30
0.0
  0
VERTEX
  8
0
 10
126.019856697
 20
-840.851663974
 30
0.0
  0
VERTEX
  8
0
 10
125.203944368
 20
-835.77714052
 30
0.0
  0
VERTEX
  8
0
 10
124.436806981
 20
-830.759699176
 30
0.0
  0
VERTEX
  8
0
 10
123.717910504
 20
-825.79168548
 30
0.0
  0
VERTEX
  8
0
 10
123.046720906
 20
-820.865444969
 30
0.0
  0
VERTEX
  8
0
 10
122.422704156
 20
-815.97332318
 30
0.0
  0
VERTEX
  8
0
 10
121.845326222
 20
-811.107665651
 30
0.0
  0
VERTEX
  8
0
 10
121.314053072
 20
-806.26081792
 30
0.0
  0
VERTEX
  8
0
 10
120.828350675
 20
-801.425125524
 30
0.0
  0
VERTEX
  8
0
 10
120.387685
 20
-796.592934
 30
0.0
  0
VERTEX
  8
0
 10
119.991522015
 20
-791.756588886
 30
0.0
  0
VERTEX
  8
0
 10
119.639327688
 20
-786.90843572
 30
0.0
  0
VERTEX
  8
0
 10
119.330567988
 20
-782.040820039
 30
0.0
  0
VERTEX
  8
0
 10
119.064708884
 20
-777.14608738
 30
0.0
  0
VERTEX
  8
0
 10
118.841216344
 20
-772.216583281
 30
0.0
  0
VERTEX
  8
0
 10
118.659556336
 20
-767.24465328
 30
0.0
  0
VERTEX
  8
0
 10
118.519194829
 20
-762.222642914
 30
0.0
  0
VERTEX
  8
0
 10
118.419597792
 20
-757.14289772
 30
0.0
  0
VERTEX
  8
0
 10
118.360231193
 20
-751.997763236
 30
0.0
  0
VERTEX
  8
0
 10
118.340561
 20
-746.779585
 30
0.0
  0
VERTEX
  8
0
 10
118.359659784
 20
-741.608615926
 30
0.0
  0
VERTEX
  8
0
 10
118.41703448
 20
-736.462147659
 30
0.0
  0
VERTEX
  8
0
 10
118.512802602
 20
-731.339736032
 30
0.0
  0
VERTEX
  8
0
 10
118.647081666
 20
-726.240936881
 30
0.0
  0
VERTEX
  8
0
 10
118.819989184
 20
-721.16530604
 30
0.0
  0
VERTEX
  8
0
 10
119.031642673
 20
-716.112399343
 30
0.0
  0
VERTEX
  8
0
 10
119.282159647
 20
-711.081772625
 30
0.0
  0
VERTEX
  8
0
 10
119.571657621
 20
-706.07298172
 30
0.0
  0
VERTEX
  8
0
 10
119.900254109
 20
-701.085582463
 30
0.0
  0
VERTEX
  8
0
 10
120.268066626
 20
-696.119130689
 30
0.0
  0
VERTEX
  8
0
 10
120.675212686
 20
-691.173182231
 30
0.0
  0
VERTEX
  8
0
 10
121.121809805
 20
-686.247292925
 30
0.0
  0
VERTEX
  8
0
 10
121.607975497
 20
-681.341018605
 30
0.0
  0
VERTEX
  8
0
 10
122.133827276
 20
-676.453915105
 30
0.0
  0
VERTEX
  8
0
 10
122.699482657
 20
-671.58553826
 30
0.0
  0
VERTEX
  8
0
 10
123.305059155
 20
-666.735443904
 30
0.0
  0
VERTEX
  8
0
 10
123.950674285
 20
-661.903187872
 30
0.0
  0
VERTEX
  8
0
 10
124.636445561
 20
-657.088325999
 30
0.0
  0
VERTEX
  8
0
 10
125.362490498
 20
-652.290414118
 30
0.0
  0
VERTEX
  8
0
 10
126.12892661
 20
-647.509008065
 30
0.0
  0
VERTEX
  8
0
 10
126.935871413
 20
-642.743663674
 30
0.0
  0
VERTEX
  8
0
 10
127.78344242
 20
-637.993936778
 30
0.0
  0
VERTEX
  8
0
 10
128.671757147
 20
-633.259383214
 30
0.0
  0
VERTEX
  8
0
 10
129.600933109
 20
-628.539558815
 30
0.0
  0
VERTEX
  8
0
 10
130.571087819
 20
-623.834019416
 30
0.0
  0
VERTEX
  8
0
 10
131.582338792
 20
-619.142320851
 30
0.0
  0
VERTEX
  8
0
 10
132.634803544
 20
-614.464018956
 30
0.0
  0
VERTEX
  8
0
 10
133.728599588
 20
-609.798669563
 30
0.0
  0
VERTEX
  8
0
 10
134.86384444
 20
-605.145828508
 30
0.0
  0
VERTEX
  8
0
 10
136.040655614
 20
-600.505051626
 30
0.0
  0
VERTEX
  8
0
 10
137.259150625
 20
-595.87589475
 30
0.0
  0
VERTEX
  8
0
 10
138.519446987
 20
-591.257913716
 30
0.0
  0
VERTEX
  8
0
 10
139.821662216
 20
-586.650664357
 30
0.0
  0
VERTEX
  8
0
 10
141.165913825
 20
-582.053702509
 30
0.0
  0
VERTEX
  8
0
 10
142.55231933
 20
-577.466584005
 30
0.0
  0
VERTEX
  8
0
 10
143.980996244
 20
-572.888864681
 30
0.0
  0
VERTEX
  8
0
 10
145.452062084
 20
-568.320100371
 30
0.0
  0
VERTEX
  8
0
 10
146.965634363
 20
-563.759846909
 30
0.0
  0
VERTEX
  8
0
 10
148.521830596
 20
-559.20766013
 30
0.0
  0
VERTEX
  8
0
 10
150.120768298
 20
-554.663095868
 30
0.0
  0
VERTEX
  8
0
 10
151.762564983
 20
-550.125709958
 30
0.0
  0
VERTEX
  8
0
 10
153.447338166
 20
-545.595058234
 30
0.0
  0
VERTEX
  8
0
 10
155.175205362
 20
-541.070696531
 30
0.0
  0
VERTEX
  8
0
 10
156.946284085
 20
-536.552180683
 30
0.0
  0
VERTEX
  8
0
 10
158.76069185
 20
-532.039066525
 30
0.0
  0
VERTEX
  8
0
 10
160.618546173
 20
-527.530909891
 30
0.0
  0
VERTEX
  8
0
 10
162.519964566
 20
-523.027266616
 30
0.0
  0
VERTEX
  8
0
 10
164.465064545
 20
-518.527692534
 30
0.0
  0
VERTEX
  8
0
 10
166.453963625
 20
-514.03174348
 30
0.0
  0
VERTEX
  8
0
 10
168.486779321
 20
-509.538975288
 30
0.0
  0
VERTEX
  8
0
 10
170.563629146
 20
-505.048943793
 30
0.0
  0
VERTEX
  8
0
 10
172.684630617
 20
-500.561204829
 30
0.0
  0
VERTEX
  8
0
 10
174.849901246
 20
-496.075314231
 30
0.0
  0
VERTEX
  8
0
 10
177.05955855
 20
-491.590827834
 30
0.0
  0
VERTEX
  8
0
 10
179.313720042
 20
-487.107301471
 30
0.0
  0
VERTEX
  8
0
 10
181.612503237
 20
-482.624290977
 30
0.0
  0
VERTEX
  8
0
 10
183.95602565
 20
-478.141352187
 30
0.0
  0
VERTEX
  8
0
 10
186.344404796
 20
-473.658040935
 30
0.0
  0
VERTEX
  8
0
 10
188.77775819
 20
-469.173913056
 30
0.0
  0
VERTEX
  8
0
 10
191.256203345
 20
-464.688524384
 30
0.0
  0
VERTEX
  8
0
 10
193.779857777
 20
-460.201430754
 30
0.0
  0
VERTEX
  8
0
 10
196.348839
 20
-455.712188
 30
0.0
  0
VERTEX
  8
0
 10
198.95453255
 20
-451.24204403
 30
0.0
  0
VERTEX
  8
0
 10
201.58081108
 20
-446.812325096
 30
0.0
  0
VERTEX
  8
0
 10
204.228007216
 20
-442.422704546
 30
0.0
  0
VERTEX
  8
0
 10
206.896453585
 20
-438.072855731
 30
0.0
  0
VERTEX
  8
0
 10
209.586482812
 20
-433.762451998
 30
0.0
  0
VERTEX
  8
0
 10
212.298427523
 20
-429.491166697
 30
0.0
  0
VERTEX
  8
0
 10
215.032620346
 20
-425.258673177
 30
0.0
  0
VERTEX
  8
0
 10
217.789393905
 20
-421.064644787
 30
0.0
  0
VERTEX
  8
0
 10
220.569080828
 20
-416.908754878
 30
0.0
  0
VERTEX
  8
0
 10
223.37201374
 20
-412.790676796
 30
0.0
  0
VERTEX
  8
0
 10
226.198525267
 20
-408.710083893
 30
0.0
  0
VERTEX
  8
0
 10
229.048948036
 20
-404.666649517
 30
0.0
  0
VERTEX
  8
0
 10
231.923614673
 20
-400.660047017
 30
0.0
  0
VERTEX
  8
0
 10
234.822857804
 20
-396.689949742
 30
0.0
  0
VERTEX
  8
0
 10
237.747010056
 20
-392.756031041
 30
0.0
  0
VERTEX
  8
0
 10
240.696404053
 20
-388.857964265
 30
0.0
  0
VERTEX
  8
0
 10
243.671372423
 20
-384.995422761
 30
0.0
  0
VERTEX
  8
0
 10
246.672247792
 20
-381.168079878
 30
0.0
  0
VERTEX
  8
0
 10
249.699362786
 20
-377.375608967
 30
0.0
  0
VERTEX
  8
0
 10
252.75305003
 20
-373.617683377
 30
0.0
  0
VERTEX
  8
0
 10
255.833642152
 20
-369.893976456
 30
0.0
  0
VERTEX
  8
0
 10
258.941471777
 20
-366.204161553
 30
0.0
  0
VERTEX
  8
0
 10
262.076871532
 20
-362.547912018
 30
0.0
  0
VERTEX
  8
0
 10
265.240174043
 20
-358.9249012
 30
0.0
  0
VERTEX
  8
0
 10
268.431711935
 20
-355.334802448
 30
0.0
  0
VERTEX
  8
0
 10
271.651817836
 20
-351.777289111
 30
0.0
  0
VERTEX
  8
0
 10
274.90082437
 20
-348.252034538
 30
0.0
  0
VERTEX
  8
0
 10
278.179064165
 20
-344.758712079
 30
0.0
  0
VERTEX
  8
0
 10
281.486869847
 20
-341.296995083
 30
0.0
  0
VERTEX
  8
0
 10
284.824574042
 20
-337.866556898
 30
0.0
  0
VERTEX
  8
0
 10
288.192509375
 20
-334.467070875
 30
0.0
  0
VERTEX
  8
0
 10
291.591008473
 20
-331.098210362
 30
0.0
  0
VERTEX
  8
0
 10
295.020403963
 20
-327.759648708
 30
0.0
  0
VERTEX
  8
0
 10
298.48102847
 20
-324.451059262
 30
0.0
  0
VERTEX
  8
0
 10
301.973214621
 20
-321.172115374
 30
0.0
  0
VERTEX
  8
0
 10
305.497295042
 20
-317.922490393
 30
0.0
  0
VERTEX
  8
0
 10
309.053602358
 20
-314.701857668
 30
0.0
  0
VERTEX
  8
0
 10
312.642469197
 20
-311.509890547
 30
0.0
  0
VERTEX
  8
0
 10
316.264228184
 20
-308.346262382
 30
0.0
  0
VERTEX
  8
0
 10
319.919211945
 20
-305.210646519
 30
0.0
  0
VERTEX
  8
0
 10
323.607753107
 20
-302.102716309
 30
0.0
  0
VERTEX
  8
0
 10
327.330184296
 20
-299.022145101
 30
0.0
  0
VERTEX
  8
0
 10
331.086838137
 20
-295.968606243
 30
0.0
  0
VERTEX
  8
0
 10
334.878047258
 20
-292.941773086
 30
0.0
  0
VERTEX
  8
0
 10
338.704144284
 20
-289.941318978
 30
0.0
  0
VERTEX
  8
0
 10
342.565461842
 20
-286.966917268
 30
0.0
  0
VERTEX
  8
0
 10
346.462332557
 20
-284.018241306
 30
0.0
  0
VERTEX
  8
0
 10
350.395089056
 20
-281.09496444
 30
0.0
  0
VERTEX
  8
0
 10
354.364063965
 20
-278.196760021
 30
0.0
  0
VERTEX
  8
0
 10
358.369589911
 20
-275.323301396
 30
0.0
  0
VERTEX
  8
0
 10
362.411999518
 20
-272.474261915
 30
0.0
  0
VERTEX
  8
0
 10
366.491625414
 20
-269.649314928
 30
0.0
  0
VERTEX
  8
0
 10
370.608800225
 20
-266.848133783
 30
0.0
  0
VERTEX
  8
0
 10
374.763856576
 20
-264.07039183
 30
0.0
  0
VERTEX
  8
0
 10
378.957127095
 20
-261.315762417
 30
0.0
  0
VERTEX
  8
0
 10
383.188944407
 20
-258.583918894
 30
0.0
  0
VERTEX
  8
0
 10
387.459641138
 20
-255.874534611
 30
0.0
  0
VERTEX
  8
0
 10
391.769549915
 20
-253.187282916
 30
0.0
  0
VERTEX
  8
0
 10
396.119003363
 20
-250.521837158
 30
0.0
  0
VERTEX
  8
0
 10
400.508334109
 20
-247.877870686
 30
0.0
  0
VERTEX
  8
0
 10
404.93787478
 20
-245.255056851
 30
0.0
  0
VERTEX
  8
0
 10
409.407958
 20
-242.653069
 30
0.0
  0
VERTEX
  8
0
 10
413.940112388
 20
-240.055328064
 30
0.0
  0
VERTEX
  8
0
 10
418.427170708
 20
-237.528969453
 30
0.0
  0
VERTEX
  8
0
 10
422.876253389
 20
-235.070610961
 30
0.0
  0
VERTEX
  8
0
 10
427.294480864
 20
-232.676870384
 30
0.0
  0
VERTEX
  8
0
 10
431.688973562
 20
-230.344365516
 30
0.0
  0
VERTEX
  8
0
 10
436.066851916
 20
-228.069714151
 30
0.0
  0
VERTEX
  8
0
 10
440.435236355
 20
-225.849534085
 30
0.0
  0
VERTEX
  8
0
 10
444.801247312
 20
-223.680443112
 30
0.0
  0
VERTEX
  8
0
 10
449.172005216
 20
-221.559059027
 30
0.0
  0
VERTEX
  8
0
 10
453.5546305
 20
-219.481999625
 30
0.0
  0
VERTEX
  8
0
 10
457.956243594
 20
-217.4458827
 30
0.0
  0
VERTEX
  8
0
 10
462.383964928
 20
-215.447326048
 30
0.0
  0
VERTEX
  8
0
 10
466.844914934
 20
-213.482947463
 30
0.0
  0
VERTEX
  8
0
 10
471.346214044
 20
-211.549364739
 30
0.0
  0
VERTEX
  8
0
 10
475.894982687
 20
-209.643195672
 30
0.0
  0
VERTEX
  8
0
 10
480.498341296
 20
-207.761058056
 30
0.0
  0
VERTEX
  8
0
 10
485.163410301
 20
-205.899569686
 30
0.0
  0
VERTEX
  8
0
 10
489.897310132
 20
-204.055348357
 30
0.0
  0
VERTEX
  8
0
 10
494.707161221
 20
-202.225011863
 30
0.0
  0
VERTEX
  8
0
 10
499.600084
 20
-200.405178
 30
0.0
  0
SEQEND
  8
0
  0
POLYLINE
  8
0
 62
0
 70
0
 66
1
 10
0.0
 20
0.0
 30
0.0
  0
VERTEX
  8
0
 10
618.273935
 20
5.137931
 30
0.0
  0
VERTEX
  8
0
 10
620.972420136
 20
9.547455708
 30
0.0
  0
VERTEX
  8
0
 10
623.807617528
 20
13.717259224
 30
0.0
  0
VERTEX
  8
0
 10
626.792818652
 20
17.659208936
 30
0.0
  0
VERTEX
  8
0
 10
629.941314984
 20
21.385172232
 30
0.0
  0
VERTEX
  8
0
 10
633.266398
 20
24.9070165
 30
0.0
  0
VERTEX
  8
0
 10
636.781359176
 20
28.236609128
 30
0.0
  0
VERTEX
  8
0
 10
640.499489988
 20
31.385817504
 30
0.0
  0
VERTEX
  8
0
 10
644.434081912
 20
34.366509016
 30
0.0
  0
VERTEX
  8
0
 10
648.598426424
 20
37.190551052
 30
0.0
  0
VERTEX
  8
0
 10
653.005815
 20
39.869811
 30
0.0
  0
VERTEX
  8
0
 10
657.556245153
 20
42.360458675
 30
0.0
  0
VERTEX
  8
0
 10
662.104776504
 20
44.5667638
 30
0.0
  0
VERTEX
  8
0
 10
666.668498091
 20
46.493948025
 30
0.0
  0
VERTEX
  8
0
 10
671.264498952
 20
48.147233
 30
0.0
  0
VERTEX
  8
0
 10
675.909868125
 20
49.531840375
 30
0.0
  0
VERTEX
  8
0
 10
680.621694648
 20
50.6529918
 30
0.0
  0
VERTEX
  8
0
 10
685.417067559
 20
51.515908925
 30
0.0
  0
VERTEX
  8
0
 10
690.313075896
 20
52.1258134
 30
0.0
  0
VERTEX
  8
0
 10
695.326808697
 20
52.487926875
 30
0.0
  0
VERTEX
  8
0
 10
700.475355
 20
52.607471
 30
0.0
  0
VERTEX
  8
0
 10
705.645341739
 20
52.487926875
 30
0.0
  0
VERTEX
  8
0
 10
710.676242712
 20
52.1258134
 30
0.0
  0
VERTEX
  8
0
 10
715.585621653
 20
51.515908925
 30
0.0
  0
VERTEX
  8
0
 10
720.391042296
 20
50.6529918
 30
0.0
  0
VERTEX
  8
0
 10
725.110068375
 20
49.531840375
 30
0.0
  0
VERTEX
  8
0
 10
729.760263624
 20
48.147233
 30
0.0
  0
VERTEX
  8
0
 10
734.359191777
 20
46.493948025
 30
0.0
  0
VERTEX
  8
0
 10
738.924416568
 20
44.5667638
 30
0.0
  0
VERTEX
  8
0
 10
743.473501731
 20
42.360458675
 30
0.0
  0
VERTEX
  8
0
 10
748.024011
 20
39.869811
 30
0.0
  0
VERTEX
  8
0
 10
752.431399603
 20
37.190551052
 30
0.0
  0
VERTEX
  8
0
 10
756.595744184
 20
34.366509016
 30
0.0
  0
VERTEX
  8
0
 10
760.530336201
 20
31.385817504
 30
0.0
  0
VERTEX
  8
0
 10
764.248467112
 20
28.236609128
 30
0.0
  0
VERTEX
  8
0
 10
767.763428375
 20
24.9070165
 30
0.0
  0
VERTEX
  8
0
 10
771.088511448
 20
21.385172232
 30
0.0
  0
VERTEX
  8
0
 10
774.237007789
 20
17.659208936
 30
0.0
  0
VERTEX
  8
0
 10
777.222208856
 20
13.717259224
 30
0.0
  0
VERTEX
  8
0
 10
780.057406107
 20
9.547455708
 30
0.0
  0
VERTEX
  8
0
 10
782.755891
 20
5.137931
 30
0.0
  0
SEQEND
  8
0
  0
POLYLINE
  8
0
 62
0
 70
0
 66
1
 10
0.0
 20
0.0
 30
0.0
  0
VERTEX
  8
0
 10
901.429742
 20
-200.405178
 30
0.0
  0
VERTEX
  8
0
 10
906.322664778
 20
-202.225011863
 30
0.0
  0
VERTEX
  8
0
 10
911.132515868
 20
-204.055348357
 30
0.0
  0
VERTEX
  8
0
 10
915.8664157
 20
-205.899569686
 30
0.0
  0
VERTEX
  8
0
 10
920.531484704
 20
-207.761058056
 30
0.0
  0
VERTEX
  8
0
 10
925.134843313
 20
-209.643195672
 30
0.0
  0
VERTEX
  8
0
 10
929.683611956
 20
-211.549364739
 30
0.0
  0
VERTEX
  8
0
 10
934.184911066
 20
-213.482947463
 30
0.0
  0
VERTEX
  8
0
 10
938.645861072
 20
-215.447326048
 30
0.0
  0
VERTEX
  8
0
 10
943.073582407
 20
-217.4458827
 30
0.0
  0
VERTEX
  8
0
 10
947.4751955
 20
-219.481999625
 30
0.0
  0
VERTEX
  8
0
 10
951.857820783
 20
-221.559059027
 30
0.0
  0
VERTEX
  8
0
 10
956.228578688
 20
-223.680443112
 30
0.0
  0
VERTEX
  8
0
 10
960.594589644
 20
-225.849534085
 30
0.0
  0
VERTEX
  8
0
 10
964.962974084
 20
-228.069714151
 30
0.0
  0
VERTEX
  8
0
 10
969.340852437
 20
-230.344365516
 30
0.0
  0
VERTEX
  8
0
 10
973.735345136
 20
-232.676870384
 30
0.0
  0
VERTEX
  8
0
 10
978.15357261
 20
-235.070610961
 30
0.0
  0
VERTEX
  8
0
 10
982.602655292
 20
-237.528969453
 30
0.0
  0
VERTEX
  8
0
 10
987.089713611
 20
-240.055328064
 30
0.0
  0
VERTEX
  8
0
 10
991.621868
 20
-242.653069
 30
0.0
  0
VERTEX
  8
0
 10
996.09195122
 20
-245.255056851
 30
0.0
  0
VERTEX
  8
0
 10
1000.52149189
 20
-247.877870686
 30
0.0
  0
VERTEX
  8
0
 10
1004.91082264
 20
-250.521837158
 30
0.0
  0
VERTEX
  8
0
 10
1009.26027609
 20
-253.187282916
 30
0.0
  0
VERTEX
  8
0
 10
1013.57018486
 20
-255.874534611
 30
0.0
  0
VERTEX
  8
0
 10
1017.84088159
 20
-258.583918894
 30
0.0
  0
VERTEX
  8
0
 10
1022.0726989
 20
-261.315762417
 30
0.0
  0
VERTEX
  8
0
 10
1026.26596942
 20
-264.07039183
 30
0.0
  0
VERTEX
  8
0
 10
1030.42102578
 20
-266.848133783
 30
0.0
  0
VERTEX
  8
0
 10
1034.53820059
 20
-269.649314928
 30
0.0
  0
VERTEX
  8
0
 10
1038.61782648
 20
-272.474261915
 30
0.0
  0
VERTEX
  8
0
 10
1042.66023609
 20
-275.323301396
 30
0.0
  0
VERTEX
  8
0
 10
1046.66576203
 20
-278.196760021
 30
0.0
  0
VERTEX
  8
0
 10
1050.63473694
 20
-281.09496444
 30
0.0
  0
VERTEX
  8
0
 10
1054.56749344
 20
-284.018241306
 30
0.0
  0
VERTEX
  8
0
 10
1058.46436416
 20
-286.966917268
 30
0.0
  0
VERTEX
  8
0
 10
1062.32568172
 20
-289.941318978
 30
0.0
  0
VERTEX
  8
0
 10
1066.15177874
 20
-292.941773086
 30
0.0
  0
VERTEX
  8
0
 10
1069.94298786
 20
-295.968606243
 30
0.0
  0
VERTEX
  8
0
 10
1073.6996417
 20
-299.022145101
 30
0.0
  0
VERTEX
  8
0
 10
1077.42207289
 20
-302.102716309
 30
0.0
  0
VERTEX
  8
0
 10
1081.11061406
 20
-305.210646519
 30
0.0
  0
VERTEX
  8
0
 10
1084.76559782
 20
-308.346262382
 30
0.0
  0
VERTEX
  8
0
 10
1088.3873568
 20
-311.509890547
 30
0.0
  0
VERTEX
  8
0
 10
1091.97622364
 20
-314.701857668
 30
0.0
  0
VERTEX
  8
0
 10
1095.53253096
 20
-317.922490393
 30
0.0
  0
VERTEX
  8
0
 10
1099.05661138
 20
-321.172115374
 30
0.0
  0
VERTEX
  8
0
 10
1102.54879753
 20
-324.451059262
 30
0.0
  0
VERTEX
  8
0
 10
1106.00942204
 20
-327.759648708
 30
0.0
  0
VERTEX
  8
0
 10
1109.43881753
 20
-331.098210362
 30
0.0
  0
VERTEX
  8
0
 10
1112.83731663
 20
-334.467070875
 30
0.0
  0
VERTEX
  8
0
 10
1116.20525196
 20
-337.866556898
 30
0.0
  0
VERTEX
  8
0
 10
1119.54295615
 20
-341.296995083
 30
0.0
  0
VERTEX
  8
0
 10
1122.85076183
 20
-344.758712079
 30
0.0
  0
VERTEX
  8
0
 10
1126.12900163
 20
-348.252034538
 30
0.0
  0
VERTEX
  8
0
 10
1129.37800816
 20
-351.777289111
 30
0.0
  0
VERTEX
  8
0
 10
1132.59811406
 20
-355.334802448
 30
0.0
  0
VERTEX
  8
0
 10
1135.78965196
 20
-358.9249012
 30
0.0
  0
VERTEX
  8
0
 10
1138.95295447
 20
-362.547912018
 30
0.0
  0
VERTEX
  8
0
 10
1142.08835422
 20
-366.204161553
 30
0.0
  0
VERTEX
  8
0
 10
1145.19618385
 20
-369.893976456
 30
0.0
  0
VERTEX
  8
0
 10
1148.27677597
 20
-373.617683377
 30
0.0
  0
VERTEX
  8
0
 10
1151.33046321
 20
-377.375608967
 30
0.0
  0
VERTEX
  8
0
 10
1154.35757821
 20
-381.168079878
 30
0.0
  0
VERTEX
  8
0
 10
1157.35845358
 20
-384.995422761
 30
0.0
  0
VERTEX
  8
0
 10
1160.33342195
 20
-388.857964265
 30
0.0
  0
VERTEX
  8
0
 10
1163.28281594
 20
-392.756031041
 30
0.0
  0
VERTEX
  8
0
 10
1166.2069682
 20
-396.689949742
 30
0.0
  0
VERTEX
  8
0
 10
1169.10621133
 20
-400.660047017
 30
0.0
  0
VERTEX
  8
0
 10
1171.98087796
 20
-404.666649517
 30
0.0
  0
VERTEX
  8
0
 10
1174.83130073
 20
-408.710083893
 30
0.0
  0
VERTEX
  8
0
 10
1177.65781226
 20
-412.790676796
 30
0.0
  0
VERTEX
  8
0
 10
1180.46074517
 20
-416.908754878
 30
0.0
  0
VERTEX
  8
0
 10
1183.24043209
 20
-421.064644787
 30
0.0
  0
VERTEX
  8
0
 10
1185.99720565
 20
-425.258673177
 30
0.0
  0
VERTEX
  8
0
 10
1188.73139848
 20
-429.491166697
 30
0.0
  0
VERTEX
  8
0
 10
1191.44334319
 20
-433.762451998
 30
0.0
  0
VERTEX
  8
0
 10
1194.13337242
 20
-438.072855731
 30
0.0
  0
VERTEX
  8
0
 10
1196.80181878
 20
-442.422704546
 30
0.0
  0
VERTEX
  8
0
 10
1199.44901492
 20
-446.812325096
 30
0.0
  0
VERTEX
  8
0
 10
1202.07529345
 20
-451.24204403
 30
0.0
  0
VERTEX
  8
0
 10
1204.680987
 20
-455.712188
 30
0.0
  0
VERTEX
  8
0
 10
1207.24996822
 20
-460.201430754
 30
0.0
  0
VERTEX
  8
0
 10
1209.77362265
 20
-464.688524384
 30
0.0
  0
VERTEX
  8
0
 10
1212.25206781
 20
-469.173913056
 30
0.0
  0
VERTEX
  8
0
 10
1214.6854212
 20
-473.658040935
 30
0.0
  0
VERTEX
  8
0
 10
1217.07380035
 20
-478.141352187
 30
0.0
  0
VERTEX
  8
0
 10
1219.41732276
 20
-482.624290977
 30
0.0
  0
VERTEX
  8
0
 10
1221.71610596
 20
-487.107301471
 30
0.0
  0
VERTEX
  8
0
 10
1223.97026745
 20
-491.590827834
 30
0.0
  0
VERTEX
  8
0
 10
1226.17992475
 20
-496.075314231
 30
0.0
  0
VERTEX
  8
0
 10
1228.34519538
 20
-500.561204829
 30
0.0
  0
VERTEX
  8
0
 10
1230.46619685
 20
-505.048943793
 30
0.0
  0
VERTEX
  8
0
 10
1232.54304668
 20
-509.538975288
 30
0.0
  0
VERTEX
  8
0
 10
1234.57586237
 20
-514.03174348
 30
0.0
  0
VERTEX
  8
0
 10
1236.56476145
 20
-518.527692534
 30
0.0
  0
VERTEX
  8
0
 10
1238.50986143
 20
-523.027266616
 30
0.0
  0
VERTEX
  8
0
 10
1240.41127983
 20
-527.530909891
 30
0.0
  0
VERTEX
  8
0
 10
1242.26913415
 20
-532.039066525
 30
0.0
  0
VERTEX
  8
0
 10
1244.08354191
 20
-536.552180683
 30
0.0
  0
VERTEX
  8
0
 10
1245.85462064
 20
-541.070696531
 30
0.0
  0
VERTEX
  8
0
 10
1247.58248783
 20
-545.595058234
 30
0.0
  0
VERTEX
  8
0
 10
1249.26726102
 20
-550.125709958
 30
0.0
  0
VERTEX
  8
0
 10
1250.9090577
 20
-554.663095868
 30
0.0
  0
VERTEX
  8
0
 10
1252.5079954
 20
-559.20766013
 30
0.0
  0
VERTEX
  8
0
 10
1254.06419164
 20
-563.759846909
 30
0.0
  0
VERTEX
  8
0
 10
1255.57776392
 20
-568.320100371
 30
0.0
  0
VERTEX
  8
0
 10
1257.04882976
 20
-572.888864681
 30
0.0
  0
VERTEX
  8
0
 10
1258.47750667
 20
-577.466584005
 30
0.0
  0
VERTEX
  8
0
 10
1259.86391218
 20
-582.053702509
 30
0.0
  0
VERTEX
  8
0
 10
1261.20816378
 20
-586.650664357
 30
0.0
  0
VERTEX
  8
0
 10
1262.51037901
 20
-591.257913716
 30
0.0
  0
VERTEX
  8
0
 10
1263.77067537
 20
-595.87589475
 30
0.0
  0
VERTEX
  8
0
 10
1264.98917039
 20
-600.505051626
 30
0.0
  0
VERTEX
  8
0
 10
1266.16598156
 20
-605.145828508
 30
0.0
  0
VERTEX
  8
0
 10
1267.30122641
 20
-609.798669563
 30
0.0
  0
VERTEX
  8
0
 10
1268.39502246
 20
-614.464018956
 30
0.0
  0
VERTEX
  8
0
 10
1269.44748721
 20
-619.142320851
 30
0.0
  0
VERTEX
  8
0
 10
1270.45873818
 20
-623.834019416
 30
0.0
  0
VERTEX
  8
0
 10
1271.42889289
 20
-628.539558815
 30
0.0
  0
VERTEX
  8
0
 10
1272.35806885
 20
-633.259383214
 30
0.0
  0
VERTEX
  8
0
 10
1273.24638358
 20
-637.993936778
 30
0.0
  0
VERTEX
  8
0
 10
1274.09395459
 20
-642.743663674
 30
0.0
  0
VERTEX
  8
0
 10
1274.90089939
 20
-647.509008065
 30
0.0
  0
VERTEX
  8
0
 10
1275.6673355
 20
-652.290414118
 30
0.0
  0
VERTEX
  8
0
 10
1276.39338044
 20
-657.088325999
 30
0.0
  0
VERTEX
  8
0
 10
1277.07915171
 20
-661.903187872
 30
0.0
  0
VERTEX
  8
0
 10
1277.72476684
 20
-666.735443904
 30
0.0
  0
VERTEX
  8
0
 10
1278.33034334
 20
-671.58553826
 30
0.0
  0
VERTEX
  8
0
 10
1278.89599872
 20
-676.453915105
 30
0.0
  0
VERTEX
  8
0
 10
1279.4218505
 20
-681.341018605
 30
0.0
  0
VERTEX
  8
0
 10
1279.9080162
 20
-686.247292925
 30
0.0
  0
VERTEX
  8
0
 10
1280.35461331
 20
-691.173182231
 30
0.0
  0
VERTEX
  8
0
 10
1280.76175937
 20
-696.119130689
 30
0.0
  0
VERTEX
  8
0
 10
1281.12957189
 20
-701.085582463
 30
0.0
  0
VERTEX
  8
0
 10
1281.45816838
 20
-706.07298172
 30
0.0
  0
VERTEX
  8
0
 10
1281.74766635
 20
-711.081772625
 30
0.0
  0
VERTEX
  8
0
 10
1281.99818333
 20
-716.112399343
 30
0.0
  0
VERTEX
  8
0
 10
1282.20983682
 20
-721.16530604
 30
0.0
  0
VERTEX
  8
0
 10
1282.38274433
 20
-726.240936881
 30
0.0
  0
VERTEX
  8
0
 10
1282.5170234
 20
-731.339736032
 30
0.0
  0
VERTEX
  8
0
 10
1282.61279152
 20
-736.462147659
 30
0.0
  0
VERTEX
  8
0
 10
1282.67016622
 20
-741.608615926
 30
0.0
  0
VERTEX
  8
0
 10
1282.689265
 20
-746.779585
 30
0.0
  0
VERTEX
  8
0
 10
1282.66959481
 20
-751.997763236
 30
0.0
  0
VERTEX
  8
0
 10
1282.61022821
 20
-757.14289772
 30
0.0
  0
VERTEX
  8
0
 10
1282.51063117
 20
-762.222642914
 30
0.0
  0
VERTEX
  8
0
 10
1282.37026966
 20
-767.24465328
 30
0.0
  0
VERTEX
  8
0
 10
1282.18860966
 20
-772.216583281
 30
0.0
  0
VERTEX
  8
0
 10
1281.96511712
 20
-777.14608738
 30
0.0
  0
VERTEX
  8
0
 10
1281.69925801
 20
-782.040820039
 30
0.0
  0
VERTEX
  8
0
 10
1281.39049831
 20
-786.90843572
 30
0.0
  0
VERTEX
  8
0
 10
1281.03830399
 20
-791.756588886
 30
0.0
  0
VERTEX
  8
0
 10
1280.642141
 20
-796.592934
 30
0.0
  0
VERTEX
  8
0
 10
1280.20147532
 20
-801.425125524
 30
0.0
  0
VERTEX
  8
0
 10
1279.71577293
 20
-806.26081792
 30
0.0
  0
VERTEX
  8
0
 10
1279.18449978
 20
-811.107665651
 30
0.0
  0
VERTEX
  8
0
 10
1278.60712184
 20
-815.97332318
 30
0.0
  0
VERTEX
  8
0
 10
1277.98310509
 20
-820.865444969
 30
0.0
  0
VERTEX
  8
0
 10
1277.3119155
 20
-825.79168548
 30
0.0
  0
VERTEX
  8
0
 10
1276.59301902
 20
-830.759699176
 30
0.0
  0
VERTEX
  8
0
 10
1275.82588163
 20
-835.77714052
 30
0.0
  0
VERTEX
  8
0
 10
1275.0099693
 20
-840.851663974
 30
0.0
  0
VERTEX
  8
0
 10
1274.144748
 20
-845.990924
 30
0.0
  0
SEQEND
  8
0
  0
ENDBLK
  0
ENDSEC
  0
SECTION
  2
ENTITIES
  0
INSERT
  2
FUSION
  8
0
 62
0
 10
0.0
 20
0.0
 30
0.0
  0
ENDSEC
  0
EOF
