  0
SECTION
  2
HEADER
  9
$ACADVER
  1
AC1014
  9
$HANDSEED
  5
FFFF
  9
$MEASUREMENT
 70
     1
  0
ENDSEC
  0
SECTION
  2
TABLES
  0
TABLE
  2
VPORT
  5
8
330
0
100
AcDbSymbolTable
 70
     4
  0
VPORT
  5
2E
330
8
100
AcDbSymbolTableRecord
100
AcDbViewportTableRecord
  2
*ACTIVE
 70
     0
 10
0.0
 20
0.0
 11
1.0
 21
1.0
 12
210.0
 22
148.5
 13
0.0
 23
0.0
 14
10.0
 24
10.0
 15
10.0
 25
10.0
 16
0.0
 26
0.0
 36
1.0
 17
0.0
 27
0.0
 37
0.0
 40
341.0
 41
1.24
 42
50.0
 43
0.0
 44
0.0
 50
0.0
 51
0.0
 71
     0
 72
   100
 73
     1
 74
     3
 75
     0
 76
     0
 77
     0
 78
     0
  0
ENDTAB
  0
TABLE
  2
LTYPE
  5
5
330
0
100
AcDbSymbolTable
 70
     1
  0
LTYPE
  5
14
330
5
100
AcDbSymbolTableRecord
100
AcDbLinetypeTableRecord
  2
BYBLOCK
 70
     0
  3

 72
    65
 73
     0
 40
0.0
  0
LTYPE
  5
15
330
5
100
AcDbSymbolTableRecord
100
AcDbLinetypeTableRecord
  2
BYLAYER
 70
     0
  3

 72
    65
 73
     0
 40
0.0
  0
LTYPE
  5
16
330
5
100
AcDbSymbolTableRecord
100
AcDbLinetypeTableRecord
  2
CONTINUOUS
 70
     0
  3
Solid line
 72
    65
 73
     0
 40
0.0
  0
ENDTAB
  0
TABLE
  2
LAYER
  5
2
100
AcDbSymbolTable
 70
1
  0
LAYER
  5
50
100
AcDbSymbolTableRecord
100
AcDbLayerTableRecord
  2
0
 70
0
  6
CONTINUOUS
  0
ENDTAB
  0
TABLE
  2
STYLE
  5
3
330
0
100
AcDbSymbolTable
 70
     1
  0
STYLE
  5
11
330
3
100
AcDbSymbolTableRecord
100
AcDbTextStyleTableRecord
  2
STANDARD
 70
     0
 40
0.0
 41
1.0
 50
0.0
 71
     0
 42
2.5
  3
txt
  4

  0
ENDTAB
  0
TABLE
  2
VIEW
  5
6
330
0
100
AcDbSymbolTable
 70
     0
  0
ENDTAB
  0
TABLE
  2
UCS
  5
7
330
0
100
AcDbSymbolTable
 70
     0
  0
ENDTAB
  0
TABLE
  2
APPID
  5
9
330
0
100
AcDbSymbolTable
 70
     2
  0
APPID
  5
12
330
9
100
AcDbSymbolTableRecord
100
AcDbRegAppTableRecord
  2
ACAD
 70
     0
  0
ENDTAB
  0
TABLE
  2
DIMSTYLE
  5
A
330
0
100
AcDbSymbolTable
 70
     1
  0
DIMSTYLE
105
27
330
A
100
AcDbSymbolTableRecord
100
AcDbDimStyleTableRecord
  2
ISO-25
 70
     0
  3

  4

  5

  6

  7

 40
1.0
 41
2.5
 42
0.625
 43
3.75
 44
1.25
 45
0.0
 46
0.0
 47
0.0
 48
0.0
140
2.5
141
2.5
142
0.0
143
0.03937007874016
144
1.0
145
0.0
146
1.0
147
0.625
 71
     0
 72
     0
 73
     0
 74
     0
 75
     0
 76
     0
 77
     1
 78
     8
170
     0
171
     3
172
     1
173
     0
174
     0
175
     0
176
     0
177
     0
178
     0
270
     2
271
     2
272
     2
273
     2
274
     3
340
11
275
     0
280
     0
281
     0
282
     0
283
     0
284
     8
285
     0
286
     0
287
     3
288
     0
  0
ENDTAB
  0
TABLE
  2
BLOCK_RECORD
  5
1
330
0
100
AcDbSymbolTable
 70
     1
  0
BLOCK_RECORD
  5
1F
330
1
100
AcDbSymbolTableRecord
100
AcDbBlockTableRecord
  2
*MODEL_SPACE
  0
BLOCK_RECORD
  5
1B
330
1
100
AcDbSymbolTableRecord
100
AcDbBlockTableRecord
  2
*PAPER_SPACE
  0
ENDTAB
  0
ENDSEC
  0
SECTION
  2
BLOCKS
  0
BLOCK
  5
20
330
1F
100
AcDbEntity
  8
0
100
AcDbBlockBegin
  2
*MODEL_SPACE
 70
     0
 10
0.0
 20
0.0
 30
0.0
  3
*MODEL_SPACE
  1

  0
ENDBLK
  5
21
330
1F
100
AcDbEntity
  8
0
100
AcDbBlockEnd
  0
BLOCK
  5
1C
330
1B
100
AcDbEntity
 67
     1
  8
0
100
AcDbBlockBegin
  2
*PAPER_SPACE
  1

  0
ENDBLK
  5
1D
330
1B
100
AcDbEntity
 67
     1
  8
0
100
AcDbBlockEnd
  0
ENDSEC
  0
SECTION
  2
ENTITIES
  0
LWPOLYLINE
  5
100
100
AcDbEntity
  8
0
 62
7
100
AcDbPolyline
 90
5
 70
1
 10
-5.080243
 20
54.031557
 30
0.0
 10
1406.189185
 20
54.031557
 30
0.0
 10
1406.189185
 20
-1327.648525
 30
0.0
 10
-5.080243
 20
-1327.648525
 30
0.0
 10
-5.080243
 20
54.031557
 30
0.0
  0
SPLINE
  5
101
100
AcDbEntity
  8
0
 62
1
100
AcDbSpline
 70
8
 71
3
 72
8
 73
4
 74
0
 40
0
 40
0
 40
0
 40
0
 40
1
 40
1
 40
1
 40
1
 10
1392.818598
 20
-1051.613149
 30
0.0
 10
1400.967536
 20
-1066.328706
 30
0.0
 10
1404.685983
 20
-1080.648684
 30
0.0
 10
1404.685983
 20
-1097.579487
 30
0.0
  0
SPLINE
  5
102
100
AcDbEntity
  8
0
 62
1
100
AcDbSpline
 70
8
 71
3
 72
8
 73
4
 74
0
 40
0
 40
0
 40
0
 40
0
 40
1
 40
1
 40
1
 40
1
 10
1404.685983
 20
-1097.579487
 30
0.0
 10
1404.685983
 20
-1115.064101
 30
0.0
 10
1400.730188
 20
-1129.858774
 30
0.0
 10
1391.948323
 20
-1145.049027
 30
0.0
  0
SPLINE
  5
103
100
AcDbEntity
  8
0
 62
1
100
AcDbSpline
 70
8
 71
3
 72
8
 73
4
 74
0
 40
0
 40
0
 40
0
 40
0
 40
1
 40
1
 40
1
 40
1
 10
1391.948323
 20
-1145.049027
 30
0.0
 10
1383.245574
 20
-1160.160164
 30
0.0
 10
1372.327580
 20
-1170.999042
 30
0.0
 10
1357.216443
 20
-1179.780907
 30
0.0
  0
SPLINE
  5
104
100
AcDbEntity
  8
0
 62
1
100
AcDbSpline
 70
8
 71
3
 72
8
 73
4
 74
0
 40
0
 40
0
 40
0
 40
0
 40
1
 40
1
 40
1
 40
1
 10
1357.216443
 20
-1179.780907
 30
0.0
 10
1342.105306
 20
-1188.483656
 30
0.0
 10
1327.231517
 20
-1192.518567
 30
0.0
 10
1309.746903
 20
-1192.518567
 30
0.0
  0
SPLINE
  5
105
100
AcDbEntity
  8
0
 62
1
100
AcDbSpline
 70
8
 71
3
 72
8
 73
4
 74
0
 40
0
 40
0
 40
0
 40
0
 40
1
 40
1
 40
1
 40
1
 10
1309.746903
 20
-1192.518567
 30
0.0
 10
1309.113976
 20
-1192.518567
 30
0.0
 10
1308.639280
 20
-1192.518567
 30
0.0
 10
1308.006353
 20
-1192.439451
 30
0.0
  0
LWPOLYLINE
  5
106
100
AcDbEntity
  8
0
 62
1
100
AcDbPolyline
 90
2
 70
1
 10
1274.144748
 20
-845.990924
 30
0.0
 10
1392.818598
 20
-1051.613149
 30
0.0
  0
SPLINE
  5
107
100
AcDbEntity
  8
0
 62
1
100
AcDbSpline
 70
8
 71
3
 72
8
 73
4
 74
0
 40
0
 40
0
 40
0
 40
0
 40
1
 40
1
 40
1
 40
1
 10
1070.658652
 20
-1192.439451
 30
0.0
 10
1044.075710
 20
-1214.512788
 30
0.0
 10
1020.103592
 20
-1231.285358
 30
0.0
 10
990.197782
 20
-1248.532625
 30
0.0
  0
SPLINE
  5
108
100
AcDbEntity
  8
0
 62
1
100
AcDbSpline
 70
8
 71
3
 72
8
 73
4
 74
0
 40
0
 40
0
 40
0
 40
0
 40
1
 40
1
 40
1
 40
1
 10
990.197782
 20
-1248.532625
 30
0.0
 10
897.790410
 20
-1301.856741
 30
0.0
 10
807.202705
 20
-1326.145323
 30
0.0
 10
700.475355
 20
-1326.145323
 30
0.0
  0
SPLINE
  5
109
100
AcDbEntity
  8
0
 62
1
100
AcDbSpline
 70
8
 71
3
 72
8
 73
4
 74
0
 40
0
 40
0
 40
0
 40
0
 40
1
 40
1
 40
1
 40
1
 10
700.475355
 20
-1326.145323
 30
0.0
 10
593.827122
 20
-1326.145323
 30
0.0
 10
503.239416
 20
-1301.856741
 30
0.0
 10
410.832044
 20
-1248.532625
 30
0.0
  0
SPLINE
  5
10a
100
AcDbEntity
  8
0
 62
1
100
AcDbSpline
 70
8
 71
3
 72
8
 73
4
 74
0
 40
0
 40
0
 40
0
 40
0
 40
1
 40
1
 40
1
 40
1
 10
410.832044
 20
-1248.532625
 30
0.0
 10
380.926234
 20
-1231.285358
 30
0.0
 10
356.954116
 20
-1214.512788
 30
0.0
 10
330.371174
 20
-1192.439451
 30
0.0
  0
LWPOLYLINE
  5
10b
100
AcDbEntity
  8
0
 62
1
100
AcDbPolyline
 90
3
 70
1
 10
1308.006353
 20
-1192.439451
 30
0.0
 10
1070.658652
 20
-1192.439451
 30
0.0
 10
1070.658652
 20
-1192.439451
 30
0.0
  0
SPLINE
  5
10c
100
AcDbEntity
  8
0
 62
1
100
AcDbSpline
 70
8
 71
3
 72
8
 73
4
 74
0
 40
0
 40
0
 40
0
 40
0
 40
1
 40
1
 40
1
 40
1
 10
93.023473
 20
-1192.439451
 30
0.0
 10
92.390546
 20
-1192.518567
 30
0.0
 10
91.915850
 20
-1192.518567
 30
0.0
 10
91.282923
 20
-1192.518567
 30
0.0
  0
SPLINE
  5
10d
100
AcDbEntity
  8
0
 62
1
100
AcDbSpline
 70
8
 71
3
 72
8
 73
4
 74
0
 40
0
 40
0
 40
0
 40
0
 40
1
 40
1
 40
1
 40
1
 10
91.282923
 20
-1192.518567
 30
0.0
 10
73.798309
 20
-1192.518567
 30
0.0
 10
58.924520
 20
-1188.483656
 30
0.0
 10
43.813383
 20
-1179.780907
 30
0.0
  0
SPLINE
  5
10e
100
AcDbEntity
  8
0
 62
1
100
AcDbSpline
 70
8
 71
3
 72
8
 73
4
 74
0
 40
0
 40
0
 40
0
 40
0
 40
1
 40
1
 40
1
 40
1
 10
43.813383
 20
-1179.780907
 30
0.0
 10
28.702246
 20
-1170.999042
 30
0.0
 10
17.784252
 20
-1160.160164
 30
0.0
 10
9.081503
 20
-1145.049027
 30
0.0
  0
SPLINE
  5
10f
100
AcDbEntity
  8
0
 62
1
100
AcDbSpline
 70
8
 71
3
 72
8
 73
4
 74
0
 40
0
 40
0
 40
0
 40
0
 40
1
 40
1
 40
1
 40
1
 10
9.081503
 20
-1145.049027
 30
0.0
 10
0.299638
 20
-1129.858774
 30
0.0
 10
-3.656157
 20
-1115.064101
 30
0.0
 10
-3.656157
 20
-1097.579487
 30
0.0
  0
SPLINE
  5
110
100
AcDbEntity
  8
0
 62
1
100
AcDbSpline
 70
8
 71
3
 72
8
 73
4
 74
0
 40
0
 40
0
 40
0
 40
0
 40
1
 40
1
 40
1
 40
1
 10
-3.656157
 20
-1097.579487
 30
0.0
 10
-3.656157
 20
-1080.648684
 30
0.0
 10
0.062290
 20
-1066.328706
 30
0.0
 10
8.211228
 20
-1051.613149
 30
0.0
  0
LWPOLYLINE
  5
111
100
AcDbEntity
  8
0
 62
1
100
AcDbPolyline
 90
2
 70
1
 10
330.371174
 20
-1192.439451
 30
0.0
 10
93.023473
 20
-1192.439451
 30
0.0
  0
SPLINE
  5
112
100
AcDbEntity
  8
0
 62
1
100
AcDbSpline
 70
8
 71
3
 72
8
 73
4
 74
0
 40
0
 40
0
 40
0
 40
0
 40
1
 40
1
 40
1
 40
1
 10
126.885078
 20
-845.990924
 30
0.0
 10
120.951386
 20
-811.496392
 30
0.0
 10
118.340561
 20
-781.827929
 30
0.0
 10
118.340561
 20
-746.779585
 30
0.0
  0
SPLINE
  5
113
100
AcDbEntity
  8
0
 62
1
100
AcDbSpline
 70
8
 71
3
 72
8
 73
4
 74
0
 40
0
 40
0
 40
0
 40
0
 40
1
 40
1
 40
1
 40
1
 10
118.340561
 20
-746.779585
 30
0.0
 10
118.340561
 20
-639.656656
 30
0.0
 10
142.787374
 20
-548.515139
 30
0.0
 10
196.348839
 20
-455.712188
 30
0.0
  0
SPLINE
  5
114
100
AcDbEntity
  8
0
 62
1
100
AcDbSpline
 70
8
 71
3
 72
8
 73
4
 74
0
 40
0
 40
0
 40
0
 40
0
 40
1
 40
1
 40
1
 40
1
 10
196.348839
 20
-455.712188
 30
0.0
 10
249.989419
 20
-362.909237
 30
0.0
 10
316.605007
 20
-296.214533
 30
0.0
 10
409.407958
 20
-242.653069
 30
0.0
  0
SPLINE
  5
115
100
AcDbEntity
  8
0
 62
1
100
AcDbSpline
 70
8
 71
3
 72
8
 73
4
 74
0
 40
0
 40
0
 40
0
 40
0
 40
1
 40
1
 40
1
 40
1
 10
409.407958
 20
-242.653069
 30
0.0
 10
439.788464
 20
-225.089339
 30
0.0
 10
466.687870
 20
-212.509911
 30
0.0
 10
499.600084
 20
-200.405178
 30
0.0
  0
LWPOLYLINE
  5
116
100
AcDbEntity
  8
0
 62
1
100
AcDbPolyline
 90
3
 70
1
 10
8.211228
 20
-1051.613149
 30
0.0
 10
126.885078
 20
-845.990924
 30
0.0
 10
126.885078
 20
-845.990924
 30
0.0
  0
SPLINE
  5
117
100
AcDbEntity
  8
0
 62
1
100
AcDbSpline
 70
8
 71
3
 72
8
 73
4
 74
0
 40
0
 40
0
 40
0
 40
0
 40
1
 40
1
 40
1
 40
1
 10
618.273935
 20
5.137931
 30
0.0
 10
627.055800
 20
20.249068
 30
0.0
 10
637.894678
 20
31.167062
 30
0.0
 10
653.005815
 20
39.869811
 30
0.0
  0
SPLINE
  5
118
100
AcDbEntity
  8
0
 62
1
100
AcDbSpline
 70
8
 71
3
 72
8
 73
4
 74
0
 40
0
 40
0
 40
0
 40
0
 40
1
 40
1
 40
1
 40
1
 10
653.005815
 20
39.869811
 30
0.0
 10
668.196068
 20
48.651676
 30
0.0
 10
683.069857
 20
52.607471
 30
0.0
 10
700.475355
 20
52.607471
 30
0.0
  0
SPLINE
  5
119
100
AcDbEntity
  8
0
 62
1
100
AcDbSpline
 70
8
 71
3
 72
8
 73
4
 74
0
 40
0
 40
0
 40
0
 40
0
 40
1
 40
1
 40
1
 40
1
 10
700.475355
 20
52.607471
 30
0.0
 10
717.959969
 20
52.607471
 30
0.0
 10
732.833758
 20
48.651676
 30
0.0
 10
748.024011
 20
39.869811
 30
0.0
  0
SPLINE
  5
11a
100
AcDbEntity
  8
0
 62
1
100
AcDbSpline
 70
8
 71
3
 72
8
 73
4
 74
0
 40
0
 40
0
 40
0
 40
0
 40
1
 40
1
 40
1
 40
1
 10
748.024011
 20
39.869811
 30
0.0
 10
763.135148
 20
31.167062
 30
0.0
 10
773.974027
 20
20.249068
 30
0.0
 10
782.755891
 20
5.137931
 30
0.0
  0
LWPOLYLINE
  5
11b
100
AcDbEntity
  8
0
 62
1
100
AcDbPolyline
 90
2
 70
1
 10
499.600084
 20
-200.405178
 30
0.0
 10
618.273935
 20
5.137931
 30
0.0
  0
SPLINE
  5
11c
100
AcDbEntity
  8
0
 62
1
100
AcDbSpline
 70
8
 71
3
 72
8
 73
4
 74
0
 40
0
 40
0
 40
0
 40
0
 40
1
 40
1
 40
1
 40
1
 10
901.429742
 20
-200.405178
 30
0.0
 10
934.341956
 20
-212.509911
 30
0.0
 10
961.241362
 20
-225.089339
 30
0.0
 10
991.621868
 20
-242.653069
 30
0.0
  0
SPLINE
  5
11d
100
AcDbEntity
  8
0
 62
1
100
AcDbSpline
 70
8
 71
3
 72
8
 73
4
 74
0
 40
0
 40
0
 40
0
 40
0
 40
1
 40
1
 40
1
 40
1
 10
991.621868
 20
-242.653069
 30
0.0
 10
1084.424819
 20
-296.214533
 30
0.0
 10
1151.040407
 20
-362.909237
 30
0.0
 10
1204.680987
 20
-455.712188
 30
0.0
  0
SPLINE
  5
11e
100
AcDbEntity
  8
0
 62
1
100
AcDbSpline
 70
8
 71
3
 72
8
 73
4
 74
0
 40
0
 40
0
 40
0
 40
0
 40
1
 40
1
 40
1
 40
1
 10
1204.680987
 20
-455.712188
 30
0.0
 10
1258.242452
 20
-548.515139
 30
0.0
 10
1282.689265
 20
-639.656656
 30
0.0
 10
1282.689265
 20
-746.779585
 30
0.0
  0
SPLINE
  5
11f
100
AcDbEntity
  8
0
 62
1
100
AcDbSpline
 70
8
 71
3
 72
8
 73
4
 74
0
 40
0
 40
0
 40
0
 40
0
 40
1
 40
1
 40
1
 40
1
 10
1282.689265
 20
-746.779585
 30
0.0
 10
1282.689265
 20
-781.827929
 30
0.0
 10
1280.078440
 20
-811.496392
 30
0.0
 10
1274.144748
 20
-845.990924
 30
0.0
  0
LWPOLYLINE
  5
120
100
AcDbEntity
  8
0
 62
1
100
AcDbPolyline
 90
3
 70
1
 10
782.755891
 20
5.137931
 30
0.0
 10
901.429742
 20
-200.405178
 30
0.0
 10
901.429742
 20
-200.405178
 30
0.0
  0
LWPOLYLINE
  5
121
100
AcDbEntity
  8
0
 62
1
100
AcDbPolyline
 90
2
 70
1
 10
1274.144748
 20
-845.990924
 30
0.0
 10
1274.144748
 20
-845.990924
 30
0.0
  0
ENDSEC
  0
SECTION
  2
OBJECTS
  0
DICTIONARY
  5
C
330
0
100
AcDbDictionary
  3
ACAD_GROUP
350
D
  3
ACAD_MLINESTYLE
350
17
  0
DICTIONARY
  5
D
330
C
100
AcDbDictionary
  0
DICTIONARY
  5
1A
330
C
100
AcDbDictionary
  0
DICTIONARY
  5
17
330
C
100
AcDbDictionary
  3
STANDARD
350
18
  0
DICTIONARY
  5
19
330
C
100
AcDbDictionary
  0
ENDSEC
  0
EOF
