<svg xmlns:rdf="http://www.w3.org/1999/02/22-rdf-syntax-ns#" xmlns="http://www.w3.org/2000/svg" height="173.41" width="177.17" version="1.1" xmlns:cc="http://creativecommons.org/ns#" xmlns:xlink="http://www.w3.org/1999/xlink" xmlns:dc="http://purl.org/dc/elements/1.1/">
 <metadata>
  <rdf:RDF>
   <cc:Work rdf:about="">
    <dc:format>image/svg+xml</dc:format>
    <dc:type rdf:resource="http://purl.org/dc/dcmitype/StillImage"/>
    <dc:title/>
   </cc:Work>
  </rdf:RDF>
 </metadata>
 <desc>/home/samata/projects-git/MAP4/fabricate/MA_logo_outline.dxf - scale = 1.000000, origin = (0.000000, 0.000000), auto = False</desc>
 <defs>
  <symbol id="a">
   <path fill="none" stroke="#000" d="m256.89 1096.8a260.7 260.7 0 0 0 -166.92 -289.12"/>
   <path fill="none" stroke="#000" d="m89.973 807.68-53.15-92.06"/>
   <path fill="none" stroke="#000" d="m36.823 715.62a42.52 42.52 0 0 0 -73.646 0"/>
   <path fill="none" stroke="#000" d="m-36.823 715.62-53.15 92.058"/>
   <path fill="none" stroke="#000" d="m-89.973 807.68a260.7 260.7 0 0 0 -166.92 289.12"/>
   <path fill="none" stroke="#000" d="m-256.89 1096.8-53.15 92.058"/>
   <path fill="none" stroke="#000" d="m-310.04 1188.9a42.52 42.52 0 0 0 37.98 63.097"/>
   <path fill="none" stroke="#000" d="m-272.06 1252h106.3"/>
   <path fill="none" stroke="#000" d="m-165.76 1252a259.45 259.45 0 0 0 331.52 0"/>
   <path fill="none" stroke="#000" d="m165.76 1252h106.3"/>
   <path fill="none" stroke="#000" d="m272.06 1252a42.52 42.52 0 0 0 37.98 -63.097"/>
   <path fill="none" stroke="#000" d="m256.89 1096.8 53.15 92.058"/>
  </symbol>
 </defs>
 <g transform="translate(315.91 -1138.9)">
  <use xlink:href="#a" transform="matrix(.28040 0 0 .28040 -227.33 944.33)" height="100%" width="100%" y="0" x="0"/>
 </g>
</svg>
