<?xml version="1.0" encoding="UTF-8"?>

<svg version="1.2" baseProfile="tiny" width="210mm" height="297mm" viewBox="0 0 21000 29700" preserveAspectRatio="xMidYMid" fill-rule="evenodd" stroke-width="28.222" stroke-linejoin="round" xmlns="http://www.w3.org/2000/svg" xmlns:ooo="http://xml.openoffice.org/svg/export" xmlns:xlink="http://www.w3.org/1999/xlink" xmlns:presentation="http://sun.com/xmlns/staroffice/presentation" xmlns:smil="http://www.w3.org/2001/SMIL20/" xmlns:anim="urn:oasis:names:tc:opendocument:xmlns:animation:1.0" xml:space="preserve">
 <defs class="ClipPathGroup">
  <clipPath id="presentation_clip_path" clipPathUnits="userSpaceOnUse">
   <rect x="0" y="0" width="21000" height="29700"/>
  </clipPath>
 </defs>
 <defs class="TextShapeIndex">
  <g ooo:slide="id1" ooo:id-list="id3 id4 id5 id6"/>
 </defs>
 <defs class="EmbeddedBulletChars">
  <g id="bullet-char-template(57356)" transform="scale(0.00048828125,-0.00048828125)">
   <path d="M 580,1141 L 1163,571 580,0 -4,571 580,1141 Z"/>
  </g>
  <g id="bullet-char-template(57354)" transform="scale(0.00048828125,-0.00048828125)">
   <path d="M 8,1128 L 1137,1128 1137,0 8,0 8,1128 Z"/>
  </g>
  <g id="bullet-char-template(10146)" transform="scale(0.00048828125,-0.00048828125)">
   <path d="M 174,0 L 602,739 174,1481 1456,739 174,0 Z M 1358,739 L 309,1346 659,739 1358,739 Z"/>
  </g>
  <g id="bullet-char-template(10132)" transform="scale(0.00048828125,-0.00048828125)">
   <path d="M 2015,739 L 1276,0 717,0 1260,543 174,543 174,936 1260,936 717,1481 1274,1481 2015,739 Z"/>
  </g>
  <g id="bullet-char-template(10007)" transform="scale(0.00048828125,-0.00048828125)">
   <path d="M 0,-2 C -7,14 -16,27 -25,37 L 356,567 C 262,823 215,952 215,954 215,979 228,992 255,992 264,992 276,990 289,987 310,991 331,999 354,1012 L 381,999 492,748 772,1049 836,1024 860,1049 C 881,1039 901,1025 922,1006 886,937 835,863 770,784 769,783 710,716 594,584 L 774,223 C 774,196 753,168 711,139 L 727,119 C 717,90 699,76 672,76 641,76 570,178 457,381 L 164,-76 C 142,-110 111,-127 72,-127 30,-127 9,-110 8,-76 1,-67 -2,-52 -2,-32 -2,-23 -1,-13 0,-2 Z"/>
  </g>
  <g id="bullet-char-template(10004)" transform="scale(0.00048828125,-0.00048828125)">
   <path d="M 285,-33 C 182,-33 111,30 74,156 52,228 41,333 41,471 41,549 55,616 82,672 116,743 169,778 240,778 293,778 328,747 346,684 L 369,508 C 377,444 397,411 428,410 L 1163,1116 C 1174,1127 1196,1133 1229,1133 1271,1133 1292,1118 1292,1087 L 1292,965 C 1292,929 1282,901 1262,881 L 442,47 C 390,-6 338,-33 285,-33 Z"/>
  </g>
  <g id="bullet-char-template(9679)" transform="scale(0.00048828125,-0.00048828125)">
   <path d="M 813,0 C 632,0 489,54 383,161 276,268 223,411 223,592 223,773 276,916 383,1023 489,1130 632,1184 813,1184 992,1184 1136,1130 1245,1023 1353,916 1407,772 1407,592 1407,412 1353,268 1245,161 1136,54 992,0 813,0 Z"/>
  </g>
  <g id="bullet-char-template(8226)" transform="scale(0.00048828125,-0.00048828125)">
   <path d="M 346,457 C 273,457 209,483 155,535 101,586 74,649 74,723 74,796 101,859 155,911 209,963 273,989 346,989 419,989 480,963 531,910 582,859 608,796 608,723 608,648 583,586 532,535 482,483 420,457 346,457 Z"/>
  </g>
  <g id="bullet-char-template(8211)" transform="scale(0.00048828125,-0.00048828125)">
   <path d="M -4,459 L 1135,459 1135,606 -4,606 -4,459 Z"/>
  </g>
 </defs>
 <defs class="TextEmbeddedBitmaps"/>
 <g>
  <g id="id2" class="Master_Slide">
   <g id="bg-id2" class="Background"/>
   <g id="bo-id2" class="BackgroundObjects"/>
  </g>
 </g>
 <g class="SlideGroup">
  <g>
   <g id="id1" class="Slide" clip-path="url(#presentation_clip_path)">
    <g class="Page">
     <g class="com.sun.star.drawing.ClosedBezierShape">
      <g id="id3">
       <rect class="BoundingBox" stroke="none" fill="none" x="501" y="4899" width="20004" height="17041"/>
       <path fill="none" stroke="rgb(52,101,164)" d="M 10502,4900 L 12279,7672 C 12909,7831 13511,8081 14120,8433 15274,9099 16103,9928 16769,11082 17436,12236 17739,13368 17739,14700 17739,15160 17703,15596 17628,16017 L 20503,20501 14839,20501 C 14614,20666 14375,20821 14120,20968 12966,21635 11834,21938 10502,21938 9169,21938 8037,21635 6883,20968 6628,20821 6389,20666 6164,20501 L 502,20501 3375,16019 C 3300,15597 3264,15161 3264,14701 3264,13368 3567,12236 4234,11082 4900,9928 5729,9099 6883,8433 7492,8081 8095,7830 8725,7672 L 10502,4900 Z"/>
      </g>
     </g>
     <g class="com.sun.star.drawing.EllipseShape">
      <g id="id4">
       <rect class="BoundingBox" stroke="none" fill="none" x="1500" y="18099" width="2403" height="2403"/>
       <path fill="none" stroke="rgb(0,0,0)" d="M 2701,20500 C 2480,20500 2292,20450 2101,20339 1910,20229 1772,20091 1662,19900 1551,19709 1501,19521 1501,19300 1501,19079 1551,18891 1662,18700 1772,18509 1910,18371 2101,18261 2292,18150 2480,18100 2701,18100 2922,18100 3110,18150 3301,18261 3492,18371 3630,18509 3740,18700 3851,18891 3901,19079 3901,19300 3901,19521 3851,19709 3740,19900 3630,20091 3492,20229 3301,20339 3110,20450 2922,20500 2701,20500 L 2701,20500 Z"/>
      </g>
     </g>
     <g class="com.sun.star.drawing.EllipseShape">
      <g id="id5">
       <rect class="BoundingBox" stroke="none" fill="none" x="17100" y="18099" width="2403" height="2403"/>
       <path fill="none" stroke="rgb(0,0,0)" d="M 18301,20500 C 18080,20500 17892,20450 17701,20339 17510,20229 17372,20091 17262,19900 17151,19709 17101,19521 17101,19300 17101,19079 17151,18891 17262,18700 17372,18509 17510,18371 17701,18261 17892,18150 18080,18100 18301,18100 18522,18100 18710,18150 18901,18261 19092,18371 19230,18509 19340,18700 19451,18891 19501,19079 19501,19300 19501,19521 19451,19709 19340,19900 19230,20091 19092,20229 18901,20339 18710,20450 18522,20500 18301,20500 Z"/>
      </g>
     </g>
     <g class="com.sun.star.drawing.EllipseShape">
      <g id="id6">
       <rect class="BoundingBox" stroke="none" fill="none" x="9300" y="5924" width="2403" height="2403"/>
       <path fill="none" stroke="rgb(0,0,0)" d="M 10501,8325 C 10280,8325 10092,8275 9901,8164 9710,8054 9572,7916 9462,7725 9351,7534 9301,7346 9301,7125 9301,6904 9351,6716 9462,6525 9572,6334 9710,6196 9901,6086 10092,5975 10280,5925 10501,5925 10722,5925 10910,5975 11101,6086 11292,6196 11430,6334 11540,6525 11651,6716 11701,6904 11701,7125 11701,7346 11651,7534 11540,7725 11430,7916 11292,8054 11101,8164 10910,8275 10722,8325 10501,8325 L 10501,8325 Z"/>
      </g>
     </g>
    </g>
   </g>
  </g>
 </g>
</svg>