<?xml version="1.0"?>
<!DOCTYPE svg PUBLIC "-//W3C//DTD SVG 1.1//EN" "http://www.w3.org/Graphics/SVG/1.1/DTD/svg11.dtd">
<svg width="181.555928669mm" height="177.818638764mm" viewBox="0 0 181.555928669 177.818638764" xmlns="http://www.w3.org/2000/svg" version="1.1">
<g id="Pad" transform="translate(90.777964,102.816871) scale(1,-1)">
<path id="Pad_f0000"  d="M 25.3923048454 69.0561483875 A 73.5766319933 73.5766319933 0 0 0 72.5 -12.540764549 L 72.5 -12.540764549 A 73.5766319933 73.5766319933 0 0 1 25.3923048454 69.0561483875 L 25.3923048454 69.0561483875 Z " stroke="#191919" stroke-width="0.35 px" style="stroke-width:0.35;stroke-miterlimit:4;stroke-dasharray:none;fill:#cccccc;fill-rule: evenodd "/>
<path id="Pad_f0001"  d="M 10.3923048454 95.036910501 L 25.3923048454 69.0561483875 L 25.3923048454 69.0561483875 L 10.3923048454 95.036910501 L 10.3923048454 95.036910501 Z " stroke="#191919" stroke-width="0.35 px" style="stroke-width:0.35;stroke-miterlimit:4;stroke-dasharray:none;fill:#cccccc;fill-rule: evenodd "/>
<path id="Pad_f0002"  d="M -10.3923048454 95.036910501 A 12.0 12.0 0 0 0 10.3923048454 95.036910501 L 10.3923048454 95.036910501 A 12.0 12.0 0 0 1 -10.3923048454 95.036910501 L -10.3923048454 95.036910501 Z " stroke="#191919" stroke-width="0.35 px" style="stroke-width:0.35;stroke-miterlimit:4;stroke-dasharray:none;fill:#cccccc;fill-rule: evenodd "/>
<path id="Pad_f0003"  d="M -25.3923048454 69.0561483875 L -10.3923048454 95.036910501 L -10.3923048454 95.036910501 L -25.3923048454 69.0561483875 L -25.3923048454 69.0561483875 Z " stroke="#191919" stroke-width="0.35 px" style="stroke-width:0.35;stroke-miterlimit:4;stroke-dasharray:none;fill:#cccccc;fill-rule: evenodd "/>
<path id="Pad_f0004"  d="M -72.5 -12.540764549 A 73.5766319933 73.5766319933 0 0 0 -25.3923048454 69.0561483875 L -25.3923048454 69.0561483875 A 73.5766319933 73.5766319933 0 0 1 -72.5 -12.540764549 L -72.5 -12.540764549 Z " stroke="#191919" stroke-width="0.35 px" style="stroke-width:0.35;stroke-miterlimit:4;stroke-dasharray:none;fill:#cccccc;fill-rule: evenodd "/>
<path id="Pad_f0005"  d="M -87.5 -38.5215266625 L -72.5 -12.540764549 L -72.5 -12.540764549 L -87.5 -38.5215266625 L -87.5 -38.5215266625 Z " stroke="#191919" stroke-width="0.35 px" style="stroke-width:0.35;stroke-miterlimit:4;stroke-dasharray:none;fill:#cccccc;fill-rule: evenodd "/>
<path id="Pad_f0006"  d="M -76.7811529494 -56.3290059312 A 12.0 12.0 0 0 0 -87.5 -38.5215266625 L -87.5 -38.5215266625 A 12.0 12.0 0 0 1 -76.7811529494 -56.3290059312 L -76.7811529494 -56.3290059312 Z " stroke="#191919" stroke-width="0.35 px" style="stroke-width:0.35;stroke-miterlimit:4;stroke-dasharray:none;fill:#cccccc;fill-rule: evenodd "/>
<path id="Pad_f0007"  d="M -46.7811529494 -56.3290059312 L -76.7811529494 -56.3290059312 L -76.7811529494 -56.3290059312 L -46.7811529494 -56.3290059312 L -46.7811529494 -56.3290059312 Z " stroke="#191919" stroke-width="0.35 px" style="stroke-width:0.35;stroke-miterlimit:4;stroke-dasharray:none;fill:#cccccc;fill-rule: evenodd "/>
<path id="Pad_f0008"  d="M 46.7811529494 -56.3290059312 A 73.2218080934 73.2218080934 0 0 0 -46.7811529494 -56.3290059312 L -46.7811529494 -56.3290059312 A 73.2218080934 73.2218080934 0 0 1 46.7811529494 -56.3290059312 L 46.7811529494 -56.3290059312 Z " stroke="#191919" stroke-width="0.35 px" style="stroke-width:0.35;stroke-miterlimit:4;stroke-dasharray:none;fill:#cccccc;fill-rule: evenodd "/>
<path id="Pad_f0009"  d="M 76.7811529494 -56.3290059312 L 46.7811529494 -56.3290059312 L 46.7811529494 -56.3290059312 L 76.7811529494 -56.3290059312 L 76.7811529494 -56.3290059312 Z " stroke="#191919" stroke-width="0.35 px" style="stroke-width:0.35;stroke-miterlimit:4;stroke-dasharray:none;fill:#cccccc;fill-rule: evenodd "/>
<path id="Pad_f0010"  d="M 87.5 -38.5215266625 A 12.0 12.0 0 0 0 76.7811529494 -56.3290059312 L 76.7811529494 -56.3290059312 A 12.0 12.0 0 0 1 87.5 -38.5215266625 L 87.5 -38.5215266625 Z " stroke="#191919" stroke-width="0.35 px" style="stroke-width:0.35;stroke-miterlimit:4;stroke-dasharray:none;fill:#cccccc;fill-rule: evenodd "/>
<path id="Pad_f0011"  d="M 72.5 -12.540764549 L 72.5 -12.540764549 L 87.5 -38.5215266625 L 87.5 -38.5215266625 L 72.5 -12.540764549 Z " stroke="#191919" stroke-width="0.35 px" style="stroke-width:0.35;stroke-miterlimit:4;stroke-dasharray:none;fill:#cccccc;fill-rule: evenodd "/>
<path id="Pad_f0012"  d="M 72.5 -12.540764549 L 87.5 -38.5215266625 A 12.0 12.0 0 0 0 76.7811529494 -56.3290059312 L 46.7811529494 -56.3290059312 A 73.2218080934 73.2218080934 0 0 0 -46.7811529494 -56.3290059312 L -76.7811529494 -56.3290059312 A 12.0 12.0 0 0 0 -87.5 -38.5215266625 L -72.5 -12.540764549 A 73.5766319933 73.5766319933 0 0 0 -25.3923048454 69.0561483875 L -10.3923048454 95.036910501 A 12.0 12.0 0 0 0 10.3923048454 95.036910501 L 25.3923048454 69.0561483875 A 73.5766319933 73.5766319933 0 0 0 72.5 -12.540764549 Z " stroke="#191919" stroke-width="0.35 px" style="stroke-width:0.35;stroke-miterlimit:4;stroke-dasharray:none;fill:#cccccc;fill-rule: evenodd "/>
<path id="Pad_f0013"  d="M 72.5 -12.540764549 A 73.5766319933 73.5766319933 0 0 1 25.3923048454 69.0561483875 L 10.3923048454 95.036910501 A 12.0 12.0 0 0 1 -10.3923048454 95.036910501 L -25.3923048454 69.0561483875 A 73.5766319933 73.5766319933 0 0 1 -72.5 -12.540764549 L -87.5 -38.5215266625 A 12.0 12.0 0 0 1 -76.7811529494 -56.3290059312 L -46.7811529494 -56.3290059312 A 73.2218080934 73.2218080934 0 0 1 46.7811529494 -56.3290059312 L 76.7811529494 -56.3290059312 A 12.0 12.0 0 0 1 87.5 -38.5215266625 L 72.5 -12.540764549 Z " stroke="#191919" stroke-width="0.35 px" style="stroke-width:0.35;stroke-miterlimit:4;stroke-dasharray:none;fill:#cccccc;fill-rule: evenodd "/>
<title>Pad</title>
</g>
</svg>