ISO-10303-21;
HEADER;
FILE_DESCRIPTION(('FreeCAD Model'),'2;1');
FILE_NAME('Open CASCADE Shape Model','2026-04-01T15:42:03',(
    'kicad StepUp'),('ksu MCAD'),'Open CASCADE STEP processor 7.8',
  'FreeCAD','Unknown');
FILE_SCHEMA(('AUTOMOTIVE_DESIGN { 1 0 10303 214 1 1 1 1 }'));
ENDSEC;
DATA;
#1 = APPLICATION_PROTOCOL_DEFINITION('international standard',
  'automotive_design',2000,#2);
#2 = APPLICATION_CONTEXT(
  'core data for automotive mechanical design processes');
#3 = SHAPE_DEFINITION_REPRESENTATION(#4,#10);
#4 = PRODUCT_DEFINITION_SHAPE('','',#5);
#5 = PRODUCT_DEFINITION('design','',#6,#9);
#6 = PRODUCT_DEFINITION_FORMATION('','',#7);
#7 = PRODUCT('LED_D5.0mm_Clear','LED_D5.0mm_Clear','',(#8));
#8 = PRODUCT_CONTEXT('',#2,'mechanical');
#9 = PRODUCT_DEFINITION_CONTEXT('part definition',#2,'design');
#10 = ADVANCED_BREP_SHAPE_REPRESENTATION('',(#11,#15),#440);
#11 = AXIS2_PLACEMENT_3D('',#12,#13,#14);
#12 = CARTESIAN_POINT('',(0.,0.,0.));
#13 = DIRECTION('',(0.,0.,1.));
#14 = DIRECTION('',(1.,0.,-0.));
#15 = MANIFOLD_SOLID_BREP('',#16);
#16 = CLOSED_SHELL('',(#17,#44,#69,#97,#129,#146,#224,#255,#279,#303,
    #320,#351,#375,#399,#416,#428));
#17 = ADVANCED_FACE('',(#18),#39,.T.);
#18 = FACE_BOUND('',#19,.T.);
#19 = EDGE_LOOP('',(#20,#31,#32));
#20 = ORIENTED_EDGE('',*,*,#21,.T.);
#21 = EDGE_CURVE('',#22,#24,#26,.T.);
#22 = VERTEX_POINT('',#23);
#23 = CARTESIAN_POINT('',(-1.16152796,-8.899996453584,-2.809540626268));
#24 = VERTEX_POINT('',#25);
#25 = CARTESIAN_POINT('',(0.24373430906,-11.34999645358,-0.80261811776)
  );
#26 = CIRCLE('',#27,2.45);
#27 = AXIS2_PLACEMENT_3D('',#28,#29,#30);
#28 = CARTESIAN_POINT('',(0.24373430906,-8.899996453584,-0.80261811776)
  );
#29 = DIRECTION('',(-0.819152044289,-2.22044604925E-16,0.573576436351));
#30 = DIRECTION('',(-0.573576436351,-5.551115123126E-17,-0.819152044289)
  );
#31 = ORIENTED_EDGE('',*,*,#21,.F.);
#32 = ORIENTED_EDGE('',*,*,#33,.F.);
#33 = EDGE_CURVE('',#22,#22,#34,.T.);
#34 = CIRCLE('',#35,2.45);
#35 = AXIS2_PLACEMENT_3D('',#36,#37,#38);
#36 = CARTESIAN_POINT('',(0.24373430906,-8.899996453584,-0.80261811776)
  );
#37 = DIRECTION('',(-3.1839888301E-17,1.,-4.54720730119E-17));
#38 = DIRECTION('',(-0.573576436351,-5.551115123126E-17,-0.819152044289)
  );
#39 = SPHERICAL_SURFACE('',#40,2.45);
#40 = AXIS2_PLACEMENT_3D('',#41,#42,#43);
#41 = CARTESIAN_POINT('',(0.24373430906,-8.899996453584,-0.80261811776)
  );
#42 = DIRECTION('',(3.1839888301E-17,-1.,4.54720730119E-17));
#43 = DIRECTION('',(-0.573576436351,-5.551115123126E-17,-0.819152044289)
  );
#44 = ADVANCED_FACE('',(#45),#64,.T.);
#45 = FACE_BOUND('',#46,.T.);
#46 = EDGE_LOOP('',(#47,#55,#56,#57));
#47 = ORIENTED_EDGE('',*,*,#48,.F.);
#48 = EDGE_CURVE('',#22,#49,#51,.T.);
#49 = VERTEX_POINT('',#50);
#50 = CARTESIAN_POINT('',(-1.16152796,-3.749996453584,-2.809540626268));
#51 = LINE('',#52,#53);
#52 = CARTESIAN_POINT('',(-1.16152796,-8.899996453584,-2.809540626268));
#53 = VECTOR('',#54,1.);
#54 = DIRECTION('',(-2.137281803487E-16,1.,8.188748019196E-17));
#55 = ORIENTED_EDGE('',*,*,#33,.T.);
#56 = ORIENTED_EDGE('',*,*,#48,.T.);
#57 = ORIENTED_EDGE('',*,*,#58,.F.);
#58 = EDGE_CURVE('',#49,#49,#59,.T.);
#59 = CIRCLE('',#60,2.45);
#60 = AXIS2_PLACEMENT_3D('',#61,#62,#63);
#61 = CARTESIAN_POINT('',(0.24373430906,-3.749996453584,-0.80261811776)
  );
#62 = DIRECTION('',(-3.1839888301E-17,1.,-4.54720730119E-17));
#63 = DIRECTION('',(-0.573576436351,-5.551115123126E-17,-0.819152044289)
  );
#64 = CYLINDRICAL_SURFACE('',#65,2.45);
#65 = AXIS2_PLACEMENT_3D('',#66,#67,#68);
#66 = CARTESIAN_POINT('',(0.24373430906,-8.899996453584,-0.80261811776)
  );
#67 = DIRECTION('',(-3.1839888301E-17,1.,-4.54720730119E-17));
#68 = DIRECTION('',(-0.573576436351,-5.551115123126E-17,-0.819152044289)
  );
#69 = ADVANCED_FACE('',(#70,#89),#92,.F.);
#70 = FACE_BOUND('',#71,.F.);
#71 = EDGE_LOOP('',(#72,#83));
#72 = ORIENTED_EDGE('',*,*,#73,.F.);
#73 = EDGE_CURVE('',#74,#76,#78,.T.);
#74 = VERTEX_POINT('',#75);
#75 = CARTESIAN_POINT('',(0.473772681778,-3.749996453584,2.088243751488)
  );
#76 = VERTEX_POINT('',#77);
#77 = CARTESIAN_POINT('',(2.881578118096,-3.749996453584,0.402280234437)
  );
#78 = CIRCLE('',#79,2.9);
#79 = AXIS2_PLACEMENT_3D('',#80,#81,#82);
#80 = CARTESIAN_POINT('',(0.24373430906,-3.749996453584,-0.80261811776)
  );
#81 = DIRECTION('',(-3.319366957944E-16,-1.,3.001911794197E-16));
#82 = DIRECTION('',(-0.573576436351,-5.551115123126E-17,-0.819152044289)
  );
#83 = ORIENTED_EDGE('',*,*,#84,.T.);
#84 = EDGE_CURVE('',#74,#76,#85,.T.);
#85 = LINE('',#86,#87);
#86 = CARTESIAN_POINT('',(0.473772681778,-3.749996453584,2.088243751488)
  );
#87 = VECTOR('',#88,1.);
#88 = DIRECTION('',(0.819152044289,-4.440892098501E-16,-0.573576436351)
  );
#89 = FACE_BOUND('',#90,.F.);
#90 = EDGE_LOOP('',(#91));
#91 = ORIENTED_EDGE('',*,*,#58,.F.);
#92 = PLANE('',#93);
#93 = AXIS2_PLACEMENT_3D('',#94,#95,#96);
#94 = CARTESIAN_POINT('',(0.473772681777,-3.749996453584,2.088243751489)
  );
#95 = DIRECTION('',(3.319366957944E-16,1.,-3.001911794197E-16));
#96 = DIRECTION('',(0.573576436351,5.551115123126E-17,0.819152044289));
#97 = ADVANCED_FACE('',(#98),#124,.T.);
#98 = FACE_BOUND('',#99,.T.);
#99 = EDGE_LOOP('',(#100,#111,#117,#118));
#100 = ORIENTED_EDGE('',*,*,#101,.T.);
#101 = EDGE_CURVE('',#102,#104,#106,.T.);
#102 = VERTEX_POINT('',#103);
#103 = CARTESIAN_POINT('',(0.473772681778,-2.749996453584,2.088243751488
    ));
#104 = VERTEX_POINT('',#105);
#105 = CARTESIAN_POINT('',(2.881578118096,-2.749996453584,0.402280234437
    ));
#106 = CIRCLE('',#107,2.9);
#107 = AXIS2_PLACEMENT_3D('',#108,#109,#110);
#108 = CARTESIAN_POINT('',(0.24373430906,-2.749996453584,-0.80261811776)
  );
#109 = DIRECTION('',(-3.319366957944E-16,-1.,3.001911794197E-16));
#110 = DIRECTION('',(-0.573576436351,-5.551115123126E-17,-0.819152044289
    ));
#111 = ORIENTED_EDGE('',*,*,#112,.T.);
#112 = EDGE_CURVE('',#104,#76,#113,.T.);
#113 = LINE('',#114,#115);
#114 = CARTESIAN_POINT('',(2.881578118096,-2.749996453584,0.402280234437
    ));
#115 = VECTOR('',#116,1.);
#116 = DIRECTION('',(-3.319366957944E-16,-1.,3.001911794197E-16));
#117 = ORIENTED_EDGE('',*,*,#73,.F.);
#118 = ORIENTED_EDGE('',*,*,#119,.F.);
#119 = EDGE_CURVE('',#102,#74,#120,.T.);
#120 = LINE('',#121,#122);
#121 = CARTESIAN_POINT('',(0.473772681778,-2.749996453584,2.088243751488
    ));
#122 = VECTOR('',#123,1.);
#123 = DIRECTION('',(-3.319366957944E-16,-1.,3.001911794197E-16));
#124 = CYLINDRICAL_SURFACE('',#125,2.9);
#125 = AXIS2_PLACEMENT_3D('',#126,#127,#128);
#126 = CARTESIAN_POINT('',(0.24373430906,-2.749996453584,-0.80261811776)
  );
#127 = DIRECTION('',(3.319366957944E-16,1.,-3.001911794197E-16));
#128 = DIRECTION('',(-0.573576436351,-5.551115123126E-17,-0.819152044289
    ));
#129 = ADVANCED_FACE('',(#130),#141,.T.);
#130 = FACE_BOUND('',#131,.T.);
#131 = EDGE_LOOP('',(#132,#133,#134,#135));
#132 = ORIENTED_EDGE('',*,*,#119,.T.);
#133 = ORIENTED_EDGE('',*,*,#84,.T.);
#134 = ORIENTED_EDGE('',*,*,#112,.F.);
#135 = ORIENTED_EDGE('',*,*,#136,.F.);
#136 = EDGE_CURVE('',#102,#104,#137,.T.);
#137 = LINE('',#138,#139);
#138 = CARTESIAN_POINT('',(0.473772681778,-2.749996453584,2.088243751488
    ));
#139 = VECTOR('',#140,1.);
#140 = DIRECTION('',(0.819152044289,-4.440892098501E-16,-0.573576436351)
  );
#141 = PLANE('',#142);
#142 = AXIS2_PLACEMENT_3D('',#143,#144,#145);
#143 = CARTESIAN_POINT('',(0.473772681778,-2.749996453584,2.088243751488
    ));
#144 = DIRECTION('',(0.573576436351,5.551115123126E-17,0.819152044289));
#145 = DIRECTION('',(0.819152044289,-4.440892098501E-16,-0.573576436351)
  );
#146 = ADVANCED_FACE('',(#147,#151,#185),#219,.T.);
#147 = FACE_BOUND('',#148,.T.);
#148 = EDGE_LOOP('',(#149,#150));
#149 = ORIENTED_EDGE('',*,*,#101,.F.);
#150 = ORIENTED_EDGE('',*,*,#136,.T.);
#151 = FACE_BOUND('',#152,.T.);
#152 = EDGE_LOOP('',(#153,#163,#171,#179));
#153 = ORIENTED_EDGE('',*,*,#154,.T.);
#154 = EDGE_CURVE('',#155,#157,#159,.T.);
#155 = VERTEX_POINT('',#156);
#156 = CARTESIAN_POINT('',(0.923061261638,-2.749996453584,0.516250674615
    ));
#157 = VERTEX_POINT('',#158);
#158 = CARTESIAN_POINT('',(0.693630687098,-2.749996453584,0.1885898569)
  );
#159 = LINE('',#160,#161);
#160 = CARTESIAN_POINT('',(1.103737839089,-2.749996453584,0.774283568566
    ));
#161 = VECTOR('',#162,1.);
#162 = DIRECTION('',(-0.573576436351,-5.551115123126E-17,-0.819152044289
    ));
#163 = ORIENTED_EDGE('',*,*,#164,.T.);
#164 = EDGE_CURVE('',#157,#165,#167,.T.);
#165 = VERTEX_POINT('',#166);
#166 = CARTESIAN_POINT('',(1.021291504813,-2.749996453584,
    -4.084071764065E-02));
#167 = LINE('',#168,#169);
#168 = CARTESIAN_POINT('',(0.337424941305,-2.749996453584,0.438007805258
    ));
#169 = VECTOR('',#170,1.);
#170 = DIRECTION('',(0.819152044289,-4.440892098501E-16,-0.573576436351)
  );
#171 = ORIENTED_EDGE('',*,*,#172,.T.);
#172 = EDGE_CURVE('',#165,#173,#175,.T.);
#173 = VERTEX_POINT('',#174);
#174 = CARTESIAN_POINT('',(1.250722079354,-2.749996453584,0.286820100075
    ));
#175 = LINE('',#176,#177);
#176 = CARTESIAN_POINT('',(1.546113944075,-2.749996453584,0.708683402884
    ));
#177 = VECTOR('',#178,1.);
#178 = DIRECTION('',(0.573576436351,5.551115123126E-17,0.819152044289));
#179 = ORIENTED_EDGE('',*,*,#180,.T.);
#180 = EDGE_CURVE('',#173,#155,#181,.T.);
#181 = LINE('',#182,#183);
#182 = CARTESIAN_POINT('',(0.403025106987,-2.749996453584,0.880383910243
    ));
#183 = VECTOR('',#184,1.);
#184 = DIRECTION('',(-0.819152044289,4.440892098501E-16,0.573576436351)
  );
#185 = FACE_BOUND('',#186,.T.);
#186 = EDGE_LOOP('',(#187,#197,#205,#213));
#187 = ORIENTED_EDGE('',*,*,#188,.T.);
#188 = EDGE_CURVE('',#189,#191,#193,.T.);
#189 = VERTEX_POINT('',#190);
#190 = CARTESIAN_POINT('',(-0.206162068978,-2.749996453584,
    -1.793826092419));
#191 = VERTEX_POINT('',#192);
#192 = CARTESIAN_POINT('',(-0.533822886693,-2.749996453584,
    -1.564395517879));
#193 = LINE('',#194,#195);
#194 = CARTESIAN_POINT('',(-1.053859041344,-2.749996453584,
    -1.200262282251));
#195 = VECTOR('',#196,1.);
#196 = DIRECTION('',(-0.819152044289,4.440892098501E-16,0.573576436351)
  );
#197 = ORIENTED_EDGE('',*,*,#198,.T.);
#198 = EDGE_CURVE('',#191,#199,#201,.T.);
#199 = VERTEX_POINT('',#200);
#200 = CARTESIAN_POINT('',(-0.763253461234,-2.749996453584,
    -1.892056335594));
#201 = LINE('',#202,#203);
#202 = CARTESIAN_POINT('',(0.375295764923,-2.749996453584,
    -0.266039527681));
#203 = VECTOR('',#204,1.);
#204 = DIRECTION('',(-0.573576436351,-5.551115123126E-17,-0.819152044289
    ));
#205 = ORIENTED_EDGE('',*,*,#206,.T.);
#206 = EDGE_CURVE('',#199,#207,#209,.T.);
#207 = VERTEX_POINT('',#208);
#208 = CARTESIAN_POINT('',(-0.435592643518,-2.749996453584,
    -2.121486910135));
#209 = LINE('',#210,#211);
#210 = CARTESIAN_POINT('',(-1.119459207027,-2.749996453584,
    -1.642638387236));
#211 = VECTOR('',#212,1.);
#212 = DIRECTION('',(0.819152044289,-4.440892098501E-16,-0.573576436351)
  );
#213 = ORIENTED_EDGE('',*,*,#214,.T.);
#214 = EDGE_CURVE('',#207,#189,#215,.T.);
#215 = LINE('',#216,#217);
#216 = CARTESIAN_POINT('',(0.817671869909,-2.749996453584,
    -0.331639693363));
#217 = VECTOR('',#218,1.);
#218 = DIRECTION('',(0.573576436351,5.551115123126E-17,0.819152044289));
#219 = PLANE('',#220);
#220 = AXIS2_PLACEMENT_3D('',#221,#222,#223);
#221 = CARTESIAN_POINT('',(0.473772681777,-2.749996453584,2.088243751489
    ));
#222 = DIRECTION('',(3.319366957944E-16,1.,-3.001911794197E-16));
#223 = DIRECTION('',(0.573576436351,5.551115123126E-17,0.819152044289));
#224 = ADVANCED_FACE('',(#225),#250,.F.);
#225 = FACE_BOUND('',#226,.F.);
#226 = EDGE_LOOP('',(#227,#228,#236,#244));
#227 = ORIENTED_EDGE('',*,*,#154,.T.);
#228 = ORIENTED_EDGE('',*,*,#229,.T.);
#229 = EDGE_CURVE('',#157,#230,#232,.T.);
#230 = VERTEX_POINT('',#231);
#231 = CARTESIAN_POINT('',(0.693630687098,2.750003546416,0.1885898569));
#232 = LINE('',#233,#234);
#233 = CARTESIAN_POINT('',(0.693630687098,-3.249996453584,0.1885898569)
  );
#234 = VECTOR('',#235,1.);
#235 = DIRECTION('',(3.319366957944E-16,1.,-3.001911794197E-16));
#236 = ORIENTED_EDGE('',*,*,#237,.T.);
#237 = EDGE_CURVE('',#230,#238,#240,.T.);
#238 = VERTEX_POINT('',#239);
#239 = CARTESIAN_POINT('',(0.923061261638,2.750003546416,0.516250674615)
  );
#240 = LINE('',#241,#242);
#241 = CARTESIAN_POINT('',(0.693630687098,2.750003546416,0.1885898569));
#242 = VECTOR('',#243,1.);
#243 = DIRECTION('',(0.573576436351,5.551115123126E-17,0.819152044289));
#244 = ORIENTED_EDGE('',*,*,#245,.F.);
#245 = EDGE_CURVE('',#155,#238,#246,.T.);
#246 = LINE('',#247,#248);
#247 = CARTESIAN_POINT('',(0.923061261638,-3.249996453584,0.516250674615
    ));
#248 = VECTOR('',#249,1.);
#249 = DIRECTION('',(3.319366957944E-16,1.,-3.001911794197E-16));
#250 = PLANE('',#251);
#251 = AXIS2_PLACEMENT_3D('',#252,#253,#254);
#252 = CARTESIAN_POINT('',(0.693630687098,-3.249996453584,0.1885898569)
  );
#253 = DIRECTION('',(0.819152044289,-4.440892098501E-16,-0.573576436351)
  );
#254 = DIRECTION('',(0.573576436351,5.551115123126E-17,0.819152044289));
#255 = ADVANCED_FACE('',(#256),#274,.F.);
#256 = FACE_BOUND('',#257,.F.);
#257 = EDGE_LOOP('',(#258,#259,#260,#268));
#258 = ORIENTED_EDGE('',*,*,#180,.T.);
#259 = ORIENTED_EDGE('',*,*,#245,.T.);
#260 = ORIENTED_EDGE('',*,*,#261,.T.);
#261 = EDGE_CURVE('',#238,#262,#264,.T.);
#262 = VERTEX_POINT('',#263);
#263 = CARTESIAN_POINT('',(1.250722079354,2.750003546416,0.286820100075)
  );
#264 = LINE('',#265,#266);
#265 = CARTESIAN_POINT('',(0.923061261638,2.750003546416,0.516250674615)
  );
#266 = VECTOR('',#267,1.);
#267 = DIRECTION('',(0.819152044289,-4.440892098501E-16,-0.573576436351)
  );
#268 = ORIENTED_EDGE('',*,*,#269,.F.);
#269 = EDGE_CURVE('',#173,#262,#270,.T.);
#270 = LINE('',#271,#272);
#271 = CARTESIAN_POINT('',(1.250722079354,-3.249996453584,0.286820100075
    ));
#272 = VECTOR('',#273,1.);
#273 = DIRECTION('',(3.319366957944E-16,1.,-3.001911794197E-16));
#274 = PLANE('',#275);
#275 = AXIS2_PLACEMENT_3D('',#276,#277,#278);
#276 = CARTESIAN_POINT('',(0.923061261638,-3.249996453584,0.516250674615
    ));
#277 = DIRECTION('',(-0.573576436351,-5.551115123126E-17,-0.819152044289
    ));
#278 = DIRECTION('',(0.819152044289,-4.440892098501E-16,-0.573576436351)
  );
#279 = ADVANCED_FACE('',(#280),#298,.F.);
#280 = FACE_BOUND('',#281,.F.);
#281 = EDGE_LOOP('',(#282,#283,#284,#292));
#282 = ORIENTED_EDGE('',*,*,#172,.T.);
#283 = ORIENTED_EDGE('',*,*,#269,.T.);
#284 = ORIENTED_EDGE('',*,*,#285,.T.);
#285 = EDGE_CURVE('',#262,#286,#288,.T.);
#286 = VERTEX_POINT('',#287);
#287 = CARTESIAN_POINT('',(1.021291504813,2.750003546416,
    -4.084071764065E-02));
#288 = LINE('',#289,#290);
#289 = CARTESIAN_POINT('',(1.250722079354,2.750003546416,0.286820100075)
  );
#290 = VECTOR('',#291,1.);
#291 = DIRECTION('',(-0.573576436351,-5.551115123126E-17,-0.819152044289
    ));
#292 = ORIENTED_EDGE('',*,*,#293,.F.);
#293 = EDGE_CURVE('',#165,#286,#294,.T.);
#294 = LINE('',#295,#296);
#295 = CARTESIAN_POINT('',(1.021291504813,-3.249996453584,
    -4.084071764065E-02));
#296 = VECTOR('',#297,1.);
#297 = DIRECTION('',(3.319366957944E-16,1.,-3.001911794197E-16));
#298 = PLANE('',#299);
#299 = AXIS2_PLACEMENT_3D('',#300,#301,#302);
#300 = CARTESIAN_POINT('',(1.250722079354,-3.249996453584,0.286820100075
    ));
#301 = DIRECTION('',(-0.819152044289,4.440892098501E-16,0.573576436351)
  );
#302 = DIRECTION('',(-0.573576436351,-5.551115123126E-17,-0.819152044289
    ));
#303 = ADVANCED_FACE('',(#304),#315,.F.);
#304 = FACE_BOUND('',#305,.F.);
#305 = EDGE_LOOP('',(#306,#307,#308,#314));
#306 = ORIENTED_EDGE('',*,*,#164,.T.);
#307 = ORIENTED_EDGE('',*,*,#293,.T.);
#308 = ORIENTED_EDGE('',*,*,#309,.T.);
#309 = EDGE_CURVE('',#286,#230,#310,.T.);
#310 = LINE('',#311,#312);
#311 = CARTESIAN_POINT('',(1.021291504813,2.750003546416,
    -4.084071764065E-02));
#312 = VECTOR('',#313,1.);
#313 = DIRECTION('',(-0.819152044289,4.440892098501E-16,0.573576436351)
  );
#314 = ORIENTED_EDGE('',*,*,#229,.F.);
#315 = PLANE('',#316);
#316 = AXIS2_PLACEMENT_3D('',#317,#318,#319);
#317 = CARTESIAN_POINT('',(1.021291504813,-3.249996453584,
    -4.084071764065E-02));
#318 = DIRECTION('',(0.573576436351,5.551115123126E-17,0.819152044289));
#319 = DIRECTION('',(-0.819152044289,4.440892098501E-16,0.573576436351)
  );
#320 = ADVANCED_FACE('',(#321),#346,.F.);
#321 = FACE_BOUND('',#322,.F.);
#322 = EDGE_LOOP('',(#323,#324,#332,#340));
#323 = ORIENTED_EDGE('',*,*,#188,.T.);
#324 = ORIENTED_EDGE('',*,*,#325,.T.);
#325 = EDGE_CURVE('',#191,#326,#328,.T.);
#326 = VERTEX_POINT('',#327);
#327 = CARTESIAN_POINT('',(-0.533822886693,2.750003546416,
    -1.564395517879));
#328 = LINE('',#329,#330);
#329 = CARTESIAN_POINT('',(-0.533822886693,-3.249996453584,
    -1.564395517879));
#330 = VECTOR('',#331,1.);
#331 = DIRECTION('',(3.319366957944E-16,1.,-3.001911794197E-16));
#332 = ORIENTED_EDGE('',*,*,#333,.T.);
#333 = EDGE_CURVE('',#326,#334,#336,.T.);
#334 = VERTEX_POINT('',#335);
#335 = CARTESIAN_POINT('',(-0.206162068978,2.750003546416,
    -1.793826092419));
#336 = LINE('',#337,#338);
#337 = CARTESIAN_POINT('',(-0.533822886693,2.750003546416,
    -1.564395517879));
#338 = VECTOR('',#339,1.);
#339 = DIRECTION('',(0.819152044289,-4.440892098501E-16,-0.573576436351)
  );
#340 = ORIENTED_EDGE('',*,*,#341,.F.);
#341 = EDGE_CURVE('',#189,#334,#342,.T.);
#342 = LINE('',#343,#344);
#343 = CARTESIAN_POINT('',(-0.206162068978,-3.249996453584,
    -1.793826092419));
#344 = VECTOR('',#345,1.);
#345 = DIRECTION('',(3.319366957944E-16,1.,-3.001911794197E-16));
#346 = PLANE('',#347);
#347 = AXIS2_PLACEMENT_3D('',#348,#349,#350);
#348 = CARTESIAN_POINT('',(-0.533822886693,-3.249996453584,
    -1.564395517879));
#349 = DIRECTION('',(-0.573576436351,-5.551115123126E-17,-0.819152044289
    ));
#350 = DIRECTION('',(0.819152044289,-4.440892098501E-16,-0.573576436351)
  );
#351 = ADVANCED_FACE('',(#352),#370,.F.);
#352 = FACE_BOUND('',#353,.F.);
#353 = EDGE_LOOP('',(#354,#355,#356,#364));
#354 = ORIENTED_EDGE('',*,*,#214,.T.);
#355 = ORIENTED_EDGE('',*,*,#341,.T.);
#356 = ORIENTED_EDGE('',*,*,#357,.T.);
#357 = EDGE_CURVE('',#334,#358,#360,.T.);
#358 = VERTEX_POINT('',#359);
#359 = CARTESIAN_POINT('',(-0.435592643518,2.750003546416,
    -2.121486910135));
#360 = LINE('',#361,#362);
#361 = CARTESIAN_POINT('',(-0.206162068978,2.750003546416,
    -1.793826092419));
#362 = VECTOR('',#363,1.);
#363 = DIRECTION('',(-0.573576436351,-5.551115123126E-17,-0.819152044289
    ));
#364 = ORIENTED_EDGE('',*,*,#365,.F.);
#365 = EDGE_CURVE('',#207,#358,#366,.T.);
#366 = LINE('',#367,#368);
#367 = CARTESIAN_POINT('',(-0.435592643518,-3.249996453584,
    -2.121486910135));
#368 = VECTOR('',#369,1.);
#369 = DIRECTION('',(3.319366957944E-16,1.,-3.001911794197E-16));
#370 = PLANE('',#371);
#371 = AXIS2_PLACEMENT_3D('',#372,#373,#374);
#372 = CARTESIAN_POINT('',(-0.206162068978,-3.249996453584,
    -1.793826092419));
#373 = DIRECTION('',(-0.819152044289,4.440892098501E-16,0.573576436351)
  );
#374 = DIRECTION('',(-0.573576436351,-5.551115123126E-17,-0.819152044289
    ));
#375 = ADVANCED_FACE('',(#376),#394,.F.);
#376 = FACE_BOUND('',#377,.F.);
#377 = EDGE_LOOP('',(#378,#379,#380,#388));
#378 = ORIENTED_EDGE('',*,*,#206,.T.);
#379 = ORIENTED_EDGE('',*,*,#365,.T.);
#380 = ORIENTED_EDGE('',*,*,#381,.T.);
#381 = EDGE_CURVE('',#358,#382,#384,.T.);
#382 = VERTEX_POINT('',#383);
#383 = CARTESIAN_POINT('',(-0.763253461234,2.750003546416,
    -1.892056335594));
#384 = LINE('',#385,#386);
#385 = CARTESIAN_POINT('',(-0.435592643518,2.750003546416,
    -2.121486910135));
#386 = VECTOR('',#387,1.);
#387 = DIRECTION('',(-0.819152044289,4.440892098501E-16,0.573576436351)
  );
#388 = ORIENTED_EDGE('',*,*,#389,.F.);
#389 = EDGE_CURVE('',#199,#382,#390,.T.);
#390 = LINE('',#391,#392);
#391 = CARTESIAN_POINT('',(-0.763253461234,-3.249996453584,
    -1.892056335594));
#392 = VECTOR('',#393,1.);
#393 = DIRECTION('',(3.319366957944E-16,1.,-3.001911794197E-16));
#394 = PLANE('',#395);
#395 = AXIS2_PLACEMENT_3D('',#396,#397,#398);
#396 = CARTESIAN_POINT('',(-0.435592643518,-3.249996453584,
    -2.121486910135));
#397 = DIRECTION('',(0.573576436351,5.551115123126E-17,0.819152044289));
#398 = DIRECTION('',(-0.819152044289,4.440892098501E-16,0.573576436351)
  );
#399 = ADVANCED_FACE('',(#400),#411,.F.);
#400 = FACE_BOUND('',#401,.F.);
#401 = EDGE_LOOP('',(#402,#403,#404,#410));
#402 = ORIENTED_EDGE('',*,*,#198,.T.);
#403 = ORIENTED_EDGE('',*,*,#389,.T.);
#404 = ORIENTED_EDGE('',*,*,#405,.T.);
#405 = EDGE_CURVE('',#382,#326,#406,.T.);
#406 = LINE('',#407,#408);
#407 = CARTESIAN_POINT('',(-0.763253461234,2.750003546416,
    -1.892056335594));
#408 = VECTOR('',#409,1.);
#409 = DIRECTION('',(0.573576436351,5.551115123126E-17,0.819152044289));
#410 = ORIENTED_EDGE('',*,*,#325,.F.);
#411 = PLANE('',#412);
#412 = AXIS2_PLACEMENT_3D('',#413,#414,#415);
#413 = CARTESIAN_POINT('',(-0.763253461234,-3.249996453584,
    -1.892056335594));
#414 = DIRECTION('',(0.819152044289,-4.440892098501E-16,-0.573576436351)
  );
#415 = DIRECTION('',(0.573576436351,5.551115123126E-17,0.819152044289));
#416 = ADVANCED_FACE('',(#417),#423,.F.);
#417 = FACE_BOUND('',#418,.T.);
#418 = EDGE_LOOP('',(#419,#420,#421,#422));
#419 = ORIENTED_EDGE('',*,*,#285,.T.);
#420 = ORIENTED_EDGE('',*,*,#309,.T.);
#421 = ORIENTED_EDGE('',*,*,#237,.T.);
#422 = ORIENTED_EDGE('',*,*,#261,.T.);
#423 = PLANE('',#424);
#424 = AXIS2_PLACEMENT_3D('',#425,#426,#427);
#425 = CARTESIAN_POINT('',(1.250722079354,2.750003546416,0.286820100075)
  );
#426 = DIRECTION('',(-3.319366957944E-16,-1.,3.001911794197E-16));
#427 = DIRECTION('',(-0.573576436351,-5.551115123126E-17,-0.819152044289
    ));
#428 = ADVANCED_FACE('',(#429),#435,.F.);
#429 = FACE_BOUND('',#430,.T.);
#430 = EDGE_LOOP('',(#431,#432,#433,#434));
#431 = ORIENTED_EDGE('',*,*,#357,.T.);
#432 = ORIENTED_EDGE('',*,*,#381,.T.);
#433 = ORIENTED_EDGE('',*,*,#405,.T.);
#434 = ORIENTED_EDGE('',*,*,#333,.T.);
#435 = PLANE('',#436);
#436 = AXIS2_PLACEMENT_3D('',#437,#438,#439);
#437 = CARTESIAN_POINT('',(-0.206162068978,2.750003546416,
    -1.793826092419));
#438 = DIRECTION('',(-3.319366957944E-16,-1.,3.001911794197E-16));
#439 = DIRECTION('',(-0.573576436351,-5.551115123126E-17,-0.819152044289
    ));
#440 = ( GEOMETRIC_REPRESENTATION_CONTEXT(3) 
GLOBAL_UNCERTAINTY_ASSIGNED_CONTEXT((#444)) GLOBAL_UNIT_ASSIGNED_CONTEXT
((#441,#442,#443)) REPRESENTATION_CONTEXT('Context #1',
  '3D Context with UNIT and UNCERTAINTY') );
#441 = ( LENGTH_UNIT() NAMED_UNIT(*) SI_UNIT(.MILLI.,.METRE.) );
#442 = ( NAMED_UNIT(*) PLANE_ANGLE_UNIT() SI_UNIT($,.RADIAN.) );
#443 = ( NAMED_UNIT(*) SI_UNIT($,.STERADIAN.) SOLID_ANGLE_UNIT() );
#444 = UNCERTAINTY_MEASURE_WITH_UNIT(LENGTH_MEASURE(1.E-07),#441,
  'distance_accuracy_value','confusion accuracy');
#445 = PRODUCT_RELATED_PRODUCT_CATEGORY('part',$,(#7));
#446 = MECHANICAL_DESIGN_GEOMETRIC_PRESENTATION_REPRESENTATION('',(#447,
    #458,#467,#476,#485,#494,#503,#512,#522,#531,#540,#549,#558,#567,
    #576,#585,#594),#440);
#447 = STYLED_ITEM('color',(#448),#15);
#448 = PRESENTATION_STYLE_ASSIGNMENT((#449,#455));
#449 = SURFACE_STYLE_USAGE(.BOTH.,#450);
#450 = SURFACE_SIDE_STYLE('',(#451));
#451 = SURFACE_STYLE_FILL_AREA(#452);
#452 = FILL_AREA_STYLE('',(#453));
#453 = FILL_AREA_STYLE_COLOUR('',#454);
#454 = COLOUR_RGB('',0.894999966383,0.890999961016,0.813000030345);
#455 = CURVE_STYLE('',#456,POSITIVE_LENGTH_MEASURE(0.1),#457);
#456 = DRAUGHTING_PRE_DEFINED_CURVE_FONT('continuous');
#457 = COLOUR_RGB('',9.803921802644E-02,9.803921802644E-02,
  9.803921802644E-02);
#458 = OVER_RIDING_STYLED_ITEM('overriding color',(#459),#17,#447);
#459 = PRESENTATION_STYLE_ASSIGNMENT((#460));
#460 = SURFACE_STYLE_USAGE(.BOTH.,#461);
#461 = SURFACE_SIDE_STYLE('',(#462,#465));
#462 = SURFACE_STYLE_FILL_AREA(#463);
#463 = FILL_AREA_STYLE('',(#464));
#464 = FILL_AREA_STYLE_COLOUR('',#454);
#465 = SURFACE_STYLE_RENDERING_WITH_PROPERTIES(.NORMAL_SHADING.,#454,(
    #466));
#466 = SURFACE_STYLE_TRANSPARENT(0.);
#467 = OVER_RIDING_STYLED_ITEM('overriding color',(#468),#44,#447);
#468 = PRESENTATION_STYLE_ASSIGNMENT((#469));
#469 = SURFACE_STYLE_USAGE(.BOTH.,#470);
#470 = SURFACE_SIDE_STYLE('',(#471,#474));
#471 = SURFACE_STYLE_FILL_AREA(#472);
#472 = FILL_AREA_STYLE('',(#473));
#473 = FILL_AREA_STYLE_COLOUR('',#454);
#474 = SURFACE_STYLE_RENDERING_WITH_PROPERTIES(.NORMAL_SHADING.,#454,(
    #475));
#475 = SURFACE_STYLE_TRANSPARENT(0.);
#476 = OVER_RIDING_STYLED_ITEM('overriding color',(#477),#69,#447);
#477 = PRESENTATION_STYLE_ASSIGNMENT((#478));
#478 = SURFACE_STYLE_USAGE(.BOTH.,#479);
#479 = SURFACE_SIDE_STYLE('',(#480,#483));
#480 = SURFACE_STYLE_FILL_AREA(#481);
#481 = FILL_AREA_STYLE('',(#482));
#482 = FILL_AREA_STYLE_COLOUR('',#454);
#483 = SURFACE_STYLE_RENDERING_WITH_PROPERTIES(.NORMAL_SHADING.,#454,(
    #484));
#484 = SURFACE_STYLE_TRANSPARENT(0.);
#485 = OVER_RIDING_STYLED_ITEM('overriding color',(#486),#97,#447);
#486 = PRESENTATION_STYLE_ASSIGNMENT((#487));
#487 = SURFACE_STYLE_USAGE(.BOTH.,#488);
#488 = SURFACE_SIDE_STYLE('',(#489,#492));
#489 = SURFACE_STYLE_FILL_AREA(#490);
#490 = FILL_AREA_STYLE('',(#491));
#491 = FILL_AREA_STYLE_COLOUR('',#454);
#492 = SURFACE_STYLE_RENDERING_WITH_PROPERTIES(.NORMAL_SHADING.,#454,(
    #493));
#493 = SURFACE_STYLE_TRANSPARENT(0.);
#494 = OVER_RIDING_STYLED_ITEM('overriding color',(#495),#129,#447);
#495 = PRESENTATION_STYLE_ASSIGNMENT((#496));
#496 = SURFACE_STYLE_USAGE(.BOTH.,#497);
#497 = SURFACE_SIDE_STYLE('',(#498,#501));
#498 = SURFACE_STYLE_FILL_AREA(#499);
#499 = FILL_AREA_STYLE('',(#500));
#500 = FILL_AREA_STYLE_COLOUR('',#454);
#501 = SURFACE_STYLE_RENDERING_WITH_PROPERTIES(.NORMAL_SHADING.,#454,(
    #502));
#502 = SURFACE_STYLE_TRANSPARENT(0.);
#503 = OVER_RIDING_STYLED_ITEM('overriding color',(#504),#146,#447);
#504 = PRESENTATION_STYLE_ASSIGNMENT((#505));
#505 = SURFACE_STYLE_USAGE(.BOTH.,#506);
#506 = SURFACE_SIDE_STYLE('',(#507,#510));
#507 = SURFACE_STYLE_FILL_AREA(#508);
#508 = FILL_AREA_STYLE('',(#509));
#509 = FILL_AREA_STYLE_COLOUR('',#454);
#510 = SURFACE_STYLE_RENDERING_WITH_PROPERTIES(.NORMAL_SHADING.,#454,(
    #511));
#511 = SURFACE_STYLE_TRANSPARENT(0.);
#512 = OVER_RIDING_STYLED_ITEM('overriding color',(#513),#224,#447);
#513 = PRESENTATION_STYLE_ASSIGNMENT((#514));
#514 = SURFACE_STYLE_USAGE(.BOTH.,#515);
#515 = SURFACE_SIDE_STYLE('',(#516,#520));
#516 = SURFACE_STYLE_FILL_AREA(#517);
#517 = FILL_AREA_STYLE('',(#518));
#518 = FILL_AREA_STYLE_COLOUR('',#519);
#519 = COLOUR_RGB('',0.823999987314,0.819999987296,0.781000009244);
#520 = SURFACE_STYLE_RENDERING_WITH_PROPERTIES(.NORMAL_SHADING.,#519,(
    #521));
#521 = SURFACE_STYLE_TRANSPARENT(0.);
#522 = OVER_RIDING_STYLED_ITEM('overriding color',(#523),#255,#447);
#523 = PRESENTATION_STYLE_ASSIGNMENT((#524));
#524 = SURFACE_STYLE_USAGE(.BOTH.,#525);
#525 = SURFACE_SIDE_STYLE('',(#526,#529));
#526 = SURFACE_STYLE_FILL_AREA(#527);
#527 = FILL_AREA_STYLE('',(#528));
#528 = FILL_AREA_STYLE_COLOUR('',#519);
#529 = SURFACE_STYLE_RENDERING_WITH_PROPERTIES(.NORMAL_SHADING.,#519,(
    #530));
#530 = SURFACE_STYLE_TRANSPARENT(0.);
#531 = OVER_RIDING_STYLED_ITEM('overriding color',(#532),#279,#447);
#532 = PRESENTATION_STYLE_ASSIGNMENT((#533));
#533 = SURFACE_STYLE_USAGE(.BOTH.,#534);
#534 = SURFACE_SIDE_STYLE('',(#535,#538));
#535 = SURFACE_STYLE_FILL_AREA(#536);
#536 = FILL_AREA_STYLE('',(#537));
#537 = FILL_AREA_STYLE_COLOUR('',#519);
#538 = SURFACE_STYLE_RENDERING_WITH_PROPERTIES(.NORMAL_SHADING.,#519,(
    #539));
#539 = SURFACE_STYLE_TRANSPARENT(0.);
#540 = OVER_RIDING_STYLED_ITEM('overriding color',(#541),#303,#447);
#541 = PRESENTATION_STYLE_ASSIGNMENT((#542));
#542 = SURFACE_STYLE_USAGE(.BOTH.,#543);
#543 = SURFACE_SIDE_STYLE('',(#544,#547));
#544 = SURFACE_STYLE_FILL_AREA(#545);
#545 = FILL_AREA_STYLE('',(#546));
#546 = FILL_AREA_STYLE_COLOUR('',#519);
#547 = SURFACE_STYLE_RENDERING_WITH_PROPERTIES(.NORMAL_SHADING.,#519,(
    #548));
#548 = SURFACE_STYLE_TRANSPARENT(0.);
#549 = OVER_RIDING_STYLED_ITEM('overriding color',(#550),#320,#447);
#550 = PRESENTATION_STYLE_ASSIGNMENT((#551));
#551 = SURFACE_STYLE_USAGE(.BOTH.,#552);
#552 = SURFACE_SIDE_STYLE('',(#553,#556));
#553 = SURFACE_STYLE_FILL_AREA(#554);
#554 = FILL_AREA_STYLE('',(#555));
#555 = FILL_AREA_STYLE_COLOUR('',#519);
#556 = SURFACE_STYLE_RENDERING_WITH_PROPERTIES(.NORMAL_SHADING.,#519,(
    #557));
#557 = SURFACE_STYLE_TRANSPARENT(0.);
#558 = OVER_RIDING_STYLED_ITEM('overriding color',(#559),#351,#447);
#559 = PRESENTATION_STYLE_ASSIGNMENT((#560));
#560 = SURFACE_STYLE_USAGE(.BOTH.,#561);
#561 = SURFACE_SIDE_STYLE('',(#562,#565));
#562 = SURFACE_STYLE_FILL_AREA(#563);
#563 = FILL_AREA_STYLE('',(#564));
#564 = FILL_AREA_STYLE_COLOUR('',#519);
#565 = SURFACE_STYLE_RENDERING_WITH_PROPERTIES(.NORMAL_SHADING.,#519,(
    #566));
#566 = SURFACE_STYLE_TRANSPARENT(0.);
#567 = OVER_RIDING_STYLED_ITEM('overriding color',(#568),#375,#447);
#568 = PRESENTATION_STYLE_ASSIGNMENT((#569));
#569 = SURFACE_STYLE_USAGE(.BOTH.,#570);
#570 = SURFACE_SIDE_STYLE('',(#571,#574));
#571 = SURFACE_STYLE_FILL_AREA(#572);
#572 = FILL_AREA_STYLE('',(#573));
#573 = FILL_AREA_STYLE_COLOUR('',#519);
#574 = SURFACE_STYLE_RENDERING_WITH_PROPERTIES(.NORMAL_SHADING.,#519,(
    #575));
#575 = SURFACE_STYLE_TRANSPARENT(0.);
#576 = OVER_RIDING_STYLED_ITEM('overriding color',(#577),#399,#447);
#577 = PRESENTATION_STYLE_ASSIGNMENT((#578));
#578 = SURFACE_STYLE_USAGE(.BOTH.,#579);
#579 = SURFACE_SIDE_STYLE('',(#580,#583));
#580 = SURFACE_STYLE_FILL_AREA(#581);
#581 = FILL_AREA_STYLE('',(#582));
#582 = FILL_AREA_STYLE_COLOUR('',#519);
#583 = SURFACE_STYLE_RENDERING_WITH_PROPERTIES(.NORMAL_SHADING.,#519,(
    #584));
#584 = SURFACE_STYLE_TRANSPARENT(0.);
#585 = OVER_RIDING_STYLED_ITEM('overriding color',(#586),#416,#447);
#586 = PRESENTATION_STYLE_ASSIGNMENT((#587));
#587 = SURFACE_STYLE_USAGE(.BOTH.,#588);
#588 = SURFACE_SIDE_STYLE('',(#589,#592));
#589 = SURFACE_STYLE_FILL_AREA(#590);
#590 = FILL_AREA_STYLE('',(#591));
#591 = FILL_AREA_STYLE_COLOUR('',#519);
#592 = SURFACE_STYLE_RENDERING_WITH_PROPERTIES(.NORMAL_SHADING.,#519,(
    #593));
#593 = SURFACE_STYLE_TRANSPARENT(0.);
#594 = OVER_RIDING_STYLED_ITEM('overriding color',(#595),#428,#447);
#595 = PRESENTATION_STYLE_ASSIGNMENT((#596));
#596 = SURFACE_STYLE_USAGE(.BOTH.,#597);
#597 = SURFACE_SIDE_STYLE('',(#598,#601));
#598 = SURFACE_STYLE_FILL_AREA(#599);
#599 = FILL_AREA_STYLE('',(#600));
#600 = FILL_AREA_STYLE_COLOUR('',#519);
#601 = SURFACE_STYLE_RENDERING_WITH_PROPERTIES(.NORMAL_SHADING.,#519,(
    #602));
#602 = SURFACE_STYLE_TRANSPARENT(0.);
ENDSEC;
END-ISO-10303-21;
