  0
SECTION
  2
HEADER
  9
$ANGBASE
  50
0.0
  9
$ANGDIR
  70
  1
  9
$MEASUREMENT
  70
0
  0
ENDSEC
  0
SECTION
  2
TABLES
  0
TABLE
  2
LTYPE
  70
1
  0
LTYPE
  2
CONTINUOUS
  70
0
  3
Solid line
  72
65
  73
0
  40
0.0
  0
ENDTAB
  0
TABLE
  2
STYLE
  70
4
  0
STYLE
  2
KICAD
  70
0
  40
0
  41
1
  42
1
  50
0
  71
0
  3
isocp.shx
  0
STYLE
  2
KICADB
  70
0
  40
0
  41
1
  42
1
  50
0
  71
0
  3
isocp.shx
  0
STYLE
  2
KICADI
  70
0
  40
0
  41
1
  42
1
  50
15
  71
0
  3
isocp.shx
  0
STYLE
  2
KICADBI
  70
0
  40
0
  41
1
  42
1
  50
15
  71
0
  3
isocp.shx
  0
ENDTAB
  0
TABLE
  2
LAYER
  70
30
  0
LAYER
  2
BLACK
  70
0
  62
7
  6
CONTINUOUS
  0
LAYER
  2
GRAY1
  70
0
  62
251
  6
CONTINUOUS
  0
LAYER
  2
GRAY2
  70
0
  62
8
  6
CONTINUOUS
  0
LAYER
  2
GRAY3
  70
0
  62
9
  6
CONTINUOUS
  0
LAYER
  2
WHITE
  70
0
  62
7
  6
CONTINUOUS
  0
LAYER
  2
LYELLOW
  70
0
  62
51
  6
CONTINUOUS
  0
LAYER
  2
BLUE1
  70
0
  62
178
  6
CONTINUOUS
  0
LAYER
  2
GREEN1
  70
0
  62
98
  6
CONTINUOUS
  0
LAYER
  2
CYAN1
  70
0
  62
138
  6
CONTINUOUS
  0
LAYER
  2
RED1
  70
0
  62
18
  6
CONTINUOUS
  0
LAYER
  2
MAGENTA1
  70
0
  62
228
  6
CONTINUOUS
  0
LAYER
  2
BROWN1
  70
0
  62
58
  6
CONTINUOUS
  0
LAYER
  2
BLUE2
  70
0
  62
5
  6
CONTINUOUS
  0
LAYER
  2
GREEN2
  70
0
  62
3
  6
CONTINUOUS
  0
LAYER
  2
CYAN2
  70
0
  62
4
  6
CONTINUOUS
  0
LAYER
  2
RED2
  70
0
  62
1
  6
CONTINUOUS
  0
LAYER
  2
MAGENTA2
  70
0
  62
6
  6
CONTINUOUS
  0
LAYER
  2
BROWN2
  70
0
  62
54
  6
CONTINUOUS
  0
LAYER
  2
BLUE3
  70
0
  62
171
  6
CONTINUOUS
  0
LAYER
  2
GREEN3
  70
0
  62
91
  6
CONTINUOUS
  0
LAYER
  2
CYAN3
  70
0
  62
131
  6
CONTINUOUS
  0
LAYER
  2
RED3
  70
0
  62
11
  6
CONTINUOUS
  0
LAYER
  2
MAGENTA3
  70
0
  62
221
  6
CONTINUOUS
  0
LAYER
  2
YELLOW3
  70
0
  62
2
  6
CONTINUOUS
  0
LAYER
  2
BLUE4
  70
0
  62
5
  6
CONTINUOUS
  0
LAYER
  2
GREEN4
  70
0
  62
3
  6
CONTINUOUS
  0
LAYER
  2
CYAN4
  70
0
  62
4
  6
CONTINUOUS
  0
LAYER
  2
RED4
  70
0
  62
1
  6
CONTINUOUS
  0
LAYER
  2
MAGENTA4
  70
0
  62
6
  6
CONTINUOUS
  0
LAYER
  2
YELLOW4
  70
0
  62
2
  6
CONTINUOUS
  0
ENDTAB
  0
ENDSEC
  0
SECTION
  2
ENTITIES
0
LINE
8
Black
10
24.0065
20
17.0739
11
24.013
21
17.0739
0
LINE
8
Black
10
24.013
20
17.0739
11
24.6971
21
16.9532
0
LINE
8
Black
10
24.6971
20
16.9532
11
24.7215
21
16.9443
0
LINE
8
Black
10
24.7215
20
16.9443
11
25.3231
21
16.597
0
LINE
8
Black
10
25.3231
20
16.597
11
25.343
21
16.5803
0
LINE
8
Black
10
25.343
20
16.5803
11
25.343
21
16.5803
0
LINE
8
Black
10
25.343
20
16.5803
11
25.7895
21
16.0482
0
LINE
8
Black
10
25.7895
20
16.0482
11
25.7895
21
16.0482
0
LINE
8
Black
10
25.7895
20
16.0482
11
25.8025
21
16.0257
0
LINE
8
Black
10
25.8025
20
16.0257
11
26.0401
21
15.3729
0
LINE
8
Black
10
26.0401
20
15.3729
11
26.0418
21
15.3633
0
LINE
8
Black
10
26.0418
20
15.3633
11
26.0443
21
15.3538
0
LINE
8
Black
10
26.0443
20
15.3538
11
26.0747
21
15.0065
0
LINE
8
Black
10
26.0747
20
15.0065
11
26.0744
21
15.0032
0
LINE
8
Black
10
26.0744
20
15.0032
11
26.075
21
15
0
LINE
8
Black
10
26.075
20
15
11
26.075
21
2
0
LINE
8
Black
10
26.075
20
2
11
26.0739
21
1.99354
0
LINE
8
Black
10
26.0739
20
1.99354
11
26.0739
21
1.98698
0
LINE
8
Black
10
26.0739
20
1.98698
11
25.9532
21
1.30294
0
LINE
8
Black
10
25.9532
20
1.30294
11
25.9443
21
1.27846
0
LINE
8
Black
10
25.9443
20
1.27846
11
25.9443
21
1.27846
0
LINE
8
Black
10
25.9443
20
1.27846
11
25.597
21
0.676925
0
LINE
8
Black
10
25.597
20
0.676925
11
25.5803
21
0.656971
0
LINE
8
Black
10
25.5803
20
0.656971
11
25.5803
21
0.656969
0
LINE
8
Black
10
25.5803
20
0.656969
11
25.0482
21
0.210496
0
LINE
8
Black
10
25.0482
20
0.210496
11
25.0257
21
0.197472
0
LINE
8
Black
10
25.0257
20
0.197472
11
24.3729
21
-0.040093
0
LINE
8
Black
10
24.3729
20
-0.040093
11
24.3633
21
-0.041794
0
LINE
8
Black
10
24.3633
20
-0.041794
11
24.3538
21
-0.044331
0
LINE
8
Black
10
24.3538
20
-0.044331
11
24.0065
21
-0.074715
0
LINE
8
Black
10
24.0065
20
-0.074715
11
24.0032
21
-0.074427
0
LINE
8
Black
10
24.0032
20
-0.074427
11
24
21
-0.075
0
LINE
8
Black
10
24
20
-0.075
11
2
21
-0.075
0
LINE
8
Black
10
2
20
-0.075
11
1.99354
21
-0.07386
0
LINE
8
Black
10
1.99354
20
-0.07386
11
1.98698
21
-0.07386
0
LINE
8
Black
10
1.98698
20
-0.07386
11
1.30294
21
0.046754
0
LINE
8
Black
10
1.30294
20
0.046754
11
1.27846
21
0.055663
0
LINE
8
Black
10
1.27846
20
0.055663
11
1.27846
21
0.055665
0
LINE
8
Black
10
1.27846
20
0.055665
11
0.676925
21
0.402959
0
LINE
8
Black
10
0.676925
20
0.402959
11
0.656971
21
0.419702
0
LINE
8
Black
10
0.656971
20
0.419702
11
0.656969
21
0.419706
0
LINE
8
Black
10
0.656969
20
0.419706
11
0.210496
21
0.951791
0
LINE
8
Black
10
0.210496
20
0.951791
11
0.197472
21
0.974349
0
LINE
8
Black
10
0.197472
20
0.974349
11
-0.040093
21
1.62705
0
LINE
8
Black
10
-0.040093
20
1.62705
11
-0.041794
21
1.6367
0
LINE
8
Black
10
-0.041794
20
1.6367
11
-0.044331
21
1.64617
0
LINE
8
Black
10
-0.044331
20
1.64617
11
-0.074715
21
1.99346
0
LINE
8
Black
10
-0.074715
20
1.99346
11
-0.074427
21
1.99675
0
LINE
8
Black
10
-0.074427
20
1.99675
11
-0.075
21
2
0
LINE
8
Black
10
-0.075
20
2
11
-0.075
21
15
0
LINE
8
Black
10
-0.075
20
15
11
-0.073861
21
15.0065
0
LINE
8
Black
10
-0.073861
20
15.0065
11
-0.073861
21
15.013
0
LINE
8
Black
10
-0.073861
20
15.013
11
0.046754
21
15.6971
0
LINE
8
Black
10
0.046754
20
15.6971
11
0.055663
21
15.7215
0
LINE
8
Black
10
0.055663
20
15.7215
11
0.402959
21
16.3231
0
LINE
8
Black
10
0.402959
20
16.3231
11
0.419702
21
16.343
0
LINE
8
Black
10
0.419702
20
16.343
11
0.419706
21
16.343
0
LINE
8
Black
10
0.419706
20
16.343
11
0.951788
21
16.7895
0
LINE
8
Black
10
0.951788
20
16.7895
11
0.95179
21
16.7895
0
LINE
8
Black
10
0.95179
20
16.7895
11
0.974348
21
16.8025
0
LINE
8
Black
10
0.974348
20
16.8025
11
1.62705
21
17.0401
0
LINE
8
Black
10
1.62705
20
17.0401
11
1.6367
21
17.0418
0
LINE
8
Black
10
1.6367
20
17.0418
11
1.64617
21
17.0443
0
LINE
8
Black
10
1.64617
20
17.0443
11
1.99346
21
17.0747
0
LINE
8
Black
10
1.99346
20
17.0747
11
1.99675
21
17.0744
0
LINE
8
Black
10
1.99675
20
17.0744
11
2
21
17.075
0
LINE
8
Black
10
2
20
17.075
11
24
21
17.075
0
LINE
8
Black
10
24
20
17.075
11
24.0065
21
17.0739
0
LINE
8
Black
10
2.00328
20
16.925
11
1.66907
21
16.8958
0
LINE
8
Black
10
1.66907
20
16.8958
11
1.03808
21
16.6661
0
LINE
8
Black
10
1.03808
20
16.6661
11
0.526251
21
16.2366
0
LINE
8
Black
10
0.526251
20
16.2366
11
0.192178
21
15.658
0
LINE
8
Black
10
0.192178
20
15.658
11
0.075
21
14.9934
0
LINE
8
Black
10
0.075
20
14.9934
11
0.075
21
2.00328
0
LINE
8
Black
10
0.075
20
2.00328
11
0.104238
21
1.66908
0
LINE
8
Black
10
0.104238
20
1.66908
11
0.333904
21
1.03808
0
LINE
8
Black
10
0.333904
20
1.03808
11
0.763377
21
0.526251
0
LINE
8
Black
10
0.763377
20
0.526251
11
1.34201
21
0.19218
0
LINE
8
Black
10
1.34201
20
0.19218
11
2.00656
21
0.075
0
LINE
8
Black
10
2.00656
20
0.075
11
23.9967
21
0.075
0
LINE
8
Black
10
23.9967
20
0.075
11
24.3309
21
0.104238
0
LINE
8
Black
10
24.3309
20
0.104238
11
24.9619
21
0.333904
0
LINE
8
Black
10
24.9619
20
0.333904
11
25.4737
21
0.763377
0
LINE
8
Black
10
25.4737
20
0.763377
11
25.8078
21
1.34201
0
LINE
8
Black
10
25.8078
20
1.34201
11
25.925
21
2.00656
0
LINE
8
Black
10
25.925
20
2.00656
11
25.925
21
14.9967
0
LINE
8
Black
10
25.925
20
14.9967
11
25.8958
21
15.3309
0
LINE
8
Black
10
25.8958
20
15.3309
11
25.6661
21
15.9619
0
LINE
8
Black
10
25.6661
20
15.9619
11
25.2366
21
16.4737
0
LINE
8
Black
10
25.2366
20
16.4737
11
24.658
21
16.8078
0
LINE
8
Black
10
24.658
20
16.8078
11
23.9934
21
16.925
0
LINE
8
Black
10
23.9934
20
16.925
11
2.00328
21
16.925
0
CIRCLE
8
Black
10
9.5
20
14.27
40
0.254
0
CIRCLE
8
Black
10
9.5
20
11.73
40
0.254
0
CIRCLE
8
Black
10
1.46
20
8.5
40
0.254
0
CIRCLE
8
Black
10
4
20
5.96
40
0.254
0
CIRCLE
8
Black
10
4
20
11.04
40
0.254
0
CIRCLE
8
Black
10
4
20
8.5
40
0.254
0
CIRCLE
8
Black
10
1.46
20
5.96
40
0.254
0
CIRCLE
8
Black
10
1.46
20
11.04
40
0.254
0
CIRCLE
8
Black
10
23.25
20
13.58
40
0.254
0
CIRCLE
8
Black
10
23.25
20
3.42
40
0.254
0
CIRCLE
8
Black
10
16.5
20
11.73
40
0.254
0
CIRCLE
8
Black
10
16.5
20
14.27
40
0.254
0
CIRCLE
8
Black
10
16.5
20
2.73
40
0.254
0
CIRCLE
8
Black
10
16.5
20
5.27
40
0.254
0
CIRCLE
8
Black
10
9.5
20
5.27
40
0.254
0
CIRCLE
8
Black
10
9.5
20
2.73
40
0.254
0
CIRCLE
8
Black
10
6.65
20
8.5
40
0.254
0
CIRCLE
8
Black
10
19.35
20
8.5
40
0.254
0
CIRCLE
8
Black
10
15.54
20
8.5
40
0.254
0
CIRCLE
8
Black
10
10.46
20
8.5
40
0.254
0
LINE
8
Black
10
23.9718
20
16.4239
11
23.978
21
16.4244
0
LINE
8
Black
10
23.978
20
16.4244
11
24.264
21
16.3964
0
LINE
8
Black
10
24.264
20
16.3964
11
24.2758
21
16.3931
0
LINE
8
Black
10
24.2758
20
16.3931
11
24.288
21
16.3916
0
LINE
8
Black
10
24.288
20
16.3916
11
24.5302
21
16.3185
0
LINE
8
Black
10
24.5302
20
16.3185
11
24.5412
21
16.313
0
LINE
8
Black
10
24.5412
20
16.313
11
24.5528
21
16.3092
0
LINE
8
Black
10
24.5528
20
16.3092
11
24.7762
21
16.1904
0
LINE
8
Black
10
24.7762
20
16.1904
11
24.7859
21
16.1828
0
LINE
8
Black
10
24.7859
20
16.1828
11
24.7966
21
16.1769
0
LINE
8
Black
10
24.7966
20
16.1769
11
24.9927
21
16.0169
0
LINE
8
Black
10
24.9927
20
16.0169
11
25.0007
21
16.0077
0
LINE
8
Black
10
25.0007
20
16.0077
11
25.01
21
15.9997
0
LINE
8
Black
10
25.01
20
15.9997
11
25.1713
21
15.8047
0
LINE
8
Black
10
25.1713
20
15.8047
11
25.1773
21
15.7941
0
LINE
8
Black
10
25.1773
20
15.7941
11
25.1849
21
15.7845
0
LINE
8
Black
10
25.1849
20
15.7845
11
25.3053
21
15.5619
0
LINE
8
Black
10
25.3053
20
15.5619
11
25.3091
21
15.5503
0
LINE
8
Black
10
25.3091
20
15.5503
11
25.3147
21
15.5394
0
LINE
8
Black
10
25.3147
20
15.5394
11
25.3896
21
15.2977
0
LINE
8
Black
10
25.3896
20
15.2977
11
25.3911
21
15.2855
0
LINE
8
Black
10
25.3911
20
15.2855
11
25.3945
21
15.2738
0
LINE
8
Black
10
25.3945
20
15.2738
11
25.4243
21
14.9899
0
LINE
8
Black
10
25.4243
20
14.9899
11
25.4239
21
14.9833
0
LINE
8
Black
10
25.4239
20
14.9833
11
25.425
21
14.9768
0
LINE
8
Black
10
25.425
20
14.9768
11
25.425
21
2.03423
0
LINE
8
Black
10
25.425
20
2.03423
11
25.4239
21
2.02817
0
LINE
8
Black
10
25.4239
20
2.02817
11
25.4244
21
2.02204
0
LINE
8
Black
10
25.4244
20
2.02204
11
25.3964
21
1.73595
0
LINE
8
Black
10
25.3964
20
1.73595
11
25.3931
21
1.72417
0
LINE
8
Black
10
25.3931
20
1.72417
11
25.3916
21
1.71202
0
LINE
8
Black
10
25.3916
20
1.71202
11
25.3185
21
1.46976
0
LINE
8
Black
10
25.3185
20
1.46976
11
25.313
21
1.45883
0
LINE
8
Black
10
25.313
20
1.45883
11
25.3092
21
1.4472
0
LINE
8
Black
10
25.3092
20
1.4472
11
25.1904
21
1.22377
0
LINE
8
Black
10
25.1904
20
1.22377
11
25.1828
21
1.21413
0
LINE
8
Black
10
25.1828
20
1.21413
11
25.1769
21
1.20345
0
LINE
8
Black
10
25.1769
20
1.20345
11
25.0169
21
1.00734
0
LINE
8
Black
10
25.0169
20
1.00734
11
25.0077
21
0.999342
0
LINE
8
Black
10
25.0077
20
0.999342
11
24.9997
21
0.990026
0
LINE
8
Black
10
24.9997
20
0.990026
11
24.8047
21
0.828718
0
LINE
8
Black
10
24.8047
20
0.828718
11
24.7941
21
0.822675
0
LINE
8
Black
10
24.7941
20
0.822675
11
24.7845
21
0.815076
0
LINE
8
Black
10
24.7845
20
0.815076
11
24.5619
21
0.694718
0
LINE
8
Black
10
24.5619
20
0.694718
11
24.5503
21
0.690856
0
LINE
8
Black
10
24.5503
20
0.690856
11
24.5394
21
0.685264
0
LINE
8
Black
10
24.5394
20
0.685264
11
24.2977
21
0.610431
0
LINE
8
Black
10
24.2977
20
0.610431
11
24.2855
21
0.608897
0
LINE
8
Black
10
24.2855
20
0.608897
11
24.2738
21
0.605526
0
LINE
8
Black
10
24.2738
20
0.605526
11
23.9899
21
0.575685
0
LINE
8
Black
10
23.9899
20
0.575685
11
23.9833
21
0.576145
0
LINE
8
Black
10
23.9833
20
0.576145
11
23.9768
21
0.575
0
LINE
8
Black
10
23.9768
20
0.575
11
2.03423
21
0.575
0
LINE
8
Black
10
2.03423
20
0.575
11
2.02817
21
0.576069
0
LINE
8
Black
10
2.02817
20
0.576069
11
2.02204
21
0.575597
0
LINE
8
Black
10
2.02204
20
0.575597
11
1.73595
21
0.603648
0
LINE
8
Black
10
1.73595
20
0.603648
11
1.72417
21
0.606937
0
LINE
8
Black
10
1.72417
20
0.606937
11
1.71202
21
0.608386
0
LINE
8
Black
10
1.71202
20
0.608386
11
1.46976
21
0.68153
0
LINE
8
Black
10
1.46976
20
0.68153
11
1.45883
21
0.687047
0
LINE
8
Black
10
1.45883
20
0.687047
11
1.4472
21
0.690827
0
LINE
8
Black
10
1.4472
20
0.690827
11
1.22377
21
0.80963
0
LINE
8
Black
10
1.22377
20
0.80963
11
1.21413
21
0.81716
0
LINE
8
Black
10
1.21413
20
0.81716
11
1.20345
21
0.82313
0
LINE
8
Black
10
1.20345
20
0.82313
11
1.00734
21
0.983074
0
LINE
8
Black
10
1.00734
20
0.983074
11
0.999342
21
0.992335
0
LINE
8
Black
10
0.999342
20
0.992335
11
0.990026
21
1.00026
0
LINE
8
Black
10
0.990026
20
1.00026
11
0.828718
21
1.19525
0
LINE
8
Black
10
0.828718
20
1.19525
11
0.822675
21
1.20589
0
LINE
8
Black
10
0.822675
20
1.20589
11
0.815076
21
1.21548
0
LINE
8
Black
10
0.815076
20
1.21548
11
0.694718
21
1.43807
0
LINE
8
Black
10
0.694718
20
1.43807
11
0.690856
21
1.44968
0
LINE
8
Black
10
0.690856
20
1.44968
11
0.685264
21
1.46056
0
LINE
8
Black
10
0.685264
20
1.46056
11
0.610431
21
1.70231
0
LINE
8
Black
10
0.610431
20
1.70231
11
0.608897
21
1.71445
0
LINE
8
Black
10
0.608897
20
1.71445
11
0.605526
21
1.72621
0
LINE
8
Black
10
0.605526
20
1.72621
11
0.575685
21
2.01012
0
LINE
8
Black
10
0.575685
20
2.01012
11
0.576145
21
2.01669
0
LINE
8
Black
10
0.576145
20
2.01669
11
0.575
21
2.02319
0
LINE
8
Black
10
0.575
20
2.02319
11
0.575
21
4.56937
0
LINE
8
Black
10
0.575
20
4.56937
11
0.577836
21
4.58546
0
LINE
8
Black
10
0.577836
20
4.58546
11
0.579259
21
4.60173
0
LINE
8
Black
10
0.579259
20
4.60173
11
0.581583
21
4.60671
0
LINE
8
Black
10
0.581583
20
4.60671
11
0.582538
21
4.61213
0
LINE
8
Black
10
0.582538
20
4.61213
11
0.590706
21
4.62627
0
LINE
8
Black
10
0.590706
20
4.62627
11
0.597606
21
4.64107
0
LINE
8
Black
10
0.597606
20
4.64107
11
0.601494
21
4.64496
0
LINE
8
Black
10
0.601494
20
4.64496
11
0.604244
21
4.64972
0
LINE
8
Black
10
0.604244
20
4.64972
11
0.616755
21
4.66022
0
LINE
8
Black
10
0.616755
20
4.66022
11
0.628303
21
4.67177
0
LINE
8
Black
10
0.628303
20
4.67177
11
0.633288
21
4.67409
0
LINE
8
Black
10
0.633288
20
4.67409
11
0.6375
21
4.67763
0
LINE
8
Black
10
0.6375
20
4.67763
11
0.652845
21
4.68321
0
LINE
8
Black
10
0.652845
20
4.68321
11
0.667648
21
4.69012
0
LINE
8
Black
10
0.667648
20
4.69012
11
0.673127
21
4.6906
0
LINE
8
Black
10
0.673127
20
4.6906
11
0.678294
21
4.69248
0
LINE
8
Black
10
0.678294
20
4.69248
11
0.694627
21
4.69248
0
LINE
8
Black
10
0.694627
20
4.69248
11
0.710895
21
4.6939
0
LINE
8
Black
10
0.710895
20
4.6939
11
0.716206
21
4.69248
0
LINE
8
Black
10
0.716206
20
4.69248
11
0.721706
21
4.69248
0
LINE
8
Black
10
0.721706
20
4.69248
11
0.73705
21
4.68689
0
LINE
8
Black
10
0.73705
20
4.68689
11
0.752827
21
4.68266
0
LINE
8
Black
10
0.752827
20
4.68266
11
0.757333
21
4.67951
0
LINE
8
Black
10
0.757333
20
4.67951
11
0.7625
21
4.67763
0
LINE
8
Black
10
0.7625
20
4.67763
11
0.775011
21
4.66713
0
LINE
8
Black
10
0.775011
20
4.66713
11
0.788388
21
4.65776
0
LINE
8
Black
10
0.788388
20
4.65776
11
1.18018
21
4.26597
0
LINE
8
Black
10
1.18018
20
4.26597
11
1.44482
21
4.5306
0
LINE
8
Black
10
1.44482
20
4.5306
11
1.45123
21
4.53509
0
LINE
8
Black
10
1.45123
20
4.53509
11
1.45648
21
4.5409
0
LINE
8
Black
10
1.45648
20
4.5409
11
1.46889
21
4.54746
0
LINE
8
Black
10
1.46889
20
4.54746
11
1.48038
21
4.5555
0
LINE
8
Black
10
1.48038
20
4.5555
11
1.48794
21
4.55753
0
LINE
8
Black
10
1.48794
20
4.55753
11
1.49486
21
4.56119
0
LINE
8
Black
10
1.49486
20
4.56119
11
1.50876
21
4.56311
0
LINE
8
Black
10
1.50876
20
4.56311
11
1.52231
21
4.56674
0
LINE
8
Black
10
1.52231
20
4.56674
11
1.53011
21
4.56606
0
LINE
8
Black
10
1.53011
20
4.56606
11
1.53787
21
4.56713
0
LINE
8
Black
10
1.53787
20
4.56713
11
1.54492
21
4.56686
0
LINE
8
Black
10
1.54492
20
4.56686
11
1.81886
21
4.61081
0
LINE
8
Black
10
1.81886
20
4.61081
11
1.86704
21
4.62542
0
LINE
8
Black
10
1.86704
20
4.62542
11
1.90699
21
4.70761
0
LINE
8
Black
10
1.90699
20
4.70761
11
1.53396
21
5.08064
0
LINE
8
Black
10
1.53396
20
5.08064
11
1.46
21
5.0676
0
LINE
8
Black
10
1.46
20
5.0676
11
1.38604
21
5.08064
0
LINE
8
Black
10
1.38604
20
5.08064
11
1.23408
21
4.92868
0
LINE
8
Black
10
1.23408
20
4.92868
11
1.22512
21
4.92241
0
LINE
8
Black
10
1.22512
20
4.92241
11
1.21739
21
4.91468
0
LINE
8
Black
10
1.21739
20
4.91468
11
1.20748
21
4.91006
0
LINE
8
Black
10
1.20748
20
4.91006
11
1.19852
21
4.90378
0
LINE
8
Black
10
1.19852
20
4.90378
11
1.18795
21
4.90095
0
LINE
8
Black
10
1.18795
20
4.90095
11
1.17804
21
4.89633
0
LINE
8
Black
10
1.17804
20
4.89633
11
1.16715
21
4.89538
0
LINE
8
Black
10
1.16715
20
4.89538
11
1.15659
21
4.89255
0
LINE
8
Black
10
1.15659
20
4.89255
11
1.1457
21
4.8935
0
LINE
8
Black
10
1.1457
20
4.8935
11
1.1348
21
4.89255
0
LINE
8
Black
10
1.1348
20
4.89255
11
1.12423
21
4.89538
0
LINE
8
Black
10
1.12423
20
4.89538
11
1.11334
21
4.89633
0
LINE
8
Black
10
1.11334
20
4.89633
11
1.10343
21
4.90095
0
LINE
8
Black
10
1.10343
20
4.90095
11
1.09286
21
4.90378
0
LINE
8
Black
10
1.09286
20
4.90378
11
1.0839
21
4.91006
0
LINE
8
Black
10
1.0839
20
4.91006
11
1.074
21
4.91468
0
LINE
8
Black
10
1.074
20
4.91468
11
1.06626
21
4.92241
0
LINE
8
Black
10
1.06626
20
4.92241
11
1.0573
21
4.92868
0
LINE
8
Black
10
1.0573
20
4.92868
11
0.611612
21
5.37438
0
LINE
8
Black
10
0.611612
20
5.37438
11
0.608458
21
5.37888
0
LINE
8
Black
10
0.608458
20
5.37888
11
0.604244
21
5.38242
0
LINE
8
Black
10
0.604244
20
5.38242
11
0.596077
21
5.39656
0
LINE
8
Black
10
0.596077
20
5.39656
11
0.586711
21
5.40994
0
LINE
8
Black
10
0.586711
20
5.40994
11
0.585288
21
5.41525
0
LINE
8
Black
10
0.585288
20
5.41525
11
0.582538
21
5.42001
0
LINE
8
Black
10
0.582538
20
5.42001
11
0.579702
21
5.4361
0
LINE
8
Black
10
0.579702
20
5.4361
11
0.575476
21
5.45187
0
LINE
8
Black
10
0.575476
20
5.45187
11
0.575955
21
5.45735
0
LINE
8
Black
10
0.575955
20
5.45735
11
0.575
21
5.46277
0
LINE
8
Black
10
0.575
20
5.46277
11
0.575
21
5.82862
0
LINE
8
Black
10
0.575
20
5.82862
11
0.575955
21
5.83404
0
LINE
8
Black
10
0.575955
20
5.83404
11
0.575476
21
5.83951
0
LINE
8
Black
10
0.575476
20
5.83951
11
0.579702
21
5.85528
0
LINE
8
Black
10
0.579702
20
5.85528
11
0.581162
21
5.86357
0
LINE
8
Black
10
0.581162
20
5.86357
11
0.581162
21
6.05643
0
LINE
8
Black
10
0.581162
20
6.05643
11
0.579702
21
6.06472
0
LINE
8
Black
10
0.579702
20
6.06472
11
0.575476
21
6.08049
0
LINE
8
Black
10
0.575476
20
6.08049
11
0.575955
21
6.08596
0
LINE
8
Black
10
0.575955
20
6.08596
11
0.575
21
6.09138
0
LINE
8
Black
10
0.575
20
6.09138
11
0.575
21
6.45723
0
LINE
8
Black
10
0.575
20
6.45723
11
0.575955
21
6.46265
0
LINE
8
Black
10
0.575955
20
6.46265
11
0.575476
21
6.46813
0
LINE
8
Black
10
0.575476
20
6.46813
11
0.579702
21
6.4839
0
LINE
8
Black
10
0.579702
20
6.4839
11
0.582538
21
6.49999
0
LINE
8
Black
10
0.582538
20
6.49999
11
0.585288
21
6.50475
0
LINE
8
Black
10
0.585288
20
6.50475
11
0.586711
21
6.51006
0
LINE
8
Black
10
0.586711
20
6.51006
11
0.596077
21
6.52344
0
LINE
8
Black
10
0.596077
20
6.52344
11
0.604244
21
6.53758
0
LINE
8
Black
10
0.604244
20
6.53758
11
0.608458
21
6.54112
0
LINE
8
Black
10
0.608458
20
6.54112
11
0.611612
21
6.54562
0
LINE
8
Black
10
0.611612
20
6.54562
11
0.937682
21
6.87169
0
LINE
8
Black
10
0.937682
20
6.87169
11
0.946641
21
6.87797
0
LINE
8
Black
10
0.946641
20
6.87797
11
0.954373
21
6.8857
0
LINE
8
Black
10
0.954373
20
6.8857
11
0.964283
21
6.89032
0
LINE
8
Black
10
0.964283
20
6.89032
11
0.973243
21
6.89659
0
LINE
8
Black
10
0.973243
20
6.89659
11
0.983809
21
6.89942
0
LINE
8
Black
10
0.983809
20
6.89942
11
0.993718
21
6.90405
0
LINE
8
Black
10
0.993718
20
6.90405
11
1.00461
21
6.905
0
LINE
8
Black
10
1.00461
20
6.905
11
1.01517
21
6.90783
0
LINE
8
Black
10
1.01517
20
6.90783
11
1.02607
21
6.90688
0
LINE
8
Black
10
1.02607
20
6.90688
11
1.03696
21
6.90783
0
LINE
8
Black
10
1.03696
20
6.90783
11
1.04753
21
6.905
0
LINE
8
Black
10
1.04753
20
6.905
11
1.05842
21
6.90405
0
LINE
8
Black
10
1.05842
20
6.90405
11
1.06833
21
6.89942
0
LINE
8
Black
10
1.06833
20
6.89942
11
1.0789
21
6.89659
0
LINE
8
Black
10
1.0789
20
6.89659
11
1.08786
21
6.89032
0
LINE
8
Black
10
1.08786
20
6.89032
11
1.09777
21
6.8857
0
LINE
8
Black
10
1.09777
20
6.8857
11
1.1055
21
6.87796
0
LINE
8
Black
10
1.1055
20
6.87796
11
1.11446
21
6.87169
0
LINE
8
Black
10
1.11446
20
6.87169
11
1.18018
21
6.80597
0
LINE
8
Black
10
1.18018
20
6.80597
11
1.21142
21
6.8372
0
LINE
8
Black
10
1.21142
20
6.8372
11
1.22037
21
6.84347
0
LINE
8
Black
10
1.22037
20
6.84347
11
1.22811
21
6.85121
0
LINE
8
Black
10
1.22811
20
6.85121
11
1.23802
21
6.85583
0
LINE
8
Black
10
1.23802
20
6.85583
11
1.24698
21
6.8621
0
LINE
8
Black
10
1.24698
20
6.8621
11
1.25754
21
6.86493
0
LINE
8
Black
10
1.25754
20
6.86493
11
1.26745
21
6.86955
0
LINE
8
Black
10
1.26745
20
6.86955
11
1.27835
21
6.87051
0
LINE
8
Black
10
1.27835
20
6.87051
11
1.28891
21
6.87334
0
LINE
8
Black
10
1.28891
20
6.87334
11
1.2998
21
6.87238
0
LINE
8
Black
10
1.2998
20
6.87238
11
1.3107
21
6.87334
0
LINE
8
Black
10
1.3107
20
6.87334
11
1.32127
21
6.8705
0
LINE
8
Black
10
1.32127
20
6.8705
11
1.33216
21
6.86955
0
LINE
8
Black
10
1.33216
20
6.86955
11
1.34206
21
6.86493
0
LINE
8
Black
10
1.34206
20
6.86493
11
1.35263
21
6.8621
0
LINE
8
Black
10
1.35263
20
6.8621
11
1.3616
21
6.85582
0
LINE
8
Black
10
1.3616
20
6.85582
11
1.3715
21
6.8512
0
LINE
8
Black
10
1.3715
20
6.8512
11
1.37923
21
6.84347
0
LINE
8
Black
10
1.37923
20
6.84347
11
1.3853
21
6.83922
0
LINE
8
Black
10
1.3853
20
6.83922
11
1.46
21
6.8524
0
LINE
8
Black
10
1.46
20
6.8524
11
1.53396
21
6.83935
0
LINE
8
Black
10
1.53396
20
6.83935
11
1.83483
21
7.14023
0
LINE
8
Black
10
1.83483
20
7.14023
11
1.84213
21
7.14533
0
LINE
8
Black
10
1.84213
20
7.14533
11
1.84821
21
7.15183
0
LINE
8
Black
10
1.84821
20
7.15183
11
1.85978
21
7.15769
0
LINE
8
Black
10
1.85978
20
7.15769
11
1.86569
21
7.16183
0
LINE
8
Black
10
1.86569
20
7.16183
11
1.87666
21
7.17697
0
LINE
8
Black
10
1.87666
20
7.17697
11
1.88852
21
7.19392
0
LINE
8
Black
10
1.88852
20
7.19392
11
1.91319
21
7.21858
0
LINE
8
Black
10
1.91319
20
7.21858
11
1.914
21
7.23
0
LINE
8
Black
10
1.914
20
7.23
11
1.91319
21
7.24142
0
LINE
8
Black
10
1.91319
20
7.24142
11
1.88852
21
7.26608
0
LINE
8
Black
10
1.88852
20
7.26608
11
1.87666
21
7.28302
0
LINE
8
Black
10
1.87666
20
7.28302
11
1.86691
21
7.29648
0
LINE
8
Black
10
1.86691
20
7.29648
11
1.86565
21
7.29736
0
LINE
8
Black
10
1.86565
20
7.29736
11
1.85721
21
7.30101
0
LINE
8
Black
10
1.85721
20
7.30101
11
1.84799
21
7.30972
0
LINE
8
Black
10
1.84799
20
7.30972
11
1.83761
21
7.31699
0
LINE
8
Black
10
1.83761
20
7.31699
11
1.53396
21
7.62064
0
LINE
8
Black
10
1.53396
20
7.62064
11
1.46
21
7.6076
0
LINE
8
Black
10
1.46
20
7.6076
11
1.3853
21
7.62078
0
LINE
8
Black
10
1.3853
20
7.62078
11
1.37923
21
7.61652
0
LINE
8
Black
10
1.37923
20
7.61652
11
1.3715
21
7.60879
0
LINE
8
Black
10
1.3715
20
7.60879
11
1.36159
21
7.60417
0
LINE
8
Black
10
1.36159
20
7.60417
11
1.35263
21
7.5979
0
LINE
8
Black
10
1.35263
20
7.5979
11
1.34207
21
7.59507
0
LINE
8
Black
10
1.34207
20
7.59507
11
1.33216
21
7.59045
0
LINE
8
Black
10
1.33216
20
7.59045
11
1.32126
21
7.58949
0
LINE
8
Black
10
1.32126
20
7.58949
11
1.3107
21
7.58666
0
LINE
8
Black
10
1.3107
20
7.58666
11
1.29981
21
7.58762
0
LINE
8
Black
10
1.29981
20
7.58762
11
1.28891
21
7.58666
0
LINE
8
Black
10
1.28891
20
7.58666
11
1.27835
21
7.58949
0
LINE
8
Black
10
1.27835
20
7.58949
11
1.26745
21
7.59045
0
LINE
8
Black
10
1.26745
20
7.59045
11
1.25754
21
7.59507
0
LINE
8
Black
10
1.25754
20
7.59507
11
1.24698
21
7.5979
0
LINE
8
Black
10
1.24698
20
7.5979
11
1.23802
21
7.60417
0
LINE
8
Black
10
1.23802
20
7.60417
11
1.22811
21
7.60879
0
LINE
8
Black
10
1.22811
20
7.60879
11
1.22037
21
7.61653
0
LINE
8
Black
10
1.22037
20
7.61653
11
1.21142
21
7.6228
0
LINE
8
Black
10
1.21142
20
7.6228
11
1.18018
21
7.65403
0
LINE
8
Black
10
1.18018
20
7.65403
11
1.11446
21
7.58831
0
LINE
8
Black
10
1.11446
20
7.58831
11
1.1055
21
7.58203
0
LINE
8
Black
10
1.1055
20
7.58203
11
1.09777
21
7.5743
0
LINE
8
Black
10
1.09777
20
7.5743
11
1.08786
21
7.56968
0
LINE
8
Black
10
1.08786
20
7.56968
11
1.0789
21
7.56341
0
LINE
8
Black
10
1.0789
20
7.56341
11
1.06833
21
7.56058
0
LINE
8
Black
10
1.06833
20
7.56058
11
1.05842
21
7.55595
0
LINE
8
Black
10
1.05842
20
7.55595
11
1.04753
21
7.555
0
LINE
8
Black
10
1.04753
20
7.555
11
1.03696
21
7.55217
0
LINE
8
Black
10
1.03696
20
7.55217
11
1.02607
21
7.55312
0
LINE
8
Black
10
1.02607
20
7.55312
11
1.01517
21
7.55217
0
LINE
8
Black
10
1.01517
20
7.55217
11
1.00461
21
7.555
0
LINE
8
Black
10
1.00461
20
7.555
11
0.993718
21
7.55595
0
LINE
8
Black
10
0.993718
20
7.55595
11
0.983809
21
7.56058
0
LINE
8
Black
10
0.983809
20
7.56058
11
0.973243
21
7.56341
0
LINE
8
Black
10
0.973243
20
7.56341
11
0.964283
21
7.56968
0
LINE
8
Black
10
0.964283
20
7.56968
11
0.954373
21
7.5743
0
LINE
8
Black
10
0.954373
20
7.5743
11
0.946641
21
7.58203
0
LINE
8
Black
10
0.946641
20
7.58203
11
0.937682
21
7.58831
0
LINE
8
Black
10
0.937682
20
7.58831
11
0.611612
21
7.91438
0
LINE
8
Black
10
0.611612
20
7.91438
11
0.608458
21
7.91888
0
LINE
8
Black
10
0.608458
20
7.91888
11
0.604244
21
7.92242
0
LINE
8
Black
10
0.604244
20
7.92242
11
0.596077
21
7.93656
0
LINE
8
Black
10
0.596077
20
7.93656
11
0.586711
21
7.94994
0
LINE
8
Black
10
0.586711
20
7.94994
11
0.585288
21
7.95525
0
LINE
8
Black
10
0.585288
20
7.95525
11
0.582538
21
7.96001
0
LINE
8
Black
10
0.582538
20
7.96001
11
0.579702
21
7.9761
0
LINE
8
Black
10
0.579702
20
7.9761
11
0.575476
21
7.99187
0
LINE
8
Black
10
0.575476
20
7.99187
11
0.575955
21
7.99735
0
LINE
8
Black
10
0.575955
20
7.99735
11
0.575
21
8.00277
0
LINE
8
Black
10
0.575
20
8.00277
11
0.575
21
8.36862
0
LINE
8
Black
10
0.575
20
8.36862
11
0.575955
21
8.37403
0
LINE
8
Black
10
0.575955
20
8.37403
11
0.575476
21
8.37951
0
LINE
8
Black
10
0.575476
20
8.37951
11
0.579702
21
8.39528
0
LINE
8
Black
10
0.579702
20
8.39528
11
0.581162
21
8.40357
0
LINE
8
Black
10
0.581162
20
8.40357
11
0.581162
21
8.59643
0
LINE
8
Black
10
0.581162
20
8.59643
11
0.579702
21
8.60472
0
LINE
8
Black
10
0.579702
20
8.60472
11
0.575476
21
8.62049
0
LINE
8
Black
10
0.575476
20
8.62049
11
0.575955
21
8.62596
0
LINE
8
Black
10
0.575955
20
8.62596
11
0.575
21
8.63138
0
LINE
8
Black
10
0.575
20
8.63138
11
0.575
21
8.99723
0
LINE
8
Black
10
0.575
20
8.99723
11
0.575955
21
9.00265
0
LINE
8
Black
10
0.575955
20
9.00265
11
0.575476
21
9.00813
0
LINE
8
Black
10
0.575476
20
9.00813
11
0.579702
21
9.0239
0
LINE
8
Black
10
0.579702
20
9.0239
11
0.582538
21
9.03999
0
LINE
8
Black
10
0.582538
20
9.03999
11
0.585288
21
9.04475
0
LINE
8
Black
10
0.585288
20
9.04475
11
0.586711
21
9.05006
0
LINE
8
Black
10
0.586711
20
9.05006
11
0.596077
21
9.06344
0
LINE
8
Black
10
0.596077
20
9.06344
11
0.604244
21
9.07758
0
LINE
8
Black
10
0.604244
20
9.07758
11
0.608458
21
9.08112
0
LINE
8
Black
10
0.608458
20
9.08112
11
0.611612
21
9.08562
0
LINE
8
Black
10
0.611612
20
9.08562
11
1.0573
21
9.53131
0
LINE
8
Black
10
1.0573
20
9.53131
11
1.06626
21
9.53759
0
LINE
8
Black
10
1.06626
20
9.53759
11
1.074
21
9.54532
0
LINE
8
Black
10
1.074
20
9.54532
11
1.08391
21
9.54994
0
LINE
8
Black
10
1.08391
20
9.54994
11
1.09286
21
9.55621
0
LINE
8
Black
10
1.09286
20
9.55621
11
1.10343
21
9.55905
0
LINE
8
Black
10
1.10343
20
9.55905
11
1.11334
21
9.56367
0
LINE
8
Black
10
1.11334
20
9.56367
11
1.12423
21
9.56462
0
LINE
8
Black
10
1.12423
20
9.56462
11
1.1348
21
9.56745
0
LINE
8
Black
10
1.1348
20
9.56745
11
1.14569
21
9.5665
0
LINE
8
Black
10
1.14569
20
9.5665
11
1.15659
21
9.56745
0
LINE
8
Black
10
1.15659
20
9.56745
11
1.16715
21
9.56462
0
LINE
8
Black
10
1.16715
20
9.56462
11
1.17804
21
9.56367
0
LINE
8
Black
10
1.17804
20
9.56367
11
1.18795
21
9.55905
0
LINE
8
Black
10
1.18795
20
9.55905
11
1.19852
21
9.55621
0
LINE
8
Black
10
1.19852
20
9.55621
11
1.20748
21
9.54994
0
LINE
8
Black
10
1.20748
20
9.54994
11
1.21739
21
9.54532
0
LINE
8
Black
10
1.21739
20
9.54532
11
1.22512
21
9.53759
0
LINE
8
Black
10
1.22512
20
9.53759
11
1.23408
21
9.53131
0
LINE
8
Black
10
1.23408
20
9.53131
11
1.38604
21
9.37936
0
LINE
8
Black
10
1.38604
20
9.37936
11
1.46
21
9.3924
0
LINE
8
Black
10
1.46
20
9.3924
11
1.53396
21
9.37936
0
LINE
8
Black
10
1.53396
20
9.37936
11
1.84114
21
9.68654
0
LINE
8
Black
10
1.84114
20
9.68654
11
1.84457
21
9.68894
0
LINE
8
Black
10
1.84457
20
9.68894
11
1.84719
21
9.6922
0
LINE
8
Black
10
1.84719
20
9.6922
11
1.86227
21
9.70133
0
LINE
8
Black
10
1.86227
20
9.70133
11
1.8767
21
9.71144
0
LINE
8
Black
10
1.8767
20
9.71144
11
1.88075
21
9.71252
0
LINE
8
Black
10
1.88075
20
9.71252
11
1.88433
21
9.71469
0
LINE
8
Black
10
1.88433
20
9.71469
11
2.0893
21
9.79419
0
LINE
8
Black
10
2.0893
20
9.79419
11
2.31929
21
9.94015
0
LINE
8
Black
10
2.31929
20
9.94015
11
2.38794
21
10.0055
0
LINE
8
Black
10
2.38794
20
10.0055
11
2.39124
21
10.0077
0
LINE
8
Black
10
2.39124
20
10.0077
11
2.39379
21
10.0108
0
LINE
8
Black
10
2.39379
20
10.0108
11
2.40924
21
10.0197
0
LINE
8
Black
10
2.40924
20
10.0197
11
2.4241
21
10.0295
0
LINE
8
Black
10
2.4241
20
10.0295
11
2.42795
21
10.0305
0
LINE
8
Black
10
2.42795
20
10.0305
11
2.43139
21
10.0325
0
LINE
8
Black
10
2.43139
20
10.0325
11
2.44896
21
10.0356
0
LINE
8
Black
10
2.44896
20
10.0356
11
2.46629
21
10.0398
0
LINE
8
Black
10
2.46629
20
10.0398
11
2.47023
21
10.0393
0
LINE
8
Black
10
2.47023
20
10.0393
11
2.47414
21
10.04
0
LINE
8
Black
10
2.47414
20
10.04
11
2.9816
21
10.04
0
LINE
8
Black
10
2.9816
20
10.04
11
2.98809
21
10.0389
0
LINE
8
Black
10
2.98809
20
10.0389
11
2.99467
21
10.0393
0
LINE
8
Black
10
2.99467
20
10.0393
11
3.00933
21
10.0351
0
LINE
8
Black
10
3.00933
20
10.0351
11
3.02435
21
10.0325
0
LINE
8
Black
10
3.02435
20
10.0325
11
3.03006
21
10.0292
0
LINE
8
Black
10
3.03006
20
10.0292
11
3.0364
21
10.0274
0
LINE
8
Black
10
3.0364
20
10.0274
11
3.04874
21
10.0184
0
LINE
8
Black
10
3.04874
20
10.0184
11
3.06195
21
10.0108
0
LINE
8
Black
10
3.06195
20
10.0108
11
3.06619
21
10.0057
0
LINE
8
Black
10
3.06619
20
10.0057
11
3.07152
21
10.0018
0
LINE
8
Black
10
3.07152
20
10.0018
11
3.0954
21
9.9771
0
LINE
8
Black
10
3.0954
20
9.9771
11
3.31908
21
9.82164
0
LINE
8
Black
10
3.31908
20
9.82164
11
3.57993
21
9.70768
0
LINE
8
Black
10
3.57993
20
9.70768
11
3.58035
21
9.7074
0
LINE
8
Black
10
3.58035
20
9.7074
11
3.58989
21
9.70484
0
LINE
8
Black
10
3.58989
20
9.70484
11
3.59654
21
9.70019
0
LINE
8
Black
10
3.59654
20
9.70019
11
3.60405
21
9.69709
0
LINE
8
Black
10
3.60405
20
9.69709
11
3.6142
21
9.68782
0
LINE
8
Black
10
3.6142
20
9.68782
11
3.62545
21
9.67994
0
LINE
8
Black
10
3.62545
20
9.67994
11
3.92604
21
9.37936
0
LINE
8
Black
10
3.92604
20
9.37936
11
4
21
9.3924
0
LINE
8
Black
10
4
20
9.3924
11
4.07396
21
9.37936
0
LINE
8
Black
10
4.07396
20
9.37936
11
4.12681
21
9.4322
0
LINE
8
Black
10
4.12681
20
9.4322
11
4.13577
21
9.43847
0
LINE
8
Black
10
4.13577
20
9.43847
11
4.1435
21
9.44621
0
LINE
8
Black
10
4.1435
20
9.44621
11
4.15341
21
9.45083
0
LINE
8
Black
10
4.15341
20
9.45083
11
4.16237
21
9.4571
0
LINE
8
Black
10
4.16237
20
9.4571
11
4.17293
21
9.45993
0
LINE
8
Black
10
4.17293
20
9.45993
11
4.18284
21
9.46455
0
LINE
8
Black
10
4.18284
20
9.46455
11
4.19374
21
9.46551
0
LINE
8
Black
10
4.19374
20
9.46551
11
4.2043
21
9.46834
0
LINE
8
Black
10
4.2043
20
9.46834
11
4.21519
21
9.46738
0
LINE
8
Black
10
4.21519
20
9.46738
11
4.22609
21
9.46834
0
LINE
8
Black
10
4.22609
20
9.46834
11
4.23665
21
9.46551
0
LINE
8
Black
10
4.23665
20
9.46551
11
4.24755
21
9.46455
0
LINE
8
Black
10
4.24755
20
9.46455
11
4.25746
21
9.45993
0
LINE
8
Black
10
4.25746
20
9.45993
11
4.26802
21
9.4571
0
LINE
8
Black
10
4.26802
20
9.4571
11
4.27698
21
9.45083
0
LINE
8
Black
10
4.27698
20
9.45083
11
4.28689
21
9.44621
0
LINE
8
Black
10
4.28689
20
9.44621
11
4.29463
21
9.43847
0
LINE
8
Black
10
4.29463
20
9.43847
11
4.30358
21
9.4322
0
LINE
8
Black
10
4.30358
20
9.4322
11
4.40195
21
9.33384
0
LINE
8
Black
10
4.40195
20
9.33384
11
4.4074
21
9.32604
0
LINE
8
Black
10
4.4074
20
9.32604
11
4.41428
21
9.31947
0
LINE
8
Black
10
4.41428
20
9.31947
11
4.41976
21
9.3084
0
LINE
8
Black
10
4.41976
20
9.3084
11
4.42685
21
9.29828
0
LINE
8
Black
10
4.42685
20
9.29828
11
4.42931
21
9.28908
0
LINE
8
Black
10
4.42931
20
9.28908
11
4.43353
21
9.28056
0
LINE
8
Black
10
4.43353
20
9.28056
11
4.43488
21
9.26828
0
LINE
8
Black
10
4.43488
20
9.26828
11
4.43633
21
9.26288
0
LINE
8
Black
10
4.43633
20
9.26288
11
4.57362
21
9.18361
0
LINE
8
Black
10
4.57362
20
9.18361
11
4.72769
21
9
0
LINE
8
Black
10
4.72769
20
9
11
4.83316
21
9
0
LINE
8
Black
10
4.83316
20
9
11
4.99827
21
9.45363
0
LINE
8
Black
10
4.99827
20
9.45363
11
5.42404
21
9.96104
0
LINE
8
Black
10
5.42404
20
9.96104
11
5.99768
21
10.2922
0
LINE
8
Black
10
5.99768
20
10.2922
11
6.65
21
10.4073
0
LINE
8
Black
10
6.65
20
10.4073
11
6.97897
21
10.3493
0
LINE
8
Black
10
6.97897
20
10.3493
11
7.3432
21
10.7135
0
LINE
8
Black
10
7.3432
20
10.7135
11
7.20671
21
10.8439
0
LINE
8
Black
10
7.20671
20
10.8439
11
6.76618
21
10.9088
0
LINE
8
Black
10
6.76618
20
10.9088
11
6.29086
21
10.885
0
LINE
8
Black
10
6.29086
20
10.885
11
6.09576
21
10.8462
0
LINE
8
Black
10
6.09576
20
10.8462
11
5.99089
21
10.7461
0
LINE
8
Black
10
5.99089
20
10.7461
11
5.98297
21
10.7408
0
LINE
8
Black
10
5.98297
20
10.7408
11
5.97625
21
10.734
0
LINE
8
Black
10
5.97625
20
10.734
11
5.96506
21
10.7288
0
LINE
8
Black
10
5.96506
20
10.7288
11
5.95477
21
10.722
0
LINE
8
Black
10
5.95477
20
10.722
11
5.94552
21
10.7197
0
LINE
8
Black
10
5.94552
20
10.7197
11
5.9369
21
10.7157
0
LINE
8
Black
10
5.9369
20
10.7157
11
5.9246
21
10.7146
0
LINE
8
Black
10
5.9246
20
10.7146
11
5.91259
21
10.7117
0
LINE
8
Black
10
5.91259
20
10.7117
11
5.90313
21
10.7127
0
LINE
8
Black
10
5.90313
20
10.7127
11
5.89366
21
10.7119
0
LINE
8
Black
10
5.89366
20
10.7119
11
5.88172
21
10.7151
0
LINE
8
Black
10
5.88172
20
10.7151
11
5.86944
21
10.7165
0
LINE
8
Black
10
5.86944
20
10.7165
11
5.86092
21
10.7207
0
LINE
8
Black
10
5.86092
20
10.7207
11
5.85172
21
10.7232
0
LINE
8
Black
10
5.85172
20
10.7232
11
5.8416
21
10.7302
0
LINE
8
Black
10
5.8416
20
10.7302
11
5.83053
21
10.7357
0
LINE
8
Black
10
5.83053
20
10.7357
11
5.82396
21
10.7426
0
LINE
8
Black
10
5.82396
20
10.7426
11
5.81616
21
10.7481
0
LINE
8
Black
10
5.81616
20
10.7481
11
5.65184
21
10.9124
0
LINE
8
Black
10
5.65184
20
10.9124
11
5.5991
21
10.8596
0
LINE
8
Black
10
5.5991
20
10.8596
11
5.58501
21
10.8498
0
LINE
8
Black
10
5.58501
20
10.8498
11
5.57169
21
10.8389
0
LINE
8
Black
10
5.57169
20
10.8389
11
5.56732
21
10.8374
0
LINE
8
Black
10
5.56732
20
10.8374
11
5.56353
21
10.8347
0
LINE
8
Black
10
5.56353
20
10.8347
11
5.54693
21
10.8303
0
LINE
8
Black
10
5.54693
20
10.8303
11
5.53069
21
10.8246
0
LINE
8
Black
10
5.53069
20
10.8246
11
5.52607
21
10.8247
0
LINE
8
Black
10
5.52607
20
10.8247
11
5.5216
21
10.8235
0
LINE
8
Black
10
5.5216
20
10.8235
11
5.50448
21
10.825
0
LINE
8
Black
10
5.50448
20
10.825
11
5.48728
21
10.8252
0
LINE
8
Black
10
5.48728
20
10.8252
11
5.48296
21
10.8269
0
LINE
8
Black
10
5.48296
20
10.8269
11
5.47836
21
10.8273
0
LINE
8
Black
10
5.47836
20
10.8273
11
5.46277
21
10.8345
0
LINE
8
Black
10
5.46277
20
10.8345
11
5.4467
21
10.8407
0
LINE
8
Black
10
5.4467
20
10.8407
11
5.4432
21
10.8437
0
LINE
8
Black
10
5.4432
20
10.8437
11
5.43901
21
10.8456
0
LINE
8
Black
10
5.43901
20
10.8456
11
5.42685
21
10.8578
0
LINE
8
Black
10
5.42685
20
10.8578
11
5.41384
21
10.869
0
LINE
8
Black
10
5.41384
20
10.869
11
5.41158
21
10.8731
0
LINE
8
Black
10
5.41158
20
10.8731
11
5.40831
21
10.8763
0
LINE
8
Black
10
5.40831
20
10.8763
11
5.40105
21
10.8919
0
LINE
8
Black
10
5.40105
20
10.8919
11
5.39266
21
10.9069
0
LINE
8
Black
10
5.39266
20
10.9069
11
5.39192
21
10.9115
0
LINE
8
Black
10
5.39192
20
10.9115
11
5.38997
21
10.9157
0
LINE
8
Black
10
5.38997
20
10.9157
11
5.38847
21
10.9328
0
LINE
8
Black
10
5.38847
20
10.9328
11
5.38572
21
10.9498
0
LINE
8
Black
10
5.38572
20
10.9498
11
5.38589
21
10.9616
0
LINE
8
Black
10
5.38589
20
10.9616
11
5.38675
21
10.9662
0
LINE
8
Black
10
5.38675
20
10.9662
11
5.38635
21
10.9708
0
LINE
8
Black
10
5.38635
20
10.9708
11
5.3908
21
10.9874
0
LINE
8
Black
10
5.3908
20
10.9874
11
5.39402
21
11.0043
0
LINE
8
Black
10
5.39402
20
11.0043
11
5.39639
21
11.0082
0
LINE
8
Black
10
5.39639
20
11.0082
11
5.39758
21
11.0127
0
LINE
8
Black
10
5.39758
20
11.0127
11
5.40745
21
11.0268
0
LINE
8
Black
10
5.40745
20
11.0268
11
5.41625
21
11.0416
0
LINE
8
Black
10
5.41625
20
11.0416
11
5.41983
21
11.0445
0
LINE
8
Black
10
5.41983
20
11.0445
11
5.42249
21
11.0483
0
LINE
8
Black
10
5.42249
20
11.0483
11
7.6076
21
13.2334
0
LINE
8
Black
10
7.6076
20
13.2334
11
7.61211
21
13.2365
0
LINE
8
Black
10
7.61211
20
13.2365
11
7.61564
21
13.2408
0
LINE
8
Black
10
7.61564
20
13.2408
11
7.62979
21
13.2489
0
LINE
8
Black
10
7.62979
20
13.2489
11
7.64316
21
13.2583
0
LINE
8
Black
10
7.64316
20
13.2583
11
7.64847
21
13.2597
0
LINE
8
Black
10
7.64847
20
13.2597
11
7.65324
21
13.2625
0
LINE
8
Black
10
7.65324
20
13.2625
11
7.66932
21
13.2653
0
LINE
8
Black
10
7.66932
20
13.2653
11
7.68509
21
13.2695
0
LINE
8
Black
10
7.68509
20
13.2695
11
7.69058
21
13.269
0
LINE
8
Black
10
7.69058
20
13.269
11
7.69599
21
13.27
0
LINE
8
Black
10
7.69599
20
13.27
11
8.4816
21
13.27
0
LINE
8
Black
10
8.4816
20
13.27
11
8.48809
21
13.2689
0
LINE
8
Black
10
8.48809
20
13.2689
11
8.49467
21
13.2693
0
LINE
8
Black
10
8.49467
20
13.2693
11
8.50933
21
13.2651
0
LINE
8
Black
10
8.50933
20
13.2651
11
8.52435
21
13.2625
0
LINE
8
Black
10
8.52435
20
13.2625
11
8.53006
21
13.2592
0
LINE
8
Black
10
8.53006
20
13.2592
11
8.5364
21
13.2573
0
LINE
8
Black
10
8.5364
20
13.2573
11
8.54874
21
13.2484
0
LINE
8
Black
10
8.54874
20
13.2484
11
8.56195
21
13.2408
0
LINE
8
Black
10
8.56195
20
13.2408
11
8.56619
21
13.2357
0
LINE
8
Black
10
8.56619
20
13.2357
11
8.57152
21
13.2318
0
LINE
8
Black
10
8.57152
20
13.2318
11
8.5954
21
13.2071
0
LINE
8
Black
10
8.5954
20
13.2071
11
8.74633
21
13.1022
0
LINE
8
Black
10
8.74633
20
13.1022
11
8.75563
21
13.093
0
LINE
8
Black
10
8.75563
20
13.093
11
8.76611
21
13.0851
0
LINE
8
Black
10
8.76611
20
13.0851
11
8.77091
21
13.0778
0
LINE
8
Black
10
8.77091
20
13.0778
11
8.77714
21
13.0716
0
LINE
8
Black
10
8.77714
20
13.0716
11
8.78271
21
13.0598
0
LINE
8
Black
10
8.78271
20
13.0598
11
8.78988
21
13.0488
0
LINE
8
Black
10
8.78988
20
13.0488
11
8.79189
21
13.0403
0
LINE
8
Black
10
8.79189
20
13.0403
11
8.79562
21
13.0323
0
LINE
8
Black
10
8.79562
20
13.0323
11
8.79681
21
13.0193
0
LINE
8
Black
10
8.79681
20
13.0193
11
8.7998
21
13.0065
0
LINE
8
Black
10
8.7998
20
13.0065
11
8.79876
21
12.9978
0
LINE
8
Black
10
8.79876
20
12.9978
11
8.79955
21
12.9891
0
LINE
8
Black
10
8.79955
20
12.9891
11
8.79621
21
12.9764
0
LINE
8
Black
10
8.79621
20
12.9764
11
8.79466
21
12.9634
0
LINE
8
Black
10
8.79466
20
12.9634
11
8.7907
21
12.9556
0
LINE
8
Black
10
8.7907
20
12.9556
11
8.78847
21
12.9471
0
LINE
8
Black
10
8.78847
20
12.9471
11
8.78099
21
12.9364
0
LINE
8
Black
10
8.78099
20
12.9364
11
8.77508
21
12.9247
0
LINE
8
Black
10
8.77508
20
12.9247
11
8.76869
21
12.9187
0
LINE
8
Black
10
8.76869
20
12.9187
11
8.76369
21
12.9115
0
LINE
8
Black
10
8.76369
20
12.9115
11
8.75298
21
12.9039
0
LINE
8
Black
10
8.75298
20
12.9039
11
8.74344
21
12.895
0
LINE
8
Black
10
8.74344
20
12.895
11
8.62543
21
12.8177
0
LINE
8
Black
10
8.62543
20
12.8177
11
8.43081
21
12.6272
0
LINE
8
Black
10
8.43081
20
12.6272
11
8.27692
21
12.4024
0
LINE
8
Black
10
8.27692
20
12.4024
11
8.1696
21
12.152
0
LINE
8
Black
10
8.1696
20
12.152
11
8.11297
21
11.8856
0
LINE
8
Black
10
8.11297
20
11.8856
11
8.10917
21
11.6132
0
LINE
8
Black
10
8.10917
20
11.6132
11
8.15834
21
11.3453
0
LINE
8
Black
10
8.15834
20
11.3453
11
8.25862
21
11.092
0
LINE
8
Black
10
8.25862
20
11.092
11
8.40618
21
10.863
0
LINE
8
Black
10
8.40618
20
10.863
11
8.5954
21
10.6671
0
LINE
8
Black
10
8.5954
20
10.6671
11
8.81908
21
10.5116
0
LINE
8
Black
10
8.81908
20
10.5116
11
9.0687
21
10.4026
0
LINE
8
Black
10
9.0687
20
10.4026
11
9.33474
21
10.3441
0
LINE
8
Black
10
9.33474
20
10.3441
11
9.60708
21
10.3384
0
LINE
8
Black
10
9.60708
20
10.3384
11
9.87534
21
10.3857
0
LINE
8
Black
10
9.87534
20
10.3857
11
10.1293
21
10.4842
0
LINE
8
Black
10
10.1293
20
10.4842
11
10.3337
21
10.6139
0
LINE
8
Black
10
10.3337
20
10.6139
11
10.3512
21
10.6211
0
LINE
8
Black
10
10.3512
20
10.6211
11
10.3683
21
10.6291
0
LINE
8
Black
10
10.3683
20
10.6291
11
10.3712
21
10.6293
0
LINE
8
Black
10
10.3712
20
10.6293
11
10.3738
21
10.6304
0
LINE
8
Black
10
10.3738
20
10.6304
11
10.3927
21
10.6312
0
LINE
8
Black
10
10.3927
20
10.6312
11
10.4116
21
10.6329
0
LINE
8
Black
10
10.4116
20
10.6329
11
10.4143
21
10.6321
0
LINE
8
Black
10
10.4143
20
10.6321
11
10.4172
21
10.6323
0
LINE
8
Black
10
10.4172
20
10.6323
11
10.4352
21
10.6265
0
LINE
8
Black
10
10.4352
20
10.6265
11
10.4535
21
10.6216
0
LINE
8
Black
10
10.4535
20
10.6216
11
10.4558
21
10.62
0
LINE
8
Black
10
10.4558
20
10.62
11
10.4586
21
10.6191
0
LINE
8
Black
10
10.4586
20
10.6191
11
10.4736
21
10.6076
0
LINE
8
Black
10
10.4736
20
10.6076
11
10.489
21
10.5967
0
LINE
8
Black
10
10.489
20
10.5967
11
10.7274
21
10.3584
0
LINE
8
Black
10
10.7274
20
10.3584
11
10.7337
21
10.3494
0
LINE
8
Black
10
10.7337
20
10.3494
11
10.7414
21
10.3417
0
LINE
8
Black
10
10.7414
20
10.3417
11
10.746
21
10.3318
0
LINE
8
Black
10
10.746
20
10.3318
11
10.7523
21
10.3228
0
LINE
8
Black
10
10.7523
20
10.3228
11
10.7551
21
10.3123
0
LINE
8
Black
10
10.7551
20
10.3123
11
10.7598
21
10.3024
0
LINE
8
Black
10
10.7598
20
10.3024
11
10.7607
21
10.2915
0
LINE
8
Black
10
10.7607
20
10.2915
11
10.7635
21
10.2809
0
LINE
8
Black
10
10.7635
20
10.2809
11
10.7626
21
10.27
0
LINE
8
Black
10
10.7626
20
10.27
11
10.7635
21
10.2591
0
LINE
8
Black
10
10.7635
20
10.2591
11
10.7607
21
10.2485
0
LINE
8
Black
10
10.7607
20
10.2485
11
10.7598
21
10.2376
0
LINE
8
Black
10
10.7598
20
10.2376
11
10.7551
21
10.2277
0
LINE
8
Black
10
10.7551
20
10.2277
11
10.7523
21
10.2172
0
LINE
8
Black
10
10.7523
20
10.2172
11
10.746
21
10.2082
0
LINE
8
Black
10
10.746
20
10.2082
11
10.7414
21
10.1983
0
LINE
8
Black
10
10.7414
20
10.1983
11
10.7337
21
10.1906
0
LINE
8
Black
10
10.7337
20
10.1906
11
10.7274
21
10.1816
0
LINE
8
Black
10
10.7274
20
10.1816
11
10.4752
21
9.9294
0
LINE
8
Black
10
10.4752
20
9.9294
11
10.4688
21
9.92491
0
LINE
8
Black
10
10.4688
20
9.92491
11
10.4635
21
9.9191
0
LINE
8
Black
10
10.4635
20
9.9191
11
10.4511
21
9.91254
0
LINE
8
Black
10
10.4511
20
9.91254
11
10.4396
21
9.9045
0
LINE
8
Black
10
10.4396
20
9.9045
11
10.4321
21
9.90247
0
LINE
8
Black
10
10.4321
20
9.90247
11
10.4251
21
9.89881
0
LINE
8
Black
10
10.4251
20
9.89881
11
10.4112
21
9.89689
0
LINE
8
Black
10
10.4112
20
9.89689
11
10.3977
21
9.89326
0
LINE
8
Black
10
10.3977
20
9.89326
11
10.3899
21
9.89394
0
LINE
8
Black
10
10.3899
20
9.89394
11
10.3821
21
9.89287
0
LINE
8
Black
10
10.3821
20
9.89287
11
10.3751
21
9.89314
0
LINE
8
Black
10
10.3751
20
9.89314
11
10.1011
21
9.84919
0
LINE
8
Black
10
10.1011
20
9.84919
11
10.053
21
9.83458
0
LINE
8
Black
10
10.053
20
9.83458
11
10.013
21
9.75239
0
LINE
8
Black
10
10.013
20
9.75239
11
10.386
21
9.37936
0
LINE
8
Black
10
10.386
20
9.37936
11
10.46
21
9.3924
0
LINE
8
Black
10
10.46
20
9.3924
11
10.534
21
9.37936
0
LINE
8
Black
10
10.534
20
9.37936
11
10.6859
21
9.53131
0
LINE
8
Black
10
10.6859
20
9.53131
11
10.6949
21
9.53759
0
LINE
8
Black
10
10.6949
20
9.53759
11
10.7026
21
9.54532
0
LINE
8
Black
10
10.7026
20
9.54532
11
10.7125
21
9.54994
0
LINE
8
Black
10
10.7125
20
9.54994
11
10.7215
21
9.55621
0
LINE
8
Black
10
10.7215
20
9.55621
11
10.732
21
9.55905
0
LINE
8
Black
10
10.732
20
9.55905
11
10.742
21
9.56367
0
LINE
8
Black
10
10.742
20
9.56367
11
10.7529
21
9.56462
0
LINE
8
Black
10
10.7529
20
9.56462
11
10.7634
21
9.56745
0
LINE
8
Black
10
10.7634
20
9.56745
11
10.7743
21
9.5665
0
LINE
8
Black
10
10.7743
20
9.5665
11
10.7852
21
9.56745
0
LINE
8
Black
10
10.7852
20
9.56745
11
10.7958
21
9.56462
0
LINE
8
Black
10
10.7958
20
9.56462
11
10.8067
21
9.56367
0
LINE
8
Black
10
10.8067
20
9.56367
11
10.8166
21
9.55905
0
LINE
8
Black
10
10.8166
20
9.55905
11
10.8271
21
9.55621
0
LINE
8
Black
10
10.8271
20
9.55621
11
10.8361
21
9.54994
0
LINE
8
Black
10
10.8361
20
9.54994
11
10.846
21
9.54532
0
LINE
8
Black
10
10.846
20
9.54532
11
10.8537
21
9.53759
0
LINE
8
Black
10
10.8537
20
9.53759
11
10.8627
21
9.53131
0
LINE
8
Black
10
10.8627
20
9.53131
11
11.2134
21
9.18062
0
LINE
8
Black
10
11.2134
20
9.18062
11
11.2165
21
9.17612
0
LINE
8
Black
10
11.2165
20
9.17612
11
11.2208
21
9.17258
0
LINE
8
Black
10
11.2208
20
9.17258
11
11.2289
21
9.15844
0
LINE
8
Black
10
11.2289
20
9.15844
11
11.2383
21
9.14506
0
LINE
8
Black
10
11.2383
20
9.14506
11
11.2397
21
9.13975
0
LINE
8
Black
10
11.2397
20
9.13975
11
11.2425
21
9.13499
0
LINE
8
Black
10
11.2425
20
9.13499
11
11.2453
21
9.1189
0
LINE
8
Black
10
11.2453
20
9.1189
11
11.2495
21
9.10313
0
LINE
8
Black
10
11.2495
20
9.10313
11
11.249
21
9.09765
0
LINE
8
Black
10
11.249
20
9.09765
11
11.25
21
9.09223
0
LINE
8
Black
10
11.25
20
9.09223
11
11.25
21
8.89904
0
LINE
8
Black
10
11.25
20
8.89904
11
11.3388
21
8.65496
0
LINE
8
Black
10
11.3388
20
8.65496
11
11.3388
21
8.34504
0
LINE
8
Black
10
11.3388
20
8.34504
11
11.25
21
8.10095
0
LINE
8
Black
10
11.25
20
8.10095
11
11.25
21
7.90776
0
LINE
8
Black
10
11.25
20
7.90776
11
11.249
21
7.90235
0
LINE
8
Black
10
11.249
20
7.90235
11
11.2495
21
7.89687
0
LINE
8
Black
10
11.2495
20
7.89687
11
11.2453
21
7.88109
0
LINE
8
Black
10
11.2453
20
7.88109
11
11.2425
21
7.86501
0
LINE
8
Black
10
11.2425
20
7.86501
11
11.2397
21
7.86025
0
LINE
8
Black
10
11.2397
20
7.86025
11
11.2383
21
7.85494
0
LINE
8
Black
10
11.2383
20
7.85494
11
11.2289
21
7.84156
0
LINE
8
Black
10
11.2289
20
7.84156
11
11.2208
21
7.82742
0
LINE
8
Black
10
11.2208
20
7.82742
11
11.2165
21
7.82388
0
LINE
8
Black
10
11.2165
20
7.82388
11
11.2134
21
7.81938
0
LINE
8
Black
10
11.2134
20
7.81938
11
10.8627
21
7.46868
0
LINE
8
Black
10
10.8627
20
7.46868
11
10.8537
21
7.46241
0
LINE
8
Black
10
10.8537
20
7.46241
11
10.846
21
7.45468
0
LINE
8
Black
10
10.846
20
7.45468
11
10.8361
21
7.45006
0
LINE
8
Black
10
10.8361
20
7.45006
11
10.8271
21
7.44378
0
LINE
8
Black
10
10.8271
20
7.44378
11
10.8166
21
7.44095
0
LINE
8
Black
10
10.8166
20
7.44095
11
10.8067
21
7.43633
0
LINE
8
Black
10
10.8067
20
7.43633
11
10.7958
21
7.43538
0
LINE
8
Black
10
10.7958
20
7.43538
11
10.7852
21
7.43255
0
LINE
8
Black
10
10.7852
20
7.43255
11
10.7743
21
7.4335
0
LINE
8
Black
10
10.7743
20
7.4335
11
10.7634
21
7.43255
0
LINE
8
Black
10
10.7634
20
7.43255
11
10.7529
21
7.43538
0
LINE
8
Black
10
10.7529
20
7.43538
11
10.742
21
7.43633
0
LINE
8
Black
10
10.742
20
7.43633
11
10.732
21
7.44095
0
LINE
8
Black
10
10.732
20
7.44095
11
10.7215
21
7.44378
0
LINE
8
Black
10
10.7215
20
7.44378
11
10.7125
21
7.45006
0
LINE
8
Black
10
10.7125
20
7.45006
11
10.7026
21
7.45468
0
LINE
8
Black
10
10.7026
20
7.45468
11
10.6949
21
7.46241
0
LINE
8
Black
10
10.6949
20
7.46241
11
10.6859
21
7.46868
0
LINE
8
Black
10
10.6859
20
7.46868
11
10.534
21
7.62064
0
LINE
8
Black
10
10.534
20
7.62064
11
10.46
21
7.6076
0
LINE
8
Black
10
10.46
20
7.6076
11
10.386
21
7.62064
0
LINE
8
Black
10
10.386
20
7.62064
11
10.013
21
7.24761
0
LINE
8
Black
10
10.013
20
7.24761
11
10.051
21
7.16955
0
LINE
8
Black
10
10.051
20
7.16955
11
10.2715
21
7.11706
0
LINE
8
Black
10
10.2715
20
7.11706
11
10.3858
21
7.1128
0
LINE
8
Black
10
10.3858
20
7.1128
11
10.3889
21
7.11214
0
LINE
8
Black
10
10.3889
20
7.11214
11
10.392
21
7.11241
0
LINE
8
Black
10
10.392
20
7.11241
11
10.41
21
7.10759
0
LINE
8
Black
10
10.41
20
7.10759
11
10.4282
21
7.10368
0
LINE
8
Black
10
10.4282
20
7.10368
11
10.4309
21
7.10199
0
LINE
8
Black
10
10.4309
20
7.10199
11
10.4339
21
7.10118
0
LINE
8
Black
10
10.4339
20
7.10118
11
10.4492
21
7.0905
0
LINE
8
Black
10
10.4492
20
7.0905
11
10.465
21
7.08058
0
LINE
8
Black
10
10.465
20
7.08058
11
10.4669
21
7.07809
0
LINE
8
Black
10
10.4669
20
7.07809
11
10.4695
21
7.07628
0
LINE
8
Black
10
10.4695
20
7.07628
11
10.7274
21
6.81839
0
LINE
8
Black
10
10.7274
20
6.81839
11
10.7337
21
6.80943
0
LINE
8
Black
10
10.7337
20
6.80943
11
10.7414
21
6.80169
0
LINE
8
Black
10
10.7414
20
6.80169
11
10.746
21
6.79178
0
LINE
8
Black
10
10.746
20
6.79178
11
10.7523
21
6.78282
0
LINE
8
Black
10
10.7523
20
6.78282
11
10.7551
21
6.77226
0
LINE
8
Black
10
10.7551
20
6.77226
11
10.7598
21
6.76235
0
LINE
8
Black
10
10.7598
20
6.76235
11
10.7607
21
6.75145
0
LINE
8
Black
10
10.7607
20
6.75145
11
10.7635
21
6.74089
0
LINE
8
Black
10
10.7635
20
6.74089
11
10.7626
21
6.73
0
LINE
8
Black
10
10.7626
20
6.73
11
10.7635
21
6.7191
0
LINE
8
Black
10
10.7635
20
6.7191
11
10.7607
21
6.70854
0
LINE
8
Black
10
10.7607
20
6.70854
11
10.7598
21
6.69765
0
LINE
8
Black
10
10.7598
20
6.69765
11
10.7551
21
6.68774
0
LINE
8
Black
10
10.7551
20
6.68774
11
10.7523
21
6.67717
0
LINE
8
Black
10
10.7523
20
6.67717
11
10.746
21
6.66821
0
LINE
8
Black
10
10.746
20
6.66821
11
10.7414
21
6.6583
0
LINE
8
Black
10
10.7414
20
6.6583
11
10.7337
21
6.65057
0
LINE
8
Black
10
10.7337
20
6.65057
11
10.7274
21
6.64161
0
LINE
8
Black
10
10.7274
20
6.64161
11
10.4873
21
6.40155
0
LINE
8
Black
10
10.4873
20
6.40155
11
10.4704
21
6.38971
0
LINE
8
Black
10
10.4704
20
6.38971
11
10.4537
21
6.37759
0
LINE
8
Black
10
10.4537
20
6.37759
11
10.4527
21
6.37729
0
LINE
8
Black
10
10.4527
20
6.37729
11
10.4518
21
6.37665
0
LINE
8
Black
10
10.4518
20
6.37665
11
10.4318
21
6.37131
0
LINE
8
Black
10
10.4318
20
6.37131
11
10.412
21
6.36563
0
LINE
8
Black
10
10.412
20
6.36563
11
10.4109
21
6.3657
0
LINE
8
Black
10
10.4109
20
6.3657
11
10.4098
21
6.36542
0
LINE
8
Black
10
10.4098
20
6.36542
11
10.3893
21
6.36721
0
LINE
8
Black
10
10.3893
20
6.36721
11
10.3687
21
6.36865
0
LINE
8
Black
10
10.3687
20
6.36865
11
10.3677
21
6.3691
0
LINE
8
Black
10
10.3677
20
6.3691
11
10.3666
21
6.3692
0
LINE
8
Black
10
10.3666
20
6.3692
11
10.3479
21
6.37791
0
LINE
8
Black
10
10.3479
20
6.37791
11
10.3291
21
6.38631
0
LINE
8
Black
10
10.3291
20
6.38631
11
10.1638
21
6.49775
0
LINE
8
Black
10
10.1638
20
6.49775
11
9.91273
21
6.60331
0
LINE
8
Black
10
9.91273
20
6.60331
11
9.64589
21
6.65808
0
LINE
8
Black
10
9.64589
20
6.65808
11
9.3735
21
6.65998
0
LINE
8
Black
10
9.3735
20
6.65998
11
9.10593
21
6.60894
0
LINE
8
Black
10
9.10593
20
6.60894
11
8.85337
21
6.5069
0
LINE
8
Black
10
8.85337
20
6.5069
11
8.62543
21
6.35774
0
LINE
8
Black
10
8.62543
20
6.35774
11
8.43081
21
6.16715
0
LINE
8
Black
10
8.43081
20
6.16715
11
8.27692
21
5.9424
0
LINE
8
Black
10
8.27692
20
5.9424
11
8.1696
21
5.69202
0
LINE
8
Black
10
8.1696
20
5.69202
11
8.11297
21
5.42558
0
LINE
8
Black
10
8.11297
20
5.42558
11
8.10917
21
5.15321
0
LINE
8
Black
10
8.10917
20
5.15321
11
8.15834
21
4.88529
0
LINE
8
Black
10
8.15834
20
4.88529
11
8.25862
21
4.63202
0
LINE
8
Black
10
8.25862
20
4.63202
11
8.40618
21
4.40305
0
LINE
8
Black
10
8.40618
20
4.40305
11
8.5954
21
4.2071
0
LINE
8
Black
10
8.5954
20
4.2071
11
8.74633
21
4.1022
0
LINE
8
Black
10
8.74633
20
4.1022
11
8.75563
21
4.09297
0
LINE
8
Black
10
8.75563
20
4.09297
11
8.76611
21
4.08513
0
LINE
8
Black
10
8.76611
20
4.08513
11
8.77091
21
4.07779
0
LINE
8
Black
10
8.77091
20
4.07779
11
8.77714
21
4.07161
0
LINE
8
Black
10
8.77714
20
4.07161
11
8.78271
21
4.05976
0
LINE
8
Black
10
8.78271
20
4.05976
11
8.78988
21
4.0488
0
LINE
8
Black
10
8.78988
20
4.0488
11
8.79189
21
4.04027
0
LINE
8
Black
10
8.79189
20
4.04027
11
8.79562
21
4.03233
0
LINE
8
Black
10
8.79562
20
4.03233
11
8.79681
21
4.01929
0
LINE
8
Black
10
8.79681
20
4.01929
11
8.7998
21
4.00653
0
LINE
8
Black
10
8.7998
20
4.00653
11
8.79876
21
3.99783
0
LINE
8
Black
10
8.79876
20
3.99783
11
8.79955
21
3.9891
0
LINE
8
Black
10
8.79955
20
3.9891
11
8.79621
21
3.97643
0
LINE
8
Black
10
8.79621
20
3.97643
11
8.79466
21
3.96343
0
LINE
8
Black
10
8.79466
20
3.96343
11
8.7907
21
3.9556
0
LINE
8
Black
10
8.7907
20
3.9556
11
8.78847
21
3.94713
0
LINE
8
Black
10
8.78847
20
3.94713
11
8.78099
21
3.93637
0
LINE
8
Black
10
8.78099
20
3.93637
11
8.77508
21
3.92468
0
LINE
8
Black
10
8.77508
20
3.92468
11
8.76869
21
3.91868
0
LINE
8
Black
10
8.76869
20
3.91868
11
8.76369
21
3.91148
0
LINE
8
Black
10
8.76369
20
3.91148
11
8.75298
21
3.90392
0
LINE
8
Black
10
8.75298
20
3.90392
11
8.74344
21
3.89496
0
LINE
8
Black
10
8.74344
20
3.89496
11
8.62543
21
3.81774
0
LINE
8
Black
10
8.62543
20
3.81774
11
8.43081
21
3.62715
0
LINE
8
Black
10
8.43081
20
3.62715
11
8.27692
21
3.4024
0
LINE
8
Black
10
8.27692
20
3.4024
11
8.1696
21
3.15202
0
LINE
8
Black
10
8.1696
20
3.15202
11
8.11297
21
2.88558
0
LINE
8
Black
10
8.11297
20
2.88558
11
8.10917
21
2.61321
0
LINE
8
Black
10
8.10917
20
2.61321
11
8.15834
21
2.34529
0
LINE
8
Black
10
8.15834
20
2.34529
11
8.25862
21
2.09202
0
LINE
8
Black
10
8.25862
20
2.09202
11
8.40618
21
1.86305
0
LINE
8
Black
10
8.40618
20
1.86305
11
8.5954
21
1.6671
0
LINE
8
Black
10
8.5954
20
1.6671
11
8.81908
21
1.51164
0
LINE
8
Black
10
8.81908
20
1.51164
11
9.0687
21
1.40258
0
LINE
8
Black
10
9.0687
20
1.40258
11
9.33474
21
1.34409
0
LINE
8
Black
10
9.33474
20
1.34409
11
9.60708
21
1.33839
0
LINE
8
Black
10
9.60708
20
1.33839
11
9.87534
21
1.38569
0
LINE
8
Black
10
9.87534
20
1.38569
11
10.1293
21
1.4842
0
LINE
8
Black
10
10.1293
20
1.4842
11
10.3593
21
1.63015
0
LINE
8
Black
10
10.3593
20
1.63015
11
10.4319
21
1.69925
0
LINE
8
Black
10
10.4319
20
1.69925
11
10.4482
21
1.71008
0
LINE
8
Black
10
10.4482
20
1.71008
11
10.464
21
1.72146
0
LINE
8
Black
10
10.464
20
1.72146
11
10.4662
21
1.72205
0
LINE
8
Black
10
10.4662
20
1.72205
11
10.468
21
1.72328
0
LINE
8
Black
10
10.468
20
1.72328
11
10.487
21
1.72788
0
LINE
8
Black
10
10.487
20
1.72788
11
10.5059
21
1.73313
0
LINE
8
Black
10
10.5059
20
1.73313
11
10.5712
21
1.73954
0
LINE
8
Black
10
10.5712
20
1.73954
11
10.5719
21
1.73949
0
LINE
8
Black
10
10.5719
20
1.73949
11
10.5725
21
1.73967
0
LINE
8
Black
10
10.5725
20
1.73967
11
10.6691
21
1.74811
0
LINE
8
Black
10
10.6691
20
1.74811
11
10.7618
21
1.77612
0
LINE
8
Black
10
10.7618
20
1.77612
11
10.7625
21
1.7762
0
LINE
8
Black
10
10.7625
20
1.7762
11
10.7631
21
1.77649
0
LINE
8
Black
10
10.7631
20
1.77649
11
10.8562
21
1.80354
0
LINE
8
Black
10
10.8562
20
1.80354
11
10.9417
21
1.84901
0
LINE
8
Black
10
10.9417
20
1.84901
11
10.9423
21
1.84921
0
LINE
8
Black
10
10.9423
20
1.84921
11
10.9429
21
1.84962
0
LINE
8
Black
10
10.9429
20
1.84962
11
11.029
21
1.89425
0
LINE
8
Black
10
11.029
20
1.89425
11
11.104
21
1.95547
0
LINE
8
Black
10
11.104
20
1.95547
11
11.1046
21
1.95579
0
LINE
8
Black
10
11.1046
20
1.95579
11
11.1051
21
1.95629
0
LINE
8
Black
10
11.1051
20
1.95629
11
11.1812
21
2.01708
0
LINE
8
Black
10
11.1812
20
2.01708
11
11.1848
21
2.0206
0
LINE
8
Black
10
11.1848
20
2.0206
11
11.185
21
2.02072
0
LINE
8
Black
10
11.185
20
2.02072
11
11.1851
21
2.02089
0
LINE
8
Black
10
11.1851
20
2.02089
11
11.1875
21
2.02324
0
LINE
8
Black
10
11.1875
20
2.02324
11
12.8776
21
3.71339
0
LINE
8
Black
10
12.8776
20
3.71339
11
12.8821
21
3.71654
0
LINE
8
Black
10
12.8821
20
3.71654
11
12.8856
21
3.72076
0
LINE
8
Black
10
12.8856
20
3.72076
11
12.8998
21
3.72892
0
LINE
8
Black
10
12.8998
20
3.72892
11
12.9132
21
3.73829
0
LINE
8
Black
10
12.9132
20
3.73829
11
12.9185
21
3.73971
0
LINE
8
Black
10
12.9185
20
3.73971
11
12.9232
21
3.74246
0
LINE
8
Black
10
12.9232
20
3.74246
11
12.9393
21
3.7453
0
LINE
8
Black
10
12.9393
20
3.7453
11
12.9551
21
3.74952
0
LINE
8
Black
10
12.9551
20
3.74952
11
12.9606
21
3.74904
0
LINE
8
Black
10
12.9606
20
3.74904
11
12.966
21
3.75
0
LINE
8
Black
10
12.966
20
3.75
11
13.034
21
3.75
0
LINE
8
Black
10
13.034
20
3.75
11
13.0394
21
3.74904
0
LINE
8
Black
10
13.0394
20
3.74904
11
13.0449
21
3.74952
0
LINE
8
Black
10
13.0449
20
3.74952
11
13.0607
21
3.7453
0
LINE
8
Black
10
13.0607
20
3.7453
11
13.0768
21
3.74246
0
LINE
8
Black
10
13.0768
20
3.74246
11
13.0815
21
3.73971
0
LINE
8
Black
10
13.0815
20
3.73971
11
13.0868
21
3.73829
0
LINE
8
Black
10
13.0868
20
3.73829
11
13.1002
21
3.72892
0
LINE
8
Black
10
13.1002
20
3.72892
11
13.1144
21
3.72076
0
LINE
8
Black
10
13.1144
20
3.72076
11
13.1179
21
3.71654
0
LINE
8
Black
10
13.1179
20
3.71654
11
13.1224
21
3.71339
0
LINE
8
Black
10
13.1224
20
3.71339
11
14.8086
21
2.02722
0
LINE
8
Black
10
14.8086
20
2.02722
11
14.8842
21
1.96513
0
LINE
8
Black
10
14.8842
20
1.96513
11
14.8846
21
1.96463
0
LINE
8
Black
10
14.8846
20
1.96463
11
14.8852
21
1.9643
0
LINE
8
Black
10
14.8852
20
1.9643
11
14.9594
21
1.902
0
LINE
8
Black
10
14.9594
20
1.902
11
15.0448
21
1.8562
0
LINE
8
Black
10
15.0448
20
1.8562
11
15.0453
21
1.85579
0
LINE
8
Black
10
15.0453
20
1.85579
11
15.046
21
1.85558
0
LINE
8
Black
10
15.046
20
1.85558
11
15.1309
21
1.80888
0
LINE
8
Black
10
15.1309
20
1.80888
11
15.2235
21
1.78056
0
LINE
8
Black
10
15.2235
20
1.78056
11
15.2241
21
1.78026
0
LINE
8
Black
10
15.2241
20
1.78026
11
15.2248
21
1.78017
0
LINE
8
Black
10
15.2248
20
1.78017
11
15.3172
21
1.75085
0
LINE
8
Black
10
15.3172
20
1.75085
11
15.4136
21
1.74106
0
LINE
8
Black
10
15.4136
20
1.74106
11
15.4142
21
1.74088
0
LINE
8
Black
10
15.4142
20
1.74088
11
15.4149
21
1.74092
0
LINE
8
Black
10
15.4149
20
1.74092
11
15.4927
21
1.7322
0
LINE
8
Black
10
15.4927
20
1.7322
11
15.5131
21
1.72619
0
LINE
8
Black
10
15.5131
20
1.72619
11
15.5335
21
1.72033
0
LINE
8
Black
10
15.5335
20
1.72033
11
15.5339
21
1.72007
0
LINE
8
Black
10
15.5339
20
1.72007
11
15.5343
21
1.71994
0
LINE
8
Black
10
15.5343
20
1.71994
11
15.5515
21
1.70725
0
LINE
8
Black
10
15.5515
20
1.70725
11
15.5686
21
1.69481
0
LINE
8
Black
10
15.5686
20
1.69481
11
15.5954
21
1.6671
0
LINE
8
Black
10
15.5954
20
1.6671
11
15.8191
21
1.51164
0
LINE
8
Black
10
15.8191
20
1.51164
11
16.0687
21
1.40258
0
LINE
8
Black
10
16.0687
20
1.40258
11
16.3347
21
1.34409
0
LINE
8
Black
10
16.3347
20
1.34409
11
16.6071
21
1.33839
0
LINE
8
Black
10
16.6071
20
1.33839
11
16.8753
21
1.38569
0
LINE
8
Black
10
16.8753
20
1.38569
11
17.1293
21
1.4842
0
LINE
8
Black
10
17.1293
20
1.4842
11
17.3593
21
1.63015
0
LINE
8
Black
10
17.3593
20
1.63015
11
17.5566
21
1.818
0
LINE
8
Black
10
17.5566
20
1.818
11
17.7136
21
2.04059
0
LINE
8
Black
10
17.7136
20
2.04059
11
17.8244
21
2.28944
0
LINE
8
Black
10
17.8244
20
2.28944
11
17.8845
21
2.55421
0
LINE
8
Black
10
17.8845
20
2.55421
11
17.8889
21
2.86707
0
LINE
8
Black
10
17.8889
20
2.86707
11
17.8362
21
3.13341
0
LINE
8
Black
10
17.8362
20
3.13341
11
17.7324
21
3.38526
0
LINE
8
Black
10
17.7324
20
3.38526
11
17.5816
21
3.61214
0
LINE
8
Black
10
17.5816
20
3.61214
11
17.3897
21
3.80542
0
LINE
8
Black
10
17.3897
20
3.80542
11
17.2547
21
3.89646
0
LINE
8
Black
10
17.2547
20
3.89646
11
17.244
21
3.90676
0
LINE
8
Black
10
17.244
20
3.90676
11
17.2323
21
3.9158
0
LINE
8
Black
10
17.2323
20
3.9158
11
17.2285
21
3.92173
0
LINE
8
Black
10
17.2285
20
3.92173
11
17.2235
21
3.92662
0
LINE
8
Black
10
17.2235
20
3.92662
11
17.217
21
3.93995
0
LINE
8
Black
10
17.217
20
3.93995
11
17.209
21
3.95246
0
LINE
8
Black
10
17.209
20
3.95246
11
17.2075
21
3.95932
0
LINE
8
Black
10
17.2075
20
3.95932
11
17.2044
21
3.96563
0
LINE
8
Black
10
17.2044
20
3.96563
11
17.2029
21
3.98037
0
LINE
8
Black
10
17.2029
20
3.98037
11
17.1997
21
3.99485
0
LINE
8
Black
10
17.1997
20
3.99485
11
17.2006
21
4.00182
0
LINE
8
Black
10
17.2006
20
4.00182
11
17.1999
21
4.00881
0
LINE
8
Black
10
17.1999
20
4.00881
11
17.2035
21
4.02319
0
LINE
8
Black
10
17.2035
20
4.02319
11
17.2055
21
4.03789
0
LINE
8
Black
10
17.2055
20
4.03789
11
17.2087
21
4.04412
0
LINE
8
Black
10
17.2087
20
4.04412
11
17.2104
21
4.05093
0
LINE
8
Black
10
17.2104
20
4.05093
11
17.2187
21
4.06322
0
LINE
8
Black
10
17.2187
20
4.06322
11
17.2256
21
4.07636
0
LINE
8
Black
10
17.2256
20
4.07636
11
17.2308
21
4.0811
0
LINE
8
Black
10
17.2308
20
4.0811
11
17.2347
21
4.08692
0
LINE
8
Black
10
17.2347
20
4.08692
11
17.2467
21
4.09564
0
LINE
8
Black
10
17.2467
20
4.09564
11
17.2576
21
4.10563
0
LINE
8
Black
10
17.2576
20
4.10563
11
17.3593
21
4.17015
0
LINE
8
Black
10
17.3593
20
4.17015
11
17.5566
21
4.358
0
LINE
8
Black
10
17.5566
20
4.358
11
17.7136
21
4.58059
0
LINE
8
Black
10
17.7136
20
4.58059
11
17.8244
21
4.82944
0
LINE
8
Black
10
17.8244
20
4.82944
11
17.8845
21
5.09421
0
LINE
8
Black
10
17.8845
20
5.09421
11
17.8889
21
5.40707
0
LINE
8
Black
10
17.8889
20
5.40707
11
17.8362
21
5.67341
0
LINE
8
Black
10
17.8362
20
5.67341
11
17.7324
21
5.92526
0
LINE
8
Black
10
17.7324
20
5.92526
11
17.5816
21
6.15214
0
LINE
8
Black
10
17.5816
20
6.15214
11
17.3897
21
6.34542
0
LINE
8
Black
10
17.3897
20
6.34542
11
17.1638
21
6.49775
0
LINE
8
Black
10
17.1638
20
6.49775
11
16.9127
21
6.60331
0
LINE
8
Black
10
16.9127
20
6.60331
11
16.6459
21
6.65808
0
LINE
8
Black
10
16.6459
20
6.65808
11
16.3735
21
6.65998
0
LINE
8
Black
10
16.3735
20
6.65998
11
16.1059
21
6.60894
0
LINE
8
Black
10
16.1059
20
6.60894
11
15.8534
21
6.5069
0
LINE
8
Black
10
15.8534
20
6.5069
11
15.6254
21
6.35774
0
LINE
8
Black
10
15.6254
20
6.35774
11
15.5723
21
6.30569
0
LINE
8
Black
10
15.5723
20
6.30569
11
15.5683
21
6.30295
0
LINE
8
Black
10
15.5683
20
6.30295
11
15.5652
21
6.29924
0
LINE
8
Black
10
15.5652
20
6.29924
11
15.5505
21
6.29075
0
LINE
8
Black
10
15.5505
20
6.29075
11
15.5365
21
6.28116
0
LINE
8
Black
10
15.5365
20
6.28116
11
15.5318
21
6.27996
0
LINE
8
Black
10
15.5318
20
6.27996
11
15.5276
21
6.27754
0
LINE
8
Black
10
15.5276
20
6.27754
11
15.5109
21
6.27459
0
LINE
8
Black
10
15.5109
20
6.27459
11
15.4944
21
6.27037
0
LINE
8
Black
10
15.4944
20
6.27037
11
15.4896
21
6.27084
0
LINE
8
Black
10
15.4896
20
6.27084
11
15.4848
21
6.27
0
LINE
8
Black
10
15.4848
20
6.27
11
15.446
21
6.27
0
LINE
8
Black
10
15.446
20
6.27
11
15.4406
21
6.27095
0
LINE
8
Black
10
15.4406
20
6.27095
11
15.4351
21
6.27048
0
LINE
8
Black
10
15.4351
20
6.27048
11
15.4193
21
6.2747
0
LINE
8
Black
10
15.4193
20
6.2747
11
15.4032
21
6.27754
0
LINE
8
Black
10
15.4032
20
6.27754
11
15.3985
21
6.28029
0
LINE
8
Black
10
15.3985
20
6.28029
11
15.3932
21
6.28171
0
LINE
8
Black
10
15.3932
20
6.28171
11
15.3798
21
6.29108
0
LINE
8
Black
10
15.3798
20
6.29108
11
15.3656
21
6.29924
0
LINE
8
Black
10
15.3656
20
6.29924
11
15.3621
21
6.30346
0
LINE
8
Black
10
15.3621
20
6.30346
11
15.3576
21
6.30661
0
LINE
8
Black
10
15.3576
20
6.30661
11
14.7866
21
6.8776
0
LINE
8
Black
10
14.7866
20
6.8776
11
14.7835
21
6.88211
0
LINE
8
Black
10
14.7835
20
6.88211
11
14.7792
21
6.88564
0
LINE
8
Black
10
14.7792
20
6.88564
11
14.7711
21
6.89979
0
LINE
8
Black
10
14.7711
20
6.89979
11
14.7617
21
6.91316
0
LINE
8
Black
10
14.7617
20
6.91316
11
14.7603
21
6.91847
0
LINE
8
Black
10
14.7603
20
6.91847
11
14.7575
21
6.92324
0
LINE
8
Black
10
14.7575
20
6.92324
11
14.7547
21
6.93932
0
LINE
8
Black
10
14.7547
20
6.93932
11
14.7505
21
6.9551
0
LINE
8
Black
10
14.7505
20
6.9551
11
14.751
21
6.96057
0
LINE
8
Black
10
14.751
20
6.96057
11
14.75
21
6.96599
0
LINE
8
Black
10
14.75
20
6.96599
11
14.75
21
7.13828
0
LINE
8
Black
10
14.75
20
7.13828
11
14.7526
21
7.15288
0
LINE
8
Black
10
14.7526
20
7.15288
11
14.7535
21
7.16767
0
LINE
8
Black
10
14.7535
20
7.16767
11
14.7563
21
7.17411
0
LINE
8
Black
10
14.7563
20
7.17411
11
14.7575
21
7.18103
0
LINE
8
Black
10
14.7575
20
7.18103
11
14.765
21
7.19387
0
LINE
8
Black
10
14.765
20
7.19387
11
14.7709
21
7.20745
0
LINE
8
Black
10
14.7709
20
7.20745
11
14.7757
21
7.21254
0
LINE
8
Black
10
14.7757
20
7.21254
11
14.7792
21
7.21862
0
LINE
8
Black
10
14.7792
20
7.21862
11
14.7906
21
7.22815
0
LINE
8
Black
10
14.7906
20
7.22815
11
14.8008
21
7.23889
0
LINE
8
Black
10
14.8008
20
7.23889
11
14.8071
21
7.24201
0
LINE
8
Black
10
14.8071
20
7.24201
11
14.8125
21
7.24653
0
LINE
8
Black
10
14.8125
20
7.24653
11
14.8264
21
7.2516
0
LINE
8
Black
10
14.8264
20
7.2516
11
14.8397
21
7.25819
0
LINE
8
Black
10
14.8397
20
7.25819
11
14.8467
21
7.25897
0
LINE
8
Black
10
14.8467
20
7.25897
11
14.8533
21
7.26138
0
LINE
8
Black
10
14.8533
20
7.26138
11
14.8681
21
7.26138
0
LINE
8
Black
10
14.8681
20
7.26138
11
14.8828
21
7.26303
0
LINE
8
Black
10
14.8828
20
7.26303
11
14.8897
21
7.26138
0
LINE
8
Black
10
14.8897
20
7.26138
11
14.8967
21
7.26138
0
LINE
8
Black
10
14.8967
20
7.26138
11
14.9106
21
7.25631
0
LINE
8
Black
10
14.9106
20
7.25631
11
14.925
21
7.25282
0
LINE
8
Black
10
14.925
20
7.25282
11
15.1087
21
7.17259
0
LINE
8
Black
10
15.1087
20
7.17259
11
15.3747
21
7.11409
0
LINE
8
Black
10
15.3747
20
7.11409
11
15.6471
21
7.10839
0
LINE
8
Black
10
15.6471
20
7.10839
11
15.9153
21
7.15569
0
LINE
8
Black
10
15.9153
20
7.15569
11
16.1693
21
7.2542
0
LINE
8
Black
10
16.1693
20
7.2542
11
16.3993
21
7.40015
0
LINE
8
Black
10
16.3993
20
7.40015
11
16.4679
21
7.46552
0
LINE
8
Black
10
16.4679
20
7.46552
11
16.4712
21
7.46772
0
LINE
8
Black
10
16.4712
20
7.46772
11
16.4738
21
7.47076
0
LINE
8
Black
10
16.4738
20
7.47076
11
16.4892
21
7.47968
0
LINE
8
Black
10
16.4892
20
7.47968
11
16.5041
21
7.48955
0
LINE
8
Black
10
16.5041
20
7.48955
11
16.508
21
7.49048
0
LINE
8
Black
10
16.508
20
7.49048
11
16.5114
21
7.49246
0
LINE
8
Black
10
16.5114
20
7.49246
11
16.529
21
7.49556
0
LINE
8
Black
10
16.529
20
7.49556
11
16.5463
21
7.49975
0
LINE
8
Black
10
16.5463
20
7.49975
11
16.5502
21
7.49931
0
LINE
8
Black
10
16.5502
20
7.49931
11
16.5541
21
7.5
0
LINE
8
Black
10
16.5541
20
7.5
11
17.0796
21
7.5
0
LINE
8
Black
10
17.0796
20
7.5
11
17.0887
21
7.4984
0
LINE
8
Black
10
17.0887
20
7.4984
11
17.0979
21
7.49866
0
LINE
8
Black
10
17.0979
20
7.49866
11
17.1099
21
7.49466
0
LINE
8
Black
10
17.1099
20
7.49466
11
17.1224
21
7.49246
0
LINE
8
Black
10
17.1224
20
7.49246
11
17.1303
21
7.48786
0
LINE
8
Black
10
17.1303
20
7.48786
11
17.1391
21
7.48495
0
LINE
8
Black
10
17.1391
20
7.48495
11
17.149
21
7.47709
0
LINE
8
Black
10
17.149
20
7.47709
11
17.1599
21
7.47076
0
LINE
8
Black
10
17.1599
20
7.47076
11
17.1659
21
7.46371
0
LINE
8
Black
10
17.1659
20
7.46371
11
17.1731
21
7.45799
0
LINE
8
Black
10
17.1731
20
7.45799
11
17.1797
21
7.4472
0
LINE
8
Black
10
17.1797
20
7.4472
11
17.1879
21
7.4375
0
LINE
8
Black
10
17.1879
20
7.4375
11
17.191
21
7.42885
0
LINE
8
Black
10
17.191
20
7.42885
11
17.1958
21
7.42101
0
LINE
8
Black
10
17.1958
20
7.42101
11
17.2051
21
7.39766
0
LINE
8
Black
10
17.2051
20
7.39766
11
17.46
21
7.00203
0
LINE
8
Black
10
17.46
20
7.00203
11
17.787
21
6.66346
0
LINE
8
Black
10
17.787
20
6.66346
11
18.1735
21
6.39485
0
LINE
8
Black
10
18.1735
20
6.39485
11
18.6048
21
6.20642
0
LINE
8
Black
10
18.6048
20
6.20642
11
19.0645
21
6.10535
0
LINE
8
Black
10
19.0645
20
6.10535
11
19.535
21
6.09549
0
LINE
8
Black
10
19.535
20
6.09549
11
19.9985
21
6.17722
0
LINE
8
Black
10
19.9985
20
6.17722
11
20.4373
21
6.34743
0
LINE
8
Black
10
20.4373
20
6.34743
11
20.8347
21
6.59962
0
LINE
8
Black
10
20.8347
20
6.59962
11
21.1756
21
6.9242
0
LINE
8
Black
10
21.1756
20
6.9242
11
21.4193
21
7.26965
0
LINE
8
Black
10
21.4193
20
7.26965
11
21.4346
21
7.28487
0
LINE
8
Black
10
21.4346
20
7.28487
11
21.4497
21
7.29999
0
LINE
8
Black
10
21.4497
20
7.29999
11
21.4499
21
7.30008
0
LINE
8
Black
10
21.4499
20
7.30008
11
21.4501
21
7.30024
0
LINE
8
Black
10
21.4501
20
7.30024
11
21.4696
21
7.30927
0
LINE
8
Black
10
21.4696
20
7.30927
11
21.4891
21
7.31834
0
LINE
8
Black
10
21.4891
20
7.31834
11
21.4893
21
7.31836
0
LINE
8
Black
10
21.4893
20
7.31836
11
21.4895
21
7.31845
0
LINE
8
Black
10
21.4895
20
7.31845
11
21.5107
21
7.32023
0
LINE
8
Black
10
21.5107
20
7.32023
11
21.5323
21
7.32212
0
LINE
8
Black
10
21.5323
20
7.32212
11
21.5325
21
7.32206
0
LINE
8
Black
10
21.5325
20
7.32206
11
21.5327
21
7.32208
0
LINE
8
Black
10
21.5327
20
7.32208
11
21.5533
21
7.31649
0
LINE
8
Black
10
21.5533
20
7.31649
11
21.5742
21
7.31088
0
LINE
8
Black
10
21.5742
20
7.31088
11
21.5744
21
7.31076
0
LINE
8
Black
10
21.5744
20
7.31076
11
21.5746
21
7.3107
0
LINE
8
Black
10
21.5746
20
7.3107
11
21.5921
21
7.29837
0
LINE
8
Black
10
21.5921
20
7.29837
11
21.6098
21
7.28598
0
LINE
8
Black
10
21.6098
20
7.28598
11
22.2134
21
6.6824
0
LINE
8
Black
10
22.2134
20
6.6824
11
22.2165
21
6.67789
0
LINE
8
Black
10
22.2165
20
6.67789
11
22.2208
21
6.67436
0
LINE
8
Black
10
22.2208
20
6.67436
11
22.2289
21
6.66021
0
LINE
8
Black
10
22.2289
20
6.66021
11
22.2383
21
6.64684
0
LINE
8
Black
10
22.2383
20
6.64684
11
22.2397
21
6.64153
0
LINE
8
Black
10
22.2397
20
6.64153
11
22.2425
21
6.63676
0
LINE
8
Black
10
22.2425
20
6.63676
11
22.2453
21
6.62068
0
LINE
8
Black
10
22.2453
20
6.62068
11
22.2495
21
6.6049
0
LINE
8
Black
10
22.2495
20
6.6049
11
22.249
21
6.59942
0
LINE
8
Black
10
22.249
20
6.59942
11
22.25
21
6.59401
0
LINE
8
Black
10
22.25
20
6.59401
11
22.25
21
4.43746
0
LINE
8
Black
10
22.25
20
4.43746
11
22.2489
21
4.4314
0
LINE
8
Black
10
22.2489
20
4.4314
11
22.2494
21
4.42526
0
LINE
8
Black
10
22.2494
20
4.42526
11
22.2452
21
4.41015
0
LINE
8
Black
10
22.2452
20
4.41015
11
22.2425
21
4.3947
0
LINE
8
Black
10
22.2425
20
4.3947
11
22.2394
21
4.38937
0
LINE
8
Black
10
22.2394
20
4.38937
11
22.2377
21
4.38345
0
LINE
8
Black
10
22.2377
20
4.38345
11
22.2286
21
4.37069
0
LINE
8
Black
10
22.2286
20
4.37069
11
22.2208
21
4.35711
0
LINE
8
Black
10
22.2208
20
4.35711
11
22.216
21
4.35315
0
LINE
8
Black
10
22.216
20
4.35315
11
22.2125
21
4.34815
0
LINE
8
Black
10
22.2125
20
4.34815
11
22.1808
21
4.31715
0
LINE
8
Black
10
22.1808
20
4.31715
11
22.0269
21
4.0924
0
LINE
8
Black
10
22.0269
20
4.0924
11
21.9196
21
3.84202
0
LINE
8
Black
10
21.9196
20
3.84202
11
21.863
21
3.57558
0
LINE
8
Black
10
21.863
20
3.57558
11
21.8592
21
3.30321
0
LINE
8
Black
10
21.8592
20
3.30321
11
21.9083
21
3.03529
0
LINE
8
Black
10
21.9083
20
3.03529
11
22.0086
21
2.78202
0
LINE
8
Black
10
22.0086
20
2.78202
11
22.1562
21
2.55305
0
LINE
8
Black
10
22.1562
20
2.55305
11
22.3454
21
2.3571
0
LINE
8
Black
10
22.3454
20
2.3571
11
22.5691
21
2.20164
0
LINE
8
Black
10
22.5691
20
2.20164
11
22.8187
21
2.09258
0
LINE
8
Black
10
22.8187
20
2.09258
11
23.0847
21
2.03409
0
LINE
8
Black
10
23.0847
20
2.03409
11
23.3571
21
2.02839
0
LINE
8
Black
10
23.3571
20
2.02839
11
23.6253
21
2.07569
0
LINE
8
Black
10
23.6253
20
2.07569
11
23.8793
21
2.1742
0
LINE
8
Black
10
23.8793
20
2.1742
11
24.1093
21
2.32015
0
LINE
8
Black
10
24.1093
20
2.32015
11
24.3066
21
2.508
0
LINE
8
Black
10
24.3066
20
2.508
11
24.4636
21
2.73059
0
LINE
8
Black
10
24.4636
20
2.73059
11
24.5744
21
2.97944
0
LINE
8
Black
10
24.5744
20
2.97944
11
24.6345
21
3.24421
0
LINE
8
Black
10
24.6345
20
3.24421
11
24.6389
21
3.55707
0
LINE
8
Black
10
24.6389
20
3.55707
11
24.5862
21
3.82341
0
LINE
8
Black
10
24.5862
20
3.82341
11
24.4824
21
4.07526
0
LINE
8
Black
10
24.4824
20
4.07526
11
24.3316
21
4.30214
0
LINE
8
Black
10
24.3316
20
4.30214
11
24.2863
21
4.34776
0
LINE
8
Black
10
24.2863
20
4.34776
11
24.2833
21
4.3521
0
LINE
8
Black
10
24.2833
20
4.3521
11
24.2792
21
4.3555
0
LINE
8
Black
10
24.2792
20
4.3555
11
24.271
21
4.36983
0
LINE
8
Black
10
24.271
20
4.36983
11
24.2615
21
4.38341
0
LINE
8
Black
10
24.2615
20
4.38341
11
24.2602
21
4.38852
0
LINE
8
Black
10
24.2602
20
4.38852
11
24.2575
21
4.39309
0
LINE
8
Black
10
24.2575
20
4.39309
11
24.2547
21
4.40938
0
LINE
8
Black
10
24.2547
20
4.40938
11
24.2504
21
4.42538
0
LINE
8
Black
10
24.2504
20
4.42538
11
24.2509
21
4.43064
0
LINE
8
Black
10
24.2509
20
4.43064
11
24.25
21
4.43584
0
LINE
8
Black
10
24.25
20
4.43584
11
24.25
21
7.05389
0
LINE
8
Black
10
24.25
20
7.05389
11
24.2405
21
7.15118
0
LINE
8
Black
10
24.2405
20
7.15118
11
24.2405
21
7.15184
0
LINE
8
Black
10
24.2405
20
7.15184
11
24.2403
21
7.15248
0
LINE
8
Black
10
24.2403
20
7.15248
11
24.2319
21
7.24908
0
LINE
8
Black
10
24.2319
20
7.24908
11
24.2039
21
7.34184
0
LINE
8
Black
10
24.2039
20
7.34184
11
24.2038
21
7.3425
0
LINE
8
Black
10
24.2038
20
7.3425
11
24.2035
21
7.3431
0
LINE
8
Black
10
24.2035
20
7.3431
11
24.1765
21
7.43619
0
LINE
8
Black
10
24.1765
20
7.43619
11
24.131
21
7.52173
0
LINE
8
Black
10
24.131
20
7.52173
11
24.1308
21
7.52236
0
LINE
8
Black
10
24.1308
20
7.52236
11
24.1304
21
7.52289
0
LINE
8
Black
10
24.1304
20
7.52289
11
24.0857
21
7.60898
0
LINE
8
Black
10
24.0857
20
7.60898
11
24.0245
21
7.68409
0
LINE
8
Black
10
24.0245
20
7.68409
11
24.0242
21
7.68467
0
LINE
8
Black
10
24.0242
20
7.68467
11
24.0237
21
7.68511
0
LINE
8
Black
10
24.0237
20
7.68511
11
23.9629
21
7.7612
0
LINE
8
Black
10
23.9629
20
7.7612
11
23.9594
21
7.76478
0
LINE
8
Black
10
23.9594
20
7.76478
11
23.9593
21
7.76495
0
LINE
8
Black
10
23.9593
20
7.76495
11
23.9591
21
7.76508
0
LINE
8
Black
10
23.9591
20
7.76508
11
23.9568
21
7.76744
0
LINE
8
Black
10
23.9568
20
7.76744
11
22.5214
21
9.20278
0
LINE
8
Black
10
22.5214
20
9.20278
11
22.4458
21
9.26487
0
LINE
8
Black
10
22.4458
20
9.26487
11
22.4454
21
9.26537
0
LINE
8
Black
10
22.4454
20
9.26537
11
22.4448
21
9.2657
0
LINE
8
Black
10
22.4448
20
9.2657
11
22.3706
21
9.328
0
LINE
8
Black
10
22.3706
20
9.328
11
22.2852
21
9.3738
0
LINE
8
Black
10
22.2852
20
9.3738
11
22.2847
21
9.37421
0
LINE
8
Black
10
22.2847
20
9.37421
11
22.284
21
9.37442
0
LINE
8
Black
10
22.284
20
9.37442
11
22.1991
21
9.42112
0
LINE
8
Black
10
22.1991
20
9.42112
11
22.1065
21
9.44944
0
LINE
8
Black
10
22.1065
20
9.44944
11
22.1059
21
9.44974
0
LINE
8
Black
10
22.1059
20
9.44974
11
22.1052
21
9.44983
0
LINE
8
Black
10
22.1052
20
9.44983
11
22.0128
21
9.47915
0
LINE
8
Black
10
22.0128
20
9.47915
11
21.9164
21
9.48894
0
LINE
8
Black
10
21.9164
20
9.48894
11
21.9157
21
9.48912
0
LINE
8
Black
10
21.9157
20
9.48912
11
21.9151
21
9.48908
0
LINE
8
Black
10
21.9151
20
9.48908
11
21.8183
21
9.49994
0
LINE
8
Black
10
21.8183
20
9.49994
11
21.8133
21
9.49997
0
LINE
8
Black
10
21.8133
20
9.49997
11
21.8131
21
9.50001
0
LINE
8
Black
10
21.8131
20
9.50001
11
21.8129
21
9.49998
0
LINE
8
Black
10
21.8129
20
9.49998
11
21.8096
21
9.5
0
LINE
8
Black
10
21.8096
20
9.5
11
21.6175
21
9.5
0
LINE
8
Black
10
21.6175
20
9.5
11
21.6093
21
9.50145
0
LINE
8
Black
10
21.6093
20
9.50145
11
21.601
21
9.5011
0
LINE
8
Black
10
21.601
20
9.5011
11
21.5881
21
9.50519
0
LINE
8
Black
10
21.5881
20
9.50519
11
21.5747
21
9.50754
0
LINE
8
Black
10
21.5747
20
9.50754
11
21.5675
21
9.51171
0
LINE
8
Black
10
21.5675
20
9.51171
11
21.5596
21
9.51422
0
LINE
8
Black
10
21.5596
20
9.51422
11
21.5489
21
9.52248
0
LINE
8
Black
10
21.5489
20
9.52248
11
21.5371
21
9.52924
0
LINE
8
Black
10
21.5371
20
9.52924
11
21.5318
21
9.53563
0
LINE
8
Black
10
21.5318
20
9.53563
11
21.5252
21
9.54071
0
LINE
8
Black
10
21.5252
20
9.54071
11
21.5179
21
9.55214
0
LINE
8
Black
10
21.5179
20
9.55214
11
21.5092
21
9.5625
0
LINE
8
Black
10
21.5092
20
9.5625
11
21.5064
21
9.57033
0
LINE
8
Black
10
21.5064
20
9.57033
11
21.5019
21
9.57737
0
LINE
8
Black
10
21.5019
20
9.57737
11
21.4793
21
9.63219
0
LINE
8
Black
10
21.4793
20
9.63219
11
21.2189
21
10.0242
0
LINE
8
Black
10
21.2189
20
10.0242
11
20.8872
21
10.3582
0
LINE
8
Black
10
20.8872
20
10.3582
11
20.497
21
10.6214
0
LINE
8
Black
10
20.497
20
10.6214
11
20.0631
21
10.8038
0
LINE
8
Black
10
20.0631
20
10.8038
11
19.6021
21
10.8984
0
LINE
8
Black
10
19.6021
20
10.8984
11
19.1314
21
10.9017
0
LINE
8
Black
10
19.1314
20
10.9017
11
18.6691
21
10.8135
0
LINE
8
Black
10
18.6691
20
10.8135
11
18.2327
21
10.6372
0
LINE
8
Black
10
18.2327
20
10.6372
11
17.8389
21
10.3795
0
LINE
8
Black
10
17.8389
20
10.3795
11
17.5026
21
10.0502
0
LINE
8
Black
10
17.5026
20
10.0502
11
17.2367
21
9.66181
0
LINE
8
Black
10
17.2367
20
9.66181
11
17.1998
21
9.57576
0
LINE
8
Black
10
17.1998
20
9.57576
11
17.1957
21
9.56951
0
LINE
8
Black
10
17.1957
20
9.56951
11
17.1932
21
9.5625
0
LINE
8
Black
10
17.1932
20
9.5625
11
17.1839
21
9.55148
0
LINE
8
Black
10
17.1839
20
9.55148
11
17.176
21
9.53943
0
LINE
8
Black
10
17.176
20
9.53943
11
17.1701
21
9.53496
0
LINE
8
Black
10
17.1701
20
9.53496
11
17.1653
21
9.52924
0
LINE
8
Black
10
17.1653
20
9.52924
11
17.1528
21
9.52205
0
LINE
8
Black
10
17.1528
20
9.52205
11
17.1413
21
9.51343
0
LINE
8
Black
10
17.1413
20
9.51343
11
17.1341
21
9.51127
0
LINE
8
Black
10
17.1341
20
9.51127
11
17.1277
21
9.50754
0
LINE
8
Black
10
17.1277
20
9.50754
11
17.1135
21
9.50504
0
LINE
8
Black
10
17.1135
20
9.50504
11
17.0997
21
9.50088
0
LINE
8
Black
10
17.0997
20
9.50088
11
17.0923
21
9.5013
0
LINE
8
Black
10
17.0923
20
9.5013
11
17.0849
21
9.5
0
LINE
8
Black
10
17.0849
20
9.5
11
16.5566
21
9.5
0
LINE
8
Black
10
16.5566
20
9.5
11
16.551
21
9.50099
0
LINE
8
Black
10
16.551
20
9.50099
11
16.5453
21
9.50052
0
LINE
8
Black
10
16.5453
20
9.50052
11
16.5297
21
9.50474
0
LINE
8
Black
10
16.5297
20
9.50474
11
16.5139
21
9.50754
0
LINE
8
Black
10
16.5139
20
9.50754
11
16.5089
21
9.5104
0
LINE
8
Black
10
16.5089
20
9.5104
11
16.5034
21
9.5119
0
LINE
8
Black
10
16.5034
20
9.5119
11
16.4902
21
9.52119
0
LINE
8
Black
10
16.4902
20
9.52119
11
16.4763
21
9.52924
0
LINE
8
Black
10
16.4763
20
9.52924
11
16.4726
21
9.53362
0
LINE
8
Black
10
16.4726
20
9.53362
11
16.4679
21
9.53692
0
LINE
8
Black
10
16.4679
20
9.53692
11
16.4297
21
9.57543
0
LINE
8
Black
10
16.4297
20
9.57543
11
16.2038
21
9.72775
0
LINE
8
Black
10
16.2038
20
9.72775
11
15.9527
21
9.83331
0
LINE
8
Black
10
15.9527
20
9.83331
11
15.6859
21
9.88808
0
LINE
8
Black
10
15.6859
20
9.88808
11
15.4135
21
9.88998
0
LINE
8
Black
10
15.4135
20
9.88998
11
15.1459
21
9.83894
0
LINE
8
Black
10
15.1459
20
9.83894
11
15.0565
21
9.80282
0
LINE
8
Black
10
15.0565
20
9.80282
11
15.0385
21
9.79898
0
LINE
8
Black
10
15.0385
20
9.79898
11
15.0206
21
9.7942
0
LINE
8
Black
10
15.0206
20
9.7942
11
15.0173
21
9.79448
0
LINE
8
Black
10
15.0173
20
9.79448
11
15.0141
21
9.7938
0
LINE
8
Black
10
15.0141
20
9.7938
11
14.9958
21
9.79637
0
LINE
8
Black
10
14.9958
20
9.79637
11
14.9774
21
9.79798
0
LINE
8
Black
10
14.9774
20
9.79798
11
14.9744
21
9.79938
0
LINE
8
Black
10
14.9744
20
9.79938
11
14.9711
21
9.79984
0
LINE
8
Black
10
14.9711
20
9.79984
11
14.9548
21
9.80851
0
LINE
8
Black
10
14.9548
20
9.80851
11
14.938
21
9.81633
0
LINE
8
Black
10
14.938
20
9.81633
11
14.9357
21
9.81867
0
LINE
8
Black
10
14.9357
20
9.81867
11
14.9328
21
9.82022
0
LINE
8
Black
10
14.9328
20
9.82022
11
14.9204
21
9.83396
0
LINE
8
Black
10
14.9204
20
9.83396
11
14.9073
21
9.84702
0
LINE
8
Black
10
14.9073
20
9.84702
11
14.9059
21
9.85002
0
LINE
8
Black
10
14.9059
20
9.85002
11
14.9037
21
9.85248
0
LINE
8
Black
10
14.9037
20
9.85248
11
14.8968
21
9.86961
0
LINE
8
Black
10
14.8968
20
9.86961
11
14.889
21
9.88637
0
LINE
8
Black
10
14.889
20
9.88637
11
14.8887
21
9.88967
0
LINE
8
Black
10
14.8887
20
9.88967
11
14.8874
21
9.89273
0
LINE
8
Black
10
14.8874
20
9.89273
11
14.8868
21
9.9112
0
LINE
8
Black
10
14.8868
20
9.9112
11
14.8852
21
9.92962
0
LINE
8
Black
10
14.8852
20
9.92962
11
14.886
21
9.93281
0
LINE
8
Black
10
14.886
20
9.93281
11
14.8859
21
9.93612
0
LINE
8
Black
10
14.8859
20
9.93612
11
14.8916
21
9.95369
0
LINE
8
Black
10
14.8916
20
9.95369
11
14.8964
21
9.97155
0
LINE
8
Black
10
14.8964
20
9.97155
11
14.8983
21
9.97426
0
LINE
8
Black
10
14.8983
20
9.97426
11
14.8993
21
9.97741
0
LINE
8
Black
10
14.8993
20
9.97741
11
14.9107
21
9.99198
0
LINE
8
Black
10
14.9107
20
9.99198
11
14.9213
21
10.0071
0
LINE
8
Black
10
14.9213
20
10.0071
11
15.5132
21
10.599
0
LINE
8
Black
10
15.5132
20
10.599
11
15.5308
21
10.6113
0
LINE
8
Black
10
15.5308
20
10.6113
11
15.5484
21
10.6237
0
LINE
8
Black
10
15.5484
20
10.6237
11
15.5486
21
10.6237
0
LINE
8
Black
10
15.5486
20
10.6237
11
15.5487
21
10.6239
0
LINE
8
Black
10
15.5487
20
10.6239
11
15.5696
21
10.6295
0
LINE
8
Black
10
15.5696
20
10.6295
11
15.5902
21
10.6351
0
LINE
8
Black
10
15.5902
20
10.6351
11
15.5905
21
10.6351
0
LINE
8
Black
10
15.5905
20
10.6351
11
15.5907
21
10.6351
0
LINE
8
Black
10
15.5907
20
10.6351
11
15.612
21
10.6332
0
LINE
8
Black
10
15.612
20
10.6332
11
15.6335
21
10.6314
0
LINE
8
Black
10
15.6335
20
10.6314
11
15.6337
21
10.6313
0
LINE
8
Black
10
15.6337
20
10.6313
11
15.6339
21
10.6313
0
LINE
8
Black
10
15.6339
20
10.6313
11
15.6535
21
10.6222
0
LINE
8
Black
10
15.6535
20
10.6222
11
15.6729
21
10.6132
0
LINE
8
Black
10
15.6729
20
10.6132
11
15.8191
21
10.5116
0
LINE
8
Black
10
15.8191
20
10.5116
11
16.0687
21
10.4026
0
LINE
8
Black
10
16.0687
20
10.4026
11
16.3347
21
10.3441
0
LINE
8
Black
10
16.3347
20
10.3441
11
16.6071
21
10.3384
0
LINE
8
Black
10
16.6071
20
10.3384
11
16.8753
21
10.3857
0
LINE
8
Black
10
16.8753
20
10.3857
11
17.1293
21
10.4842
0
LINE
8
Black
10
17.1293
20
10.4842
11
17.3593
21
10.6302
0
LINE
8
Black
10
17.3593
20
10.6302
11
17.5566
21
10.818
0
LINE
8
Black
10
17.5566
20
10.818
11
17.7136
21
11.0406
0
LINE
8
Black
10
17.7136
20
11.0406
11
17.8244
21
11.2894
0
LINE
8
Black
10
17.8244
20
11.2894
11
17.8845
21
11.5542
0
LINE
8
Black
10
17.8845
20
11.5542
11
17.8889
21
11.8671
0
LINE
8
Black
10
17.8889
20
11.8671
11
17.8362
21
12.1334
0
LINE
8
Black
10
17.8362
20
12.1334
11
17.7324
21
12.3853
0
LINE
8
Black
10
17.7324
20
12.3853
11
17.5816
21
12.6121
0
LINE
8
Black
10
17.5816
20
12.6121
11
17.3897
21
12.8054
0
LINE
8
Black
10
17.3897
20
12.8054
11
17.2547
21
12.8965
0
LINE
8
Black
10
17.2547
20
12.8965
11
17.244
21
12.9068
0
LINE
8
Black
10
17.244
20
12.9068
11
17.2323
21
12.9158
0
LINE
8
Black
10
17.2323
20
12.9158
11
17.2285
21
12.9217
0
LINE
8
Black
10
17.2285
20
12.9217
11
17.2235
21
12.9266
0
LINE
8
Black
10
17.2235
20
12.9266
11
17.217
21
12.9399
0
LINE
8
Black
10
17.217
20
12.9399
11
17.209
21
12.9525
0
LINE
8
Black
10
17.209
20
12.9525
11
17.2075
21
12.9593
0
LINE
8
Black
10
17.2075
20
12.9593
11
17.2044
21
12.9656
0
LINE
8
Black
10
17.2044
20
12.9656
11
17.2029
21
12.9804
0
LINE
8
Black
10
17.2029
20
12.9804
11
17.1997
21
12.9949
0
LINE
8
Black
10
17.1997
20
12.9949
11
17.2006
21
13.0018
0
LINE
8
Black
10
17.2006
20
13.0018
11
17.1999
21
13.0088
0
LINE
8
Black
10
17.1999
20
13.0088
11
17.2035
21
13.0232
0
LINE
8
Black
10
17.2035
20
13.0232
11
17.2055
21
13.0379
0
LINE
8
Black
10
17.2055
20
13.0379
11
17.2087
21
13.0441
0
LINE
8
Black
10
17.2087
20
13.0441
11
17.2104
21
13.0509
0
LINE
8
Black
10
17.2104
20
13.0509
11
17.2187
21
13.0632
0
LINE
8
Black
10
17.2187
20
13.0632
11
17.2256
21
13.0764
0
LINE
8
Black
10
17.2256
20
13.0764
11
17.2308
21
13.0811
0
LINE
8
Black
10
17.2308
20
13.0811
11
17.2347
21
13.0869
0
LINE
8
Black
10
17.2347
20
13.0869
11
17.2467
21
13.0956
0
LINE
8
Black
10
17.2467
20
13.0956
11
17.2576
21
13.1056
0
LINE
8
Black
10
17.2576
20
13.1056
11
17.3593
21
13.1702
0
LINE
8
Black
10
17.3593
20
13.1702
11
17.4279
21
13.2355
0
LINE
8
Black
10
17.4279
20
13.2355
11
17.4312
21
13.2377
0
LINE
8
Black
10
17.4312
20
13.2377
11
17.4338
21
13.2408
0
LINE
8
Black
10
17.4338
20
13.2408
11
17.4492
21
13.2497
0
LINE
8
Black
10
17.4492
20
13.2497
11
17.4641
21
13.2595
0
LINE
8
Black
10
17.4641
20
13.2595
11
17.468
21
13.2605
0
LINE
8
Black
10
17.468
20
13.2605
11
17.4714
21
13.2625
0
LINE
8
Black
10
17.4714
20
13.2625
11
17.489
21
13.2656
0
LINE
8
Black
10
17.489
20
13.2656
11
17.5063
21
13.2698
0
LINE
8
Black
10
17.5063
20
13.2698
11
17.5102
21
13.2693
0
LINE
8
Black
10
17.5102
20
13.2693
11
17.5141
21
13.27
0
LINE
8
Black
10
17.5141
20
13.27
11
19.264
21
13.27
0
LINE
8
Black
10
19.264
20
13.27
11
19.2694
21
13.269
0
LINE
8
Black
10
19.2694
20
13.269
11
19.2749
21
13.2695
0
LINE
8
Black
10
19.2749
20
13.2695
11
19.2907
21
13.2653
0
LINE
8
Black
10
19.2907
20
13.2653
11
19.3068
21
13.2625
0
LINE
8
Black
10
19.3068
20
13.2625
11
19.3115
21
13.2597
0
LINE
8
Black
10
19.3115
20
13.2597
11
19.3168
21
13.2583
0
LINE
8
Black
10
19.3168
20
13.2583
11
19.3302
21
13.2489
0
LINE
8
Black
10
19.3302
20
13.2489
11
19.3444
21
13.2408
0
LINE
8
Black
10
19.3444
20
13.2408
11
19.3479
21
13.2365
0
LINE
8
Black
10
19.3479
20
13.2365
11
19.3524
21
13.2334
0
LINE
8
Black
10
19.3524
20
13.2334
11
19.7086
21
12.8772
0
LINE
8
Black
10
19.7086
20
12.8772
11
19.7842
21
12.8151
0
LINE
8
Black
10
19.7842
20
12.8151
11
19.7846
21
12.8146
0
LINE
8
Black
10
19.7846
20
12.8146
11
19.7852
21
12.8143
0
LINE
8
Black
10
19.7852
20
12.8143
11
19.8594
21
12.752
0
LINE
8
Black
10
19.8594
20
12.752
11
19.9448
21
12.7062
0
LINE
8
Black
10
19.9448
20
12.7062
11
19.9453
21
12.7058
0
LINE
8
Black
10
19.9453
20
12.7058
11
19.946
21
12.7056
0
LINE
8
Black
10
19.946
20
12.7056
11
20.0309
21
12.6589
0
LINE
8
Black
10
20.0309
20
12.6589
11
20.1235
21
12.6306
0
LINE
8
Black
10
20.1235
20
12.6306
11
20.1241
21
12.6303
0
LINE
8
Black
10
20.1241
20
12.6303
11
20.1248
21
12.6302
0
LINE
8
Black
10
20.1248
20
12.6302
11
20.2172
21
12.6008
0
LINE
8
Black
10
20.2172
20
12.6008
11
20.3136
21
12.5911
0
LINE
8
Black
10
20.3136
20
12.5911
11
20.3142
21
12.5909
0
LINE
8
Black
10
20.3142
20
12.5909
11
20.3149
21
12.5909
0
LINE
8
Black
10
20.3149
20
12.5909
11
20.4117
21
12.5801
0
LINE
8
Black
10
20.4117
20
12.5801
11
20.4167
21
12.58
0
LINE
8
Black
10
20.4167
20
12.58
11
20.4169
21
12.58
0
LINE
8
Black
10
20.4169
20
12.58
11
20.4171
21
12.58
0
LINE
8
Black
10
20.4171
20
12.58
11
20.4204
21
12.58
0
LINE
8
Black
10
20.4204
20
12.58
11
22.2316
21
12.58
0
LINE
8
Black
10
22.2316
20
12.58
11
22.2381
21
12.5789
0
LINE
8
Black
10
22.2381
20
12.5789
11
22.2447
21
12.5793
0
LINE
8
Black
10
22.2447
20
12.5793
11
22.2593
21
12.5751
0
LINE
8
Black
10
22.2593
20
12.5751
11
22.2744
21
12.5725
0
LINE
8
Black
10
22.2744
20
12.5725
11
22.2801
21
12.5692
0
LINE
8
Black
10
22.2801
20
12.5692
11
22.2864
21
12.5673
0
LINE
8
Black
10
22.2864
20
12.5673
11
22.2987
21
12.5584
0
LINE
8
Black
10
22.2987
20
12.5584
11
22.3119
21
12.5508
0
LINE
8
Black
10
22.3119
20
12.5508
11
22.3162
21
12.5457
0
LINE
8
Black
10
22.3162
20
12.5457
11
22.3215
21
12.5418
0
LINE
8
Black
10
22.3215
20
12.5418
11
22.3454
21
12.5171
0
LINE
8
Black
10
22.3454
20
12.5171
11
22.5691
21
12.3616
0
LINE
8
Black
10
22.5691
20
12.3616
11
22.8187
21
12.2526
0
LINE
8
Black
10
22.8187
20
12.2526
11
23.0847
21
12.1941
0
LINE
8
Black
10
23.0847
20
12.1941
11
23.3571
21
12.1884
0
LINE
8
Black
10
23.3571
20
12.1884
11
23.6253
21
12.2357
0
LINE
8
Black
10
23.6253
20
12.2357
11
23.8793
21
12.3342
0
LINE
8
Black
10
23.8793
20
12.3342
11
24.1093
21
12.4802
0
LINE
8
Black
10
24.1093
20
12.4802
11
24.3066
21
12.668
0
LINE
8
Black
10
24.3066
20
12.668
11
24.4636
21
12.8906
0
LINE
8
Black
10
24.4636
20
12.8906
11
24.5744
21
13.1394
0
LINE
8
Black
10
24.5744
20
13.1394
11
24.6345
21
13.4042
0
LINE
8
Black
10
24.6345
20
13.4042
11
24.6389
21
13.7171
0
LINE
8
Black
10
24.6389
20
13.7171
11
24.5862
21
13.9834
0
LINE
8
Black
10
24.5862
20
13.9834
11
24.4824
21
14.2353
0
LINE
8
Black
10
24.4824
20
14.2353
11
24.3316
21
14.4621
0
LINE
8
Black
10
24.3316
20
14.4621
11
24.1397
21
14.6554
0
LINE
8
Black
10
24.1397
20
14.6554
11
23.9138
21
14.8077
0
LINE
8
Black
10
23.9138
20
14.8077
11
23.6627
21
14.9133
0
LINE
8
Black
10
23.6627
20
14.9133
11
23.3959
21
14.9681
0
LINE
8
Black
10
23.3959
20
14.9681
11
23.1235
21
14.97
0
LINE
8
Black
10
23.1235
20
14.97
11
22.8559
21
14.9189
0
LINE
8
Black
10
22.8559
20
14.9189
11
22.6034
21
14.8169
0
LINE
8
Black
10
22.6034
20
14.8169
11
22.3754
21
14.6677
0
LINE
8
Black
10
22.3754
20
14.6677
11
22.3223
21
14.6157
0
LINE
8
Black
10
22.3223
20
14.6157
11
22.3183
21
14.613
0
LINE
8
Black
10
22.3183
20
14.613
11
22.3152
21
14.6092
0
LINE
8
Black
10
22.3152
20
14.6092
11
22.3005
21
14.6008
0
LINE
8
Black
10
22.3005
20
14.6008
11
22.2865
21
14.5912
0
LINE
8
Black
10
22.2865
20
14.5912
11
22.2818
21
14.59
0
LINE
8
Black
10
22.2818
20
14.59
11
22.2776
21
14.5875
0
LINE
8
Black
10
22.2776
20
14.5875
11
22.2609
21
14.5846
0
LINE
8
Black
10
22.2609
20
14.5846
11
22.2444
21
14.5804
0
LINE
8
Black
10
22.2444
20
14.5804
11
22.2396
21
14.5808
0
LINE
8
Black
10
22.2396
20
14.5808
11
22.2348
21
14.58
0
LINE
8
Black
10
22.2348
20
14.58
11
20.886
21
14.58
0
LINE
8
Black
10
20.886
20
14.58
11
20.8806
21
14.581
0
LINE
8
Black
10
20.8806
20
14.581
11
20.8751
21
14.5805
0
LINE
8
Black
10
20.8751
20
14.5805
11
20.8593
21
14.5847
0
LINE
8
Black
10
20.8593
20
14.5847
11
20.8432
21
14.5875
0
LINE
8
Black
10
20.8432
20
14.5875
11
20.8385
21
14.5903
0
LINE
8
Black
10
20.8385
20
14.5903
11
20.8332
21
14.5917
0
LINE
8
Black
10
20.8332
20
14.5917
11
20.8198
21
14.6011
0
LINE
8
Black
10
20.8198
20
14.6011
11
20.8056
21
14.6092
0
LINE
8
Black
10
20.8056
20
14.6092
11
20.8021
21
14.6135
0
LINE
8
Black
10
20.8021
20
14.6135
11
20.7976
21
14.6166
0
LINE
8
Black
10
20.7976
20
14.6166
11
20.4414
21
14.9728
0
LINE
8
Black
10
20.4414
20
14.9728
11
20.3658
21
15.0349
0
LINE
8
Black
10
20.3658
20
15.0349
11
20.3654
21
15.0354
0
LINE
8
Black
10
20.3654
20
15.0354
11
20.3648
21
15.0357
0
LINE
8
Black
10
20.3648
20
15.0357
11
20.2906
21
15.098
0
LINE
8
Black
10
20.2906
20
15.098
11
20.2052
21
15.1438
0
LINE
8
Black
10
20.2052
20
15.1438
11
20.2047
21
15.1442
0
LINE
8
Black
10
20.2047
20
15.1442
11
20.204
21
15.1444
0
LINE
8
Black
10
20.204
20
15.1444
11
20.1191
21
15.1911
0
LINE
8
Black
10
20.1191
20
15.1911
11
20.0265
21
15.2194
0
LINE
8
Black
10
20.0265
20
15.2194
11
20.0259
21
15.2197
0
LINE
8
Black
10
20.0259
20
15.2197
11
20.0252
21
15.2198
0
LINE
8
Black
10
20.0252
20
15.2198
11
19.9328
21
15.2492
0
LINE
8
Black
10
19.9328
20
15.2492
11
19.8364
21
15.2589
0
LINE
8
Black
10
19.8364
20
15.2589
11
19.8357
21
15.2591
0
LINE
8
Black
10
19.8357
20
15.2591
11
19.8351
21
15.2591
0
LINE
8
Black
10
19.8351
20
15.2591
11
19.7383
21
15.2699
0
LINE
8
Black
10
19.7383
20
15.2699
11
19.7333
21
15.27
0
LINE
8
Black
10
19.7333
20
15.27
11
19.7331
21
15.27
0
LINE
8
Black
10
19.7331
20
15.27
11
19.7329
21
15.27
0
LINE
8
Black
10
19.7329
20
15.27
11
19.7296
21
15.27
0
LINE
8
Black
10
19.7296
20
15.27
11
17.5166
21
15.27
0
LINE
8
Black
10
17.5166
20
15.27
11
17.511
21
15.271
0
LINE
8
Black
10
17.511
20
15.271
11
17.5053
21
15.2705
0
LINE
8
Black
10
17.5053
20
15.2705
11
17.4897
21
15.2747
0
LINE
8
Black
10
17.4897
20
15.2747
11
17.4739
21
15.2775
0
LINE
8
Black
10
17.4739
20
15.2775
11
17.4689
21
15.2804
0
LINE
8
Black
10
17.4689
20
15.2804
11
17.4634
21
15.2819
0
LINE
8
Black
10
17.4634
20
15.2819
11
17.4502
21
15.2912
0
LINE
8
Black
10
17.4502
20
15.2912
11
17.4363
21
15.2992
0
LINE
8
Black
10
17.4363
20
15.2992
11
17.4326
21
15.3036
0
LINE
8
Black
10
17.4326
20
15.3036
11
17.4279
21
15.3069
0
LINE
8
Black
10
17.4279
20
15.3069
11
17.3897
21
15.3454
0
LINE
8
Black
10
17.3897
20
15.3454
11
17.1638
21
15.4977
0
LINE
8
Black
10
17.1638
20
15.4977
11
16.9127
21
15.6033
0
LINE
8
Black
10
16.9127
20
15.6033
11
16.6459
21
15.6581
0
LINE
8
Black
10
16.6459
20
15.6581
11
16.3735
21
15.66
0
LINE
8
Black
10
16.3735
20
15.66
11
16.1059
21
15.6089
0
LINE
8
Black
10
16.1059
20
15.6089
11
15.8534
21
15.5069
0
LINE
8
Black
10
15.8534
20
15.5069
11
15.6254
21
15.3577
0
LINE
8
Black
10
15.6254
20
15.3577
11
15.4308
21
15.1672
0
LINE
8
Black
10
15.4308
20
15.1672
11
15.2769
21
14.9424
0
LINE
8
Black
10
15.2769
20
14.9424
11
15.1696
21
14.692
0
LINE
8
Black
10
15.1696
20
14.692
11
15.113
21
14.4256
0
LINE
8
Black
10
15.113
20
14.4256
11
15.1092
21
14.1532
0
LINE
8
Black
10
15.1092
20
14.1532
11
15.1583
21
13.8853
0
LINE
8
Black
10
15.1583
20
13.8853
11
15.2586
21
13.632
0
LINE
8
Black
10
15.2586
20
13.632
11
15.4062
21
13.403
0
LINE
8
Black
10
15.4062
20
13.403
11
15.5954
21
13.2071
0
LINE
8
Black
10
15.5954
20
13.2071
11
15.7463
21
13.1022
0
LINE
8
Black
10
15.7463
20
13.1022
11
15.7556
21
13.093
0
LINE
8
Black
10
15.7556
20
13.093
11
15.7661
21
13.0851
0
LINE
8
Black
10
15.7661
20
13.0851
11
15.7709
21
13.0778
0
LINE
8
Black
10
15.7709
20
13.0778
11
15.7771
21
13.0716
0
LINE
8
Black
10
15.7771
20
13.0716
11
15.7827
21
13.0598
0
LINE
8
Black
10
15.7827
20
13.0598
11
15.7899
21
13.0488
0
LINE
8
Black
10
15.7899
20
13.0488
11
15.7919
21
13.0403
0
LINE
8
Black
10
15.7919
20
13.0403
11
15.7956
21
13.0323
0
LINE
8
Black
10
15.7956
20
13.0323
11
15.7968
21
13.0193
0
LINE
8
Black
10
15.7968
20
13.0193
11
15.7998
21
13.0065
0
LINE
8
Black
10
15.7998
20
13.0065
11
15.7988
21
12.9978
0
LINE
8
Black
10
15.7988
20
12.9978
11
15.7996
21
12.9891
0
LINE
8
Black
10
15.7996
20
12.9891
11
15.7962
21
12.9764
0
LINE
8
Black
10
15.7962
20
12.9764
11
15.7947
21
12.9634
0
LINE
8
Black
10
15.7947
20
12.9634
11
15.7907
21
12.9556
0
LINE
8
Black
10
15.7907
20
12.9556
11
15.7885
21
12.9471
0
LINE
8
Black
10
15.7885
20
12.9471
11
15.781
21
12.9364
0
LINE
8
Black
10
15.781
20
12.9364
11
15.7751
21
12.9247
0
LINE
8
Black
10
15.7751
20
12.9247
11
15.7687
21
12.9187
0
LINE
8
Black
10
15.7687
20
12.9187
11
15.7637
21
12.9115
0
LINE
8
Black
10
15.7637
20
12.9115
11
15.753
21
12.9039
0
LINE
8
Black
10
15.753
20
12.9039
11
15.7434
21
12.895
0
LINE
8
Black
10
15.7434
20
12.895
11
15.6254
21
12.8177
0
LINE
8
Black
10
15.6254
20
12.8177
11
15.5723
21
12.7657
0
LINE
8
Black
10
15.5723
20
12.7657
11
15.5683
21
12.763
0
LINE
8
Black
10
15.5683
20
12.763
11
15.5652
21
12.7592
0
LINE
8
Black
10
15.5652
20
12.7592
11
15.5505
21
12.7508
0
LINE
8
Black
10
15.5505
20
12.7508
11
15.5365
21
12.7412
0
LINE
8
Black
10
15.5365
20
12.7412
11
15.5318
21
12.74
0
LINE
8
Black
10
15.5318
20
12.74
11
15.5276
21
12.7375
0
LINE
8
Black
10
15.5276
20
12.7375
11
15.5109
21
12.7346
0
LINE
8
Black
10
15.5109
20
12.7346
11
15.4944
21
12.7304
0
LINE
8
Black
10
15.4944
20
12.7304
11
15.4896
21
12.7308
0
LINE
8
Black
10
15.4896
20
12.7308
11
15.4848
21
12.73
0
LINE
8
Black
10
15.4848
20
12.73
11
15.2361
21
12.73
0
LINE
8
Black
10
15.2361
20
12.73
11
15.1388
21
12.7205
0
LINE
8
Black
10
15.1388
20
12.7205
11
15.1381
21
12.7205
0
LINE
8
Black
10
15.1381
20
12.7205
11
15.1375
21
12.7203
0
LINE
8
Black
10
15.1375
20
12.7203
11
15.0409
21
12.7119
0
LINE
8
Black
10
15.0409
20
12.7119
11
14.9482
21
12.6839
0
LINE
8
Black
10
14.9482
20
12.6839
11
14.9475
21
12.6838
0
LINE
8
Black
10
14.9475
20
12.6838
11
14.9469
21
12.6835
0
LINE
8
Black
10
14.9469
20
12.6835
11
14.8538
21
12.6565
0
LINE
8
Black
10
14.8538
20
12.6565
11
14.7683
21
12.611
0
LINE
8
Black
10
14.7683
20
12.611
11
14.7677
21
12.6108
0
LINE
8
Black
10
14.7677
20
12.6108
11
14.7671
21
12.6104
0
LINE
8
Black
10
14.7671
20
12.6104
11
14.681
21
12.5657
0
LINE
8
Black
10
14.681
20
12.5657
11
14.606
21
12.5045
0
LINE
8
Black
10
14.606
20
12.5045
11
14.6054
21
12.5042
0
LINE
8
Black
10
14.6054
20
12.5042
11
14.6049
21
12.5037
0
LINE
8
Black
10
14.6049
20
12.5037
11
14.5288
21
12.4429
0
LINE
8
Black
10
14.5288
20
12.4429
11
14.5252
21
12.4394
0
LINE
8
Black
10
14.5252
20
12.4394
11
14.525
21
12.4393
0
LINE
8
Black
10
14.525
20
12.4393
11
14.5249
21
12.4391
0
LINE
8
Black
10
14.5249
20
12.4391
11
14.5226
21
12.4368
0
LINE
8
Black
10
14.5226
20
12.4368
11
13.0884
21
11.0026
0
LINE
8
Black
10
13.0884
20
11.0026
11
13.0794
21
10.9963
0
LINE
8
Black
10
13.0794
20
10.9963
11
13.0717
21
10.9886
0
LINE
8
Black
10
13.0717
20
10.9886
11
13.0618
21
10.984
0
LINE
8
Black
10
13.0618
20
10.984
11
13.0528
21
10.9777
0
LINE
8
Black
10
13.0528
20
10.9777
11
13.0423
21
10.9749
0
LINE
8
Black
10
13.0423
20
10.9749
11
13.0324
21
10.9703
0
LINE
8
Black
10
13.0324
20
10.9703
11
13.0215
21
10.9693
0
LINE
8
Black
10
13.0215
20
10.9693
11
13.0109
21
10.9665
0
LINE
8
Black
10
13.0109
20
10.9665
11
13
21
10.9674
0
LINE
8
Black
10
13
20
10.9674
11
12.9891
21
10.9665
0
LINE
8
Black
10
12.9891
20
10.9665
11
12.9785
21
10.9693
0
LINE
8
Black
10
12.9785
20
10.9693
11
12.9676
21
10.9702
0
LINE
8
Black
10
12.9676
20
10.9702
11
12.9577
21
10.9749
0
LINE
8
Black
10
12.9577
20
10.9749
11
12.9472
21
10.9777
0
LINE
8
Black
10
12.9472
20
10.9777
11
12.9382
21
10.984
0
LINE
8
Black
10
12.9382
20
10.984
11
12.9283
21
10.9886
0
LINE
8
Black
10
12.9283
20
10.9886
11
12.9206
21
10.9963
0
LINE
8
Black
10
12.9206
20
10.9963
11
12.9116
21
11.0026
0
LINE
8
Black
10
12.9116
20
11.0026
11
11.4814
21
12.4328
0
LINE
8
Black
10
11.4814
20
12.4328
11
11.4058
21
12.4949
0
LINE
8
Black
10
11.4058
20
12.4949
11
11.4054
21
12.4954
0
LINE
8
Black
10
11.4054
20
12.4954
11
11.4048
21
12.4957
0
LINE
8
Black
10
11.4048
20
12.4957
11
11.3306
21
12.558
0
LINE
8
Black
10
11.3306
20
12.558
11
11.2452
21
12.6038
0
LINE
8
Black
10
11.2452
20
12.6038
11
11.2447
21
12.6042
0
LINE
8
Black
10
11.2447
20
12.6042
11
11.244
21
12.6044
0
LINE
8
Black
10
11.244
20
12.6044
11
11.1591
21
12.6511
0
LINE
8
Black
10
11.1591
20
12.6511
11
11.0665
21
12.6794
0
LINE
8
Black
10
11.0665
20
12.6794
11
11.0659
21
12.6797
0
LINE
8
Black
10
11.0659
20
12.6797
11
11.0652
21
12.6798
0
LINE
8
Black
10
11.0652
20
12.6798
11
10.9728
21
12.7092
0
LINE
8
Black
10
10.9728
20
12.7092
11
10.8764
21
12.7189
0
LINE
8
Black
10
10.8764
20
12.7189
11
10.8757
21
12.7191
0
LINE
8
Black
10
10.8757
20
12.7191
11
10.8751
21
12.7191
0
LINE
8
Black
10
10.8751
20
12.7191
11
10.7783
21
12.7299
0
LINE
8
Black
10
10.7783
20
12.7299
11
10.7733
21
12.73
0
LINE
8
Black
10
10.7733
20
12.73
11
10.7731
21
12.73
0
LINE
8
Black
10
10.7731
20
12.73
11
10.7729
21
12.73
0
LINE
8
Black
10
10.7729
20
12.73
11
10.7696
21
12.73
0
LINE
8
Black
10
10.7696
20
12.73
11
10.5166
21
12.73
0
LINE
8
Black
10
10.5166
20
12.73
11
10.511
21
12.731
0
LINE
8
Black
10
10.511
20
12.731
11
10.5053
21
12.7305
0
LINE
8
Black
10
10.5053
20
12.7305
11
10.4897
21
12.7347
0
LINE
8
Black
10
10.4897
20
12.7347
11
10.4739
21
12.7375
0
LINE
8
Black
10
10.4739
20
12.7375
11
10.4689
21
12.7404
0
LINE
8
Black
10
10.4689
20
12.7404
11
10.4634
21
12.7419
0
LINE
8
Black
10
10.4634
20
12.7419
11
10.4502
21
12.7512
0
LINE
8
Black
10
10.4502
20
12.7512
11
10.4363
21
12.7592
0
LINE
8
Black
10
10.4363
20
12.7592
11
10.4326
21
12.7636
0
LINE
8
Black
10
10.4326
20
12.7636
11
10.4279
21
12.7669
0
LINE
8
Black
10
10.4279
20
12.7669
11
10.3897
21
12.8054
0
LINE
8
Black
10
10.3897
20
12.8054
11
10.2547
21
12.8965
0
LINE
8
Black
10
10.2547
20
12.8965
11
10.244
21
12.9068
0
LINE
8
Black
10
10.244
20
12.9068
11
10.2323
21
12.9158
0
LINE
8
Black
10
10.2323
20
12.9158
11
10.2285
21
12.9217
0
LINE
8
Black
10
10.2285
20
12.9217
11
10.2235
21
12.9266
0
LINE
8
Black
10
10.2235
20
12.9266
11
10.217
21
12.9399
0
LINE
8
Black
10
10.217
20
12.9399
11
10.209
21
12.9525
0
LINE
8
Black
10
10.209
20
12.9525
11
10.2075
21
12.9593
0
LINE
8
Black
10
10.2075
20
12.9593
11
10.2044
21
12.9656
0
LINE
8
Black
10
10.2044
20
12.9656
11
10.2029
21
12.9804
0
LINE
8
Black
10
10.2029
20
12.9804
11
10.1997
21
12.9949
0
LINE
8
Black
10
10.1997
20
12.9949
11
10.2006
21
13.0018
0
LINE
8
Black
10
10.2006
20
13.0018
11
10.1999
21
13.0088
0
LINE
8
Black
10
10.1999
20
13.0088
11
10.2035
21
13.0232
0
LINE
8
Black
10
10.2035
20
13.0232
11
10.2055
21
13.0379
0
LINE
8
Black
10
10.2055
20
13.0379
11
10.2087
21
13.0441
0
LINE
8
Black
10
10.2087
20
13.0441
11
10.2104
21
13.0509
0
LINE
8
Black
10
10.2104
20
13.0509
11
10.2187
21
13.0632
0
LINE
8
Black
10
10.2187
20
13.0632
11
10.2256
21
13.0764
0
LINE
8
Black
10
10.2256
20
13.0764
11
10.2308
21
13.0811
0
LINE
8
Black
10
10.2308
20
13.0811
11
10.2347
21
13.0869
0
LINE
8
Black
10
10.2347
20
13.0869
11
10.2467
21
13.0956
0
LINE
8
Black
10
10.2467
20
13.0956
11
10.2576
21
13.1056
0
LINE
8
Black
10
10.2576
20
13.1056
11
10.3593
21
13.1702
0
LINE
8
Black
10
10.3593
20
13.1702
11
10.5566
21
13.358
0
LINE
8
Black
10
10.5566
20
13.358
11
10.7136
21
13.5806
0
LINE
8
Black
10
10.7136
20
13.5806
11
10.8244
21
13.8294
0
LINE
8
Black
10
10.8244
20
13.8294
11
10.8845
21
14.0942
0
LINE
8
Black
10
10.8845
20
14.0942
11
10.8889
21
14.4071
0
LINE
8
Black
10
10.8889
20
14.4071
11
10.8362
21
14.6734
0
LINE
8
Black
10
10.8362
20
14.6734
11
10.7324
21
14.9253
0
LINE
8
Black
10
10.7324
20
14.9253
11
10.5816
21
15.1521
0
LINE
8
Black
10
10.5816
20
15.1521
11
10.3897
21
15.3454
0
LINE
8
Black
10
10.3897
20
15.3454
11
10.1638
21
15.4977
0
LINE
8
Black
10
10.1638
20
15.4977
11
9.91273
21
15.6033
0
LINE
8
Black
10
9.91273
20
15.6033
11
9.64589
21
15.6581
0
LINE
8
Black
10
9.64589
20
15.6581
11
9.3735
21
15.66
0
LINE
8
Black
10
9.3735
20
15.66
11
9.10593
21
15.6089
0
LINE
8
Black
10
9.10593
20
15.6089
11
8.85337
21
15.5069
0
LINE
8
Black
10
8.85337
20
15.5069
11
8.62543
21
15.3577
0
LINE
8
Black
10
8.62543
20
15.3577
11
8.57228
21
15.3057
0
LINE
8
Black
10
8.57228
20
15.3057
11
8.56828
21
15.303
0
LINE
8
Black
10
8.56828
20
15.303
11
8.56517
21
15.2992
0
LINE
8
Black
10
8.56517
20
15.2992
11
8.55047
21
15.2908
0
LINE
8
Black
10
8.55047
20
15.2908
11
8.53646
21
15.2812
0
LINE
8
Black
10
8.53646
20
15.2812
11
8.53177
21
15.28
0
LINE
8
Black
10
8.53177
20
15.28
11
8.52757
21
15.2775
0
LINE
8
Black
10
8.52757
20
15.2775
11
8.51086
21
15.2746
0
LINE
8
Black
10
8.51086
20
15.2746
11
8.49441
21
15.2704
0
LINE
8
Black
10
8.49441
20
15.2704
11
8.48959
21
15.2708
0
LINE
8
Black
10
8.48959
20
15.2708
11
8.48482
21
15.27
0
LINE
8
Black
10
8.48482
20
15.27
11
7.23611
21
15.27
0
LINE
8
Black
10
7.23611
20
15.27
11
7.13877
21
15.2605
0
LINE
8
Black
10
7.13877
20
15.2605
11
7.13811
21
15.2605
0
LINE
8
Black
10
7.13811
20
15.2605
11
7.13747
21
15.2603
0
LINE
8
Black
10
7.13747
20
15.2603
11
7.04092
21
15.2519
0
LINE
8
Black
10
7.04092
20
15.2519
11
6.94816
21
15.2239
0
LINE
8
Black
10
6.94816
20
15.2239
11
6.9475
21
15.2238
0
LINE
8
Black
10
6.9475
20
15.2238
11
6.9469
21
15.2235
0
LINE
8
Black
10
6.9469
20
15.2235
11
6.8538
21
15.1965
0
LINE
8
Black
10
6.8538
20
15.1965
11
6.76827
21
15.151
0
LINE
8
Black
10
6.76827
20
15.151
11
6.76764
21
15.1508
0
LINE
8
Black
10
6.76764
20
15.1508
11
6.76711
21
15.1504
0
LINE
8
Black
10
6.76711
20
15.1504
11
6.68102
21
15.1057
0
LINE
8
Black
10
6.68102
20
15.1057
11
6.60593
21
15.0445
0
LINE
8
Black
10
6.60593
20
15.0445
11
6.60535
21
15.0442
0
LINE
8
Black
10
6.60535
20
15.0442
11
6.60492
21
15.0437
0
LINE
8
Black
10
6.60492
20
15.0437
11
6.5288
21
14.9829
0
LINE
8
Black
10
6.5288
20
14.9829
11
6.52522
21
14.9794
0
LINE
8
Black
10
6.52522
20
14.9794
11
6.52505
21
14.9793
0
LINE
8
Black
10
6.52505
20
14.9793
11
6.52492
21
14.9791
0
LINE
8
Black
10
6.52492
20
14.9791
11
6.52256
21
14.9768
0
LINE
8
Black
10
6.52256
20
14.9768
11
4.01203
21
12.4662
0
LINE
8
Black
10
4.01203
20
12.4662
11
4.00717
21
12.4628
0
LINE
8
Black
10
4.00717
20
12.4628
11
4.00332
21
12.4583
0
LINE
8
Black
10
4.00332
20
12.4583
11
3.98949
21
12.4505
0
LINE
8
Black
10
3.98949
20
12.4505
11
3.97647
21
12.4413
0
LINE
8
Black
10
3.97647
20
12.4413
11
3.97074
21
12.4398
0
LINE
8
Black
10
3.97074
20
12.4398
11
3.96558
21
12.4369
0
LINE
8
Black
10
3.96558
20
12.4369
11
3.94989
21
12.4342
0
LINE
8
Black
10
3.94989
20
12.4342
11
3.93454
21
12.4301
0
LINE
8
Black
10
3.93454
20
12.4301
11
3.92863
21
12.4306
0
LINE
8
Black
10
3.92863
20
12.4306
11
3.92277
21
12.4296
0
LINE
8
Black
10
3.92277
20
12.4296
11
3.8735
21
12.43
0
LINE
8
Black
10
3.8735
20
12.43
11
3.60593
21
12.3789
0
LINE
8
Black
10
3.60593
20
12.3789
11
3.35336
21
12.2769
0
LINE
8
Black
10
3.35336
20
12.2769
11
3.12543
21
12.1277
0
LINE
8
Black
10
3.12543
20
12.1277
11
3.07228
21
12.0757
0
LINE
8
Black
10
3.07228
20
12.0757
11
3.06828
21
12.073
0
LINE
8
Black
10
3.06828
20
12.073
11
3.06517
21
12.0692
0
LINE
8
Black
10
3.06517
20
12.0692
11
3.05047
21
12.0608
0
LINE
8
Black
10
3.05047
20
12.0608
11
3.03646
21
12.0512
0
LINE
8
Black
10
3.03646
20
12.0512
11
3.03177
21
12.05
0
LINE
8
Black
10
3.03177
20
12.05
11
3.02757
21
12.0475
0
LINE
8
Black
10
3.02757
20
12.0475
11
3.01086
21
12.0446
0
LINE
8
Black
10
3.01086
20
12.0446
11
2.99441
21
12.0404
0
LINE
8
Black
10
2.99441
20
12.0404
11
2.98959
21
12.0408
0
LINE
8
Black
10
2.98959
20
12.0408
11
2.98482
21
12.04
0
LINE
8
Black
10
2.98482
20
12.04
11
2.4766
21
12.04
0
LINE
8
Black
10
2.4766
20
12.04
11
2.47097
21
12.041
0
LINE
8
Black
10
2.47097
20
12.041
11
2.46528
21
12.0405
0
LINE
8
Black
10
2.46528
20
12.0405
11
2.44973
21
12.0447
0
LINE
8
Black
10
2.44973
20
12.0447
11
2.43385
21
12.0475
0
LINE
8
Black
10
2.43385
20
12.0475
11
2.4289
21
12.0504
0
LINE
8
Black
10
2.4289
20
12.0504
11
2.42338
21
12.0519
0
LINE
8
Black
10
2.42338
20
12.0519
11
2.41021
21
12.0612
0
LINE
8
Black
10
2.41021
20
12.0612
11
2.39626
21
12.0692
0
LINE
8
Black
10
2.39626
20
12.0692
11
2.39258
21
12.0736
0
LINE
8
Black
10
2.39258
20
12.0736
11
2.38791
21
12.0769
0
LINE
8
Black
10
2.38791
20
12.0769
11
2.34967
21
12.1154
0
LINE
8
Black
10
2.34967
20
12.1154
11
2.12384
21
12.2677
0
LINE
8
Black
10
2.12384
20
12.2677
11
1.87273
21
12.3733
0
LINE
8
Black
10
1.87273
20
12.3733
11
1.60589
21
12.4281
0
LINE
8
Black
10
1.60589
20
12.4281
11
1.3335
21
12.43
0
LINE
8
Black
10
1.3335
20
12.43
11
1.06593
21
12.3789
0
LINE
8
Black
10
1.06593
20
12.3789
11
0.813365
21
12.2769
0
LINE
8
Black
10
0.813365
20
12.2769
11
0.768445
21
12.2475
0
LINE
8
Black
10
0.768445
20
12.2475
11
0.765202
21
12.2461
0
LINE
8
Black
10
0.765202
20
12.2461
11
0.7625
21
12.2438
0
LINE
8
Black
10
0.7625
20
12.2438
11
0.74534
21
12.2376
0
LINE
8
Black
10
0.74534
20
12.2376
11
0.728543
21
12.2304
0
LINE
8
Black
10
0.728543
20
12.2304
11
0.725019
21
12.2302
0
LINE
8
Black
10
0.725019
20
12.2302
11
0.721706
21
12.229
0
LINE
8
Black
10
0.721706
20
12.229
11
0.703446
21
12.229
0
LINE
8
Black
10
0.703446
20
12.229
11
0.6852
21
12.228
0
LINE
8
Black
10
0.6852
20
12.228
11
0.681822
21
12.229
0
LINE
8
Black
10
0.681822
20
12.229
11
0.678294
21
12.229
0
LINE
8
Black
10
0.678294
20
12.229
11
0.661129
21
12.2352
0
LINE
8
Black
10
0.661129
20
12.2352
11
0.64364
21
12.2405
0
LINE
8
Black
10
0.64364
20
12.2405
11
0.640815
21
12.2426
0
LINE
8
Black
10
0.640815
20
12.2426
11
0.6375
21
12.2438
0
LINE
8
Black
10
0.6375
20
12.2438
11
0.623505
21
12.2556
0
LINE
8
Black
10
0.623505
20
12.2556
11
0.608879
21
12.2665
0
LINE
8
Black
10
0.608879
20
12.2665
11
0.606948
21
12.2695
0
LINE
8
Black
10
0.606948
20
12.2695
11
0.604244
21
12.2718
0
LINE
8
Black
10
0.604244
20
12.2718
11
0.595107
21
12.2876
0
LINE
8
Black
10
0.595107
20
12.2876
11
0.585108
21
12.3029
0
LINE
8
Black
10
0.585108
20
12.3029
11
0.584303
21
12.3063
0
LINE
8
Black
10
0.584303
20
12.3063
11
0.582538
21
12.3093
0
LINE
8
Black
10
0.582538
20
12.3093
11
0.579365
21
12.3273
0
LINE
8
Black
10
0.579365
20
12.3273
11
0.575195
21
12.3451
0
LINE
8
Black
10
0.575195
20
12.3451
11
0.575613
21
12.3486
0
LINE
8
Black
10
0.575613
20
12.3486
11
0.575
21
12.3521
0
LINE
8
Black
10
0.575
20
12.3521
11
0.575
21
14.9658
0
LINE
8
Black
10
0.575
20
14.9658
11
0.576069
21
14.9718
0
LINE
8
Black
10
0.576069
20
14.9718
11
0.575597
21
14.978
0
LINE
8
Black
10
0.575597
20
14.978
11
0.603648
21
15.264
0
LINE
8
Black
10
0.603648
20
15.264
11
0.606937
21
15.2758
0
LINE
8
Black
10
0.606937
20
15.2758
11
0.608386
21
15.288
0
LINE
8
Black
10
0.608386
20
15.288
11
0.681529
21
15.5302
0
LINE
8
Black
10
0.681529
20
15.5302
11
0.687046
21
15.5412
0
LINE
8
Black
10
0.687046
20
15.5412
11
0.690826
21
15.5528
0
LINE
8
Black
10
0.690826
20
15.5528
11
0.80963
21
15.7762
0
LINE
8
Black
10
0.80963
20
15.7762
11
0.81716
21
15.7859
0
LINE
8
Black
10
0.81716
20
15.7859
11
0.82313
21
15.7966
0
LINE
8
Black
10
0.82313
20
15.7966
11
0.983072
21
15.9927
0
LINE
8
Black
10
0.983072
20
15.9927
11
0.992334
21
16.0007
0
LINE
8
Black
10
0.992334
20
16.0007
11
1.00026
21
16.01
0
LINE
8
Black
10
1.00026
20
16.01
11
1.19525
21
16.1713
0
LINE
8
Black
10
1.19525
20
16.1713
11
1.20589
21
16.1773
0
LINE
8
Black
10
1.20589
20
16.1773
11
1.21547
21
16.1849
0
LINE
8
Black
10
1.21547
20
16.1849
11
1.43808
21
16.3053
0
LINE
8
Black
10
1.43808
20
16.3053
11
1.44968
21
16.3091
0
LINE
8
Black
10
1.44968
20
16.3091
11
1.46057
21
16.3147
0
LINE
8
Black
10
1.46057
20
16.3147
11
1.70231
21
16.3896
0
LINE
8
Black
10
1.70231
20
16.3896
11
1.71445
21
16.3911
0
LINE
8
Black
10
1.71445
20
16.3911
11
1.72621
21
16.3945
0
LINE
8
Black
10
1.72621
20
16.3945
11
2.01012
21
16.4243
0
LINE
8
Black
10
2.01012
20
16.4243
11
2.01669
21
16.4239
0
LINE
8
Black
10
2.01669
20
16.4239
11
2.02319
21
16.425
0
LINE
8
Black
10
2.02319
20
16.425
11
23.9658
21
16.425
0
LINE
8
Black
10
23.9658
20
16.425
11
23.9718
21
16.4239
0
LINE
8
Black
10
4
20
5.0676
11
3.92604
21
5.08064
0
LINE
8
Black
10
3.92604
20
5.08064
11
3.55301
21
4.70761
0
LINE
8
Black
10
3.55301
20
4.70761
11
3.59095
21
4.62955
0
LINE
8
Black
10
3.59095
20
4.62955
11
3.81151
21
4.57707
0
LINE
8
Black
10
3.81151
20
4.57707
11
4.08493
21
4.56686
0
LINE
8
Black
10
4.08493
20
4.56686
11
4.35886
21
4.61081
0
LINE
8
Black
10
4.35886
20
4.61081
11
4.40704
21
4.62542
0
LINE
8
Black
10
4.40704
20
4.62542
11
4.44699
21
4.70761
0
LINE
8
Black
10
4.44699
20
4.70761
11
4.07396
21
5.08064
0
LINE
8
Black
10
4.07396
20
5.08064
11
4
21
5.0676
0
LINE
8
Black
10
4.87884
20
6.03344
11
4.87884
21
5.88656
0
LINE
8
Black
10
4.87884
20
5.88656
11
5.25239
21
5.51301
0
LINE
8
Black
10
5.25239
20
5.51301
11
5.33045
21
5.55095
0
LINE
8
Black
10
5.33045
20
5.55095
11
5.38293
21
5.77151
0
LINE
8
Black
10
5.38293
20
5.77151
11
5.39314
21
6.04493
0
LINE
8
Black
10
5.39314
20
6.04493
11
5.35788
21
6.26467
0
LINE
8
Black
10
5.35788
20
6.26467
11
5.34919
21
6.31886
0
LINE
8
Black
10
5.34919
20
6.31886
11
5.33458
21
6.36704
0
LINE
8
Black
10
5.33458
20
6.36704
11
5.25239
21
6.40699
0
LINE
8
Black
10
5.25239
20
6.40699
11
4.87884
21
6.03344
0
LINE
8
Black
10
6.65
20
6.59274
11
6.32103
21
6.65075
0
LINE
8
Black
10
6.32103
20
6.65075
11
5.9568
21
6.28652
0
LINE
8
Black
10
5.9568
20
6.28652
11
6.09329
21
6.15613
0
LINE
8
Black
10
6.09329
20
6.15613
11
6.53382
21
6.09119
0
LINE
8
Black
10
6.53382
20
6.09119
11
7.00914
21
6.11496
0
LINE
8
Black
10
7.00914
20
6.11496
11
7.20424
21
6.15377
0
LINE
8
Black
10
7.20424
20
6.15377
11
7.3432
21
6.28652
0
LINE
8
Black
10
7.3432
20
6.28652
11
6.97897
21
6.65075
0
LINE
8
Black
10
6.97897
20
6.65075
11
6.65
21
6.59274
0
LINE
8
Black
10
8.67028
20
8
11
8.86348
21
7.8068
0
LINE
8
Black
10
8.86348
20
7.8068
11
8.99387
21
7.94329
0
LINE
8
Black
10
8.99387
20
7.94329
11
8.99837
21
7.97385
0
LINE
8
Black
10
8.99837
20
7.97385
11
9.00098
21
7.98169
0
LINE
8
Black
10
9.00098
20
7.98169
11
9.00183
21
7.98992
0
LINE
8
Black
10
9.00183
20
7.98992
11
9.00673
21
8
0
LINE
8
Black
10
9.00673
20
8
11
8.67028
21
8
0
LINE
8
Black
10
8.67028
20
9
11
9.01079
21
9
0
LINE
8
Black
10
9.01079
20
9
11
9.00512
21
9.01168
0
LINE
8
Black
10
9.00512
20
9.01168
11
9.00459
21
9.01679
0
LINE
8
Black
10
9.00459
20
9.01679
11
9.00272
21
9.02159
0
LINE
8
Black
10
9.00272
20
9.02159
11
8.99623
21
9.05424
0
LINE
8
Black
10
8.99623
20
9.05424
11
8.86348
21
9.1932
0
LINE
8
Black
10
8.86348
20
9.1932
11
8.67028
21
9
0
LINE
8
Black
10
13.5217
20
5.24618
11
13.5436
21
5.2481
0
LINE
8
Black
10
13.5436
20
5.2481
11
13.6067
21
5.23119
0
LINE
8
Black
10
13.6067
20
5.23119
11
13.671
21
5.21985
0
LINE
8
Black
10
13.671
20
5.21985
11
13.6901
21
5.20885
0
LINE
8
Black
10
13.6901
20
5.20885
11
13.7113
21
5.20315
0
LINE
8
Black
10
13.7113
20
5.20315
11
13.7648
21
5.16568
0
LINE
8
Black
10
13.7648
20
5.16568
11
13.8214
21
5.13302
0
LINE
8
Black
10
13.8214
20
5.13302
11
13.8355
21
5.11617
0
LINE
8
Black
10
13.8355
20
5.11617
11
13.8536
21
5.10355
0
LINE
8
Black
10
13.8536
20
5.10355
11
15.7271
21
3.23
0
LINE
8
Black
10
15.7271
20
3.23
11
15.7723
21
3.23
0
LINE
8
Black
10
15.7723
20
3.23
11
15.9264
21
3.41362
0
LINE
8
Black
10
15.9264
20
3.41362
11
16.1948
21
3.56858
0
LINE
8
Black
10
16.1948
20
3.56858
11
16.5
21
3.6224
0
LINE
8
Black
10
16.5
20
3.6224
11
16.8052
21
3.56858
0
LINE
8
Black
10
16.8052
20
3.56858
11
17.0736
21
3.41362
0
LINE
8
Black
10
17.0736
20
3.41362
11
17.2728
21
3.1762
0
LINE
8
Black
10
17.2728
20
3.1762
11
17.3788
21
2.88496
0
LINE
8
Black
10
17.3788
20
2.88496
11
17.3788
21
2.57504
0
LINE
8
Black
10
17.3788
20
2.57504
11
17.2728
21
2.2838
0
LINE
8
Black
10
17.2728
20
2.2838
11
17.0736
21
2.04638
0
LINE
8
Black
10
17.0736
20
2.04638
11
16.8052
21
1.89142
0
LINE
8
Black
10
16.8052
20
1.89142
11
16.5
21
1.8376
0
LINE
8
Black
10
16.5
20
1.8376
11
16.1948
21
1.89142
0
LINE
8
Black
10
16.1948
20
1.89142
11
15.9264
21
2.04638
0
LINE
8
Black
10
15.9264
20
2.04638
11
15.7723
21
2.23
0
LINE
8
Black
10
15.7723
20
2.23
11
15.52
21
2.23
0
LINE
8
Black
10
15.52
20
2.23
11
15.4983
21
2.23382
0
LINE
8
Black
10
15.4983
20
2.23382
11
15.4764
21
2.2319
0
LINE
8
Black
10
15.4764
20
2.2319
11
15.4133
21
2.24881
0
LINE
8
Black
10
15.4133
20
2.24881
11
15.349
21
2.26015
0
LINE
8
Black
10
15.349
20
2.26015
11
15.3299
21
2.27115
0
LINE
8
Black
10
15.3299
20
2.27115
11
15.3087
21
2.27685
0
LINE
8
Black
10
15.3087
20
2.27685
11
15.2552
21
2.31431
0
LINE
8
Black
10
15.2552
20
2.31431
11
15.1986
21
2.34698
0
LINE
8
Black
10
15.1986
20
2.34698
11
15.1845
21
2.36383
0
LINE
8
Black
10
15.1845
20
2.36383
11
15.1664
21
2.37645
0
LINE
8
Black
10
15.1664
20
2.37645
11
13.2929
21
4.25
0
LINE
8
Black
10
13.2929
20
4.25
11
12.7071
21
4.25
0
LINE
8
Black
10
12.7071
20
4.25
11
10.8336
21
2.37645
0
LINE
8
Black
10
10.8336
20
2.37645
11
10.8155
21
2.36383
0
LINE
8
Black
10
10.8155
20
2.36383
11
10.8014
21
2.34698
0
LINE
8
Black
10
10.8014
20
2.34698
11
10.7448
21
2.31431
0
LINE
8
Black
10
10.7448
20
2.31431
11
10.6913
21
2.27685
0
LINE
8
Black
10
10.6913
20
2.27685
11
10.6701
21
2.27115
0
LINE
8
Black
10
10.6701
20
2.27115
11
10.651
21
2.26015
0
LINE
8
Black
10
10.651
20
2.26015
11
10.5867
21
2.24881
0
LINE
8
Black
10
10.5867
20
2.24881
11
10.5236
21
2.2319
0
LINE
8
Black
10
10.5236
20
2.2319
11
10.5017
21
2.23382
0
LINE
8
Black
10
10.5017
20
2.23382
11
10.48
21
2.23
0
LINE
8
Black
10
10.48
20
2.23
11
10.2277
21
2.23
0
LINE
8
Black
10
10.2277
20
2.23
11
10.0736
21
2.04638
0
LINE
8
Black
10
10.0736
20
2.04638
11
9.80522
21
1.89142
0
LINE
8
Black
10
9.80522
20
1.89142
11
9.5
21
1.8376
0
LINE
8
Black
10
9.5
20
1.8376
11
9.19478
21
1.89142
0
LINE
8
Black
10
9.19478
20
1.89142
11
8.92638
21
2.04638
0
LINE
8
Black
10
8.92638
20
2.04638
11
8.72716
21
2.2838
0
LINE
8
Black
10
8.72716
20
2.2838
11
8.62116
21
2.57504
0
LINE
8
Black
10
8.62116
20
2.57504
11
8.62116
21
2.88496
0
LINE
8
Black
10
8.62116
20
2.88496
11
8.72716
21
3.1762
0
LINE
8
Black
10
8.72716
20
3.1762
11
8.92638
21
3.41362
0
LINE
8
Black
10
8.92638
20
3.41362
11
9.19478
21
3.56858
0
LINE
8
Black
10
9.19478
20
3.56858
11
9.5
21
3.6224
0
LINE
8
Black
10
9.5
20
3.6224
11
9.80522
21
3.56858
0
LINE
8
Black
10
9.80522
20
3.56858
11
10.0736
21
3.41362
0
LINE
8
Black
10
10.0736
20
3.41362
11
10.2277
21
3.23
0
LINE
8
Black
10
10.2277
20
3.23
11
10.2729
21
3.23
0
LINE
8
Black
10
10.2729
20
3.23
11
12.1464
21
5.10355
0
LINE
8
Black
10
12.1464
20
5.10355
11
12.1645
21
5.11617
0
LINE
8
Black
10
12.1645
20
5.11617
11
12.1786
21
5.13302
0
LINE
8
Black
10
12.1786
20
5.13302
11
12.2352
21
5.16569
0
LINE
8
Black
10
12.2352
20
5.16569
11
12.2887
21
5.20315
0
LINE
8
Black
10
12.2887
20
5.20315
11
12.3099
21
5.20885
0
LINE
8
Black
10
12.3099
20
5.20885
11
12.329
21
5.21985
0
LINE
8
Black
10
12.329
20
5.21985
11
12.3933
21
5.23119
0
LINE
8
Black
10
12.3933
20
5.23119
11
12.4564
21
5.2481
0
LINE
8
Black
10
12.4564
20
5.2481
11
12.4783
21
5.24618
0
LINE
8
Black
10
12.4783
20
5.24618
11
12.5
21
5.25
0
LINE
8
Black
10
12.5
20
5.25
11
13.5
21
5.25
0
LINE
8
Black
10
13.5
20
5.25
11
13.5217
21
5.24618
0
LINE
8
Black
10
20.0023
20
10.2922
11
20.576
21
9.96104
0
LINE
8
Black
10
20.576
20
9.96104
11
21.0017
21
9.45363
0
LINE
8
Black
10
21.0017
20
9.45363
11
21.1668
21
9
0
LINE
8
Black
10
21.1668
20
9
11
21.81
21
9
0
LINE
8
Black
10
21.81
20
9
11
21.8317
21
8.99618
0
LINE
8
Black
10
21.8317
20
8.99618
11
21.8536
21
8.9981
0
LINE
8
Black
10
21.8536
20
8.9981
11
21.9167
21
8.98119
0
LINE
8
Black
10
21.9167
20
8.98119
11
21.981
21
8.96985
0
LINE
8
Black
10
21.981
20
8.96985
11
22.0001
21
8.95885
0
LINE
8
Black
10
22.0001
20
8.95885
11
22.0213
21
8.95315
0
LINE
8
Black
10
22.0213
20
8.95315
11
22.0748
21
8.91568
0
LINE
8
Black
10
22.0748
20
8.91568
11
22.1314
21
8.88302
0
LINE
8
Black
10
22.1314
20
8.88302
11
22.1455
21
8.86617
0
LINE
8
Black
10
22.1455
20
8.86617
11
22.1636
21
8.85355
0
LINE
8
Black
10
22.1636
20
8.85355
11
23.6036
21
7.41355
0
LINE
8
Black
10
23.6036
20
7.41355
11
23.6162
21
7.39553
0
LINE
8
Black
10
23.6162
20
7.39553
11
23.633
21
7.38139
0
LINE
8
Black
10
23.633
20
7.38139
11
23.6657
21
7.32482
0
LINE
8
Black
10
23.6657
20
7.32482
11
23.7032
21
7.27131
0
LINE
8
Black
10
23.7032
20
7.27131
11
23.7088
21
7.25006
0
LINE
8
Black
10
23.7088
20
7.25006
11
23.7198
21
7.23101
0
LINE
8
Black
10
23.7198
20
7.23101
11
23.7312
21
7.16668
0
LINE
8
Black
10
23.7312
20
7.16668
11
23.7481
21
7.10358
0
LINE
8
Black
10
23.7481
20
7.10358
11
23.7462
21
7.08166
0
LINE
8
Black
10
23.7462
20
7.08166
11
23.75
21
7.06
0
LINE
8
Black
10
23.75
20
7.06
11
23.75
21
4.14612
0
LINE
8
Black
10
23.75
20
4.14612
11
23.8236
21
4.10361
0
LINE
8
Black
10
23.8236
20
4.10361
11
24.0228
21
3.8662
0
LINE
8
Black
10
24.0228
20
3.8662
11
24.1288
21
3.57496
0
LINE
8
Black
10
24.1288
20
3.57496
11
24.1288
21
3.26504
0
LINE
8
Black
10
24.1288
20
3.26504
11
24.0228
21
2.9738
0
LINE
8
Black
10
24.0228
20
2.9738
11
23.8236
21
2.73638
0
LINE
8
Black
10
23.8236
20
2.73638
11
23.5552
21
2.58142
0
LINE
8
Black
10
23.5552
20
2.58142
11
23.25
21
2.5276
0
LINE
8
Black
10
23.25
20
2.5276
11
22.9448
21
2.58142
0
LINE
8
Black
10
22.9448
20
2.58142
11
22.6764
21
2.73638
0
LINE
8
Black
10
22.6764
20
2.73638
11
22.4772
21
2.9738
0
LINE
8
Black
10
22.4772
20
2.9738
11
22.3712
21
3.26504
0
LINE
8
Black
10
22.3712
20
3.26504
11
22.3712
21
3.57496
0
LINE
8
Black
10
22.3712
20
3.57496
11
22.4772
21
3.8662
0
LINE
8
Black
10
22.4772
20
3.8662
11
22.6764
21
4.10361
0
LINE
8
Black
10
22.6764
20
4.10361
11
22.75
21
4.14612
0
LINE
8
Black
10
22.75
20
4.14612
11
22.75
21
6.85289
0
LINE
8
Black
10
22.75
20
6.85289
11
21.6029
21
8
0
LINE
8
Black
10
21.6029
20
8
11
21.1668
21
8
0
LINE
8
Black
10
21.1668
20
8
11
21.0017
21
7.54637
0
LINE
8
Black
10
21.0017
20
7.54637
11
20.576
21
7.03896
0
LINE
8
Black
10
20.576
20
7.03896
11
20.0023
21
6.70776
0
LINE
8
Black
10
20.0023
20
6.70776
11
19.35
21
6.59274
0
LINE
8
Black
10
19.35
20
6.59274
11
18.6977
21
6.70776
0
LINE
8
Black
10
18.6977
20
6.70776
11
18.124
21
7.03896
0
LINE
8
Black
10
18.124
20
7.03896
11
17.6983
21
7.54637
0
LINE
8
Black
10
17.6983
20
7.54637
11
17.5332
21
8
0
LINE
8
Black
10
17.5332
20
8
11
16.2677
21
8
0
LINE
8
Black
10
16.2677
20
8
11
16.1136
21
7.81638
0
LINE
8
Black
10
16.1136
20
7.81638
11
15.8452
21
7.66142
0
LINE
8
Black
10
15.8452
20
7.66142
11
15.54
21
7.6076
0
LINE
8
Black
10
15.54
20
7.6076
11
15.2348
21
7.66142
0
LINE
8
Black
10
15.2348
20
7.66142
11
14.9664
21
7.81638
0
LINE
8
Black
10
14.9664
20
7.81638
11
14.7672
21
8.0538
0
LINE
8
Black
10
14.7672
20
8.0538
11
14.6612
21
8.34504
0
LINE
8
Black
10
14.6612
20
8.34504
11
14.6612
21
8.65496
0
LINE
8
Black
10
14.6612
20
8.65496
11
14.7672
21
8.9462
0
LINE
8
Black
10
14.7672
20
8.9462
11
14.9664
21
9.18361
0
LINE
8
Black
10
14.9664
20
9.18361
11
15.2348
21
9.33858
0
LINE
8
Black
10
15.2348
20
9.33858
11
15.54
21
9.3924
0
LINE
8
Black
10
15.54
20
9.3924
11
15.8452
21
9.33858
0
LINE
8
Black
10
15.8452
20
9.33858
11
16.1136
21
9.18361
0
LINE
8
Black
10
16.1136
20
9.18361
11
16.2677
21
9
0
LINE
8
Black
10
16.2677
20
9
11
17.5332
21
9
0
LINE
8
Black
10
17.5332
20
9
11
17.6983
21
9.45363
0
LINE
8
Black
10
17.6983
20
9.45363
11
18.124
21
9.96104
0
LINE
8
Black
10
18.124
20
9.96104
11
18.6977
21
10.2922
0
LINE
8
Black
10
18.6977
20
10.2922
11
19.35
21
10.4073
0
LINE
8
Black
10
19.35
20
10.4073
11
20.0023
21
10.2922
0
LINE
8
Black
10
14.25
20
10.0429
11
14.25
21
6.70711
0
LINE
8
Black
10
14.25
20
6.70711
11
15.1871
21
5.77
0
LINE
8
Black
10
15.1871
20
5.77
11
15.7723
21
5.77
0
LINE
8
Black
10
15.7723
20
5.77
11
15.9264
21
5.95362
0
LINE
8
Black
10
15.9264
20
5.95362
11
16.1948
21
6.10858
0
LINE
8
Black
10
16.1948
20
6.10858
11
16.5
21
6.1624
0
LINE
8
Black
10
16.5
20
6.1624
11
16.8052
21
6.10858
0
LINE
8
Black
10
16.8052
20
6.10858
11
17.0736
21
5.95362
0
LINE
8
Black
10
17.0736
20
5.95362
11
17.2728
21
5.7162
0
LINE
8
Black
10
17.2728
20
5.7162
11
17.3788
21
5.42496
0
LINE
8
Black
10
17.3788
20
5.42496
11
17.3788
21
5.11504
0
LINE
8
Black
10
17.3788
20
5.11504
11
17.2728
21
4.8238
0
LINE
8
Black
10
17.2728
20
4.8238
11
17.0736
21
4.58638
0
LINE
8
Black
10
17.0736
20
4.58638
11
16.8052
21
4.43142
0
LINE
8
Black
10
16.8052
20
4.43142
11
16.5
21
4.3776
0
LINE
8
Black
10
16.5
20
4.3776
11
16.1948
21
4.43142
0
LINE
8
Black
10
16.1948
20
4.43142
11
15.9264
21
4.58638
0
LINE
8
Black
10
15.9264
20
4.58638
11
15.7723
21
4.77
0
LINE
8
Black
10
15.7723
20
4.77
11
14.98
21
4.77
0
LINE
8
Black
10
14.98
20
4.77
11
14.9583
21
4.77382
0
LINE
8
Black
10
14.9583
20
4.77382
11
14.9364
21
4.7719
0
LINE
8
Black
10
14.9364
20
4.7719
11
14.8733
21
4.78881
0
LINE
8
Black
10
14.8733
20
4.78881
11
14.809
21
4.80015
0
LINE
8
Black
10
14.809
20
4.80015
11
14.7899
21
4.81115
0
LINE
8
Black
10
14.7899
20
4.81115
11
14.7687
21
4.81685
0
LINE
8
Black
10
14.7687
20
4.81685
11
14.7152
21
4.85432
0
LINE
8
Black
10
14.7152
20
4.85432
11
14.6586
21
4.88698
0
LINE
8
Black
10
14.6586
20
4.88698
11
14.6445
21
4.90383
0
LINE
8
Black
10
14.6445
20
4.90383
11
14.6264
21
4.91645
0
LINE
8
Black
10
14.6264
20
4.91645
11
13.3964
21
6.14645
0
LINE
8
Black
10
13.3964
20
6.14645
11
13.3838
21
6.16446
0
LINE
8
Black
10
13.3838
20
6.16446
11
13.367
21
6.17861
0
LINE
8
Black
10
13.367
20
6.17861
11
13.3343
21
6.23518
0
LINE
8
Black
10
13.3343
20
6.23518
11
13.2968
21
6.28869
0
LINE
8
Black
10
13.2968
20
6.28869
11
13.2912
21
6.30994
0
LINE
8
Black
10
13.2912
20
6.30994
11
13.2802
21
6.32899
0
LINE
8
Black
10
13.2802
20
6.32899
11
13.2688
21
6.39332
0
LINE
8
Black
10
13.2688
20
6.39332
11
13.2519
21
6.45642
0
LINE
8
Black
10
13.2519
20
6.45642
11
13.2538
21
6.47833
0
LINE
8
Black
10
13.2538
20
6.47833
11
13.25
21
6.5
0
LINE
8
Black
10
13.25
20
6.5
11
13.25
21
10.25
0
LINE
8
Black
10
13.25
20
10.25
11
13.2538
21
10.2717
0
LINE
8
Black
10
13.2538
20
10.2717
11
13.2519
21
10.2936
0
LINE
8
Black
10
13.2519
20
10.2936
11
13.2688
21
10.3567
0
LINE
8
Black
10
13.2688
20
10.3567
11
13.2802
21
10.421
0
LINE
8
Black
10
13.2802
20
10.421
11
13.2912
21
10.4401
0
LINE
8
Black
10
13.2912
20
10.4401
11
13.2968
21
10.4613
0
LINE
8
Black
10
13.2968
20
10.4613
11
13.3343
21
10.5148
0
LINE
8
Black
10
13.3343
20
10.5148
11
13.367
21
10.5714
0
LINE
8
Black
10
13.367
20
10.5714
11
13.3838
21
10.5855
0
LINE
8
Black
10
13.3838
20
10.5855
11
13.3964
21
10.6036
0
LINE
8
Black
10
13.3964
20
10.6036
11
14.8764
21
12.0836
0
LINE
8
Black
10
14.8764
20
12.0836
11
14.8945
21
12.0962
0
LINE
8
Black
10
14.8945
20
12.0962
11
14.9086
21
12.113
0
LINE
8
Black
10
14.9086
20
12.113
11
14.9652
21
12.1457
0
LINE
8
Black
10
14.9652
20
12.1457
11
15.0187
21
12.1832
0
LINE
8
Black
10
15.0187
20
12.1832
11
15.0399
21
12.1888
0
LINE
8
Black
10
15.0399
20
12.1888
11
15.059
21
12.1998
0
LINE
8
Black
10
15.059
20
12.1998
11
15.1233
21
12.2112
0
LINE
8
Black
10
15.1233
20
12.2112
11
15.1864
21
12.2281
0
LINE
8
Black
10
15.1864
20
12.2281
11
15.2083
21
12.2262
0
LINE
8
Black
10
15.2083
20
12.2262
11
15.23
21
12.23
0
LINE
8
Black
10
15.23
20
12.23
11
15.7723
21
12.23
0
LINE
8
Black
10
15.7723
20
12.23
11
15.9264
21
12.4136
0
LINE
8
Black
10
15.9264
20
12.4136
11
16.1948
21
12.5686
0
LINE
8
Black
10
16.1948
20
12.5686
11
16.5
21
12.6224
0
LINE
8
Black
10
16.5
20
12.6224
11
16.8052
21
12.5686
0
LINE
8
Black
10
16.8052
20
12.5686
11
17.0736
21
12.4136
0
LINE
8
Black
10
17.0736
20
12.4136
11
17.2728
21
12.1762
0
LINE
8
Black
10
17.2728
20
12.1762
11
17.3788
21
11.885
0
LINE
8
Black
10
17.3788
20
11.885
11
17.3788
21
11.575
0
LINE
8
Black
10
17.3788
20
11.575
11
17.2728
21
11.2838
0
LINE
8
Black
10
17.2728
20
11.2838
11
17.0736
21
11.0464
0
LINE
8
Black
10
17.0736
20
11.0464
11
16.8052
21
10.8914
0
LINE
8
Black
10
16.8052
20
10.8914
11
16.5
21
10.8376
0
LINE
8
Black
10
16.5
20
10.8376
11
16.1948
21
10.8914
0
LINE
8
Black
10
16.1948
20
10.8914
11
15.9264
21
11.0464
0
LINE
8
Black
10
15.9264
20
11.0464
11
15.7723
21
11.23
0
LINE
8
Black
10
15.7723
20
11.23
11
15.73
21
11.23
0
LINE
8
Black
10
15.73
20
11.23
11
15.4371
21
11.23
0
LINE
8
Black
10
15.4371
20
11.23
11
14.25
21
10.0429
0
LINE
8
Black
10
10.7917
20
12.2262
11
10.8136
21
12.2281
0
LINE
8
Black
10
10.8136
20
12.2281
11
10.8767
21
12.2112
0
LINE
8
Black
10
10.8767
20
12.2112
11
10.941
21
12.1998
0
LINE
8
Black
10
10.941
20
12.1998
11
10.9601
21
12.1888
0
LINE
8
Black
10
10.9601
20
12.1888
11
10.9813
21
12.1832
0
LINE
8
Black
10
10.9813
20
12.1832
11
11.0348
21
12.1457
0
LINE
8
Black
10
11.0348
20
12.1457
11
11.0914
21
12.113
0
LINE
8
Black
10
11.0914
20
12.113
11
11.1055
21
12.0962
0
LINE
8
Black
10
11.1055
20
12.0962
11
11.1236
21
12.0836
0
LINE
8
Black
10
11.1236
20
12.0836
11
12.6036
21
10.6036
0
LINE
8
Black
10
12.6036
20
10.6036
11
12.6162
21
10.5855
0
LINE
8
Black
10
12.6162
20
10.5855
11
12.633
21
10.5714
0
LINE
8
Black
10
12.633
20
10.5714
11
12.6657
21
10.5148
0
LINE
8
Black
10
12.6657
20
10.5148
11
12.7032
21
10.4613
0
LINE
8
Black
10
12.7032
20
10.4613
11
12.7088
21
10.4401
0
LINE
8
Black
10
12.7088
20
10.4401
11
12.7198
21
10.421
0
LINE
8
Black
10
12.7198
20
10.421
11
12.7312
21
10.3567
0
LINE
8
Black
10
12.7312
20
10.3567
11
12.7481
21
10.2936
0
LINE
8
Black
10
12.7481
20
10.2936
11
12.7462
21
10.2717
0
LINE
8
Black
10
12.7462
20
10.2717
11
12.75
21
10.25
0
LINE
8
Black
10
12.75
20
10.25
11
12.75
21
6.75
0
LINE
8
Black
10
12.75
20
6.75
11
12.7462
21
6.72833
0
LINE
8
Black
10
12.7462
20
6.72833
11
12.7481
21
6.70642
0
LINE
8
Black
10
12.7481
20
6.70642
11
12.7312
21
6.64332
0
LINE
8
Black
10
12.7312
20
6.64332
11
12.7198
21
6.57899
0
LINE
8
Black
10
12.7198
20
6.57899
11
12.7088
21
6.55994
0
LINE
8
Black
10
12.7088
20
6.55994
11
12.7032
21
6.53869
0
LINE
8
Black
10
12.7032
20
6.53869
11
12.6657
21
6.48518
0
LINE
8
Black
10
12.6657
20
6.48518
11
12.633
21
6.42861
0
LINE
8
Black
10
12.633
20
6.42861
11
12.6162
21
6.41446
0
LINE
8
Black
10
12.6162
20
6.41446
11
12.6036
21
6.39645
0
LINE
8
Black
10
12.6036
20
6.39645
11
11.1236
21
4.91645
0
LINE
8
Black
10
11.1236
20
4.91645
11
11.1055
21
4.90383
0
LINE
8
Black
10
11.1055
20
4.90383
11
11.0914
21
4.88698
0
LINE
8
Black
10
11.0914
20
4.88698
11
11.0348
21
4.85431
0
LINE
8
Black
10
11.0348
20
4.85431
11
10.9813
21
4.81685
0
LINE
8
Black
10
10.9813
20
4.81685
11
10.9601
21
4.81115
0
LINE
8
Black
10
10.9601
20
4.81115
11
10.941
21
4.80015
0
LINE
8
Black
10
10.941
20
4.80015
11
10.8767
21
4.78881
0
LINE
8
Black
10
10.8767
20
4.78881
11
10.8136
21
4.7719
0
LINE
8
Black
10
10.8136
20
4.7719
11
10.7917
21
4.77382
0
LINE
8
Black
10
10.7917
20
4.77382
11
10.77
21
4.77
0
LINE
8
Black
10
10.77
20
4.77
11
10.2277
21
4.77
0
LINE
8
Black
10
10.2277
20
4.77
11
10.0736
21
4.58638
0
LINE
8
Black
10
10.0736
20
4.58638
11
9.80522
21
4.43142
0
LINE
8
Black
10
9.80522
20
4.43142
11
9.5
21
4.3776
0
LINE
8
Black
10
9.5
20
4.3776
11
9.19478
21
4.43142
0
LINE
8
Black
10
9.19478
20
4.43142
11
8.92638
21
4.58638
0
LINE
8
Black
10
8.92638
20
4.58638
11
8.72716
21
4.8238
0
LINE
8
Black
10
8.72716
20
4.8238
11
8.62116
21
5.11504
0
LINE
8
Black
10
8.62116
20
5.11504
11
8.62116
21
5.42496
0
LINE
8
Black
10
8.62116
20
5.42496
11
8.72716
21
5.7162
0
LINE
8
Black
10
8.72716
20
5.7162
11
8.92638
21
5.95362
0
LINE
8
Black
10
8.92638
20
5.95362
11
9.19478
21
6.10858
0
LINE
8
Black
10
9.19478
20
6.10858
11
9.5
21
6.1624
0
LINE
8
Black
10
9.5
20
6.1624
11
9.80522
21
6.10858
0
LINE
8
Black
10
9.80522
20
6.10858
11
10.0736
21
5.95362
0
LINE
8
Black
10
10.0736
20
5.95362
11
10.2277
21
5.77
0
LINE
8
Black
10
10.2277
20
5.77
11
10.5629
21
5.77
0
LINE
8
Black
10
10.5629
20
5.77
11
11.75
21
6.95711
0
LINE
8
Black
10
11.75
20
6.95711
11
11.75
21
10.0429
0
LINE
8
Black
10
11.75
20
10.0429
11
10.5629
21
11.23
0
LINE
8
Black
10
10.5629
20
11.23
11
10.2277
21
11.23
0
LINE
8
Black
10
10.2277
20
11.23
11
10.0736
21
11.0464
0
LINE
8
Black
10
10.0736
20
11.0464
11
9.80522
21
10.8914
0
LINE
8
Black
10
9.80522
20
10.8914
11
9.5
21
10.8376
0
LINE
8
Black
10
9.5
20
10.8376
11
9.19478
21
10.8914
0
LINE
8
Black
10
9.19478
20
10.8914
11
8.92638
21
11.0464
0
LINE
8
Black
10
8.92638
20
11.0464
11
8.72716
21
11.2838
0
LINE
8
Black
10
8.72716
20
11.2838
11
8.62116
21
11.575
0
LINE
8
Black
10
8.62116
20
11.575
11
8.62116
21
11.885
0
LINE
8
Black
10
8.62116
20
11.885
11
8.72716
21
12.1762
0
LINE
8
Black
10
8.72716
20
12.1762
11
8.92638
21
12.4136
0
LINE
8
Black
10
8.92638
20
12.4136
11
9.19478
21
12.5686
0
LINE
8
Black
10
9.19478
20
12.5686
11
9.5
21
12.6224
0
LINE
8
Black
10
9.5
20
12.6224
11
9.80522
21
12.5686
0
LINE
8
Black
10
9.80522
20
12.5686
11
10.0736
21
12.4136
0
LINE
8
Black
10
10.0736
20
12.4136
11
10.2277
21
12.23
0
LINE
8
Black
10
10.2277
20
12.23
11
10.27
21
12.23
0
LINE
8
Black
10
10.27
20
12.23
11
10.77
21
12.23
0
LINE
8
Black
10
10.77
20
12.23
11
10.7917
21
12.2262
0
LINE
8
Black
10
9.80522
20
15.1086
11
10.0736
21
14.9536
0
LINE
8
Black
10
10.0736
20
14.9536
11
10.2728
21
14.7162
0
LINE
8
Black
10
10.2728
20
14.7162
11
10.3788
21
14.425
0
LINE
8
Black
10
10.3788
20
14.425
11
10.3788
21
14.115
0
LINE
8
Black
10
10.3788
20
14.115
11
10.2728
21
13.8238
0
LINE
8
Black
10
10.2728
20
13.8238
11
10.0736
21
13.5864
0
LINE
8
Black
10
10.0736
20
13.5864
11
9.80522
21
13.4314
0
LINE
8
Black
10
9.80522
20
13.4314
11
9.5
21
13.3776
0
LINE
8
Black
10
9.5
20
13.3776
11
9.19478
21
13.4314
0
LINE
8
Black
10
9.19478
20
13.4314
11
8.92638
21
13.5864
0
LINE
8
Black
10
8.92638
20
13.5864
11
8.77231
21
13.77
0
LINE
8
Black
10
8.77231
20
13.77
11
7.43711
21
13.77
0
LINE
8
Black
10
7.43711
20
13.77
11
4.87436
21
11.2073
0
LINE
8
Black
10
4.87436
20
11.2073
11
4.87884
21
11.195
0
LINE
8
Black
10
4.87884
20
11.195
11
4.87884
21
10.885
0
LINE
8
Black
10
4.87884
20
10.885
11
4.77284
21
10.5938
0
LINE
8
Black
10
4.77284
20
10.5938
11
4.57362
21
10.3564
0
LINE
8
Black
10
4.57362
20
10.3564
11
4.30522
21
10.2014
0
LINE
8
Black
10
4.30522
20
10.2014
11
4
21
10.1476
0
LINE
8
Black
10
4
20
10.1476
11
3.69478
21
10.2014
0
LINE
8
Black
10
3.69478
20
10.2014
11
3.42638
21
10.3564
0
LINE
8
Black
10
3.42638
20
10.3564
11
3.27231
21
10.54
0
LINE
8
Black
10
3.27231
20
10.54
11
2.18769
21
10.54
0
LINE
8
Black
10
2.18769
20
10.54
11
2.03362
21
10.3564
0
LINE
8
Black
10
2.03362
20
10.3564
11
1.76522
21
10.2014
0
LINE
8
Black
10
1.76522
20
10.2014
11
1.46
21
10.1476
0
LINE
8
Black
10
1.46
20
10.1476
11
1.15478
21
10.2014
0
LINE
8
Black
10
1.15478
20
10.2014
11
0.886379
21
10.3564
0
LINE
8
Black
10
0.886379
20
10.3564
11
0.687162
21
10.5938
0
LINE
8
Black
10
0.687162
20
10.5938
11
0.581162
21
10.885
0
LINE
8
Black
10
0.581162
20
10.885
11
0.581162
21
11.195
0
LINE
8
Black
10
0.581162
20
11.195
11
0.687162
21
11.4862
0
LINE
8
Black
10
0.687162
20
11.4862
11
0.886379
21
11.7236
0
LINE
8
Black
10
0.886379
20
11.7236
11
1.15478
21
11.8786
0
LINE
8
Black
10
1.15478
20
11.8786
11
1.46
21
11.9324
0
LINE
8
Black
10
1.46
20
11.9324
11
1.76522
21
11.8786
0
LINE
8
Black
10
1.76522
20
11.8786
11
2.03362
21
11.7236
0
LINE
8
Black
10
2.03362
20
11.7236
11
2.18769
21
11.54
0
LINE
8
Black
10
2.18769
20
11.54
11
3.27231
21
11.54
0
LINE
8
Black
10
3.27231
20
11.54
11
3.42638
21
11.7236
0
LINE
8
Black
10
3.42638
20
11.7236
11
3.69478
21
11.8786
0
LINE
8
Black
10
3.69478
20
11.8786
11
4
21
11.9324
0
LINE
8
Black
10
4
20
11.9324
11
4.15752
21
11.9046
0
LINE
8
Black
10
4.15752
20
11.9046
11
6.87645
21
14.6236
0
LINE
8
Black
10
6.87645
20
14.6236
11
6.89447
21
14.6362
0
LINE
8
Black
10
6.89447
20
14.6362
11
6.90861
21
14.653
0
LINE
8
Black
10
6.90861
20
14.653
11
6.96518
21
14.6857
0
LINE
8
Black
10
6.96518
20
14.6857
11
7.01869
21
14.7232
0
LINE
8
Black
10
7.01869
20
14.7232
11
7.03994
21
14.7288
0
LINE
8
Black
10
7.03994
20
14.7288
11
7.05899
21
14.7398
0
LINE
8
Black
10
7.05899
20
14.7398
11
7.12332
21
14.7512
0
LINE
8
Black
10
7.12332
20
14.7512
11
7.18642
21
14.7681
0
LINE
8
Black
10
7.18642
20
14.7681
11
7.20834
21
14.7662
0
LINE
8
Black
10
7.20834
20
14.7662
11
7.23
21
14.77
0
LINE
8
Black
10
7.23
20
14.77
11
8.77231
21
14.77
0
LINE
8
Black
10
8.77231
20
14.77
11
8.92638
21
14.9536
0
LINE
8
Black
10
8.92638
20
14.9536
11
9.19478
21
15.1086
0
LINE
8
Black
10
9.19478
20
15.1086
11
9.5
21
15.1624
0
LINE
8
Black
10
9.5
20
15.1624
11
9.80522
21
15.1086
0
LINE
8
Black
10
16.8052
20
15.1086
11
17.0736
21
14.9536
0
LINE
8
Black
10
17.0736
20
14.9536
11
17.2277
21
14.77
0
LINE
8
Black
10
17.2277
20
14.77
11
19.73
21
14.77
0
LINE
8
Black
10
19.73
20
14.77
11
19.7517
21
14.7662
0
LINE
8
Black
10
19.7517
20
14.7662
11
19.7736
21
14.7681
0
LINE
8
Black
10
19.7736
20
14.7681
11
19.8367
21
14.7512
0
LINE
8
Black
10
19.8367
20
14.7512
11
19.901
21
14.7398
0
LINE
8
Black
10
19.901
20
14.7398
11
19.9201
21
14.7288
0
LINE
8
Black
10
19.9201
20
14.7288
11
19.9413
21
14.7232
0
LINE
8
Black
10
19.9413
20
14.7232
11
19.9948
21
14.6857
0
LINE
8
Black
10
19.9948
20
14.6857
11
20.0514
21
14.653
0
LINE
8
Black
10
20.0514
20
14.653
11
20.0655
21
14.6362
0
LINE
8
Black
10
20.0655
20
14.6362
11
20.0836
21
14.6236
0
LINE
8
Black
10
20.0836
20
14.6236
11
20.6271
21
14.08
0
LINE
8
Black
10
20.6271
20
14.08
11
22.5223
21
14.08
0
LINE
8
Black
10
22.5223
20
14.08
11
22.6764
21
14.2636
0
LINE
8
Black
10
22.6764
20
14.2636
11
22.9448
21
14.4186
0
LINE
8
Black
10
22.9448
20
14.4186
11
23.25
21
14.4724
0
LINE
8
Black
10
23.25
20
14.4724
11
23.5552
21
14.4186
0
LINE
8
Black
10
23.5552
20
14.4186
11
23.8236
21
14.2636
0
LINE
8
Black
10
23.8236
20
14.2636
11
24.0228
21
14.0262
0
LINE
8
Black
10
24.0228
20
14.0262
11
24.1288
21
13.735
0
LINE
8
Black
10
24.1288
20
13.735
11
24.1288
21
13.425
0
LINE
8
Black
10
24.1288
20
13.425
11
24.0228
21
13.1338
0
LINE
8
Black
10
24.0228
20
13.1338
11
23.8236
21
12.8964
0
LINE
8
Black
10
23.8236
20
12.8964
11
23.5552
21
12.7414
0
LINE
8
Black
10
23.5552
20
12.7414
11
23.25
21
12.6876
0
LINE
8
Black
10
23.25
20
12.6876
11
22.9448
21
12.7414
0
LINE
8
Black
10
22.9448
20
12.7414
11
22.6764
21
12.8964
0
LINE
8
Black
10
22.6764
20
12.8964
11
22.5223
21
13.08
0
LINE
8
Black
10
22.5223
20
13.08
11
20.42
21
13.08
0
LINE
8
Black
10
20.42
20
13.08
11
20.3983
21
13.0838
0
LINE
8
Black
10
20.3983
20
13.0838
11
20.3764
21
13.0819
0
LINE
8
Black
10
20.3764
20
13.0819
11
20.3133
21
13.0988
0
LINE
8
Black
10
20.3133
20
13.0988
11
20.249
21
13.1102
0
LINE
8
Black
10
20.249
20
13.1102
11
20.2299
21
13.1212
0
LINE
8
Black
10
20.2299
20
13.1212
11
20.2087
21
13.1268
0
LINE
8
Black
10
20.2087
20
13.1268
11
20.1552
21
13.1643
0
LINE
8
Black
10
20.1552
20
13.1643
11
20.0986
21
13.197
0
LINE
8
Black
10
20.0986
20
13.197
11
20.0845
21
13.2138
0
LINE
8
Black
10
20.0845
20
13.2138
11
20.0664
21
13.2264
0
LINE
8
Black
10
20.0664
20
13.2264
11
19.5229
21
13.77
0
LINE
8
Black
10
19.5229
20
13.77
11
17.2277
21
13.77
0
LINE
8
Black
10
17.2277
20
13.77
11
17.0736
21
13.5864
0
LINE
8
Black
10
17.0736
20
13.5864
11
16.8052
21
13.4314
0
LINE
8
Black
10
16.8052
20
13.4314
11
16.5
21
13.3776
0
LINE
8
Black
10
16.5
20
13.3776
11
16.1948
21
13.4314
0
LINE
8
Black
10
16.1948
20
13.4314
11
15.9264
21
13.5864
0
LINE
8
Black
10
15.9264
20
13.5864
11
15.7272
21
13.8238
0
LINE
8
Black
10
15.7272
20
13.8238
11
15.6212
21
14.115
0
LINE
8
Black
10
15.6212
20
14.115
11
15.6212
21
14.425
0
LINE
8
Black
10
15.6212
20
14.425
11
15.7272
21
14.7162
0
LINE
8
Black
10
15.7272
20
14.7162
11
15.9264
21
14.9536
0
LINE
8
Black
10
15.9264
20
14.9536
11
16.1948
21
15.1086
0
LINE
8
Black
10
16.1948
20
15.1086
11
16.5
21
15.1624
0
LINE
8
Black
10
16.5
20
15.1624
11
16.8052
21
15.1086
0
CIRCLE
8
Black
10
9.5
20
14.27
40
0.254
0
CIRCLE
8
Black
10
9.5
20
11.73
40
0.254
0
CIRCLE
8
Black
10
1.46
20
8.5
40
0.254
0
CIRCLE
8
Black
10
4
20
5.96
40
0.254
0
CIRCLE
8
Black
10
4
20
11.04
40
0.254
0
CIRCLE
8
Black
10
4
20
8.5
40
0.254
0
CIRCLE
8
Black
10
1.46
20
5.96
40
0.254
0
CIRCLE
8
Black
10
1.46
20
11.04
40
0.254
0
CIRCLE
8
Black
10
23.25
20
13.58
40
0.254
0
CIRCLE
8
Black
10
23.25
20
3.42
40
0.254
0
CIRCLE
8
Black
10
16.5
20
11.73
40
0.254
0
CIRCLE
8
Black
10
16.5
20
14.27
40
0.254
0
CIRCLE
8
Black
10
16.5
20
2.73
40
0.254
0
CIRCLE
8
Black
10
16.5
20
5.27
40
0.254
0
CIRCLE
8
Black
10
9.5
20
5.27
40
0.254
0
CIRCLE
8
Black
10
9.5
20
2.73
40
0.254
0
CIRCLE
8
Black
10
6.65
20
8.5
40
0.254
0
CIRCLE
8
Black
10
19.35
20
8.5
40
0.254
0
CIRCLE
8
Black
10
15.54
20
8.5
40
0.254
0
CIRCLE
8
Black
10
10.46
20
8.5
40
0.254
  0
ENDSEC
  0
EOF
