%TF.GenerationSoftware,KiCad,Pcbnew,4.0.6-e0-6349~53~ubuntu16.04.1*%
%TF.CreationDate,2017-05-19T12:33:35+05:30*%
%TF.ProjectId,MAP4,4D4150342E6B696361645F7063620000,1*%
%TF.FileFunction,Drawing*%
%FSLAX46Y46*%
G04 Gerber Fmt 4.6, Leading zero omitted, Abs format (unit mm)*
G04 Created by KiCad (PCBNEW 4.0.6-e0-6349~53~ubuntu16.04.1) date Fri May 19 12:33:35 2017*
%MOMM*%
%LPD*%
G01*
G04 APERTURE LIST*
%ADD10C,0.050800*%
%ADD11C,0.200000*%
%ADD12C,0.300000*%
G04 APERTURE END LIST*
D10*
D11*
X173260000Y-100180000D02*
X171990000Y-98910000D01*
X173260000Y-97640000D02*
X173260000Y-100180000D01*
X171990000Y-98910000D02*
X173260000Y-97640000D01*
X177070000Y-98910000D02*
X171990000Y-98910000D01*
X177070000Y-103990000D02*
X177070000Y-93830000D01*
X206280000Y-103990000D02*
X177070000Y-103990000D01*
X206280000Y-93830000D02*
X206280000Y-103990000D01*
X177070000Y-93830000D02*
X206280000Y-93830000D01*
D12*
X184861429Y-97527857D02*
X185075715Y-97599286D01*
X185147143Y-97670714D01*
X185218572Y-97813571D01*
X185218572Y-98027857D01*
X185147143Y-98170714D01*
X185075715Y-98242143D01*
X184932857Y-98313571D01*
X184361429Y-98313571D01*
X184361429Y-96813571D01*
X184861429Y-96813571D01*
X185004286Y-96885000D01*
X185075715Y-96956429D01*
X185147143Y-97099286D01*
X185147143Y-97242143D01*
X185075715Y-97385000D01*
X185004286Y-97456429D01*
X184861429Y-97527857D01*
X184361429Y-97527857D01*
X186575715Y-98313571D02*
X185861429Y-98313571D01*
X185861429Y-96813571D01*
X187004286Y-97885000D02*
X187718572Y-97885000D01*
X186861429Y-98313571D02*
X187361429Y-96813571D01*
X187861429Y-98313571D01*
X189218572Y-98170714D02*
X189147143Y-98242143D01*
X188932857Y-98313571D01*
X188790000Y-98313571D01*
X188575715Y-98242143D01*
X188432857Y-98099286D01*
X188361429Y-97956429D01*
X188290000Y-97670714D01*
X188290000Y-97456429D01*
X188361429Y-97170714D01*
X188432857Y-97027857D01*
X188575715Y-96885000D01*
X188790000Y-96813571D01*
X188932857Y-96813571D01*
X189147143Y-96885000D01*
X189218572Y-96956429D01*
X189861429Y-98313571D02*
X189861429Y-96813571D01*
X190718572Y-98313571D02*
X190075715Y-97456429D01*
X190718572Y-96813571D02*
X189861429Y-97670714D01*
X192504286Y-98313571D02*
X192504286Y-96813571D01*
X193004286Y-97885000D01*
X193504286Y-96813571D01*
X193504286Y-98313571D01*
X194147143Y-97885000D02*
X194861429Y-97885000D01*
X194004286Y-98313571D02*
X194504286Y-96813571D01*
X195004286Y-98313571D01*
X195432857Y-98242143D02*
X195647143Y-98313571D01*
X196004286Y-98313571D01*
X196147143Y-98242143D01*
X196218572Y-98170714D01*
X196290000Y-98027857D01*
X196290000Y-97885000D01*
X196218572Y-97742143D01*
X196147143Y-97670714D01*
X196004286Y-97599286D01*
X195718572Y-97527857D01*
X195575714Y-97456429D01*
X195504286Y-97385000D01*
X195432857Y-97242143D01*
X195432857Y-97099286D01*
X195504286Y-96956429D01*
X195575714Y-96885000D01*
X195718572Y-96813571D01*
X196075714Y-96813571D01*
X196290000Y-96885000D01*
X196932857Y-98313571D02*
X196932857Y-96813571D01*
X197790000Y-98313571D02*
X197147143Y-97456429D01*
X197790000Y-96813571D02*
X196932857Y-97670714D01*
X182682856Y-100149286D02*
X182682856Y-100863571D01*
X182182856Y-99363571D02*
X182682856Y-100149286D01*
X183182856Y-99363571D01*
X183682856Y-100077857D02*
X184182856Y-100077857D01*
X184397142Y-100863571D02*
X183682856Y-100863571D01*
X183682856Y-99363571D01*
X184397142Y-99363571D01*
X185754285Y-100863571D02*
X185039999Y-100863571D01*
X185039999Y-99363571D01*
X186968571Y-100863571D02*
X186254285Y-100863571D01*
X186254285Y-99363571D01*
X187754285Y-99363571D02*
X188039999Y-99363571D01*
X188182857Y-99435000D01*
X188325714Y-99577857D01*
X188397142Y-99863571D01*
X188397142Y-100363571D01*
X188325714Y-100649286D01*
X188182857Y-100792143D01*
X188039999Y-100863571D01*
X187754285Y-100863571D01*
X187611428Y-100792143D01*
X187468571Y-100649286D01*
X187397142Y-100363571D01*
X187397142Y-99863571D01*
X187468571Y-99577857D01*
X187611428Y-99435000D01*
X187754285Y-99363571D01*
X188897143Y-99363571D02*
X189254286Y-100863571D01*
X189540000Y-99792143D01*
X189825714Y-100863571D01*
X190182857Y-99363571D01*
X192611429Y-100863571D02*
X191897143Y-100863571D01*
X191897143Y-99363571D01*
X193111429Y-100077857D02*
X193611429Y-100077857D01*
X193825715Y-100863571D02*
X193111429Y-100863571D01*
X193111429Y-99363571D01*
X193825715Y-99363571D01*
X195254286Y-99435000D02*
X195111429Y-99363571D01*
X194897143Y-99363571D01*
X194682858Y-99435000D01*
X194540000Y-99577857D01*
X194468572Y-99720714D01*
X194397143Y-100006429D01*
X194397143Y-100220714D01*
X194468572Y-100506429D01*
X194540000Y-100649286D01*
X194682858Y-100792143D01*
X194897143Y-100863571D01*
X195040000Y-100863571D01*
X195254286Y-100792143D01*
X195325715Y-100720714D01*
X195325715Y-100220714D01*
X195040000Y-100220714D01*
X195968572Y-100077857D02*
X196468572Y-100077857D01*
X196682858Y-100863571D02*
X195968572Y-100863571D01*
X195968572Y-99363571D01*
X196682858Y-99363571D01*
X197325715Y-100863571D02*
X197325715Y-99363571D01*
X198182858Y-100863571D01*
X198182858Y-99363571D01*
X198897144Y-100863571D02*
X198897144Y-99363571D01*
X199254287Y-99363571D01*
X199468572Y-99435000D01*
X199611430Y-99577857D01*
X199682858Y-99720714D01*
X199754287Y-100006429D01*
X199754287Y-100220714D01*
X199682858Y-100506429D01*
X199611430Y-100649286D01*
X199468572Y-100792143D01*
X199254287Y-100863571D01*
X198897144Y-100863571D01*
X117828571Y-101499999D02*
X118828571Y-101499999D01*
X117257143Y-101857142D02*
X118328571Y-102214285D01*
X118328571Y-101285713D01*
X118828571Y-100642857D02*
X118828571Y-100357142D01*
X118757143Y-100214285D01*
X118685714Y-100142857D01*
X118471429Y-99999999D01*
X118185714Y-99928571D01*
X117614286Y-99928571D01*
X117471429Y-99999999D01*
X117400000Y-100071428D01*
X117328571Y-100214285D01*
X117328571Y-100499999D01*
X117400000Y-100642857D01*
X117471429Y-100714285D01*
X117614286Y-100785714D01*
X117971429Y-100785714D01*
X118114286Y-100714285D01*
X118185714Y-100642857D01*
X118257143Y-100499999D01*
X118257143Y-100214285D01*
X118185714Y-100071428D01*
X118114286Y-99999999D01*
X117971429Y-99928571D01*
X118685714Y-99285714D02*
X118757143Y-99214286D01*
X118828571Y-99285714D01*
X118757143Y-99357143D01*
X118685714Y-99285714D01*
X118828571Y-99285714D01*
X117328571Y-98285714D02*
X117328571Y-98142857D01*
X117400000Y-98000000D01*
X117471429Y-97928571D01*
X117614286Y-97857142D01*
X117900000Y-97785714D01*
X118257143Y-97785714D01*
X118542857Y-97857142D01*
X118685714Y-97928571D01*
X118757143Y-98000000D01*
X118828571Y-98142857D01*
X118828571Y-98285714D01*
X118757143Y-98428571D01*
X118685714Y-98500000D01*
X118542857Y-98571428D01*
X118257143Y-98642857D01*
X117900000Y-98642857D01*
X117614286Y-98571428D01*
X117471429Y-98500000D01*
X117400000Y-98428571D01*
X117328571Y-98285714D01*
X117328571Y-96857143D02*
X117328571Y-96714286D01*
X117400000Y-96571429D01*
X117471429Y-96500000D01*
X117614286Y-96428571D01*
X117900000Y-96357143D01*
X118257143Y-96357143D01*
X118542857Y-96428571D01*
X118685714Y-96500000D01*
X118757143Y-96571429D01*
X118828571Y-96714286D01*
X118828571Y-96857143D01*
X118757143Y-97000000D01*
X118685714Y-97071429D01*
X118542857Y-97142857D01*
X118257143Y-97214286D01*
X117900000Y-97214286D01*
X117614286Y-97142857D01*
X117471429Y-97071429D01*
X117400000Y-97000000D01*
X117328571Y-96857143D01*
X117328571Y-95428572D02*
X117328571Y-95285715D01*
X117400000Y-95142858D01*
X117471429Y-95071429D01*
X117614286Y-95000000D01*
X117900000Y-94928572D01*
X118257143Y-94928572D01*
X118542857Y-95000000D01*
X118685714Y-95071429D01*
X118757143Y-95142858D01*
X118828571Y-95285715D01*
X118828571Y-95428572D01*
X118757143Y-95571429D01*
X118685714Y-95642858D01*
X118542857Y-95714286D01*
X118257143Y-95785715D01*
X117900000Y-95785715D01*
X117614286Y-95714286D01*
X117471429Y-95642858D01*
X117400000Y-95571429D01*
X117328571Y-95428572D01*
X118828571Y-93142858D02*
X117828571Y-93142858D01*
X117971429Y-93142858D02*
X117900000Y-93071430D01*
X117828571Y-92928572D01*
X117828571Y-92714287D01*
X117900000Y-92571430D01*
X118042857Y-92500001D01*
X118828571Y-92500001D01*
X118042857Y-92500001D02*
X117900000Y-92428572D01*
X117828571Y-92285715D01*
X117828571Y-92071430D01*
X117900000Y-91928572D01*
X118042857Y-91857144D01*
X118828571Y-91857144D01*
X118828571Y-91142858D02*
X117828571Y-91142858D01*
X117971429Y-91142858D02*
X117900000Y-91071430D01*
X117828571Y-90928572D01*
X117828571Y-90714287D01*
X117900000Y-90571430D01*
X118042857Y-90500001D01*
X118828571Y-90500001D01*
X118042857Y-90500001D02*
X117900000Y-90428572D01*
X117828571Y-90285715D01*
X117828571Y-90071430D01*
X117900000Y-89928572D01*
X118042857Y-89857144D01*
X118828571Y-89857144D01*
X119500000Y-120500000D02*
X119500000Y-71500000D01*
X150000000Y-120500000D02*
X116800000Y-120500000D01*
X150000000Y-71500000D02*
X116800000Y-71500000D01*
X119500000Y-71500000D02*
X120086421Y-72626504D01*
X119500000Y-71500000D02*
X118913579Y-72626504D01*
X119500000Y-120500000D02*
X120086421Y-119373496D01*
X119500000Y-120500000D02*
X118913579Y-119373496D01*
X144571430Y-124528570D02*
X143857144Y-124528570D01*
X143785715Y-125242856D01*
X143857144Y-125171428D01*
X144000001Y-125099999D01*
X144357144Y-125099999D01*
X144500001Y-125171428D01*
X144571430Y-125242856D01*
X144642858Y-125385713D01*
X144642858Y-125742856D01*
X144571430Y-125885713D01*
X144500001Y-125957142D01*
X144357144Y-126028570D01*
X144000001Y-126028570D01*
X143857144Y-125957142D01*
X143785715Y-125885713D01*
X145571429Y-124528570D02*
X145714286Y-124528570D01*
X145857143Y-124599999D01*
X145928572Y-124671428D01*
X146000001Y-124814285D01*
X146071429Y-125099999D01*
X146071429Y-125457142D01*
X146000001Y-125742856D01*
X145928572Y-125885713D01*
X145857143Y-125957142D01*
X145714286Y-126028570D01*
X145571429Y-126028570D01*
X145428572Y-125957142D01*
X145357143Y-125885713D01*
X145285715Y-125742856D01*
X145214286Y-125457142D01*
X145214286Y-125099999D01*
X145285715Y-124814285D01*
X145357143Y-124671428D01*
X145428572Y-124599999D01*
X145571429Y-124528570D01*
X146714286Y-125885713D02*
X146785714Y-125957142D01*
X146714286Y-126028570D01*
X146642857Y-125957142D01*
X146714286Y-125885713D01*
X146714286Y-126028570D01*
X147714286Y-124528570D02*
X147857143Y-124528570D01*
X148000000Y-124599999D01*
X148071429Y-124671428D01*
X148142858Y-124814285D01*
X148214286Y-125099999D01*
X148214286Y-125457142D01*
X148142858Y-125742856D01*
X148071429Y-125885713D01*
X148000000Y-125957142D01*
X147857143Y-126028570D01*
X147714286Y-126028570D01*
X147571429Y-125957142D01*
X147500000Y-125885713D01*
X147428572Y-125742856D01*
X147357143Y-125457142D01*
X147357143Y-125099999D01*
X147428572Y-124814285D01*
X147500000Y-124671428D01*
X147571429Y-124599999D01*
X147714286Y-124528570D01*
X149142857Y-124528570D02*
X149285714Y-124528570D01*
X149428571Y-124599999D01*
X149500000Y-124671428D01*
X149571429Y-124814285D01*
X149642857Y-125099999D01*
X149642857Y-125457142D01*
X149571429Y-125742856D01*
X149500000Y-125885713D01*
X149428571Y-125957142D01*
X149285714Y-126028570D01*
X149142857Y-126028570D01*
X149000000Y-125957142D01*
X148928571Y-125885713D01*
X148857143Y-125742856D01*
X148785714Y-125457142D01*
X148785714Y-125099999D01*
X148857143Y-124814285D01*
X148928571Y-124671428D01*
X149000000Y-124599999D01*
X149142857Y-124528570D01*
X150571428Y-124528570D02*
X150714285Y-124528570D01*
X150857142Y-124599999D01*
X150928571Y-124671428D01*
X151000000Y-124814285D01*
X151071428Y-125099999D01*
X151071428Y-125457142D01*
X151000000Y-125742856D01*
X150928571Y-125885713D01*
X150857142Y-125957142D01*
X150714285Y-126028570D01*
X150571428Y-126028570D01*
X150428571Y-125957142D01*
X150357142Y-125885713D01*
X150285714Y-125742856D01*
X150214285Y-125457142D01*
X150214285Y-125099999D01*
X150285714Y-124814285D01*
X150357142Y-124671428D01*
X150428571Y-124599999D01*
X150571428Y-124528570D01*
X152857142Y-126028570D02*
X152857142Y-125028570D01*
X152857142Y-125171428D02*
X152928570Y-125099999D01*
X153071428Y-125028570D01*
X153285713Y-125028570D01*
X153428570Y-125099999D01*
X153499999Y-125242856D01*
X153499999Y-126028570D01*
X153499999Y-125242856D02*
X153571428Y-125099999D01*
X153714285Y-125028570D01*
X153928570Y-125028570D01*
X154071428Y-125099999D01*
X154142856Y-125242856D01*
X154142856Y-126028570D01*
X154857142Y-126028570D02*
X154857142Y-125028570D01*
X154857142Y-125171428D02*
X154928570Y-125099999D01*
X155071428Y-125028570D01*
X155285713Y-125028570D01*
X155428570Y-125099999D01*
X155499999Y-125242856D01*
X155499999Y-126028570D01*
X155499999Y-125242856D02*
X155571428Y-125099999D01*
X155714285Y-125028570D01*
X155928570Y-125028570D01*
X156071428Y-125099999D01*
X156142856Y-125242856D01*
X156142856Y-126028570D01*
X125000000Y-123999999D02*
X175000000Y-123999999D01*
X125000000Y-112500000D02*
X125000000Y-126699999D01*
X175000000Y-112500000D02*
X175000000Y-126699999D01*
X175000000Y-123999999D02*
X173873496Y-124586420D01*
X175000000Y-123999999D02*
X173873496Y-123413578D01*
X125000000Y-123999999D02*
X126126504Y-124586420D01*
X125000000Y-123999999D02*
X126126504Y-123413578D01*
M02*
