%TF.GenerationSoftware,KiCad,Pcbnew,4.0.6-e0-6349~53~ubuntu16.04.1*%
%TF.CreationDate,2017-05-16T14:29:19+05:30*%
%TF.ProjectId,MAP4,4D4150342E6B696361645F7063620000,1*%
%TF.FileFunction,Legend,Bot*%
%FSLAX46Y46*%
G04 Gerber Fmt 4.6, Leading zero omitted, Abs format (unit mm)*
G04 Created by KiCad (PCBNEW 4.0.6-e0-6349~53~ubuntu16.04.1) date Tue May 16 14:29:19 2017*
%MOMM*%
%LPD*%
G01*
G04 APERTURE LIST*
%ADD10C,0.050800*%
%ADD11C,0.200000*%
%ADD12C,0.250000*%
%ADD13C,0.300000*%
%ADD14C,0.203200*%
%ADD15C,0.127000*%
%ADD16C,0.075000*%
%ADD17C,0.002540*%
%ADD18C,0.101600*%
%ADD19C,0.114300*%
%ADD20C,0.150000*%
%ADD21C,6.496000*%
%ADD22R,1.400000X1.850000*%
%ADD23C,2.000000*%
%ADD24C,1.800000*%
%ADD25C,2.900000*%
%ADD26C,2.200000*%
G04 APERTURE END LIST*
D10*
D11*
X33928573Y4897619D02*
X33928573Y5564286D01*
X33928573Y5897619D02*
X33976192Y5850000D01*
X33928573Y5802381D01*
X33880954Y5850000D01*
X33928573Y5897619D01*
X33928573Y5802381D01*
X33595240Y5564286D02*
X33214288Y5564286D01*
X33452383Y4897619D02*
X33452383Y5754762D01*
X33404764Y5850000D01*
X33309526Y5897619D01*
X33214288Y5897619D01*
X32119049Y4897619D02*
X32119049Y5564286D01*
X32119049Y5897619D02*
X32166668Y5850000D01*
X32119049Y5802381D01*
X32071430Y5850000D01*
X32119049Y5897619D01*
X32119049Y5802381D01*
X31785716Y5564286D02*
X31404764Y5564286D01*
X31642859Y5897619D02*
X31642859Y5040476D01*
X31595240Y4945238D01*
X31500002Y4897619D01*
X31404764Y4897619D01*
X30357144Y4945238D02*
X30261906Y4897619D01*
X30071430Y4897619D01*
X29976191Y4945238D01*
X29928572Y5040476D01*
X29928572Y5088095D01*
X29976191Y5183333D01*
X30071430Y5230952D01*
X30214287Y5230952D01*
X30309525Y5278571D01*
X30357144Y5373810D01*
X30357144Y5421429D01*
X30309525Y5516667D01*
X30214287Y5564286D01*
X30071430Y5564286D01*
X29976191Y5516667D01*
X29500001Y4897619D02*
X29500001Y5564286D01*
X29500001Y5469048D02*
X29452382Y5516667D01*
X29357144Y5564286D01*
X29214286Y5564286D01*
X29119048Y5516667D01*
X29071429Y5421429D01*
X29071429Y4897619D01*
X29071429Y5421429D02*
X29023810Y5516667D01*
X28928572Y5564286D01*
X28785715Y5564286D01*
X28690477Y5516667D01*
X28642858Y5421429D01*
X28642858Y4897619D01*
X27785715Y4945238D02*
X27880953Y4897619D01*
X28071430Y4897619D01*
X28166668Y4945238D01*
X28214287Y5040476D01*
X28214287Y5421429D01*
X28166668Y5516667D01*
X28071430Y5564286D01*
X27880953Y5564286D01*
X27785715Y5516667D01*
X27738096Y5421429D01*
X27738096Y5326190D01*
X28214287Y5230952D01*
X27166668Y4897619D02*
X27261906Y4945238D01*
X27309525Y5040476D01*
X27309525Y5897619D01*
X26642858Y4897619D02*
X26738096Y4945238D01*
X26785715Y5040476D01*
X26785715Y5897619D01*
X26309524Y4945238D02*
X26214286Y4897619D01*
X26023810Y4897619D01*
X25928571Y4945238D01*
X25880952Y5040476D01*
X25880952Y5088095D01*
X25928571Y5183333D01*
X26023810Y5230952D01*
X26166667Y5230952D01*
X26261905Y5278571D01*
X26309524Y5373810D01*
X26309524Y5421429D01*
X26261905Y5516667D01*
X26166667Y5564286D01*
X26023810Y5564286D01*
X25928571Y5516667D01*
X24547619Y4897619D02*
X24642857Y4945238D01*
X24690476Y5040476D01*
X24690476Y5897619D01*
X24166666Y4897619D02*
X24166666Y5564286D01*
X24166666Y5897619D02*
X24214285Y5850000D01*
X24166666Y5802381D01*
X24119047Y5850000D01*
X24166666Y5897619D01*
X24166666Y5802381D01*
X23690476Y4897619D02*
X23690476Y5897619D01*
X23595238Y5278571D02*
X23309523Y4897619D01*
X23309523Y5564286D02*
X23690476Y5183333D01*
X22499999Y4945238D02*
X22595237Y4897619D01*
X22785714Y4897619D01*
X22880952Y4945238D01*
X22928571Y5040476D01*
X22928571Y5421429D01*
X22880952Y5516667D01*
X22785714Y5564286D01*
X22595237Y5564286D01*
X22499999Y5516667D01*
X22452380Y5421429D01*
X22452380Y5326190D01*
X22928571Y5230952D01*
X20833332Y4945238D02*
X20928570Y4897619D01*
X21119047Y4897619D01*
X21214285Y4945238D01*
X21261904Y4992857D01*
X21309523Y5088095D01*
X21309523Y5373810D01*
X21261904Y5469048D01*
X21214285Y5516667D01*
X21119047Y5564286D01*
X20928570Y5564286D01*
X20833332Y5516667D01*
X20404761Y4897619D02*
X20404761Y5897619D01*
X19976189Y4897619D02*
X19976189Y5421429D01*
X20023808Y5516667D01*
X20119046Y5564286D01*
X20261904Y5564286D01*
X20357142Y5516667D01*
X20404761Y5469048D01*
X19499999Y4897619D02*
X19499999Y5564286D01*
X19499999Y5897619D02*
X19547618Y5850000D01*
X19499999Y5802381D01*
X19452380Y5850000D01*
X19499999Y5897619D01*
X19499999Y5802381D01*
X18595237Y4945238D02*
X18690475Y4897619D01*
X18880952Y4897619D01*
X18976190Y4945238D01*
X19023809Y4992857D01*
X19071428Y5088095D01*
X19071428Y5373810D01*
X19023809Y5469048D01*
X18976190Y5516667D01*
X18880952Y5564286D01*
X18690475Y5564286D01*
X18595237Y5516667D01*
X18166666Y4897619D02*
X18166666Y5897619D01*
X18071428Y5278571D02*
X17785713Y4897619D01*
X17785713Y5564286D02*
X18166666Y5183333D01*
X16976189Y4945238D02*
X17071427Y4897619D01*
X17261904Y4897619D01*
X17357142Y4945238D01*
X17404761Y5040476D01*
X17404761Y5421429D01*
X17357142Y5516667D01*
X17261904Y5564286D01*
X17071427Y5564286D01*
X16976189Y5516667D01*
X16928570Y5421429D01*
X16928570Y5326190D01*
X17404761Y5230952D01*
X16499999Y5564286D02*
X16499999Y4897619D01*
X16499999Y5469048D02*
X16452380Y5516667D01*
X16357142Y5564286D01*
X16214284Y5564286D01*
X16119046Y5516667D01*
X16071427Y5421429D01*
X16071427Y4897619D01*
X34357144Y3864286D02*
X34119049Y3197619D01*
X33880953Y3864286D02*
X34119049Y3197619D01*
X34214287Y2959524D01*
X34261906Y2911905D01*
X34357144Y2864286D01*
X33357144Y3197619D02*
X33452382Y3245238D01*
X33500001Y3292857D01*
X33547620Y3388095D01*
X33547620Y3673810D01*
X33500001Y3769048D01*
X33452382Y3816667D01*
X33357144Y3864286D01*
X33214286Y3864286D01*
X33119048Y3816667D01*
X33071429Y3769048D01*
X33023810Y3673810D01*
X33023810Y3388095D01*
X33071429Y3292857D01*
X33119048Y3245238D01*
X33214286Y3197619D01*
X33357144Y3197619D01*
X32166667Y3864286D02*
X32166667Y3197619D01*
X32595239Y3864286D02*
X32595239Y3340476D01*
X32547620Y3245238D01*
X32452382Y3197619D01*
X32309524Y3197619D01*
X32214286Y3245238D01*
X32166667Y3292857D01*
X31642858Y4197619D02*
X31738096Y4007143D01*
X31214287Y3197619D02*
X31214287Y3864286D01*
X31214287Y3673810D02*
X31166668Y3769048D01*
X31119049Y3816667D01*
X31023811Y3864286D01*
X30928572Y3864286D01*
X30214286Y3245238D02*
X30309524Y3197619D01*
X30500001Y3197619D01*
X30595239Y3245238D01*
X30642858Y3340476D01*
X30642858Y3721429D01*
X30595239Y3816667D01*
X30500001Y3864286D01*
X30309524Y3864286D01*
X30214286Y3816667D01*
X30166667Y3721429D01*
X30166667Y3626190D01*
X30642858Y3530952D01*
X28976191Y3197619D02*
X28976191Y4197619D01*
X28547619Y3197619D02*
X28547619Y3721429D01*
X28595238Y3816667D01*
X28690476Y3864286D01*
X28833334Y3864286D01*
X28928572Y3816667D01*
X28976191Y3769048D01*
X27928572Y3197619D02*
X28023810Y3245238D01*
X28071429Y3292857D01*
X28119048Y3388095D01*
X28119048Y3673810D01*
X28071429Y3769048D01*
X28023810Y3816667D01*
X27928572Y3864286D01*
X27785714Y3864286D01*
X27690476Y3816667D01*
X27642857Y3769048D01*
X27595238Y3673810D01*
X27595238Y3388095D01*
X27642857Y3292857D01*
X27690476Y3245238D01*
X27785714Y3197619D01*
X27928572Y3197619D01*
X27023810Y3197619D02*
X27119048Y3245238D01*
X27166667Y3340476D01*
X27166667Y4197619D01*
X26214285Y3197619D02*
X26214285Y4197619D01*
X26214285Y3245238D02*
X26309523Y3197619D01*
X26500000Y3197619D01*
X26595238Y3245238D01*
X26642857Y3292857D01*
X26690476Y3388095D01*
X26690476Y3673810D01*
X26642857Y3769048D01*
X26595238Y3816667D01*
X26500000Y3864286D01*
X26309523Y3864286D01*
X26214285Y3816667D01*
X25738095Y3197619D02*
X25738095Y3864286D01*
X25738095Y4197619D02*
X25785714Y4150000D01*
X25738095Y4102381D01*
X25690476Y4150000D01*
X25738095Y4197619D01*
X25738095Y4102381D01*
X25261905Y3864286D02*
X25261905Y3197619D01*
X25261905Y3769048D02*
X25214286Y3816667D01*
X25119048Y3864286D01*
X24976190Y3864286D01*
X24880952Y3816667D01*
X24833333Y3721429D01*
X24833333Y3197619D01*
X23928571Y3864286D02*
X23928571Y3054762D01*
X23976190Y2959524D01*
X24023809Y2911905D01*
X24119048Y2864286D01*
X24261905Y2864286D01*
X24357143Y2911905D01*
X23928571Y3245238D02*
X24023809Y3197619D01*
X24214286Y3197619D01*
X24309524Y3245238D01*
X24357143Y3292857D01*
X24404762Y3388095D01*
X24404762Y3673810D01*
X24357143Y3769048D01*
X24309524Y3816667D01*
X24214286Y3864286D01*
X24023809Y3864286D01*
X23928571Y3816667D01*
X22690476Y3197619D02*
X22690476Y3864286D01*
X22690476Y4197619D02*
X22738095Y4150000D01*
X22690476Y4102381D01*
X22642857Y4150000D01*
X22690476Y4197619D01*
X22690476Y4102381D01*
X22357143Y3864286D02*
X21976191Y3864286D01*
X22214286Y4197619D02*
X22214286Y3340476D01*
X22166667Y3245238D01*
X22071429Y3197619D01*
X21976191Y3197619D01*
X20976190Y3864286D02*
X20785714Y3197619D01*
X20595237Y3673810D01*
X20404761Y3197619D01*
X20214285Y3864286D01*
X19833333Y3197619D02*
X19833333Y3864286D01*
X19833333Y3673810D02*
X19785714Y3769048D01*
X19738095Y3816667D01*
X19642857Y3864286D01*
X19547618Y3864286D01*
X19071428Y3197619D02*
X19166666Y3245238D01*
X19214285Y3292857D01*
X19261904Y3388095D01*
X19261904Y3673810D01*
X19214285Y3769048D01*
X19166666Y3816667D01*
X19071428Y3864286D01*
X18928570Y3864286D01*
X18833332Y3816667D01*
X18785713Y3769048D01*
X18738094Y3673810D01*
X18738094Y3388095D01*
X18785713Y3292857D01*
X18833332Y3245238D01*
X18928570Y3197619D01*
X19071428Y3197619D01*
X18309523Y3864286D02*
X18309523Y3197619D01*
X18309523Y3769048D02*
X18261904Y3816667D01*
X18166666Y3864286D01*
X18023808Y3864286D01*
X17928570Y3816667D01*
X17880951Y3721429D01*
X17880951Y3197619D01*
X16976189Y3864286D02*
X16976189Y3054762D01*
X17023808Y2959524D01*
X17071427Y2911905D01*
X17166666Y2864286D01*
X17309523Y2864286D01*
X17404761Y2911905D01*
X16976189Y3245238D02*
X17071427Y3197619D01*
X17261904Y3197619D01*
X17357142Y3245238D01*
X17404761Y3292857D01*
X17452380Y3388095D01*
X17452380Y3673810D01*
X17404761Y3769048D01*
X17357142Y3816667D01*
X17261904Y3864286D01*
X17071427Y3864286D01*
X16976189Y3816667D01*
X15738094Y3292857D02*
X15690475Y3245238D01*
X15738094Y3197619D01*
X15785713Y3245238D01*
X15738094Y3292857D01*
X15738094Y3197619D01*
X15738094Y3578571D02*
X15785713Y4150000D01*
X15738094Y4197619D01*
X15690475Y4150000D01*
X15738094Y3578571D01*
X15738094Y4197619D01*
X19000000Y25000000D02*
X31000000Y25000000D01*
X19000000Y16000000D02*
X19000000Y25000000D01*
X31000000Y16000000D02*
X19000000Y16000000D01*
X31000000Y25000000D02*
X31000000Y16000000D01*
D12*
X30000000Y28056548D02*
X29821428Y27997024D01*
X29523809Y27997024D01*
X29404762Y28056548D01*
X29345238Y28116071D01*
X29285714Y28235119D01*
X29285714Y28354167D01*
X29345238Y28473214D01*
X29404762Y28532738D01*
X29523809Y28592262D01*
X29761905Y28651786D01*
X29880952Y28711310D01*
X29940476Y28770833D01*
X30000000Y28889881D01*
X30000000Y29008929D01*
X29940476Y29127976D01*
X29880952Y29187500D01*
X29761905Y29247024D01*
X29464285Y29247024D01*
X29285714Y29187500D01*
X28750000Y27997024D02*
X28750000Y29247024D01*
X28273809Y29247024D01*
X28154762Y29187500D01*
X28095238Y29127976D01*
X28035714Y29008929D01*
X28035714Y28830357D01*
X28095238Y28711310D01*
X28154762Y28651786D01*
X28273809Y28592262D01*
X28750000Y28592262D01*
X27559524Y28354167D02*
X26964286Y28354167D01*
X27678571Y27997024D02*
X27261905Y29247024D01*
X26845238Y27997024D01*
X25714285Y28116071D02*
X25773809Y28056548D01*
X25952380Y27997024D01*
X26071428Y27997024D01*
X26250000Y28056548D01*
X26369047Y28175595D01*
X26428571Y28294643D01*
X26488095Y28532738D01*
X26488095Y28711310D01*
X26428571Y28949405D01*
X26369047Y29068452D01*
X26250000Y29187500D01*
X26071428Y29247024D01*
X25952380Y29247024D01*
X25773809Y29187500D01*
X25714285Y29127976D01*
X25178571Y28651786D02*
X24761904Y28651786D01*
X24583333Y27997024D02*
X25178571Y27997024D01*
X25178571Y29247024D01*
X24583333Y29247024D01*
X22678571Y28651786D02*
X23095238Y28651786D01*
X23095238Y27997024D02*
X23095238Y29247024D01*
X22500000Y29247024D01*
X21785714Y29247024D02*
X21547618Y29247024D01*
X21428571Y29187500D01*
X21309523Y29068452D01*
X21249999Y28830357D01*
X21249999Y28413690D01*
X21309523Y28175595D01*
X21428571Y28056548D01*
X21547618Y27997024D01*
X21785714Y27997024D01*
X21904761Y28056548D01*
X22023809Y28175595D01*
X22083333Y28413690D01*
X22083333Y28830357D01*
X22023809Y29068452D01*
X21904761Y29187500D01*
X21785714Y29247024D01*
X19999999Y27997024D02*
X20416666Y28592262D01*
X20714285Y27997024D02*
X20714285Y29247024D01*
X20238094Y29247024D01*
X20119047Y29187500D01*
X20059523Y29127976D01*
X19999999Y29008929D01*
X19999999Y28830357D01*
X20059523Y28711310D01*
X20119047Y28651786D01*
X20238094Y28592262D01*
X20714285Y28592262D01*
X30000000Y26526786D02*
X29583333Y26526786D01*
X29404762Y25872024D02*
X30000000Y25872024D01*
X30000000Y27122024D01*
X29404762Y27122024D01*
X29047619Y27122024D02*
X28333334Y27122024D01*
X28690477Y25872024D02*
X28690477Y27122024D01*
X27678572Y27122024D02*
X27440476Y27122024D01*
X27321429Y27062500D01*
X27202381Y26943452D01*
X27142857Y26705357D01*
X27142857Y26288690D01*
X27202381Y26050595D01*
X27321429Y25931548D01*
X27440476Y25872024D01*
X27678572Y25872024D01*
X27797619Y25931548D01*
X27916667Y26050595D01*
X27976191Y26288690D01*
X27976191Y26705357D01*
X27916667Y26943452D01*
X27797619Y27062500D01*
X27678572Y27122024D01*
X26607143Y25872024D02*
X26607143Y27122024D01*
X25892857Y25872024D02*
X26428572Y26586310D01*
X25892857Y27122024D02*
X26607143Y26407738D01*
X24404762Y25872024D02*
X24404762Y27122024D01*
X23988095Y26229167D01*
X23571429Y27122024D01*
X23571429Y25872024D01*
X23035715Y26229167D02*
X22440477Y26229167D01*
X23154762Y25872024D02*
X22738096Y27122024D01*
X22321429Y25872024D01*
X21190476Y25872024D02*
X21607143Y26467262D01*
X21904762Y25872024D02*
X21904762Y27122024D01*
X21428571Y27122024D01*
X21309524Y27062500D01*
X21250000Y27002976D01*
X21190476Y26883929D01*
X21190476Y26705357D01*
X21250000Y26586310D01*
X21309524Y26526786D01*
X21428571Y26467262D01*
X21904762Y26467262D01*
X20654762Y25872024D02*
X20654762Y27122024D01*
X19940476Y25872024D02*
X20476191Y26586310D01*
X19940476Y27122024D02*
X20654762Y26407738D01*
D11*
X14761904Y25214286D02*
X15000000Y25214286D01*
X15000000Y26642857D01*
X14761904Y26642857D01*
X14380952Y25928571D02*
X13619047Y25928571D01*
X13999999Y25547619D02*
X13999999Y26309524D01*
X13238095Y25214286D02*
X13000000Y25214286D01*
X13000000Y26642857D01*
X13238095Y26642857D01*
X38261904Y22214286D02*
X38500000Y22214286D01*
X38500000Y23642857D01*
X38261904Y23642857D01*
X37880952Y22928571D02*
X37119047Y22928571D01*
X36738095Y22214286D02*
X36500000Y22214286D01*
X36500000Y23642857D01*
X36738095Y23642857D01*
D13*
X33535714Y7321429D02*
X33535714Y8821429D01*
X30821428Y7464286D02*
X30892857Y7392857D01*
X31107143Y7321429D01*
X31250000Y7321429D01*
X31464285Y7392857D01*
X31607143Y7535714D01*
X31678571Y7678571D01*
X31750000Y7964286D01*
X31750000Y8178571D01*
X31678571Y8464286D01*
X31607143Y8607143D01*
X31464285Y8750000D01*
X31250000Y8821429D01*
X31107143Y8821429D01*
X30892857Y8750000D01*
X30821428Y8678571D01*
X30250000Y7750000D02*
X29535714Y7750000D01*
X30392857Y7321429D02*
X29892857Y8821429D01*
X29392857Y7321429D01*
X28892857Y7321429D02*
X28892857Y8821429D01*
X28035714Y7321429D01*
X28035714Y8821429D01*
X26250000Y7392857D02*
X26035714Y7321429D01*
X25678571Y7321429D01*
X25535714Y7392857D01*
X25464285Y7464286D01*
X25392857Y7607143D01*
X25392857Y7750000D01*
X25464285Y7892857D01*
X25535714Y7964286D01*
X25678571Y8035714D01*
X25964285Y8107143D01*
X26107143Y8178571D01*
X26178571Y8250000D01*
X26250000Y8392857D01*
X26250000Y8535714D01*
X26178571Y8678571D01*
X26107143Y8750000D01*
X25964285Y8821429D01*
X25607143Y8821429D01*
X25392857Y8750000D01*
X24464286Y8821429D02*
X24178572Y8821429D01*
X24035714Y8750000D01*
X23892857Y8607143D01*
X23821429Y8321429D01*
X23821429Y7821429D01*
X23892857Y7535714D01*
X24035714Y7392857D01*
X24178572Y7321429D01*
X24464286Y7321429D01*
X24607143Y7392857D01*
X24750000Y7535714D01*
X24821429Y7821429D01*
X24821429Y8321429D01*
X24750000Y8607143D01*
X24607143Y8750000D01*
X24464286Y8821429D01*
X22464285Y7321429D02*
X23178571Y7321429D01*
X23178571Y8821429D01*
X21964285Y7321429D02*
X21964285Y8821429D01*
X21607142Y8821429D01*
X21392857Y8750000D01*
X21249999Y8607143D01*
X21178571Y8464286D01*
X21107142Y8178571D01*
X21107142Y7964286D01*
X21178571Y7678571D01*
X21249999Y7535714D01*
X21392857Y7392857D01*
X21607142Y7321429D01*
X21964285Y7321429D01*
X20464285Y8107143D02*
X19964285Y8107143D01*
X19749999Y7321429D02*
X20464285Y7321429D01*
X20464285Y8821429D01*
X19749999Y8821429D01*
X18249999Y7321429D02*
X18749999Y8035714D01*
X19107142Y7321429D02*
X19107142Y8821429D01*
X18535714Y8821429D01*
X18392856Y8750000D01*
X18321428Y8678571D01*
X18249999Y8535714D01*
X18249999Y8321429D01*
X18321428Y8178571D01*
X18392856Y8107143D01*
X18535714Y8035714D01*
X19107142Y8035714D01*
X16464285Y7464286D02*
X16392857Y7392857D01*
X16464285Y7321429D01*
X16535714Y7392857D01*
X16464285Y7464286D01*
X16464285Y7321429D01*
X16464285Y7892857D02*
X16535714Y8750000D01*
X16464285Y8821429D01*
X16392857Y8750000D01*
X16464285Y7892857D01*
X16464285Y8821429D01*
X10787049Y31556066D02*
X9488011Y32306066D01*
X10165895Y31337339D01*
X8988011Y31440040D01*
X10287049Y30690040D01*
X9594467Y30347595D02*
X9237324Y29729005D01*
X10037049Y30257028D02*
X8488011Y30574015D01*
X9537049Y29391002D01*
X9287049Y28957989D02*
X7988011Y29707989D01*
X7702297Y29213118D01*
X7692727Y29053685D01*
X7718872Y28956112D01*
X7806876Y28822824D01*
X7992452Y28715682D01*
X8151885Y28706112D01*
X8249457Y28732257D01*
X8382746Y28820261D01*
X8668460Y29315132D01*
X7349595Y27602221D02*
X8215620Y27102221D01*
X7033295Y28197230D02*
X8139751Y27970811D01*
X7675465Y27166644D01*
X17423986Y37951578D02*
X16124948Y38701578D01*
X17102558Y37394848D02*
X16422109Y37787705D01*
X16334106Y37920993D01*
X16343675Y38080425D01*
X16450818Y38266001D01*
X16584106Y38354005D01*
X16681679Y38380149D01*
X15986532Y37461835D02*
X15700818Y36966963D01*
X15446377Y37526258D02*
X16559838Y36883400D01*
X16647842Y36750114D01*
X16638272Y36590681D01*
X16566843Y36466963D01*
X15557961Y36719527D02*
X15272246Y36224655D01*
X15017805Y36783950D02*
X16131267Y36141093D01*
X16219271Y36007806D01*
X16209700Y35848373D01*
X16138272Y35724655D01*
X15022246Y35791643D02*
X16321284Y35041643D01*
X15084106Y35755928D02*
X14950818Y35667925D01*
X14807961Y35420489D01*
X14798392Y35261057D01*
X14824536Y35163483D01*
X14912540Y35030195D01*
X15283693Y34815910D01*
X15443125Y34806341D01*
X15540699Y34832486D01*
X15673986Y34920489D01*
X15816843Y35167925D01*
X15826413Y35327357D01*
X15183556Y34213896D02*
X15173986Y34054464D01*
X15031129Y33807028D01*
X14897842Y33719024D01*
X14738410Y33728594D01*
X14676551Y33764308D01*
X14588547Y33897595D01*
X14598116Y34057028D01*
X14705259Y34242605D01*
X14714829Y34402036D01*
X14626826Y34535324D01*
X14564966Y34571039D01*
X14405534Y34580608D01*
X14272246Y34492605D01*
X14165103Y34307028D01*
X14155534Y34147595D01*
X14478839Y33136148D02*
X14504985Y33038575D01*
X14602557Y33064720D01*
X14576413Y33162293D01*
X14478839Y33136148D01*
X14602557Y33064720D01*
X13798391Y33529005D02*
X13824536Y33431432D01*
X13922109Y33457577D01*
X13895965Y33555150D01*
X13798391Y33529005D01*
X13922109Y33457577D01*
X12348804Y32303960D02*
X14661852Y32453136D01*
X11563089Y30943063D02*
X13876138Y31092238D01*
X11486531Y29667605D02*
X12538134Y29060462D01*
X12697566Y29050893D01*
X12795139Y29077037D01*
X12928426Y29165040D01*
X13035569Y29350617D01*
X13045139Y29510049D01*
X12290698Y29203319D02*
X12423985Y29291323D01*
X12566842Y29538758D01*
X12576413Y29698191D01*
X12550267Y29795764D01*
X12462264Y29929052D01*
X12091111Y30143337D01*
X11931678Y30152906D01*
X11834105Y30126762D01*
X11700817Y30038758D01*
X11557960Y29791323D01*
X11548391Y29631890D01*
X11995414Y28549015D02*
X11129388Y29049015D01*
X10696376Y29299015D02*
X10793949Y29325160D01*
X10820094Y29227586D01*
X10722521Y29201442D01*
X10696376Y29299015D01*
X10820094Y29227586D01*
X10879388Y28616002D02*
X10593674Y28121130D01*
X10339233Y28680425D02*
X11452694Y28037568D01*
X11540698Y27904281D01*
X11531128Y27744848D01*
X11459699Y27621130D01*
X11085981Y27259546D02*
X11112127Y27161973D01*
X11209699Y27188117D01*
X11183555Y27285691D01*
X11085981Y27259546D01*
X11209699Y27188117D01*
X10852556Y26569528D02*
X9986531Y27069528D01*
X9553518Y27319528D02*
X9651092Y27345672D01*
X9677237Y27248099D01*
X9579663Y27221955D01*
X9553518Y27319528D01*
X9677237Y27248099D01*
X10388270Y25765361D02*
X10397841Y25924793D01*
X10371695Y26022366D01*
X10283692Y26155654D01*
X9912539Y26369940D01*
X9753106Y26379509D01*
X9655533Y26353365D01*
X9522245Y26265361D01*
X9415102Y26079784D01*
X9405533Y25920352D01*
X9431678Y25822778D01*
X9519681Y25689490D01*
X9890835Y25475205D01*
X10050267Y25465636D01*
X10147841Y25491781D01*
X10281128Y25579784D01*
X10388270Y25765361D01*
X7920231Y24633448D02*
X10233280Y24782623D01*
X8236530Y24038438D02*
X8923984Y23229143D01*
X7879388Y23419849D01*
X8352556Y22239400D02*
X8362126Y22398832D01*
X8335981Y22496405D01*
X8247978Y22629693D01*
X7876824Y22843979D01*
X7717392Y22853548D01*
X7619819Y22827404D01*
X7486530Y22739400D01*
X7379388Y22553824D01*
X7369819Y22394391D01*
X7395963Y22296817D01*
X7483967Y22163530D01*
X7855120Y21949244D01*
X8014552Y21939675D01*
X8112126Y21965820D01*
X8245413Y22053824D01*
X8352556Y22239400D01*
X6915102Y21749657D02*
X7781127Y21249657D01*
X7038820Y21678228D02*
X6941247Y21652084D01*
X6807959Y21564079D01*
X6700816Y21378503D01*
X6691247Y21219071D01*
X6779250Y21085783D01*
X7459699Y20692926D01*
X5446375Y20205746D02*
X5803518Y20824336D01*
X6457822Y20529053D01*
X6360249Y20502907D01*
X6226961Y20414904D01*
X6048390Y20105609D01*
X6038820Y19946177D01*
X6064964Y19848603D01*
X6152968Y19715316D01*
X6462263Y19536745D01*
X6621695Y19527175D01*
X6719269Y19553320D01*
X6852556Y19641324D01*
X7031127Y19950618D01*
X7040697Y20110050D01*
X7014552Y20207624D01*
X5593673Y19460875D02*
X6316842Y18713440D01*
X5555396Y18823147D01*
X6031127Y18218568D01*
X5022245Y18471132D01*
X43437340Y19183954D02*
X44303366Y19683954D01*
X44179647Y19612525D02*
X44205792Y19710098D01*
X44196223Y19869531D01*
X44089080Y20055107D01*
X43955792Y20143111D01*
X43796360Y20133542D01*
X43115912Y19740685D01*
X43796360Y20133542D02*
X43884363Y20266829D01*
X43874794Y20426262D01*
X43767652Y20611838D01*
X43634363Y20699842D01*
X43474932Y20690272D01*
X42794483Y20297415D01*
X42115912Y21472735D02*
X42796360Y21865592D01*
X42955792Y21875162D01*
X43089080Y21787158D01*
X43231937Y21539723D01*
X43241506Y21380290D01*
X42177770Y21508449D02*
X42187340Y21349018D01*
X42365912Y21039723D01*
X42499199Y20951719D01*
X42658631Y20961288D01*
X42782349Y21032717D01*
X42870353Y21166005D01*
X42860783Y21325437D01*
X42682211Y21634732D01*
X42672642Y21794164D01*
X41758769Y22091325D02*
X43057807Y22841325D01*
X42182211Y22500757D02*
X41473055Y22586196D01*
X42339080Y23086196D02*
X42129922Y22305611D01*
X40927770Y23673513D02*
X40937340Y23514081D01*
X41080197Y23266646D01*
X41213484Y23178642D01*
X41372917Y23188211D01*
X41867789Y23473925D01*
X41955792Y23607213D01*
X41946223Y23766646D01*
X41803366Y24014081D01*
X41670078Y24102084D01*
X41510646Y24092515D01*
X41386928Y24021087D01*
X41620353Y23331068D01*
X40508769Y24256389D02*
X41374794Y24756389D01*
X41127358Y24613531D02*
X41215362Y24746818D01*
X41241506Y24844392D01*
X41231937Y25003824D01*
X41160509Y25127542D01*
X40142056Y25034409D02*
X40008769Y25122413D01*
X39865912Y25369850D01*
X39856342Y25529282D01*
X39944346Y25662568D01*
X40006205Y25698283D01*
X40165637Y25707853D01*
X40298924Y25619850D01*
X40406067Y25434273D01*
X40539354Y25346269D01*
X40698787Y25355838D01*
X40760646Y25391552D01*
X40848649Y25524840D01*
X40839080Y25684273D01*
X40731937Y25869850D01*
X40598649Y25957853D01*
X39115912Y26668888D02*
X39796360Y27061745D01*
X39955792Y27071314D01*
X40089080Y26983311D01*
X40231937Y26735875D01*
X40241506Y26576443D01*
X39177770Y26704602D02*
X39187340Y26545170D01*
X39365912Y26235875D01*
X39499199Y26147871D01*
X39658631Y26157441D01*
X39782349Y26228869D01*
X39870353Y26362157D01*
X39860783Y26521589D01*
X39682211Y26830884D01*
X39672642Y26990316D01*
X38856342Y27261332D02*
X38723055Y27349336D01*
X38580197Y27596773D01*
X38570627Y27756204D01*
X38658631Y27889491D01*
X38720490Y27925206D01*
X38879922Y27934776D01*
X39013210Y27846773D01*
X39120353Y27661195D01*
X39253640Y27573192D01*
X39413072Y27582761D01*
X39474932Y27618475D01*
X39562935Y27751763D01*
X39553366Y27911195D01*
X39446223Y28096773D01*
X39312935Y28184776D01*
X39089080Y28715362D02*
X38044483Y28524657D01*
X38731937Y29333951D02*
X38044483Y28524657D01*
X37806617Y28222367D01*
X37780472Y28124794D01*
X37790042Y27965362D01*
X37473054Y29514400D02*
X37606342Y29426396D01*
X37765774Y29435966D01*
X38879235Y30078823D01*
X37731937Y31066002D02*
X36865912Y30566002D01*
X38053366Y30509272D02*
X37372917Y30116414D01*
X37213485Y30106844D01*
X37080197Y30194849D01*
X36973055Y30380425D01*
X36963485Y30539857D01*
X36989630Y30637431D01*
X36508769Y31184592D02*
X37374794Y31684592D01*
X37251076Y31613163D02*
X37277221Y31710736D01*
X37267651Y31870169D01*
X37160509Y32055745D01*
X37027221Y32143749D01*
X36867789Y32134179D01*
X36187340Y31741322D01*
X36867789Y32134179D02*
X36955792Y32267467D01*
X36946223Y32426900D01*
X36839080Y32612476D01*
X36705792Y32700480D01*
X36546360Y32690910D01*
X35865912Y32298053D01*
X35632487Y32988071D02*
X35534913Y33014215D01*
X35508769Y32916643D01*
X35606342Y32890497D01*
X35632487Y32988071D01*
X35508769Y32916643D01*
X34892056Y34127677D02*
X34901626Y33968245D01*
X35044483Y33720810D01*
X35177770Y33632805D01*
X35275344Y33606661D01*
X35434776Y33616230D01*
X35805929Y33830516D01*
X35893933Y33963804D01*
X35920078Y34061377D01*
X35910508Y34220810D01*
X35767651Y34468245D01*
X35634363Y34556249D01*
X34401626Y34834271D02*
X34534913Y34746266D01*
X34632487Y34720122D01*
X34791919Y34729691D01*
X35163072Y34943977D01*
X35251076Y35077265D01*
X35277221Y35174838D01*
X35267651Y35334271D01*
X35160509Y35519847D01*
X35027221Y35607850D01*
X34929647Y35633995D01*
X34770215Y35624426D01*
X34399061Y35410140D01*
X34311058Y35276853D01*
X34284913Y35179279D01*
X34294483Y35019847D01*
X34401626Y34834271D01*
X33830197Y35824014D02*
X34696223Y36324014D01*
X34572504Y36252585D02*
X34598649Y36350158D01*
X34589080Y36509591D01*
X34481937Y36695167D01*
X34348649Y36783171D01*
X34189217Y36773601D01*
X33508769Y36380744D01*
X34189217Y36773601D02*
X34277220Y36906889D01*
X34267651Y37066322D01*
X34160509Y37251898D01*
X34027220Y37339902D01*
X33867789Y37330332D01*
X33187340Y36937475D01*
D14*
X22460000Y31480000D02*
X22460000Y34020000D01*
X22460000Y34020000D02*
X27540000Y34020000D01*
X27540000Y34020000D02*
X27540000Y31480000D01*
X27540000Y31480000D02*
X22460000Y31480000D01*
D15*
X25400000Y33450000D02*
X24600000Y33450000D01*
X24600000Y32050000D02*
X25400000Y32050000D01*
D14*
X13869852Y11435295D02*
X11670148Y10165295D01*
X11670148Y10165295D02*
X9130148Y14564705D01*
X9130148Y14564705D02*
X11329852Y15834705D01*
X11329852Y15834705D02*
X13869852Y11435295D01*
D15*
X10693782Y12996410D02*
X11093782Y12303590D01*
X12306218Y13003590D02*
X11906218Y13696410D01*
D14*
X38329852Y10165295D02*
X36130148Y11435295D01*
X36130148Y11435295D02*
X38670148Y15834705D01*
X38670148Y15834705D02*
X40869852Y14564705D01*
X40869852Y14564705D02*
X38329852Y10165295D01*
D15*
X38093782Y13696410D02*
X37693782Y13003590D01*
X38906218Y12303590D02*
X39306218Y12996410D01*
D16*
X22840000Y10380000D02*
X22840000Y9920000D01*
X22750000Y10380000D02*
X22700000Y10380000D01*
X22800000Y10350000D02*
X22750000Y10380000D01*
X22820000Y10330000D02*
X22800000Y10350000D01*
X22840000Y10260000D02*
X22820000Y10330000D01*
X22400000Y9920000D02*
X22350000Y9950000D01*
X22500000Y9920000D02*
X22400000Y9920000D01*
X22540000Y9950000D02*
X22500000Y9920000D01*
X22560000Y10020000D02*
X22540000Y9950000D01*
X22560000Y10290000D02*
X22560000Y10020000D01*
X22530000Y10350000D02*
X22560000Y10290000D01*
X22490000Y10380000D02*
X22530000Y10350000D01*
X22390000Y10380000D02*
X22490000Y10380000D01*
X22350000Y10340000D02*
X22390000Y10380000D01*
X22330000Y10270000D02*
X22350000Y10340000D01*
X22330000Y10150000D02*
X22330000Y10270000D01*
X22330000Y10150000D02*
X22560000Y10150000D01*
X23080000Y10290000D02*
X23080000Y9920000D01*
X23110000Y10350000D02*
X23080000Y10290000D01*
X23150000Y10380000D02*
X23110000Y10350000D01*
X23250000Y10380000D02*
X23150000Y10380000D01*
X23300000Y10350000D02*
X23250000Y10380000D01*
X23240000Y10190000D02*
X23290000Y10160000D01*
X23120000Y10190000D02*
X23240000Y10190000D01*
X23080000Y10220000D02*
X23120000Y10190000D01*
X23130000Y9920000D02*
X23080000Y9960000D01*
X23250000Y9920000D02*
X23130000Y9920000D01*
X23300000Y9960000D02*
X23250000Y9920000D01*
X23320000Y10020000D02*
X23300000Y9960000D01*
X23320000Y10090000D02*
X23320000Y10020000D01*
X23290000Y10160000D02*
X23320000Y10090000D01*
X23870000Y10380000D02*
X23770000Y9920000D01*
X23770000Y9920000D02*
X23680000Y10260000D01*
X23680000Y10260000D02*
X23580000Y9920000D01*
X23580000Y9920000D02*
X23480000Y10380000D01*
X24060000Y9950000D02*
X24100000Y9920000D01*
X24100000Y9920000D02*
X24210000Y9920000D01*
X24210000Y9920000D02*
X24250000Y9950000D01*
X24250000Y9950000D02*
X24270000Y9980000D01*
X24270000Y9980000D02*
X24300000Y10050000D01*
X24300000Y10050000D02*
X24300000Y10250000D01*
X24300000Y10250000D02*
X24270000Y10320000D01*
X24270000Y10320000D02*
X24250000Y10350000D01*
X24250000Y10350000D02*
X24190000Y10390000D01*
X24190000Y10390000D02*
X24120000Y10390000D01*
X24120000Y10390000D02*
X24060000Y10350000D01*
X24060000Y10620000D02*
X24060000Y9920000D01*
X24580000Y10260000D02*
X24560000Y10330000D01*
X24560000Y10330000D02*
X24540000Y10350000D01*
X24540000Y10350000D02*
X24490000Y10380000D01*
X24490000Y10380000D02*
X24440000Y10380000D01*
X24580000Y10380000D02*
X24580000Y9920000D01*
X25030000Y10160000D02*
X25060000Y10090000D01*
X25060000Y10090000D02*
X25060000Y10020000D01*
X25060000Y10020000D02*
X25040000Y9960000D01*
X25040000Y9960000D02*
X24990000Y9920000D01*
X24990000Y9920000D02*
X24870000Y9920000D01*
X24870000Y9920000D02*
X24820000Y9960000D01*
X24820000Y10220000D02*
X24860000Y10190000D01*
X24860000Y10190000D02*
X24980000Y10190000D01*
X24980000Y10190000D02*
X25030000Y10160000D01*
X25040000Y10350000D02*
X24990000Y10380000D01*
X24990000Y10380000D02*
X24890000Y10380000D01*
X24890000Y10380000D02*
X24850000Y10350000D01*
X24850000Y10350000D02*
X24820000Y10290000D01*
X24820000Y10290000D02*
X24820000Y9920000D01*
X25490000Y10310000D02*
X25470000Y10350000D01*
X25470000Y10350000D02*
X25420000Y10380000D01*
X25420000Y10380000D02*
X25340000Y10380000D01*
X25340000Y10380000D02*
X25300000Y10350000D01*
X25300000Y10350000D02*
X25280000Y10290000D01*
X25280000Y10290000D02*
X25280000Y9920000D01*
X25490000Y10620000D02*
X25490000Y9920000D01*
X26540000Y10150000D02*
X26770000Y10150000D01*
X26320000Y10320000D02*
X26300000Y10350000D01*
X26300000Y10350000D02*
X26260000Y10380000D01*
X26260000Y10380000D02*
X26170000Y10380000D01*
X26170000Y10380000D02*
X26130000Y10350000D01*
X26130000Y10350000D02*
X26110000Y10290000D01*
X26110000Y10290000D02*
X26110000Y9920000D01*
X26320000Y10380000D02*
X26320000Y9920000D01*
X26540000Y10150000D02*
X26540000Y10270000D01*
X26540000Y10270000D02*
X26560000Y10340000D01*
X26560000Y10340000D02*
X26600000Y10380000D01*
X26600000Y10380000D02*
X26700000Y10380000D01*
X26700000Y10380000D02*
X26740000Y10350000D01*
X26740000Y10350000D02*
X26770000Y10290000D01*
X26770000Y10290000D02*
X26770000Y10020000D01*
X26770000Y10020000D02*
X26750000Y9950000D01*
X26750000Y9950000D02*
X26710000Y9920000D01*
X26710000Y9920000D02*
X26610000Y9920000D01*
X26610000Y9920000D02*
X26560000Y9950000D01*
X27200000Y10350000D02*
X27160000Y10380000D01*
X27160000Y10380000D02*
X27060000Y10380000D01*
X27060000Y10380000D02*
X27020000Y10350000D01*
X27020000Y10350000D02*
X26990000Y10320000D01*
X26990000Y10320000D02*
X26970000Y10260000D01*
X26970000Y10260000D02*
X26970000Y10040000D01*
X26970000Y10040000D02*
X26990000Y9980000D01*
X26990000Y9980000D02*
X27010000Y9950000D01*
X27010000Y9950000D02*
X27050000Y9920000D01*
X27050000Y9920000D02*
X27150000Y9920000D01*
X27150000Y9920000D02*
X27200000Y9950000D01*
X27200000Y9680000D02*
X27200000Y10380000D01*
X27510000Y10380000D02*
X27590000Y10380000D01*
X27590000Y10380000D02*
X27630000Y10350000D01*
X27630000Y10350000D02*
X27650000Y10320000D01*
X27650000Y10320000D02*
X27680000Y10250000D01*
X27590000Y9920000D02*
X27510000Y9920000D01*
X27510000Y9920000D02*
X27460000Y9950000D01*
X27460000Y9950000D02*
X27440000Y9980000D01*
X27440000Y9980000D02*
X27420000Y10050000D01*
X27420000Y10050000D02*
X27420000Y10250000D01*
X27420000Y10250000D02*
X27440000Y10310000D01*
X27440000Y10310000D02*
X27460000Y10340000D01*
X27460000Y10340000D02*
X27510000Y10380000D01*
X27680000Y10250000D02*
X27680000Y10050000D01*
X27680000Y10050000D02*
X27660000Y9990000D01*
X27660000Y9990000D02*
X27640000Y9960000D01*
X27640000Y9960000D02*
X27590000Y9920000D01*
D17*
G36*
X26513840Y10754640D02*
X26488440Y10769880D01*
X26430020Y10805440D01*
X26346200Y10861320D01*
X26247140Y10927360D01*
X26148080Y10993400D01*
X26066800Y11046740D01*
X26010920Y11084840D01*
X25985520Y11097540D01*
X25972820Y11092460D01*
X25927100Y11069600D01*
X25858520Y11034040D01*
X25817880Y11013720D01*
X25756920Y10988320D01*
X25723900Y10980700D01*
X25718820Y10990860D01*
X25695960Y11039120D01*
X25660400Y11120400D01*
X25614680Y11229620D01*
X25558800Y11356620D01*
X25502920Y11491240D01*
X25444500Y11630940D01*
X25388620Y11765560D01*
X25340360Y11884940D01*
X25299720Y11981460D01*
X25274320Y12050040D01*
X25264160Y12077980D01*
X25266700Y12085600D01*
X25299720Y12116080D01*
X25353060Y12156720D01*
X25472440Y12253240D01*
X25589280Y12398020D01*
X25660400Y12563120D01*
X25683260Y12748540D01*
X25662940Y12918720D01*
X25596900Y13081280D01*
X25482600Y13228600D01*
X25342900Y13337820D01*
X25180340Y13406400D01*
X25000000Y13429260D01*
X24827280Y13408940D01*
X24659640Y13342900D01*
X24512320Y13231140D01*
X24448820Y13160020D01*
X24362460Y13010160D01*
X24314200Y12852680D01*
X24309120Y12812040D01*
X24316740Y12636780D01*
X24367540Y12466600D01*
X24461520Y12316740D01*
X24591060Y12192280D01*
X24606300Y12182120D01*
X24664720Y12136400D01*
X24705360Y12105920D01*
X24735840Y12080520D01*
X24512320Y11542040D01*
X24476760Y11458220D01*
X24415800Y11310900D01*
X24362460Y11183900D01*
X24319280Y11082300D01*
X24288800Y11016260D01*
X24276100Y10988320D01*
X24276100Y10985780D01*
X24255780Y10983240D01*
X24215140Y10998480D01*
X24138940Y11034040D01*
X24090680Y11059440D01*
X24032260Y11087380D01*
X24006860Y11097540D01*
X23984000Y11084840D01*
X23930660Y11049280D01*
X23849380Y10995940D01*
X23752860Y10932440D01*
X23661420Y10868940D01*
X23577600Y10813060D01*
X23516640Y10774960D01*
X23486160Y10757180D01*
X23481080Y10757180D01*
X23455680Y10772420D01*
X23407420Y10813060D01*
X23333760Y10881640D01*
X23229620Y10985780D01*
X23214380Y11001020D01*
X23128020Y11087380D01*
X23059440Y11161040D01*
X23013720Y11211840D01*
X22995940Y11234700D01*
X22995940Y11234700D01*
X23011180Y11265180D01*
X23049280Y11326140D01*
X23105160Y11412500D01*
X23173740Y11511560D01*
X23351540Y11770640D01*
X23255020Y12014480D01*
X23224540Y12090680D01*
X23186440Y12179580D01*
X23158500Y12245620D01*
X23143260Y12273560D01*
X23117860Y12283720D01*
X23049280Y12298960D01*
X22952760Y12319280D01*
X22838460Y12339600D01*
X22726700Y12359920D01*
X22627640Y12380240D01*
X22556520Y12392940D01*
X22523500Y12400560D01*
X22515880Y12405640D01*
X22508260Y12420880D01*
X22505720Y12453900D01*
X22503180Y12514860D01*
X22500640Y12608840D01*
X22500640Y12748540D01*
X22500640Y12763780D01*
X22503180Y12893320D01*
X22505720Y13000000D01*
X22508260Y13066040D01*
X22513340Y13093980D01*
X22513340Y13093980D01*
X22543820Y13101600D01*
X22614940Y13116840D01*
X22714000Y13134620D01*
X22833380Y13157480D01*
X22841000Y13160020D01*
X22957840Y13182880D01*
X23056900Y13203200D01*
X23128020Y13218440D01*
X23155960Y13228600D01*
X23163580Y13236220D01*
X23186440Y13281940D01*
X23219460Y13355600D01*
X23260100Y13444500D01*
X23298200Y13538480D01*
X23331220Y13622300D01*
X23354080Y13683260D01*
X23361700Y13711200D01*
X23359160Y13713740D01*
X23341380Y13741680D01*
X23300740Y13802640D01*
X23244860Y13886460D01*
X23176280Y13988060D01*
X23171200Y13995680D01*
X23102620Y14094740D01*
X23046740Y14181100D01*
X23011180Y14239520D01*
X22995940Y14267460D01*
X22995940Y14270000D01*
X23018800Y14300480D01*
X23069600Y14356360D01*
X23143260Y14432560D01*
X23229620Y14521460D01*
X23257560Y14546860D01*
X23356620Y14643380D01*
X23422660Y14704340D01*
X23465840Y14737360D01*
X23486160Y14744980D01*
X23486160Y14744980D01*
X23516640Y14727200D01*
X23580140Y14686560D01*
X23663960Y14628140D01*
X23765560Y14559560D01*
X23773180Y14554480D01*
X23872240Y14485900D01*
X23956060Y14430020D01*
X24014480Y14389380D01*
X24042420Y14374140D01*
X24044960Y14374140D01*
X24085600Y14386840D01*
X24156720Y14412240D01*
X24245620Y14445260D01*
X24337060Y14483360D01*
X24420880Y14518920D01*
X24484380Y14546860D01*
X24514860Y14564640D01*
X24514860Y14564640D01*
X24525020Y14600200D01*
X24542800Y14676400D01*
X24563120Y14778000D01*
X24588520Y14899920D01*
X24591060Y14920240D01*
X24613920Y15039620D01*
X24631700Y15138680D01*
X24646940Y15207260D01*
X24654560Y15235200D01*
X24669800Y15237740D01*
X24728220Y15242820D01*
X24817120Y15245360D01*
X24926340Y15245360D01*
X25038100Y15245360D01*
X25147320Y15242820D01*
X25241300Y15240280D01*
X25309880Y15235200D01*
X25337820Y15230120D01*
X25337820Y15227580D01*
X25347980Y15189480D01*
X25365760Y15115820D01*
X25386080Y15011680D01*
X25408940Y14889760D01*
X25414020Y14866900D01*
X25436880Y14750060D01*
X25457200Y14651000D01*
X25469900Y14584960D01*
X25477520Y14557020D01*
X25490220Y14551940D01*
X25538480Y14531620D01*
X25617220Y14498600D01*
X25716280Y14457960D01*
X25944880Y14366520D01*
X26226820Y14557020D01*
X26252220Y14574800D01*
X26353820Y14643380D01*
X26435100Y14699260D01*
X26493520Y14737360D01*
X26516380Y14750060D01*
X26518920Y14750060D01*
X26546860Y14724660D01*
X26602740Y14671320D01*
X26678940Y14597660D01*
X26767840Y14511300D01*
X26831340Y14445260D01*
X26910080Y14366520D01*
X26958340Y14313180D01*
X26986280Y14280160D01*
X26993900Y14259840D01*
X26991360Y14244600D01*
X26973580Y14216660D01*
X26932940Y14155700D01*
X26874520Y14069340D01*
X26805940Y13970280D01*
X26750060Y13886460D01*
X26689100Y13792480D01*
X26651000Y13726440D01*
X26635760Y13693420D01*
X26640840Y13680720D01*
X26658620Y13624840D01*
X26694180Y13541020D01*
X26734820Y13441960D01*
X26833880Y13220980D01*
X26978660Y13193040D01*
X27067560Y13175260D01*
X27189480Y13152400D01*
X27308860Y13129540D01*
X27491740Y13093980D01*
X27499360Y12418340D01*
X27471420Y12405640D01*
X27443480Y12398020D01*
X27374900Y12382780D01*
X27278380Y12362460D01*
X27161540Y12342140D01*
X27065020Y12324360D01*
X26965960Y12304040D01*
X26894840Y12291340D01*
X26864360Y12283720D01*
X26854200Y12273560D01*
X26831340Y12225300D01*
X26795780Y12149100D01*
X26755140Y12057660D01*
X26717040Y11963680D01*
X26681480Y11874780D01*
X26658620Y11808740D01*
X26648460Y11775720D01*
X26661160Y11747780D01*
X26699260Y11689360D01*
X26752600Y11608080D01*
X26821180Y11509020D01*
X26887220Y11412500D01*
X26945640Y11328680D01*
X26983740Y11267720D01*
X27001520Y11239780D01*
X26991360Y11222000D01*
X26953260Y11173740D01*
X26879600Y11097540D01*
X26767840Y10988320D01*
X26750060Y10970540D01*
X26663700Y10886720D01*
X26590040Y10818140D01*
X26536700Y10772420D01*
X26513840Y10754640D01*
X26513840Y10754640D01*
G37*
X26513840Y10754640D02*
X26488440Y10769880D01*
X26430020Y10805440D01*
X26346200Y10861320D01*
X26247140Y10927360D01*
X26148080Y10993400D01*
X26066800Y11046740D01*
X26010920Y11084840D01*
X25985520Y11097540D01*
X25972820Y11092460D01*
X25927100Y11069600D01*
X25858520Y11034040D01*
X25817880Y11013720D01*
X25756920Y10988320D01*
X25723900Y10980700D01*
X25718820Y10990860D01*
X25695960Y11039120D01*
X25660400Y11120400D01*
X25614680Y11229620D01*
X25558800Y11356620D01*
X25502920Y11491240D01*
X25444500Y11630940D01*
X25388620Y11765560D01*
X25340360Y11884940D01*
X25299720Y11981460D01*
X25274320Y12050040D01*
X25264160Y12077980D01*
X25266700Y12085600D01*
X25299720Y12116080D01*
X25353060Y12156720D01*
X25472440Y12253240D01*
X25589280Y12398020D01*
X25660400Y12563120D01*
X25683260Y12748540D01*
X25662940Y12918720D01*
X25596900Y13081280D01*
X25482600Y13228600D01*
X25342900Y13337820D01*
X25180340Y13406400D01*
X25000000Y13429260D01*
X24827280Y13408940D01*
X24659640Y13342900D01*
X24512320Y13231140D01*
X24448820Y13160020D01*
X24362460Y13010160D01*
X24314200Y12852680D01*
X24309120Y12812040D01*
X24316740Y12636780D01*
X24367540Y12466600D01*
X24461520Y12316740D01*
X24591060Y12192280D01*
X24606300Y12182120D01*
X24664720Y12136400D01*
X24705360Y12105920D01*
X24735840Y12080520D01*
X24512320Y11542040D01*
X24476760Y11458220D01*
X24415800Y11310900D01*
X24362460Y11183900D01*
X24319280Y11082300D01*
X24288800Y11016260D01*
X24276100Y10988320D01*
X24276100Y10985780D01*
X24255780Y10983240D01*
X24215140Y10998480D01*
X24138940Y11034040D01*
X24090680Y11059440D01*
X24032260Y11087380D01*
X24006860Y11097540D01*
X23984000Y11084840D01*
X23930660Y11049280D01*
X23849380Y10995940D01*
X23752860Y10932440D01*
X23661420Y10868940D01*
X23577600Y10813060D01*
X23516640Y10774960D01*
X23486160Y10757180D01*
X23481080Y10757180D01*
X23455680Y10772420D01*
X23407420Y10813060D01*
X23333760Y10881640D01*
X23229620Y10985780D01*
X23214380Y11001020D01*
X23128020Y11087380D01*
X23059440Y11161040D01*
X23013720Y11211840D01*
X22995940Y11234700D01*
X22995940Y11234700D01*
X23011180Y11265180D01*
X23049280Y11326140D01*
X23105160Y11412500D01*
X23173740Y11511560D01*
X23351540Y11770640D01*
X23255020Y12014480D01*
X23224540Y12090680D01*
X23186440Y12179580D01*
X23158500Y12245620D01*
X23143260Y12273560D01*
X23117860Y12283720D01*
X23049280Y12298960D01*
X22952760Y12319280D01*
X22838460Y12339600D01*
X22726700Y12359920D01*
X22627640Y12380240D01*
X22556520Y12392940D01*
X22523500Y12400560D01*
X22515880Y12405640D01*
X22508260Y12420880D01*
X22505720Y12453900D01*
X22503180Y12514860D01*
X22500640Y12608840D01*
X22500640Y12748540D01*
X22500640Y12763780D01*
X22503180Y12893320D01*
X22505720Y13000000D01*
X22508260Y13066040D01*
X22513340Y13093980D01*
X22513340Y13093980D01*
X22543820Y13101600D01*
X22614940Y13116840D01*
X22714000Y13134620D01*
X22833380Y13157480D01*
X22841000Y13160020D01*
X22957840Y13182880D01*
X23056900Y13203200D01*
X23128020Y13218440D01*
X23155960Y13228600D01*
X23163580Y13236220D01*
X23186440Y13281940D01*
X23219460Y13355600D01*
X23260100Y13444500D01*
X23298200Y13538480D01*
X23331220Y13622300D01*
X23354080Y13683260D01*
X23361700Y13711200D01*
X23359160Y13713740D01*
X23341380Y13741680D01*
X23300740Y13802640D01*
X23244860Y13886460D01*
X23176280Y13988060D01*
X23171200Y13995680D01*
X23102620Y14094740D01*
X23046740Y14181100D01*
X23011180Y14239520D01*
X22995940Y14267460D01*
X22995940Y14270000D01*
X23018800Y14300480D01*
X23069600Y14356360D01*
X23143260Y14432560D01*
X23229620Y14521460D01*
X23257560Y14546860D01*
X23356620Y14643380D01*
X23422660Y14704340D01*
X23465840Y14737360D01*
X23486160Y14744980D01*
X23486160Y14744980D01*
X23516640Y14727200D01*
X23580140Y14686560D01*
X23663960Y14628140D01*
X23765560Y14559560D01*
X23773180Y14554480D01*
X23872240Y14485900D01*
X23956060Y14430020D01*
X24014480Y14389380D01*
X24042420Y14374140D01*
X24044960Y14374140D01*
X24085600Y14386840D01*
X24156720Y14412240D01*
X24245620Y14445260D01*
X24337060Y14483360D01*
X24420880Y14518920D01*
X24484380Y14546860D01*
X24514860Y14564640D01*
X24514860Y14564640D01*
X24525020Y14600200D01*
X24542800Y14676400D01*
X24563120Y14778000D01*
X24588520Y14899920D01*
X24591060Y14920240D01*
X24613920Y15039620D01*
X24631700Y15138680D01*
X24646940Y15207260D01*
X24654560Y15235200D01*
X24669800Y15237740D01*
X24728220Y15242820D01*
X24817120Y15245360D01*
X24926340Y15245360D01*
X25038100Y15245360D01*
X25147320Y15242820D01*
X25241300Y15240280D01*
X25309880Y15235200D01*
X25337820Y15230120D01*
X25337820Y15227580D01*
X25347980Y15189480D01*
X25365760Y15115820D01*
X25386080Y15011680D01*
X25408940Y14889760D01*
X25414020Y14866900D01*
X25436880Y14750060D01*
X25457200Y14651000D01*
X25469900Y14584960D01*
X25477520Y14557020D01*
X25490220Y14551940D01*
X25538480Y14531620D01*
X25617220Y14498600D01*
X25716280Y14457960D01*
X25944880Y14366520D01*
X26226820Y14557020D01*
X26252220Y14574800D01*
X26353820Y14643380D01*
X26435100Y14699260D01*
X26493520Y14737360D01*
X26516380Y14750060D01*
X26518920Y14750060D01*
X26546860Y14724660D01*
X26602740Y14671320D01*
X26678940Y14597660D01*
X26767840Y14511300D01*
X26831340Y14445260D01*
X26910080Y14366520D01*
X26958340Y14313180D01*
X26986280Y14280160D01*
X26993900Y14259840D01*
X26991360Y14244600D01*
X26973580Y14216660D01*
X26932940Y14155700D01*
X26874520Y14069340D01*
X26805940Y13970280D01*
X26750060Y13886460D01*
X26689100Y13792480D01*
X26651000Y13726440D01*
X26635760Y13693420D01*
X26640840Y13680720D01*
X26658620Y13624840D01*
X26694180Y13541020D01*
X26734820Y13441960D01*
X26833880Y13220980D01*
X26978660Y13193040D01*
X27067560Y13175260D01*
X27189480Y13152400D01*
X27308860Y13129540D01*
X27491740Y13093980D01*
X27499360Y12418340D01*
X27471420Y12405640D01*
X27443480Y12398020D01*
X27374900Y12382780D01*
X27278380Y12362460D01*
X27161540Y12342140D01*
X27065020Y12324360D01*
X26965960Y12304040D01*
X26894840Y12291340D01*
X26864360Y12283720D01*
X26854200Y12273560D01*
X26831340Y12225300D01*
X26795780Y12149100D01*
X26755140Y12057660D01*
X26717040Y11963680D01*
X26681480Y11874780D01*
X26658620Y11808740D01*
X26648460Y11775720D01*
X26661160Y11747780D01*
X26699260Y11689360D01*
X26752600Y11608080D01*
X26821180Y11509020D01*
X26887220Y11412500D01*
X26945640Y11328680D01*
X26983740Y11267720D01*
X27001520Y11239780D01*
X26991360Y11222000D01*
X26953260Y11173740D01*
X26879600Y11097540D01*
X26767840Y10988320D01*
X26750060Y10970540D01*
X26663700Y10886720D01*
X26590040Y10818140D01*
X26536700Y10772420D01*
X26513840Y10754640D01*
D18*
X35504284Y16998570D02*
G75*
G02X14600000Y16700000I-10504284J3501430D01*
G01*
X14604242Y24298450D02*
G75*
G02X35500000Y24000000I10395758J-3798450D01*
G01*
X14600000Y16700000D02*
X11600000Y16700000D01*
X11600000Y16700000D02*
X11600000Y24300000D01*
X11600000Y24300000D02*
X14600000Y24300000D01*
X35500000Y17000000D02*
X35500000Y24000000D01*
D13*
X8787574Y7432869D02*
X10057574Y5233165D01*
X10437352Y8385369D02*
X11072352Y7285517D01*
D18*
X8948557Y12924038D02*
X10448557Y10325962D01*
X8947716Y12924453D02*
G75*
G03X10448557Y10325962I-1197716J-2424453D01*
G01*
D13*
X44387426Y12932131D02*
X45657426Y15131835D01*
X42737648Y13884631D02*
X43372648Y14984483D01*
D18*
X39551443Y10325962D02*
X41051443Y12924038D01*
X39551504Y10325026D02*
G75*
G03X41051443Y12924038I2698496J174974D01*
G01*
D13*
X21825000Y38135000D02*
X19285000Y38135000D01*
X21825000Y36230000D02*
X20555000Y36230000D01*
D18*
X26500000Y35250000D02*
X23500000Y35250000D01*
X26500780Y35250521D02*
G75*
G03X23500000Y35250000I-1500780J2249479D01*
G01*
D19*
X23255262Y32898166D02*
X22952881Y33194500D01*
X23255262Y33406166D02*
X22620262Y33406166D01*
X22620262Y33067500D01*
X22650500Y32982833D01*
X22680738Y32940500D01*
X22741214Y32898166D01*
X22831929Y32898166D01*
X22892405Y32940500D01*
X22922643Y32982833D01*
X22952881Y33067500D01*
X22952881Y33406166D01*
X23255262Y32051500D02*
X23255262Y32559500D01*
X23255262Y32305500D02*
X22620262Y32305500D01*
X22710976Y32390166D01*
X22771452Y32474833D01*
X22801690Y32559500D01*
X12787947Y11065543D02*
X12893389Y11475579D01*
X13227887Y11319543D02*
X12910387Y11869469D01*
X12617094Y11700136D01*
X12558889Y11631616D01*
X12537347Y11584262D01*
X12530923Y11510721D01*
X12576280Y11432160D01*
X12643180Y11400953D01*
X12694961Y11395933D01*
X12783404Y11412079D01*
X13076697Y11581412D01*
X12213815Y11467302D02*
X11737212Y11192136D01*
X12114797Y11130807D01*
X12004811Y11067307D01*
X11946607Y10998786D01*
X11925064Y10951433D01*
X11918641Y10877893D01*
X11994236Y10746957D01*
X12061136Y10715750D01*
X12112916Y10710730D01*
X12201359Y10726876D01*
X12421329Y10853876D01*
X12479534Y10922397D01*
X12501077Y10969750D01*
X37468685Y10917377D02*
X37876508Y11031079D01*
X37908625Y10663377D02*
X38226125Y11213303D01*
X37932832Y11382636D01*
X37844389Y11398783D01*
X37792609Y11393762D01*
X37725709Y11362555D01*
X37680351Y11283994D01*
X37686775Y11210453D01*
X37708318Y11163100D01*
X37766523Y11094579D01*
X38059816Y10925246D01*
X37462653Y11584262D02*
X37441110Y11631616D01*
X37382906Y11700136D01*
X37199597Y11805969D01*
X37111154Y11822116D01*
X37059374Y11817096D01*
X36992474Y11785888D01*
X36962236Y11733515D01*
X36953540Y11633787D01*
X37212053Y11065543D01*
X36735450Y11340710D01*
D20*
X15928571Y21285714D02*
X15976190Y21142857D01*
X16023810Y21095238D01*
X16119048Y21047619D01*
X16261905Y21047619D01*
X16357143Y21095238D01*
X16404762Y21142857D01*
X16452381Y21238095D01*
X16452381Y21619048D01*
X15452381Y21619048D01*
X15452381Y21285714D01*
X15500000Y21190476D01*
X15547619Y21142857D01*
X15642857Y21095238D01*
X15738095Y21095238D01*
X15833333Y21142857D01*
X15880952Y21190476D01*
X15928571Y21285714D01*
X15928571Y21619048D01*
X15452381Y20761905D02*
X15452381Y20190476D01*
X16452381Y20476191D02*
X15452381Y20476191D01*
X16452381Y19333333D02*
X16452381Y19904762D01*
X16452381Y19619048D02*
X15452381Y19619048D01*
X15595238Y19714286D01*
X15690476Y19809524D01*
X15738095Y19904762D01*
D11*
X31770476Y35825238D02*
X31627619Y35777619D01*
X31389523Y35777619D01*
X31294285Y35825238D01*
X31246666Y35872857D01*
X31199047Y35968095D01*
X31199047Y36063333D01*
X31246666Y36158571D01*
X31294285Y36206190D01*
X31389523Y36253810D01*
X31580000Y36301429D01*
X31675238Y36349048D01*
X31722857Y36396667D01*
X31770476Y36491905D01*
X31770476Y36587143D01*
X31722857Y36682381D01*
X31675238Y36730000D01*
X31580000Y36777619D01*
X31341904Y36777619D01*
X31199047Y36730000D01*
X30770476Y35777619D02*
X30770476Y36777619D01*
X30770476Y36301429D02*
X30199047Y36301429D01*
X30199047Y35777619D02*
X30199047Y36777619D01*
X29151428Y35777619D02*
X29484762Y36253810D01*
X29722857Y35777619D02*
X29722857Y36777619D01*
X29341904Y36777619D01*
X29246666Y36730000D01*
X29199047Y36682381D01*
X29151428Y36587143D01*
X29151428Y36444286D01*
X29199047Y36349048D01*
X29246666Y36301429D01*
X29341904Y36253810D01*
X29722857Y36253810D01*
X28865714Y36777619D02*
X28294285Y36777619D01*
X28580000Y35777619D02*
X28580000Y36777619D01*
X31318095Y38317619D02*
X31794286Y38317619D01*
X31794286Y39317619D01*
X30794286Y39317619D02*
X30603809Y39317619D01*
X30508571Y39270000D01*
X30413333Y39174762D01*
X30365714Y38984286D01*
X30365714Y38650952D01*
X30413333Y38460476D01*
X30508571Y38365238D01*
X30603809Y38317619D01*
X30794286Y38317619D01*
X30889524Y38365238D01*
X30984762Y38460476D01*
X31032381Y38650952D01*
X31032381Y38984286D01*
X30984762Y39174762D01*
X30889524Y39270000D01*
X30794286Y39317619D01*
X29937143Y38317619D02*
X29937143Y39317619D01*
X29365714Y38317619D01*
X29365714Y39317619D01*
X28365714Y39270000D02*
X28460952Y39317619D01*
X28603809Y39317619D01*
X28746667Y39270000D01*
X28841905Y39174762D01*
X28889524Y39079524D01*
X28937143Y38889048D01*
X28937143Y38746190D01*
X28889524Y38555714D01*
X28841905Y38460476D01*
X28746667Y38365238D01*
X28603809Y38317619D01*
X28508571Y38317619D01*
X28365714Y38365238D01*
X28318095Y38412857D01*
X28318095Y38746190D01*
X28508571Y38746190D01*
%LPC*%
D21*
X25000000Y44650000D03*
D22*
X25950000Y32750000D03*
X24050000Y32750000D03*
D23*
X29064000Y32750000D03*
X20936000Y32750000D03*
D10*
G36*
X12176073Y13679006D02*
X10573927Y12754006D01*
X9873927Y13966442D01*
X11476073Y14891442D01*
X12176073Y13679006D01*
X12176073Y13679006D01*
G37*
G36*
X13126073Y12033558D02*
X11523927Y11108558D01*
X10823927Y12320994D01*
X12426073Y13245994D01*
X13126073Y12033558D01*
X13126073Y12033558D01*
G37*
D23*
X9468000Y16519527D03*
X13532000Y9480473D03*
D10*
G36*
X39426073Y12754006D02*
X37823927Y13679006D01*
X38523927Y14891442D01*
X40126073Y13966442D01*
X39426073Y12754006D01*
X39426073Y12754006D01*
G37*
G36*
X38476073Y11108558D02*
X36873927Y12033558D01*
X37573927Y13245994D01*
X39176073Y12320994D01*
X38476073Y11108558D01*
X38476073Y11108558D01*
G37*
D23*
X40532000Y16519527D03*
X36468000Y9480473D03*
D24*
X20750000Y40500000D03*
X20750000Y42500000D03*
X29250000Y40500000D03*
X29250000Y42500000D03*
D25*
X33100000Y20500000D03*
X13200000Y20500000D03*
X11000000Y20500000D03*
X38000000Y20500000D03*
D26*
X6650148Y9865000D03*
X8849852Y11135000D03*
X43349852Y9865000D03*
X41150148Y11135000D03*
X25000000Y38770000D03*
X25000000Y36230000D03*
M02*
