%TF.GenerationSoftware,KiCad,Pcbnew,4.0.2+e4-6225~38~ubuntu15.10.1-stable*%
%TF.CreationDate,2016-05-25T15:50:04+05:30*%
%TF.ProjectId,MAP4,4D4150342E6B696361645F7063620000,rev?*%
%TF.FileFunction,Legend,Bot*%
%FSLAX46Y46*%
G04 Gerber Fmt 4.6, Leading zero omitted, Abs format (unit mm)*
G04 Created by KiCad (PCBNEW 4.0.2+e4-6225~38~ubuntu15.10.1-stable) date Wed May 25 15:50:04 2016*
%MOMM*%
G01*
G04 APERTURE LIST*
%ADD10C,0.050800*%
%ADD11C,0.300000*%
%ADD12C,0.150000*%
%ADD13C,0.101600*%
%ADD14C,0.075000*%
%ADD15C,0.002540*%
%ADD16C,6.496000*%
%ADD17C,2.200000*%
%ADD18C,2.000000*%
%ADD19C,2.900000*%
%ADD20C,1.800000*%
G04 APERTURE END LIST*
D10*
D11*
X10642857Y22071429D02*
X11000000Y22071429D01*
X11000000Y24214286D01*
X10642857Y24214286D01*
X10071428Y23142857D02*
X8928571Y23142857D01*
X8357142Y22071429D02*
X7999999Y22071429D01*
X7999999Y24214286D01*
X8357142Y24214286D01*
X38392857Y22071429D02*
X38750000Y22071429D01*
X38750000Y24214286D01*
X38392857Y24214286D01*
X37821428Y23142857D02*
X36678571Y23142857D01*
X37250000Y22571429D02*
X37250000Y23714286D01*
X36107142Y22071429D02*
X35749999Y22071429D01*
X35749999Y24214286D01*
X36107142Y24214286D01*
X46160714Y7459524D02*
X46160714Y8709524D01*
X45744047Y7816667D01*
X45327381Y8709524D01*
X45327381Y7459524D01*
X44791667Y7816667D02*
X44196429Y7816667D01*
X44910714Y7459524D02*
X44494048Y8709524D01*
X44077381Y7459524D01*
X43660714Y7459524D02*
X43660714Y8709524D01*
X42946428Y7459524D02*
X43482143Y8173810D01*
X42946428Y8709524D02*
X43660714Y7995238D01*
X42410714Y8114286D02*
X41994047Y8114286D01*
X41815476Y7459524D02*
X42410714Y7459524D01*
X42410714Y8709524D01*
X41815476Y8709524D01*
X40565476Y7459524D02*
X40982143Y8054762D01*
X41279762Y7459524D02*
X41279762Y8709524D01*
X40803571Y8709524D01*
X40684524Y8650000D01*
X40625000Y8590476D01*
X40565476Y8471429D01*
X40565476Y8292857D01*
X40625000Y8173810D01*
X40684524Y8114286D01*
X40803571Y8054762D01*
X41279762Y8054762D01*
X39970238Y8709524D02*
X40089286Y8471429D01*
X39494048Y7519048D02*
X39315476Y7459524D01*
X39017857Y7459524D01*
X38898810Y7519048D01*
X38839286Y7578571D01*
X38779762Y7697619D01*
X38779762Y7816667D01*
X38839286Y7935714D01*
X38898810Y7995238D01*
X39017857Y8054762D01*
X39255953Y8114286D01*
X39375000Y8173810D01*
X39434524Y8233333D01*
X39494048Y8352381D01*
X39494048Y8471429D01*
X39434524Y8590476D01*
X39375000Y8650000D01*
X39255953Y8709524D01*
X38958333Y8709524D01*
X38779762Y8650000D01*
X45803572Y5766667D02*
X45208334Y5766667D01*
X45922619Y5409524D02*
X45505953Y6659524D01*
X45089286Y5409524D01*
X44732143Y5469048D02*
X44553571Y5409524D01*
X44255952Y5409524D01*
X44136905Y5469048D01*
X44077381Y5528571D01*
X44017857Y5647619D01*
X44017857Y5766667D01*
X44077381Y5885714D01*
X44136905Y5945238D01*
X44255952Y6004762D01*
X44494048Y6064286D01*
X44613095Y6123810D01*
X44672619Y6183333D01*
X44732143Y6302381D01*
X44732143Y6421429D01*
X44672619Y6540476D01*
X44613095Y6600000D01*
X44494048Y6659524D01*
X44196428Y6659524D01*
X44017857Y6600000D01*
X43244048Y6004762D02*
X43244048Y5409524D01*
X43660714Y6659524D02*
X43244048Y6004762D01*
X42827381Y6659524D01*
X41815476Y5409524D02*
X42410714Y5409524D01*
X42410714Y6659524D01*
X41398809Y6659524D02*
X41398809Y5647619D01*
X41339285Y5528571D01*
X41279761Y5469048D01*
X41160714Y5409524D01*
X40922618Y5409524D01*
X40803571Y5469048D01*
X40744047Y5528571D01*
X40684523Y5647619D01*
X40684523Y6659524D01*
X40089285Y5409524D02*
X40089285Y6659524D01*
X39672618Y5766667D01*
X39255952Y6659524D01*
X39255952Y5409524D01*
X34214285Y5021429D02*
X34214285Y6521429D01*
X34214285Y5807143D02*
X33357142Y5807143D01*
X33357142Y5021429D02*
X33357142Y6521429D01*
X32642856Y5807143D02*
X32142856Y5807143D01*
X31928570Y5021429D02*
X32642856Y5021429D01*
X32642856Y6521429D01*
X31928570Y6521429D01*
X30428570Y5021429D02*
X30928570Y5735714D01*
X31285713Y5021429D02*
X31285713Y6521429D01*
X30714285Y6521429D01*
X30571427Y6450000D01*
X30499999Y6378571D01*
X30428570Y6235714D01*
X30428570Y6021429D01*
X30499999Y5878571D01*
X30571427Y5807143D01*
X30714285Y5735714D01*
X31285713Y5735714D01*
X29785713Y5807143D02*
X29285713Y5807143D01*
X29071427Y5021429D02*
X29785713Y5021429D01*
X29785713Y6521429D01*
X29071427Y6521429D01*
X28357142Y6521429D02*
X28499999Y6235714D01*
X27785713Y5092857D02*
X27571427Y5021429D01*
X27214284Y5021429D01*
X27071427Y5092857D01*
X26999998Y5164286D01*
X26928570Y5307143D01*
X26928570Y5450000D01*
X26999998Y5592857D01*
X27071427Y5664286D01*
X27214284Y5735714D01*
X27499998Y5807143D01*
X27642856Y5878571D01*
X27714284Y5950000D01*
X27785713Y6092857D01*
X27785713Y6235714D01*
X27714284Y6378571D01*
X27642856Y6450000D01*
X27499998Y6521429D01*
X27142856Y6521429D01*
X26928570Y6450000D01*
X25142856Y5021429D02*
X25142856Y6521429D01*
X24642856Y5450000D01*
X24142856Y6521429D01*
X24142856Y5021429D01*
X23142856Y5735714D02*
X23142856Y5021429D01*
X23642856Y6521429D02*
X23142856Y5735714D01*
X22642856Y6521429D01*
X20999999Y5021429D02*
X20999999Y6521429D01*
X20499999Y5450000D01*
X19999999Y6521429D01*
X19999999Y5021429D01*
X19357142Y5450000D02*
X18642856Y5450000D01*
X19499999Y5021429D02*
X18999999Y6521429D01*
X18499999Y5021429D01*
X17999999Y5021429D02*
X17999999Y6521429D01*
X17428571Y6521429D01*
X17285713Y6450000D01*
X17214285Y6378571D01*
X17142856Y6235714D01*
X17142856Y6021429D01*
X17214285Y5878571D01*
X17285713Y5807143D01*
X17428571Y5735714D01*
X17999999Y5735714D01*
X15857142Y6021429D02*
X15857142Y5021429D01*
X16214285Y6592857D02*
X16571428Y5521429D01*
X15642856Y5521429D01*
X31892857Y2692857D02*
X31678571Y2621429D01*
X31321428Y2621429D01*
X31178571Y2692857D01*
X31107142Y2764286D01*
X31035714Y2907143D01*
X31035714Y3050000D01*
X31107142Y3192857D01*
X31178571Y3264286D01*
X31321428Y3335714D01*
X31607142Y3407143D01*
X31750000Y3478571D01*
X31821428Y3550000D01*
X31892857Y3692857D01*
X31892857Y3835714D01*
X31821428Y3978571D01*
X31750000Y4050000D01*
X31607142Y4121429D01*
X31250000Y4121429D01*
X31035714Y4050000D01*
X30392857Y2621429D02*
X30392857Y4121429D01*
X29535714Y2621429D02*
X30178571Y3478571D01*
X29535714Y4121429D02*
X30392857Y3264286D01*
X28892857Y2621429D02*
X28892857Y4121429D01*
X27464285Y2621429D02*
X28178571Y2621429D01*
X28178571Y4121429D01*
X26249999Y2621429D02*
X26964285Y2621429D01*
X26964285Y4121429D01*
X24107142Y3407143D02*
X23892856Y3335714D01*
X23821428Y3264286D01*
X23749999Y3121429D01*
X23749999Y2907143D01*
X23821428Y2764286D01*
X23892856Y2692857D01*
X24035714Y2621429D01*
X24607142Y2621429D01*
X24607142Y4121429D01*
X24107142Y4121429D01*
X23964285Y4050000D01*
X23892856Y3978571D01*
X23821428Y3835714D01*
X23821428Y3692857D01*
X23892856Y3550000D01*
X23964285Y3478571D01*
X24107142Y3407143D01*
X24607142Y3407143D01*
X23178571Y3050000D02*
X22464285Y3050000D01*
X23321428Y2621429D02*
X22821428Y4121429D01*
X22321428Y2621429D01*
X21821428Y2621429D02*
X21821428Y4121429D01*
X21464285Y4121429D01*
X21250000Y4050000D01*
X21107142Y3907143D01*
X21035714Y3764286D01*
X20964285Y3478571D01*
X20964285Y3264286D01*
X21035714Y2978571D01*
X21107142Y2835714D01*
X21250000Y2692857D01*
X21464285Y2621429D01*
X21821428Y2621429D01*
X19535714Y4050000D02*
X19678571Y4121429D01*
X19892857Y4121429D01*
X20107142Y4050000D01*
X20250000Y3907143D01*
X20321428Y3764286D01*
X20392857Y3478571D01*
X20392857Y3264286D01*
X20321428Y2978571D01*
X20250000Y2835714D01*
X20107142Y2692857D01*
X19892857Y2621429D01*
X19750000Y2621429D01*
X19535714Y2692857D01*
X19464285Y2764286D01*
X19464285Y3264286D01*
X19750000Y3264286D01*
X18821428Y3407143D02*
X18321428Y3407143D01*
X18107142Y2621429D02*
X18821428Y2621429D01*
X18821428Y4121429D01*
X18107142Y4121429D01*
X12067925Y31063987D02*
X11817925Y30630974D01*
X12391231Y30052540D02*
X12748374Y30671130D01*
X11449336Y31421130D01*
X11092193Y30802540D01*
X11734363Y29771955D02*
X11377220Y29153365D01*
X12176945Y29681387D02*
X10627907Y29998374D01*
X11676945Y28815362D01*
X11400801Y28479922D02*
X11355517Y28258631D01*
X11176945Y27949336D01*
X11043658Y27861332D01*
X10946084Y27835187D01*
X10786653Y27844758D01*
X10662935Y27916186D01*
X10574931Y28049473D01*
X10548786Y28147047D01*
X10558356Y28306479D01*
X10639354Y28589629D01*
X10648924Y28749061D01*
X10622779Y28846634D01*
X10534776Y28979922D01*
X10411058Y29051351D01*
X10251626Y29060920D01*
X10154052Y29034776D01*
X10020764Y28946772D01*
X9842193Y28637478D01*
X9796909Y28416186D01*
X9951214Y27254877D02*
X10569803Y26897734D01*
X9520765Y28080747D02*
X9951214Y27254877D01*
X9020765Y27214722D01*
X25714285Y32321429D02*
X25714285Y33821429D01*
X25071428Y32392857D02*
X24857142Y32321429D01*
X24499999Y32321429D01*
X24357142Y32392857D01*
X24285713Y32464286D01*
X24214285Y32607143D01*
X24214285Y32750000D01*
X24285713Y32892857D01*
X24357142Y32964286D01*
X24499999Y33035714D01*
X24785713Y33107143D01*
X24928571Y33178571D01*
X24999999Y33250000D01*
X25071428Y33392857D01*
X25071428Y33535714D01*
X24999999Y33678571D01*
X24928571Y33750000D01*
X24785713Y33821429D01*
X24428571Y33821429D01*
X24214285Y33750000D01*
X42920628Y20593064D02*
X42751626Y20742927D01*
X42573055Y21052222D01*
X42563485Y21211654D01*
X42589630Y21309227D01*
X42677633Y21442514D01*
X42801351Y21513943D01*
X42960783Y21523513D01*
X43058357Y21497368D01*
X43191644Y21409364D01*
X43396360Y21197643D01*
X43529648Y21109639D01*
X43627221Y21083495D01*
X43786653Y21093064D01*
X43910371Y21164492D01*
X43998374Y21297780D01*
X44024520Y21395353D01*
X44014950Y21554786D01*
X43836379Y21864080D01*
X43667377Y22013943D01*
X43264950Y22853823D02*
X43122093Y23101259D01*
X42988805Y23189263D01*
X42793659Y23241552D01*
X42510509Y23160554D01*
X42077496Y22910554D01*
X41865774Y22705838D01*
X41813485Y22510692D01*
X41823055Y22351259D01*
X41965912Y22103823D01*
X42099199Y22015820D01*
X42294346Y21963530D01*
X42577496Y22044529D01*
X43010509Y22294529D01*
X43222230Y22499245D01*
X43274520Y22694391D01*
X43264950Y22853823D01*
X40965912Y23835875D02*
X41323055Y23217285D01*
X42622093Y23967285D01*
X40715912Y24268888D02*
X42014950Y25018888D01*
X41836378Y25328183D01*
X41667377Y25478044D01*
X41472230Y25530335D01*
X41312798Y25520765D01*
X41029647Y25439766D01*
X40844071Y25332624D01*
X40632349Y25127907D01*
X40544345Y24994620D01*
X40492056Y24799473D01*
X40537340Y24578183D01*
X40715912Y24268888D01*
X40646360Y25960783D02*
X40396360Y26393796D01*
X39608769Y26186516D02*
X39965912Y25567926D01*
X41264950Y26317926D01*
X40907807Y26936516D01*
X38858769Y27485554D02*
X39727358Y27409684D01*
X39287340Y26743246D02*
X40586378Y27493246D01*
X40300664Y27988117D01*
X40167376Y28076122D01*
X40069803Y28102266D01*
X39910370Y28092696D01*
X39724794Y27985554D01*
X39636790Y27852266D01*
X39610646Y27754693D01*
X39620215Y27595260D01*
X39905929Y27100389D01*
X38537340Y28042284D02*
X39836378Y28792284D01*
X38180197Y28660874D02*
X39479235Y29410874D01*
X37751626Y29403182D01*
X39050664Y30153182D01*
X38238805Y31416505D02*
X38372092Y31328502D01*
X38479235Y31142925D01*
X38524519Y30921634D01*
X38472230Y30726487D01*
X38384226Y30593200D01*
X38172504Y30388483D01*
X37986928Y30281341D01*
X37703777Y30200343D01*
X37544345Y30190773D01*
X37349198Y30243063D01*
X37180197Y30392925D01*
X37108769Y30516643D01*
X37063484Y30737934D01*
X37089629Y30835508D01*
X37522642Y31085508D01*
X37665499Y30838071D01*
D12*
X46499968Y4752174D02*
G75*
G03X49450000Y9900000I-49968J3447826D01*
G01*
X45350000Y17000000D02*
X49450000Y9900000D01*
X45347375Y17000452D02*
G75*
G03X32200000Y39850000I-20347375J3499548D01*
G01*
X27900000Y47150000D02*
X32200000Y39850000D01*
X27900000Y47150000D02*
G75*
G03X22100000Y47150000I-2900000J-1650000D01*
G01*
X17800000Y39850000D02*
X22100000Y47150000D01*
X17799072Y39852496D02*
G75*
G03X4650000Y17000000I7200928J-19352496D01*
G01*
X500000Y9900000D02*
X4650000Y17000000D01*
X498108Y9901071D02*
G75*
G03X3550000Y4750000I3001892J-1701071D01*
G01*
X11800000Y4750000D02*
X3550000Y4750000D01*
X11800000Y4750000D02*
G75*
G03X38200000Y4750000I13200000J15750000D01*
G01*
X46500000Y4750000D02*
X38200000Y4750000D01*
D13*
X35504284Y16998570D02*
G75*
G02X14600000Y16700000I-10504284J3501430D01*
G01*
X14604242Y24298450D02*
G75*
G02X35500000Y24000000I10395758J-3798450D01*
G01*
X14600000Y16700000D02*
X11600000Y16700000D01*
X11600000Y16700000D02*
X11600000Y24300000D01*
X11600000Y24300000D02*
X14600000Y24300000D01*
X35500000Y17000000D02*
X35500000Y24000000D01*
D14*
X7840000Y5630000D02*
X7840000Y5170000D01*
X7750000Y5630000D02*
X7700000Y5630000D01*
X7800000Y5600000D02*
X7750000Y5630000D01*
X7820000Y5580000D02*
X7800000Y5600000D01*
X7840000Y5510000D02*
X7820000Y5580000D01*
X7400000Y5170000D02*
X7350000Y5200000D01*
X7500000Y5170000D02*
X7400000Y5170000D01*
X7540000Y5200000D02*
X7500000Y5170000D01*
X7560000Y5270000D02*
X7540000Y5200000D01*
X7560000Y5540000D02*
X7560000Y5270000D01*
X7530000Y5600000D02*
X7560000Y5540000D01*
X7490000Y5630000D02*
X7530000Y5600000D01*
X7390000Y5630000D02*
X7490000Y5630000D01*
X7350000Y5590000D02*
X7390000Y5630000D01*
X7330000Y5520000D02*
X7350000Y5590000D01*
X7330000Y5400000D02*
X7330000Y5520000D01*
X7330000Y5400000D02*
X7560000Y5400000D01*
X8080000Y5540000D02*
X8080000Y5170000D01*
X8110000Y5600000D02*
X8080000Y5540000D01*
X8150000Y5630000D02*
X8110000Y5600000D01*
X8250000Y5630000D02*
X8150000Y5630000D01*
X8300000Y5600000D02*
X8250000Y5630000D01*
X8240000Y5440000D02*
X8290000Y5410000D01*
X8120000Y5440000D02*
X8240000Y5440000D01*
X8080000Y5470000D02*
X8120000Y5440000D01*
X8130000Y5170000D02*
X8080000Y5210000D01*
X8250000Y5170000D02*
X8130000Y5170000D01*
X8300000Y5210000D02*
X8250000Y5170000D01*
X8320000Y5270000D02*
X8300000Y5210000D01*
X8320000Y5340000D02*
X8320000Y5270000D01*
X8290000Y5410000D02*
X8320000Y5340000D01*
X8870000Y5630000D02*
X8770000Y5170000D01*
X8770000Y5170000D02*
X8680000Y5510000D01*
X8680000Y5510000D02*
X8580000Y5170000D01*
X8580000Y5170000D02*
X8480000Y5630000D01*
X9060000Y5200000D02*
X9100000Y5170000D01*
X9100000Y5170000D02*
X9210000Y5170000D01*
X9210000Y5170000D02*
X9250000Y5200000D01*
X9250000Y5200000D02*
X9270000Y5230000D01*
X9270000Y5230000D02*
X9300000Y5300000D01*
X9300000Y5300000D02*
X9300000Y5500000D01*
X9300000Y5500000D02*
X9270000Y5570000D01*
X9270000Y5570000D02*
X9250000Y5600000D01*
X9250000Y5600000D02*
X9190000Y5640000D01*
X9190000Y5640000D02*
X9120000Y5640000D01*
X9120000Y5640000D02*
X9060000Y5600000D01*
X9060000Y5870000D02*
X9060000Y5170000D01*
X9580000Y5510000D02*
X9560000Y5580000D01*
X9560000Y5580000D02*
X9540000Y5600000D01*
X9540000Y5600000D02*
X9490000Y5630000D01*
X9490000Y5630000D02*
X9440000Y5630000D01*
X9580000Y5630000D02*
X9580000Y5170000D01*
X10030000Y5410000D02*
X10060000Y5340000D01*
X10060000Y5340000D02*
X10060000Y5270000D01*
X10060000Y5270000D02*
X10040000Y5210000D01*
X10040000Y5210000D02*
X9990000Y5170000D01*
X9990000Y5170000D02*
X9870000Y5170000D01*
X9870000Y5170000D02*
X9820000Y5210000D01*
X9820000Y5470000D02*
X9860000Y5440000D01*
X9860000Y5440000D02*
X9980000Y5440000D01*
X9980000Y5440000D02*
X10030000Y5410000D01*
X10040000Y5600000D02*
X9990000Y5630000D01*
X9990000Y5630000D02*
X9890000Y5630000D01*
X9890000Y5630000D02*
X9850000Y5600000D01*
X9850000Y5600000D02*
X9820000Y5540000D01*
X9820000Y5540000D02*
X9820000Y5170000D01*
X10490000Y5560000D02*
X10470000Y5600000D01*
X10470000Y5600000D02*
X10420000Y5630000D01*
X10420000Y5630000D02*
X10340000Y5630000D01*
X10340000Y5630000D02*
X10300000Y5600000D01*
X10300000Y5600000D02*
X10280000Y5540000D01*
X10280000Y5540000D02*
X10280000Y5170000D01*
X10490000Y5870000D02*
X10490000Y5170000D01*
X11540000Y5400000D02*
X11770000Y5400000D01*
X11320000Y5570000D02*
X11300000Y5600000D01*
X11300000Y5600000D02*
X11260000Y5630000D01*
X11260000Y5630000D02*
X11170000Y5630000D01*
X11170000Y5630000D02*
X11130000Y5600000D01*
X11130000Y5600000D02*
X11110000Y5540000D01*
X11110000Y5540000D02*
X11110000Y5170000D01*
X11320000Y5630000D02*
X11320000Y5170000D01*
X11540000Y5400000D02*
X11540000Y5520000D01*
X11540000Y5520000D02*
X11560000Y5590000D01*
X11560000Y5590000D02*
X11600000Y5630000D01*
X11600000Y5630000D02*
X11700000Y5630000D01*
X11700000Y5630000D02*
X11740000Y5600000D01*
X11740000Y5600000D02*
X11770000Y5540000D01*
X11770000Y5540000D02*
X11770000Y5270000D01*
X11770000Y5270000D02*
X11750000Y5200000D01*
X11750000Y5200000D02*
X11710000Y5170000D01*
X11710000Y5170000D02*
X11610000Y5170000D01*
X11610000Y5170000D02*
X11560000Y5200000D01*
X12200000Y5600000D02*
X12160000Y5630000D01*
X12160000Y5630000D02*
X12060000Y5630000D01*
X12060000Y5630000D02*
X12020000Y5600000D01*
X12020000Y5600000D02*
X11990000Y5570000D01*
X11990000Y5570000D02*
X11970000Y5510000D01*
X11970000Y5510000D02*
X11970000Y5290000D01*
X11970000Y5290000D02*
X11990000Y5230000D01*
X11990000Y5230000D02*
X12010000Y5200000D01*
X12010000Y5200000D02*
X12050000Y5170000D01*
X12050000Y5170000D02*
X12150000Y5170000D01*
X12150000Y5170000D02*
X12200000Y5200000D01*
X12200000Y4930000D02*
X12200000Y5630000D01*
X12510000Y5630000D02*
X12590000Y5630000D01*
X12590000Y5630000D02*
X12630000Y5600000D01*
X12630000Y5600000D02*
X12650000Y5570000D01*
X12650000Y5570000D02*
X12680000Y5500000D01*
X12590000Y5170000D02*
X12510000Y5170000D01*
X12510000Y5170000D02*
X12460000Y5200000D01*
X12460000Y5200000D02*
X12440000Y5230000D01*
X12440000Y5230000D02*
X12420000Y5300000D01*
X12420000Y5300000D02*
X12420000Y5500000D01*
X12420000Y5500000D02*
X12440000Y5560000D01*
X12440000Y5560000D02*
X12460000Y5590000D01*
X12460000Y5590000D02*
X12510000Y5630000D01*
X12680000Y5500000D02*
X12680000Y5300000D01*
X12680000Y5300000D02*
X12660000Y5240000D01*
X12660000Y5240000D02*
X12640000Y5210000D01*
X12640000Y5210000D02*
X12590000Y5170000D01*
D15*
G36*
X11513840Y6004640D02*
X11488440Y6019880D01*
X11430020Y6055440D01*
X11346200Y6111320D01*
X11247140Y6177360D01*
X11148080Y6243400D01*
X11066800Y6296740D01*
X11010920Y6334840D01*
X10985520Y6347540D01*
X10972820Y6342460D01*
X10927100Y6319600D01*
X10858520Y6284040D01*
X10817880Y6263720D01*
X10756920Y6238320D01*
X10723900Y6230700D01*
X10718820Y6240860D01*
X10695960Y6289120D01*
X10660400Y6370400D01*
X10614680Y6479620D01*
X10558800Y6606620D01*
X10502920Y6741240D01*
X10444500Y6880940D01*
X10388620Y7015560D01*
X10340360Y7134940D01*
X10299720Y7231460D01*
X10274320Y7300040D01*
X10264160Y7327980D01*
X10266700Y7335600D01*
X10299720Y7366080D01*
X10353060Y7406720D01*
X10472440Y7503240D01*
X10589280Y7648020D01*
X10660400Y7813120D01*
X10683260Y7998540D01*
X10662940Y8168720D01*
X10596900Y8331280D01*
X10482600Y8478600D01*
X10342900Y8587820D01*
X10180340Y8656400D01*
X10000000Y8679260D01*
X9827280Y8658940D01*
X9659640Y8592900D01*
X9512320Y8481140D01*
X9448820Y8410020D01*
X9362460Y8260160D01*
X9314200Y8102680D01*
X9309120Y8062040D01*
X9316740Y7886780D01*
X9367540Y7716600D01*
X9461520Y7566740D01*
X9591060Y7442280D01*
X9606300Y7432120D01*
X9664720Y7386400D01*
X9705360Y7355920D01*
X9735840Y7330520D01*
X9512320Y6792040D01*
X9476760Y6708220D01*
X9415800Y6560900D01*
X9362460Y6433900D01*
X9319280Y6332300D01*
X9288800Y6266260D01*
X9276100Y6238320D01*
X9276100Y6235780D01*
X9255780Y6233240D01*
X9215140Y6248480D01*
X9138940Y6284040D01*
X9090680Y6309440D01*
X9032260Y6337380D01*
X9006860Y6347540D01*
X8984000Y6334840D01*
X8930660Y6299280D01*
X8849380Y6245940D01*
X8752860Y6182440D01*
X8661420Y6118940D01*
X8577600Y6063060D01*
X8516640Y6024960D01*
X8486160Y6007180D01*
X8481080Y6007180D01*
X8455680Y6022420D01*
X8407420Y6063060D01*
X8333760Y6131640D01*
X8229620Y6235780D01*
X8214380Y6251020D01*
X8128020Y6337380D01*
X8059440Y6411040D01*
X8013720Y6461840D01*
X7995940Y6484700D01*
X7995940Y6484700D01*
X8011180Y6515180D01*
X8049280Y6576140D01*
X8105160Y6662500D01*
X8173740Y6761560D01*
X8351540Y7020640D01*
X8255020Y7264480D01*
X8224540Y7340680D01*
X8186440Y7429580D01*
X8158500Y7495620D01*
X8143260Y7523560D01*
X8117860Y7533720D01*
X8049280Y7548960D01*
X7952760Y7569280D01*
X7838460Y7589600D01*
X7726700Y7609920D01*
X7627640Y7630240D01*
X7556520Y7642940D01*
X7523500Y7650560D01*
X7515880Y7655640D01*
X7508260Y7670880D01*
X7505720Y7703900D01*
X7503180Y7764860D01*
X7500640Y7858840D01*
X7500640Y7998540D01*
X7500640Y8013780D01*
X7503180Y8143320D01*
X7505720Y8250000D01*
X7508260Y8316040D01*
X7513340Y8343980D01*
X7513340Y8343980D01*
X7543820Y8351600D01*
X7614940Y8366840D01*
X7714000Y8384620D01*
X7833380Y8407480D01*
X7841000Y8410020D01*
X7957840Y8432880D01*
X8056900Y8453200D01*
X8128020Y8468440D01*
X8155960Y8478600D01*
X8163580Y8486220D01*
X8186440Y8531940D01*
X8219460Y8605600D01*
X8260100Y8694500D01*
X8298200Y8788480D01*
X8331220Y8872300D01*
X8354080Y8933260D01*
X8361700Y8961200D01*
X8359160Y8963740D01*
X8341380Y8991680D01*
X8300740Y9052640D01*
X8244860Y9136460D01*
X8176280Y9238060D01*
X8171200Y9245680D01*
X8102620Y9344740D01*
X8046740Y9431100D01*
X8011180Y9489520D01*
X7995940Y9517460D01*
X7995940Y9520000D01*
X8018800Y9550480D01*
X8069600Y9606360D01*
X8143260Y9682560D01*
X8229620Y9771460D01*
X8257560Y9796860D01*
X8356620Y9893380D01*
X8422660Y9954340D01*
X8465840Y9987360D01*
X8486160Y9994980D01*
X8486160Y9994980D01*
X8516640Y9977200D01*
X8580140Y9936560D01*
X8663960Y9878140D01*
X8765560Y9809560D01*
X8773180Y9804480D01*
X8872240Y9735900D01*
X8956060Y9680020D01*
X9014480Y9639380D01*
X9042420Y9624140D01*
X9044960Y9624140D01*
X9085600Y9636840D01*
X9156720Y9662240D01*
X9245620Y9695260D01*
X9337060Y9733360D01*
X9420880Y9768920D01*
X9484380Y9796860D01*
X9514860Y9814640D01*
X9514860Y9814640D01*
X9525020Y9850200D01*
X9542800Y9926400D01*
X9563120Y10028000D01*
X9588520Y10149920D01*
X9591060Y10170240D01*
X9613920Y10289620D01*
X9631700Y10388680D01*
X9646940Y10457260D01*
X9654560Y10485200D01*
X9669800Y10487740D01*
X9728220Y10492820D01*
X9817120Y10495360D01*
X9926340Y10495360D01*
X10038100Y10495360D01*
X10147320Y10492820D01*
X10241300Y10490280D01*
X10309880Y10485200D01*
X10337820Y10480120D01*
X10337820Y10477580D01*
X10347980Y10439480D01*
X10365760Y10365820D01*
X10386080Y10261680D01*
X10408940Y10139760D01*
X10414020Y10116900D01*
X10436880Y10000060D01*
X10457200Y9901000D01*
X10469900Y9834960D01*
X10477520Y9807020D01*
X10490220Y9801940D01*
X10538480Y9781620D01*
X10617220Y9748600D01*
X10716280Y9707960D01*
X10944880Y9616520D01*
X11226820Y9807020D01*
X11252220Y9824800D01*
X11353820Y9893380D01*
X11435100Y9949260D01*
X11493520Y9987360D01*
X11516380Y10000060D01*
X11518920Y10000060D01*
X11546860Y9974660D01*
X11602740Y9921320D01*
X11678940Y9847660D01*
X11767840Y9761300D01*
X11831340Y9695260D01*
X11910080Y9616520D01*
X11958340Y9563180D01*
X11986280Y9530160D01*
X11993900Y9509840D01*
X11991360Y9494600D01*
X11973580Y9466660D01*
X11932940Y9405700D01*
X11874520Y9319340D01*
X11805940Y9220280D01*
X11750060Y9136460D01*
X11689100Y9042480D01*
X11651000Y8976440D01*
X11635760Y8943420D01*
X11640840Y8930720D01*
X11658620Y8874840D01*
X11694180Y8791020D01*
X11734820Y8691960D01*
X11833880Y8470980D01*
X11978660Y8443040D01*
X12067560Y8425260D01*
X12189480Y8402400D01*
X12308860Y8379540D01*
X12491740Y8343980D01*
X12499360Y7668340D01*
X12471420Y7655640D01*
X12443480Y7648020D01*
X12374900Y7632780D01*
X12278380Y7612460D01*
X12161540Y7592140D01*
X12065020Y7574360D01*
X11965960Y7554040D01*
X11894840Y7541340D01*
X11864360Y7533720D01*
X11854200Y7523560D01*
X11831340Y7475300D01*
X11795780Y7399100D01*
X11755140Y7307660D01*
X11717040Y7213680D01*
X11681480Y7124780D01*
X11658620Y7058740D01*
X11648460Y7025720D01*
X11661160Y6997780D01*
X11699260Y6939360D01*
X11752600Y6858080D01*
X11821180Y6759020D01*
X11887220Y6662500D01*
X11945640Y6578680D01*
X11983740Y6517720D01*
X12001520Y6489780D01*
X11991360Y6472000D01*
X11953260Y6423740D01*
X11879600Y6347540D01*
X11767840Y6238320D01*
X11750060Y6220540D01*
X11663700Y6136720D01*
X11590040Y6068140D01*
X11536700Y6022420D01*
X11513840Y6004640D01*
X11513840Y6004640D01*
G37*
X11513840Y6004640D02*
X11488440Y6019880D01*
X11430020Y6055440D01*
X11346200Y6111320D01*
X11247140Y6177360D01*
X11148080Y6243400D01*
X11066800Y6296740D01*
X11010920Y6334840D01*
X10985520Y6347540D01*
X10972820Y6342460D01*
X10927100Y6319600D01*
X10858520Y6284040D01*
X10817880Y6263720D01*
X10756920Y6238320D01*
X10723900Y6230700D01*
X10718820Y6240860D01*
X10695960Y6289120D01*
X10660400Y6370400D01*
X10614680Y6479620D01*
X10558800Y6606620D01*
X10502920Y6741240D01*
X10444500Y6880940D01*
X10388620Y7015560D01*
X10340360Y7134940D01*
X10299720Y7231460D01*
X10274320Y7300040D01*
X10264160Y7327980D01*
X10266700Y7335600D01*
X10299720Y7366080D01*
X10353060Y7406720D01*
X10472440Y7503240D01*
X10589280Y7648020D01*
X10660400Y7813120D01*
X10683260Y7998540D01*
X10662940Y8168720D01*
X10596900Y8331280D01*
X10482600Y8478600D01*
X10342900Y8587820D01*
X10180340Y8656400D01*
X10000000Y8679260D01*
X9827280Y8658940D01*
X9659640Y8592900D01*
X9512320Y8481140D01*
X9448820Y8410020D01*
X9362460Y8260160D01*
X9314200Y8102680D01*
X9309120Y8062040D01*
X9316740Y7886780D01*
X9367540Y7716600D01*
X9461520Y7566740D01*
X9591060Y7442280D01*
X9606300Y7432120D01*
X9664720Y7386400D01*
X9705360Y7355920D01*
X9735840Y7330520D01*
X9512320Y6792040D01*
X9476760Y6708220D01*
X9415800Y6560900D01*
X9362460Y6433900D01*
X9319280Y6332300D01*
X9288800Y6266260D01*
X9276100Y6238320D01*
X9276100Y6235780D01*
X9255780Y6233240D01*
X9215140Y6248480D01*
X9138940Y6284040D01*
X9090680Y6309440D01*
X9032260Y6337380D01*
X9006860Y6347540D01*
X8984000Y6334840D01*
X8930660Y6299280D01*
X8849380Y6245940D01*
X8752860Y6182440D01*
X8661420Y6118940D01*
X8577600Y6063060D01*
X8516640Y6024960D01*
X8486160Y6007180D01*
X8481080Y6007180D01*
X8455680Y6022420D01*
X8407420Y6063060D01*
X8333760Y6131640D01*
X8229620Y6235780D01*
X8214380Y6251020D01*
X8128020Y6337380D01*
X8059440Y6411040D01*
X8013720Y6461840D01*
X7995940Y6484700D01*
X7995940Y6484700D01*
X8011180Y6515180D01*
X8049280Y6576140D01*
X8105160Y6662500D01*
X8173740Y6761560D01*
X8351540Y7020640D01*
X8255020Y7264480D01*
X8224540Y7340680D01*
X8186440Y7429580D01*
X8158500Y7495620D01*
X8143260Y7523560D01*
X8117860Y7533720D01*
X8049280Y7548960D01*
X7952760Y7569280D01*
X7838460Y7589600D01*
X7726700Y7609920D01*
X7627640Y7630240D01*
X7556520Y7642940D01*
X7523500Y7650560D01*
X7515880Y7655640D01*
X7508260Y7670880D01*
X7505720Y7703900D01*
X7503180Y7764860D01*
X7500640Y7858840D01*
X7500640Y7998540D01*
X7500640Y8013780D01*
X7503180Y8143320D01*
X7505720Y8250000D01*
X7508260Y8316040D01*
X7513340Y8343980D01*
X7513340Y8343980D01*
X7543820Y8351600D01*
X7614940Y8366840D01*
X7714000Y8384620D01*
X7833380Y8407480D01*
X7841000Y8410020D01*
X7957840Y8432880D01*
X8056900Y8453200D01*
X8128020Y8468440D01*
X8155960Y8478600D01*
X8163580Y8486220D01*
X8186440Y8531940D01*
X8219460Y8605600D01*
X8260100Y8694500D01*
X8298200Y8788480D01*
X8331220Y8872300D01*
X8354080Y8933260D01*
X8361700Y8961200D01*
X8359160Y8963740D01*
X8341380Y8991680D01*
X8300740Y9052640D01*
X8244860Y9136460D01*
X8176280Y9238060D01*
X8171200Y9245680D01*
X8102620Y9344740D01*
X8046740Y9431100D01*
X8011180Y9489520D01*
X7995940Y9517460D01*
X7995940Y9520000D01*
X8018800Y9550480D01*
X8069600Y9606360D01*
X8143260Y9682560D01*
X8229620Y9771460D01*
X8257560Y9796860D01*
X8356620Y9893380D01*
X8422660Y9954340D01*
X8465840Y9987360D01*
X8486160Y9994980D01*
X8486160Y9994980D01*
X8516640Y9977200D01*
X8580140Y9936560D01*
X8663960Y9878140D01*
X8765560Y9809560D01*
X8773180Y9804480D01*
X8872240Y9735900D01*
X8956060Y9680020D01*
X9014480Y9639380D01*
X9042420Y9624140D01*
X9044960Y9624140D01*
X9085600Y9636840D01*
X9156720Y9662240D01*
X9245620Y9695260D01*
X9337060Y9733360D01*
X9420880Y9768920D01*
X9484380Y9796860D01*
X9514860Y9814640D01*
X9514860Y9814640D01*
X9525020Y9850200D01*
X9542800Y9926400D01*
X9563120Y10028000D01*
X9588520Y10149920D01*
X9591060Y10170240D01*
X9613920Y10289620D01*
X9631700Y10388680D01*
X9646940Y10457260D01*
X9654560Y10485200D01*
X9669800Y10487740D01*
X9728220Y10492820D01*
X9817120Y10495360D01*
X9926340Y10495360D01*
X10038100Y10495360D01*
X10147320Y10492820D01*
X10241300Y10490280D01*
X10309880Y10485200D01*
X10337820Y10480120D01*
X10337820Y10477580D01*
X10347980Y10439480D01*
X10365760Y10365820D01*
X10386080Y10261680D01*
X10408940Y10139760D01*
X10414020Y10116900D01*
X10436880Y10000060D01*
X10457200Y9901000D01*
X10469900Y9834960D01*
X10477520Y9807020D01*
X10490220Y9801940D01*
X10538480Y9781620D01*
X10617220Y9748600D01*
X10716280Y9707960D01*
X10944880Y9616520D01*
X11226820Y9807020D01*
X11252220Y9824800D01*
X11353820Y9893380D01*
X11435100Y9949260D01*
X11493520Y9987360D01*
X11516380Y10000060D01*
X11518920Y10000060D01*
X11546860Y9974660D01*
X11602740Y9921320D01*
X11678940Y9847660D01*
X11767840Y9761300D01*
X11831340Y9695260D01*
X11910080Y9616520D01*
X11958340Y9563180D01*
X11986280Y9530160D01*
X11993900Y9509840D01*
X11991360Y9494600D01*
X11973580Y9466660D01*
X11932940Y9405700D01*
X11874520Y9319340D01*
X11805940Y9220280D01*
X11750060Y9136460D01*
X11689100Y9042480D01*
X11651000Y8976440D01*
X11635760Y8943420D01*
X11640840Y8930720D01*
X11658620Y8874840D01*
X11694180Y8791020D01*
X11734820Y8691960D01*
X11833880Y8470980D01*
X11978660Y8443040D01*
X12067560Y8425260D01*
X12189480Y8402400D01*
X12308860Y8379540D01*
X12491740Y8343980D01*
X12499360Y7668340D01*
X12471420Y7655640D01*
X12443480Y7648020D01*
X12374900Y7632780D01*
X12278380Y7612460D01*
X12161540Y7592140D01*
X12065020Y7574360D01*
X11965960Y7554040D01*
X11894840Y7541340D01*
X11864360Y7533720D01*
X11854200Y7523560D01*
X11831340Y7475300D01*
X11795780Y7399100D01*
X11755140Y7307660D01*
X11717040Y7213680D01*
X11681480Y7124780D01*
X11658620Y7058740D01*
X11648460Y7025720D01*
X11661160Y6997780D01*
X11699260Y6939360D01*
X11752600Y6858080D01*
X11821180Y6759020D01*
X11887220Y6662500D01*
X11945640Y6578680D01*
X11983740Y6517720D01*
X12001520Y6489780D01*
X11991360Y6472000D01*
X11953260Y6423740D01*
X11879600Y6347540D01*
X11767840Y6238320D01*
X11750060Y6220540D01*
X11663700Y6136720D01*
X11590040Y6068140D01*
X11536700Y6022420D01*
X11513840Y6004640D01*
D12*
X27028571Y21285714D02*
X27076190Y21142857D01*
X27123810Y21095238D01*
X27219048Y21047619D01*
X27361905Y21047619D01*
X27457143Y21095238D01*
X27504762Y21142857D01*
X27552381Y21238095D01*
X27552381Y21619048D01*
X26552381Y21619048D01*
X26552381Y21285714D01*
X26600000Y21190476D01*
X26647619Y21142857D01*
X26742857Y21095238D01*
X26838095Y21095238D01*
X26933333Y21142857D01*
X26980952Y21190476D01*
X27028571Y21285714D01*
X27028571Y21619048D01*
X26552381Y20761905D02*
X26552381Y20190476D01*
X27552381Y20476191D02*
X26552381Y20476191D01*
X27552381Y19333333D02*
X27552381Y19904762D01*
X27552381Y19619048D02*
X26552381Y19619048D01*
X26695238Y19714286D01*
X26790476Y19809524D01*
X26838095Y19904762D01*
%LPC*%
D16*
X25000000Y44650000D03*
D17*
X6650148Y9865000D03*
X8849852Y11135000D03*
X43349852Y9865000D03*
X41150148Y11135000D03*
X25000000Y38770000D03*
X25000000Y36230000D03*
D18*
X29064000Y32750000D03*
X20936000Y32750000D03*
X9468000Y16519527D03*
X13532000Y9480473D03*
X40532000Y16519527D03*
X36468000Y9480473D03*
D19*
X33100000Y20500000D03*
X13200000Y20500000D03*
X11000000Y20500000D03*
X38000000Y20500000D03*
D20*
X20750000Y40500000D03*
X20750000Y42500000D03*
X29250000Y40500000D03*
X29250000Y42500000D03*
M02*
