%TF.GenerationSoftware,KiCad,Pcbnew,4.0.6-e0-6349~53~ubuntu16.04.1*%
%TF.CreationDate,2017-05-16T14:29:19+05:30*%
%TF.ProjectId,MAP4,4D4150342E6B696361645F7063620000,1*%
%TF.FileFunction,Soldermask,Bot*%
%FSLAX46Y46*%
G04 Gerber Fmt 4.6, Leading zero omitted, Abs format (unit mm)*
G04 Created by KiCad (PCBNEW 4.0.6-e0-6349~53~ubuntu16.04.1) date Tue May 16 14:29:19 2017*
%MOMM*%
%LPD*%
G01*
G04 APERTURE LIST*
%ADD10C,0.050800*%
%ADD11C,6.496000*%
%ADD12R,1.400000X1.850000*%
%ADD13C,2.000000*%
%ADD14C,1.800000*%
%ADD15C,2.900000*%
%ADD16C,2.200000*%
G04 APERTURE END LIST*
D10*
D11*
X25000000Y44650000D03*
D12*
X25950000Y32750000D03*
X24050000Y32750000D03*
D13*
X29064000Y32750000D03*
X20936000Y32750000D03*
D10*
G36*
X12176073Y13679006D02*
X10573927Y12754006D01*
X9873927Y13966442D01*
X11476073Y14891442D01*
X12176073Y13679006D01*
X12176073Y13679006D01*
G37*
G36*
X13126073Y12033558D02*
X11523927Y11108558D01*
X10823927Y12320994D01*
X12426073Y13245994D01*
X13126073Y12033558D01*
X13126073Y12033558D01*
G37*
D13*
X9468000Y16519527D03*
X13532000Y9480473D03*
D10*
G36*
X39426073Y12754006D02*
X37823927Y13679006D01*
X38523927Y14891442D01*
X40126073Y13966442D01*
X39426073Y12754006D01*
X39426073Y12754006D01*
G37*
G36*
X38476073Y11108558D02*
X36873927Y12033558D01*
X37573927Y13245994D01*
X39176073Y12320994D01*
X38476073Y11108558D01*
X38476073Y11108558D01*
G37*
D13*
X40532000Y16519527D03*
X36468000Y9480473D03*
D14*
X20750000Y40500000D03*
X20750000Y42500000D03*
X29250000Y40500000D03*
X29250000Y42500000D03*
D15*
X33100000Y20500000D03*
X13200000Y20500000D03*
X11000000Y20500000D03*
X38000000Y20500000D03*
D16*
X6650148Y9865000D03*
X8849852Y11135000D03*
X43349852Y9865000D03*
X41150148Y11135000D03*
X25000000Y38770000D03*
X25000000Y36230000D03*
M02*
