%TF.GenerationSoftware,KiCad,Pcbnew,4.0.6-e0-6349~53~ubuntu16.04.1*%
%TF.CreationDate,2017-05-16T14:29:19+05:30*%
%TF.ProjectId,MAP4,4D4150342E6B696361645F7063620000,1*%
%TF.FileFunction,Copper,L1,Top,Signal*%
%FSLAX46Y46*%
G04 Gerber Fmt 4.6, Leading zero omitted, Abs format (unit mm)*
G04 Created by KiCad (PCBNEW 4.0.6-e0-6349~53~ubuntu16.04.1) date Tue May 16 14:29:19 2017*
%MOMM*%
%LPD*%
G01*
G04 APERTURE LIST*
%ADD10C,0.050800*%
%ADD11C,6.096000*%
%ADD12C,1.600000*%
%ADD13C,1.400000*%
%ADD14C,2.500000*%
%ADD15C,1.800000*%
%ADD16C,1.000000*%
G04 APERTURE END LIST*
D10*
D11*
X25000000Y44650000D03*
D12*
X29064000Y32750000D03*
X20936000Y32750000D03*
X9468000Y16519527D03*
X13532000Y9480473D03*
X40532000Y16519527D03*
X36468000Y9480473D03*
D13*
X20750000Y40500000D03*
X20750000Y42500000D03*
X29250000Y40500000D03*
X29250000Y42500000D03*
D14*
X33100000Y20500000D03*
X13200000Y20500000D03*
X11000000Y20500000D03*
X38000000Y20500000D03*
D15*
X6650148Y9865000D03*
X8849852Y11135000D03*
X43349852Y9865000D03*
X41150148Y11135000D03*
X25000000Y38770000D03*
X25000000Y36230000D03*
D16*
X25000000Y38770000D02*
X23370000Y38770000D01*
X23370000Y38770000D02*
X21600000Y37000000D01*
X21600000Y37000000D02*
X19100990Y37000001D01*
X19100990Y37000001D02*
X8203435Y20500000D01*
X25000000Y38770000D02*
X26630000Y38770000D01*
X26630000Y38770000D02*
X28400000Y37000000D01*
X28400000Y37000000D02*
X30370000Y37000000D01*
X30370000Y37000000D02*
X45250000Y13750000D01*
X45250000Y13750000D02*
X43349852Y9865000D01*
X11000000Y20500000D02*
X9232234Y20500000D01*
X9232234Y20500000D02*
X8203435Y20500000D01*
X8203435Y20500000D02*
X4005001Y14143148D01*
X4005001Y14143148D02*
X6650148Y9865000D01*
X43349852Y9865000D02*
X41250000Y6000000D01*
X41250000Y6000000D02*
X9250000Y6000000D01*
X9250000Y6000000D02*
X6650148Y9865000D01*
X34500000Y24000000D02*
X34500000Y23000000D01*
X34000000Y24500000D02*
X34500000Y24000000D01*
X32500000Y26000000D02*
X34000000Y24500000D01*
X32500000Y26000000D02*
X31500000Y27000000D01*
X32500000Y25500000D02*
X32500000Y26000000D01*
X20000000Y23000000D02*
X17000000Y26000000D01*
X30000000Y23000000D02*
X30500000Y23000000D01*
X29000000Y23000000D02*
X30000000Y23000000D01*
X30000000Y23000000D02*
X32500000Y25500000D01*
X25000000Y19000000D02*
X23000000Y17000000D01*
X25000000Y19000000D02*
X27000000Y17000000D01*
X20000000Y23000000D02*
X21000000Y23000000D01*
X31519527Y9480473D02*
X36468000Y9480473D01*
X21000000Y23000000D02*
X25000000Y19000000D01*
X25000000Y19000000D02*
X29000000Y23000000D01*
X30500000Y23000000D02*
X30500000Y10500000D01*
X30500000Y10500000D02*
X31519527Y9480473D01*
X20000000Y23000000D02*
X20000000Y27000000D01*
X20000000Y10500000D02*
X20000000Y23000000D01*
X18980473Y9480473D02*
X20000000Y10500000D01*
X13532000Y9480473D02*
X18980473Y9480473D01*
M02*
