%TF.GenerationSoftware,KiCad,Pcbnew,4.0.6-e0-6349~53~ubuntu16.04.1*%
%TF.CreationDate,2017-05-19T12:33:35+05:30*%
%TF.ProjectId,MAP4,4D4150342E6B696361645F7063620000,1*%
%TF.FileFunction,Copper,L2,Bot,Signal*%
%FSLAX46Y46*%
G04 Gerber Fmt 4.6, Leading zero omitted, Abs format (unit mm)*
G04 Created by KiCad (PCBNEW 4.0.6-e0-6349~53~ubuntu16.04.1) date Fri May 19 12:33:35 2017*
%MOMM*%
%LPD*%
G01*
G04 APERTURE LIST*
%ADD10C,0.050800*%
%ADD11C,6.096000*%
%ADD12R,1.000000X1.450000*%
%ADD13C,1.600000*%
%ADD14C,1.400000*%
%ADD15C,2.500000*%
%ADD16C,1.800000*%
%ADD17C,1.000000*%
G04 APERTURE END LIST*
D10*
D11*
X150000000Y-75850000D03*
D12*
X150950000Y-87750000D03*
X149050000Y-87750000D03*
D13*
X154064000Y-87750000D03*
X145936000Y-87750000D03*
D10*
G36*
X136902868Y-106747789D02*
X135647132Y-107472789D01*
X135147132Y-106606763D01*
X136402868Y-105881763D01*
X136902868Y-106747789D01*
X136902868Y-106747789D01*
G37*
G36*
X137852868Y-108393237D02*
X136597132Y-109118237D01*
X136097132Y-108252211D01*
X137352868Y-107527211D01*
X137852868Y-108393237D01*
X137852868Y-108393237D01*
G37*
D13*
X134468000Y-103980473D03*
X138532000Y-111019527D03*
D10*
G36*
X164352868Y-107472789D02*
X163097132Y-106747789D01*
X163597132Y-105881763D01*
X164852868Y-106606763D01*
X164352868Y-107472789D01*
X164352868Y-107472789D01*
G37*
G36*
X163402868Y-109118237D02*
X162147132Y-108393237D01*
X162647132Y-107527211D01*
X163902868Y-108252211D01*
X163402868Y-109118237D01*
X163402868Y-109118237D01*
G37*
D13*
X165532000Y-103980473D03*
X161468000Y-111019527D03*
D14*
X145750000Y-80000000D03*
X145750000Y-78000000D03*
X154250000Y-80000000D03*
X154250000Y-78000000D03*
D15*
X158100000Y-100000000D03*
X138200000Y-100000000D03*
X136000000Y-100000000D03*
X163000000Y-100000000D03*
D16*
X131650148Y-110635000D03*
X133849852Y-109365000D03*
X168349852Y-110635000D03*
X166150148Y-109365000D03*
X150000000Y-81730000D03*
X150000000Y-84270000D03*
D17*
X138200000Y-100000000D02*
X136000000Y-100000000D01*
X158100000Y-110100000D02*
X159019527Y-111019527D01*
X159019527Y-111019527D02*
X161468000Y-111019527D01*
X158100000Y-100000000D02*
X158100000Y-110100000D01*
X158100000Y-100000000D02*
X158100000Y-92100000D01*
X158100000Y-92100000D02*
X157000000Y-91000000D01*
X157000000Y-91000000D02*
X147000000Y-91000000D01*
X147000000Y-91000000D02*
X145936000Y-89936000D01*
X145936000Y-89936000D02*
X145936000Y-87750000D01*
X149050000Y-87750000D02*
X145936000Y-87750000D01*
X161468000Y-111019527D02*
X161468000Y-109879724D01*
X161468000Y-109879724D02*
X163025000Y-108322724D01*
X138532000Y-111019527D02*
X138532000Y-109879724D01*
X138532000Y-109879724D02*
X136975000Y-108322724D01*
X158100000Y-100000000D02*
X163000000Y-100000000D01*
X150950000Y-87750000D02*
X154064000Y-87750000D01*
X150000000Y-84270000D02*
X151770000Y-84270000D01*
X154064000Y-86564000D02*
X154064000Y-87750000D01*
X151770000Y-84270000D02*
X154064000Y-86564000D01*
X163975000Y-106677276D02*
X163975000Y-105537473D01*
X163975000Y-105537473D02*
X165532000Y-103980473D01*
X166150148Y-109365000D02*
X166150148Y-104598621D01*
X166150148Y-104598621D02*
X165532000Y-103980473D01*
X136025000Y-106677276D02*
X136025000Y-105537473D01*
X136025000Y-105537473D02*
X134468000Y-103980473D01*
X133849852Y-104598621D02*
X134468000Y-103980473D01*
X133849852Y-109365000D02*
X133849852Y-104598621D01*
M02*
