%TF.GenerationSoftware,KiCad,Pcbnew,4.0.6-e0-6349~53~ubuntu16.04.1*%
%TF.CreationDate,2017-05-16T14:29:19+05:30*%
%TF.ProjectId,MAP4,4D4150342E6B696361645F7063620000,1*%
%TF.FileFunction,Copper,L2,Bot,Signal*%
%FSLAX46Y46*%
G04 Gerber Fmt 4.6, Leading zero omitted, Abs format (unit mm)*
G04 Created by KiCad (PCBNEW 4.0.6-e0-6349~53~ubuntu16.04.1) date Tue May 16 14:29:19 2017*
%MOMM*%
%LPD*%
G01*
G04 APERTURE LIST*
%ADD10C,0.050800*%
%ADD11C,6.096000*%
%ADD12R,1.000000X1.450000*%
%ADD13C,1.600000*%
%ADD14C,1.400000*%
%ADD15C,2.500000*%
%ADD16C,1.800000*%
%ADD17C,1.000000*%
G04 APERTURE END LIST*
D10*
D11*
X25000000Y44650000D03*
D12*
X25950000Y32750000D03*
X24050000Y32750000D03*
D13*
X29064000Y32750000D03*
X20936000Y32750000D03*
D10*
G36*
X11902868Y13752211D02*
X10647132Y13027211D01*
X10147132Y13893237D01*
X11402868Y14618237D01*
X11902868Y13752211D01*
X11902868Y13752211D01*
G37*
G36*
X12852868Y12106763D02*
X11597132Y11381763D01*
X11097132Y12247789D01*
X12352868Y12972789D01*
X12852868Y12106763D01*
X12852868Y12106763D01*
G37*
D13*
X9468000Y16519527D03*
X13532000Y9480473D03*
D10*
G36*
X39352868Y13027211D02*
X38097132Y13752211D01*
X38597132Y14618237D01*
X39852868Y13893237D01*
X39352868Y13027211D01*
X39352868Y13027211D01*
G37*
G36*
X38402868Y11381763D02*
X37147132Y12106763D01*
X37647132Y12972789D01*
X38902868Y12247789D01*
X38402868Y11381763D01*
X38402868Y11381763D01*
G37*
D13*
X40532000Y16519527D03*
X36468000Y9480473D03*
D14*
X20750000Y40500000D03*
X20750000Y42500000D03*
X29250000Y40500000D03*
X29250000Y42500000D03*
D15*
X33100000Y20500000D03*
X13200000Y20500000D03*
X11000000Y20500000D03*
X38000000Y20500000D03*
D16*
X6650148Y9865000D03*
X8849852Y11135000D03*
X43349852Y9865000D03*
X41150148Y11135000D03*
X25000000Y38770000D03*
X25000000Y36230000D03*
D17*
X13200000Y20500000D02*
X11000000Y20500000D01*
X33100000Y10400000D02*
X34019527Y9480473D01*
X34019527Y9480473D02*
X36468000Y9480473D01*
X33100000Y20500000D02*
X33100000Y10400000D01*
X33100000Y20500000D02*
X33100000Y28400000D01*
X33100000Y28400000D02*
X32000000Y29500000D01*
X32000000Y29500000D02*
X22000000Y29500000D01*
X22000000Y29500000D02*
X20936000Y30564000D01*
X20936000Y30564000D02*
X20936000Y32750000D01*
X24050000Y32750000D02*
X20936000Y32750000D01*
X36468000Y9480473D02*
X36468000Y10620276D01*
X36468000Y10620276D02*
X38025000Y12177276D01*
X13532000Y9480473D02*
X13532000Y10620276D01*
X13532000Y10620276D02*
X11975000Y12177276D01*
X33100000Y20500000D02*
X38000000Y20500000D01*
X25950000Y32750000D02*
X29064000Y32750000D01*
X25000000Y36230000D02*
X26770000Y36230000D01*
X29064000Y33936000D02*
X29064000Y32750000D01*
X26770000Y36230000D02*
X29064000Y33936000D01*
X38975000Y13822724D02*
X38975000Y14962527D01*
X38975000Y14962527D02*
X40532000Y16519527D01*
X41150148Y11135000D02*
X41150148Y15901379D01*
X41150148Y15901379D02*
X40532000Y16519527D01*
X11025000Y13822724D02*
X11025000Y14962527D01*
X11025000Y14962527D02*
X9468000Y16519527D01*
X8849852Y15901379D02*
X9468000Y16519527D01*
X8849852Y11135000D02*
X8849852Y15901379D01*
M02*
