M48
INCH,TZ
T1C0.031
T2C0.051
T3C0.120
%
G90
G05
T1
X002618Y003884
X003484Y004384
X003728Y006504
X005328Y003732
X008169Y016732
X008169Y015945
X008243Y012894
X009843Y015264
X009843Y014264
X011443Y012894
X011516Y016732
X011516Y015945
X014357Y003732
X015957Y006504
X016201Y004384
X017067Y003884
T2
X004331Y008071
X005197Y008071
X013031Y008071
X014961Y008071
T3
X009843Y017579
T0
M30
