%TF.GenerationSoftware,KiCad,Pcbnew,4.0.2+e4-6225~38~ubuntu15.10.1-stable*%
%TF.CreationDate,2016-05-27T15:45:48+05:30*%
%TF.ProjectId,MAP4,4D4150342E6B696361645F7063620000,1*%
%TF.FileFunction,Copper,L1,Top,Signal*%
%FSLAX46Y46*%
G04 Gerber Fmt 4.6, Leading zero omitted, Abs format (unit mm)*
G04 Created by KiCad (PCBNEW 4.0.2+e4-6225~38~ubuntu15.10.1-stable) date Fri May 27 15:45:48 2016*
%MOMM*%
G01*
G04 APERTURE LIST*
%ADD10C,0.050800*%
%ADD11C,0.150000*%
%ADD12C,6.096000*%
%ADD13C,1.800000*%
%ADD14R,1.000000X1.450000*%
%ADD15C,1.600000*%
%ADD16C,2.500000*%
%ADD17C,1.400000*%
%ADD18C,1.000000*%
G04 APERTURE END LIST*
D10*
D11*
X46499968Y4752174D02*
G75*
G03X49450000Y9900000I-49968J3447826D01*
G01*
X45350000Y17000000D02*
X49450000Y9900000D01*
X45347375Y17000452D02*
G75*
G03X32200000Y39850000I-20347375J3499548D01*
G01*
X27900000Y47150000D02*
X32200000Y39850000D01*
X27900000Y47150000D02*
G75*
G03X22100000Y47150000I-2900000J-1650000D01*
G01*
X17800000Y39850000D02*
X22100000Y47150000D01*
X17799072Y39852496D02*
G75*
G03X4650000Y17000000I7200928J-19352496D01*
G01*
X500000Y9900000D02*
X4650000Y17000000D01*
X498108Y9901071D02*
G75*
G03X3550000Y4750000I3001892J-1701071D01*
G01*
X11800000Y4750000D02*
X3550000Y4750000D01*
X11800000Y4750000D02*
G75*
G03X38200000Y4750000I13200000J15750000D01*
G01*
X46500000Y4750000D02*
X38200000Y4750000D01*
D12*
X25000000Y44650000D03*
D13*
X6650148Y9865000D03*
X8849852Y11135000D03*
X43349852Y9865000D03*
X41150148Y11135000D03*
X25000000Y38770000D03*
X25000000Y36230000D03*
D14*
X25950000Y32750000D03*
X24050000Y32750000D03*
D15*
X29064000Y32750000D03*
X20936000Y32750000D03*
D10*
G36*
X11902868Y13752211D02*
X10647132Y13027211D01*
X10147132Y13893237D01*
X11402868Y14618237D01*
X11902868Y13752211D01*
X11902868Y13752211D01*
G37*
G36*
X12852868Y12106763D02*
X11597132Y11381763D01*
X11097132Y12247789D01*
X12352868Y12972789D01*
X12852868Y12106763D01*
X12852868Y12106763D01*
G37*
D15*
X9468000Y16519527D03*
X13532000Y9480473D03*
D10*
G36*
X39352868Y13027211D02*
X38097132Y13752211D01*
X38597132Y14618237D01*
X39852868Y13893237D01*
X39352868Y13027211D01*
X39352868Y13027211D01*
G37*
G36*
X38402868Y11381763D02*
X37147132Y12106763D01*
X37647132Y12972789D01*
X38902868Y12247789D01*
X38402868Y11381763D01*
X38402868Y11381763D01*
G37*
D15*
X40532000Y16519527D03*
X36468000Y9480473D03*
D16*
X33100000Y20500000D03*
X13200000Y20500000D03*
X11000000Y20500000D03*
X38000000Y20500000D03*
D17*
X20750000Y40500000D03*
X20750000Y42500000D03*
X29250000Y40500000D03*
X29250000Y42500000D03*
D18*
X25000000Y38770000D02*
X23770000Y38770000D01*
X19100990Y37000000D02*
X19100990Y37000001D01*
X22000000Y37000000D02*
X19100990Y37000000D01*
X23770000Y38770000D02*
X22000000Y37000000D01*
X25000000Y38770000D02*
X26730000Y38770000D01*
X28500000Y37000000D02*
X30370000Y37000000D01*
X26730000Y38770000D02*
X28500000Y37000000D01*
X38000000Y20500000D02*
X40930000Y20500000D01*
X30370000Y37000000D02*
X40930000Y20500000D01*
X40930000Y20500000D02*
X41570000Y19500000D01*
X41570000Y19500000D02*
X45250000Y13750000D01*
X45250000Y13750000D02*
X43349852Y9865000D01*
X19100990Y37000001D02*
X4005001Y14143148D01*
X4005001Y14143148D02*
X6650148Y9865000D01*
X43349852Y9865000D02*
X41250000Y6000000D01*
X41250000Y6000000D02*
X9250000Y6000000D01*
X9250000Y6000000D02*
X6650148Y9865000D01*
X13532000Y9480473D02*
X19230473Y9480473D01*
X13532000Y9480473D02*
X13532000Y10620276D01*
X13532000Y10620276D02*
X11975000Y12177276D01*
X36468000Y9480473D02*
X30769527Y9480473D01*
X36468000Y9480473D02*
X36468000Y10620276D01*
X36468000Y10620276D02*
X38025000Y12177276D01*
X19230473Y9480473D02*
X19750000Y10000000D01*
X30769527Y9480473D02*
X30250000Y10000000D01*
X19750000Y10000000D02*
X19750000Y23000000D01*
X30250000Y10000000D02*
X30250000Y22500000D01*
X19750000Y23000000D02*
X19500000Y23000000D01*
X19500000Y23000000D02*
X16500000Y26000000D01*
X16500000Y26000000D02*
X15500000Y26000000D01*
X15500000Y26000000D02*
X13200000Y23700000D01*
X13200000Y23700000D02*
X13200000Y20500000D01*
X19750000Y23000000D02*
X20500000Y23000000D01*
X20500000Y23000000D02*
X25250000Y18250000D01*
X25250000Y18250000D02*
X29500000Y22500000D01*
X29500000Y22500000D02*
X30250000Y22500000D01*
X20936000Y32750000D02*
X20936000Y30314000D01*
X20936000Y30314000D02*
X22000000Y29250000D01*
X22000000Y29250000D02*
X32250000Y29250000D01*
X33000000Y28500000D02*
X33000000Y25250000D01*
X32250000Y29250000D02*
X33000000Y28500000D01*
X33000000Y25250000D02*
X30250000Y22500000D01*
X20936000Y32750000D02*
X24050000Y32750000D01*
X25950000Y32750000D02*
X25950000Y35280000D01*
X25950000Y35280000D02*
X25000000Y36230000D01*
X29064000Y32750000D02*
X25950000Y32750000D01*
X41150148Y11135000D02*
X41150148Y14761576D01*
X41150148Y14761576D02*
X40532000Y15379724D01*
X40532000Y16519527D02*
X40532000Y15379724D01*
X40532000Y15379724D02*
X38975000Y13822724D01*
X9468000Y15379724D02*
X11025000Y13822724D01*
X8849852Y11135000D02*
X8849852Y14761576D01*
X9468000Y16519527D02*
X9468000Y15379724D01*
X8849852Y14761576D02*
X9468000Y15379724D01*
M02*
