%TF.GenerationSoftware,KiCad,Pcbnew,4.0.2+e4-6225~38~ubuntu15.10.1-stable*%
%TF.CreationDate,2016-05-25T15:50:04+05:30*%
%TF.ProjectId,MAP4,4D4150342E6B696361645F7063620000,rev?*%
%TF.FileFunction,Copper,L2,Bot,Signal*%
%FSLAX46Y46*%
G04 Gerber Fmt 4.6, Leading zero omitted, Abs format (unit mm)*
G04 Created by KiCad (PCBNEW 4.0.2+e4-6225~38~ubuntu15.10.1-stable) date Wed May 25 15:50:04 2016*
%MOMM*%
G01*
G04 APERTURE LIST*
%ADD10C,0.050800*%
%ADD11C,0.150000*%
%ADD12C,6.096000*%
%ADD13C,1.800000*%
%ADD14C,1.600000*%
%ADD15C,2.500000*%
%ADD16C,1.400000*%
G04 APERTURE END LIST*
D10*
D11*
X46499968Y4752174D02*
G75*
G03X49450000Y9900000I-49968J3447826D01*
G01*
X45350000Y17000000D02*
X49450000Y9900000D01*
X45347375Y17000452D02*
G75*
G03X32200000Y39850000I-20347375J3499548D01*
G01*
X27900000Y47150000D02*
X32200000Y39850000D01*
X27900000Y47150000D02*
G75*
G03X22100000Y47150000I-2900000J-1650000D01*
G01*
X17800000Y39850000D02*
X22100000Y47150000D01*
X17799072Y39852496D02*
G75*
G03X4650000Y17000000I7200928J-19352496D01*
G01*
X500000Y9900000D02*
X4650000Y17000000D01*
X498108Y9901071D02*
G75*
G03X3550000Y4750000I3001892J-1701071D01*
G01*
X11800000Y4750000D02*
X3550000Y4750000D01*
X11800000Y4750000D02*
G75*
G03X38200000Y4750000I13200000J15750000D01*
G01*
X46500000Y4750000D02*
X38200000Y4750000D01*
D12*
X25000000Y44650000D03*
D13*
X6650148Y9865000D03*
X8849852Y11135000D03*
X43349852Y9865000D03*
X41150148Y11135000D03*
X25000000Y38770000D03*
X25000000Y36230000D03*
D14*
X29064000Y32750000D03*
X20936000Y32750000D03*
X9468000Y16519527D03*
X13532000Y9480473D03*
X40532000Y16519527D03*
X36468000Y9480473D03*
D15*
X33100000Y20500000D03*
X13200000Y20500000D03*
X11000000Y20500000D03*
X38000000Y20500000D03*
D16*
X20750000Y40500000D03*
X20750000Y42500000D03*
X29250000Y40500000D03*
X29250000Y42500000D03*
M02*
