%TF.GenerationSoftware,KiCad,Pcbnew,4.0.2+e4-6225~38~ubuntu15.10.1-stable*%
%TF.CreationDate,2016-05-25T15:50:04+05:30*%
%TF.ProjectId,MAP4,4D4150342E6B696361645F7063620000,rev?*%
%TF.FileFunction,Legend,Top*%
%FSLAX46Y46*%
G04 Gerber Fmt 4.6, Leading zero omitted, Abs format (unit mm)*
G04 Created by KiCad (PCBNEW 4.0.2+e4-6225~38~ubuntu15.10.1-stable) date Wed May 25 15:50:04 2016*
%MOMM*%
G01*
G04 APERTURE LIST*
%ADD10C,0.050800*%
%ADD11C,0.150000*%
%ADD12C,0.010000*%
%ADD13C,0.101600*%
%ADD14C,0.203200*%
%ADD15C,0.127000*%
%ADD16C,0.114300*%
%ADD17C,6.496000*%
%ADD18C,2.200000*%
%ADD19R,1.400000X1.850000*%
%ADD20C,2.000000*%
%ADD21C,2.900000*%
%ADD22C,1.800000*%
G04 APERTURE END LIST*
D10*
D11*
X46499968Y4752174D02*
G75*
G03X49450000Y9900000I-49968J3447826D01*
G01*
X45350000Y17000000D02*
X49450000Y9900000D01*
X45347375Y17000452D02*
G75*
G03X32200000Y39850000I-20347375J3499548D01*
G01*
X27900000Y47150000D02*
X32200000Y39850000D01*
X27900000Y47150000D02*
G75*
G03X22100000Y47150000I-2900000J-1650000D01*
G01*
X17800000Y39850000D02*
X22100000Y47150000D01*
X17799072Y39852496D02*
G75*
G03X4650000Y17000000I7200928J-19352496D01*
G01*
X500000Y9900000D02*
X4650000Y17000000D01*
X498108Y9901071D02*
G75*
G03X3550000Y4750000I3001892J-1701071D01*
G01*
X11800000Y4750000D02*
X3550000Y4750000D01*
X11800000Y4750000D02*
G75*
G03X38200000Y4750000I13200000J15750000D01*
G01*
X46500000Y4750000D02*
X38200000Y4750000D01*
D12*
G36*
X25389936Y44766244D02*
X25669047Y44710491D01*
X25950280Y44617130D01*
X26176841Y44520982D01*
X26604972Y44287536D01*
X27038934Y43976556D01*
X27463704Y43600486D01*
X27864258Y43171770D01*
X27989965Y43019109D01*
X28065215Y42917052D01*
X28184197Y42745834D01*
X28341090Y42514237D01*
X28530073Y42231045D01*
X28745328Y41905043D01*
X28981033Y41545014D01*
X29231368Y41159743D01*
X29490513Y40758013D01*
X29564364Y40642990D01*
X30880546Y38590855D01*
X30893297Y39293459D01*
X30906049Y39996064D01*
X31031843Y39965846D01*
X31160308Y39928909D01*
X31355710Y39865223D01*
X31598938Y39781601D01*
X31870879Y39684862D01*
X32152424Y39581819D01*
X32424459Y39479289D01*
X32667873Y39384087D01*
X32704728Y39369246D01*
X33189637Y39172980D01*
X33187590Y38833490D01*
X33184714Y38632486D01*
X33178743Y38380953D01*
X33170738Y38120634D01*
X33166651Y38009091D01*
X33161827Y37747370D01*
X33174401Y37560520D01*
X33209329Y37431892D01*
X33271566Y37344836D01*
X33366068Y37282703D01*
X33385593Y37273469D01*
X33510688Y37238015D01*
X33649523Y37224000D01*
X33772330Y37240869D01*
X33870962Y37298645D01*
X33951538Y37408083D01*
X34020177Y37579939D01*
X34083000Y37824968D01*
X34131363Y38070836D01*
X34172933Y38289583D01*
X34211090Y38471097D01*
X34241986Y38598375D01*
X34261773Y38654416D01*
X34263699Y38655637D01*
X34319003Y38633161D01*
X34439285Y38571110D01*
X34610392Y38477546D01*
X34818171Y38360531D01*
X35048469Y38228127D01*
X35287135Y38088396D01*
X35520014Y37949402D01*
X35732954Y37819206D01*
X35743585Y37812598D01*
X35934658Y37689280D01*
X36091466Y37579559D01*
X36200055Y37493856D01*
X36246468Y37442592D01*
X36246875Y37436750D01*
X36229978Y37376363D01*
X36195396Y37242674D01*
X36147292Y37052124D01*
X36089831Y36821154D01*
X36051362Y36664983D01*
X35985024Y36390362D01*
X35940037Y36189347D01*
X35914301Y36046203D01*
X35905718Y35945198D01*
X35912190Y35870600D01*
X35931619Y35806675D01*
X35935578Y35796896D01*
X36038137Y35650629D01*
X36188082Y35555125D01*
X36359412Y35516899D01*
X36526125Y35542466D01*
X36644739Y35619182D01*
X36700332Y35702158D01*
X36775899Y35851417D01*
X36861541Y36045845D01*
X36947356Y36264326D01*
X36947874Y36265728D01*
X37026251Y36471498D01*
X37095514Y36641444D01*
X37148609Y36759075D01*
X37178483Y36807900D01*
X37179968Y36808364D01*
X37232725Y36779616D01*
X37341820Y36700507D01*
X37494294Y36581738D01*
X37677185Y36434011D01*
X37877533Y36268028D01*
X38082379Y36094491D01*
X38278760Y35924100D01*
X38453718Y35767559D01*
X38558244Y35670291D01*
X38939215Y35307455D01*
X38640549Y34637818D01*
X38504976Y34323636D01*
X38411503Y34078366D01*
X38358065Y33889804D01*
X38342594Y33745742D01*
X38363027Y33633976D01*
X38417295Y33542299D01*
X38449204Y33507325D01*
X38590787Y33412210D01*
X38760530Y33362350D01*
X38920681Y33366223D01*
X38980189Y33388091D01*
X39039067Y33446122D01*
X39131123Y33567909D01*
X39244516Y33736559D01*
X39367409Y33935178D01*
X39387968Y33969983D01*
X39505943Y34164260D01*
X39610702Y34324133D01*
X39692310Y34435339D01*
X39740830Y34483618D01*
X39746281Y34484316D01*
X39795183Y34443398D01*
X39891490Y34343376D01*
X40024357Y34196828D01*
X40182940Y34016329D01*
X40356393Y33814455D01*
X40533872Y33603785D01*
X40704533Y33396893D01*
X40857529Y33206357D01*
X40942442Y33097141D01*
X41213792Y32741979D01*
X40793466Y32108172D01*
X40608821Y31823689D01*
X40475501Y31601220D01*
X40389054Y31429156D01*
X40345030Y31295890D01*
X40338977Y31189812D01*
X40366446Y31099314D01*
X40390596Y31057442D01*
X40510139Y30935059D01*
X40668215Y30848574D01*
X40828824Y30814802D01*
X40894865Y30821901D01*
X40978007Y30871639D01*
X41106159Y30985619D01*
X41269068Y31154071D01*
X41410269Y31313040D01*
X41560802Y31484382D01*
X41691768Y31626916D01*
X41790700Y31727546D01*
X41845130Y31773173D01*
X41849551Y31774546D01*
X41887521Y31736403D01*
X41962000Y31631069D01*
X42064808Y31472186D01*
X42187764Y31273395D01*
X42322690Y31048339D01*
X42461405Y30810660D01*
X42595729Y30573999D01*
X42717483Y30351998D01*
X42817511Y30160239D01*
X43008195Y29780989D01*
X42494009Y29250211D01*
X42261542Y29005122D01*
X42091007Y28811221D01*
X41975721Y28657866D01*
X41909004Y28534412D01*
X41884175Y28430215D01*
X41894553Y28334631D01*
X41902752Y28308264D01*
X42000826Y28138109D01*
X42146668Y28018468D01*
X42315063Y27969435D01*
X42328214Y27969164D01*
X42406125Y27979840D01*
X42496255Y28017865D01*
X42612882Y28092231D01*
X42770282Y28211931D01*
X42960501Y28367433D01*
X43138205Y28511976D01*
X43291041Y28630019D01*
X43405085Y28711274D01*
X43466416Y28745454D01*
X43471973Y28745384D01*
X43503735Y28693023D01*
X43559545Y28568038D01*
X43633970Y28385334D01*
X43721573Y28159817D01*
X43816920Y27906394D01*
X43914577Y27639972D01*
X44009108Y27375456D01*
X44095078Y27127753D01*
X44167053Y26911770D01*
X44219598Y26742412D01*
X44247278Y26634586D01*
X44250182Y26610962D01*
X44215033Y26572872D01*
X44118029Y26490416D01*
X43971835Y26373799D01*
X43789118Y26233224D01*
X43672187Y26145322D01*
X43464775Y25987634D01*
X43277845Y25839880D01*
X43126946Y25714772D01*
X43027628Y25625023D01*
X43002551Y25597865D01*
X42920938Y25432127D01*
X42931402Y25259656D01*
X43033921Y25080690D01*
X43054239Y25056698D01*
X43147246Y24964712D01*
X43240632Y24912493D01*
X43348721Y24902196D01*
X43485840Y24935974D01*
X43666315Y25015981D01*
X43904472Y25144369D01*
X44000204Y25198893D01*
X44197334Y25310287D01*
X44363725Y25400906D01*
X44484215Y25462750D01*
X44543641Y25487815D01*
X44547084Y25487530D01*
X44565395Y25431675D01*
X44594618Y25301186D01*
X44632224Y25111125D01*
X44675682Y24876555D01*
X44722460Y24612538D01*
X44770030Y24334137D01*
X44815860Y24056413D01*
X44857421Y23794431D01*
X44892181Y23563251D01*
X44917610Y23377936D01*
X44931178Y23253550D01*
X44930497Y23205253D01*
X44887836Y23182688D01*
X44776435Y23125579D01*
X44610047Y23040930D01*
X44402425Y22935740D01*
X44227091Y22847161D01*
X43948553Y22703617D01*
X43743115Y22590002D01*
X43599327Y22499062D01*
X43505739Y22423542D01*
X43450902Y22356190D01*
X43450163Y22354947D01*
X43391374Y22174606D01*
X43423501Y21992406D01*
X43535027Y21826013D01*
X43613148Y21753025D01*
X43695360Y21709935D01*
X43796882Y21697867D01*
X43932935Y21717948D01*
X44118737Y21771304D01*
X44369509Y21859060D01*
X44466919Y21894945D01*
X44665923Y21967510D01*
X44833511Y22026262D01*
X44950546Y22064644D01*
X44996408Y22076364D01*
X45007073Y22032206D01*
X45015685Y21907796D01*
X45021949Y21715228D01*
X45025574Y21466595D01*
X45026264Y21173993D01*
X45024521Y20917682D01*
X45012182Y19758999D01*
X44281523Y19538827D01*
X44031955Y19460953D01*
X43810862Y19386944D01*
X43634687Y19322698D01*
X43519876Y19274114D01*
X43485540Y19253332D01*
X43460602Y19212235D01*
X43466118Y19153665D01*
X43508618Y19060739D01*
X43594633Y18916576D01*
X43648888Y18831095D01*
X43752840Y18674684D01*
X43840637Y18553294D01*
X43899337Y18484328D01*
X43913780Y18474942D01*
X43971802Y18483049D01*
X44099856Y18504340D01*
X44277138Y18535280D01*
X44423364Y18561509D01*
X44896728Y18647315D01*
X44896728Y18508252D01*
X44889230Y18409514D01*
X44868804Y18242926D01*
X44838554Y18031599D01*
X44801583Y17798645D01*
X44800881Y17794431D01*
X44766247Y17570309D01*
X44741334Y17376082D01*
X44728331Y17231557D01*
X44729423Y17156539D01*
X44730180Y17154147D01*
X44758320Y17105847D01*
X44832316Y16985568D01*
X44948426Y16799247D01*
X45102907Y16552823D01*
X45292016Y16252233D01*
X45512011Y15903415D01*
X45759150Y15512307D01*
X46029688Y15084845D01*
X46319885Y14626969D01*
X46625997Y14144615D01*
X46772694Y13913674D01*
X47179667Y13272218D01*
X47539606Y12702476D01*
X47855788Y12198706D01*
X48131491Y11755164D01*
X48369993Y11366106D01*
X48574573Y11025791D01*
X48748508Y10728474D01*
X48895076Y10468413D01*
X49017554Y10239864D01*
X49119222Y10037084D01*
X49203356Y9854330D01*
X49273235Y9685859D01*
X49332137Y9525928D01*
X49383339Y9368793D01*
X49401910Y9307091D01*
X49484409Y8950028D01*
X49536618Y8557443D01*
X49557008Y8159373D01*
X49544052Y7785852D01*
X49496223Y7466915D01*
X49495646Y7464457D01*
X49335607Y6974603D01*
X49098095Y6534598D01*
X48783771Y6145041D01*
X48393300Y5806530D01*
X47927345Y5519664D01*
X47386569Y5285041D01*
X46920302Y5140543D01*
X46443819Y5014818D01*
X35324907Y4966000D01*
X36038279Y4368720D01*
X35930398Y4281363D01*
X35824230Y4206029D01*
X35654435Y4097751D01*
X35438913Y3966991D01*
X35195567Y3824210D01*
X34942298Y3679867D01*
X34697009Y3544425D01*
X34477601Y3428343D01*
X34424001Y3401115D01*
X34016237Y3196324D01*
X33457891Y3722478D01*
X33262307Y3902722D01*
X33081100Y4062250D01*
X32928477Y4189116D01*
X32818642Y4271370D01*
X32776836Y4295286D01*
X32622374Y4309810D01*
X32455521Y4258342D01*
X32311461Y4154058D01*
X32272036Y4106239D01*
X32211769Y3998113D01*
X32192538Y3890558D01*
X32219327Y3769914D01*
X32297121Y3622523D01*
X32430904Y3434723D01*
X32589273Y3236874D01*
X32733957Y3059028D01*
X32854604Y2906692D01*
X32940331Y2793913D01*
X32980258Y2734738D01*
X32981819Y2730172D01*
X32940445Y2700441D01*
X32825851Y2647242D01*
X32652322Y2575676D01*
X32434148Y2490847D01*
X32185615Y2397857D01*
X31921012Y2301809D01*
X31654625Y2207807D01*
X31400743Y2120953D01*
X31173654Y2046350D01*
X30987644Y1989101D01*
X30857001Y1954308D01*
X30796014Y1947075D01*
X30793749Y1948696D01*
X30714417Y2064104D01*
X30600137Y2220976D01*
X30462428Y2404507D01*
X30312809Y2599896D01*
X30162800Y2792340D01*
X30023919Y2967036D01*
X29907686Y3109181D01*
X29825621Y3203973D01*
X29792065Y3235899D01*
X29686256Y3268101D01*
X29562782Y3280364D01*
X29430668Y3244730D01*
X29292933Y3154369D01*
X29176835Y3034095D01*
X29109635Y2908723D01*
X29102546Y2861420D01*
X29125028Y2782976D01*
X29186417Y2644431D01*
X29277632Y2464600D01*
X29389590Y2262299D01*
X29402728Y2239574D01*
X29515374Y2042305D01*
X29608744Y1872539D01*
X29674021Y1746776D01*
X29702384Y1681513D01*
X29702910Y1677959D01*
X29658717Y1649991D01*
X29532554Y1611961D01*
X29334046Y1565705D01*
X29072817Y1513059D01*
X28758492Y1455859D01*
X28400695Y1395940D01*
X28009050Y1335139D01*
X27593183Y1275292D01*
X27589014Y1274716D01*
X27437845Y1253821D01*
X27094852Y1938664D01*
X26933173Y2250652D01*
X26797979Y2484989D01*
X26682642Y2650250D01*
X26580535Y2755010D01*
X26485031Y2807841D01*
X26414736Y2818546D01*
X26263157Y2784974D01*
X26113276Y2698638D01*
X25991169Y2581107D01*
X25922909Y2453951D01*
X25916514Y2406405D01*
X25932351Y2316205D01*
X25974897Y2162648D01*
X26037367Y1968454D01*
X26101241Y1787925D01*
X26174567Y1583588D01*
X26234048Y1407356D01*
X26273133Y1279354D01*
X26285455Y1222198D01*
X26273070Y1201336D01*
X26229287Y1185234D01*
X26144163Y1173316D01*
X26007755Y1165009D01*
X25810122Y1159739D01*
X25541319Y1156931D01*
X25191404Y1156011D01*
X25139098Y1156000D01*
X23992740Y1156000D01*
X23793161Y1837182D01*
X23718116Y2085598D01*
X23645469Y2312303D01*
X23581774Y2497796D01*
X23533584Y2622577D01*
X23518800Y2653551D01*
X23495657Y2701880D01*
X23480095Y2758205D01*
X23472552Y2834827D01*
X23473463Y2944043D01*
X23483264Y3098151D01*
X23502390Y3309451D01*
X23531277Y3590239D01*
X23562163Y3877369D01*
X23680308Y4966000D01*
X23477009Y4980279D01*
X23351050Y4985989D01*
X23271417Y4983676D01*
X23259474Y4980279D01*
X23250556Y4932276D01*
X23233421Y4805648D01*
X23209679Y4613609D01*
X23180941Y4369374D01*
X23148817Y4086156D01*
X23132078Y3934881D01*
X23018918Y2903761D01*
X22851095Y2765427D01*
X22774679Y2697861D01*
X22723182Y2631663D01*
X22695304Y2550744D01*
X22689747Y2439010D01*
X22705213Y2280371D01*
X22740404Y2058735D01*
X22777289Y1850760D01*
X22812514Y1642385D01*
X22837461Y1469202D01*
X22849683Y1350207D01*
X22847563Y1304897D01*
X22790843Y1299405D01*
X22659119Y1309251D01*
X22467998Y1331867D01*
X22233089Y1364684D01*
X21969998Y1405137D01*
X21694333Y1450656D01*
X21421703Y1498675D01*
X21167713Y1546626D01*
X20947973Y1591942D01*
X20778089Y1632055D01*
X20681811Y1661169D01*
X20642454Y1682289D01*
X20611775Y1720892D01*
X20586412Y1790960D01*
X20563006Y1906474D01*
X20538194Y2081416D01*
X20508616Y2329766D01*
X20497497Y2427906D01*
X20456088Y2762369D01*
X20414768Y3016531D01*
X20369998Y3202384D01*
X20318243Y3331921D01*
X20255965Y3417132D01*
X20192013Y3463722D01*
X20015419Y3511059D01*
X19823300Y3490230D01*
X19656723Y3406063D01*
X19649394Y3399929D01*
X19598256Y3353460D01*
X19562352Y3305740D01*
X19538522Y3240118D01*
X19523606Y3139943D01*
X19514444Y2988564D01*
X19507876Y2769332D01*
X19504783Y2637929D01*
X19497187Y2404778D01*
X19486590Y2208622D01*
X19474208Y2065930D01*
X19461260Y1993174D01*
X19456678Y1987273D01*
X19380882Y2003324D01*
X19234622Y2047745D01*
X19033025Y2114939D01*
X18791218Y2199309D01*
X18524330Y2295259D01*
X18247486Y2397191D01*
X17975813Y2499509D01*
X17724440Y2596616D01*
X17508493Y2682914D01*
X17343100Y2752808D01*
X17243386Y2800700D01*
X17224408Y2813190D01*
X17216445Y2866741D01*
X17215315Y2996281D01*
X17220636Y3185714D01*
X17232030Y3418949D01*
X17242719Y3589458D01*
X17262215Y3919238D01*
X17268363Y4170402D01*
X17258810Y4356040D01*
X17231207Y4489242D01*
X17183202Y4583097D01*
X17112444Y4650697D01*
X17044880Y4691087D01*
X16860732Y4752315D01*
X16683555Y4730844D01*
X16588826Y4689713D01*
X16519049Y4643865D01*
X16463636Y4578002D01*
X16417238Y4477490D01*
X16374508Y4327691D01*
X16330095Y4113970D01*
X16284735Y3857637D01*
X16248209Y3659260D01*
X16212648Y3494902D01*
X16183007Y3386089D01*
X16169098Y3355160D01*
X16114043Y3360073D01*
X15989889Y3410247D01*
X15805277Y3501068D01*
X15568845Y3627919D01*
X15289234Y3786185D01*
X14975084Y3971251D01*
X14680216Y4150579D01*
X14475002Y4276290D01*
X14335705Y4366865D01*
X14252076Y4439412D01*
X14213863Y4511040D01*
X14210817Y4598858D01*
X14232689Y4719975D01*
X14260864Y4850546D01*
X14289728Y4989091D01*
X9002186Y4989091D01*
X8164092Y4989113D01*
X7412862Y4989313D01*
X6742998Y4989892D01*
X6148998Y4991054D01*
X5625365Y4992998D01*
X5166599Y4995928D01*
X4767201Y5000044D01*
X4421671Y5005549D01*
X4124509Y5012644D01*
X3870218Y5021531D01*
X3653296Y5032412D01*
X3468245Y5045489D01*
X3309566Y5060963D01*
X3171759Y5079036D01*
X3049324Y5099910D01*
X2936764Y5123787D01*
X2828577Y5150868D01*
X2719265Y5181355D01*
X2603328Y5215449D01*
X2571091Y5225028D01*
X2052431Y5420124D01*
X1584377Y5679144D01*
X1173896Y5995424D01*
X827956Y6362298D01*
X553525Y6773099D01*
X357570Y7221161D01*
X307516Y7390546D01*
X272874Y7551616D01*
X252301Y7725343D01*
X244339Y7935486D01*
X247531Y8205800D01*
X250848Y8314182D01*
X277046Y8721420D01*
X282756Y8760127D01*
X2624931Y8760127D01*
X2627054Y8456802D01*
X2641598Y8377154D01*
X2757758Y8050553D01*
X2947191Y7779387D01*
X3208447Y7564805D01*
X3540077Y7407952D01*
X3940631Y7309975D01*
X4002728Y7300941D01*
X4074125Y7297539D01*
X4234261Y7294274D01*
X4479534Y7291146D01*
X4806340Y7288155D01*
X5211076Y7285300D01*
X5690138Y7282582D01*
X6239924Y7280000D01*
X6856830Y7277554D01*
X7537252Y7275245D01*
X8277589Y7273072D01*
X9074236Y7271036D01*
X9923589Y7269135D01*
X10822047Y7267371D01*
X11766006Y7265743D01*
X12751862Y7264251D01*
X13776012Y7262894D01*
X14834854Y7261674D01*
X15924783Y7260590D01*
X17042196Y7259641D01*
X18183491Y7258828D01*
X19345065Y7258151D01*
X20523313Y7257610D01*
X21714632Y7257204D01*
X22915420Y7256933D01*
X24122073Y7256798D01*
X25330989Y7256799D01*
X26538562Y7256935D01*
X27741192Y7257206D01*
X28935273Y7257613D01*
X30117204Y7258154D01*
X31283380Y7258831D01*
X32430199Y7259643D01*
X33554057Y7260590D01*
X34651352Y7261672D01*
X35718479Y7262889D01*
X36751836Y7264241D01*
X37747819Y7265728D01*
X38702825Y7267349D01*
X39613252Y7269105D01*
X40475494Y7270996D01*
X41285951Y7273022D01*
X42041018Y7275182D01*
X42737091Y7277476D01*
X43370569Y7279905D01*
X43937847Y7282468D01*
X44435322Y7285166D01*
X44859391Y7287998D01*
X45206451Y7290964D01*
X45472899Y7294065D01*
X45655131Y7297299D01*
X45749545Y7300668D01*
X45759295Y7301570D01*
X45979969Y7343366D01*
X46207687Y7404762D01*
X46388423Y7470559D01*
X46622754Y7608039D01*
X46835389Y7793002D01*
X47003680Y8002040D01*
X47104736Y8210928D01*
X47155005Y8528812D01*
X47130594Y8878176D01*
X47034898Y9241144D01*
X46871309Y9599845D01*
X46826463Y9676546D01*
X46791877Y9731241D01*
X46709084Y9861038D01*
X46579767Y10063307D01*
X46405612Y10335421D01*
X46188306Y10674753D01*
X45929531Y11078675D01*
X45630975Y11544559D01*
X45294322Y12069777D01*
X44921258Y12651702D01*
X44513467Y13287706D01*
X44072635Y13975161D01*
X43600447Y14711440D01*
X43098589Y15493915D01*
X42568745Y16319957D01*
X42012600Y17186941D01*
X41431841Y18092237D01*
X40828152Y19033218D01*
X40203219Y20007256D01*
X39558726Y21011725D01*
X38896359Y22043995D01*
X38217803Y23101439D01*
X37524743Y24181430D01*
X36818865Y25281339D01*
X36520283Y25746578D01*
X35625893Y27140010D01*
X34780110Y28457383D01*
X33981796Y29700456D01*
X33229809Y30870993D01*
X32523009Y31970753D01*
X31860256Y33001499D01*
X31240409Y33964992D01*
X30662329Y34862993D01*
X30124874Y35697263D01*
X29626904Y36469563D01*
X29167280Y37181655D01*
X28744860Y37835301D01*
X28358505Y38432261D01*
X28007073Y38974297D01*
X27689425Y39463170D01*
X27404421Y39900642D01*
X27150919Y40288473D01*
X26927780Y40628425D01*
X26733864Y40922259D01*
X26568029Y41171738D01*
X26429136Y41378621D01*
X26316044Y41544670D01*
X26227613Y41671647D01*
X26162703Y41761313D01*
X26120173Y41815429D01*
X26108073Y41828612D01*
X25931345Y41979784D01*
X25721691Y42126997D01*
X25557180Y42221215D01*
X25207813Y42345120D01*
X24852535Y42379152D01*
X24498514Y42324871D01*
X24152921Y42183838D01*
X23822926Y41957611D01*
X23661878Y41808857D01*
X23628260Y41769063D01*
X23574052Y41696500D01*
X23498080Y41589351D01*
X23399166Y41445803D01*
X23276136Y41264038D01*
X23127814Y41042240D01*
X22953023Y40778595D01*
X22750587Y40471287D01*
X22519332Y40118500D01*
X22258080Y39718417D01*
X21965657Y39269224D01*
X21640886Y38769105D01*
X21282591Y38216244D01*
X20889597Y37608826D01*
X20460727Y36945033D01*
X19994806Y36223052D01*
X19490658Y35441067D01*
X18947107Y34597260D01*
X18362977Y33689818D01*
X17737092Y32716924D01*
X17068277Y31676762D01*
X16355356Y30567517D01*
X15597152Y29387373D01*
X14792490Y28134515D01*
X13940194Y26807126D01*
X13215704Y25678546D01*
X12503759Y24569228D01*
X11803789Y23478208D01*
X11117488Y22408133D01*
X10446547Y21361655D01*
X9792660Y20341422D01*
X9157519Y19350084D01*
X8542818Y18390291D01*
X7950250Y17464693D01*
X7381506Y16575939D01*
X6838281Y15726679D01*
X6322267Y14919563D01*
X5835157Y14157240D01*
X5378643Y13442360D01*
X4954419Y12777572D01*
X4564178Y12165526D01*
X4209612Y11608873D01*
X3892414Y11110261D01*
X3614278Y10672340D01*
X3376895Y10297761D01*
X3181960Y9989171D01*
X3031164Y9749222D01*
X2926201Y9580563D01*
X2868763Y9485844D01*
X2859209Y9468728D01*
X2701933Y9095512D01*
X2624931Y8760127D01*
X282756Y8760127D01*
X330778Y9085652D01*
X419278Y9433821D01*
X549779Y9792875D01*
X729516Y10189759D01*
X783968Y10300000D01*
X848286Y10417841D01*
X958373Y10606885D01*
X1110169Y10860570D01*
X1299612Y11172329D01*
X1522643Y11535599D01*
X1775201Y11943816D01*
X2053224Y12390413D01*
X2352653Y12868828D01*
X2669427Y13372494D01*
X2999484Y13894848D01*
X3320588Y14400756D01*
X5591301Y17970420D01*
X5537943Y18369217D01*
X5514995Y18579705D01*
X5510986Y18720996D01*
X5526140Y18783046D01*
X5528747Y18784517D01*
X5586206Y18811959D01*
X5705525Y18872633D01*
X5866997Y18956435D01*
X5985369Y19018601D01*
X6166849Y19116161D01*
X6295870Y19195781D01*
X6394037Y19277980D01*
X6482955Y19383279D01*
X6584231Y19532197D01*
X6672935Y19671624D01*
X6948041Y20107065D01*
X6844177Y20191169D01*
X6764700Y20242264D01*
X6674115Y20266077D01*
X6556755Y20260659D01*
X6396953Y20224063D01*
X6179042Y20154343D01*
X5981082Y20083892D01*
X5775665Y20012688D01*
X5602067Y19959235D01*
X5478255Y19928600D01*
X5422199Y19925848D01*
X5421776Y19926224D01*
X5411858Y19980604D01*
X5403689Y20111649D01*
X5397284Y20303695D01*
X5392659Y20541078D01*
X5389832Y20808133D01*
X5388818Y21089195D01*
X5389634Y21368600D01*
X5392296Y21630683D01*
X5396820Y21859780D01*
X5403223Y22040225D01*
X5411520Y22156355D01*
X5419418Y22192315D01*
X5472524Y22215642D01*
X5598196Y22259272D01*
X5780248Y22317917D01*
X6002499Y22386292D01*
X6125851Y22423128D01*
X6369672Y22497493D01*
X6588438Y22568443D01*
X6763671Y22629669D01*
X6876892Y22674864D01*
X6902798Y22688363D01*
X6951566Y22711916D01*
X7019016Y22725248D01*
X7119768Y22728060D01*
X7268441Y22720053D01*
X7479656Y22700931D01*
X7764331Y22670801D01*
X8017483Y22643704D01*
X8235807Y22621505D01*
X8404003Y22605666D01*
X8506768Y22597646D01*
X8531663Y22597543D01*
X8595229Y22691202D01*
X8662203Y22804484D01*
X8718284Y22910815D01*
X8749170Y22983624D01*
X8748489Y23000426D01*
X8693199Y23005437D01*
X8561632Y23019072D01*
X8369302Y23039674D01*
X8131721Y23065584D01*
X7905843Y23090535D01*
X7565707Y23131531D01*
X7314304Y23169054D01*
X7152750Y23202906D01*
X7082163Y23232888D01*
X7079293Y23237576D01*
X7002752Y23354865D01*
X6877243Y23454104D01*
X6742423Y23505892D01*
X6714540Y23508000D01*
X6616133Y23499930D01*
X6451489Y23478062D01*
X6245098Y23445915D01*
X6059851Y23413984D01*
X5852083Y23378352D01*
X5680175Y23352231D01*
X5562885Y23338246D01*
X5519300Y23338397D01*
X5516681Y23392019D01*
X5528799Y23521245D01*
X5553328Y23710902D01*
X5587941Y23945823D01*
X5630313Y24210834D01*
X5678116Y24490767D01*
X5729025Y24770451D01*
X5775473Y25008909D01*
X5896819Y25609273D01*
X6635410Y25693123D01*
X6967773Y25734436D01*
X7220711Y25775849D01*
X7407060Y25821751D01*
X7539660Y25876532D01*
X7631346Y25944584D01*
X7694959Y26030295D01*
X7710865Y26060887D01*
X7746205Y26180502D01*
X7732871Y26321001D01*
X7720713Y26369976D01*
X7678412Y26487509D01*
X7615167Y26573281D01*
X7517410Y26632070D01*
X7371569Y26668656D01*
X7164074Y26687818D01*
X6881356Y26694333D01*
X6799021Y26694546D01*
X6575225Y26695514D01*
X6389070Y26698164D01*
X6257669Y26702113D01*
X6198140Y26706979D01*
X6196364Y26708014D01*
X6211530Y26767761D01*
X6253244Y26898078D01*
X6315828Y27082977D01*
X6393603Y27306468D01*
X6480894Y27552563D01*
X6572021Y27805272D01*
X6661308Y28048607D01*
X6743076Y28266578D01*
X6811649Y28443197D01*
X6819287Y28462259D01*
X7038254Y29006154D01*
X7460127Y28973772D01*
X7718392Y28957663D01*
X8011135Y28944999D01*
X8280477Y28938217D01*
X8312871Y28937877D01*
X8515973Y28937609D01*
X8648972Y28944253D01*
X8734113Y28962979D01*
X8793642Y28998953D01*
X8849803Y29057344D01*
X8855508Y29063939D01*
X8947963Y29233854D01*
X8966733Y29423780D01*
X8911424Y29603239D01*
X8863364Y29671208D01*
X8801607Y29727707D01*
X8716791Y29772474D01*
X8589880Y29812030D01*
X8401835Y29852895D01*
X8251455Y29880807D01*
X7974284Y29928716D01*
X7777877Y29964738D01*
X7653462Y29999652D01*
X7592264Y30044238D01*
X7585509Y30109278D01*
X7624424Y30205550D01*
X7700233Y30343836D01*
X7770640Y30471566D01*
X7895790Y30698265D01*
X8035570Y30941425D01*
X8181556Y31187485D01*
X8325322Y31422888D01*
X8458444Y31634075D01*
X8572496Y31807488D01*
X8659053Y31929569D01*
X8709690Y31986759D01*
X8713456Y31988825D01*
X8773699Y31985205D01*
X8906633Y31962555D01*
X9095332Y31924208D01*
X9322871Y31873496D01*
X9443850Y31845039D01*
X9693679Y31787454D01*
X9922132Y31738811D01*
X10109288Y31703060D01*
X10235224Y31684152D01*
X10265281Y31682182D01*
X10423177Y31724132D01*
X10559916Y31833143D01*
X10651451Y31983960D01*
X10676000Y32113580D01*
X10672488Y32232105D01*
X10653991Y32324209D01*
X10608574Y32399398D01*
X10524298Y32467179D01*
X10389226Y32537056D01*
X10191422Y32618537D01*
X9918947Y32721126D01*
X9907927Y32725210D01*
X9715350Y32798569D01*
X9554766Y32863488D01*
X9446328Y32911599D01*
X9411760Y32931221D01*
X9424995Y32978347D01*
X9490499Y33082283D01*
X9598535Y33231381D01*
X9739366Y33413996D01*
X9903254Y33618482D01*
X10080462Y33833191D01*
X10261252Y34046479D01*
X10435887Y34246698D01*
X10594629Y34422203D01*
X10727741Y34561346D01*
X10825486Y34652483D01*
X10877258Y34684000D01*
X10936313Y34666385D01*
X11064371Y34617691D01*
X11245940Y34544145D01*
X11465528Y34451973D01*
X11623737Y34383970D01*
X11863441Y34282400D01*
X12079033Y34195520D01*
X12253948Y34129662D01*
X12371626Y34091155D01*
X12409088Y34083789D01*
X12552219Y34125313D01*
X12686057Y34234016D01*
X12789998Y34385408D01*
X12843437Y34555001D01*
X12846546Y34603726D01*
X12833258Y34685889D01*
X12786291Y34766779D01*
X12694987Y34855734D01*
X12548688Y34962092D01*
X12336737Y35095190D01*
X12179008Y35188622D01*
X11992318Y35301181D01*
X11840500Y35399303D01*
X11738361Y35472931D01*
X11700705Y35512011D01*
X11700909Y35513311D01*
X11742558Y35561518D01*
X11843046Y35657180D01*
X11989666Y35789336D01*
X12169711Y35947027D01*
X12370473Y36119293D01*
X12579246Y36295175D01*
X12783322Y36463712D01*
X12969995Y36613944D01*
X13046521Y36673887D01*
X13454315Y36989768D01*
X14082792Y36569137D01*
X14373451Y36379162D01*
X14602517Y36242705D01*
X14781498Y36156826D01*
X14921902Y36118587D01*
X15035237Y36125047D01*
X15133012Y36173270D01*
X15226734Y36260315D01*
X15238849Y36273905D01*
X15356356Y36456229D01*
X15383350Y36631084D01*
X15344158Y36755093D01*
X15293519Y36814172D01*
X15186604Y36917086D01*
X15038909Y37049527D01*
X14865926Y37197191D01*
X14859760Y37202329D01*
X14691159Y37346236D01*
X14552228Y37471528D01*
X14456657Y37565370D01*
X14418134Y37614929D01*
X14417926Y37616546D01*
X14456523Y37657544D01*
X14563129Y37734123D01*
X14724206Y37838494D01*
X14926218Y37962867D01*
X15155627Y38099451D01*
X15398893Y38240457D01*
X15642481Y38378095D01*
X15872851Y38504575D01*
X16076467Y38612108D01*
X16239790Y38692903D01*
X16349283Y38739170D01*
X16382704Y38747114D01*
X16431233Y38717200D01*
X16534270Y38633827D01*
X16679671Y38507477D01*
X16855292Y38348634D01*
X16996529Y38217308D01*
X17192512Y38037769D01*
X17373696Y37880516D01*
X17526146Y37756985D01*
X17635925Y37678617D01*
X17679335Y37656897D01*
X17837260Y37658772D01*
X17992907Y37727629D01*
X18125289Y37843813D01*
X18213420Y37987672D01*
X18236314Y38139550D01*
X18230311Y38172894D01*
X18191589Y38247710D01*
X18104901Y38375769D01*
X17982406Y38540201D01*
X17836266Y38724137D01*
X17809444Y38756738D01*
X17415602Y39232909D01*
X17683804Y39355398D01*
X17827275Y39415906D01*
X18023527Y39491692D01*
X18257245Y39577565D01*
X18513112Y39668334D01*
X18775811Y39758807D01*
X19030026Y39843795D01*
X19260440Y39918105D01*
X19451737Y39976547D01*
X19588600Y40013929D01*
X19655713Y40025061D01*
X19658061Y40024507D01*
X19694138Y40057318D01*
X19773219Y40159428D01*
X19889167Y40321929D01*
X20035848Y40535914D01*
X20207126Y40792475D01*
X20396866Y41082702D01*
X20538028Y41302134D01*
X20752130Y41634597D01*
X20965221Y41960858D01*
X21168479Y42267743D01*
X21353080Y42542079D01*
X21510200Y42770695D01*
X21631018Y42940417D01*
X21672193Y42995370D01*
X22102285Y43494724D01*
X22566924Y43923824D01*
X23057693Y44276046D01*
X23566176Y44544763D01*
X23720768Y44608048D01*
X23910623Y44677422D01*
X24068895Y44724518D01*
X24224821Y44754606D01*
X24407642Y44772957D01*
X24646596Y44784840D01*
X24715273Y44787306D01*
X25082246Y44789984D01*
X25389936Y44766244D01*
X25389936Y44766244D01*
G37*
X25389936Y44766244D02*
X25669047Y44710491D01*
X25950280Y44617130D01*
X26176841Y44520982D01*
X26604972Y44287536D01*
X27038934Y43976556D01*
X27463704Y43600486D01*
X27864258Y43171770D01*
X27989965Y43019109D01*
X28065215Y42917052D01*
X28184197Y42745834D01*
X28341090Y42514237D01*
X28530073Y42231045D01*
X28745328Y41905043D01*
X28981033Y41545014D01*
X29231368Y41159743D01*
X29490513Y40758013D01*
X29564364Y40642990D01*
X30880546Y38590855D01*
X30893297Y39293459D01*
X30906049Y39996064D01*
X31031843Y39965846D01*
X31160308Y39928909D01*
X31355710Y39865223D01*
X31598938Y39781601D01*
X31870879Y39684862D01*
X32152424Y39581819D01*
X32424459Y39479289D01*
X32667873Y39384087D01*
X32704728Y39369246D01*
X33189637Y39172980D01*
X33187590Y38833490D01*
X33184714Y38632486D01*
X33178743Y38380953D01*
X33170738Y38120634D01*
X33166651Y38009091D01*
X33161827Y37747370D01*
X33174401Y37560520D01*
X33209329Y37431892D01*
X33271566Y37344836D01*
X33366068Y37282703D01*
X33385593Y37273469D01*
X33510688Y37238015D01*
X33649523Y37224000D01*
X33772330Y37240869D01*
X33870962Y37298645D01*
X33951538Y37408083D01*
X34020177Y37579939D01*
X34083000Y37824968D01*
X34131363Y38070836D01*
X34172933Y38289583D01*
X34211090Y38471097D01*
X34241986Y38598375D01*
X34261773Y38654416D01*
X34263699Y38655637D01*
X34319003Y38633161D01*
X34439285Y38571110D01*
X34610392Y38477546D01*
X34818171Y38360531D01*
X35048469Y38228127D01*
X35287135Y38088396D01*
X35520014Y37949402D01*
X35732954Y37819206D01*
X35743585Y37812598D01*
X35934658Y37689280D01*
X36091466Y37579559D01*
X36200055Y37493856D01*
X36246468Y37442592D01*
X36246875Y37436750D01*
X36229978Y37376363D01*
X36195396Y37242674D01*
X36147292Y37052124D01*
X36089831Y36821154D01*
X36051362Y36664983D01*
X35985024Y36390362D01*
X35940037Y36189347D01*
X35914301Y36046203D01*
X35905718Y35945198D01*
X35912190Y35870600D01*
X35931619Y35806675D01*
X35935578Y35796896D01*
X36038137Y35650629D01*
X36188082Y35555125D01*
X36359412Y35516899D01*
X36526125Y35542466D01*
X36644739Y35619182D01*
X36700332Y35702158D01*
X36775899Y35851417D01*
X36861541Y36045845D01*
X36947356Y36264326D01*
X36947874Y36265728D01*
X37026251Y36471498D01*
X37095514Y36641444D01*
X37148609Y36759075D01*
X37178483Y36807900D01*
X37179968Y36808364D01*
X37232725Y36779616D01*
X37341820Y36700507D01*
X37494294Y36581738D01*
X37677185Y36434011D01*
X37877533Y36268028D01*
X38082379Y36094491D01*
X38278760Y35924100D01*
X38453718Y35767559D01*
X38558244Y35670291D01*
X38939215Y35307455D01*
X38640549Y34637818D01*
X38504976Y34323636D01*
X38411503Y34078366D01*
X38358065Y33889804D01*
X38342594Y33745742D01*
X38363027Y33633976D01*
X38417295Y33542299D01*
X38449204Y33507325D01*
X38590787Y33412210D01*
X38760530Y33362350D01*
X38920681Y33366223D01*
X38980189Y33388091D01*
X39039067Y33446122D01*
X39131123Y33567909D01*
X39244516Y33736559D01*
X39367409Y33935178D01*
X39387968Y33969983D01*
X39505943Y34164260D01*
X39610702Y34324133D01*
X39692310Y34435339D01*
X39740830Y34483618D01*
X39746281Y34484316D01*
X39795183Y34443398D01*
X39891490Y34343376D01*
X40024357Y34196828D01*
X40182940Y34016329D01*
X40356393Y33814455D01*
X40533872Y33603785D01*
X40704533Y33396893D01*
X40857529Y33206357D01*
X40942442Y33097141D01*
X41213792Y32741979D01*
X40793466Y32108172D01*
X40608821Y31823689D01*
X40475501Y31601220D01*
X40389054Y31429156D01*
X40345030Y31295890D01*
X40338977Y31189812D01*
X40366446Y31099314D01*
X40390596Y31057442D01*
X40510139Y30935059D01*
X40668215Y30848574D01*
X40828824Y30814802D01*
X40894865Y30821901D01*
X40978007Y30871639D01*
X41106159Y30985619D01*
X41269068Y31154071D01*
X41410269Y31313040D01*
X41560802Y31484382D01*
X41691768Y31626916D01*
X41790700Y31727546D01*
X41845130Y31773173D01*
X41849551Y31774546D01*
X41887521Y31736403D01*
X41962000Y31631069D01*
X42064808Y31472186D01*
X42187764Y31273395D01*
X42322690Y31048339D01*
X42461405Y30810660D01*
X42595729Y30573999D01*
X42717483Y30351998D01*
X42817511Y30160239D01*
X43008195Y29780989D01*
X42494009Y29250211D01*
X42261542Y29005122D01*
X42091007Y28811221D01*
X41975721Y28657866D01*
X41909004Y28534412D01*
X41884175Y28430215D01*
X41894553Y28334631D01*
X41902752Y28308264D01*
X42000826Y28138109D01*
X42146668Y28018468D01*
X42315063Y27969435D01*
X42328214Y27969164D01*
X42406125Y27979840D01*
X42496255Y28017865D01*
X42612882Y28092231D01*
X42770282Y28211931D01*
X42960501Y28367433D01*
X43138205Y28511976D01*
X43291041Y28630019D01*
X43405085Y28711274D01*
X43466416Y28745454D01*
X43471973Y28745384D01*
X43503735Y28693023D01*
X43559545Y28568038D01*
X43633970Y28385334D01*
X43721573Y28159817D01*
X43816920Y27906394D01*
X43914577Y27639972D01*
X44009108Y27375456D01*
X44095078Y27127753D01*
X44167053Y26911770D01*
X44219598Y26742412D01*
X44247278Y26634586D01*
X44250182Y26610962D01*
X44215033Y26572872D01*
X44118029Y26490416D01*
X43971835Y26373799D01*
X43789118Y26233224D01*
X43672187Y26145322D01*
X43464775Y25987634D01*
X43277845Y25839880D01*
X43126946Y25714772D01*
X43027628Y25625023D01*
X43002551Y25597865D01*
X42920938Y25432127D01*
X42931402Y25259656D01*
X43033921Y25080690D01*
X43054239Y25056698D01*
X43147246Y24964712D01*
X43240632Y24912493D01*
X43348721Y24902196D01*
X43485840Y24935974D01*
X43666315Y25015981D01*
X43904472Y25144369D01*
X44000204Y25198893D01*
X44197334Y25310287D01*
X44363725Y25400906D01*
X44484215Y25462750D01*
X44543641Y25487815D01*
X44547084Y25487530D01*
X44565395Y25431675D01*
X44594618Y25301186D01*
X44632224Y25111125D01*
X44675682Y24876555D01*
X44722460Y24612538D01*
X44770030Y24334137D01*
X44815860Y24056413D01*
X44857421Y23794431D01*
X44892181Y23563251D01*
X44917610Y23377936D01*
X44931178Y23253550D01*
X44930497Y23205253D01*
X44887836Y23182688D01*
X44776435Y23125579D01*
X44610047Y23040930D01*
X44402425Y22935740D01*
X44227091Y22847161D01*
X43948553Y22703617D01*
X43743115Y22590002D01*
X43599327Y22499062D01*
X43505739Y22423542D01*
X43450902Y22356190D01*
X43450163Y22354947D01*
X43391374Y22174606D01*
X43423501Y21992406D01*
X43535027Y21826013D01*
X43613148Y21753025D01*
X43695360Y21709935D01*
X43796882Y21697867D01*
X43932935Y21717948D01*
X44118737Y21771304D01*
X44369509Y21859060D01*
X44466919Y21894945D01*
X44665923Y21967510D01*
X44833511Y22026262D01*
X44950546Y22064644D01*
X44996408Y22076364D01*
X45007073Y22032206D01*
X45015685Y21907796D01*
X45021949Y21715228D01*
X45025574Y21466595D01*
X45026264Y21173993D01*
X45024521Y20917682D01*
X45012182Y19758999D01*
X44281523Y19538827D01*
X44031955Y19460953D01*
X43810862Y19386944D01*
X43634687Y19322698D01*
X43519876Y19274114D01*
X43485540Y19253332D01*
X43460602Y19212235D01*
X43466118Y19153665D01*
X43508618Y19060739D01*
X43594633Y18916576D01*
X43648888Y18831095D01*
X43752840Y18674684D01*
X43840637Y18553294D01*
X43899337Y18484328D01*
X43913780Y18474942D01*
X43971802Y18483049D01*
X44099856Y18504340D01*
X44277138Y18535280D01*
X44423364Y18561509D01*
X44896728Y18647315D01*
X44896728Y18508252D01*
X44889230Y18409514D01*
X44868804Y18242926D01*
X44838554Y18031599D01*
X44801583Y17798645D01*
X44800881Y17794431D01*
X44766247Y17570309D01*
X44741334Y17376082D01*
X44728331Y17231557D01*
X44729423Y17156539D01*
X44730180Y17154147D01*
X44758320Y17105847D01*
X44832316Y16985568D01*
X44948426Y16799247D01*
X45102907Y16552823D01*
X45292016Y16252233D01*
X45512011Y15903415D01*
X45759150Y15512307D01*
X46029688Y15084845D01*
X46319885Y14626969D01*
X46625997Y14144615D01*
X46772694Y13913674D01*
X47179667Y13272218D01*
X47539606Y12702476D01*
X47855788Y12198706D01*
X48131491Y11755164D01*
X48369993Y11366106D01*
X48574573Y11025791D01*
X48748508Y10728474D01*
X48895076Y10468413D01*
X49017554Y10239864D01*
X49119222Y10037084D01*
X49203356Y9854330D01*
X49273235Y9685859D01*
X49332137Y9525928D01*
X49383339Y9368793D01*
X49401910Y9307091D01*
X49484409Y8950028D01*
X49536618Y8557443D01*
X49557008Y8159373D01*
X49544052Y7785852D01*
X49496223Y7466915D01*
X49495646Y7464457D01*
X49335607Y6974603D01*
X49098095Y6534598D01*
X48783771Y6145041D01*
X48393300Y5806530D01*
X47927345Y5519664D01*
X47386569Y5285041D01*
X46920302Y5140543D01*
X46443819Y5014818D01*
X35324907Y4966000D01*
X36038279Y4368720D01*
X35930398Y4281363D01*
X35824230Y4206029D01*
X35654435Y4097751D01*
X35438913Y3966991D01*
X35195567Y3824210D01*
X34942298Y3679867D01*
X34697009Y3544425D01*
X34477601Y3428343D01*
X34424001Y3401115D01*
X34016237Y3196324D01*
X33457891Y3722478D01*
X33262307Y3902722D01*
X33081100Y4062250D01*
X32928477Y4189116D01*
X32818642Y4271370D01*
X32776836Y4295286D01*
X32622374Y4309810D01*
X32455521Y4258342D01*
X32311461Y4154058D01*
X32272036Y4106239D01*
X32211769Y3998113D01*
X32192538Y3890558D01*
X32219327Y3769914D01*
X32297121Y3622523D01*
X32430904Y3434723D01*
X32589273Y3236874D01*
X32733957Y3059028D01*
X32854604Y2906692D01*
X32940331Y2793913D01*
X32980258Y2734738D01*
X32981819Y2730172D01*
X32940445Y2700441D01*
X32825851Y2647242D01*
X32652322Y2575676D01*
X32434148Y2490847D01*
X32185615Y2397857D01*
X31921012Y2301809D01*
X31654625Y2207807D01*
X31400743Y2120953D01*
X31173654Y2046350D01*
X30987644Y1989101D01*
X30857001Y1954308D01*
X30796014Y1947075D01*
X30793749Y1948696D01*
X30714417Y2064104D01*
X30600137Y2220976D01*
X30462428Y2404507D01*
X30312809Y2599896D01*
X30162800Y2792340D01*
X30023919Y2967036D01*
X29907686Y3109181D01*
X29825621Y3203973D01*
X29792065Y3235899D01*
X29686256Y3268101D01*
X29562782Y3280364D01*
X29430668Y3244730D01*
X29292933Y3154369D01*
X29176835Y3034095D01*
X29109635Y2908723D01*
X29102546Y2861420D01*
X29125028Y2782976D01*
X29186417Y2644431D01*
X29277632Y2464600D01*
X29389590Y2262299D01*
X29402728Y2239574D01*
X29515374Y2042305D01*
X29608744Y1872539D01*
X29674021Y1746776D01*
X29702384Y1681513D01*
X29702910Y1677959D01*
X29658717Y1649991D01*
X29532554Y1611961D01*
X29334046Y1565705D01*
X29072817Y1513059D01*
X28758492Y1455859D01*
X28400695Y1395940D01*
X28009050Y1335139D01*
X27593183Y1275292D01*
X27589014Y1274716D01*
X27437845Y1253821D01*
X27094852Y1938664D01*
X26933173Y2250652D01*
X26797979Y2484989D01*
X26682642Y2650250D01*
X26580535Y2755010D01*
X26485031Y2807841D01*
X26414736Y2818546D01*
X26263157Y2784974D01*
X26113276Y2698638D01*
X25991169Y2581107D01*
X25922909Y2453951D01*
X25916514Y2406405D01*
X25932351Y2316205D01*
X25974897Y2162648D01*
X26037367Y1968454D01*
X26101241Y1787925D01*
X26174567Y1583588D01*
X26234048Y1407356D01*
X26273133Y1279354D01*
X26285455Y1222198D01*
X26273070Y1201336D01*
X26229287Y1185234D01*
X26144163Y1173316D01*
X26007755Y1165009D01*
X25810122Y1159739D01*
X25541319Y1156931D01*
X25191404Y1156011D01*
X25139098Y1156000D01*
X23992740Y1156000D01*
X23793161Y1837182D01*
X23718116Y2085598D01*
X23645469Y2312303D01*
X23581774Y2497796D01*
X23533584Y2622577D01*
X23518800Y2653551D01*
X23495657Y2701880D01*
X23480095Y2758205D01*
X23472552Y2834827D01*
X23473463Y2944043D01*
X23483264Y3098151D01*
X23502390Y3309451D01*
X23531277Y3590239D01*
X23562163Y3877369D01*
X23680308Y4966000D01*
X23477009Y4980279D01*
X23351050Y4985989D01*
X23271417Y4983676D01*
X23259474Y4980279D01*
X23250556Y4932276D01*
X23233421Y4805648D01*
X23209679Y4613609D01*
X23180941Y4369374D01*
X23148817Y4086156D01*
X23132078Y3934881D01*
X23018918Y2903761D01*
X22851095Y2765427D01*
X22774679Y2697861D01*
X22723182Y2631663D01*
X22695304Y2550744D01*
X22689747Y2439010D01*
X22705213Y2280371D01*
X22740404Y2058735D01*
X22777289Y1850760D01*
X22812514Y1642385D01*
X22837461Y1469202D01*
X22849683Y1350207D01*
X22847563Y1304897D01*
X22790843Y1299405D01*
X22659119Y1309251D01*
X22467998Y1331867D01*
X22233089Y1364684D01*
X21969998Y1405137D01*
X21694333Y1450656D01*
X21421703Y1498675D01*
X21167713Y1546626D01*
X20947973Y1591942D01*
X20778089Y1632055D01*
X20681811Y1661169D01*
X20642454Y1682289D01*
X20611775Y1720892D01*
X20586412Y1790960D01*
X20563006Y1906474D01*
X20538194Y2081416D01*
X20508616Y2329766D01*
X20497497Y2427906D01*
X20456088Y2762369D01*
X20414768Y3016531D01*
X20369998Y3202384D01*
X20318243Y3331921D01*
X20255965Y3417132D01*
X20192013Y3463722D01*
X20015419Y3511059D01*
X19823300Y3490230D01*
X19656723Y3406063D01*
X19649394Y3399929D01*
X19598256Y3353460D01*
X19562352Y3305740D01*
X19538522Y3240118D01*
X19523606Y3139943D01*
X19514444Y2988564D01*
X19507876Y2769332D01*
X19504783Y2637929D01*
X19497187Y2404778D01*
X19486590Y2208622D01*
X19474208Y2065930D01*
X19461260Y1993174D01*
X19456678Y1987273D01*
X19380882Y2003324D01*
X19234622Y2047745D01*
X19033025Y2114939D01*
X18791218Y2199309D01*
X18524330Y2295259D01*
X18247486Y2397191D01*
X17975813Y2499509D01*
X17724440Y2596616D01*
X17508493Y2682914D01*
X17343100Y2752808D01*
X17243386Y2800700D01*
X17224408Y2813190D01*
X17216445Y2866741D01*
X17215315Y2996281D01*
X17220636Y3185714D01*
X17232030Y3418949D01*
X17242719Y3589458D01*
X17262215Y3919238D01*
X17268363Y4170402D01*
X17258810Y4356040D01*
X17231207Y4489242D01*
X17183202Y4583097D01*
X17112444Y4650697D01*
X17044880Y4691087D01*
X16860732Y4752315D01*
X16683555Y4730844D01*
X16588826Y4689713D01*
X16519049Y4643865D01*
X16463636Y4578002D01*
X16417238Y4477490D01*
X16374508Y4327691D01*
X16330095Y4113970D01*
X16284735Y3857637D01*
X16248209Y3659260D01*
X16212648Y3494902D01*
X16183007Y3386089D01*
X16169098Y3355160D01*
X16114043Y3360073D01*
X15989889Y3410247D01*
X15805277Y3501068D01*
X15568845Y3627919D01*
X15289234Y3786185D01*
X14975084Y3971251D01*
X14680216Y4150579D01*
X14475002Y4276290D01*
X14335705Y4366865D01*
X14252076Y4439412D01*
X14213863Y4511040D01*
X14210817Y4598858D01*
X14232689Y4719975D01*
X14260864Y4850546D01*
X14289728Y4989091D01*
X9002186Y4989091D01*
X8164092Y4989113D01*
X7412862Y4989313D01*
X6742998Y4989892D01*
X6148998Y4991054D01*
X5625365Y4992998D01*
X5166599Y4995928D01*
X4767201Y5000044D01*
X4421671Y5005549D01*
X4124509Y5012644D01*
X3870218Y5021531D01*
X3653296Y5032412D01*
X3468245Y5045489D01*
X3309566Y5060963D01*
X3171759Y5079036D01*
X3049324Y5099910D01*
X2936764Y5123787D01*
X2828577Y5150868D01*
X2719265Y5181355D01*
X2603328Y5215449D01*
X2571091Y5225028D01*
X2052431Y5420124D01*
X1584377Y5679144D01*
X1173896Y5995424D01*
X827956Y6362298D01*
X553525Y6773099D01*
X357570Y7221161D01*
X307516Y7390546D01*
X272874Y7551616D01*
X252301Y7725343D01*
X244339Y7935486D01*
X247531Y8205800D01*
X250848Y8314182D01*
X277046Y8721420D01*
X282756Y8760127D01*
X2624931Y8760127D01*
X2627054Y8456802D01*
X2641598Y8377154D01*
X2757758Y8050553D01*
X2947191Y7779387D01*
X3208447Y7564805D01*
X3540077Y7407952D01*
X3940631Y7309975D01*
X4002728Y7300941D01*
X4074125Y7297539D01*
X4234261Y7294274D01*
X4479534Y7291146D01*
X4806340Y7288155D01*
X5211076Y7285300D01*
X5690138Y7282582D01*
X6239924Y7280000D01*
X6856830Y7277554D01*
X7537252Y7275245D01*
X8277589Y7273072D01*
X9074236Y7271036D01*
X9923589Y7269135D01*
X10822047Y7267371D01*
X11766006Y7265743D01*
X12751862Y7264251D01*
X13776012Y7262894D01*
X14834854Y7261674D01*
X15924783Y7260590D01*
X17042196Y7259641D01*
X18183491Y7258828D01*
X19345065Y7258151D01*
X20523313Y7257610D01*
X21714632Y7257204D01*
X22915420Y7256933D01*
X24122073Y7256798D01*
X25330989Y7256799D01*
X26538562Y7256935D01*
X27741192Y7257206D01*
X28935273Y7257613D01*
X30117204Y7258154D01*
X31283380Y7258831D01*
X32430199Y7259643D01*
X33554057Y7260590D01*
X34651352Y7261672D01*
X35718479Y7262889D01*
X36751836Y7264241D01*
X37747819Y7265728D01*
X38702825Y7267349D01*
X39613252Y7269105D01*
X40475494Y7270996D01*
X41285951Y7273022D01*
X42041018Y7275182D01*
X42737091Y7277476D01*
X43370569Y7279905D01*
X43937847Y7282468D01*
X44435322Y7285166D01*
X44859391Y7287998D01*
X45206451Y7290964D01*
X45472899Y7294065D01*
X45655131Y7297299D01*
X45749545Y7300668D01*
X45759295Y7301570D01*
X45979969Y7343366D01*
X46207687Y7404762D01*
X46388423Y7470559D01*
X46622754Y7608039D01*
X46835389Y7793002D01*
X47003680Y8002040D01*
X47104736Y8210928D01*
X47155005Y8528812D01*
X47130594Y8878176D01*
X47034898Y9241144D01*
X46871309Y9599845D01*
X46826463Y9676546D01*
X46791877Y9731241D01*
X46709084Y9861038D01*
X46579767Y10063307D01*
X46405612Y10335421D01*
X46188306Y10674753D01*
X45929531Y11078675D01*
X45630975Y11544559D01*
X45294322Y12069777D01*
X44921258Y12651702D01*
X44513467Y13287706D01*
X44072635Y13975161D01*
X43600447Y14711440D01*
X43098589Y15493915D01*
X42568745Y16319957D01*
X42012600Y17186941D01*
X41431841Y18092237D01*
X40828152Y19033218D01*
X40203219Y20007256D01*
X39558726Y21011725D01*
X38896359Y22043995D01*
X38217803Y23101439D01*
X37524743Y24181430D01*
X36818865Y25281339D01*
X36520283Y25746578D01*
X35625893Y27140010D01*
X34780110Y28457383D01*
X33981796Y29700456D01*
X33229809Y30870993D01*
X32523009Y31970753D01*
X31860256Y33001499D01*
X31240409Y33964992D01*
X30662329Y34862993D01*
X30124874Y35697263D01*
X29626904Y36469563D01*
X29167280Y37181655D01*
X28744860Y37835301D01*
X28358505Y38432261D01*
X28007073Y38974297D01*
X27689425Y39463170D01*
X27404421Y39900642D01*
X27150919Y40288473D01*
X26927780Y40628425D01*
X26733864Y40922259D01*
X26568029Y41171738D01*
X26429136Y41378621D01*
X26316044Y41544670D01*
X26227613Y41671647D01*
X26162703Y41761313D01*
X26120173Y41815429D01*
X26108073Y41828612D01*
X25931345Y41979784D01*
X25721691Y42126997D01*
X25557180Y42221215D01*
X25207813Y42345120D01*
X24852535Y42379152D01*
X24498514Y42324871D01*
X24152921Y42183838D01*
X23822926Y41957611D01*
X23661878Y41808857D01*
X23628260Y41769063D01*
X23574052Y41696500D01*
X23498080Y41589351D01*
X23399166Y41445803D01*
X23276136Y41264038D01*
X23127814Y41042240D01*
X22953023Y40778595D01*
X22750587Y40471287D01*
X22519332Y40118500D01*
X22258080Y39718417D01*
X21965657Y39269224D01*
X21640886Y38769105D01*
X21282591Y38216244D01*
X20889597Y37608826D01*
X20460727Y36945033D01*
X19994806Y36223052D01*
X19490658Y35441067D01*
X18947107Y34597260D01*
X18362977Y33689818D01*
X17737092Y32716924D01*
X17068277Y31676762D01*
X16355356Y30567517D01*
X15597152Y29387373D01*
X14792490Y28134515D01*
X13940194Y26807126D01*
X13215704Y25678546D01*
X12503759Y24569228D01*
X11803789Y23478208D01*
X11117488Y22408133D01*
X10446547Y21361655D01*
X9792660Y20341422D01*
X9157519Y19350084D01*
X8542818Y18390291D01*
X7950250Y17464693D01*
X7381506Y16575939D01*
X6838281Y15726679D01*
X6322267Y14919563D01*
X5835157Y14157240D01*
X5378643Y13442360D01*
X4954419Y12777572D01*
X4564178Y12165526D01*
X4209612Y11608873D01*
X3892414Y11110261D01*
X3614278Y10672340D01*
X3376895Y10297761D01*
X3181960Y9989171D01*
X3031164Y9749222D01*
X2926201Y9580563D01*
X2868763Y9485844D01*
X2859209Y9468728D01*
X2701933Y9095512D01*
X2624931Y8760127D01*
X282756Y8760127D01*
X330778Y9085652D01*
X419278Y9433821D01*
X549779Y9792875D01*
X729516Y10189759D01*
X783968Y10300000D01*
X848286Y10417841D01*
X958373Y10606885D01*
X1110169Y10860570D01*
X1299612Y11172329D01*
X1522643Y11535599D01*
X1775201Y11943816D01*
X2053224Y12390413D01*
X2352653Y12868828D01*
X2669427Y13372494D01*
X2999484Y13894848D01*
X3320588Y14400756D01*
X5591301Y17970420D01*
X5537943Y18369217D01*
X5514995Y18579705D01*
X5510986Y18720996D01*
X5526140Y18783046D01*
X5528747Y18784517D01*
X5586206Y18811959D01*
X5705525Y18872633D01*
X5866997Y18956435D01*
X5985369Y19018601D01*
X6166849Y19116161D01*
X6295870Y19195781D01*
X6394037Y19277980D01*
X6482955Y19383279D01*
X6584231Y19532197D01*
X6672935Y19671624D01*
X6948041Y20107065D01*
X6844177Y20191169D01*
X6764700Y20242264D01*
X6674115Y20266077D01*
X6556755Y20260659D01*
X6396953Y20224063D01*
X6179042Y20154343D01*
X5981082Y20083892D01*
X5775665Y20012688D01*
X5602067Y19959235D01*
X5478255Y19928600D01*
X5422199Y19925848D01*
X5421776Y19926224D01*
X5411858Y19980604D01*
X5403689Y20111649D01*
X5397284Y20303695D01*
X5392659Y20541078D01*
X5389832Y20808133D01*
X5388818Y21089195D01*
X5389634Y21368600D01*
X5392296Y21630683D01*
X5396820Y21859780D01*
X5403223Y22040225D01*
X5411520Y22156355D01*
X5419418Y22192315D01*
X5472524Y22215642D01*
X5598196Y22259272D01*
X5780248Y22317917D01*
X6002499Y22386292D01*
X6125851Y22423128D01*
X6369672Y22497493D01*
X6588438Y22568443D01*
X6763671Y22629669D01*
X6876892Y22674864D01*
X6902798Y22688363D01*
X6951566Y22711916D01*
X7019016Y22725248D01*
X7119768Y22728060D01*
X7268441Y22720053D01*
X7479656Y22700931D01*
X7764331Y22670801D01*
X8017483Y22643704D01*
X8235807Y22621505D01*
X8404003Y22605666D01*
X8506768Y22597646D01*
X8531663Y22597543D01*
X8595229Y22691202D01*
X8662203Y22804484D01*
X8718284Y22910815D01*
X8749170Y22983624D01*
X8748489Y23000426D01*
X8693199Y23005437D01*
X8561632Y23019072D01*
X8369302Y23039674D01*
X8131721Y23065584D01*
X7905843Y23090535D01*
X7565707Y23131531D01*
X7314304Y23169054D01*
X7152750Y23202906D01*
X7082163Y23232888D01*
X7079293Y23237576D01*
X7002752Y23354865D01*
X6877243Y23454104D01*
X6742423Y23505892D01*
X6714540Y23508000D01*
X6616133Y23499930D01*
X6451489Y23478062D01*
X6245098Y23445915D01*
X6059851Y23413984D01*
X5852083Y23378352D01*
X5680175Y23352231D01*
X5562885Y23338246D01*
X5519300Y23338397D01*
X5516681Y23392019D01*
X5528799Y23521245D01*
X5553328Y23710902D01*
X5587941Y23945823D01*
X5630313Y24210834D01*
X5678116Y24490767D01*
X5729025Y24770451D01*
X5775473Y25008909D01*
X5896819Y25609273D01*
X6635410Y25693123D01*
X6967773Y25734436D01*
X7220711Y25775849D01*
X7407060Y25821751D01*
X7539660Y25876532D01*
X7631346Y25944584D01*
X7694959Y26030295D01*
X7710865Y26060887D01*
X7746205Y26180502D01*
X7732871Y26321001D01*
X7720713Y26369976D01*
X7678412Y26487509D01*
X7615167Y26573281D01*
X7517410Y26632070D01*
X7371569Y26668656D01*
X7164074Y26687818D01*
X6881356Y26694333D01*
X6799021Y26694546D01*
X6575225Y26695514D01*
X6389070Y26698164D01*
X6257669Y26702113D01*
X6198140Y26706979D01*
X6196364Y26708014D01*
X6211530Y26767761D01*
X6253244Y26898078D01*
X6315828Y27082977D01*
X6393603Y27306468D01*
X6480894Y27552563D01*
X6572021Y27805272D01*
X6661308Y28048607D01*
X6743076Y28266578D01*
X6811649Y28443197D01*
X6819287Y28462259D01*
X7038254Y29006154D01*
X7460127Y28973772D01*
X7718392Y28957663D01*
X8011135Y28944999D01*
X8280477Y28938217D01*
X8312871Y28937877D01*
X8515973Y28937609D01*
X8648972Y28944253D01*
X8734113Y28962979D01*
X8793642Y28998953D01*
X8849803Y29057344D01*
X8855508Y29063939D01*
X8947963Y29233854D01*
X8966733Y29423780D01*
X8911424Y29603239D01*
X8863364Y29671208D01*
X8801607Y29727707D01*
X8716791Y29772474D01*
X8589880Y29812030D01*
X8401835Y29852895D01*
X8251455Y29880807D01*
X7974284Y29928716D01*
X7777877Y29964738D01*
X7653462Y29999652D01*
X7592264Y30044238D01*
X7585509Y30109278D01*
X7624424Y30205550D01*
X7700233Y30343836D01*
X7770640Y30471566D01*
X7895790Y30698265D01*
X8035570Y30941425D01*
X8181556Y31187485D01*
X8325322Y31422888D01*
X8458444Y31634075D01*
X8572496Y31807488D01*
X8659053Y31929569D01*
X8709690Y31986759D01*
X8713456Y31988825D01*
X8773699Y31985205D01*
X8906633Y31962555D01*
X9095332Y31924208D01*
X9322871Y31873496D01*
X9443850Y31845039D01*
X9693679Y31787454D01*
X9922132Y31738811D01*
X10109288Y31703060D01*
X10235224Y31684152D01*
X10265281Y31682182D01*
X10423177Y31724132D01*
X10559916Y31833143D01*
X10651451Y31983960D01*
X10676000Y32113580D01*
X10672488Y32232105D01*
X10653991Y32324209D01*
X10608574Y32399398D01*
X10524298Y32467179D01*
X10389226Y32537056D01*
X10191422Y32618537D01*
X9918947Y32721126D01*
X9907927Y32725210D01*
X9715350Y32798569D01*
X9554766Y32863488D01*
X9446328Y32911599D01*
X9411760Y32931221D01*
X9424995Y32978347D01*
X9490499Y33082283D01*
X9598535Y33231381D01*
X9739366Y33413996D01*
X9903254Y33618482D01*
X10080462Y33833191D01*
X10261252Y34046479D01*
X10435887Y34246698D01*
X10594629Y34422203D01*
X10727741Y34561346D01*
X10825486Y34652483D01*
X10877258Y34684000D01*
X10936313Y34666385D01*
X11064371Y34617691D01*
X11245940Y34544145D01*
X11465528Y34451973D01*
X11623737Y34383970D01*
X11863441Y34282400D01*
X12079033Y34195520D01*
X12253948Y34129662D01*
X12371626Y34091155D01*
X12409088Y34083789D01*
X12552219Y34125313D01*
X12686057Y34234016D01*
X12789998Y34385408D01*
X12843437Y34555001D01*
X12846546Y34603726D01*
X12833258Y34685889D01*
X12786291Y34766779D01*
X12694987Y34855734D01*
X12548688Y34962092D01*
X12336737Y35095190D01*
X12179008Y35188622D01*
X11992318Y35301181D01*
X11840500Y35399303D01*
X11738361Y35472931D01*
X11700705Y35512011D01*
X11700909Y35513311D01*
X11742558Y35561518D01*
X11843046Y35657180D01*
X11989666Y35789336D01*
X12169711Y35947027D01*
X12370473Y36119293D01*
X12579246Y36295175D01*
X12783322Y36463712D01*
X12969995Y36613944D01*
X13046521Y36673887D01*
X13454315Y36989768D01*
X14082792Y36569137D01*
X14373451Y36379162D01*
X14602517Y36242705D01*
X14781498Y36156826D01*
X14921902Y36118587D01*
X15035237Y36125047D01*
X15133012Y36173270D01*
X15226734Y36260315D01*
X15238849Y36273905D01*
X15356356Y36456229D01*
X15383350Y36631084D01*
X15344158Y36755093D01*
X15293519Y36814172D01*
X15186604Y36917086D01*
X15038909Y37049527D01*
X14865926Y37197191D01*
X14859760Y37202329D01*
X14691159Y37346236D01*
X14552228Y37471528D01*
X14456657Y37565370D01*
X14418134Y37614929D01*
X14417926Y37616546D01*
X14456523Y37657544D01*
X14563129Y37734123D01*
X14724206Y37838494D01*
X14926218Y37962867D01*
X15155627Y38099451D01*
X15398893Y38240457D01*
X15642481Y38378095D01*
X15872851Y38504575D01*
X16076467Y38612108D01*
X16239790Y38692903D01*
X16349283Y38739170D01*
X16382704Y38747114D01*
X16431233Y38717200D01*
X16534270Y38633827D01*
X16679671Y38507477D01*
X16855292Y38348634D01*
X16996529Y38217308D01*
X17192512Y38037769D01*
X17373696Y37880516D01*
X17526146Y37756985D01*
X17635925Y37678617D01*
X17679335Y37656897D01*
X17837260Y37658772D01*
X17992907Y37727629D01*
X18125289Y37843813D01*
X18213420Y37987672D01*
X18236314Y38139550D01*
X18230311Y38172894D01*
X18191589Y38247710D01*
X18104901Y38375769D01*
X17982406Y38540201D01*
X17836266Y38724137D01*
X17809444Y38756738D01*
X17415602Y39232909D01*
X17683804Y39355398D01*
X17827275Y39415906D01*
X18023527Y39491692D01*
X18257245Y39577565D01*
X18513112Y39668334D01*
X18775811Y39758807D01*
X19030026Y39843795D01*
X19260440Y39918105D01*
X19451737Y39976547D01*
X19588600Y40013929D01*
X19655713Y40025061D01*
X19658061Y40024507D01*
X19694138Y40057318D01*
X19773219Y40159428D01*
X19889167Y40321929D01*
X20035848Y40535914D01*
X20207126Y40792475D01*
X20396866Y41082702D01*
X20538028Y41302134D01*
X20752130Y41634597D01*
X20965221Y41960858D01*
X21168479Y42267743D01*
X21353080Y42542079D01*
X21510200Y42770695D01*
X21631018Y42940417D01*
X21672193Y42995370D01*
X22102285Y43494724D01*
X22566924Y43923824D01*
X23057693Y44276046D01*
X23566176Y44544763D01*
X23720768Y44608048D01*
X23910623Y44677422D01*
X24068895Y44724518D01*
X24224821Y44754606D01*
X24407642Y44772957D01*
X24646596Y44784840D01*
X24715273Y44787306D01*
X25082246Y44789984D01*
X25389936Y44766244D01*
G36*
X19802368Y27197851D02*
X19842695Y27170709D01*
X19872027Y27108130D01*
X19897285Y26995932D01*
X19925390Y26819933D01*
X19959467Y26591098D01*
X19982095Y26400666D01*
X19979767Y26264903D01*
X19950803Y26149095D01*
X19936267Y26112094D01*
X19924462Y26074853D01*
X19914032Y26019434D01*
X19904896Y25940390D01*
X19896971Y25832274D01*
X19890175Y25689639D01*
X19884426Y25507039D01*
X19879642Y25279027D01*
X19875739Y25000155D01*
X19872637Y24664976D01*
X19870251Y24268045D01*
X19868500Y23803914D01*
X19867302Y23267135D01*
X19866574Y22652263D01*
X19866234Y21953849D01*
X19866182Y21476719D01*
X19866182Y17009081D01*
X20118447Y16979432D01*
X20365846Y16935174D01*
X20527208Y16871114D01*
X20600541Y16788158D01*
X20605091Y16758042D01*
X20586406Y16687087D01*
X20563736Y16673091D01*
X20520403Y16635353D01*
X20458366Y16539869D01*
X20428354Y16483048D01*
X20368237Y16327727D01*
X20366842Y16211836D01*
X20374825Y16186491D01*
X20386300Y16115310D01*
X20399714Y15963838D01*
X20414375Y15744112D01*
X20429589Y15468167D01*
X20444664Y15148039D01*
X20458908Y14795765D01*
X20465545Y14610080D01*
X20480408Y14179215D01*
X20496687Y13714505D01*
X20513477Y13241277D01*
X20529873Y12784858D01*
X20544973Y12370574D01*
X20557653Y12029528D01*
X20571500Y11615367D01*
X20577324Y11281107D01*
X20573391Y11014498D01*
X20557966Y10803291D01*
X20529316Y10635238D01*
X20485705Y10498090D01*
X20425400Y10379597D01*
X20346667Y10267511D01*
X20300063Y10210299D01*
X20179800Y10095343D01*
X20046393Y10005953D01*
X20019913Y9993539D01*
X19830563Y9946273D01*
X19610498Y9936657D01*
X19409138Y9965523D01*
X19358206Y9982429D01*
X19161542Y10107718D01*
X18987461Y10313055D01*
X18926506Y10415455D01*
X18883071Y10507562D01*
X18854475Y10605735D01*
X18837893Y10731483D01*
X18830501Y10906314D01*
X18829475Y11151738D01*
X18829487Y11154364D01*
X18833463Y11391528D01*
X18843172Y11693950D01*
X18857884Y12050076D01*
X18876870Y12448350D01*
X18899399Y12877218D01*
X18924743Y13325124D01*
X18952173Y13780513D01*
X18980958Y14231831D01*
X19010370Y14667521D01*
X19039679Y15076030D01*
X19068156Y15445801D01*
X19095070Y15765280D01*
X19119694Y16022911D01*
X19141297Y16207141D01*
X19153073Y16280546D01*
X19153931Y16404302D01*
X19097704Y16537373D01*
X19058859Y16598234D01*
X18991006Y16716920D01*
X18959106Y16811336D01*
X18960430Y16837813D01*
X19017540Y16886627D01*
X19132724Y16936970D01*
X19272626Y16977251D01*
X19403895Y16995878D01*
X19415910Y16996106D01*
X19429327Y16999872D01*
X19441175Y17014668D01*
X19451552Y17045878D01*
X19460555Y17098887D01*
X19468280Y17179079D01*
X19474825Y17291839D01*
X19480287Y17442552D01*
X19484763Y17636601D01*
X19488350Y17879371D01*
X19491146Y18176247D01*
X19493246Y18532613D01*
X19494749Y18953854D01*
X19495752Y19445353D01*
X19496351Y20012495D01*
X19496644Y20660666D01*
X19496727Y21395248D01*
X19496728Y21477840D01*
X19496666Y22222207D01*
X19496412Y22879826D01*
X19495862Y23456314D01*
X19494912Y23957286D01*
X19493458Y24388359D01*
X19491397Y24755148D01*
X19488624Y25063269D01*
X19485037Y25318339D01*
X19480531Y25525974D01*
X19475002Y25691789D01*
X19468348Y25821400D01*
X19460464Y25920424D01*
X19451246Y25994477D01*
X19440590Y26049174D01*
X19428394Y26090131D01*
X19414552Y26122965D01*
X19410775Y26130658D01*
X19359802Y26248493D01*
X19337339Y26333776D01*
X19338161Y26348182D01*
X19349990Y26412356D01*
X19370167Y26544217D01*
X19395100Y26719860D01*
X19405793Y26798455D01*
X19460086Y27202546D01*
X19661041Y27202546D01*
X19744124Y27203736D01*
X19802368Y27197851D01*
X19802368Y27197851D01*
G37*
X19802368Y27197851D02*
X19842695Y27170709D01*
X19872027Y27108130D01*
X19897285Y26995932D01*
X19925390Y26819933D01*
X19959467Y26591098D01*
X19982095Y26400666D01*
X19979767Y26264903D01*
X19950803Y26149095D01*
X19936267Y26112094D01*
X19924462Y26074853D01*
X19914032Y26019434D01*
X19904896Y25940390D01*
X19896971Y25832274D01*
X19890175Y25689639D01*
X19884426Y25507039D01*
X19879642Y25279027D01*
X19875739Y25000155D01*
X19872637Y24664976D01*
X19870251Y24268045D01*
X19868500Y23803914D01*
X19867302Y23267135D01*
X19866574Y22652263D01*
X19866234Y21953849D01*
X19866182Y21476719D01*
X19866182Y17009081D01*
X20118447Y16979432D01*
X20365846Y16935174D01*
X20527208Y16871114D01*
X20600541Y16788158D01*
X20605091Y16758042D01*
X20586406Y16687087D01*
X20563736Y16673091D01*
X20520403Y16635353D01*
X20458366Y16539869D01*
X20428354Y16483048D01*
X20368237Y16327727D01*
X20366842Y16211836D01*
X20374825Y16186491D01*
X20386300Y16115310D01*
X20399714Y15963838D01*
X20414375Y15744112D01*
X20429589Y15468167D01*
X20444664Y15148039D01*
X20458908Y14795765D01*
X20465545Y14610080D01*
X20480408Y14179215D01*
X20496687Y13714505D01*
X20513477Y13241277D01*
X20529873Y12784858D01*
X20544973Y12370574D01*
X20557653Y12029528D01*
X20571500Y11615367D01*
X20577324Y11281107D01*
X20573391Y11014498D01*
X20557966Y10803291D01*
X20529316Y10635238D01*
X20485705Y10498090D01*
X20425400Y10379597D01*
X20346667Y10267511D01*
X20300063Y10210299D01*
X20179800Y10095343D01*
X20046393Y10005953D01*
X20019913Y9993539D01*
X19830563Y9946273D01*
X19610498Y9936657D01*
X19409138Y9965523D01*
X19358206Y9982429D01*
X19161542Y10107718D01*
X18987461Y10313055D01*
X18926506Y10415455D01*
X18883071Y10507562D01*
X18854475Y10605735D01*
X18837893Y10731483D01*
X18830501Y10906314D01*
X18829475Y11151738D01*
X18829487Y11154364D01*
X18833463Y11391528D01*
X18843172Y11693950D01*
X18857884Y12050076D01*
X18876870Y12448350D01*
X18899399Y12877218D01*
X18924743Y13325124D01*
X18952173Y13780513D01*
X18980958Y14231831D01*
X19010370Y14667521D01*
X19039679Y15076030D01*
X19068156Y15445801D01*
X19095070Y15765280D01*
X19119694Y16022911D01*
X19141297Y16207141D01*
X19153073Y16280546D01*
X19153931Y16404302D01*
X19097704Y16537373D01*
X19058859Y16598234D01*
X18991006Y16716920D01*
X18959106Y16811336D01*
X18960430Y16837813D01*
X19017540Y16886627D01*
X19132724Y16936970D01*
X19272626Y16977251D01*
X19403895Y16995878D01*
X19415910Y16996106D01*
X19429327Y16999872D01*
X19441175Y17014668D01*
X19451552Y17045878D01*
X19460555Y17098887D01*
X19468280Y17179079D01*
X19474825Y17291839D01*
X19480287Y17442552D01*
X19484763Y17636601D01*
X19488350Y17879371D01*
X19491146Y18176247D01*
X19493246Y18532613D01*
X19494749Y18953854D01*
X19495752Y19445353D01*
X19496351Y20012495D01*
X19496644Y20660666D01*
X19496727Y21395248D01*
X19496728Y21477840D01*
X19496666Y22222207D01*
X19496412Y22879826D01*
X19495862Y23456314D01*
X19494912Y23957286D01*
X19493458Y24388359D01*
X19491397Y24755148D01*
X19488624Y25063269D01*
X19485037Y25318339D01*
X19480531Y25525974D01*
X19475002Y25691789D01*
X19468348Y25821400D01*
X19460464Y25920424D01*
X19451246Y25994477D01*
X19440590Y26049174D01*
X19428394Y26090131D01*
X19414552Y26122965D01*
X19410775Y26130658D01*
X19359802Y26248493D01*
X19337339Y26333776D01*
X19338161Y26348182D01*
X19349990Y26412356D01*
X19370167Y26544217D01*
X19395100Y26719860D01*
X19405793Y26798455D01*
X19460086Y27202546D01*
X19661041Y27202546D01*
X19744124Y27203736D01*
X19802368Y27197851D01*
G36*
X30600165Y24867967D02*
X30762968Y24854441D01*
X30842307Y24820283D01*
X30842624Y24755991D01*
X30768363Y24652060D01*
X30623966Y24498988D01*
X30555427Y24429780D01*
X30403442Y24282159D01*
X30270628Y24162829D01*
X30172628Y24085248D01*
X30128213Y24062182D01*
X30068058Y24030382D01*
X29967934Y23946716D01*
X29848746Y23828785D01*
X29840254Y23819728D01*
X29722770Y23690051D01*
X29655061Y23593944D01*
X29623230Y23498063D01*
X29613382Y23369067D01*
X29612306Y23272775D01*
X29610546Y22968277D01*
X29838195Y22776320D01*
X29967227Y22672607D01*
X30068039Y22615098D01*
X30178481Y22590228D01*
X30336402Y22584429D01*
X30373745Y22584364D01*
X30543983Y22587982D01*
X30658662Y22607674D01*
X30754544Y22656700D01*
X30868390Y22748316D01*
X30896550Y22772917D01*
X31015484Y22889198D01*
X31103470Y22997315D01*
X31136104Y23059333D01*
X31178256Y23125621D01*
X31270744Y23225646D01*
X31396244Y23344668D01*
X31537432Y23467949D01*
X31676986Y23580752D01*
X31797582Y23668339D01*
X31881897Y23715971D01*
X31909983Y23717720D01*
X31925074Y23659160D01*
X31936327Y23532381D01*
X31941861Y23361507D01*
X31942126Y23305631D01*
X31937107Y23098054D01*
X31916988Y22942952D01*
X31872993Y22800653D01*
X31796351Y22631485D01*
X31790338Y22619238D01*
X31649844Y22382298D01*
X31485882Y22181091D01*
X31433031Y22130700D01*
X31226910Y21949265D01*
X31226910Y13630028D01*
X31484707Y13458912D01*
X31791220Y13203403D01*
X32029387Y12897100D01*
X32197752Y12552900D01*
X32294859Y12183702D01*
X32319252Y11802404D01*
X32269476Y11421903D01*
X32144074Y11055100D01*
X31941590Y10714890D01*
X31811953Y10559825D01*
X31671681Y10425672D01*
X31558695Y10359138D01*
X31483098Y10346182D01*
X31353196Y10346182D01*
X31374941Y10948386D01*
X31396686Y11550589D01*
X30892600Y11943956D01*
X30707723Y12085493D01*
X30548401Y12202321D01*
X30428721Y12284496D01*
X30362768Y12322078D01*
X30355429Y12323116D01*
X30308495Y12290743D01*
X30203798Y12212376D01*
X30056088Y12099229D01*
X29880119Y11962514D01*
X29850990Y11939721D01*
X29379637Y11570533D01*
X29379637Y10958357D01*
X29379151Y10710861D01*
X29376006Y10541082D01*
X29367669Y10434377D01*
X29351609Y10376100D01*
X29325294Y10351605D01*
X29286191Y10346248D01*
X29273798Y10346182D01*
X29173007Y10382427D01*
X29042672Y10481718D01*
X28980723Y10542455D01*
X28730493Y10857380D01*
X28564100Y11194818D01*
X28477109Y11567162D01*
X28464910Y11983514D01*
X28487209Y12226922D01*
X28532161Y12426240D01*
X28611141Y12629049D01*
X28628005Y12665664D01*
X28810932Y12980561D01*
X29041116Y13258270D01*
X29297406Y13474368D01*
X29365435Y13517288D01*
X29564364Y13633868D01*
X29564347Y16757231D01*
X30210904Y16757231D01*
X30211123Y16158470D01*
X30211923Y15640767D01*
X30213658Y15198468D01*
X30216683Y14825920D01*
X30221355Y14517470D01*
X30228027Y14267466D01*
X30237056Y14070253D01*
X30248795Y13920179D01*
X30263602Y13811592D01*
X30281830Y13738837D01*
X30303834Y13696262D01*
X30329971Y13678214D01*
X30360595Y13679039D01*
X30396061Y13693085D01*
X30436724Y13714698D01*
X30444855Y13719080D01*
X30461174Y13729994D01*
X30475375Y13748135D01*
X30487605Y13779584D01*
X30498012Y13830419D01*
X30506741Y13906721D01*
X30513941Y14014569D01*
X30519758Y14160043D01*
X30524340Y14349223D01*
X30527834Y14588188D01*
X30530387Y14883018D01*
X30532145Y15239792D01*
X30533257Y15664591D01*
X30533869Y16163494D01*
X30534128Y16742580D01*
X30534182Y17407931D01*
X30534182Y17410326D01*
X30534035Y18081912D01*
X30533517Y18667120D01*
X30532510Y19171938D01*
X30530898Y19602350D01*
X30528564Y19964344D01*
X30525392Y20263906D01*
X30521264Y20507021D01*
X30516063Y20699676D01*
X30509674Y20847856D01*
X30501980Y20957549D01*
X30492862Y21034741D01*
X30482206Y21085416D01*
X30469894Y21115562D01*
X30461702Y21126246D01*
X30378034Y21173467D01*
X30300066Y21151011D01*
X30283813Y21140104D01*
X30269665Y21121916D01*
X30257476Y21090381D01*
X30247099Y21039435D01*
X30238390Y20963013D01*
X30231202Y20855051D01*
X30225389Y20709483D01*
X30220806Y20520246D01*
X30217307Y20281275D01*
X30214746Y19986504D01*
X30212978Y19629869D01*
X30211855Y19205306D01*
X30211234Y18706750D01*
X30210967Y18128136D01*
X30210910Y17463400D01*
X30210910Y17442703D01*
X30210904Y16757231D01*
X29564347Y16757231D01*
X29564341Y17774298D01*
X29564319Y21914728D01*
X29336267Y22111121D01*
X29099807Y22373601D01*
X28956472Y22615748D01*
X28872842Y22800146D01*
X28826630Y22953619D01*
X28807332Y23121549D01*
X28804211Y23273718D01*
X28823127Y23573583D01*
X28876892Y23833155D01*
X28887735Y23866442D01*
X29011645Y24113751D01*
X29201539Y24358278D01*
X29433880Y24574490D01*
X29685134Y24736854D01*
X29694131Y24741321D01*
X29845134Y24808469D01*
X29982021Y24847669D01*
X30140517Y24865954D01*
X30349455Y24870364D01*
X30600165Y24867967D01*
X30600165Y24867967D01*
G37*
X30600165Y24867967D02*
X30762968Y24854441D01*
X30842307Y24820283D01*
X30842624Y24755991D01*
X30768363Y24652060D01*
X30623966Y24498988D01*
X30555427Y24429780D01*
X30403442Y24282159D01*
X30270628Y24162829D01*
X30172628Y24085248D01*
X30128213Y24062182D01*
X30068058Y24030382D01*
X29967934Y23946716D01*
X29848746Y23828785D01*
X29840254Y23819728D01*
X29722770Y23690051D01*
X29655061Y23593944D01*
X29623230Y23498063D01*
X29613382Y23369067D01*
X29612306Y23272775D01*
X29610546Y22968277D01*
X29838195Y22776320D01*
X29967227Y22672607D01*
X30068039Y22615098D01*
X30178481Y22590228D01*
X30336402Y22584429D01*
X30373745Y22584364D01*
X30543983Y22587982D01*
X30658662Y22607674D01*
X30754544Y22656700D01*
X30868390Y22748316D01*
X30896550Y22772917D01*
X31015484Y22889198D01*
X31103470Y22997315D01*
X31136104Y23059333D01*
X31178256Y23125621D01*
X31270744Y23225646D01*
X31396244Y23344668D01*
X31537432Y23467949D01*
X31676986Y23580752D01*
X31797582Y23668339D01*
X31881897Y23715971D01*
X31909983Y23717720D01*
X31925074Y23659160D01*
X31936327Y23532381D01*
X31941861Y23361507D01*
X31942126Y23305631D01*
X31937107Y23098054D01*
X31916988Y22942952D01*
X31872993Y22800653D01*
X31796351Y22631485D01*
X31790338Y22619238D01*
X31649844Y22382298D01*
X31485882Y22181091D01*
X31433031Y22130700D01*
X31226910Y21949265D01*
X31226910Y13630028D01*
X31484707Y13458912D01*
X31791220Y13203403D01*
X32029387Y12897100D01*
X32197752Y12552900D01*
X32294859Y12183702D01*
X32319252Y11802404D01*
X32269476Y11421903D01*
X32144074Y11055100D01*
X31941590Y10714890D01*
X31811953Y10559825D01*
X31671681Y10425672D01*
X31558695Y10359138D01*
X31483098Y10346182D01*
X31353196Y10346182D01*
X31374941Y10948386D01*
X31396686Y11550589D01*
X30892600Y11943956D01*
X30707723Y12085493D01*
X30548401Y12202321D01*
X30428721Y12284496D01*
X30362768Y12322078D01*
X30355429Y12323116D01*
X30308495Y12290743D01*
X30203798Y12212376D01*
X30056088Y12099229D01*
X29880119Y11962514D01*
X29850990Y11939721D01*
X29379637Y11570533D01*
X29379637Y10958357D01*
X29379151Y10710861D01*
X29376006Y10541082D01*
X29367669Y10434377D01*
X29351609Y10376100D01*
X29325294Y10351605D01*
X29286191Y10346248D01*
X29273798Y10346182D01*
X29173007Y10382427D01*
X29042672Y10481718D01*
X28980723Y10542455D01*
X28730493Y10857380D01*
X28564100Y11194818D01*
X28477109Y11567162D01*
X28464910Y11983514D01*
X28487209Y12226922D01*
X28532161Y12426240D01*
X28611141Y12629049D01*
X28628005Y12665664D01*
X28810932Y12980561D01*
X29041116Y13258270D01*
X29297406Y13474368D01*
X29365435Y13517288D01*
X29564364Y13633868D01*
X29564347Y16757231D01*
X30210904Y16757231D01*
X30211123Y16158470D01*
X30211923Y15640767D01*
X30213658Y15198468D01*
X30216683Y14825920D01*
X30221355Y14517470D01*
X30228027Y14267466D01*
X30237056Y14070253D01*
X30248795Y13920179D01*
X30263602Y13811592D01*
X30281830Y13738837D01*
X30303834Y13696262D01*
X30329971Y13678214D01*
X30360595Y13679039D01*
X30396061Y13693085D01*
X30436724Y13714698D01*
X30444855Y13719080D01*
X30461174Y13729994D01*
X30475375Y13748135D01*
X30487605Y13779584D01*
X30498012Y13830419D01*
X30506741Y13906721D01*
X30513941Y14014569D01*
X30519758Y14160043D01*
X30524340Y14349223D01*
X30527834Y14588188D01*
X30530387Y14883018D01*
X30532145Y15239792D01*
X30533257Y15664591D01*
X30533869Y16163494D01*
X30534128Y16742580D01*
X30534182Y17407931D01*
X30534182Y17410326D01*
X30534035Y18081912D01*
X30533517Y18667120D01*
X30532510Y19171938D01*
X30530898Y19602350D01*
X30528564Y19964344D01*
X30525392Y20263906D01*
X30521264Y20507021D01*
X30516063Y20699676D01*
X30509674Y20847856D01*
X30501980Y20957549D01*
X30492862Y21034741D01*
X30482206Y21085416D01*
X30469894Y21115562D01*
X30461702Y21126246D01*
X30378034Y21173467D01*
X30300066Y21151011D01*
X30283813Y21140104D01*
X30269665Y21121916D01*
X30257476Y21090381D01*
X30247099Y21039435D01*
X30238390Y20963013D01*
X30231202Y20855051D01*
X30225389Y20709483D01*
X30220806Y20520246D01*
X30217307Y20281275D01*
X30214746Y19986504D01*
X30212978Y19629869D01*
X30211855Y19205306D01*
X30211234Y18706750D01*
X30210967Y18128136D01*
X30210910Y17463400D01*
X30210910Y17442703D01*
X30210904Y16757231D01*
X29564347Y16757231D01*
X29564341Y17774298D01*
X29564319Y21914728D01*
X29336267Y22111121D01*
X29099807Y22373601D01*
X28956472Y22615748D01*
X28872842Y22800146D01*
X28826630Y22953619D01*
X28807332Y23121549D01*
X28804211Y23273718D01*
X28823127Y23573583D01*
X28876892Y23833155D01*
X28887735Y23866442D01*
X29011645Y24113751D01*
X29201539Y24358278D01*
X29433880Y24574490D01*
X29685134Y24736854D01*
X29694131Y24741321D01*
X29845134Y24808469D01*
X29982021Y24847669D01*
X30140517Y24865954D01*
X30349455Y24870364D01*
X30600165Y24867967D01*
G36*
X20324176Y23466218D02*
X20427680Y23378754D01*
X20579548Y23246658D01*
X20769786Y23078671D01*
X20988400Y22883538D01*
X21144940Y22742716D01*
X21726654Y22220253D01*
X22287956Y21720925D01*
X22824776Y21248142D01*
X23333043Y20805313D01*
X23808687Y20395848D01*
X24247640Y20023158D01*
X24645831Y19690652D01*
X24999191Y19401741D01*
X25303648Y19159833D01*
X25555135Y18968340D01*
X25749580Y18830671D01*
X25882914Y18750235D01*
X25933633Y18730497D01*
X26030808Y18716161D01*
X26183468Y18698778D01*
X26324392Y18685221D01*
X26663260Y18622984D01*
X26949376Y18495392D01*
X27203664Y18292804D01*
X27227151Y18269074D01*
X27423338Y18022178D01*
X27535540Y17763399D01*
X27571733Y17472199D01*
X27569593Y17387005D01*
X27558884Y17233565D01*
X27539433Y17149467D01*
X27500074Y17111720D01*
X27429644Y17097334D01*
X27428890Y17097247D01*
X27339107Y17105416D01*
X27236661Y17158466D01*
X27100938Y17268022D01*
X27059435Y17305562D01*
X26881415Y17469355D01*
X26757938Y17578781D01*
X26673793Y17640021D01*
X26613774Y17659255D01*
X26562669Y17642661D01*
X26505272Y17596420D01*
X26454895Y17551202D01*
X26333909Y17413740D01*
X26232519Y17246834D01*
X26211763Y17199038D01*
X26132075Y16990379D01*
X26471762Y16648410D01*
X26811448Y16306442D01*
X26652361Y16241863D01*
X26421429Y16173788D01*
X26183567Y16146062D01*
X25985273Y16162809D01*
X25692663Y16276495D01*
X25451233Y16466160D01*
X25260647Y16732260D01*
X25120567Y17075248D01*
X25039128Y17439019D01*
X25009259Y17590910D01*
X24965150Y17702414D01*
X24888198Y17805994D01*
X24759801Y17934113D01*
X24750266Y17943091D01*
X24592645Y18088911D01*
X24372641Y18288906D01*
X24097532Y18536601D01*
X23774595Y18825519D01*
X23411107Y19149185D01*
X23014346Y19501124D01*
X22591589Y19874860D01*
X22150114Y20263918D01*
X21697198Y20661821D01*
X21540273Y20799392D01*
X20235637Y21942490D01*
X20235637Y22729094D01*
X20238065Y23014411D01*
X20244975Y23242999D01*
X20255801Y23404833D01*
X20269981Y23489890D01*
X20279031Y23500303D01*
X20324176Y23466218D01*
X20324176Y23466218D01*
G37*
X20324176Y23466218D02*
X20427680Y23378754D01*
X20579548Y23246658D01*
X20769786Y23078671D01*
X20988400Y22883538D01*
X21144940Y22742716D01*
X21726654Y22220253D01*
X22287956Y21720925D01*
X22824776Y21248142D01*
X23333043Y20805313D01*
X23808687Y20395848D01*
X24247640Y20023158D01*
X24645831Y19690652D01*
X24999191Y19401741D01*
X25303648Y19159833D01*
X25555135Y18968340D01*
X25749580Y18830671D01*
X25882914Y18750235D01*
X25933633Y18730497D01*
X26030808Y18716161D01*
X26183468Y18698778D01*
X26324392Y18685221D01*
X26663260Y18622984D01*
X26949376Y18495392D01*
X27203664Y18292804D01*
X27227151Y18269074D01*
X27423338Y18022178D01*
X27535540Y17763399D01*
X27571733Y17472199D01*
X27569593Y17387005D01*
X27558884Y17233565D01*
X27539433Y17149467D01*
X27500074Y17111720D01*
X27429644Y17097334D01*
X27428890Y17097247D01*
X27339107Y17105416D01*
X27236661Y17158466D01*
X27100938Y17268022D01*
X27059435Y17305562D01*
X26881415Y17469355D01*
X26757938Y17578781D01*
X26673793Y17640021D01*
X26613774Y17659255D01*
X26562669Y17642661D01*
X26505272Y17596420D01*
X26454895Y17551202D01*
X26333909Y17413740D01*
X26232519Y17246834D01*
X26211763Y17199038D01*
X26132075Y16990379D01*
X26471762Y16648410D01*
X26811448Y16306442D01*
X26652361Y16241863D01*
X26421429Y16173788D01*
X26183567Y16146062D01*
X25985273Y16162809D01*
X25692663Y16276495D01*
X25451233Y16466160D01*
X25260647Y16732260D01*
X25120567Y17075248D01*
X25039128Y17439019D01*
X25009259Y17590910D01*
X24965150Y17702414D01*
X24888198Y17805994D01*
X24759801Y17934113D01*
X24750266Y17943091D01*
X24592645Y18088911D01*
X24372641Y18288906D01*
X24097532Y18536601D01*
X23774595Y18825519D01*
X23411107Y19149185D01*
X23014346Y19501124D01*
X22591589Y19874860D01*
X22150114Y20263918D01*
X21697198Y20661821D01*
X21540273Y20799392D01*
X20235637Y21942490D01*
X20235637Y22729094D01*
X20238065Y23014411D01*
X20244975Y23242999D01*
X20255801Y23404833D01*
X20269981Y23489890D01*
X20279031Y23500303D01*
X20324176Y23466218D01*
G36*
X24255991Y17961339D02*
X24416333Y17808459D01*
X24547657Y17671188D01*
X24636423Y17564534D01*
X24669091Y17503505D01*
X24669091Y17503454D01*
X24635369Y17432173D01*
X24548238Y17331602D01*
X24460419Y17252135D01*
X24321219Y17119473D01*
X24171629Y16948614D01*
X24066153Y16807845D01*
X23967206Y16669703D01*
X23881539Y16580450D01*
X23796580Y16542891D01*
X23699761Y16559829D01*
X23578509Y16634065D01*
X23420256Y16768403D01*
X23212430Y16965647D01*
X23168928Y17007909D01*
X22963792Y17211881D01*
X22820810Y17365393D01*
X22732030Y17478119D01*
X22689496Y17559731D01*
X22682861Y17599037D01*
X22713629Y17730380D01*
X22791877Y17812714D01*
X22852413Y17827637D01*
X22968054Y17850407D01*
X23133002Y17910173D01*
X23318784Y17994116D01*
X23496928Y18089419D01*
X23634124Y18179543D01*
X23842890Y18338898D01*
X24255991Y17961339D01*
X24255991Y17961339D01*
G37*
X24255991Y17961339D02*
X24416333Y17808459D01*
X24547657Y17671188D01*
X24636423Y17564534D01*
X24669091Y17503505D01*
X24669091Y17503454D01*
X24635369Y17432173D01*
X24548238Y17331602D01*
X24460419Y17252135D01*
X24321219Y17119473D01*
X24171629Y16948614D01*
X24066153Y16807845D01*
X23967206Y16669703D01*
X23881539Y16580450D01*
X23796580Y16542891D01*
X23699761Y16559829D01*
X23578509Y16634065D01*
X23420256Y16768403D01*
X23212430Y16965647D01*
X23168928Y17007909D01*
X22963792Y17211881D01*
X22820810Y17365393D01*
X22732030Y17478119D01*
X22689496Y17559731D01*
X22682861Y17599037D01*
X22713629Y17730380D01*
X22791877Y17812714D01*
X22852413Y17827637D01*
X22968054Y17850407D01*
X23133002Y17910173D01*
X23318784Y17994116D01*
X23496928Y18089419D01*
X23634124Y18179543D01*
X23842890Y18338898D01*
X24255991Y17961339D01*
G36*
X28820548Y22529098D02*
X28868348Y22433093D01*
X28873166Y22423290D01*
X28943678Y22313761D01*
X29053723Y22177441D01*
X29139765Y22084674D01*
X29242200Y21973812D01*
X29308702Y21887183D01*
X29324492Y21848361D01*
X29287212Y21806035D01*
X29193987Y21713304D01*
X29057093Y21582027D01*
X28888808Y21424065D01*
X28802364Y21343980D01*
X28595709Y21148366D01*
X28389042Y20944152D01*
X28203926Y20753183D01*
X28061924Y20597304D01*
X28040364Y20571986D01*
X27923460Y20441920D01*
X27754304Y20266385D01*
X27549261Y20061740D01*
X27324697Y19844344D01*
X27116728Y19648805D01*
X26887313Y19437019D01*
X26713854Y19279956D01*
X26584676Y19169434D01*
X26488102Y19097271D01*
X26412458Y19055285D01*
X26346068Y19035294D01*
X26277255Y19029117D01*
X26231727Y19028640D01*
X26122257Y19034596D01*
X26024327Y19059866D01*
X25915188Y19115082D01*
X25772089Y19210877D01*
X25648158Y19301370D01*
X25488539Y19422134D01*
X25357531Y19525763D01*
X25272773Y19598062D01*
X25251247Y19620827D01*
X25270121Y19675144D01*
X25356748Y19778830D01*
X25504656Y19926284D01*
X25707375Y20111906D01*
X25958433Y20330093D01*
X26251357Y20575245D01*
X26579677Y20841760D01*
X26936922Y21124038D01*
X27316619Y21416477D01*
X27391903Y21473588D01*
X27646861Y21668196D01*
X27899779Y21864249D01*
X28132722Y22047628D01*
X28327756Y22204210D01*
X28466945Y22319876D01*
X28468401Y22321128D01*
X28608502Y22439161D01*
X28719266Y22527661D01*
X28784659Y22574053D01*
X28795323Y22577541D01*
X28820548Y22529098D01*
X28820548Y22529098D01*
G37*
X28820548Y22529098D02*
X28868348Y22433093D01*
X28873166Y22423290D01*
X28943678Y22313761D01*
X29053723Y22177441D01*
X29139765Y22084674D01*
X29242200Y21973812D01*
X29308702Y21887183D01*
X29324492Y21848361D01*
X29287212Y21806035D01*
X29193987Y21713304D01*
X29057093Y21582027D01*
X28888808Y21424065D01*
X28802364Y21343980D01*
X28595709Y21148366D01*
X28389042Y20944152D01*
X28203926Y20753183D01*
X28061924Y20597304D01*
X28040364Y20571986D01*
X27923460Y20441920D01*
X27754304Y20266385D01*
X27549261Y20061740D01*
X27324697Y19844344D01*
X27116728Y19648805D01*
X26887313Y19437019D01*
X26713854Y19279956D01*
X26584676Y19169434D01*
X26488102Y19097271D01*
X26412458Y19055285D01*
X26346068Y19035294D01*
X26277255Y19029117D01*
X26231727Y19028640D01*
X26122257Y19034596D01*
X26024327Y19059866D01*
X25915188Y19115082D01*
X25772089Y19210877D01*
X25648158Y19301370D01*
X25488539Y19422134D01*
X25357531Y19525763D01*
X25272773Y19598062D01*
X25251247Y19620827D01*
X25270121Y19675144D01*
X25356748Y19778830D01*
X25504656Y19926284D01*
X25707375Y20111906D01*
X25958433Y20330093D01*
X26251357Y20575245D01*
X26579677Y20841760D01*
X26936922Y21124038D01*
X27316619Y21416477D01*
X27391903Y21473588D01*
X27646861Y21668196D01*
X27899779Y21864249D01*
X28132722Y22047628D01*
X28327756Y22204210D01*
X28466945Y22319876D01*
X28468401Y22321128D01*
X28608502Y22439161D01*
X28719266Y22527661D01*
X28784659Y22574053D01*
X28795323Y22577541D01*
X28820548Y22529098D01*
G36*
X31422904Y27493860D02*
X31494001Y27454642D01*
X31591734Y27367321D01*
X31670536Y27290071D01*
X31840352Y27095540D01*
X31946986Y26914309D01*
X31963845Y26867650D01*
X32058649Y26660336D01*
X32194307Y26511050D01*
X32355985Y26433550D01*
X32440162Y26425947D01*
X32623788Y26391934D01*
X32816664Y26275243D01*
X33020345Y26074140D01*
X33236382Y25786893D01*
X33466330Y25411770D01*
X33642115Y25084858D01*
X33872838Y24614311D01*
X34058689Y24183041D01*
X34212321Y23758063D01*
X34346389Y23306392D01*
X34393446Y23126388D01*
X34448075Y22899603D01*
X34473503Y22746903D01*
X34466368Y22653696D01*
X34423307Y22605393D01*
X34340960Y22587402D01*
X34268728Y22585071D01*
X34195972Y22596106D01*
X34140136Y22643356D01*
X34084289Y22746525D01*
X34041157Y22849909D01*
X33827825Y23304283D01*
X33574954Y23690214D01*
X33422991Y23871363D01*
X33298908Y24016571D01*
X33195148Y24153780D01*
X33132934Y24254792D01*
X33130695Y24259751D01*
X33060334Y24372309D01*
X32966473Y24415409D01*
X32831527Y24392587D01*
X32712807Y24343778D01*
X32530366Y24269208D01*
X32327374Y24200634D01*
X32257281Y24180796D01*
X32165861Y24150438D01*
X32064133Y24101750D01*
X31943766Y24028555D01*
X31796431Y23924670D01*
X31613797Y23783917D01*
X31387535Y23600115D01*
X31109313Y23367084D01*
X30770802Y23078644D01*
X30765091Y23073752D01*
X30621527Y22956429D01*
X30499470Y22867000D01*
X30418990Y22819803D01*
X30404208Y22815913D01*
X30339876Y22843982D01*
X30231893Y22917863D01*
X30115594Y23011546D01*
X29989924Y23126059D01*
X29921553Y23212934D01*
X29893979Y23300069D01*
X29890254Y23392546D01*
X29898188Y23492533D01*
X29928959Y23573070D01*
X29997929Y23657081D01*
X30120456Y23767489D01*
X30168754Y23808182D01*
X30289982Y23916759D01*
X30459109Y24077932D01*
X30661205Y24276598D01*
X30881340Y24497649D01*
X31104586Y24725981D01*
X31316012Y24946488D01*
X31500689Y25144064D01*
X31620804Y25277358D01*
X31695449Y25387216D01*
X31729002Y25517598D01*
X31734737Y25646812D01*
X31698835Y25906162D01*
X31590691Y26108311D01*
X31409021Y26254867D01*
X31180728Y26340778D01*
X31082917Y26399850D01*
X30963332Y26525454D01*
X30888637Y26625329D01*
X30790422Y26778411D01*
X30742736Y26887965D01*
X30735744Y26980374D01*
X30742125Y27018386D01*
X30811504Y27156481D01*
X30945387Y27294592D01*
X31118564Y27410780D01*
X31262828Y27471502D01*
X31353996Y27495854D01*
X31422904Y27493860D01*
X31422904Y27493860D01*
G37*
X31422904Y27493860D02*
X31494001Y27454642D01*
X31591734Y27367321D01*
X31670536Y27290071D01*
X31840352Y27095540D01*
X31946986Y26914309D01*
X31963845Y26867650D01*
X32058649Y26660336D01*
X32194307Y26511050D01*
X32355985Y26433550D01*
X32440162Y26425947D01*
X32623788Y26391934D01*
X32816664Y26275243D01*
X33020345Y26074140D01*
X33236382Y25786893D01*
X33466330Y25411770D01*
X33642115Y25084858D01*
X33872838Y24614311D01*
X34058689Y24183041D01*
X34212321Y23758063D01*
X34346389Y23306392D01*
X34393446Y23126388D01*
X34448075Y22899603D01*
X34473503Y22746903D01*
X34466368Y22653696D01*
X34423307Y22605393D01*
X34340960Y22587402D01*
X34268728Y22585071D01*
X34195972Y22596106D01*
X34140136Y22643356D01*
X34084289Y22746525D01*
X34041157Y22849909D01*
X33827825Y23304283D01*
X33574954Y23690214D01*
X33422991Y23871363D01*
X33298908Y24016571D01*
X33195148Y24153780D01*
X33132934Y24254792D01*
X33130695Y24259751D01*
X33060334Y24372309D01*
X32966473Y24415409D01*
X32831527Y24392587D01*
X32712807Y24343778D01*
X32530366Y24269208D01*
X32327374Y24200634D01*
X32257281Y24180796D01*
X32165861Y24150438D01*
X32064133Y24101750D01*
X31943766Y24028555D01*
X31796431Y23924670D01*
X31613797Y23783917D01*
X31387535Y23600115D01*
X31109313Y23367084D01*
X30770802Y23078644D01*
X30765091Y23073752D01*
X30621527Y22956429D01*
X30499470Y22867000D01*
X30418990Y22819803D01*
X30404208Y22815913D01*
X30339876Y22843982D01*
X30231893Y22917863D01*
X30115594Y23011546D01*
X29989924Y23126059D01*
X29921553Y23212934D01*
X29893979Y23300069D01*
X29890254Y23392546D01*
X29898188Y23492533D01*
X29928959Y23573070D01*
X29997929Y23657081D01*
X30120456Y23767489D01*
X30168754Y23808182D01*
X30289982Y23916759D01*
X30459109Y24077932D01*
X30661205Y24276598D01*
X30881340Y24497649D01*
X31104586Y24725981D01*
X31316012Y24946488D01*
X31500689Y25144064D01*
X31620804Y25277358D01*
X31695449Y25387216D01*
X31729002Y25517598D01*
X31734737Y25646812D01*
X31698835Y25906162D01*
X31590691Y26108311D01*
X31409021Y26254867D01*
X31180728Y26340778D01*
X31082917Y26399850D01*
X30963332Y26525454D01*
X30888637Y26625329D01*
X30790422Y26778411D01*
X30742736Y26887965D01*
X30735744Y26980374D01*
X30742125Y27018386D01*
X30811504Y27156481D01*
X30945387Y27294592D01*
X31118564Y27410780D01*
X31262828Y27471502D01*
X31353996Y27495854D01*
X31422904Y27493860D01*
G36*
X17483746Y26450463D02*
X17701529Y26418611D01*
X17770123Y26399032D01*
X18019534Y26286255D01*
X18249795Y26130464D01*
X18434714Y25951882D01*
X18528911Y25813167D01*
X18588359Y25666683D01*
X18647046Y25473597D01*
X18687333Y25299424D01*
X18730134Y25110442D01*
X18783193Y24976849D01*
X18864340Y24861981D01*
X18939280Y24781328D01*
X19129424Y24587585D01*
X19104182Y22920987D01*
X18422756Y23491584D01*
X17741329Y24062182D01*
X17347545Y24062182D01*
X17058517Y24075244D01*
X16833044Y24120351D01*
X16645269Y24206382D01*
X16469334Y24342217D01*
X16433269Y24376164D01*
X16228903Y24616782D01*
X16107877Y24870930D01*
X16061354Y25157985D01*
X16060386Y25193637D01*
X16056182Y25470728D01*
X16228422Y25485005D01*
X16335623Y25483977D01*
X16429095Y25451051D01*
X16538410Y25372282D01*
X16620968Y25299874D01*
X16793938Y25143370D01*
X16912937Y25039765D01*
X16993384Y24981003D01*
X17050698Y24959024D01*
X17100299Y24965770D01*
X17157606Y24993183D01*
X17182656Y25006334D01*
X17337452Y25135301D01*
X17436202Y25320856D01*
X17465009Y25503071D01*
X17456246Y25581250D01*
X17421484Y25658221D01*
X17348487Y25750452D01*
X17225014Y25874412D01*
X17108293Y25983107D01*
X16950121Y26129277D01*
X16851730Y26226225D01*
X16804761Y26287089D01*
X16800859Y26325004D01*
X16831668Y26353107D01*
X16862129Y26370077D01*
X17028415Y26425060D01*
X17247497Y26452234D01*
X17483746Y26450463D01*
X17483746Y26450463D01*
G37*
X17483746Y26450463D02*
X17701529Y26418611D01*
X17770123Y26399032D01*
X18019534Y26286255D01*
X18249795Y26130464D01*
X18434714Y25951882D01*
X18528911Y25813167D01*
X18588359Y25666683D01*
X18647046Y25473597D01*
X18687333Y25299424D01*
X18730134Y25110442D01*
X18783193Y24976849D01*
X18864340Y24861981D01*
X18939280Y24781328D01*
X19129424Y24587585D01*
X19104182Y22920987D01*
X18422756Y23491584D01*
X17741329Y24062182D01*
X17347545Y24062182D01*
X17058517Y24075244D01*
X16833044Y24120351D01*
X16645269Y24206382D01*
X16469334Y24342217D01*
X16433269Y24376164D01*
X16228903Y24616782D01*
X16107877Y24870930D01*
X16061354Y25157985D01*
X16060386Y25193637D01*
X16056182Y25470728D01*
X16228422Y25485005D01*
X16335623Y25483977D01*
X16429095Y25451051D01*
X16538410Y25372282D01*
X16620968Y25299874D01*
X16793938Y25143370D01*
X16912937Y25039765D01*
X16993384Y24981003D01*
X17050698Y24959024D01*
X17100299Y24965770D01*
X17157606Y24993183D01*
X17182656Y25006334D01*
X17337452Y25135301D01*
X17436202Y25320856D01*
X17465009Y25503071D01*
X17456246Y25581250D01*
X17421484Y25658221D01*
X17348487Y25750452D01*
X17225014Y25874412D01*
X17108293Y25983107D01*
X16950121Y26129277D01*
X16851730Y26226225D01*
X16804761Y26287089D01*
X16800859Y26325004D01*
X16831668Y26353107D01*
X16862129Y26370077D01*
X17028415Y26425060D01*
X17247497Y26452234D01*
X17483746Y26450463D01*
D13*
X8948557Y12924038D02*
X10448557Y10325962D01*
X8948557Y12924038D02*
G75*
G03X10448557Y10325962I-1198557J-2424038D01*
G01*
X39551443Y10325962D02*
X41051443Y12924038D01*
X39551443Y10325962D02*
G75*
G03X41051443Y12924038I2698557J174038D01*
G01*
X26500000Y35250000D02*
X23500000Y35250000D01*
X26500000Y35250000D02*
G75*
G03X23500000Y35250000I-1500000J2250000D01*
G01*
D14*
X22460000Y34020000D02*
X22460000Y31480000D01*
X22460000Y31480000D02*
X27540000Y31480000D01*
X27540000Y31480000D02*
X27540000Y34020000D01*
X27540000Y34020000D02*
X22460000Y34020000D01*
D15*
X25400000Y32050000D02*
X24600000Y32050000D01*
X24600000Y33450000D02*
X25400000Y33450000D01*
D14*
X11670148Y10165295D02*
X13869852Y11435295D01*
X13869852Y11435295D02*
X11329852Y15834705D01*
X11329852Y15834705D02*
X9130148Y14564705D01*
X9130148Y14564705D02*
X11670148Y10165295D01*
D15*
X11906218Y13696410D02*
X12306218Y13003590D01*
X11093782Y12303590D02*
X10693782Y12996410D01*
D14*
X36130148Y11435295D02*
X38329852Y10165295D01*
X38329852Y10165295D02*
X40869852Y14564705D01*
X40869852Y14564705D02*
X38670148Y15834705D01*
X38670148Y15834705D02*
X36130148Y11435295D01*
D15*
X39306218Y12996410D02*
X38906218Y12303590D01*
X37693782Y13003590D02*
X38093782Y13696410D01*
D11*
X8286812Y8371311D02*
X7886812Y9064131D01*
X8051769Y9159369D01*
X8169791Y9183521D01*
X8273870Y9155634D01*
X8344956Y9108698D01*
X8454138Y8995780D01*
X8511281Y8896805D01*
X8554480Y8745792D01*
X8559584Y8660762D01*
X8531696Y8556683D01*
X8451769Y8466549D01*
X8286812Y8371311D01*
X8513650Y9426036D02*
X8942539Y9673655D01*
X8863979Y9276390D01*
X8962954Y9333533D01*
X9047984Y9338637D01*
X9100024Y9324694D01*
X9171110Y9277758D01*
X9266348Y9112801D01*
X9271452Y9027771D01*
X9257508Y8975731D01*
X9210573Y8904645D01*
X9012624Y8790359D01*
X8927594Y8785255D01*
X8875555Y8799199D01*
X6776044Y11792344D02*
X6894066Y11816496D01*
X6946105Y11802551D01*
X7017191Y11755616D01*
X7074334Y11656642D01*
X7079438Y11571612D01*
X7065495Y11519572D01*
X7018559Y11448486D01*
X6754627Y11296105D01*
X6354627Y11988925D01*
X6585568Y12122258D01*
X6670598Y12127362D01*
X6722637Y12113419D01*
X6793724Y12066483D01*
X6831819Y12000501D01*
X6836923Y11915470D01*
X6822979Y11863431D01*
X6776044Y11792344D01*
X6545103Y11659011D01*
X7546422Y11753248D02*
X7461391Y11748143D01*
X7390305Y11795079D01*
X7047448Y12388925D01*
X7840610Y12538938D02*
X8107277Y12077057D01*
X7543687Y12367509D02*
X7753211Y12004603D01*
X7824298Y11957667D01*
X7909328Y11962772D01*
X8008303Y12019915D01*
X8055238Y12091001D01*
X8069181Y12143040D01*
X42440453Y11992876D02*
X42840453Y12685696D01*
X43005410Y12590458D01*
X43085337Y12500324D01*
X43113226Y12396246D01*
X43108121Y12311215D01*
X43064922Y12160202D01*
X43007779Y12061227D01*
X42898597Y11948309D01*
X42827511Y11901374D01*
X42723432Y11873486D01*
X42605410Y11897638D01*
X42440453Y11992876D01*
X43462187Y12238761D02*
X43514226Y12252705D01*
X43599257Y12247601D01*
X43764214Y12152363D01*
X43811149Y12081277D01*
X43825094Y12029237D01*
X43819989Y11944207D01*
X43781894Y11878224D01*
X43691760Y11798297D01*
X43067291Y11630971D01*
X43496180Y11383352D01*
X41054552Y9863397D02*
X41007616Y9934484D01*
X40908642Y9991626D01*
X40790620Y10015778D01*
X40686542Y9987891D01*
X40615455Y9940955D01*
X40506273Y9828037D01*
X40449130Y9729062D01*
X40405931Y9578049D01*
X40400827Y9493019D01*
X40428715Y9388940D01*
X40508642Y9298806D01*
X40574625Y9260711D01*
X40692647Y9236559D01*
X40744686Y9250504D01*
X40878019Y9481443D01*
X40746053Y9557634D01*
X41003513Y9013092D02*
X41270180Y9474973D01*
X41193990Y9343007D02*
X41265076Y9389942D01*
X41317116Y9403885D01*
X41402146Y9398782D01*
X41468130Y9360687D01*
X41699069Y9227354D02*
X41432402Y8765473D01*
X41660974Y9161371D02*
X41713012Y9175314D01*
X41798044Y9170211D01*
X41897018Y9113068D01*
X41943953Y9041981D01*
X41938849Y8956951D01*
X41729325Y8594045D01*
X23611905Y36918499D02*
X22811905Y36918499D01*
X22811905Y37108975D01*
X22850000Y37223261D01*
X22926190Y37299452D01*
X23002381Y37337547D01*
X23154762Y37375642D01*
X23269048Y37375642D01*
X23421429Y37337547D01*
X23497619Y37299452D01*
X23573810Y37223261D01*
X23611905Y37108975D01*
X23611905Y36918499D01*
X23611905Y38137547D02*
X23611905Y37680404D01*
X23611905Y37908975D02*
X22811905Y37908975D01*
X22926190Y37832785D01*
X23002381Y37756594D01*
X23040476Y37680404D01*
X26910943Y36725870D02*
X26529990Y36459203D01*
X26910943Y36268727D02*
X26110943Y36268727D01*
X26110943Y36573489D01*
X26149038Y36649680D01*
X26187133Y36687775D01*
X26263324Y36725870D01*
X26377609Y36725870D01*
X26453800Y36687775D01*
X26491895Y36649680D01*
X26529990Y36573489D01*
X26529990Y36268727D01*
X26872848Y37373489D02*
X26910943Y37297299D01*
X26910943Y37144918D01*
X26872848Y37068727D01*
X26796657Y37030632D01*
X26491895Y37030632D01*
X26415705Y37068727D01*
X26377609Y37144918D01*
X26377609Y37297299D01*
X26415705Y37373489D01*
X26491895Y37411584D01*
X26568086Y37411584D01*
X26644276Y37030632D01*
X26910943Y38097298D02*
X26110943Y38097298D01*
X26872848Y38097298D02*
X26910943Y38021108D01*
X26910943Y37868727D01*
X26872848Y37792536D01*
X26834752Y37754441D01*
X26758562Y37716346D01*
X26529990Y37716346D01*
X26453800Y37754441D01*
X26415705Y37792536D01*
X26377609Y37868727D01*
X26377609Y38021108D01*
X26415705Y38097298D01*
D16*
X23255262Y32601834D02*
X22952881Y32305500D01*
X23255262Y32093834D02*
X22620262Y32093834D01*
X22620262Y32432500D01*
X22650500Y32517167D01*
X22680738Y32559500D01*
X22741214Y32601834D01*
X22831929Y32601834D01*
X22892405Y32559500D01*
X22922643Y32517167D01*
X22952881Y32432500D01*
X22952881Y32093834D01*
X23255262Y33448500D02*
X23255262Y32940500D01*
X23255262Y33194500D02*
X22620262Y33194500D01*
X22710976Y33109834D01*
X22771452Y33025167D01*
X22801690Y32940500D01*
X12531315Y10917377D02*
X12123492Y11031079D01*
X12091375Y10663377D02*
X11773875Y11213303D01*
X12067168Y11382636D01*
X12155611Y11398783D01*
X12207391Y11393762D01*
X12274291Y11362555D01*
X12319649Y11283994D01*
X12313225Y11210453D01*
X12291682Y11163100D01*
X12233477Y11094579D01*
X11940184Y10925246D01*
X12470447Y11615469D02*
X12947050Y11890636D01*
X12811370Y11532974D01*
X12921356Y11596474D01*
X13009798Y11612620D01*
X13061579Y11607600D01*
X13128478Y11576393D01*
X13204074Y11445457D01*
X13197650Y11371917D01*
X13176108Y11324564D01*
X13117903Y11256043D01*
X12897933Y11129043D01*
X12809490Y11112897D01*
X12757709Y11117917D01*
X37212053Y11065543D02*
X37106611Y11475579D01*
X36772113Y11319543D02*
X37089613Y11869469D01*
X37382906Y11700136D01*
X37441111Y11631616D01*
X37462653Y11584262D01*
X37469077Y11510721D01*
X37423720Y11432160D01*
X37356820Y11400953D01*
X37305039Y11395933D01*
X37216596Y11412079D01*
X36923303Y11581412D01*
X37792609Y11393762D02*
X37844390Y11398782D01*
X37932832Y11382636D01*
X38116141Y11276802D01*
X38174346Y11208282D01*
X38195888Y11160929D01*
X38202312Y11087388D01*
X38172074Y11035015D01*
X38090055Y10977620D01*
X37468685Y10917376D01*
X37945288Y10642210D01*
%LPC*%
D17*
X25000000Y44650000D03*
D18*
X6650148Y9865000D03*
X8849852Y11135000D03*
X43349852Y9865000D03*
X41150148Y11135000D03*
X25000000Y38770000D03*
X25000000Y36230000D03*
D19*
X25950000Y32750000D03*
X24050000Y32750000D03*
D20*
X29064000Y32750000D03*
X20936000Y32750000D03*
D10*
G36*
X12176073Y13679006D02*
X10573927Y12754006D01*
X9873927Y13966442D01*
X11476073Y14891442D01*
X12176073Y13679006D01*
X12176073Y13679006D01*
G37*
G36*
X13126073Y12033558D02*
X11523927Y11108558D01*
X10823927Y12320994D01*
X12426073Y13245994D01*
X13126073Y12033558D01*
X13126073Y12033558D01*
G37*
D20*
X9468000Y16519527D03*
X13532000Y9480473D03*
D10*
G36*
X39426073Y12754006D02*
X37823927Y13679006D01*
X38523927Y14891442D01*
X40126073Y13966442D01*
X39426073Y12754006D01*
X39426073Y12754006D01*
G37*
G36*
X38476073Y11108558D02*
X36873927Y12033558D01*
X37573927Y13245994D01*
X39176073Y12320994D01*
X38476073Y11108558D01*
X38476073Y11108558D01*
G37*
D20*
X40532000Y16519527D03*
X36468000Y9480473D03*
D21*
X33100000Y20500000D03*
X13200000Y20500000D03*
X11000000Y20500000D03*
X38000000Y20500000D03*
D22*
X20750000Y40500000D03*
X20750000Y42500000D03*
X29250000Y40500000D03*
X29250000Y42500000D03*
M02*
