%TF.GenerationSoftware,KiCad,Pcbnew,4.0.6-e0-6349~53~ubuntu16.04.1*%
%TF.CreationDate,2017-05-16T14:29:19+05:30*%
%TF.ProjectId,MAP4,4D4150342E6B696361645F7063620000,1*%
%TF.FileFunction,Drawing*%
%FSLAX46Y46*%
G04 Gerber Fmt 4.6, Leading zero omitted, Abs format (unit mm)*
G04 Created by KiCad (PCBNEW 4.0.6-e0-6349~53~ubuntu16.04.1) date Tue May 16 14:29:19 2017*
%MOMM*%
%LPD*%
G01*
G04 APERTURE LIST*
%ADD10C,0.050800*%
%ADD11C,0.200000*%
%ADD12C,0.300000*%
G04 APERTURE END LIST*
D10*
D11*
X48260000Y20320000D02*
X46990000Y21590000D01*
X48260000Y22860000D02*
X48260000Y20320000D01*
X46990000Y21590000D02*
X48260000Y22860000D01*
X52070000Y21590000D02*
X46990000Y21590000D01*
X52070000Y16510000D02*
X52070000Y26670000D01*
X81280000Y16510000D02*
X52070000Y16510000D01*
X81280000Y26670000D02*
X81280000Y16510000D01*
X52070000Y26670000D02*
X81280000Y26670000D01*
D12*
X52682858Y23461429D02*
X52682858Y24961429D01*
X53254286Y24961429D01*
X53397144Y24890000D01*
X53468572Y24818571D01*
X53540001Y24675714D01*
X53540001Y24461429D01*
X53468572Y24318571D01*
X53397144Y24247143D01*
X53254286Y24175714D01*
X52682858Y24175714D01*
X54897144Y23461429D02*
X54182858Y23461429D01*
X54182858Y24961429D01*
X55397144Y24247143D02*
X55897144Y24247143D01*
X56111430Y23461429D02*
X55397144Y23461429D01*
X55397144Y24961429D01*
X56111430Y24961429D01*
X56682858Y23890000D02*
X57397144Y23890000D01*
X56540001Y23461429D02*
X57040001Y24961429D01*
X57540001Y23461429D01*
X57968572Y23532857D02*
X58182858Y23461429D01*
X58540001Y23461429D01*
X58682858Y23532857D01*
X58754287Y23604286D01*
X58825715Y23747143D01*
X58825715Y23890000D01*
X58754287Y24032857D01*
X58682858Y24104286D01*
X58540001Y24175714D01*
X58254287Y24247143D01*
X58111429Y24318571D01*
X58040001Y24390000D01*
X57968572Y24532857D01*
X57968572Y24675714D01*
X58040001Y24818571D01*
X58111429Y24890000D01*
X58254287Y24961429D01*
X58611429Y24961429D01*
X58825715Y24890000D01*
X59468572Y24247143D02*
X59968572Y24247143D01*
X60182858Y23461429D02*
X59468572Y23461429D01*
X59468572Y24961429D01*
X60182858Y24961429D01*
X61897143Y23890000D02*
X62611429Y23890000D01*
X61754286Y23461429D02*
X62254286Y24961429D01*
X62754286Y23461429D01*
X63254286Y23461429D02*
X63254286Y24961429D01*
X63611429Y24961429D01*
X63825714Y24890000D01*
X63968572Y24747143D01*
X64040000Y24604286D01*
X64111429Y24318571D01*
X64111429Y24104286D01*
X64040000Y23818571D01*
X63968572Y23675714D01*
X63825714Y23532857D01*
X63611429Y23461429D01*
X63254286Y23461429D01*
X64754286Y23461429D02*
X64754286Y24961429D01*
X65111429Y24961429D01*
X65325714Y24890000D01*
X65468572Y24747143D01*
X65540000Y24604286D01*
X65611429Y24318571D01*
X65611429Y24104286D01*
X65540000Y23818571D01*
X65468572Y23675714D01*
X65325714Y23532857D01*
X65111429Y23461429D01*
X64754286Y23461429D01*
X67397143Y24247143D02*
X67897143Y24247143D01*
X68111429Y23461429D02*
X67397143Y23461429D01*
X67397143Y24961429D01*
X68111429Y24961429D01*
X68540000Y24961429D02*
X69397143Y24961429D01*
X68968572Y23461429D02*
X68968572Y24961429D01*
X70182857Y24961429D02*
X70468571Y24961429D01*
X70611429Y24890000D01*
X70754286Y24747143D01*
X70825714Y24461429D01*
X70825714Y23961429D01*
X70754286Y23675714D01*
X70611429Y23532857D01*
X70468571Y23461429D01*
X70182857Y23461429D01*
X70040000Y23532857D01*
X69897143Y23675714D01*
X69825714Y23961429D01*
X69825714Y24461429D01*
X69897143Y24747143D01*
X70040000Y24890000D01*
X70182857Y24961429D01*
X71468572Y23461429D02*
X71468572Y24961429D01*
X72325715Y23461429D02*
X71682858Y24318571D01*
X72325715Y24961429D02*
X71468572Y24104286D01*
X74111429Y23461429D02*
X74111429Y24961429D01*
X74611429Y23890000D01*
X75111429Y24961429D01*
X75111429Y23461429D01*
X75754286Y23890000D02*
X76468572Y23890000D01*
X75611429Y23461429D02*
X76111429Y24961429D01*
X76611429Y23461429D01*
X77968572Y23461429D02*
X77468572Y24175714D01*
X77111429Y23461429D02*
X77111429Y24961429D01*
X77682857Y24961429D01*
X77825715Y24890000D01*
X77897143Y24818571D01*
X77968572Y24675714D01*
X77968572Y24461429D01*
X77897143Y24318571D01*
X77825715Y24247143D01*
X77682857Y24175714D01*
X77111429Y24175714D01*
X78611429Y23461429D02*
X78611429Y24961429D01*
X79468572Y23461429D02*
X78825715Y24318571D01*
X79468572Y24961429D02*
X78611429Y24104286D01*
X52647142Y22411429D02*
X53504285Y22411429D01*
X53075714Y20911429D02*
X53075714Y22411429D01*
X54289999Y22411429D02*
X54575713Y22411429D01*
X54718571Y22340000D01*
X54861428Y22197143D01*
X54932856Y21911429D01*
X54932856Y21411429D01*
X54861428Y21125714D01*
X54718571Y20982857D01*
X54575713Y20911429D01*
X54289999Y20911429D01*
X54147142Y20982857D01*
X54004285Y21125714D01*
X53932856Y21411429D01*
X53932856Y21911429D01*
X54004285Y22197143D01*
X54147142Y22340000D01*
X54289999Y22411429D01*
X57218571Y21697143D02*
X57432857Y21625714D01*
X57504285Y21554286D01*
X57575714Y21411429D01*
X57575714Y21197143D01*
X57504285Y21054286D01*
X57432857Y20982857D01*
X57289999Y20911429D01*
X56718571Y20911429D01*
X56718571Y22411429D01*
X57218571Y22411429D01*
X57361428Y22340000D01*
X57432857Y22268571D01*
X57504285Y22125714D01*
X57504285Y21982857D01*
X57432857Y21840000D01*
X57361428Y21768571D01*
X57218571Y21697143D01*
X56718571Y21697143D01*
X58504285Y22411429D02*
X58789999Y22411429D01*
X58932857Y22340000D01*
X59075714Y22197143D01*
X59147142Y21911429D01*
X59147142Y21411429D01*
X59075714Y21125714D01*
X58932857Y20982857D01*
X58789999Y20911429D01*
X58504285Y20911429D01*
X58361428Y20982857D01*
X58218571Y21125714D01*
X58147142Y21411429D01*
X58147142Y21911429D01*
X58218571Y22197143D01*
X58361428Y22340000D01*
X58504285Y22411429D01*
X59575714Y22411429D02*
X60432857Y22411429D01*
X60004286Y20911429D02*
X60004286Y22411429D01*
X60718571Y22411429D02*
X61575714Y22411429D01*
X61147143Y20911429D02*
X61147143Y22411429D01*
X62361428Y22411429D02*
X62647142Y22411429D01*
X62790000Y22340000D01*
X62932857Y22197143D01*
X63004285Y21911429D01*
X63004285Y21411429D01*
X62932857Y21125714D01*
X62790000Y20982857D01*
X62647142Y20911429D01*
X62361428Y20911429D01*
X62218571Y20982857D01*
X62075714Y21125714D01*
X62004285Y21411429D01*
X62004285Y21911429D01*
X62075714Y22197143D01*
X62218571Y22340000D01*
X62361428Y22411429D01*
X63647143Y20911429D02*
X63647143Y22411429D01*
X64147143Y21340000D01*
X64647143Y22411429D01*
X64647143Y20911429D01*
X67218572Y20911429D02*
X66504286Y20911429D01*
X66504286Y22411429D01*
X67647143Y21340000D02*
X68361429Y21340000D01*
X67504286Y20911429D02*
X68004286Y22411429D01*
X68504286Y20911429D01*
X69290000Y21625714D02*
X69290000Y20911429D01*
X68790000Y22411429D02*
X69290000Y21625714D01*
X69790000Y22411429D01*
X70290000Y21697143D02*
X70790000Y21697143D01*
X71004286Y20911429D02*
X70290000Y20911429D01*
X70290000Y22411429D01*
X71004286Y22411429D01*
X72504286Y20911429D02*
X72004286Y21625714D01*
X71647143Y20911429D02*
X71647143Y22411429D01*
X72218571Y22411429D01*
X72361429Y22340000D01*
X72432857Y22268571D01*
X72504286Y22125714D01*
X72504286Y21911429D01*
X72432857Y21768571D01*
X72361429Y21697143D01*
X72218571Y21625714D01*
X71647143Y21625714D01*
X74575714Y22411429D02*
X74861428Y22411429D01*
X75004286Y22340000D01*
X75147143Y22197143D01*
X75218571Y21911429D01*
X75218571Y21411429D01*
X75147143Y21125714D01*
X75004286Y20982857D01*
X74861428Y20911429D01*
X74575714Y20911429D01*
X74432857Y20982857D01*
X74290000Y21125714D01*
X74218571Y21411429D01*
X74218571Y21911429D01*
X74290000Y22197143D01*
X74432857Y22340000D01*
X74575714Y22411429D01*
X75861429Y20911429D02*
X75861429Y22411429D01*
X76718572Y20911429D01*
X76718572Y22411429D01*
X78147144Y20911429D02*
X77432858Y20911429D01*
X77432858Y22411429D01*
X78932858Y21625714D02*
X78932858Y20911429D01*
X78432858Y22411429D02*
X78932858Y21625714D01*
X79432858Y22411429D01*
X53790000Y18361429D02*
X53790000Y19861429D01*
X54504286Y18361429D02*
X54504286Y19861429D01*
X55361429Y18361429D01*
X55361429Y19861429D01*
X57004286Y19861429D02*
X57861429Y19861429D01*
X57432858Y18361429D02*
X57432858Y19861429D01*
X58361429Y18361429D02*
X58361429Y19861429D01*
X58361429Y19147143D02*
X59218572Y19147143D01*
X59218572Y18361429D02*
X59218572Y19861429D01*
X59932858Y19147143D02*
X60432858Y19147143D01*
X60647144Y18361429D02*
X59932858Y18361429D01*
X59932858Y19861429D01*
X60647144Y19861429D01*
X62432858Y18361429D02*
X62432858Y19861429D01*
X63004286Y19861429D01*
X63147144Y19790000D01*
X63218572Y19718571D01*
X63290001Y19575714D01*
X63290001Y19361429D01*
X63218572Y19218571D01*
X63147144Y19147143D01*
X63004286Y19075714D01*
X62432858Y19075714D01*
X64790001Y18361429D02*
X64290001Y19075714D01*
X63932858Y18361429D02*
X63932858Y19861429D01*
X64504286Y19861429D01*
X64647144Y19790000D01*
X64718572Y19718571D01*
X64790001Y19575714D01*
X64790001Y19361429D01*
X64718572Y19218571D01*
X64647144Y19147143D01*
X64504286Y19075714D01*
X63932858Y19075714D01*
X65718572Y19861429D02*
X66004286Y19861429D01*
X66147144Y19790000D01*
X66290001Y19647143D01*
X66361429Y19361429D01*
X66361429Y18861429D01*
X66290001Y18575714D01*
X66147144Y18432857D01*
X66004286Y18361429D01*
X65718572Y18361429D01*
X65575715Y18432857D01*
X65432858Y18575714D01*
X65361429Y18861429D01*
X65361429Y19361429D01*
X65432858Y19647143D01*
X65575715Y19790000D01*
X65718572Y19861429D01*
X66790001Y19861429D02*
X67290001Y18361429D01*
X67790001Y19861429D01*
X68290001Y18361429D02*
X68290001Y19861429D01*
X69004287Y18361429D02*
X69004287Y19861429D01*
X69361430Y19861429D01*
X69575715Y19790000D01*
X69718573Y19647143D01*
X69790001Y19504286D01*
X69861430Y19218571D01*
X69861430Y19004286D01*
X69790001Y18718571D01*
X69718573Y18575714D01*
X69575715Y18432857D01*
X69361430Y18361429D01*
X69004287Y18361429D01*
X70504287Y19147143D02*
X71004287Y19147143D01*
X71218573Y18361429D02*
X70504287Y18361429D01*
X70504287Y19861429D01*
X71218573Y19861429D01*
X71861430Y18361429D02*
X71861430Y19861429D01*
X72218573Y19861429D01*
X72432858Y19790000D01*
X72575716Y19647143D01*
X72647144Y19504286D01*
X72718573Y19218571D01*
X72718573Y19004286D01*
X72647144Y18718571D01*
X72575716Y18575714D01*
X72432858Y18432857D01*
X72218573Y18361429D01*
X71861430Y18361429D01*
X75004287Y19147143D02*
X75218573Y19075714D01*
X75290001Y19004286D01*
X75361430Y18861429D01*
X75361430Y18647143D01*
X75290001Y18504286D01*
X75218573Y18432857D01*
X75075715Y18361429D01*
X74504287Y18361429D01*
X74504287Y19861429D01*
X75004287Y19861429D01*
X75147144Y19790000D01*
X75218573Y19718571D01*
X75290001Y19575714D01*
X75290001Y19432857D01*
X75218573Y19290000D01*
X75147144Y19218571D01*
X75004287Y19147143D01*
X74504287Y19147143D01*
X76290001Y19861429D02*
X76575715Y19861429D01*
X76718573Y19790000D01*
X76861430Y19647143D01*
X76932858Y19361429D01*
X76932858Y18861429D01*
X76861430Y18575714D01*
X76718573Y18432857D01*
X76575715Y18361429D01*
X76290001Y18361429D01*
X76147144Y18432857D01*
X76004287Y18575714D01*
X75932858Y18861429D01*
X75932858Y19361429D01*
X76004287Y19647143D01*
X76147144Y19790000D01*
X76290001Y19861429D01*
X77432859Y19861429D02*
X78432859Y18361429D01*
X78432859Y19861429D02*
X77432859Y18361429D01*
X-7171429Y19000001D02*
X-6171429Y19000001D01*
X-7742857Y18642858D02*
X-6671429Y18285715D01*
X-6671429Y19214287D01*
X-6171429Y19857143D02*
X-6171429Y20142858D01*
X-6242857Y20285715D01*
X-6314286Y20357143D01*
X-6528571Y20500001D01*
X-6814286Y20571429D01*
X-7385714Y20571429D01*
X-7528571Y20500001D01*
X-7600000Y20428572D01*
X-7671429Y20285715D01*
X-7671429Y20000001D01*
X-7600000Y19857143D01*
X-7528571Y19785715D01*
X-7385714Y19714286D01*
X-7028571Y19714286D01*
X-6885714Y19785715D01*
X-6814286Y19857143D01*
X-6742857Y20000001D01*
X-6742857Y20285715D01*
X-6814286Y20428572D01*
X-6885714Y20500001D01*
X-7028571Y20571429D01*
X-6314286Y21214286D02*
X-6242857Y21285714D01*
X-6171429Y21214286D01*
X-6242857Y21142857D01*
X-6314286Y21214286D01*
X-6171429Y21214286D01*
X-7671429Y22214286D02*
X-7671429Y22357143D01*
X-7600000Y22500000D01*
X-7528571Y22571429D01*
X-7385714Y22642858D01*
X-7100000Y22714286D01*
X-6742857Y22714286D01*
X-6457143Y22642858D01*
X-6314286Y22571429D01*
X-6242857Y22500000D01*
X-6171429Y22357143D01*
X-6171429Y22214286D01*
X-6242857Y22071429D01*
X-6314286Y22000000D01*
X-6457143Y21928572D01*
X-6742857Y21857143D01*
X-7100000Y21857143D01*
X-7385714Y21928572D01*
X-7528571Y22000000D01*
X-7600000Y22071429D01*
X-7671429Y22214286D01*
X-7671429Y23642857D02*
X-7671429Y23785714D01*
X-7600000Y23928571D01*
X-7528571Y24000000D01*
X-7385714Y24071429D01*
X-7100000Y24142857D01*
X-6742857Y24142857D01*
X-6457143Y24071429D01*
X-6314286Y24000000D01*
X-6242857Y23928571D01*
X-6171429Y23785714D01*
X-6171429Y23642857D01*
X-6242857Y23500000D01*
X-6314286Y23428571D01*
X-6457143Y23357143D01*
X-6742857Y23285714D01*
X-7100000Y23285714D01*
X-7385714Y23357143D01*
X-7528571Y23428571D01*
X-7600000Y23500000D01*
X-7671429Y23642857D01*
X-7671429Y25071428D02*
X-7671429Y25214285D01*
X-7600000Y25357142D01*
X-7528571Y25428571D01*
X-7385714Y25500000D01*
X-7100000Y25571428D01*
X-6742857Y25571428D01*
X-6457143Y25500000D01*
X-6314286Y25428571D01*
X-6242857Y25357142D01*
X-6171429Y25214285D01*
X-6171429Y25071428D01*
X-6242857Y24928571D01*
X-6314286Y24857142D01*
X-6457143Y24785714D01*
X-6742857Y24714285D01*
X-7100000Y24714285D01*
X-7385714Y24785714D01*
X-7528571Y24857142D01*
X-7600000Y24928571D01*
X-7671429Y25071428D01*
X-6171429Y27357142D02*
X-7171429Y27357142D01*
X-7028571Y27357142D02*
X-7100000Y27428570D01*
X-7171429Y27571428D01*
X-7171429Y27785713D01*
X-7100000Y27928570D01*
X-6957143Y27999999D01*
X-6171429Y27999999D01*
X-6957143Y27999999D02*
X-7100000Y28071428D01*
X-7171429Y28214285D01*
X-7171429Y28428570D01*
X-7100000Y28571428D01*
X-6957143Y28642856D01*
X-6171429Y28642856D01*
X-6171429Y29357142D02*
X-7171429Y29357142D01*
X-7028571Y29357142D02*
X-7100000Y29428570D01*
X-7171429Y29571428D01*
X-7171429Y29785713D01*
X-7100000Y29928570D01*
X-6957143Y29999999D01*
X-6171429Y29999999D01*
X-6957143Y29999999D02*
X-7100000Y30071428D01*
X-7171429Y30214285D01*
X-7171429Y30428570D01*
X-7100000Y30571428D01*
X-6957143Y30642856D01*
X-6171429Y30642856D01*
X-5500000Y0D02*
X-5500000Y49000000D01*
X25000000Y0D02*
X-8200000Y0D01*
X25000000Y49000000D02*
X-8200000Y49000000D01*
X-5500000Y49000000D02*
X-4913579Y47873496D01*
X-5500000Y49000000D02*
X-6086421Y47873496D01*
X-5500000Y0D02*
X-4913579Y1126504D01*
X-5500000Y0D02*
X-6086421Y1126504D01*
X19571430Y-4028570D02*
X18857144Y-4028570D01*
X18785715Y-4742856D01*
X18857144Y-4671428D01*
X19000001Y-4599999D01*
X19357144Y-4599999D01*
X19500001Y-4671428D01*
X19571430Y-4742856D01*
X19642858Y-4885713D01*
X19642858Y-5242856D01*
X19571430Y-5385713D01*
X19500001Y-5457142D01*
X19357144Y-5528570D01*
X19000001Y-5528570D01*
X18857144Y-5457142D01*
X18785715Y-5385713D01*
X20571429Y-4028570D02*
X20714286Y-4028570D01*
X20857143Y-4099999D01*
X20928572Y-4171428D01*
X21000001Y-4314285D01*
X21071429Y-4599999D01*
X21071429Y-4957142D01*
X21000001Y-5242856D01*
X20928572Y-5385713D01*
X20857143Y-5457142D01*
X20714286Y-5528570D01*
X20571429Y-5528570D01*
X20428572Y-5457142D01*
X20357143Y-5385713D01*
X20285715Y-5242856D01*
X20214286Y-4957142D01*
X20214286Y-4599999D01*
X20285715Y-4314285D01*
X20357143Y-4171428D01*
X20428572Y-4099999D01*
X20571429Y-4028570D01*
X21714286Y-5385713D02*
X21785714Y-5457142D01*
X21714286Y-5528570D01*
X21642857Y-5457142D01*
X21714286Y-5385713D01*
X21714286Y-5528570D01*
X22714286Y-4028570D02*
X22857143Y-4028570D01*
X23000000Y-4099999D01*
X23071429Y-4171428D01*
X23142858Y-4314285D01*
X23214286Y-4599999D01*
X23214286Y-4957142D01*
X23142858Y-5242856D01*
X23071429Y-5385713D01*
X23000000Y-5457142D01*
X22857143Y-5528570D01*
X22714286Y-5528570D01*
X22571429Y-5457142D01*
X22500000Y-5385713D01*
X22428572Y-5242856D01*
X22357143Y-4957142D01*
X22357143Y-4599999D01*
X22428572Y-4314285D01*
X22500000Y-4171428D01*
X22571429Y-4099999D01*
X22714286Y-4028570D01*
X24142857Y-4028570D02*
X24285714Y-4028570D01*
X24428571Y-4099999D01*
X24500000Y-4171428D01*
X24571429Y-4314285D01*
X24642857Y-4599999D01*
X24642857Y-4957142D01*
X24571429Y-5242856D01*
X24500000Y-5385713D01*
X24428571Y-5457142D01*
X24285714Y-5528570D01*
X24142857Y-5528570D01*
X24000000Y-5457142D01*
X23928571Y-5385713D01*
X23857143Y-5242856D01*
X23785714Y-4957142D01*
X23785714Y-4599999D01*
X23857143Y-4314285D01*
X23928571Y-4171428D01*
X24000000Y-4099999D01*
X24142857Y-4028570D01*
X25571428Y-4028570D02*
X25714285Y-4028570D01*
X25857142Y-4099999D01*
X25928571Y-4171428D01*
X26000000Y-4314285D01*
X26071428Y-4599999D01*
X26071428Y-4957142D01*
X26000000Y-5242856D01*
X25928571Y-5385713D01*
X25857142Y-5457142D01*
X25714285Y-5528570D01*
X25571428Y-5528570D01*
X25428571Y-5457142D01*
X25357142Y-5385713D01*
X25285714Y-5242856D01*
X25214285Y-4957142D01*
X25214285Y-4599999D01*
X25285714Y-4314285D01*
X25357142Y-4171428D01*
X25428571Y-4099999D01*
X25571428Y-4028570D01*
X27857142Y-5528570D02*
X27857142Y-4528570D01*
X27857142Y-4671428D02*
X27928570Y-4599999D01*
X28071428Y-4528570D01*
X28285713Y-4528570D01*
X28428570Y-4599999D01*
X28499999Y-4742856D01*
X28499999Y-5528570D01*
X28499999Y-4742856D02*
X28571428Y-4599999D01*
X28714285Y-4528570D01*
X28928570Y-4528570D01*
X29071428Y-4599999D01*
X29142856Y-4742856D01*
X29142856Y-5528570D01*
X29857142Y-5528570D02*
X29857142Y-4528570D01*
X29857142Y-4671428D02*
X29928570Y-4599999D01*
X30071428Y-4528570D01*
X30285713Y-4528570D01*
X30428570Y-4599999D01*
X30499999Y-4742856D01*
X30499999Y-5528570D01*
X30499999Y-4742856D02*
X30571428Y-4599999D01*
X30714285Y-4528570D01*
X30928570Y-4528570D01*
X31071428Y-4599999D01*
X31142856Y-4742856D01*
X31142856Y-5528570D01*
X0Y-3499999D02*
X50000000Y-3499999D01*
X0Y8000000D02*
X0Y-6199999D01*
X50000000Y8000000D02*
X50000000Y-6199999D01*
X50000000Y-3499999D02*
X48873496Y-4086420D01*
X50000000Y-3499999D02*
X48873496Y-2913578D01*
X0Y-3499999D02*
X1126504Y-4086420D01*
X0Y-3499999D02*
X1126504Y-2913578D01*
M02*
